<svg xmlns="http://www.w3.org/2000/svg" viewBox="0 0 613.15 344.5"><defs><style>.cls-1{fill:#121212}.cls-11,.cls-2,.cls-3,.cls-35,.cls-4,.cls-5,.cls-6,.cls-7,.cls-8,.cls-9{fill:none}.cls-3,.cls-6{stroke:#9f9787}.cls-10,.cls-11,.cls-12,.cls-3,.cls-35,.cls-4,.cls-5,.cls-6,.cls-7,.cls-8,.cls-9{stroke-miterlimit:10}.cls-11,.cls-3{stroke-width:1.61px}.cls-4{stroke:#c9c1b1}.cls-4,.cls-6,.cls-7{stroke-width:.81px}.cls-10,.cls-12,.cls-35,.cls-5,.cls-7,.cls-8,.cls-9{stroke:#412312}.cls-5{stroke-width:4.84px}.cls-8{stroke-width:3.22px}.cls-10,.cls-9{stroke-width:2.42px}.cls-10,.cls-13{fill:#c59c6d}.cls-11{stroke:#766f65}.cls-12,.cls-33{fill:#603a17}.cls-12{stroke-width:.5px}.cls-14{fill:#412312}.cls-15{fill:#fff}.cls-16{fill:#2d1e10}.cls-17{fill:#b8ae9c}.cls-18{fill:#c1b6a5}.cls-19{fill:#5a534a}.cls-20{fill:#504a40}.cls-21{fill:#898277}.cls-22{fill:#635c52}.cls-23{fill:#c6bdb1}.cls-24{fill:#a19690}.cls-25{fill:#988e84}.cls-26{fill:#ab9f91}.cls-27{fill:#817b71}.cls-28{fill:#706966}.cls-29{fill:#484139}.cls-30{fill:#a77d52}.cls-31{fill:#754d25}.cls-32{fill:#8d633a}.cls-34{fill:#fbb03b}.cls-35{stroke-width:.12px}.cls-36{fill:#f79421}</style></defs><title>Sea_Bottom_Cut_off_final</title><g id="Layer_4" data-name="Layer 4"><rect width="25.55" height="17.3" x="586.34" y="248.92" class="cls-1"/><rect width="96.12" height="89.31" x="408.39" y="230.82" class="cls-1"/><line x1="575.12" x2="538.55" y1="295.23" y2="260.74" class="cls-2"/><path d="M218.14,588.29c168.33,9.25,234.58-130,234.58-130" class="cls-3" transform="translate(-0.1 -447.98)"/><path d="M219.75,588.45C274.93,585.44,435,461,435,461s-75.87,27-106.55,55.12c0,0-6.2,5.46-17.65,6.57,0,0-24.66,10.68-34.34,19.86,0,0,.89,7.42-23.6,9.47,0,0-45.34,16.39-46.7,30.23" class="cls-4" transform="translate(-0.1 -447.98)"/><line x1="195.49" x2="329.79" y1="130.81" y2="197.45" class="cls-5"/><path d="M243.05,555.94c18.14-5,40,7.69,40,7.69" class="cls-4" transform="translate(-0.1 -447.98)"/><path d="M390.7,533.1s-39.44,56.12-71.21,62.09c-8.71,1.64-33.22-12.35-33.22-12.35" class="cls-6" transform="translate(-0.1 -447.98)"/><path d="M317.46,595.34c-.93,9.39-19.38,32.38-19.38,32.38" class="cls-6" transform="translate(-0.1 -447.98)"/><path d="M335.77,606.73" class="cls-7" transform="translate(-0.1 -447.98)"/><path d="M460.19,522s-7.67,36.84-16.56,5.35" class="cls-6" transform="translate(-0.1 -447.98)"/><path d="M508.68,635.25c-20.12,13.45-80.06,18.25-80.06,18.25" class="cls-6" transform="translate(-0.1 -447.98)"/><polyline points="608.04 212.25 606.26 206.9 600.5 190.45" class="cls-8"/><path d="M480.93,581.17s-5.09,7.87-47.67,16.91" class="cls-6" transform="translate(-0.1 -447.98)"/><line x1="435.64" x2="415.5" y1="134.29" y2="137.44" class="cls-9"/><line x1="422.19" x2="444.63" y1="69.27" y2="63.38" class="cls-9"/><line x1="434.91" x2="545.04" y1="13.03" y2="228.31" class="cls-8"/><path d="M443.83,528.06c13.54,46.3,33.39-18.78,33.39-18.78" class="cls-4" transform="translate(-0.1 -447.98)"/><line x1="482.28" x2="457.64" y1="56.55" y2="75.99" class="cls-10"/><path d="M533.41,618.45c-20.73,13.21-106.26,34.91-106.26,34.91" class="cls-4" transform="translate(-0.1 -447.98)"/><line x1="533.31" x2="508.44" y1="170.47" y2="188.68" class="cls-9"/><path d="M507.48,566.91l-1.47-1s-34.1,76.86-78.86,87.45c0,0,34.53-19.75,54-72" class="cls-11" transform="translate(-0.1 -447.98)"/><path d="M423.54,657.05c4.35-44.24,27.33-179.91,27.33-179.91l3.23-24" class="cls-8" transform="translate(-0.1 -447.98)"/><path d="M433.78,592.73s50.56.62,72.14-26.92" class="cls-4" transform="translate(-0.1 -447.98)"/><line x1="478.24" x2="507.65" y1="134.84" y2="116.13" class="cls-9"/><path d="M350.19,736.09l57,8,9.62-5.77,8.07-7.17.19-.32-100-15.72A201.87,201.87,0,0,0,350.19,736.09Z" class="cls-12" transform="translate(-0.1 -447.98)"/><path d="M455.14,702.26l5.29.82.84-1.43,4,.39,2.41-.77,2.17-2.62,1.26-2.46,3.61-.63,3-.83L291,663.49,477.78,694.7l3.19-.83-.69,1.28,110.58,18.53.37-3.72-3.09-1.52.27-2.8,4-1-1.83-4,18.94,1.86L288.16,647.62c.35,12.3,4,23.78,10.11,34.59l156.36,25.2Z" class="cls-12" transform="translate(-0.1 -447.98)"/><polygon points="477.68 246.72 480.78 247.24 480.86 245.89 477.68 246.72" class="cls-2"/><polygon points="474.63 247.51 471.03 248.07 469.79 250.38 467.64 252.69 465.29 252.86 461.28 252.47 460.98 254.56 456.24 254.4 455.73 259.55 484.16 264.18 484.42 263.25 480.6 256.8 478.49 255.58 476.96 253.61 480.7 248.51 480.78 247.24 477.68 246.72 474.63 247.51" class="cls-2"/><polygon points="455.71 259.71 447.43 259.51 446.58 262.06 442.9 262.41 443.34 265.19 440.54 265.82 437.73 265.54 437.25 266.31 433.55 265.94 433.63 269.71 488.3 276.26 486.19 274.04 484.18 270.85 483.62 269.24 483.95 264.92 484.16 264.18 455.73 259.55 455.71 259.71" class="cls-2"/><polyline points="487.44 292.66 482.57 291.36 480.51 289.58 480.51 287.56 483.88 286.27 483.98 285.27 485.64 284.82 485.8 283.22 482.79 282.92 481.14 281.14 477.73 280.81 430.05 273.69 429.73 276.9 428.13 276.75 427.74 280.75 426.33 280.62 424.99 282.84" class="cls-2"/><path d="M289.46,629.58s-17.24,50.85,60.73,106.51l62.64,8.54" class="cls-5" transform="translate(-0.1 -447.98)"/><path d="M450.87,477.14S518.17,557.2,612,613.76" class="cls-11" transform="translate(-0.1 -447.98)"/><path d="M507.2,602.12s52.41,18.44,104.8,33.93" class="cls-6" transform="translate(-0.1 -447.98)"/><path d="M526.52,623.5c21.42,9.72,54.05,17,85.48,22.3" class="cls-6" transform="translate(-0.1 -447.98)"/><path d="M453,455.48c-51.09,59.38,72.79,129,159,168" class="cls-3" transform="translate(-0.1 -447.98)"/><polyline points="583.66 208.21 587.83 188.38 611.9 192.41" class="cls-8"/><polygon points="610.9 312.08 487.42 292.66 487.43 292.67 610.9 312.08 610.9 312.08" class="cls-12"/><path d="M610.16,759.92c.43-4.53,1.57-8.66.91-13.38L309.86,698.21a178.51,178.51,0,0,0,15.27,16.89L425,731.42l1.29-1.62.2,0,.39-4,1.61.15.43-4.41L477.72,730l3.41.33,1.64,1.78,1.81.18,0,.4-1.66.45-.1,1L480,735.48l.31,2,2.2,1.79,5,1.31h0Z" class="cls-12" transform="translate(-0.1 -447.98)"/><path d="M611.6,761.87c0-.58,0-1.15,0-1.72l-124-19.51.76.31,5.8,1.58-.32,3.21L495.3,751l6.07,0-.59,6-.43.19,107.09,15C607.36,768.39,609.85,765.23,611.6,761.87Z" class="cls-12" transform="translate(-0.1 -447.98)"/><path d="M437.24,715.48l.48-.76,2.81.28,2.85-1.24-.41-3.08,3.7-.5.26-2.67,7.69.06v-.16L298.3,681.91a131.27,131.27,0,0,0,11.29,16.28l124.08,19.9-.14-3Z" class="cls-12" transform="translate(-0.1 -447.98)"/><polygon points="433.57 270.32 437.43 270.74 433.56 270.11 433.57 270.32" class="cls-12"/><path d="M610.27,732.68l-126-20.53-.19.74-.32,4.33.55,1.61,2,3.19,2.11,2.21-50.87-5.52L609.1,746.23C609.4,741.58,610.33,737.28,610.27,732.68Z" class="cls-12" transform="translate(-0.1 -447.98)"/><path d="M569.36,652.34a18.68,18.68,0,0,1-3.9,10.56L612,670.42V659.07Z" class="cls-12" transform="translate(-0.1 -447.98)"/><path d="M536.31,671.37,612,683.46v-13l-46.54-7.52C561.41,668.13,553.15,673,536.31,671.37Z" class="cls-12" transform="translate(-0.1 -447.98)"/><path d="M289.39,633.75a61.34,61.34,0,0,0-1.23,13.87l321.31,54.82,2.53.25V683.46l-75.69-12.09C462.93,664.16,289.39,633.75,289.39,633.75Z" class="cls-12" transform="translate(-0.1 -447.98)"/><path d="M608.87,728.29l-5.22-.51-15.16-2.3-4.41-.43.51-5.21,3.12-2.94,3.14-3.06v-.16L480.28,695.15l.23,1.3-3.59,5.12,1.59,2,2.16,1.22,3.84,6.45-.26.93,124.52,20.28C608.72,731,608.79,729.65,608.87,728.29Z" class="cls-12" transform="translate(-0.1 -447.98)"/><path d="M609.59,701.24l-18.94-1.86,2.37,4.68-3.4,1.69-.28,2.81,3.09,1.52-.36,3.72,20.84,3.48q.24-7.72.34-15.42Z" class="cls-2" transform="translate(-0.1 -447.98)"/><path d="M612,659.1l-42.64-6.76c-3.1,24.67-33.05,19-33.05,19L289.39,633.75" class="cls-5" transform="translate(-0.1 -447.98)"/><path d="M434.41,472.22l.72,2.76-5.07,4.08a56.17,56.17,0,0,0-3.39,7.31l9.68,5.36L424,496.12a51,51,0,0,0,.57,19.73s7.05-11.48,16.88-5.36l12.89-57.33A78.43,78.43,0,0,0,434.41,472.22Z" class="cls-13" transform="translate(-0.1 -447.98)"/><path d="M444.65,521.87s-17,6.66-24.86,35.74l9,15.85a38.63,38.63,0,0,0-12.35,3.64q-.3,3.52-.44,7.35s.28-6.25,17.69-3.53C425.07,567.81,444.65,521.87,444.65,521.87Z" class="cls-13" transform="translate(-0.1 -447.98)"/><path d="M289.48,659.15,294.32,642l24.86-1.73S274,617.9,289.48,659.15Z" class="cls-14" transform="translate(-0.1 -447.98)"/><circle cx="439.11" cy="289.83" r=".45" class="cls-15"/><circle cx="441.4" cy="289.85" r=".45" class="cls-15"/><path d="M564.42,667.48s24.08-10.16,40-7.76l-33.5-5.1Z" class="cls-14" transform="translate(-0.1 -447.98)"/><polygon points="317.35 204.64 358.14 212.82 380.54 218.96 408.39 220.17 380.74 222.62 386.02 225.97 391.95 228.31 382.44 230.82 366.38 225.97 358.14 226.75 342.33 224.11 334.62 222.82 329.79 217.73 328.28 210.98 317.35 204.64" class="cls-14"/><polygon points="378.3 265.14 382.44 254.97 391.06 254.32 392.56 249.45 403.43 251.1 403.18 260.7 397.88 261.74 397.88 273.33 390.07 268.49 386.4 263.83 378.3 265.14" class="cls-14"/><polygon points="464.55 212.82 486.15 230.82 503.27 228.31 516.59 232.67 499.05 217.73 464.55 212.82" class="cls-14"/><path d="M291,663.49l18.84,20.59,5.74,21S291,679.36,291,663.49Z" class="cls-14" transform="translate(-0.1 -447.98)"/><path d="M418.4,602.76a70.93,70.93,0,0,0,.81,19.7s-3.23-2.75-6.13-9.62c-.3.77-.57,1.55-.83,2.34a26.08,26.08,0,0,0,2.61,7.28A15.57,15.57,0,0,1,411,620.4c-1.79,10.55,1.54,21.86,16.17,31.13,0,0-4.87-47.24,6.22-62.55C437.6,583.1,426.58,590.43,418.4,602.76Z" class="cls-13" transform="translate(-0.1 -447.98)"/><path d="M396.67,645.42" class="cls-16" transform="translate(-0.1 -447.98)"/><path d="M357,660.55" class="cls-16" transform="translate(-0.1 -447.98)"/><path d="M612,737v-1c-.93,7-.56,13.75,0,20.49Z" class="cls-2" transform="translate(-0.1 -447.98)"/></g><g id="Layer_5" data-name="Layer 5"><rect width="76.62" height="34.35" x="271.9" y="310.15" class="cls-17"/><path d="M580.14,767.45l-.13-.13.13.14Z" class="cls-2" transform="translate(-0.1 -447.98)"/><path d="M466.37,792c.29,0,.62.08.92.1l1.15-.49-1.15.49C467,792,466.66,791.94,466.37,792Z" class="cls-2" transform="translate(-0.1 -447.98)"/><path d="M19.14,697.15c10.3-4.68,21-8.35,31.29-13,5.48-2.49,10.11-2.08,15.56,0,12.05,4.48,24.28,8.49,36.29,13.09,2.41.92,5.11,1,7.25,2.67,1,0,1.41.46,1.37,1.56q-.51,12.92-1,25.84a6.13,6.13,0,0,1,.8-.81c4.08-3.51,8.2-7,12.3-10.48,2.15-2.88,4.92-3.48,8.43-3,6.33.94,12.73,1.46,19.1,2.13a7.14,7.14,0,0,1,3,.72c3.42-.27,6.76.38,10.12.84h0c1.81.71,3.2,2.05,4.75,3.14a135,135,0,0,1,12.75,8.62,21.66,21.66,0,0,1,7.73,6.7c5.16-2.09,10.28-4.25,15.29-6.64,5.63-2.67,9.85-2.13,14.54.94a12.1,12.1,0,0,0,2.59,1c10.95,1.6,21.9,3.24,32.85,4.8a6.9,6.9,0,0,1,2.37.79c7.25-7.28,15-14.05,22.13-21.44,4.17-4.33,8.63-5.66,14.44-5.78,12.86-.27,25.7-1,38.56-1.19,2.58,0,5.14-.92,7.73-.2.95-.33,1.48-.09,1.84.95q4.72,13.46,9.5,26.89c5.83-1.41,11.58-3.15,17.36-4.77a7.39,7.39,0,0,1,3.05-.43c3.07-1.51,6.42-2.14,9.72-2.94h0c1.94,0,3.72.72,5.57,1.17a133.25,133.25,0,0,1,15,3.31,21.32,21.32,0,0,1,11.75,4.93c8.16,6.86,15.88,14.34,25.48,19.32a3,3,0,0,1,.95.87c2.63-6.12,5.32-12.22,7.65-18.45,2.11-5.64,5.68-8.62,11-11,11.68-5.35,23.17-11.17,34.91-16.4,2.36-1,4.35-2.88,7-3.24.74-.69,1.32-.67,2.07.13q9.67,10.47,19.38,20.91c4.79-3.61,9.39-7.49,14-11.27a7.38,7.38,0,0,1,2.62-1.6c2.23-2.61,5.05-4.51,7.76-6.56h0c1.77-.78,3.7-.81,5.57-1.14a136.37,136.37,0,0,1,15.1-2.92,21.31,21.31,0,0,1,12.75-.14c10.21,3.06,20.27,6.87,31.06,7.62a3.36,3.36,0,0,1,1.47.58V448H.11V709.37q8.81-5.85,17.6-11.68A6.12,6.12,0,0,1,19.14,697.15Z" class="cls-2" transform="translate(-0.1 -447.98)"/><path d="M603.11,754.56c-.55-.15-1.11-.3-1.67-.43C602,754.26,602.56,754.41,603.11,754.56Z" class="cls-2" transform="translate(-0.1 -447.98)"/><path d="M1.47,780.85h0a1.16,1.16,0,0,1-.34-.68A1.21,1.21,0,0,0,1.47,780.85Z" class="cls-2" transform="translate(-0.1 -447.98)"/><path d="M.56,778.44a1.56,1.56,0,0,0,.43.2H1A1.56,1.56,0,0,1,.56,778.44Z" class="cls-2" transform="translate(-0.1 -447.98)"/><path d="M552.12,750.51a3,3,0,0,1,0-.43A3,3,0,0,0,552.12,750.51Z" class="cls-2" transform="translate(-0.1 -447.98)"/><path d="M.29,777l-.18-.12h0l.18.12Z" class="cls-2" transform="translate(-0.1 -447.98)"/><path d="M399.94,786.19c1.1-.05,2.23,0,3.34.08a17.3,17.3,0,0,1,8.69,2.81,17.3,17.3,0,0,0-8.69-2.81C402.17,786.23,401,786.14,399.94,786.19Z" class="cls-2" transform="translate(-0.1 -447.98)"/><path d="M491.29,737.88c1.7,2.93,3.47,5.83,5.2,8.74,2.16,4.31,3.72,8.91,5.91,13.2-2.19-4.29-3.75-8.89-5.91-13.19C494.76,743.71,493,740.81,491.29,737.88Z" class="cls-2" transform="translate(-0.1 -447.98)"/><path d="M227.52,779.42l-.73-.32h0Z" class="cls-2" transform="translate(-0.1 -447.98)"/><path d="M578.87,769.66h0a1.65,1.65,0,0,1,.23-.56A1.65,1.65,0,0,0,578.87,769.66Z" class="cls-2" transform="translate(-0.1 -447.98)"/><path d="M290.63,779.38h0c-.35-.39-.71-.78-1.07-1.16.34.39.69.78,1,1.16Z" class="cls-2" transform="translate(-0.1 -447.98)"/><path d="M392.64,778.1l-.62-.63h0Z" class="cls-2" transform="translate(-0.1 -447.98)"/><path d="M233.9,780.26h0l-6.38-.84h0Z" class="cls-2" transform="translate(-0.1 -447.98)"/><path d="M504.62,763.67l.57,1.06,16.91,4.74h0l-16.91-4.75Z" class="cls-2" transform="translate(-0.1 -447.98)"/><path d="M590.14,754.58a33.45,33.45,0,0,0-3.69,1.56,33.45,33.45,0,0,1,3.69-1.56A18.14,18.14,0,0,1,600.6,754,18.14,18.14,0,0,0,590.14,754.58Z" class="cls-2" transform="translate(-0.1 -447.98)"/><path d="M391.17,775.86a.85.85,0,0,0-.37-.26h0A.85.85,0,0,1,391.17,775.86Z" class="cls-2" transform="translate(-0.1 -447.98)"/><path d="M293.56,781.59a4.46,4.46,0,0,0-1-1.15,7,7,0,0,1,.57.82Z" class="cls-2" transform="translate(-0.1 -447.98)"/><path d="M390.44,774.52a1,1,0,0,0-.27-.17h0A1,1,0,0,1,390.44,774.52Z" class="cls-2" transform="translate(-0.1 -447.98)"/><path d="M580,767.29l.3-1a11.12,11.12,0,0,0,1.66-3,11.12,11.12,0,0,1-1.66,3Z" class="cls-2" transform="translate(-0.1 -447.98)"/><path d="M367.18,770.09a1.57,1.57,0,0,0-.06.55h0A1.57,1.57,0,0,1,367.18,770.09Z" class="cls-2" transform="translate(-0.1 -447.98)"/><path d="M135,751.87a1.69,1.69,0,0,0-.11.27h0A1.69,1.69,0,0,1,135,751.87Z" class="cls-2" transform="translate(-0.1 -447.98)"/><path d="M219,778.07a1.31,1.31,0,0,0-1.33.91l-7,3.74h0l7-3.74A1.31,1.31,0,0,1,219,778.07Z" class="cls-2" transform="translate(-0.1 -447.98)"/><path d="M369.61,768.78h0c0-.14.06-.27.09-.41C369.67,768.51,369.63,768.64,369.61,768.78Z" class="cls-2" transform="translate(-0.1 -447.98)"/><path d="M39,751.37l.33.13h0Z" class="cls-2" transform="translate(-0.1 -447.98)"/><path d="M380.64,761.08q.09-14.26.17-28.53v0Q380.72,746.82,380.64,761.08Z" class="cls-2" transform="translate(-0.1 -447.98)"/><path d="M137.12,751.12a.94.94,0,0,0-.68.31h0A.94.94,0,0,1,137.12,751.12Z" class="cls-2" transform="translate(-0.1 -447.98)"/><path d="M368.71,768.93a1.05,1.05,0,0,0-.36.47h0A1.05,1.05,0,0,1,368.71,768.93Z" class="cls-2" transform="translate(-0.1 -447.98)"/><path d="M393.53,789.7a18.48,18.48,0,0,1-3,2.77h0A18.48,18.48,0,0,0,393.53,789.7Z" class="cls-2" transform="translate(-0.1 -447.98)"/><path d="M302.46,788.33,296.7,784l5.34,4.13a2.44,2.44,0,0,0-1.1.7c-1.08,1.2-2.18,2.4-3.26,3.62h.47c1.07-1.17,2.16-2.31,3.22-3.47A2.53,2.53,0,0,1,302.46,788.33Z" class="cls-2" transform="translate(-0.1 -447.98)"/><path d="M321.18,760.66c0,.4.07.8.1,1.2a14.9,14.9,0,0,0-4.27.7c-5.45,1.54-11,2.82-16.4,4.51-5.59,1.73-11.42,2.6-16.86,4.88a4.07,4.07,0,0,0,1.11,2,3.45,3.45,0,0,1-.47-1.16c5.36-2.17,11.13-3,16.66-4.67,5.35-1.61,10.82-2.84,16.21-4.31a15.18,15.18,0,0,1,4.22-.67L335,773.75a22.91,22.91,0,0,0,3.08,8.8l.19-.1a24,24,0,0,1-3.3-9.53h0l-13.64-11.06C321.25,761.46,321.21,761.06,321.18,760.66Z" class="cls-2" transform="translate(-0.1 -447.98)"/><path d="M74.42,747c-.6-1-1.19-2.11-1.78-3.16.11-.39.23-.77.34-1.15-.11.38-.23.76-.34,1.15.59,1,1.18,2.11,1.78,3.16Z" class="cls-2" transform="translate(-0.1 -447.98)"/><path d="M573.77,748.92a1.13,1.13,0,0,0-.39-.07h0A1.13,1.13,0,0,1,573.77,748.92Z" class="cls-2" transform="translate(-0.1 -447.98)"/><path d="M26.14,735.85a5.85,5.85,0,0,0,.38.49l1.16.47-1.16-.47A5.85,5.85,0,0,1,26.14,735.85Z" class="cls-2" transform="translate(-0.1 -447.98)"/><path d="M551.53,752.4a1,1,0,0,0-.14.56h0A1,1,0,0,1,551.53,752.4Z" class="cls-2" transform="translate(-0.1 -447.98)"/><path d="M552.3,751.9h0a4.06,4.06,0,0,1-.18-1.39A4.06,4.06,0,0,0,552.3,751.9Z" class="cls-2" transform="translate(-0.1 -447.98)"/><path d="M550.6,754.19a3.34,3.34,0,0,0,.14.41h0A3.34,3.34,0,0,1,550.6,754.19Z" class="cls-2" transform="translate(-0.1 -447.98)"/><path d="M320.48,741.79c.25,4.31,0,8.64.11,13-.15-4.31.14-8.64-.11-13-.43-3.36-.9-6.72-1.3-10.09C319.58,735.07,320.05,738.42,320.48,741.79Z" class="cls-2" transform="translate(-0.1 -447.98)"/><path d="M81.79,715c-.87,3.28-1.66,6.58-2.51,9.86-1.6,4.86-3.93,9.46-5.42,14.36,1.49-4.9,3.82-9.5,5.42-14.36C80.13,721.59,80.92,718.29,81.79,715Z" class="cls-2" transform="translate(-0.1 -447.98)"/><path d="M577.13,751.3h0l-.82-.32h0Z" class="cls-2" transform="translate(-0.1 -447.98)"/><path d="M574.83,749.8a.9.9,0,0,0-.38,0h0A.9.9,0,0,1,574.83,749.8Z" class="cls-2" transform="translate(-0.1 -447.98)"/><path d="M155.19,764.76a.89.89,0,0,0-.29-.68h0A.89.89,0,0,1,155.19,764.76Z" class="cls-18" transform="translate(-0.1 -447.98)"/><path d="M155.82,768.47h0l.16.23Z" class="cls-18" transform="translate(-0.1 -447.98)"/><path d="M219.44,750.22c3.38-3.72,2.84-7.32.69-11.29-1.58-2.91-3.78-5.41-5.09-8.53-.87-2.06-5.23-2.94-7.18-1.93-3.83,2-8.21,2.91-11.83,5a36,36,0,0,1-6.42,2.77c.22.36.44.71.65,1.1,4.58,8.51,8.66,17.37,14.67,25,2.6-1.9,5.16-3.87,7.65-5.94A67.1,67.1,0,0,0,219.44,750.22Z" class="cls-18" transform="translate(-0.1 -447.98)"/><path d="M155.26,765.8a.74.74,0,0,0-.24-.33h0A.74.74,0,0,1,155.26,765.8Z" class="cls-18" transform="translate(-0.1 -447.98)"/><path d="M275.12,771.57a5.74,5.74,0,0,0,.53.32h0A5.74,5.74,0,0,1,275.12,771.57Z" class="cls-19" transform="translate(-0.1 -447.98)"/><path d="M160,778.82c.91.34,1.8.78,2.7,1.17a16.37,16.37,0,0,1,5,3.39h0a16.37,16.37,0,0,0-5-3.39c-.9-.39-1.79-.83-2.7-1.17Z" class="cls-17" transform="translate(-0.1 -447.98)"/><path d="M204.17,728.49c-5,2.39-10.13,4.55-15.29,6.64.25.36.5.73.73,1.11a36,36,0,0,0,6.42-2.77c3.62-2.09,8-3,11.83-5,1.95-1,6.31-.13,7.18,1.93,1.31,3.12,3.51,5.62,5.09,8.53,2.15,4,2.69,7.57-.69,11.29a67.1,67.1,0,0,1-6.86,6.21c-2.49,2.07-5.05,4-7.65,5.94.62.79,1.25,1.56,1.9,2.32a3.67,3.67,0,0,1,.69,1.7c1,5.44,2.12,10.87,3.08,16.33l7-3.74a1.31,1.31,0,0,1,1.33-.91h.23a10.84,10.84,0,0,0,1.11.07,9.09,9.09,0,0,0,8-5.2c.36-.66.25-2.21,1.84-1.58,3.11-3.27,2.44-7.59,2.91-11.48.73-6,.92-12.15,2-18.17.48-2.77-.29-4.52-3.13-5.83-3.59-1.66-7.6-2.64-10.57-5.51a12.1,12.1,0,0,1-2.59-1C214,726.36,209.8,725.82,204.17,728.49Z" class="cls-17" transform="translate(-0.1 -447.98)"/><path d="M218.19,779.32l-.57-.34-7,3.74c.57,3.24,1.1,6.49,1.56,9.75h11.66q-2.35-4.63-4.64-9.3A7.54,7.54,0,0,1,218.19,779.32Z" class="cls-20" transform="translate(-0.1 -447.98)"/><path d="M146.53,782v0Z" class="cls-21" transform="translate(-0.1 -447.98)"/><path d="M172.31,789.9c-.58-1.06-1.18-2.09-1.85-3.09h0C171.13,787.81,171.73,788.84,172.31,789.9Z" class="cls-21" transform="translate(-0.1 -447.98)"/><path d="M144.07,782.67h0a1.73,1.73,0,0,1,.75-.26A1.73,1.73,0,0,0,144.07,782.67Z" class="cls-21" transform="translate(-0.1 -447.98)"/><path d="M145.29,783.23a4.07,4.07,0,0,1,.31-.67h0A4.07,4.07,0,0,0,145.29,783.23Z" class="cls-21" transform="translate(-0.1 -447.98)"/><path d="M146.54,781.78l.94-.52a15.3,15.3,0,0,0,5.13-1.79,15.3,15.3,0,0,1-5.13,1.79Z" class="cls-21" transform="translate(-0.1 -447.98)"/><path d="M235.67,771.92h.65c.47-1.65-1-3.28,0-4.93h0c-.69-.1-1.49.11-1.88-.74l3.39-4.87a.22.22,0,0,1,0-.08c-.5-5.74-1.59-11.44-2.08-17.19-.39-4.7,1.44-6.24,5.91-5,3.35.92,6.77,1.49,10.18,2.13l1.42-2a7,7,0,0,1,1.14-1c.71-.74,1.44-1.47,2.16-2.2a6.9,6.9,0,0,0-2.37-.79c-11-1.56-21.9-3.2-32.85-4.8,3,2.87,7,3.85,10.57,5.51,2.84,1.31,3.61,3.06,3.13,5.83-1,6-1.23,12.13-2,18.17-.47,3.89.2,8.21-2.91,11.48a15,15,0,0,1-.79,2c-.92,1.9-2.11,3.67-2.55,5.78l.73.32,6.38.84h0q0,6.11-.08,12.21h7.3c-1-6.22-3.48-12-5-18.11C235.89,773.56,235.81,772.73,235.67,771.92Z" class="cls-21" transform="translate(-0.1 -447.98)"/><path d="M227.52,779.42c-1.29,2-.77,4-.22,6l.15.53c.1.36.19.71.27,1.07a7.55,7.55,0,0,1,.17,1.06,44.61,44.61,0,0,0,.72,4.44h5.21q0-6.11.08-12.21Z" class="cls-22" transform="translate(-0.1 -447.98)"/><path d="M170.46,786.81h0a21.41,21.41,0,0,0-2.8-3.43h0A21.41,21.41,0,0,1,170.46,786.81Z" class="cls-23" transform="translate(-0.1 -447.98)"/><path d="M228.29,773a9.09,9.09,0,0,1-8,5.2,10.84,10.84,0,0,1-1.11-.07H219a1.31,1.31,0,0,0-1.33.91l.57.34,8.6-.22h0c.44-2.11,1.63-3.88,2.55-5.78a15,15,0,0,0,.79-2C228.54,770.74,228.65,772.29,228.29,773Z" class="cls-23" transform="translate(-0.1 -447.98)"/><path d="M227.72,787c-.08-.36-.17-.71-.27-1.07l-.15-.53c-.55-2-1.07-3.93.22-6h0l-.73-.32-8.6.22a7.54,7.54,0,0,0,1,3.85q2.3,4.67,4.64,9.3h4.79a44.61,44.61,0,0,1-.72-4.44A7.55,7.55,0,0,0,227.72,787Z" class="cls-19" transform="translate(-0.1 -447.98)"/><path d="M243.73,744a5.56,5.56,0,0,0,.85,3.25c.54.7,1.07,1.4,1.59,2.11l4.58-6.6c-1.37-.37-2.74-.77-4.1-1.19C244.41,740.87,243.58,741.72,243.73,744Z" class="cls-24" transform="translate(-0.1 -447.98)"/><path d="M300.61,767.07c5.41-1.69,10.95-3,16.4-4.51a14.9,14.9,0,0,1,4.27-.7c0-.4-.07-.8-.1-1.2-.14-.78-.25-1.56-.34-2.35-.13-1.19-.21-2.38-.25-3.57-.15-4.31.14-8.64-.11-13-.43-3.37-.9-6.72-1.3-10.09-.13-1.12-.26-2.25-.37-3.37-.22-2.27-1.05-2.62-3.26-2.2-5.78,1.12-11.63,1.88-17.45,2.78h0c-4.36,1.68-9,2.21-13.53,2.93-1.52.25-3,.51-4.53.85-8,1.79-15.88,3.62-23.82,5.41a10.45,10.45,0,0,1-1.86.07,7,7,0,0,0-1.14,1l-1.42,2c-3.41-.64-6.83-1.21-10.18-2.13-4.47-1.24-6.3.3-5.91,5,.49,5.75,1.58,11.45,2.08,17.19a.22.22,0,0,0,0,.08l-3.39,4.87c.39.85,1.19.64,1.88.74h0c9.57,1.12,19.11,2.46,28.69,3.48,3.19.34,6.39.65,9.59.89a1.49,1.49,0,0,1,.55.21,5.74,5.74,0,0,0,.53.32h2.49l5.61.05C289.19,769.67,295,768.8,300.61,767.07Zm-54.44-17.73c-.52-.71-1-1.41-1.59-2.11a5.56,5.56,0,0,1-.85-3.25c-.15-2.26.68-3.11,2.92-2.43,1.36.42,2.73.82,4.1,1.19Z" class="cls-25" transform="translate(-0.1 -447.98)"/><path d="M364.88,771.41a2.34,2.34,0,0,0-.26,1.1h0A2.34,2.34,0,0,1,364.88,771.41Z" class="cls-19" transform="translate(-0.1 -447.98)"/><path d="M256.22,738.1c7.94-1.79,15.87-3.62,23.82-5.41,1.5-.34,3-.6,4.53-.85,4.56-.72,9.17-1.25,13.53-2.93h0a8,8,0,0,1,4.71-1.69c.55-.08,1.1-.14,1.63-.24,5.31-1,10.38-3.28,15.92-3,2.8-3.66,6.9-5.82,10.21-8.88,2.87-2.65,6.54-4.38,8.81-7.72-2.59-.72-5.15.17-7.73.2-12.86.14-25.7.92-38.56,1.19-5.81.12-10.27,1.45-14.44,5.78-7.12,7.39-14.88,14.16-22.13,21.44-.72.73-1.45,1.46-2.16,2.2A10.45,10.45,0,0,0,256.22,738.1Z" class="cls-26" transform="translate(-0.1 -447.98)"/><path d="M349.55,735.49l1.17-.29q-4.75-13.44-9.5-26.89c-.36-1-.89-1.28-1.84-.95-2.27,3.34-5.94,5.07-8.81,7.72-3.31,3.06-7.41,5.22-10.21,8.88l.12,17.83c.25,4.31,0,8.64.11,13,0,1.19.12,2.38.25,3.57.09.79.2,1.57.34,2.35,3.27-.44,6.54-.86,9.8-1.31a1.93,1.93,0,0,0,1.67-1.26,3.84,3.84,0,0,1,2.93-3.14c2.39-4.55,4.81-9.08,7.22-13.61C343.74,737.88,346.09,736.3,349.55,735.49Z" class="cls-27" transform="translate(-0.1 -447.98)"/><path d="M332.65,758.09a1.93,1.93,0,0,1-1.67,1.26c-3.26.45-6.53.87-9.8,1.31,0,.4.07.8.1,1.2l13.64,11.06c-.71-5-.29-10.16-.31-15.25a4.49,4.49,0,0,1,.62-2c.11-.23.23-.45.35-.67A3.84,3.84,0,0,0,332.65,758.09Z" class="cls-28" transform="translate(-0.1 -447.98)"/><path d="M302,788.15,296.7,784l-3-2.28a1.3,1.3,0,0,1-.1-.15l-.43-.33h-.49a2.53,2.53,0,0,1-1.24-.3,1.78,1.78,0,0,1-.77-1.58h0a3.24,3.24,0,0,1-2.75-.91,6.39,6.39,0,0,1-.54-.5l-.78-.77a6.57,6.57,0,0,0-.82-.68c-2.48-1.64-5.47-2.44-7.6-4.62H276.9c-.42.64-.84.65-1.25,0a5.74,5.74,0,0,1-.53-.32,1.49,1.49,0,0,0-.55-.21c-3.2-.24-6.4-.55-9.59-.89-9.58-1-19.12-2.36-28.69-3.48h0c-.94,1.65.5,3.28,0,4.93,2.32,7,4.83,13.85,7.78,20.55h4.21a49.64,49.64,0,0,1-5.69-14.84c-.23-1-.24-2-.48-3-.66-2.87.84-4.59,4.28-4.55l8.26,1.86a146.58,146.58,0,0,0,15.87,2.6c5.79.66,9.79,4.5,14.11,7.91,2.84,2.24,5.3,4.84,8,7.2a7,7,0,0,1,2.18,2.86h2.83c1.08-1.22,2.18-2.42,3.26-3.62A2.44,2.44,0,0,1,302,788.15Z" class="cls-17" transform="translate(-0.1 -447.98)"/><path d="M306.29,790.56l.12-.27a15.3,15.3,0,0,0,.8-2c7.58-.52,15.15-1.1,22.73-1.57l8-4.08.06,0a22.91,22.91,0,0,1-3.08-8.8l-13.47-10.58a15.18,15.18,0,0,0-4.22.67c-5.39,1.47-10.86,2.7-16.21,4.31-5.53,1.66-11.3,2.5-16.66,4.67a3.45,3.45,0,0,0,.47,1.16,30.5,30.5,0,0,0,2.64,2.11,21,21,0,0,1,2.09,2.13c.36.38.72.77,1.07,1.16a2.52,2.52,0,0,1,1.9,1.06,4.46,4.46,0,0,1,1,1.15,1.3,1.3,0,0,0,.1.15l3,2.28,5.76,4.31a2.53,2.53,0,0,0-1.09.67c-1.06,1.16-2.15,2.3-3.22,3.47h7c.27-.42.53-.85.77-1.29Z" class="cls-26" transform="translate(-0.1 -447.98)"/><path d="M304.44,727c-.53.1-1.08.16-1.63.24a8,8,0,0,0-4.71,1.69h0c5.82-.9,11.67-1.66,17.45-2.78,2.21-.42,3-.07,3.26,2.2.11,1.12.24,2.25.37,3.37.4,3.37.87,6.73,1.3,10.09L320.36,724C314.82,723.7,309.75,726,304.44,727Z" class="cls-23" transform="translate(-0.1 -447.98)"/><path d="M283.75,772l-5.61-.05c2.13,2.18,5.12,3,7.6,4.62a6.57,6.57,0,0,1,.82.68l.78.77a6.39,6.39,0,0,0,.54.5,3.24,3.24,0,0,0,2.75.91c-.35-.38-.7-.77-1-1.16a21,21,0,0,0-2.09-2.13,30.5,30.5,0,0,1-2.64-2.11A4.07,4.07,0,0,1,283.75,772Z" class="cls-18" transform="translate(-0.1 -447.98)"/><path d="M276.9,771.9h-1.25C276.06,772.55,276.48,772.54,276.9,771.9Z" class="cls-18" transform="translate(-0.1 -447.98)"/><path d="M338,782.59l-8,4.08q3.53-.23,7.07-.4c2.77-.14,3.08-1,1.73-3-.18-.27-.35-.54-.52-.81l-.19.1Z" class="cls-22" transform="translate(-0.1 -447.98)"/><path d="M235.67,771.92c.14.81.22,1.64.43,2.44,1.54,6.07,4.06,11.89,5,18.11h3c-2.95-6.7-5.46-13.6-7.78-20.55Z" class="cls-23" transform="translate(-0.1 -447.98)"/><path d="M292.67,789.61c-2.71-2.36-5.17-5-8-7.2-4.32-3.41-8.32-7.25-14.11-7.91a146.58,146.58,0,0,1-15.87-2.6L246.42,770c-3.44,0-4.94,1.68-4.28,4.55.24,1,.25,2,.48,3a49.64,49.64,0,0,0,5.69,14.84h46.54A7,7,0,0,0,292.67,789.61Z" class="cls-18" transform="translate(-0.1 -447.98)"/><path d="M291.4,781a2.53,2.53,0,0,0,1.24.3h.49a7,7,0,0,0-.57-.82,2.52,2.52,0,0,0-1.9-1.06h0A1.78,1.78,0,0,0,291.4,781Z" class="cls-18" transform="translate(-0.1 -447.98)"/><path d="M420.07,745.62c-6.15-4.77-13.16-8.42-18.63-14.08a133.25,133.25,0,0,0-15-3.31,4.82,4.82,0,0,1-.34.8c-4.35-1.06-3.36,2.07-3.39,4.34,0,3,.2,6-.05,9-.41,4.84.38,9.09,3.83,12.83,3.28,3.57,5.67,7.84,8.25,11.94a6.67,6.67,0,0,0,6.43,3.47c3-.13,5.35,1.34,7.73,3.23,4,3.17,7.47,6.79,11.1,10.31,1.47,1.43,2.71,1.53,4.66.54,2.29-1.16,4.62-2.25,7-3.31q1.06-5.24,2.12-10.48a6.44,6.44,0,0,1,.64-1.39c.89-2.38,1.84-4.74,2.81-7.09C432.6,755.76,426.51,750.62,420.07,745.62Z" class="cls-24" transform="translate(-0.1 -447.98)"/><path d="M437.17,762.46q1.2-2.91,2.45-5.8a3,3,0,0,0-.95-.87c-9.6-5-17.32-12.46-25.48-19.32a21.32,21.32,0,0,0-11.75-4.93c5.47,5.66,12.48,9.31,18.63,14.08C426.51,750.62,432.6,755.76,437.17,762.46Z" class="cls-25" transform="translate(-0.1 -447.98)"/><path d="M466.37,792c.29,0,.61.08.92.1l1.15-.49,1.14-.49,5.17-2.19c4.08-4.24,9.09-7.36,13.54-11.17,4.29-3.69,8.86-7.07,13.26-10.64a14.77,14.77,0,0,1,3.64-2.34l-.57-1.06c-.44-.66-.85-1.34-1.24-2s-.67-1.21-1-1.83c-2.19-4.29-3.75-8.89-5.91-13.2-1.73-2.91-3.5-5.81-5.2-8.74-.57-1-1.13-2-1.68-3-1.1-2-2-2-3.86-.72-4.86,3.32-9.93,6.34-14.91,9.48h0c-3.06,3-6.7,5.19-10.28,7.44-1.63,1-3.25,2.06-4.81,3.2q-9.86,7.2-19.71,14.42a10.8,10.8,0,0,1-1.68.8,6.44,6.44,0,0,0-.64,1.39q-1.07,5.23-2.12,10.48c-2.34,1.06-4.67,2.15-7,3.31-1.95,1-3.19.89-4.66-.54-3.63-3.52-7.13-7.14-11.1-10.31-2.38-1.89-4.73-3.36-7.73-3.23a6.67,6.67,0,0,1-6.43-3.47c-2.58-4.1-5-8.37-8.25-11.94-3.45-3.74-4.24-8-3.83-12.83.25-3,0-6,.05-9,0-2.27-1-5.4,3.39-4.34a4.82,4.82,0,0,0,.34-.8c-1.85-.45-3.63-1.19-5.57-1.17,0,1.82,0,3.64,0,5.47v0q-.09,14.26-.17,28.53a29.24,29.24,0,0,1,5.47,7.59c.09.22.19.43.29.64a8.56,8.56,0,0,0,2.92,3.77,1.1,1.1,0,0,1,.84,1.08,1.21,1.21,0,0,1,0,.19,1,1,0,0,1,.27.17,1,1,0,0,1,.33.72c0,.12,0,.24,0,.36a.85.85,0,0,1,.37.26.72.72,0,0,1,.12.21.19.19,0,0,1,0,.09,2.72,2.72,0,0,1,.07.33c0,.12,0,.25,0,.38l.29.3.34.33h0l0,0,.62.63h0c.4.31.95.52,1.17.92,2.07,3.85,4.62,7,9.47,7.26a17.3,17.3,0,0,1,8.69,2.81,28.8,28.8,0,0,1,2.44,1.7l.53.41,1.52,1.25,0,0h48.16l1.44-.48A.86.86,0,0,1,466.37,792Z" class="cls-25" transform="translate(-0.1 -447.98)"/><path d="M342.53,790.39c.67-3.34,5.56-4.74,8.33-7.31a5.8,5.8,0,0,0,0-.59,63,63,0,0,0-3.12-11.77c-.58-1.75-1.15-3.51-1.64-5.29-.37-1.38-1-2.69-.87-4.18-1-3.46-.65-7.08-1.21-10.6-.5-3.09-.35-6.27-1.22-9.31-2.41,4.53-4.83,9.06-7.22,13.61-.12.22-.24.44-.35.67a4.49,4.49,0,0,0-.62,2c0,5.09-.4,10.26.31,15.25h0a24,24,0,0,0,3.3,9.53c.17.27.34.54.52.81,1.35,2,1,2.87-1.73,3q-3.54.18-7.07.4c-7.58.47-15.15,1.05-22.73,1.57a15.3,15.3,0,0,1-.8,2l-.12.27-.33.62c-.24.44-.5.87-.77,1.29h37.32A6.3,6.3,0,0,1,342.53,790.39Z" class="cls-25" transform="translate(-0.1 -447.98)"/><path d="M350.68,767.76c1.29,1.6,2.34,1.79,3.83.66,5.27-4,11.42-6.65,16.48-10.93,2.12-1.8,1.1-4.56,1.64-6.85,1.46-6.19.18-12.58,1-18.84.27-2-1.36-1.64-2.52-1.8a7.39,7.39,0,0,0-3.05.43c-5.78,1.62-11.53,3.36-17.36,4.77l-1.17.29c-3.46.81-5.81,2.39-6.75,5.85.87,3,.72,6.22,1.22,9.31.56,3.52.2,7.14,1.21,10.6C347.9,762.69,348.92,765.56,350.68,767.76Z" class="cls-18" transform="translate(-0.1 -447.98)"/><path d="M371.13,730c1.16.16,2.79-.19,2.52,1.8-.84,6.26.44,12.65-1,18.84-.54,2.29.48,5.05-1.64,6.85-5.06,4.28-11.21,6.94-16.48,10.93-1.49,1.13-2.54.94-3.83-.66-1.76-2.2-2.78-5.07-5.45-6.51-.16,1.49.5,2.8.87,4.18.49,1.78,1.06,3.54,1.64,5.29a63,63,0,0,1,3.12,11.77h0a7.05,7.05,0,0,0,3.74-1.92c.63-.55,1.24-1.14,1.87-1.67.28-.24.57-.46.87-.68,2.08-1.52,4.43-2.71,6-4.82a1,1,0,0,1,1-.89h.22a2.34,2.34,0,0,1,.26-1.1,1.44,1.44,0,0,1,.18-.25,1.49,1.49,0,0,1,.67-.41,2.73,2.73,0,0,1,.89-.13l.5,0a1.57,1.57,0,0,1,.06-.55q.21-.72,1.17-.69a1.05,1.05,0,0,1,.36-.47,1.41,1.41,0,0,1,.9-.16h0c0-.14.06-.27.09-.41a4.23,4.23,0,0,1,.3-.93,3.83,3.83,0,0,1,.46-.72,5.49,5.49,0,0,1,.57-.61,22,22,0,0,1,3.15-2c4.09-2.57,5.77-5.72,5.52-10.71-.33-6.36.78-12.76.5-19.17a1.78,1.78,0,0,1,.61-1.67v0c0-1.83,0-3.65,0-5.47h0C377.55,727.86,374.2,728.49,371.13,730Z" class="cls-17" transform="translate(-0.1 -447.98)"/><path d="M414.94,791.19l-.53-.41a28.8,28.8,0,0,0-2.44-1.7,17.3,17.3,0,0,0-8.69-2.81c-1.11,0-2.24-.13-3.34-.08a9.15,9.15,0,0,0-2,.25,6.52,6.52,0,0,0-2.26,1,30.45,30.45,0,0,0-2.19,2.21,18.48,18.48,0,0,1-3,2.77h25.92l0,0Z" class="cls-22" transform="translate(-0.1 -447.98)"/><path d="M393.53,789.7a30.45,30.45,0,0,1,2.19-2.21,8.25,8.25,0,0,0-1.63-6.09c-.67-1-1.65-1.91-1.45-3.3l-.62-.63h0l0,0h0l-.34-.33-.29-.3h0v0l-.65-1.28h0l-.63-1.25h0c-.27-.42-.54-.84-.82-1.26a8.56,8.56,0,0,1-2.92-3.77c-.1-.21-.2-.42-.29-.64a29.24,29.24,0,0,0-5.47-7.59c-3.88,2.28-6.93,5.73-11,7.7h0a.94.94,0,0,1-1.24.63c.07.91-.5,1.17-1.25,1.26h0a3.47,3.47,0,0,1-2.5,1.88v0l-1.26.89c-1.59,2.11-3.94,3.3-6,4.82-.3.22-.59.44-.87.68-.63.53-1.24,1.12-1.87,1.67a7.05,7.05,0,0,1-3.74,1.92h0a5.8,5.8,0,0,1,0,.59c6.3,1.26,12,4.19,18.06,6.23,1.51.51,3,1.07,4.48,1.64l3.94,1.52h13.23A18.48,18.48,0,0,0,393.53,789.7Z" class="cls-27" transform="translate(-0.1 -447.98)"/><path d="M380.2,734.22c.28,6.41-.83,12.81-.5,19.17.25,5-1.43,8.14-5.52,10.71a22,22,0,0,0-3.15,2,5.49,5.49,0,0,0-.57.61,3.83,3.83,0,0,0-.46.72,4.23,4.23,0,0,0-.3.93c0,.14-.07.27-.09.41,4.1-2,7.15-5.42,11-7.7q.09-14.26.17-28.53A1.78,1.78,0,0,0,380.2,734.22Z" class="cls-23" transform="translate(-0.1 -447.98)"/><path d="M394.09,781.4a8.25,8.25,0,0,1,1.63,6.09,6.52,6.52,0,0,1,2.26-1,9.15,9.15,0,0,1,2-.25c1.1-.05,2.23,0,3.34.08-4.85-.21-7.4-3.41-9.47-7.26-.22-.4-.77-.61-1.17-.92h0C392.44,779.49,393.42,780.42,394.09,781.4Z" class="cls-23" transform="translate(-0.1 -447.98)"/><path d="M391.42,776.88h0Z" class="cls-23" transform="translate(-0.1 -447.98)"/><path d="M390.14,774.34l.63,1.25h0l.65,1.28h0c0-.13,0-.26,0-.38a2.72,2.72,0,0,0-.07-.33.19.19,0,0,0,0-.09.72.72,0,0,0-.12-.21.85.85,0,0,0-.37-.26h0c0-.12,0-.24,0-.36a1,1,0,0,0-.33-.72,1,1,0,0,0-.27-.17h0a1.21,1.21,0,0,0,0-.19,1.1,1.1,0,0,0-.84-1.08c.28.42.55.84.82,1.26Z" class="cls-23" transform="translate(-0.1 -447.98)"/><path d="M368.92,789.31c-6-2-11.76-5-18.06-6.23-2.77,2.57-7.66,4-8.33,7.31a6.3,6.3,0,0,0,0,2.08h34.83L373.4,791C371.92,790.38,370.43,789.82,368.92,789.31Z" class="cls-19" transform="translate(-0.1 -447.98)"/><path d="M368.35,769.4h0q-1,0-1.17.69a1.57,1.57,0,0,0-.06.55h0l-.5,0a2.73,2.73,0,0,0-.89.13,1.49,1.49,0,0,0-.67.41,1.44,1.44,0,0,0-.18.25,2.34,2.34,0,0,0-.26,1.1h-.22a1,1,0,0,0-1,.89l1.26-.89v0a3.47,3.47,0,0,0,2.5-1.88h0c.75-.09,1.32-.35,1.25-1.26a.94.94,0,0,0,1.24-.63,1.41,1.41,0,0,0-.9.16A1.05,1.05,0,0,0,368.35,769.4Z" class="cls-23" transform="translate(-0.1 -447.98)"/><path d="M549,756.29a2.57,2.57,0,0,0,.2,1h0A2.57,2.57,0,0,1,549,756.29Z" class="cls-19" transform="translate(-0.1 -447.98)"/><path d="M474.48,740.26c.48-.28,1-.56,1.4-.86,4.49-3,8.23-7.13,13.42-9.09,1.11-4.47,4-8.08,5.85-12.21,1.58-3.57,4.26-6.62,5-10.57-2.67.36-4.66,2.19-7,3.24-11.74,5.23-23.23,11.05-34.91,16.4-5.29,2.42-8.86,5.4-11,11-2.33,6.23-5,12.33-7.65,18.45q-1.25,2.9-2.45,5.8c-1,2.35-1.92,4.71-2.81,7.09a10.8,10.8,0,0,0,1.68-.8q9.87-7.2,19.71-14.42c1.56-1.14,3.18-2.17,4.81-3.2,3.58-2.25,7.22-4.44,10.28-7.44h0A8,8,0,0,1,474.48,740.26Z" class="cls-26" transform="translate(-0.1 -447.98)"/><path d="M520.67,729.3l1-.73q-9.69-10.44-19.38-20.91c-.75-.8-1.33-.82-2.07-.13-.76,4-3.44,7-5,10.57-1.83,4.13-4.74,7.74-5.85,12.21l7.19,16.32c2.16,4.3,3.72,8.9,5.91,13.19.31.62.63,1.23,1,1.83s.8,1.36,1.24,2c2.83-1.7,5.66-3.39,8.47-5.1a1.94,1.94,0,0,0,1-1.82,3.84,3.84,0,0,1,1.44-4c.39-5.12.81-10.24,1.23-15.36C516.28,733.8,517.81,731.42,520.67,729.3Z" class="cls-27" transform="translate(-0.1 -447.98)"/><path d="M514.13,756.75a1.94,1.94,0,0,1-1,1.82c-2.81,1.71-5.64,3.4-8.47,5.1l.57,1.05,16.91,4.75c-2.63-4.3-4.3-9.21-6.35-13.88a4.74,4.74,0,0,1-.24-2.13l.06-.75A3.84,3.84,0,0,0,514.13,756.75Z" class="cls-28" transform="translate(-0.1 -447.98)"/><path d="M469.58,791.07l-1.14.49c-.13.76-.51.93-1.15.49-.3,0-.63-.11-.92-.1a.86.86,0,0,0-.28,0l-1.44.48h14.43l-.69-.18C475.46,791.77,472.4,792.23,469.58,791.07Z" class="cls-17" transform="translate(-0.1 -447.98)"/><path d="M528.73,777.13l.19-.24a24.24,24.24,0,0,1-6.82-7.42l-16.91-4.74a14.77,14.77,0,0,0-3.64,2.34c-4.4,3.57-9,6.95-13.26,10.64-4.45,3.81-9.46,6.93-13.54,11.17,1.24,1.77,3.26,1.79,5.08,2.32a22.19,22.19,0,0,1,3.08,1.27h23.8c5.42-2.81,10.83-5.64,16.27-8.41Z" class="cls-26" transform="translate(-0.1 -447.98)"/><path d="M489.3,730.31c-5.19,2-8.93,6.08-13.42,9.09-.44.3-.92.58-1.4.86a8,8,0,0,0-3.64,3.43h0c5-3.14,10.05-6.16,14.91-9.48,1.85-1.26,2.76-1.27,3.86.72.55,1,1.11,2,1.68,3,1.7,2.93,3.47,5.83,5.2,8.75Z" class="cls-23" transform="translate(-0.1 -447.98)"/><path d="M474.75,788.88l-5.17,2.19c2.82,1.16,5.88.7,8.81,1.22l.69.18h3.83a22.19,22.19,0,0,0-3.08-1.27C478,790.67,476,790.65,474.75,788.88Z" class="cls-18" transform="translate(-0.1 -447.98)"/><path d="M468.44,791.56l-1.15.49C467.93,792.49,468.31,792.32,468.44,791.56Z" class="cls-18" transform="translate(-0.1 -447.98)"/><path d="M544.2,792.47h0l-.47-.48Z" class="cls-22" transform="translate(-0.1 -447.98)"/><path d="M523,784.06c2.11-1.06,4.21-2.13,6.33-3.17,2.49-1.23,2.43-2.17.4-3.45l-.79-.55-.19.24Z" class="cls-22" transform="translate(-0.1 -447.98)"/><path d="M566.72,705.08a136.37,136.37,0,0,0-15.1,2.92,5.48,5.48,0,0,1,0,.87c-4.42.76-2.27,3.24-1.39,5.33,1.16,2.78,2.58,5.47,3.54,8.32,1.54,4.6,4,8.19,8.6,10.26,4.43,2,8.32,4.94,12.31,7.68a6.68,6.68,0,0,0,7.28.64c2.71-1.32,5.45-.9,8.38-.11,4.91,1.33,9.56,3.27,14.28,5.06,1.92.73,3.1.33,4.5-1.35.93-1.13,1.89-2.25,2.86-3.35v-22c-6.91-4.41-14.61-6.73-22.58-8.79C581.88,708.67,574,708.11,566.72,705.08Z" class="cls-24" transform="translate(-0.1 -447.98)"/><path d="M604.64,746.05c-4.72-1.79-9.37-3.73-14.28-5.06-2.93-.79-5.67-1.21-8.38.11a6.68,6.68,0,0,1-7.28-.64c-4-2.74-7.88-5.71-12.31-7.68-4.65-2.07-7.06-5.66-8.6-10.26-1-2.85-2.38-5.54-3.54-8.32-.88-2.09-3-4.57,1.39-5.33a5.48,5.48,0,0,0,0-.87c-1.87.33-3.8.36-5.57,1.14.71,1.69,1.43,3.37,2.14,5.06l11.17,26.25a29.42,29.42,0,0,1,8,4.8l.51.47a8.63,8.63,0,0,0,4.18,2.3,1.11,1.11,0,0,1,1.2.65l.09.18a1.13,1.13,0,0,1,.39.07.86.86,0,0,1,.29.21,1.54,1.54,0,0,1,.31.47l.08.15a.9.9,0,0,1,.38,0l.17.09a2.11,2.11,0,0,1,.53.78l.54.21.28.11h0l.82.32h0a3.86,3.86,0,0,1,1.43.38c3.44,2.71,7,4.64,11.58,2.9A18.14,18.14,0,0,1,600.6,754l.84.18c.56.13,1.12.28,1.67.43l.84.24c2.69.79,5.35,1.77,8,2.47V741.35c-1,1.1-1.93,2.22-2.86,3.35C607.74,746.38,606.56,746.78,604.64,746.05Z" class="cls-25" transform="translate(-0.1 -447.98)"/><path d="M579.47,704.94a21.31,21.31,0,0,0-12.75.14c7.27,3,15.16,3.59,22.7,5.53,8,2.06,15.67,4.38,22.58,8.79v-6.26a3.36,3.36,0,0,0-1.47-.58C599.74,711.81,589.68,708,579.47,704.94Z" class="cls-25" transform="translate(-0.1 -447.98)"/><path d="M576.07,750.88l-.54-.21.38.15Z" class="cls-25" transform="translate(-0.1 -447.98)"/><polygon points="576.24 303.01 576.24 303.01 576.24 303.01 576.24 303.01" class="cls-25"/><path d="M543.05,791.22c-2.4-2.94-6.33-5.48-7-8.74s3.22-6.55,4.74-10a4.38,4.38,0,0,0-.23-.54h0a46.44,46.44,0,0,0-5.09-6.79c-.56-.66-1.14-1.31-1.71-1.95-1.48-1.66-3-3.3-4.34-5-.89-1.12-2-2.06-2.46-3.5-2.3-2.77-3.41-6.24-5.32-9.25-1.68-2.64-2.81-5.61-4.81-8.06-.42,5.12-.84,10.24-1.23,15.36l-.06.75a4.74,4.74,0,0,0,.24,2.13c2,4.67,3.72,9.58,6.35,13.88h0a24.24,24.24,0,0,0,6.82,7.42l.79.55c2,1.28,2.09,2.22-.4,3.45-2.12,1-4.22,2.11-6.33,3.17-5.44,2.77-10.85,5.6-16.27,8.41H544.2l-.47-.48C543.5,791.74,543.27,791.48,543.05,791.22Z" class="cls-25" transform="translate(-0.1 -447.98)"/><path d="M538.29,757.56c3.25-5.76,7.84-10.64,10.79-16.58,1.23-2.49-.8-4.62-1.22-6.93-1.12-6.26-4.82-11.62-6.53-17.7-.55-1.93-1.91-1-3-.65a7.38,7.38,0,0,0-2.62,1.6c-4.66,3.78-9.26,7.66-14,11.27l-1,.73c-2.86,2.12-4.39,4.5-3.87,8.05,2,2.45,3.13,5.42,4.81,8.06,1.91,3,3,6.48,5.32,9.25,3,.27,5.09,2.49,7.59,3.81C536.34,759.43,537.38,759.18,538.29,757.56Z" class="cls-18" transform="translate(-0.1 -447.98)"/><path d="M543.55,767.92c.23-.52.45-1,.7-1.52a20.19,20.19,0,0,1,1.11-1.91c1.18-1.87,2.5-3.67,3-5.88a1,1,0,0,1,.6-1.22l.2-.09a2.57,2.57,0,0,1-.2-1,1.35,1.35,0,0,1,.25-.75,2.88,2.88,0,0,1,1.5-.94,3.34,3.34,0,0,1-.14-.41,1.18,1.18,0,0,1,0-.37,1.13,1.13,0,0,1,.82-.86,1,1,0,0,1,.14-.56,1.4,1.4,0,0,1,.76-.51h0a4.06,4.06,0,0,1-.18-1.39h0a3,3,0,0,1,0-.43,4.83,4.83,0,0,1,.56-1.57,29.87,29.87,0,0,1,1.9-2.73c2.74-4,3-7.54.82-12-2.83-5.71-4.35-12-7.16-17.8a1.8,1.8,0,0,1-.1-1.77c-.71-1.69-1.43-3.37-2.14-5.06h0c-2.71,2.05-5.53,4-7.76,6.56,1.13-.32,2.49-1.28,3,.65,1.71,6.08,5.41,11.44,6.53,17.7.42,2.31,2.45,4.44,1.22,6.93-3,5.94-7.54,10.82-10.79,16.58-.91,1.62-1.95,1.87-3.77.91-2.5-1.32-4.57-3.54-7.59-3.81.44,1.44,1.57,2.38,2.46,3.5,1.38,1.73,2.86,3.37,4.34,5,.57.64,1.15,1.29,1.71,1.95a46.44,46.44,0,0,1,5.09,6.79h0A8.08,8.08,0,0,0,543.55,767.92Z" class="cls-17" transform="translate(-0.1 -447.98)"/><path d="M604,754.8l-.84-.24c-.55-.15-1.11-.3-1.67-.43l-.84-.18a18.14,18.14,0,0,0-10.46.63,33.45,33.45,0,0,0-3.69,1.56,8,8,0,0,0-1.11.71,7.17,7.17,0,0,0-.72.64,5.77,5.77,0,0,0-.93,1.22c-.15.31-.29.62-.42.94-.23.56-.43,1.13-.62,1.7,0,.14-.11.28-.16.43-.17.49-.35,1-.55,1.48a11.12,11.12,0,0,1-1.66,3l-.3,1,0,0,.13.13h0a.81.81,0,0,1-.15.95l-.12.09a3.59,3.59,0,0,0,.14.43,5.44,5.44,0,0,0,.65,1.18l.27.37c.18.24.38.48.57.71a6.34,6.34,0,0,1,1.88,3.6c6.55,4.43,5.55,11.27,5.9,17.68H612v-35.2C609.3,756.57,606.64,755.59,604,754.8Z" class="cls-22" transform="translate(-0.1 -447.98)"/><path d="M579.78,753.77c-1-.64-2.28-1.1-2.65-2.47l-.82-.32h0l-.28-.11-.16-.06-.38-.15h0l0,0-1.1-.92h0l-1.07-.9h0l-1.26-.83a8.63,8.63,0,0,1-4.18-2.3l-.51-.47a29.42,29.42,0,0,0-8-4.8c-2.65,3.63-4.09,8-7.06,11.45h0a1,1,0,0,1-.89,1.07c.43.8,0,1.27-.65,1.65h0a3.44,3.44,0,0,1-1.55,2.72v0l-.81,1.31c-.53,2.21-1.85,4-3,5.88a20.19,20.19,0,0,0-1.11,1.91c-.25.49-.47,1-.7,1.52a8.08,8.08,0,0,1-3,4h0a4.38,4.38,0,0,1,.23.54c6.28-1.35,12.7-.93,19-1.45,1.59-.13,3.18-.21,4.77-.28a110.31,110.31,0,0,0,14.29-1.08,1.65,1.65,0,0,1,.23-.56,1.42,1.42,0,0,1,.4-.41,1.31,1.31,0,0,1,.35-.19l.29-1h0l-.13-.14,0,0,.3-1a11.12,11.12,0,0,0,1.66-3c.2-.49.38-1,.55-1.48,0-.15.11-.29.16-.43.19-.57.39-1.14.62-1.7.13-.32.27-.63.42-.94A8.27,8.27,0,0,0,579.78,753.77Z" class="cls-27" transform="translate(-0.1 -447.98)"/><path d="M548.29,716c2.81,5.77,4.33,12.09,7.16,17.8,2.21,4.47,1.92,8-.82,12a29.87,29.87,0,0,0-1.9,2.73,4.83,4.83,0,0,0-.56,1.57,3,3,0,0,0,0,.43h0a4.06,4.06,0,0,0,.18,1.39c3-3.44,4.41-7.82,7.06-11.45L548.19,714.2A1.8,1.8,0,0,0,548.29,716Z" class="cls-23" transform="translate(-0.1 -447.98)"/><path d="M578.56,751.68a3.86,3.86,0,0,0-1.43-.38h0c.37,1.37,1.64,1.83,2.65,2.47a8.27,8.27,0,0,1,3.91,4.94,5.77,5.77,0,0,1,.93-1.22,7.17,7.17,0,0,1,.72-.64,8,8,0,0,1,1.11-.71,33.45,33.45,0,0,1,3.69-1.56C585.6,756.32,582,754.39,578.56,751.68Z" class="cls-23" transform="translate(-0.1 -447.98)"/><path d="M575.53,750.68h0Z" class="cls-23" transform="translate(-0.1 -447.98)"/><path d="M573.35,748.85l1.07.9h0l1.1.92h0a2.11,2.11,0,0,0-.53-.78l-.17-.09a.9.9,0,0,0-.38,0h0l-.08-.15a1.54,1.54,0,0,0-.31-.47.86.86,0,0,0-.29-.21,1.13,1.13,0,0,0-.39-.07h0l-.09-.18a1.11,1.11,0,0,0-1.2-.65l1.26.83Z" class="cls-23" transform="translate(-0.1 -447.98)"/><path d="M583.38,774.79l-4.51-5.13h0a110.31,110.31,0,0,1-14.29,1.08c-1.59.07-3.18.15-4.77.28-6.35.52-12.77.1-19,1.45-1.52,3.46-5.45,6.68-4.74,10s4.63,5.8,7,8.74c.22.26.45.52.68.77l.47.48h45.08C588.93,786.06,589.93,779.22,583.38,774.79Z" class="cls-19" transform="translate(-0.1 -447.98)"/><path d="M551.39,753h0a1.13,1.13,0,0,0-.82.86,1.18,1.18,0,0,0,0,.37,3.34,3.34,0,0,0,.14.41h0a2.88,2.88,0,0,0-1.5.94,1.35,1.35,0,0,0-.25.75,2.57,2.57,0,0,0,.2,1h0l-.2.09a1,1,0,0,0-.6,1.22l.81-1.31v0a3.44,3.44,0,0,0,1.55-2.72h0c.66-.38,1.08-.85.65-1.65a1,1,0,0,0,.89-1.07,1.4,1.4,0,0,0-.76.51A1,1,0,0,0,551.39,753Z" class="cls-23" transform="translate(-0.1 -447.98)"/><path d="M579.5,768.69a1.42,1.42,0,0,0-.4.41,1.65,1.65,0,0,0-.23.56l4.51,5.13a6.34,6.34,0,0,0-1.88-3.6c-.19-.23-.39-.47-.57-.71l-.27-.37a5.44,5.44,0,0,1-.65-1.18,3.59,3.59,0,0,1-.14-.43l.12-.09a.81.81,0,0,0,.15-.95l-.29,1A1.31,1.31,0,0,0,579.5,768.69Z" class="cls-24" transform="translate(-0.1 -447.98)"/><path d="M25.71,735.46a1.32,1.32,0,0,1,.43.39,5.85,5.85,0,0,0,.38.49l1.16.47,1.15.46,5.2,2.11c5.89-.11,11.64,1.23,17.47,1.67,5.65.43,11.27,1.28,16.91,1.86a14.89,14.89,0,0,1,4.23.92c.11-.39.23-.77.34-1.15.24-1.17.54-2.32.88-3.45,1.49-4.9,3.82-9.5,5.42-14.36.85-3.28,1.64-6.58,2.51-9.86q.43-1.63.9-3.27c.62-2.18,0-2.82-2.22-3.24-5.79-1.09-11.5-2.53-17.25-3.84h0c-4.29,0-8.4-1.06-12.53-2-1.88-.43-3.76-.85-5.66-1.14-8-1.26-16.09-2.48-24.13-3.75a9.71,9.71,0,0,1-1.76-.62,6.12,6.12,0,0,0-1.43.54Q8.9,703.51.11,709.37v12.5c5.65,3.1,11.3,6.23,17,9.23Q21.38,733.34,25.71,735.46Z" class="cls-25" transform="translate(-0.1 -447.98)"/><path d="M84.51,779.92l13.54.46-13.54-.46Z" class="cls-19" transform="translate(-0.1 -447.98)"/><path d="M68.22,704.81c.54.14,1.08.28,1.61.39,5.29,1,10.85.78,15.91,3.06,4-2.38,8.55-2.88,12.76-4.5,3.65-1.4,7.7-1.67,11-3.93-2.14-1.63-4.84-1.75-7.25-2.67-12-4.6-24.24-8.61-36.29-13.09-5.45-2-10.08-2.44-15.56,0-10.27,4.68-21,8.35-31.29,13a9.71,9.71,0,0,0,1.76.62c8,1.27,16.09,2.49,24.13,3.75,1.9.29,3.78.71,5.66,1.14,4.13.94,8.24,2,12.53,2h0A8.05,8.05,0,0,1,68.22,704.81Z" class="cls-26" transform="translate(-0.1 -447.98)"/><path d="M84.6,744.51c1.74-2.61,4.18-1.9,6.42-1.31a11.17,11.17,0,0,0,6.07,0c1.65-.45,3.77-.78,5.2-.11a7.93,7.93,0,0,0,1.49.53c1.06-5.37,3.59-10.42,5.61-15.57a3.28,3.28,0,0,1,.53-.87q.48-12.91,1-25.84c0-1.1-.36-1.52-1.37-1.56-3.33,2.26-7.38,2.53-11,3.93-4.21,1.62-8.81,2.12-12.76,4.5q-3.22,8.31-6.46,16.61c-1.6,4.86-3.93,9.46-5.42,14.36-.34,1.13-.64,2.28-.88,3.45,3.2.79,6.4,1.6,9.6,2.38A1.94,1.94,0,0,0,84.6,744.51Z" class="cls-27" transform="translate(-0.1 -447.98)"/><path d="M.11,776.9v.91A1.4,1.4,0,0,1,.29,777Z" class="cls-21" transform="translate(-0.1 -447.98)"/><path d="M4.93,788.91c-.18-.65-.37-1.29-.58-1.93s-.34-1-.53-1.51c-.29-.75-.6-1.48-1-2.2a19.25,19.25,0,0,0-1-1.74l-.36-.7h0a1.21,1.21,0,0,1-.34-.69,1,1,0,0,1,.21-.72.68.68,0,0,1-.36-.32.66.66,0,0,1,0-.48,1.56,1.56,0,0,1-.43-.2,1.1,1.1,0,0,1-.34-.34.92.92,0,0,1-.11-.29v14.66H5.85l0-.08A18.12,18.12,0,0,1,4.93,788.91Z" class="cls-21" transform="translate(-0.1 -447.98)"/><path d="M74.42,747c8.9,2.83,17.82,5.58,26.67,8.58,2.62.89,3.24.19,2.72-2.16a23.34,23.34,0,0,1,0-9.74,7.93,7.93,0,0,1-1.49-.53c-1.43-.67-3.55-.34-5.2.11a11.17,11.17,0,0,1-6.07,0c-2.24-.59-4.68-1.3-6.42,1.31a1.94,1.94,0,0,1-2,.55c-3.2-.78-6.4-1.59-9.6-2.38-.11.38-.23.76-.34,1.15C73.23,744.88,73.82,745.94,74.42,747Z" class="cls-28" transform="translate(-0.1 -447.98)"/><path d="M45.22,776c-.9-3.17-1.5-6.42-2.37-9.6-.31-1.11.41-1.93,1.09-2.75.51-.61,1-1.23,1.51-1.86L39.32,751.5l-.33-.13a2.27,2.27,0,0,1-1.36-1.13,1.93,1.93,0,0,1,.06-1.41h0a3,3,0,0,1-1.86-1.24c-.69-1-1-2.26-1.64-3.21-1.7-2.44-4.18-4.28-5.36-7.1l-1.15-.46c-.63.45-1,.3-1.16-.47a5.85,5.85,0,0,1-.38-.49,1.32,1.32,0,0,0-.43-.39q-4.34-2.12-8.59-4.36c-5.71-3-11.36-6.13-17-9.23v2L7,728.63a147,147,0,0,0,13.79,8.26c5.14,2.75,7.45,7.8,10.21,12.55,1.82,3.13,3.14,6.46,4.79,9.65,1.86,3.59,1,5.54-2.18,8.14-7.08,5.72-15.07,10-22.69,14.89-1.35.86-2.06,1.15-2.87-.86-2.5-6.19-5.58-12.16-8-18.38V776c.07.35.14.7.18,1.06A1.09,1.09,0,0,1,1,778.63c.12.26.24.53.35.8a1.16,1.16,0,0,1,.13,1.4l.36.7a19.25,19.25,0,0,1,1,1.74c.36.72.67,1.45,1,2.2.19.5.37,1,.53,1.51s.4,1.28.58,1.93a7.83,7.83,0,0,1,2.43,3.56H19.23c2.22-1.3,4.51-2.49,6.68-3.88C32.38,784.45,38.8,780.24,45.22,776Z" class="cls-17" transform="translate(-0.1 -447.98)"/><path d="M85.74,708.26c-5.06-2.28-10.62-2-15.91-3.06-.53-.11-1.07-.25-1.61-.39a8.05,8.05,0,0,0-5-.15h0C69,706,74.68,707.41,80.47,708.5c2.2.42,2.84,1.06,2.22,3.24q-.47,1.63-.9,3.27c-.87,3.28-1.66,6.58-2.51,9.86Q82.51,716.58,85.74,708.26Z" class="cls-23" transform="translate(-0.1 -447.98)"/><path d="M34,739.38l-5.2-2.11c1.18,2.82,3.66,4.66,5.36,7.1.66,1,1,2.24,1.64,3.21a3,3,0,0,0,1.86,1.24,40.51,40.51,0,0,0-1.7-4.2C35.08,743,33.66,741.52,34,739.38Z" class="cls-18" transform="translate(-0.1 -447.98)"/><path d="M27.68,736.81l-1.16-.47C26.66,737.11,27.05,737.26,27.68,736.81Z" class="cls-18" transform="translate(-0.1 -447.98)"/><path d="M60.1,792.47h0a19,19,0,0,1,5.68-2.36A19,19,0,0,0,60.1,792.47Z" class="cls-22" transform="translate(-0.1 -447.98)"/><path d="M53,792.47h0l-1.27-.25Z" class="cls-22" transform="translate(-0.1 -447.98)"/><path d="M.56,778.44a1.56,1.56,0,0,0,.43.2H1a.66.66,0,0,0,0,.48.68.68,0,0,0,.36.32,1,1,0,0,0-.21.72,1.16,1.16,0,0,0,.34.68h0a1.16,1.16,0,0,0-.13-1.4c-.11-.27-.23-.54-.35-.8A1.09,1.09,0,0,0,.29,777c0-.36-.11-.71-.18-1.06v.95l.18.12h0a1.4,1.4,0,0,0-.18.79.92.92,0,0,0,.11.29A1.1,1.1,0,0,0,.56,778.44Z" class="cls-23" transform="translate(-0.1 -447.98)"/><path d="M4.93,788.91a18.12,18.12,0,0,0,.89,3.48l0,.08H7.36A7.83,7.83,0,0,0,4.93,788.91Z" class="cls-18" transform="translate(-0.1 -447.98)"/><path d="M10.94,782.12c7.62-4.87,15.61-9.17,22.69-14.89,3.21-2.6,4-4.55,2.18-8.14-1.65-3.19-3-6.52-4.79-9.65-2.76-4.75-5.07-9.8-10.21-12.55A147,147,0,0,1,7,728.63L.11,723.92v39c2.38,6.22,5.46,12.19,8,18.38C8.88,783.27,9.59,783,10.94,782.12Z" class="cls-18" transform="translate(-0.1 -447.98)"/><path d="M37.69,748.83a1.93,1.93,0,0,0-.06,1.41A2.27,2.27,0,0,0,39,751.37l.33.13A3.11,3.11,0,0,0,37.69,748.83Z" class="cls-18" transform="translate(-0.1 -447.98)"/><path d="M167.8,720.44c-3.66-2.59-3.89.68-4.75,2.78-1.15,2.79-2.05,5.7-3.39,8.39-2.16,4.34-3,8.59-1.16,13.34,1.73,4.52,2.39,9.37,3.27,14.14a6.69,6.69,0,0,0,4.7,5.59c2.84,1,4.49,3.22,6,5.85,2.53,4.41,4.45,9.07,6.52,13.67.84,1.88,2,2.42,4.13,2.22,5.8-.53,11.64-.67,17.46-.92,4.14-.18,4.72-1,3.9-5.14-.52-2.62-.61-5.33-1.08-8-1.56-8.76-5.62-16.39-10.12-24-4-6.71-9.14-12.68-12.13-20a135,135,0,0,0-12.75-8.62A6.71,6.71,0,0,1,167.8,720.44Z" class="cls-24" transform="translate(-0.1 -447.98)"/><path d="M210.6,782.72c-1-5.46-2-10.89-3.08-16.33a3.67,3.67,0,0,0-.69-1.7c-.65-.76-1.28-1.53-1.9-2.32-6-7.66-10.09-16.52-14.67-25-.21-.39-.43-.74-.65-1.1s-.48-.75-.73-1.11a21.66,21.66,0,0,0-7.73-6.7c3,7.27,8.17,13.24,12.13,20,4.5,7.62,8.56,15.25,10.12,24,.47,2.64.56,5.35,1.08,8,.82,4.13.24,5-3.9,5.14-5.82.25-11.66.39-17.46.92-2.17.2-3.29-.34-4.13-2.22-2.07-4.6-4-9.26-6.52-13.67-1.51-2.63-3.16-4.87-6-5.85a6.69,6.69,0,0,1-4.7-5.59c-.88-4.77-1.54-9.62-3.27-14.14-1.83-4.75-1-9,1.16-13.34,1.34-2.69,2.24-5.6,3.39-8.39.86-2.1,1.09-5.37,4.75-2.78a6.71,6.71,0,0,0,.6-.63c-1.55-1.09-2.94-2.43-4.75-3.14q-1,2.55-2.06,5.1-5.33,13.23-10.66,26.45a29.51,29.51,0,0,1,2.29,9.08,9.42,9.42,0,0,0,1.36,5.28,1.17,1.17,0,0,1,.32,1.5.89.89,0,0,1,.29.68,1.1,1.1,0,0,1,0,.18,2.23,2.23,0,0,1-.15.53.74.74,0,0,1,.24.33.79.79,0,0,1,.06.34,3,3,0,0,1-.18.74l.18.43.17.38h0l0,0c.12.27.23.55.35.82h0l.16.23.29.4a1.48,1.48,0,0,1,.3.65c.51,4.34,1.69,8.26,6.13,10.24a16.37,16.37,0,0,1,5,3.39,21.41,21.41,0,0,1,2.8,3.43c.67,1,1.27,2,1.85,3.09.46.85.91,1.71,1.35,2.57h38.5c-.46-3.26-1-6.51-1.56-9.75Z" class="cls-25" transform="translate(-0.1 -447.98)"/><path d="M115.83,755h0c.18-1,.32-1.93.43-2.89,0-.24,0-.47.08-.7.06-.57.11-1.14.16-1.72.06-.79.11-1.59.16-2.39s.09-1.48.13-2.22c.11-1.84.22-3.68.43-5.52.15-1.42,0-2.88.73-4.21.33-3.59,2-6.82,2.77-10.3.68-3,2-5.95,2.3-9.1-4.1,3.49-8.22,7-12.3,10.48a6.13,6.13,0,0,0-.8.81,3.28,3.28,0,0,0-.53.87c-2,5.15-4.55,10.2-5.61,15.57a23.34,23.34,0,0,0,0,9.74c.52,2.35-.1,3.05-2.72,2.16-8.85-3-17.77-5.75-26.67-8.58h0l-1.76-.56A16.34,16.34,0,0,1,70,749a34.18,34.18,0,0,1-5.22,3.24c-1.68.88-1.65,1.72-1.31,3.44,1.2,6.06,6.06,9.35,9.75,13.52,1.71,1.92,3.7,3.59,5.43,5.5a8.89,8.89,0,0,0,5.18,2.63c3.84.7,7.74,1.12,11.62,1.67,1,.14,2.1.17,2.59,1.34l4.42.37a10.9,10.9,0,0,0,1-5.58,24.7,24.7,0,0,1,.07-2.58c.38-3.78-.61-8.35,1.21-11.15s6.9-2.36,10.43-3.72c.08-.18.15-.37.22-.55C115.54,756.45,115.7,755.72,115.83,755Z" class="cls-25" transform="translate(-0.1 -447.98)"/><path d="M118,735.34c2,2.33,1.84,5.37,2.67,8.06.61,2,1.52,2.53,3.32,2,6.36-1.78,13.06-2,19.34-4.1,2.63-.89,2.71-3.83,4.05-5.76,3.63-5.22,4.8-11.63,7.89-17.14,1-1.75-.66-2-1.69-2.6a7.14,7.14,0,0,0-3-.72c-6.37-.67-12.77-1.19-19.1-2.13-3.51-.52-6.28.08-8.43,3-.31,3.15-1.62,6-2.3,9.1C120,728.52,118.28,731.75,118,735.34Z" class="cls-18" transform="translate(-0.1 -447.98)"/><path d="M153.53,715.83c1,.57,2.67.85,1.69,2.6-3.09,5.51-4.26,11.92-7.89,17.14-1.34,1.93-1.42,4.87-4.05,5.76-6.28,2.12-13,2.32-19.34,4.1-1.8.5-2.71-.06-3.32-2-.83-2.69-.72-5.73-2.67-8.06-.7,1.33-.58,2.79-.73,4.21-.21,1.84-.32,3.68-.43,5.52,0,.74-.08,1.48-.13,2.22s-.1,1.6-.16,2.39c0,.58-.1,1.15-.16,1.72,0,.23,0,.46-.08.7-.11,1-.25,1.93-.43,2.89h0c-.13.72-.29,1.45-.47,2.17h0a7.5,7.5,0,0,0,4.57-.56c.66-.24,1.32-.5,2-.72l1.06-.31c2.49-.65,5.11-.89,7.37-2.27a1,1,0,0,1,1.29-.44l.21.08a2.54,2.54,0,0,1,.4-.68l.16-.17a1.51,1.51,0,0,1,.34-.24l.18-.07a1.78,1.78,0,0,1,.39-.07,3.31,3.31,0,0,1,1.54.42,1.69,1.69,0,0,1,.11-.27,1,1,0,0,1,1.49-.44.94.94,0,0,1,.68-.31,1.46,1.46,0,0,1,.73.2h0c1.3-2.4,3.92-2.3,6-2.68,4.75-.88,7.48-3.19,9.08-7.92,2-6,5.43-11.57,7.52-17.64a1.79,1.79,0,0,1,1.18-1.32q1-2.55,2.06-5.1h0C160.29,716.21,157,715.56,153.53,715.83Z" class="cls-17" transform="translate(-0.1 -447.98)"/><path d="M103,792.47h1.58c-.54-.23-1.08-.45-1.63-.65C103,792,103,792.25,103,792.47Z" class="cls-29" transform="translate(-0.1 -447.98)"/><path d="M102.86,789.74v0c0-.91.09-1.84.15-2.76,0-.46.06-.92.07-1.39,0-.23,0-.46,0-.69,0-.46,0-.92,0-1.38a10.33,10.33,0,0,0-.59-2.75l-4.42-.37-13.54-.46-5.58-.18c-.87,2.48-2.07,4.85-3,7.32a20.47,20.47,0,0,0-1.19,4.6,1.73,1.73,0,0,1-.12.46,1.25,1.25,0,0,1-.21.35H103c0-.22,0-.43,0-.65A16,16,0,0,1,102.86,789.74Zm-2.46-7.92a1.34,1.34,0,0,1-.28,0c0-.08,0-.22,0-.23a1.24,1.24,0,0,1,.27,0A.66.66,0,0,1,100.4,781.82Z" class="cls-20" transform="translate(-0.1 -447.98)"/><path d="M95.46,779c-3.88-.55-7.78-1-11.62-1.67a8.89,8.89,0,0,1-5.18-2.63c-1.73-1.91-3.72-3.58-5.43-5.5-3.69-4.17-8.55-7.46-9.75-13.52-.34-1.72-.37-2.56,1.31-3.44A34.18,34.18,0,0,0,70,749a16.34,16.34,0,0,0,2.65-2.61l1.76.56c-.6-1-1.19-2.11-1.78-3.16a14.89,14.89,0,0,0-4.23-.92c-5.64-.58-11.26-1.43-16.91-1.86-5.83-.44-11.58-1.78-17.47-1.67-.37,2.14,1,3.57,2,5.24a40.51,40.51,0,0,1,1.7,4.2h0a3.11,3.11,0,0,1,1.63,2.67h0l6.13,10.33c-.5.63-1,1.25-1.51,1.86-.68.82-1.4,1.64-1.09,2.75.87,3.18,1.47,6.43,2.37,9.6a33.81,33.81,0,0,0,1.88,5.18l6.45-9.45h0l2-2.88a3,3,0,0,1,.25-2.21,2.39,2.39,0,0,1,.92-.89c.9-.5,1.64.33,2,1.25,5.08,4.35,11.44,6.64,16.81,10.53,1.09.78,2.27,1.45,3.41,2.17l5.58.18,13.54.46C97.56,779.21,96.47,779.18,95.46,779ZM53.29,766.17c-.82,3.48-3.39,5.58-5.23,8.14-1,1.44-1.69,0-1.89-.7-.24-.84.32-1.93,0-2.73-1.92-5.43.49-9.24,4.3-12.76,1.3-1.2,2.14-1.48,2.61.31C53.8,761,55.56,763.71,53.29,766.17Zm3.25-1.57a2.53,2.53,0,0,1-.72-2.86l-.19-.82.29-.06c0,.29-.06.58-.08.87h0a1.63,1.63,0,0,1,.95,1.53A4.57,4.57,0,0,1,56.54,764.6Z" class="cls-26" transform="translate(-0.1 -447.98)"/><path d="M74.76,791.66a20.47,20.47,0,0,1,1.19-4.6c.91-2.47,2.11-4.84,3-7.32l5.58.18h0l-5.58-.18c-1.14-.72-2.32-1.39-3.41-2.17-5.37-3.89-11.73-6.18-16.81-10.53-1.83-.72-2.45.68-3.19,1.85l-2,2.88h0l-6.45,9.45A33.81,33.81,0,0,1,45.22,776c-6.42,4.2-12.84,8.41-19.31,12.55-2.17,1.39-4.46,2.58-6.68,3.88H51.62c0-.08.05-.16.09-.25l6.08-3.44a3.51,3.51,0,0,0,1.2-.2,10.05,10.05,0,0,1,2.44-1,7,7,0,0,1,6.77,2l4.63,2.9h1.6a1.25,1.25,0,0,0,.21-.35A1.73,1.73,0,0,0,74.76,791.66Z" class="cls-22" transform="translate(-0.1 -447.98)"/><path d="M66.91,789.84q.65-.15,1.29-.27a7,7,0,0,0-6.77-2,10.05,10.05,0,0,0-2.44,1,3.51,3.51,0,0,1-1.2.2l-6.08,3.44,1.27.25H60.1a19,19,0,0,1,5.68-2.36C66.16,790,66.53,789.92,66.91,789.84Z" class="cls-17" transform="translate(-0.1 -447.98)"/><path d="M51.62,792.47H53l-1.27-.25C51.67,792.31,51.65,792.39,51.62,792.47Z" class="cls-27" transform="translate(-0.1 -447.98)"/><path d="M170.46,786.81a21.41,21.41,0,0,0-2.8-3.43,16.37,16.37,0,0,0-5-3.39c-.9-.39-1.79-.83-2.7-1.17a9.2,9.2,0,0,0-2.77-.67,6.38,6.38,0,0,0-2,.19,17.55,17.55,0,0,0-1.91.8l-.7.33a15.3,15.3,0,0,1-5.13,1.79l-.94.52V782h0a.91.91,0,0,1-.61.56h0a1.06,1.06,0,0,1-.3,0,4.07,4.07,0,0,0-.31.67,6,6,0,0,0-.27,1c-.06.3-.09.6-.13.9-.15,1.52-.16,3.08-1.25,4.33a13.64,13.64,0,0,1,.24,3h29.78c-.44-.86-.89-1.72-1.35-2.57C171.73,788.84,171.13,787.81,170.46,786.81Z" class="cls-22" transform="translate(-0.1 -447.98)"/><path d="M137.85,751.32a1,1,0,0,1-1.39.13c-.27.87-.9.9-1.63.7h0a3.45,3.45,0,0,1-3,.82h0l-1.49.35c-2.26,1.38-4.88,1.62-7.37,2.27l-1.06.31c-.65.22-1.31.48-2,.72a7.5,7.5,0,0,1-4.57.56h0c-.07.18-.14.37-.22.55,5.39,3.48,9.64,8.32,14.49,12.44,1.22,1,2.4,2.1,3.57,3.17a109.7,109.7,0,0,0,10.87,9.34,1.73,1.73,0,0,1,.75-.26,1.7,1.7,0,0,1,.39,0,2.65,2.65,0,0,1,.37.12l.95-.54h0v-.23l.94-.52a15.3,15.3,0,0,0,5.13-1.79l.7-.33a17.55,17.55,0,0,1,1.91-.8,8.27,8.27,0,0,0,.73-6.26c-.26-1.16-.83-2.39-.13-3.61-.12-.27-.23-.55-.35-.82l0,0h0l-.17-.38-.18-.43h0v0c0-.48-.09-1-.13-1.43h0c0-.47-.09-.93-.13-1.4h0l-.3-1.47a9.42,9.42,0,0,1-1.36-5.28,29.51,29.51,0,0,0-2.29-9.08c-4.44.69-8.56,2.78-13.09,3.11Z" class="cls-27" transform="translate(-0.1 -447.98)"/><path d="M160.41,723.09c-2.09,6.07-5.48,11.61-7.52,17.64-1.6,4.73-4.33,7-9.08,7.92-2.05.38-4.67.28-6,2.68,4.53-.33,8.65-2.42,13.09-3.11q5.34-13.22,10.66-26.45A1.79,1.79,0,0,0,160.41,723.09Z" class="cls-23" transform="translate(-0.1 -447.98)"/><path d="M156,772.08a8.27,8.27,0,0,1-.73,6.26,6.38,6.38,0,0,1,2-.19,9.2,9.2,0,0,1,2.77.67h0c.91.34,1.8.78,2.7,1.17-4.44-2-5.62-5.9-6.13-10.24a1.48,1.48,0,0,0-.3-.65l-.29-.4-.16-.23h0C155.12,769.69,155.69,770.92,156,772.08Z" class="cls-23" transform="translate(-0.1 -447.98)"/><path d="M155.13,766.89h0Z" class="cls-23" transform="translate(-0.1 -447.98)"/><path d="M154.88,764.05c0,.47.09.93.13,1.4h0c0,.48.09.95.13,1.43h0a3,3,0,0,0,.18-.74.79.79,0,0,0-.06-.34.74.74,0,0,0-.24-.33h0a2.23,2.23,0,0,0,.15-.53,1.1,1.1,0,0,0,0-.18.89.89,0,0,0-.29-.68h0a1.17,1.17,0,0,0-.32-1.5l.3,1.47Z" class="cls-23" transform="translate(-0.1 -447.98)"/><path d="M144.07,782.67h0a109.7,109.7,0,0,1-10.87-9.34c-1.17-1.07-2.35-2.14-3.57-3.17-4.85-4.12-9.1-9-14.49-12.44-3.53,1.36-8.58.87-10.43,3.72s-.83,7.37-1.21,11.15a24.7,24.7,0,0,0-.07,2.58,10.9,10.9,0,0,1-1,5.58l-4.42-.37,4.42.37a10.33,10.33,0,0,1,.59,2.75c0,.46,0,.92,0,1.38,0,.23,0,.46,0,.69,0,.47,0,.93-.07,1.39-.06.92-.13,1.85-.15,2.76v0a16,16,0,0,0,.11,2.08c.55.2,1.09.42,1.63.65h39.28a13.64,13.64,0,0,0-.24-3C143.78,787.22,143.93,785,144.07,782.67Z" class="cls-19" transform="translate(-0.1 -447.98)"/><path d="M131.82,753a3.45,3.45,0,0,0,3-.82h0c.73.2,1.36.17,1.63-.7a1,1,0,0,0,1.39-.13,1.46,1.46,0,0,0-.73-.2.94.94,0,0,0-.68.31h0a1,1,0,0,0-1.49.44,1.69,1.69,0,0,0-.11.27h0a3.31,3.31,0,0,0-1.54-.42,1.78,1.78,0,0,0-.39.07l-.18.07a1.51,1.51,0,0,0-.34.24l-.16.17a2.54,2.54,0,0,0-.4.68l-.21-.08a1,1,0,0,0-1.29.44l1.49-.35Z" class="cls-23" transform="translate(-0.1 -447.98)"/><path d="M66.91,789.84c-.38.08-.75.18-1.13.27a19,19,0,0,0-5.68,2.36H72.83l-4.63-2.9Q67.55,789.69,66.91,789.84Z" class="cls-25" transform="translate(-0.1 -447.98)"/><path d="M100.15,781.58s0,.15,0,.23a1.34,1.34,0,0,0,.28,0,.66.66,0,0,0,0-.23A1.24,1.24,0,0,0,100.15,781.58Z" class="cls-19" transform="translate(-0.1 -447.98)"/><path d="M50.5,758.12c-3.81,3.52-6.22,7.33-4.3,12.76.29.8-.27,1.89,0,2.73.2.69.87,2.14,1.89.7,1.84-2.56,4.41-4.66,5.23-8.14,2.27-2.46.51-5.13-.18-7.74C52.64,756.64,51.8,756.92,50.5,758.12Z" class="cls-17" transform="translate(-0.1 -447.98)"/><path d="M56.69,765.79a2.39,2.39,0,0,0-.92.89,3,3,0,0,0-.25,2.21c.74-1.17,1.36-2.57,3.19-1.85C58.33,766.12,57.59,765.29,56.69,765.79Z" class="cls-23" transform="translate(-0.1 -447.98)"/><path d="M55.84,761.73h0a2.53,2.53,0,0,0,.72,2.86,4.57,4.57,0,0,0,.25-1.34A1.63,1.63,0,0,0,55.84,761.73Z" class="cls-23" transform="translate(-0.1 -447.98)"/><path d="M55.92,760.86l-.29.06.19.82h0C55.86,761.44,55.89,761.15,55.92,760.86Z" class="cls-23" transform="translate(-0.1 -447.98)"/><path d="M145.21,782.43a1.7,1.7,0,0,0-.39,0,1.73,1.73,0,0,0-.75.26c-.14,2.28-.29,4.55-.43,6.82,1.09-1.25,1.1-2.81,1.25-4.33,0-.3.07-.6.13-.9a6,6,0,0,1,.27-1,4.07,4.07,0,0,1,.31-.67h0a1.06,1.06,0,0,0,.3,0h0a.91.91,0,0,0,.61-.56l-.95.54A2.65,2.65,0,0,0,145.21,782.43Z" class="cls-24" transform="translate(-0.1 -447.98)"/><rect width="48.59" height="16.03" x="253.24" y="713.98" class="cls-30" transform="translate(-164.95 -360.49) rotate(-13.86)"/><polygon points="257.85 284.24 255.32 273.96 297.27 263.79 299.81 274.11 257.85 284.24" class="cls-31"/><polygon points="251.81 272.08 257.51 262.58 290.61 254.32 299.1 260.41 251.81 272.08" class="cls-31"/><path d="M254.08,694.8c11-3.16,31.24-7.7,31.24-7.7,4.7.11,9.65,4,9.65,4L247.68,703S251.58,695.52,254.08,694.8Z" class="cls-30" transform="translate(-0.1 -447.98)"/><polygon points="247.72 254.8 294.87 243.17 290.61 254.32 257.51 262.58 247.72 254.8" class="cls-32"/><polygon points="288.77 253.06 291.31 245.95 252.03 255.64 258.25 260.23 288.77 253.06" class="cls-33"/><polygon points="289.85 256.35 259.4 263.86 256.14 269.36 294.77 259.83 289.85 256.35" class="cls-14"/><path d="M255.25,694.52c-1.83.48-3.08,7.19-3.08,7.19l38.14-9.41s-4.45-5.29-6.41-4.85C277.1,689,264.1,692.18,255.25,694.52Z" class="cls-31" transform="translate(-0.1 -447.98)"/><polygon points="258.31 260.3 258.28 254.1 285.5 247.38 288.77 253.06 258.31 260.3" class="cls-14"/><path d="M291.54,699.45" class="cls-14" transform="translate(-0.1 -447.98)"/><polygon points="249.92 252.09 292.07 241.7 292.57 243.72 250.43 254.14 249.92 252.09" class="cls-30"/><rect width="7.15" height="3.82" x="272.86" y="713.56" class="cls-34" transform="translate(-163.42 -360.94) rotate(-13.86)"/><ellipse cx="276.43" cy="715" class="cls-14" rx=".47" ry=".48" transform="translate(-163.31 -360.96) rotate(-13.86)"/><polyline points="276.32 266.96 275.97 268.66 277.3 268.33" class="cls-14"/><line x1="255.87" x2="297.78" y1="276.22" y2="265.88" class="cls-35"/><line x1="256.44" x2="298.35" y1="278.5" y2="268.16" class="cls-35"/><line x1="257" x2="298.91" y1="280.77" y2="270.43" class="cls-35"/><line x1="257.53" x2="299.44" y1="282.93" y2="272.59" class="cls-35"/><line x1="287.15" x2="253.15" y1="241.32" y2="249.71" class="cls-35"/><line x1="253.78" x2="285.87" y1="248.16" y2="240.24" class="cls-35"/><line x1="254.59" x2="284.41" y1="246.81" y2="239.46" class="cls-35"/><path d="M275.84,689.32c1.81-.46,2.87,5.84,2.87,5.84l2.82-.7s-1.62-6.08-3-5.77C277.53,688.93,273.93,689.81,275.84,689.32Z" class="cls-30" transform="translate(-0.1 -447.98)"/><path d="M264.94,692c-1.82.44.18,6.5.18,6.5l-2.83.69s-1.39-6.13-.06-6.48C263.26,692.45,266.86,691.56,264.94,692Z" class="cls-30" transform="translate(-0.1 -447.98)"/><rect width="2.96" height="15.91" x="268.53" y="715.96" class="cls-30" transform="translate(-165.63 -362.24) rotate(-13.86)"/><rect width="2.84" height="15.91" x="284.7" y="711.99" class="cls-30" transform="translate(-164.21 -358.49) rotate(-13.86)"/><ellipse cx="270.31" cy="709.68" class="cls-36" rx="1.71" ry="1.14" transform="translate(-167.8 -358.67) rotate(-14.37)"/><ellipse cx="270.26" cy="709.48" class="cls-34" rx="1.71" ry="1.14" transform="translate(-167.75 -358.69) rotate(-14.37)"/><ellipse cx="282.21" cy="707.36" class="cls-36" rx="1.71" ry="1.14" transform="translate(-443.34 27.6) rotate(-50.53)"/><ellipse cx="282.05" cy="707.23" class="cls-34" rx="1.71" ry="1.14" transform="translate(-443.3 27.43) rotate(-50.53)"/><ellipse cx="288.76" cy="705.32" class="cls-36" rx="1.71" ry="1.14" transform="translate(-439.38 31.91) rotate(-50.53)"/><ellipse cx="288.6" cy="705.19" class="cls-34" rx="1.71" ry="1.14" transform="translate(-439.33 31.74) rotate(-50.53)"/><ellipse cx="286.55" cy="705.86" class="cls-36" rx="1.71" ry="1.14" transform="translate(-440.61 30.4) rotate(-50.53)"/><ellipse cx="286.39" cy="705.73" class="cls-34" rx="1.71" ry="1.14" transform="translate(-440.56 30.23) rotate(-50.53)"/><ellipse cx="294.5" cy="706.04" class="cls-36" rx="1.71" ry="1.14" transform="translate(-437.85 36.61) rotate(-50.53)"/><ellipse cx="294.34" cy="705.91" class="cls-34" rx="1.71" ry="1.14" transform="translate(-437.8 36.43) rotate(-50.53)"/><ellipse cx="273.89" cy="711.14" class="cls-36" rx="1.71" ry="1.14" transform="translate(-225.45 -312.59) rotate(-19.86)"/><ellipse cx="273.82" cy="710.95" class="cls-34" rx="1.71" ry="1.14" transform="translate(-225.39 -312.63) rotate(-19.86)"/><ellipse cx="266.58" cy="711.88" class="cls-36" rx="1.71" ry="1.14" transform="translate(-157.21 -367.23) rotate(-13.34)"/><ellipse cx="266.53" cy="711.68" class="cls-34" rx="1.71" ry="1.14" transform="translate(-157.16 -367.25) rotate(-13.34)"/><ellipse cx="279.65" cy="707.12" class="cls-36" rx="1.14" ry="1.71" transform="matrix(0.58, -0.82, 0.82, 0.58, -459.7, 81.01)"/><ellipse cx="279.77" cy="706.95" class="cls-34" rx="1.14" ry="1.71" transform="translate(-459.51 81.04) rotate(-54.87)"/><ellipse cx="259.16" cy="714.55" class="cls-36" rx="1.71" ry="1.14" transform="translate(-418.77 -77.37) rotate(-43.16)"/><ellipse cx="259.02" cy="714.4" class="cls-34" rx="1.71" ry="1.14" transform="translate(-418.71 -77.5) rotate(-43.16)"/><ellipse cx="257.12" cy="715.92" class="cls-36" rx="1.71" ry="1.14" transform="translate(-289.16 -261.53) rotate(-26.13)"/><ellipse cx="257.03" cy="715.74" class="cls-34" rx="1.71" ry="1.14" transform="translate(-289.09 -261.59) rotate(-26.13)"/><ellipse cx="257.07" cy="714.01" class="cls-36" rx="1.71" ry="1.14" transform="translate(-282.2 -268) rotate(-25.47)"/><ellipse cx="256.98" cy="713.82" class="cls-34" rx="1.71" ry="1.14" transform="translate(-282.13 -268.05) rotate(-25.47)"/><ellipse cx="255.31" cy="715.52" class="cls-36" rx="1.71" ry="1.14" transform="translate(-283.02 -268.61) rotate(-25.47)"/><ellipse cx="255.22" cy="715.33" class="cls-34" rx="1.71" ry="1.14" transform="translate(-282.95 -268.67) rotate(-25.47)"/><ellipse cx="254.75" cy="717.58" class="cls-36" rx="1.71" ry="1.14" transform="translate(-283.97 -268.65) rotate(-25.47)"/><ellipse cx="254.66" cy="717.39" class="cls-34" rx="1.71" ry="1.14" transform="translate(-283.89 -268.71) rotate(-25.47)"/><ellipse cx="257.97" cy="716.78" class="cls-36" rx="1.71" ry="1.14" transform="translate(-283.31 -267.34) rotate(-25.47)"/><ellipse cx="257.88" cy="716.59" class="cls-34" rx="1.71" ry="1.14" transform="translate(-283.24 -267.4) rotate(-25.47)"/><ellipse cx="264.81" cy="713.16" class="cls-36" rx="1.71" ry="1.14" transform="translate(-416.29 -73.88) rotate(-43.16)"/><ellipse cx="264.67" cy="713.01" class="cls-34" rx="1.71" ry="1.14" transform="translate(-416.23 -74.02) rotate(-43.16)"/><ellipse cx="262.76" cy="714.53" class="cls-36" rx="1.71" ry="1.14" transform="translate(-287.97 -259.19) rotate(-26.13)"/><ellipse cx="262.67" cy="714.34" class="cls-34" rx="1.71" ry="1.14" transform="translate(-287.9 -259.25) rotate(-26.13)"/><ellipse cx="262.72" cy="712.62" class="cls-36" rx="1.71" ry="1.14" transform="translate(-281.06 -265.7) rotate(-25.47)"/><ellipse cx="262.63" cy="712.43" class="cls-34" rx="1.71" ry="1.14" transform="translate(-280.98 -265.76) rotate(-25.47)"/><ellipse cx="260.95" cy="714.12" class="cls-36" rx="1.71" ry="1.14" transform="translate(-281.88 -266.32) rotate(-25.47)"/><ellipse cx="260.86" cy="713.93" class="cls-34" rx="1.71" ry="1.14" transform="translate(-281.8 -266.38) rotate(-25.47)"/><ellipse cx="263.62" cy="715.39" class="cls-36" rx="1.71" ry="1.14" transform="translate(-282.16 -265.05) rotate(-25.47)"/><ellipse cx="263.53" cy="715.2" class="cls-34" rx="1.71" ry="1.14" transform="translate(-282.09 -265.11) rotate(-25.47)"/><ellipse cx="258.77" cy="714.88" class="cls-36" rx="1.71" ry="1.14" transform="translate(-225.36 -319.38) rotate(-19.64)"/><ellipse cx="258.7" cy="714.68" class="cls-34" rx="1.71" ry="1.14" transform="translate(-225.3 -319.42) rotate(-19.64)"/><ellipse cx="278.22" cy="708.79" class="cls-36" rx="1.71" ry="1.14" transform="translate(-156.18 -364.63) rotate(-13.34)"/><ellipse cx="278.17" cy="708.59" class="cls-34" rx="1.71" ry="1.14" transform="translate(-156.13 -364.65) rotate(-13.34)"/><ellipse cx="283.94" cy="706.28" class="cls-36" rx="1.14" ry="1.71" transform="translate(-457.2 84.16) rotate(-54.87)"/><ellipse cx="284.06" cy="706.11" class="cls-34" rx="1.14" ry="1.71" transform="translate(-457.01 84.18) rotate(-54.87)"/><ellipse cx="270.81" cy="711.47" class="cls-36" rx="1.71" ry="1.14" transform="translate(-413.51 -70.24) rotate(-43.16)"/><ellipse cx="270.66" cy="711.31" class="cls-34" rx="1.71" ry="1.14" transform="matrix(0.73, -0.68, 0.68, 0.73, -413.45, -70.37)"/><ellipse cx="268.76" cy="712.84" class="cls-36" rx="1.71" ry="1.14" transform="translate(-286.61 -256.72) rotate(-26.13)"/><ellipse cx="268.67" cy="712.65" class="cls-34" rx="1.71" ry="1.14" transform="translate(-286.54 -256.78) rotate(-26.13)"/><ellipse cx="268.72" cy="710.92" class="cls-36" rx="1.71" ry="1.14" transform="translate(-279.75 -263.29) rotate(-25.47)"/><ellipse cx="268.63" cy="710.74" class="cls-34" rx="1.71" ry="1.14" transform="translate(-279.67 -263.35) rotate(-25.47)"/><ellipse cx="266.95" cy="712.43" class="cls-36" rx="1.71" ry="1.14" transform="translate(-280.56 -263.9) rotate(-25.47)"/><ellipse cx="266.86" cy="712.24" class="cls-34" rx="1.71" ry="1.14" transform="translate(-280.49 -263.96) rotate(-25.47)"/><ellipse cx="266.39" cy="714.49" class="cls-36" rx="1.71" ry="1.14" transform="translate(-281.51 -263.94) rotate(-25.47)"/><ellipse cx="266.3" cy="714.3" class="cls-34" rx="1.71" ry="1.14" transform="translate(-281.43 -264) rotate(-25.47)"/><ellipse cx="276.45" cy="710.07" class="cls-36" rx="1.71" ry="1.14" transform="translate(-411.03 -66.75) rotate(-43.16)"/><ellipse cx="276.31" cy="709.92" class="cls-34" rx="1.71" ry="1.14" transform="translate(-410.97 -66.89) rotate(-43.16)"/><ellipse cx="274.41" cy="711.44" class="cls-36" rx="1.71" ry="1.14" transform="translate(-285.42 -254.37) rotate(-26.13)"/><ellipse cx="274.32" cy="711.26" class="cls-34" rx="1.71" ry="1.14" transform="translate(-285.35 -254.43) rotate(-26.13)"/><ellipse cx="274.36" cy="709.53" class="cls-36" rx="1.71" ry="1.14" transform="translate(-278.6 -261) rotate(-25.47)"/><ellipse cx="274.27" cy="709.34" class="cls-34" rx="1.71" ry="1.14" transform="translate(-278.53 -261.05) rotate(-25.47)"/><ellipse cx="272.59" cy="711.04" class="cls-36" rx="1.71" ry="1.14" transform="translate(-279.42 -261.61) rotate(-25.47)"/><ellipse cx="272.5" cy="710.85" class="cls-34" rx="1.71" ry="1.14" transform="translate(-279.34 -261.67) rotate(-25.47)"/><ellipse cx="272.03" cy="713.1" class="cls-36" rx="1.71" ry="1.14" transform="translate(-280.36 -261.65) rotate(-25.47)"/><ellipse cx="271.94" cy="712.91" class="cls-34" rx="1.71" ry="1.14" transform="translate(-280.29 -261.71) rotate(-25.47)"/><ellipse cx="275.26" cy="712.3" class="cls-36" rx="1.71" ry="1.14" transform="translate(-279.7 -260.34) rotate(-25.47)"/><ellipse cx="275.17" cy="712.12" class="cls-34" rx="1.71" ry="1.14" transform="translate(-279.63 -260.4) rotate(-25.47)"/><ellipse cx="270.42" cy="711.79" class="cls-36" rx="1.71" ry="1.14" transform="translate(-223.64 -315.65) rotate(-19.64)"/><ellipse cx="270.35" cy="711.59" class="cls-34" rx="1.71" ry="1.14" transform="translate(-223.58 -315.68) rotate(-19.64)"/><ellipse cx="264.51" cy="713.65" class="cls-36" rx="1.71" ry="1.14" transform="translate(-454.65 16.23) rotate(-50.53)"/><ellipse cx="264.35" cy="713.52" class="cls-34" rx="1.71" ry="1.14" transform="translate(-454.6 16.06) rotate(-50.53)"/><ellipse cx="266.69" cy="712.67" class="cls-36" rx="1.14" ry="1.71" transform="translate(-469.75 72.77) rotate(-54.87)"/><ellipse cx="266.81" cy="712.5" class="cls-34" rx="1.14" ry="1.71" transform="translate(-469.56 72.79) rotate(-54.87)"/><ellipse cx="274.12" cy="711.3" class="cls-36" rx="1.71" ry="1.14" transform="translate(-94.69 -403.87) rotate(-7.85)"/><ellipse cx="274.09" cy="711.1" class="cls-34" rx="1.71" ry="1.14" transform="translate(-94.67 -403.87) rotate(-7.85)"/><ellipse cx="280.94" cy="708.55" class="cls-36" rx="1.71" ry="1.14" transform="translate(-167.18 -356.07) rotate(-14.37)"/><ellipse cx="280.89" cy="708.35" class="cls-34" rx="1.71" ry="1.14" transform="translate(-167.14 -356.09) rotate(-14.37)"/><ellipse cx="288.75" cy="707.47" class="cls-36" rx="1.14" ry="1.71" transform="matrix(0.27, -0.96, 0.96, 0.27, -470.17, 349.4)"/><ellipse cx="288.8" cy="707.27" class="cls-34" rx="1.14" ry="1.71" transform="translate(-469.94 349.31) rotate(-74.55)"/><ellipse cx="291.2" cy="707.73" class="cls-36" rx="1.71" ry="1.14" transform="translate(-19.53 -439.67) rotate(-1.58)"/><ellipse cx="291.19" cy="707.52" class="cls-34" rx="1.71" ry="1.14" transform="translate(-19.52 -439.67) rotate(-1.58)"/><ellipse cx="290.35" cy="706.02" class="cls-36" rx="1.71" ry="1.14" transform="translate(-27.5 -436.08) rotate(-2.24)"/><ellipse cx="290.34" cy="705.81" class="cls-34" rx="1.71" ry="1.14" transform="translate(-27.49 -436.08) rotate(-2.24)"/><ellipse cx="292.61" cy="706.53" class="cls-36" rx="1.71" ry="1.14" transform="translate(-27.52 -435.99) rotate(-2.24)"/><ellipse cx="292.6" cy="706.32" class="cls-34" rx="1.71" ry="1.14" transform="matrix(1, -0.04, 0.04, 1, -27.51, -435.99)"/><ellipse cx="294.07" cy="708.09" class="cls-36" rx="1.71" ry="1.14" transform="translate(-27.58 -435.93) rotate(-2.24)"/><ellipse cx="294.06" cy="707.88" class="cls-34" rx="1.71" ry="1.14" transform="translate(-27.57 -435.93) rotate(-2.24)"/><ellipse cx="283.1" cy="708.86" class="cls-36" rx="1.14" ry="1.71" transform="matrix(0.27, -0.96, 0.96, 0.27, -475.66, 344.98)"/><ellipse cx="283.16" cy="708.66" class="cls-34" rx="1.14" ry="1.71" transform="translate(-475.42 344.89) rotate(-74.55)"/><ellipse cx="285.55" cy="709.12" class="cls-36" rx="1.71" ry="1.14" transform="translate(-19.57 -439.83) rotate(-1.58)"/><ellipse cx="285.55" cy="708.92" class="cls-34" rx="1.71" ry="1.14" transform="translate(-19.56 -439.83) rotate(-1.58)"/><ellipse cx="284.7" cy="707.41" class="cls-36" rx="1.71" ry="1.14" transform="translate(-27.56 -436.3) rotate(-2.24)"/><ellipse cx="284.69" cy="707.2" class="cls-34" rx="1.71" ry="1.14" transform="translate(-27.55 -436.3) rotate(-2.24)"/><ellipse cx="286.97" cy="707.92" class="cls-36" rx="1.71" ry="1.14" transform="translate(-27.58 -436.21) rotate(-2.24)"/><ellipse cx="286.96" cy="707.71" class="cls-34" rx="1.71" ry="1.14" transform="translate(-27.57 -436.21) rotate(-2.24)"/><ellipse cx="288.42" cy="709.48" class="cls-36" rx="1.71" ry="1.14" transform="translate(-27.64 -436.15) rotate(-2.24)"/><ellipse cx="288.41" cy="709.28" class="cls-34" rx="1.71" ry="1.14" transform="matrix(1, -0.04, 0.04, 1, -27.63, -436.15)"/><ellipse cx="269.2" cy="711.23" class="cls-36" rx="1.71" ry="1.14" transform="translate(-168.22 -358.9) rotate(-14.37)"/><ellipse cx="269.15" cy="711.03" class="cls-34" rx="1.71" ry="1.14" transform="translate(-168.17 -358.92) rotate(-14.37)"/><ellipse cx="277.01" cy="710.15" class="cls-36" rx="1.14" ry="1.71" transform="translate(-481.37 340.05) rotate(-74.55)"/><ellipse cx="277.06" cy="709.95" class="cls-34" rx="1.14" ry="1.71" transform="translate(-481.14 339.96) rotate(-74.55)"/><ellipse cx="279.45" cy="710.41" class="cls-36" rx="1.71" ry="1.14" transform="translate(-19.6 -439.99) rotate(-1.58)"/><ellipse cx="279.45" cy="710.21" class="cls-34" rx="1.71" ry="1.14" transform="translate(-19.6 -439.99) rotate(-1.58)"/><ellipse cx="278.6" cy="708.7" class="cls-36" rx="1.71" ry="1.14" transform="translate(-27.62 -436.54) rotate(-2.24)"/><ellipse cx="278.6" cy="708.49" class="cls-34" rx="1.71" ry="1.14" transform="translate(-27.61 -436.54) rotate(-2.24)"/><ellipse cx="280.87" cy="709.21" class="cls-36" rx="1.71" ry="1.14" transform="translate(-27.63 -436.45) rotate(-2.24)"/><ellipse cx="280.86" cy="709" class="cls-34" rx="1.71" ry="1.14" transform="translate(-27.63 -436.45) rotate(-2.24)"/><ellipse cx="279.1" cy="711.57" class="cls-36" rx="1.71" ry="1.14" transform="translate(-27.73 -436.51) rotate(-2.24)"/><ellipse cx="279.09" cy="711.36" class="cls-34" rx="1.71" ry="1.14" transform="translate(-27.72 -436.51) rotate(-2.24)"/><ellipse cx="271.36" cy="711.54" class="cls-36" rx="1.14" ry="1.71" transform="translate(-486.86 335.63) rotate(-74.55)"/><ellipse cx="271.42" cy="711.34" class="cls-34" rx="1.14" ry="1.71" transform="translate(-486.62 335.54) rotate(-74.55)"/><ellipse cx="273.81" cy="711.81" class="cls-36" rx="1.71" ry="1.14" transform="translate(-19.64 -440.15) rotate(-1.58)"/><ellipse cx="273.8" cy="711.6" class="cls-34" rx="1.71" ry="1.14" transform="translate(-19.64 -440.15) rotate(-1.58)"/><ellipse cx="272.96" cy="710.09" class="cls-36" rx="1.71" ry="1.14" transform="translate(-27.67 -436.75) rotate(-2.24)"/><ellipse cx="272.95" cy="709.88" class="cls-34" rx="1.71" ry="1.14" transform="translate(-27.67 -436.76) rotate(-2.24)"/><ellipse cx="275.22" cy="710.6" class="cls-36" rx="1.71" ry="1.14" transform="translate(-27.69 -436.67) rotate(-2.24)"/><ellipse cx="275.22" cy="710.39" class="cls-34" rx="1.71" ry="1.14" transform="translate(-27.68 -436.67) rotate(-2.24)"/><ellipse cx="273.45" cy="712.96" class="cls-36" rx="1.71" ry="1.14" transform="translate(-27.79 -436.73) rotate(-2.24)"/><ellipse cx="273.45" cy="712.76" class="cls-34" rx="1.71" ry="1.14" transform="translate(-27.78 -436.73) rotate(-2.24)"/><ellipse cx="277.5" cy="710.26" class="cls-36" rx="1.71" ry="1.14" transform="translate(-97.09 -401.97) rotate(-8.07)"/><ellipse cx="277.47" cy="710.05" class="cls-34" rx="1.71" ry="1.14" transform="translate(-97.06 -401.98) rotate(-8.07)"/><ellipse cx="283.59" cy="709.16" class="cls-36" rx="1.14" ry="1.71" transform="translate(-480.15 247.6) rotate(-67.18)"/><ellipse cx="283.67" cy="708.97" class="cls-34" rx="1.14" ry="1.71" transform="matrix(0.39, -0.92, 0.92, 0.39, -479.93, 247.56)"/><ellipse cx="281.21" cy="709.3" class="cls-36" rx="1.71" ry="1.14" transform="translate(-478.36 187.77) rotate(-62.84)"/><ellipse cx="281.02" cy="709.21" class="cls-34" rx="1.71" ry="1.14" transform="translate(-478.37 187.55) rotate(-62.84)"/><ellipse cx="277.05" cy="707.83" class="cls-36" rx="1.71" ry="1.14" transform="translate(-468.17 109.58) rotate(-57.22)"/><ellipse cx="277.23" cy="707.94" class="cls-34" rx="1.71" ry="1.14" transform="translate(-468.18 109.77) rotate(-57.22)"/><ellipse cx="266.88" cy="710.52" class="cls-36" rx="1.71" ry="1.14" transform="translate(-168.11 -359.5) rotate(-14.37)"/><ellipse cx="266.83" cy="710.32" class="cls-34" rx="1.71" ry="1.14" transform="translate(-168.06 -359.52) rotate(-14.37)"/><ellipse cx="274.14" cy="708.73" class="cls-36" rx="1.71" ry="1.14" transform="translate(-167.44 -357.75) rotate(-14.37)"/><ellipse cx="274.09" cy="708.53" class="cls-34" rx="1.71" ry="1.14" transform="translate(-167.39 -357.77) rotate(-14.37)"/><ellipse cx="278.48" cy="708.09" class="cls-36" rx="1.71" ry="1.14" transform="translate(-167.15 -356.7) rotate(-14.37)"/><ellipse cx="278.42" cy="707.89" class="cls-34" rx="1.71" ry="1.14" transform="translate(-167.1 -356.72) rotate(-14.37)"/><ellipse cx="264.19" cy="711.61" class="cls-36" rx="1.71" ry="1.14" transform="translate(-312.77 -229.75) rotate(-29.09)"/><ellipse cx="264.09" cy="711.43" class="cls-34" rx="1.71" ry="1.14" transform="translate(-312.69 -229.82) rotate(-29.09)"/><ellipse cx="259.98" cy="713.07" class="cls-36" rx="1.14" ry="1.71" transform="translate(-493.9 353.9) rotate(-76.69)"/><ellipse cx="260.03" cy="712.87" class="cls-34" rx="1.14" ry="1.71" transform="translate(-493.66 353.79) rotate(-76.69)"/><ellipse cx="258.07" cy="712.68" class="cls-36" rx="1.71" ry="1.14" transform="translate(-442.63 -24.57) rotate(-47.66)"/><ellipse cx="257.91" cy="712.54" class="cls-34" rx="1.71" ry="1.14" transform="translate(-442.58 -24.73) rotate(-47.66)"/><ellipse cx="260.94" cy="711.33" class="cls-36" rx="1.71" ry="1.14" transform="translate(-440.7 -22.88) rotate(-47.66)"/><ellipse cx="260.79" cy="711.19" class="cls-34" rx="1.71" ry="1.14" transform="translate(-440.64 -23.04) rotate(-47.66)"/><ellipse cx="262.1" cy="711.06" class="cls-36" rx="1.71" ry="1.14" transform="translate(-204.9 -333.83) rotate(-17.8)"/><ellipse cx="262.04" cy="710.86" class="cls-34" rx="1.71" ry="1.14" transform="translate(-204.84 -333.86) rotate(-17.8)"/><ellipse cx="272.37" cy="709.16" class="cls-36" rx="1.71" ry="1.14" transform="translate(-397.93 -96.49) rotate(-40.9)"/><ellipse cx="272.23" cy="709" class="cls-34" rx="1.71" ry="1.14" transform="translate(-397.86 -96.62) rotate(-40.9)"/><ellipse cx="238.8" cy="742.64" class="cls-36" rx="1.14" ry="1.71" transform="translate(-506.1 62.68) rotate(-54.87)"/><ellipse cx="238.91" cy="742.47" class="cls-34" rx="1.14" ry="1.71" transform="translate(-505.91 62.7) rotate(-54.87)"/><ellipse cx="238.37" cy="752.32" class="cls-36" rx="1.71" ry="1.14" transform="translate(-29.35 -438.08) rotate(-2.24)"/><ellipse cx="238.36" cy="752.11" class="cls-34" rx="1.71" ry="1.14" transform="translate(-29.34 -438.08) rotate(-2.24)"/><ellipse cx="250" cy="728.1" class="cls-36" rx="1.14" ry="1.71" transform="translate(-517.81 337.24) rotate(-75.3)"/><ellipse cx="250.05" cy="727.9" class="cls-34" rx="1.14" ry="1.71" transform="translate(-517.58 337.14) rotate(-75.3)"/><ellipse cx="236.74" cy="751.89" class="cls-34" rx="1.71" ry="1.14" transform="translate(-523.7 95.89) rotate(-57.22)"/><ellipse cx="239.27" cy="754.85" class="cls-36" rx="1.71" ry="1.14" transform="translate(-179.98 -364.96) rotate(-14.37)"/><ellipse cx="239.22" cy="754.64" class="cls-34" rx="1.71" ry="1.14" transform="translate(-179.93 -364.98) rotate(-14.37)"/><ellipse cx="261.12" cy="708.03" class="cls-36" rx="1.14" ry="1.71" transform="matrix(0.58, -0.82, 0.82, 0.58, -468.32, 66.24)"/><ellipse cx="261.24" cy="707.86" class="cls-34" rx="1.14" ry="1.71" transform="translate(-468.13 66.27) rotate(-54.87)"/><ellipse cx="260.07" cy="709.61" class="cls-36" rx="1.71" ry="1.14" transform="translate(-27.67 -437.26) rotate(-2.24)"/><ellipse cx="260.06" cy="709.4" class="cls-34" rx="1.71" ry="1.14" transform="translate(-27.66 -437.26) rotate(-2.24)"/><ellipse cx="262.33" cy="710.12" class="cls-36" rx="1.71" ry="1.14" transform="translate(-27.68 -437.17) rotate(-2.24)"/><ellipse cx="262.32" cy="709.91" class="cls-34" rx="1.71" ry="1.14" transform="translate(-27.68 -437.17) rotate(-2.24)"/><ellipse cx="258.97" cy="711.17" class="cls-36" rx="1.71" ry="1.14" transform="translate(-97.4 -404.57) rotate(-8.07)"/><ellipse cx="258.94" cy="710.96" class="cls-34" rx="1.71" ry="1.14" transform="translate(-97.37 -404.57) rotate(-8.07)"/><ellipse cx="258.52" cy="708.74" class="cls-36" rx="1.71" ry="1.14" transform="translate(-477.43 94.41) rotate(-57.22)"/><ellipse cx="258.69" cy="708.85" class="cls-34" rx="1.71" ry="1.14" transform="translate(-477.45 94.61) rotate(-57.22)"/><ellipse cx="259.94" cy="709" class="cls-36" rx="1.71" ry="1.14" transform="translate(-167.95 -361.27) rotate(-14.37)"/><ellipse cx="259.89" cy="708.8" class="cls-34" rx="1.71" ry="1.14" transform="translate(-167.9 -361.29) rotate(-14.37)"/><ellipse cx="263.47" cy="706.03" class="cls-36" rx="1.14" ry="1.71" transform="matrix(0.58, -0.82, 0.82, 0.58, -465.69, 67.31)"/><ellipse cx="263.59" cy="705.86" class="cls-34" rx="1.14" ry="1.71" transform="translate(-465.5 67.34) rotate(-54.87)"/><ellipse cx="262.42" cy="707.61" class="cls-36" rx="1.71" ry="1.14" transform="translate(-27.59 -437.17) rotate(-2.24)"/><ellipse cx="262.41" cy="707.4" class="cls-34" rx="1.71" ry="1.14" transform="translate(-27.58 -437.17) rotate(-2.24)"/><ellipse cx="264.68" cy="708.12" class="cls-36" rx="1.71" ry="1.14" transform="translate(-27.6 -437.08) rotate(-2.24)"/><ellipse cx="264.67" cy="707.91" class="cls-34" rx="1.71" ry="1.14" transform="translate(-27.6 -437.08) rotate(-2.24)"/><ellipse cx="261.31" cy="709.17" class="cls-36" rx="1.71" ry="1.14" transform="translate(-97.1 -404.26) rotate(-8.07)"/><ellipse cx="261.28" cy="708.96" class="cls-34" rx="1.71" ry="1.14" transform="translate(-97.07 -404.26) rotate(-8.07)"/><ellipse cx="260.87" cy="706.74" class="cls-36" rx="1.71" ry="1.14" transform="translate(-474.68 95.47) rotate(-57.22)"/><ellipse cx="261.04" cy="706.85" class="cls-34" rx="1.71" ry="1.14" transform="translate(-474.69 95.67) rotate(-57.22)"/><ellipse cx="262.29" cy="707" class="cls-36" rx="1.71" ry="1.14" transform="translate(-167.38 -360.75) rotate(-14.37)"/><ellipse cx="262.24" cy="706.8" class="cls-34" rx="1.71" ry="1.14" transform="translate(-167.33 -360.77) rotate(-14.37)"/><ellipse cx="236.81" cy="756.77" class="cls-36" rx="1.14" ry="1.71" transform="translate(-518.5 67.06) rotate(-54.87)"/><ellipse cx="236.93" cy="756.6" class="cls-34" rx="1.14" ry="1.71" transform="translate(-518.31 67.08) rotate(-54.87)"/><ellipse cx="246.45" cy="744.57" class="cls-36" rx="1.71" ry="1.14" transform="translate(-29.04 -437.77) rotate(-2.24)"/><ellipse cx="246.44" cy="744.36" class="cls-34" rx="1.71" ry="1.14" transform="translate(-29.04 -437.77) rotate(-2.24)"/><ellipse cx="256.3" cy="735.68" class="cls-36" rx="1.71" ry="1.14" transform="translate(-383.4 -157.08) rotate(-35.98)"/><ellipse cx="256.18" cy="735.51" class="cls-34" rx="1.71" ry="1.14" transform="translate(-383.33 -157.18) rotate(-35.98)"/><ellipse cx="243.34" cy="739.6" class="cls-36" rx="1.14" ry="1.71" transform="translate(-414.17 -125.56) rotate(-39.39)"/><ellipse cx="243.5" cy="739.47" class="cls-34" rx="1.14" ry="1.71" transform="translate(-414.05 -125.49) rotate(-39.39)"/><ellipse cx="248.74" cy="743.28" class="cls-34" rx="1.71" ry="1.14" transform="translate(-510.95 102.03) rotate(-57.22)"/><ellipse cx="249.15" cy="730.97" class="cls-36" rx="1.71" ry="1.14" transform="translate(-173.74 -363.26) rotate(-14.37)"/><ellipse cx="249.1" cy="730.77" class="cls-34" rx="1.71" ry="1.14" transform="translate(-173.7 -363.28) rotate(-14.37)"/><ellipse cx="235.35" cy="758.04" class="cls-36" rx="1.14" ry="1.71" transform="matrix(0.58, -0.82, 0.82, 0.58, -520.16, 66.4)"/><ellipse cx="235.47" cy="757.87" class="cls-34" rx="1.14" ry="1.71" transform="translate(-519.97 66.42) rotate(-54.87)"/><ellipse cx="237.62" cy="758.57" class="cls-36" rx="1.14" ry="1.71" transform="translate(-456.3 -77.36) rotate(-43.4)"/><ellipse cx="237.77" cy="758.43" class="cls-34" rx="1.14" ry="1.71" transform="translate(-456.16 -77.3) rotate(-43.4)"/><ellipse cx="254.71" cy="712.33" class="cls-36" rx="1.71" ry="1.14" transform="translate(-446.21 -20.53) rotate(-48.2)"/><ellipse cx="254.56" cy="712.2" class="cls-34" rx="1.71" ry="1.14" transform="translate(-446.15 -20.69) rotate(-48.2)"/><ellipse cx="256.62" cy="711.72" class="cls-36" rx="1.71" ry="1.14" transform="translate(-445.11 -19.31) rotate(-48.2)"/><ellipse cx="256.46" cy="711.58" class="cls-34" rx="1.71" ry="1.14" transform="translate(-445.06 -19.47) rotate(-48.2)"/><ellipse cx="255.06" cy="714.21" class="cls-36" rx="1.71" ry="1.14" transform="translate(-472.89 53.2) rotate(-54.03)"/><ellipse cx="254.9" cy="714.09" class="cls-34" rx="1.71" ry="1.14" transform="translate(-472.86 53.01) rotate(-54.03)"/><ellipse cx="254.19" cy="712" class="cls-36" rx="1.71" ry="1.14" transform="translate(-490.4 132.47) rotate(-60.33)"/><ellipse cx="254.01" cy="711.9" class="cls-34" rx="1.71" ry="1.14" transform="translate(-490.4 132.26) rotate(-60.33)"/><ellipse cx="235.99" cy="754.11" class="cls-36" rx="1.71" ry="1.14" transform="translate(-103.66 -407.37) rotate(-8.07)"/><ellipse cx="235.96" cy="753.9" class="cls-34" rx="1.71" ry="1.14" transform="translate(-103.63 -407.37) rotate(-8.07)"/><ellipse cx="236.57" cy="751.78" class="cls-36" rx="1.71" ry="1.14" transform="translate(-523.69 95.69) rotate(-57.22)"/><ellipse cx="267.03" cy="707.53" class="cls-36" rx="1.14" ry="1.71" transform="matrix(0.58, -0.82, 0.82, 0.58, -465.4, 70.87)"/><ellipse cx="267.15" cy="707.36" class="cls-34" rx="1.14" ry="1.71" transform="translate(-465.21 70.89) rotate(-54.87)"/><ellipse cx="265.98" cy="709.11" class="cls-36" rx="1.71" ry="1.14" transform="translate(-27.64 -437.03) rotate(-2.24)"/><ellipse cx="265.98" cy="708.9" class="cls-34" rx="1.71" ry="1.14" transform="translate(-27.63 -437.03) rotate(-2.24)"/><ellipse cx="268.25" cy="709.62" class="cls-36" rx="1.71" ry="1.14" transform="translate(-27.66 -436.94) rotate(-2.24)"/><ellipse cx="268.24" cy="709.41" class="cls-34" rx="1.71" ry="1.14" transform="translate(-27.65 -436.94) rotate(-2.24)"/><ellipse cx="264.88" cy="710.67" class="cls-36" rx="1.71" ry="1.14" transform="translate(-97.27 -403.74) rotate(-8.07)"/><ellipse cx="264.85" cy="710.46" class="cls-34" rx="1.71" ry="1.14" transform="translate(-97.24 -403.75) rotate(-8.07)"/><ellipse cx="264.43" cy="708.24" class="cls-36" rx="1.71" ry="1.14" transform="translate(-474.3 99.16) rotate(-57.22)"/><ellipse cx="264.61" cy="708.35" class="cls-34" rx="1.71" ry="1.14" transform="translate(-474.32 99.35) rotate(-57.22)"/><ellipse cx="265.86" cy="708.5" class="cls-36" rx="1.71" ry="1.14" transform="translate(-167.64 -359.82) rotate(-14.37)"/><ellipse cx="265.8" cy="708.3" class="cls-34" rx="1.71" ry="1.14" transform="translate(-167.6 -359.83) rotate(-14.37)"/><ellipse cx="248.57" cy="743.16" class="cls-36" rx="1.71" ry="1.14" transform="translate(-510.94 101.83) rotate(-57.22)"/></g></svg>