<svg xmlns="http://www.w3.org/2000/svg" xmlns:xlink="http://www.w3.org/1999/xlink" viewBox="0 0 758.07 339.52"><defs><style>.cls-1,.cls-10,.cls-12,.cls-24,.cls-38,.cls-39,.cls-4,.cls-5,.cls-6,.cls-7,.cls-8,.cls-9{fill:none;}.cls-2{clip-path:url(#clip-path);}.cls-3{fill:#121212;}.cls-4{stroke:#766f65;}.cls-10,.cls-11,.cls-12,.cls-13,.cls-14,.cls-24,.cls-4,.cls-5,.cls-6,.cls-7,.cls-8,.cls-9{stroke-miterlimit:10;}.cls-4,.cls-5{stroke-width:1.61px;}.cls-5,.cls-8{stroke:#9f9787;}.cls-6{stroke:#c9c1b1;}.cls-6,.cls-8,.cls-9{stroke-width:0.81px;}.cls-10,.cls-12,.cls-13,.cls-14,.cls-24,.cls-7,.cls-9{stroke:#412312;}.cls-7{stroke-width:4.84px;}.cls-10,.cls-11{stroke-width:3.22px;}.cls-11,.cls-14,.cls-22{fill:#603a17;}.cls-11{stroke:#603a17;}.cls-12,.cls-13{stroke-width:2.42px;}.cls-13,.cls-15{fill:#c59c6d;}.cls-14{stroke-width:0.5px;}.cls-16{fill:#412312;}.cls-17{fill:#fff;}.cls-18{fill:#2d1e10;}.cls-19{fill:#a77d52;}.cls-20{fill:#754d25;}.cls-21{fill:#8d633a;}.cls-23{fill:#fbb03b;}.cls-24{stroke-width:0.12px;}.cls-25{fill:#f79421;}.cls-26{fill:#b8ae9c;}.cls-27{fill:#c1b6a5;}.cls-28{fill:#5a534a;}.cls-29{fill:#504a40;}.cls-30{fill:#898277;}.cls-31{fill:#635c52;}.cls-32{fill:#c6bdb1;}.cls-33{fill:#a19690;}.cls-34{fill:#988e84;}.cls-35{fill:#ab9f91;}.cls-36{fill:#817b71;}.cls-37{fill:#706966;}.cls-38{stroke:#c6bdb1;}.cls-38,.cls-39{stroke-linecap:round;stroke-linejoin:round;stroke-width:0;}.cls-39{stroke:#a19690;}.cls-40{fill:#484139;}</style><clipPath id="clip-path" transform="translate(24.09 -452.95)"><rect class="cls-1" width="612" height="791.99"/></clipPath></defs><title>Sea_Bottom_Clip</title><g id="Layer_5" data-name="Layer 5"><g class="cls-2"><rect class="cls-3" x="432.59" y="225.85" width="96.12" height="89.31"/><rect class="cls-3" x="594.66" y="216.58" width="52.2" height="89.31"/><line class="cls-1" x1="599.31" y1="290.26" x2="562.74" y2="255.77"/><path class="cls-4" d="M450.87,477.14S565.12,613.06,703.43,655.8" transform="translate(24.09 -452.95)"/><path class="cls-5" d="M218.14,588.29c168.33,9.25,234.58-130,234.58-130" transform="translate(24.09 -452.95)"/><path class="cls-6" d="M219.75,588.45C274.93,585.44,435,461,435,461s-75.87,27-106.55,55.12c0,0-6.2,5.46-17.65,6.57,0,0-24.66,10.68-34.34,19.86,0,0,.89,7.42-23.6,9.47,0,0-45.34,16.39-46.7,30.23" transform="translate(24.09 -452.95)"/><line class="cls-7" x1="219.68" y1="125.84" x2="353.98" y2="192.48"/><path class="cls-6" d="M243.05,555.94c18.14-5,40,7.69,40,7.69" transform="translate(24.09 -452.95)"/><path class="cls-8" d="M390.7,533.1s-39.44,56.12-71.21,62.09c-8.71,1.64-33.22-12.35-33.22-12.35" transform="translate(24.09 -452.95)"/><path class="cls-8" d="M317.46,595.34c-.93,9.39-19.38,32.38-19.38,32.38" transform="translate(24.09 -452.95)"/><path class="cls-9" d="M335.77,606.73" transform="translate(24.09 -452.95)"/><path class="cls-8" d="M460.19,522s-7.67,36.84-16.56,5.35" transform="translate(24.09 -452.95)"/><path class="cls-8" d="M508.68,635.25c-20.12,13.45-80.06,18.25-80.06,18.25" transform="translate(24.09 -452.95)"/><path class="cls-8" d="M507.2,602.12s140.38,49.41,191.3,54.41" transform="translate(24.09 -452.95)"/><path class="cls-8" d="M526.52,623.5C580,647.78,703.32,657,703.32,657" transform="translate(24.09 -452.95)"/><polyline class="cls-10" points="632.24 207.28 630.46 201.92 624.7 185.48"/><path class="cls-8" d="M480.93,581.17s-5.09,7.87-47.67,16.91" transform="translate(24.09 -452.95)"/><line class="cls-10" x1="663.75" y1="213.19" x2="665.8" y2="192.33"/><line class="cls-11" x1="705.42" y1="199.26" x2="702.26" y2="221.02"/><line class="cls-11" x1="718.82" y1="203.01" x2="716.21" y2="219.15"/><line class="cls-12" x1="459.84" y1="129.32" x2="439.69" y2="132.47"/><line class="cls-12" x1="446.38" y1="64.3" x2="468.83" y2="58.41"/><line class="cls-10" x1="459.11" y1="8.06" x2="569.23" y2="223.34"/><path class="cls-6" d="M443.83,528.06c13.54,46.3,33.39-18.78,33.39-18.78" transform="translate(24.09 -452.95)"/><line class="cls-13" x1="506.48" y1="51.58" x2="481.83" y2="71.02"/><path class="cls-6" d="M533.41,618.45c-20.73,13.21-106.26,34.91-106.26,34.91" transform="translate(24.09 -452.95)"/><line class="cls-12" x1="557.5" y1="165.5" x2="532.64" y2="183.71"/><path class="cls-4" d="M507.48,566.91l-1.47-1s-34.1,76.86-78.86,87.45c0,0,34.53-19.75,54-72" transform="translate(24.09 -452.95)"/><path class="cls-10" d="M423.54,657.05c4.35-44.24,27.33-179.91,27.33-179.91l3.23-24" transform="translate(24.09 -452.95)"/><path class="cls-5" d="M453,455.48c-75.8,88.11,233.59,198.66,233.59,198.66" transform="translate(24.09 -452.95)"/><polyline class="cls-10" points="607.86 203.24 612.02 183.41 645.6 189.04 650.84 189.91 757.8 207.85"/><path class="cls-6" d="M433.78,592.73s50.56.62,72.14-26.92" transform="translate(24.09 -452.95)"/><line class="cls-12" x1="502.43" y1="129.87" x2="531.84" y2="111.16"/><path class="cls-14" d="M350.19,736.09l57,8,9.62-5.77,8.07-7.17.19-.32-100-15.72A201.87,201.87,0,0,0,350.19,736.09Z" transform="translate(24.09 -452.95)"/><path class="cls-14" d="M325.13,715.1,425,731.42l1.29-1.62.2,0,.39-4,1.61.15.43-4.41L477.72,730l3.41.33,1.64,1.78,1.81.18,0,.4-1.66.45-.1,1L480,735.48l.31,2,2.2,1.79,5,1.31,159.86,25.14L487.52,740.64l.78.31,5.8,1.58-.32,3.21L495.3,751l6.07,0-.59,6-.43.19L620.67,774c24.46,2.4,30.6-13.19,30.6-13.19.19-2,1.7-4.65,3.45-7.25L309.86,698.21A178.51,178.51,0,0,0,325.13,715.1Z" transform="translate(24.09 -452.95)"/><path class="cls-14" d="M484.05,712.89l-.32,4.33.55,1.61,2,3.19,2.11,2.21-54.74-5.94-.14-3.17,3.71.36.48-.76,2.81.28,2.85-1.24-.41-3.08,3.7-.5.26-2.67,7.69.06v-.16L298.3,681.91a131.27,131.27,0,0,0,11.29,16.28l345.05,55.35a80.49,80.49,0,0,1,7.28-9c1-1,2-2,3-2.94L484.24,712.15Z" transform="translate(24.09 -452.95)"/><path class="cls-14" d="M705.71,673.84l-136.35-21.5a18.68,18.68,0,0,1-3.9,10.56l127.68,20.63L565.46,662.9c-4.05,5.23-12.31,10.12-29.15,8.47l153.47,24.52L536.31,671.37c-73.38-7.21-246.92-37.62-246.92-37.62a61.34,61.34,0,0,0-1.23,13.87l321.31,54.82,9.93,1,.4-4,23.25,2.28.24-2.41,16.84,1.66-.12,1.2-4.89.33-.59,6-7.62-.75-1,.24,38.27,6.15c5.3-11.36,6.09-19.39,6.09-19.39C686.92,687.62,696.8,678.26,705.71,673.84Z" transform="translate(24.09 -452.95)"/><path class="cls-14" d="M644,709.07l-1.6,3.89-1.34,5.4-4.18,1.34-6.41-.63-1.76,1.46,47.48,7.63A98.34,98.34,0,0,0,684.23,714L646,707.46Z" transform="translate(24.09 -452.95)"/><path class="cls-14" d="M455.14,702.26l5.29.82.84-1.43,4,.39,2.41-.77,2.17-2.62,1.26-2.46,3.61-.63,3-.83L291,663.49,477.78,694.7l3.19-.83-.69,1.28,110.58,18.53.37-3.72-3.09-1.52.27-2.8,4-1-1.83-4,18.94,1.86L288.16,647.62c.35,12.3,4,23.78,10.11,34.59l156.36,25.2Z" transform="translate(24.09 -452.95)"/><path class="cls-14" d="M627,721.16l-6.13.62-.16,1.6,2.85,3.92,2.81.28,1.25,3.8-3.48,2.46-5.62-.55-4.42-4.49-10.42-1-15.16-2.3-4.41-.43.51-5.21,3.12-2.94,3.14-3.06v-.16L480.28,695.15l.23,1.3-3.59,5.12,1.59,2,2.16,1.22,3.84,6.45-.26.93,180.66,29.42a109,109,0,0,0,11.25-13.71l-47.74-8Z" transform="translate(24.09 -452.95)"/><polygon class="cls-1" points="617.11 251.12 613.71 252.81 613.43 255.61 616.52 257.13 616.15 260.85 652.81 266.98 654.62 264.92 661.04 265.55 665.16 264.81 666.44 260.01 668.04 256.12 670.09 254.43 633.68 248.29 614.74 246.43 617.11 251.12"/><polyline class="cls-1" points="670.04 254.43 671.12 253.59 679.94 254.45 680.42 249.64 685.31 249.31 685.54 246.91 668.7 245.25 668.47 247.66 645.21 245.37 644.81 249.38 633.59 248.28"/><polygon class="cls-1" points="501.87 241.75 504.97 242.26 505.06 240.92 501.87 241.75"/><polygon class="cls-1" points="498.82 242.53 495.22 243.1 493.98 245.4 491.84 247.72 489.49 247.89 485.48 247.5 485.18 249.59 480.43 249.43 479.92 254.58 508.35 259.21 508.62 258.27 504.79 251.83 502.68 250.61 501.16 248.63 504.9 243.54 504.97 242.26 501.87 241.75 498.82 242.53"/><polygon class="cls-1" points="479.91 254.74 471.63 254.54 470.77 257.08 467.09 257.44 467.53 260.21 464.73 260.85 461.93 260.57 461.45 261.33 457.74 260.97 457.82 264.74 512.5 271.29 510.39 269.07 508.37 265.88 507.81 264.27 508.14 259.94 508.35 259.21 479.92 254.58 479.91 254.74"/><polyline class="cls-1" points="511.63 287.69 506.76 286.38 504.71 284.61 504.7 282.59 508.07 281.3 508.17 280.3 509.83 279.85 509.99 278.25 506.98 277.95 505.33 276.17 501.93 275.84 454.24 268.72 453.93 271.93 452.32 271.77 451.93 275.78 450.53 275.65 449.18 277.87"/><path class="cls-7" d="M501,757.2,621,774s19.88,3.09,30.45-13.21a219.8,219.8,0,0,1,19.87-26.43s17-19.47,19-39.79,15.4-20.75,15.4-20.75" transform="translate(24.09 -452.95)"/><path class="cls-7" d="M289.46,629.58s-17.24,50.85,60.73,106.51l62.64,8.54" transform="translate(24.09 -452.95)"/><path class="cls-7" d="M289.39,633.75l246.92,37.62s30,5.64,33.05-19l134.75,21.34" transform="translate(24.09 -452.95)"/><path class="cls-15" d="M434.41,472.22l.72,2.76-5.07,4.08a56.17,56.17,0,0,0-3.39,7.31l9.68,5.36L424,496.12a51,51,0,0,0,.57,19.73s7.05-11.48,16.88-5.36l12.89-57.33A78.43,78.43,0,0,0,434.41,472.22Z" transform="translate(24.09 -452.95)"/><path class="cls-15" d="M444.65,521.87s-17,6.66-24.86,35.74l9,15.85a38.63,38.63,0,0,0-12.35,3.64q-.3,3.52-.44,7.35s.28-6.25,17.69-3.53C425.07,567.81,444.65,521.87,444.65,521.87Z" transform="translate(24.09 -452.95)"/><path class="cls-16" d="M289.48,659.15,294.32,642l24.86-1.73S274,617.9,289.48,659.15Z" transform="translate(24.09 -452.95)"/><circle class="cls-17" cx="463.3" cy="284.86" r="0.45"/><circle class="cls-17" cx="465.6" cy="284.88" r="0.45"/><path class="cls-16" d="M564.42,667.48s24.08-10.16,40-7.76l-33.5-5.1Z" transform="translate(24.09 -452.95)"/><polygon class="cls-16" points="341.55 199.67 382.33 207.85 404.73 213.99 432.59 215.2 404.94 217.65 410.21 221 416.14 223.34 406.63 225.85 390.58 221 382.33 221.78 366.52 219.14 358.82 217.85 353.98 212.76 352.47 206 341.55 199.67"/><polygon class="cls-16" points="402.49 260.17 406.63 250 415.26 249.35 416.75 244.47 427.62 246.13 427.37 255.73 422.07 256.77 422.07 268.36 414.26 263.52 410.6 258.86 402.49 260.17"/><polygon class="cls-16" points="488.74 207.85 510.35 225.85 527.47 223.34 540.79 227.7 523.24 212.76 488.74 207.85"/><path class="cls-16" d="M291,663.49l18.84,20.59,5.74,21S291,679.36,291,663.49Z" transform="translate(24.09 -452.95)"/><path class="cls-15" d="M418.4,602.76a70.93,70.93,0,0,0,.81,19.7s-3.23-2.75-6.13-9.62c-.3.77-.57,1.55-.83,2.34a26.08,26.08,0,0,0,2.61,7.28A15.57,15.57,0,0,1,411,620.4c-1.79,10.55,1.54,21.86,16.17,31.13,0,0-4.87-47.24,6.22-62.55C437.6,583.1,426.58,590.43,418.4,602.76Z" transform="translate(24.09 -452.95)"/><path class="cls-18" d="M396.67,645.42" transform="translate(24.09 -452.95)"/><path class="cls-18" d="M357,660.55" transform="translate(24.09 -452.95)"/><rect class="cls-19" x="253.24" y="713.98" width="48.59" height="16.03" transform="translate(-140.76 -365.46) rotate(-13.86)"/><polygon class="cls-20" points="282.05 279.27 279.51 268.99 321.46 258.82 324.01 269.14 282.05 279.27"/><polygon class="cls-20" points="276 267.11 281.7 257.61 314.8 249.35 323.3 255.44 276 267.11"/><path class="cls-19" d="M254.08,694.8c11-3.16,31.24-7.7,31.24-7.7,4.7.11,9.65,4,9.65,4L247.68,703S251.58,695.52,254.08,694.8Z" transform="translate(24.09 -452.95)"/><polygon class="cls-21" points="271.92 249.83 319.06 238.2 314.8 249.35 281.7 257.61 271.92 249.83"/><polygon class="cls-22" points="312.96 248.09 315.5 240.98 276.22 250.67 282.44 255.26 312.96 248.09"/><polygon class="cls-16" points="314.04 251.38 283.6 258.88 280.33 264.39 318.96 254.86 314.04 251.38"/><path class="cls-20" d="M255.25,694.52c-1.83.48-3.08,7.19-3.08,7.19l38.14-9.41s-4.45-5.29-6.41-4.85C277.1,689,264.1,692.18,255.25,694.52Z" transform="translate(24.09 -452.95)"/><polygon class="cls-16" points="282.51 255.33 282.47 249.13 309.69 242.41 312.96 248.09 282.51 255.33"/><path class="cls-16" d="M291.54,699.45" transform="translate(24.09 -452.95)"/><polygon class="cls-19" points="274.12 247.12 316.26 236.73 316.76 238.75 274.62 249.17 274.12 247.12"/><rect class="cls-23" x="272.86" y="713.56" width="7.15" height="3.82" transform="translate(-139.23 -365.91) rotate(-13.86)"/><ellipse class="cls-16" cx="276.43" cy="715" rx="0.47" ry="0.48" transform="translate(-139.12 -365.93) rotate(-13.86)"/><polyline class="cls-16" points="300.52 261.99 300.16 263.69 301.5 263.36"/><line class="cls-24" x1="280.07" y1="271.25" x2="321.98" y2="260.91"/><line class="cls-24" x1="280.63" y1="273.53" x2="322.54" y2="263.19"/><line class="cls-24" x1="281.19" y1="275.8" x2="323.1" y2="265.46"/><line class="cls-24" x1="281.72" y1="277.96" x2="323.63" y2="267.62"/><line class="cls-24" x1="311.35" y1="236.35" x2="277.34" y2="244.74"/><line class="cls-24" x1="277.97" y1="243.19" x2="310.06" y2="235.27"/><line class="cls-24" x1="278.78" y1="241.84" x2="308.6" y2="234.49"/><path class="cls-19" d="M275.84,689.32c1.81-.46,2.87,5.84,2.87,5.84l2.82-.7s-1.62-6.08-3-5.77C277.53,688.93,273.93,689.81,275.84,689.32Z" transform="translate(24.09 -452.95)"/><path class="cls-19" d="M264.94,692c-1.82.44.18,6.5.18,6.5l-2.83.69s-1.39-6.13-.06-6.48C263.26,692.45,266.86,691.56,264.94,692Z" transform="translate(24.09 -452.95)"/><rect class="cls-19" x="268.53" y="715.96" width="2.96" height="15.91" transform="translate(-141.44 -367.21) rotate(-13.86)"/><rect class="cls-19" x="284.7" y="711.99" width="2.84" height="15.91" transform="translate(-140.02 -363.46) rotate(-13.86)"/><ellipse class="cls-25" cx="270.31" cy="709.68" rx="1.71" ry="1.14" transform="translate(-143.6 -363.64) rotate(-14.37)"/><ellipse class="cls-23" cx="270.26" cy="709.48" rx="1.71" ry="1.14" transform="translate(-143.55 -363.66) rotate(-14.37)"/><ellipse class="cls-25" cx="282.21" cy="707.36" rx="1.71" ry="1.14" transform="translate(-419.15 22.63) rotate(-50.53)"/><ellipse class="cls-23" cx="282.05" cy="707.23" rx="1.71" ry="1.14" transform="translate(-419.11 22.45) rotate(-50.53)"/><ellipse class="cls-25" cx="288.76" cy="705.32" rx="1.71" ry="1.14" transform="translate(-415.18 26.94) rotate(-50.53)"/><ellipse class="cls-23" cx="288.6" cy="705.19" rx="1.71" ry="1.14" transform="translate(-415.14 26.77) rotate(-50.53)"/><ellipse class="cls-25" cx="286.55" cy="705.86" rx="1.71" ry="1.14" transform="translate(-416.41 25.43) rotate(-50.53)"/><ellipse class="cls-23" cx="286.39" cy="705.73" rx="1.71" ry="1.14" transform="translate(-416.37 25.26) rotate(-50.53)"/><ellipse class="cls-25" cx="294.5" cy="706.04" rx="1.71" ry="1.14" transform="translate(-413.65 31.63) rotate(-50.53)"/><ellipse class="cls-23" cx="294.34" cy="705.91" rx="1.71" ry="1.14" transform="translate(-413.61 31.46) rotate(-50.53)"/><ellipse class="cls-25" cx="273.89" cy="711.14" rx="1.71" ry="1.14" transform="translate(-201.26 -317.56) rotate(-19.86)"/><ellipse class="cls-23" cx="273.82" cy="710.95" rx="1.71" ry="1.14" transform="translate(-201.2 -317.6) rotate(-19.86)"/><ellipse class="cls-25" cx="266.58" cy="711.88" rx="1.71" ry="1.14" transform="translate(-133.01 -372.2) rotate(-13.34)"/><ellipse class="cls-23" cx="266.53" cy="711.68" rx="1.71" ry="1.14" transform="translate(-132.97 -372.22) rotate(-13.34)"/><ellipse class="cls-25" cx="279.65" cy="707.12" rx="1.14" ry="1.71" transform="matrix(0.58, -0.82, 0.82, 0.58, -435.51, 76.04)"/><ellipse class="cls-23" cx="279.77" cy="706.95" rx="1.14" ry="1.71" transform="translate(-435.32 76.07) rotate(-54.87)"/><ellipse class="cls-25" cx="259.16" cy="714.55" rx="1.71" ry="1.14" transform="translate(-394.58 -82.34) rotate(-43.16)"/><ellipse class="cls-23" cx="259.02" cy="714.4" rx="1.71" ry="1.14" transform="translate(-394.51 -82.48) rotate(-43.16)"/><ellipse class="cls-25" cx="257.12" cy="715.92" rx="1.71" ry="1.14" transform="translate(-264.97 -266.5) rotate(-26.13)"/><ellipse class="cls-23" cx="257.03" cy="715.74" rx="1.71" ry="1.14" transform="translate(-264.9 -266.56) rotate(-26.13)"/><ellipse class="cls-25" cx="257.07" cy="714.01" rx="1.71" ry="1.14" transform="translate(-258.01 -272.97) rotate(-25.47)"/><ellipse class="cls-23" cx="256.98" cy="713.82" rx="1.71" ry="1.14" transform="translate(-257.94 -273.02) rotate(-25.47)"/><ellipse class="cls-25" cx="255.31" cy="715.52" rx="1.71" ry="1.14" transform="translate(-258.83 -273.58) rotate(-25.47)"/><ellipse class="cls-23" cx="255.22" cy="715.33" rx="1.71" ry="1.14" transform="translate(-258.76 -273.64) rotate(-25.47)"/><ellipse class="cls-25" cx="254.75" cy="717.58" rx="1.71" ry="1.14" transform="translate(-259.77 -273.62) rotate(-25.47)"/><ellipse class="cls-23" cx="254.66" cy="717.39" rx="1.71" ry="1.14" transform="translate(-259.7 -273.68) rotate(-25.47)"/><ellipse class="cls-25" cx="257.97" cy="716.78" rx="1.71" ry="1.14" transform="translate(-259.12 -272.31) rotate(-25.47)"/><ellipse class="cls-23" cx="257.88" cy="716.59" rx="1.71" ry="1.14" transform="translate(-259.04 -272.37) rotate(-25.47)"/><ellipse class="cls-25" cx="264.81" cy="713.16" rx="1.71" ry="1.14" transform="translate(-392.1 -78.85) rotate(-43.16)"/><ellipse class="cls-23" cx="264.67" cy="713.01" rx="1.71" ry="1.14" transform="translate(-392.03 -78.99) rotate(-43.16)"/><ellipse class="cls-25" cx="262.76" cy="714.53" rx="1.71" ry="1.14" transform="translate(-263.78 -264.16) rotate(-26.13)"/><ellipse class="cls-23" cx="262.67" cy="714.34" rx="1.71" ry="1.14" transform="translate(-263.71 -264.22) rotate(-26.13)"/><ellipse class="cls-25" cx="262.72" cy="712.62" rx="1.71" ry="1.14" transform="translate(-256.86 -270.68) rotate(-25.47)"/><ellipse class="cls-23" cx="262.63" cy="712.43" rx="1.71" ry="1.14" transform="translate(-256.79 -270.73) rotate(-25.47)"/><ellipse class="cls-25" cx="260.95" cy="714.12" rx="1.71" ry="1.14" transform="translate(-257.68 -271.29) rotate(-25.47)"/><ellipse class="cls-23" cx="260.86" cy="713.93" rx="1.71" ry="1.14" transform="translate(-257.61 -271.35) rotate(-25.47)"/><ellipse class="cls-25" cx="263.62" cy="715.39" rx="1.71" ry="1.14" transform="translate(-257.97 -270.02) rotate(-25.47)"/><ellipse class="cls-23" cx="263.53" cy="715.2" rx="1.71" ry="1.14" transform="translate(-257.9 -270.08) rotate(-25.47)"/><ellipse class="cls-25" cx="258.77" cy="714.88" rx="1.71" ry="1.14" transform="translate(-201.17 -324.35) rotate(-19.64)"/><ellipse class="cls-23" cx="258.7" cy="714.68" rx="1.71" ry="1.14" transform="translate(-201.1 -324.39) rotate(-19.64)"/><ellipse class="cls-25" cx="278.22" cy="708.79" rx="1.71" ry="1.14" transform="translate(-131.98 -369.6) rotate(-13.34)"/><ellipse class="cls-23" cx="278.17" cy="708.59" rx="1.71" ry="1.14" transform="translate(-131.94 -369.62) rotate(-13.34)"/><ellipse class="cls-25" cx="283.94" cy="706.28" rx="1.14" ry="1.71" transform="translate(-433 79.19) rotate(-54.87)"/><ellipse class="cls-23" cx="284.06" cy="706.11" rx="1.14" ry="1.71" transform="translate(-432.81 79.21) rotate(-54.87)"/><ellipse class="cls-25" cx="270.81" cy="711.47" rx="1.71" ry="1.14" transform="translate(-389.32 -75.21) rotate(-43.16)"/><ellipse class="cls-23" cx="270.66" cy="711.31" rx="1.71" ry="1.14" transform="matrix(0.73, -0.68, 0.68, 0.73, -389.25, -75.35)"/><ellipse class="cls-25" cx="268.76" cy="712.84" rx="1.71" ry="1.14" transform="translate(-262.42 -261.69) rotate(-26.13)"/><ellipse class="cls-23" cx="268.67" cy="712.65" rx="1.71" ry="1.14" transform="translate(-262.35 -261.75) rotate(-26.13)"/><ellipse class="cls-25" cx="268.72" cy="710.92" rx="1.71" ry="1.14" transform="translate(-255.55 -268.26) rotate(-25.47)"/><ellipse class="cls-23" cx="268.63" cy="710.74" rx="1.71" ry="1.14" transform="translate(-255.48 -268.32) rotate(-25.47)"/><ellipse class="cls-25" cx="266.95" cy="712.43" rx="1.71" ry="1.14" transform="translate(-256.37 -268.87) rotate(-25.47)"/><ellipse class="cls-23" cx="266.86" cy="712.24" rx="1.71" ry="1.14" transform="translate(-256.3 -268.93) rotate(-25.47)"/><ellipse class="cls-25" cx="266.39" cy="714.49" rx="1.71" ry="1.14" transform="translate(-257.31 -268.91) rotate(-25.47)"/><ellipse class="cls-23" cx="266.3" cy="714.3" rx="1.71" ry="1.14" transform="translate(-257.24 -268.97) rotate(-25.47)"/><ellipse class="cls-25" cx="276.45" cy="710.07" rx="1.71" ry="1.14" transform="translate(-386.84 -71.72) rotate(-43.16)"/><ellipse class="cls-23" cx="276.31" cy="709.92" rx="1.71" ry="1.14" transform="translate(-386.77 -71.86) rotate(-43.16)"/><ellipse class="cls-25" cx="274.41" cy="711.44" rx="1.71" ry="1.14" transform="translate(-261.23 -259.34) rotate(-26.13)"/><ellipse class="cls-23" cx="274.32" cy="711.26" rx="1.71" ry="1.14" transform="translate(-261.16 -259.4) rotate(-26.13)"/><ellipse class="cls-25" cx="274.36" cy="709.53" rx="1.71" ry="1.14" transform="translate(-254.4 -265.97) rotate(-25.47)"/><ellipse class="cls-23" cx="274.27" cy="709.34" rx="1.71" ry="1.14" transform="translate(-254.33 -266.02) rotate(-25.47)"/><ellipse class="cls-25" cx="272.59" cy="711.04" rx="1.71" ry="1.14" transform="translate(-255.22 -266.58) rotate(-25.47)"/><ellipse class="cls-23" cx="272.5" cy="710.85" rx="1.71" ry="1.14" transform="translate(-255.15 -266.64) rotate(-25.47)"/><ellipse class="cls-25" cx="272.03" cy="713.1" rx="1.71" ry="1.14" transform="translate(-256.16 -266.62) rotate(-25.47)"/><ellipse class="cls-23" cx="271.94" cy="712.91" rx="1.71" ry="1.14" transform="translate(-256.09 -266.68) rotate(-25.47)"/><ellipse class="cls-25" cx="275.26" cy="712.3" rx="1.71" ry="1.14" transform="translate(-255.51 -265.31) rotate(-25.47)"/><ellipse class="cls-23" cx="275.17" cy="712.12" rx="1.71" ry="1.14" transform="translate(-255.44 -265.37) rotate(-25.47)"/><ellipse class="cls-25" cx="270.42" cy="711.79" rx="1.71" ry="1.14" transform="translate(-199.45 -320.62) rotate(-19.64)"/><ellipse class="cls-23" cx="270.35" cy="711.59" rx="1.71" ry="1.14" transform="translate(-199.39 -320.66) rotate(-19.64)"/><ellipse class="cls-25" cx="264.51" cy="713.65" rx="1.71" ry="1.14" transform="translate(-430.45 11.26) rotate(-50.53)"/><ellipse class="cls-23" cx="264.35" cy="713.52" rx="1.71" ry="1.14" transform="translate(-430.41 11.09) rotate(-50.53)"/><ellipse class="cls-25" cx="266.69" cy="712.67" rx="1.14" ry="1.71" transform="translate(-445.55 67.8) rotate(-54.87)"/><ellipse class="cls-23" cx="266.81" cy="712.5" rx="1.14" ry="1.71" transform="translate(-445.36 67.82) rotate(-54.87)"/><ellipse class="cls-25" cx="274.12" cy="711.3" rx="1.71" ry="1.14" transform="translate(-70.5 -408.84) rotate(-7.85)"/><ellipse class="cls-23" cx="274.09" cy="711.1" rx="1.71" ry="1.14" transform="translate(-70.47 -408.84) rotate(-7.85)"/><ellipse class="cls-25" cx="280.94" cy="708.55" rx="1.71" ry="1.14" transform="translate(-142.99 -361.04) rotate(-14.37)"/><ellipse class="cls-23" cx="280.89" cy="708.35" rx="1.71" ry="1.14" transform="translate(-142.94 -361.06) rotate(-14.37)"/><ellipse class="cls-25" cx="288.75" cy="707.47" rx="1.14" ry="1.71" transform="translate(-445.98 344.43) rotate(-74.55)"/><ellipse class="cls-23" cx="288.8" cy="707.27" rx="1.14" ry="1.71" transform="translate(-445.74 344.34) rotate(-74.55)"/><ellipse class="cls-25" cx="291.2" cy="707.73" rx="1.71" ry="1.14" transform="translate(4.67 -444.64) rotate(-1.58)"/><ellipse class="cls-23" cx="291.19" cy="707.52" rx="1.71" ry="1.14" transform="translate(4.67 -444.64) rotate(-1.58)"/><ellipse class="cls-25" cx="290.35" cy="706.02" rx="1.71" ry="1.14" transform="translate(-3.31 -441.05) rotate(-2.24)"/><ellipse class="cls-23" cx="290.34" cy="705.81" rx="1.71" ry="1.14" transform="translate(-3.3 -441.05) rotate(-2.24)"/><ellipse class="cls-25" cx="292.61" cy="706.53" rx="1.71" ry="1.14" transform="translate(-3.33 -440.96) rotate(-2.24)"/><ellipse class="cls-23" cx="292.6" cy="706.32" rx="1.71" ry="1.14" transform="matrix(1, -0.04, 0.04, 1, -3.32, -440.96)"/><ellipse class="cls-25" cx="294.07" cy="708.09" rx="1.71" ry="1.14" transform="translate(-3.39 -440.9) rotate(-2.24)"/><ellipse class="cls-23" cx="294.06" cy="707.88" rx="1.71" ry="1.14" transform="translate(-3.38 -440.9) rotate(-2.24)"/><ellipse class="cls-25" cx="283.1" cy="708.86" rx="1.14" ry="1.71" transform="matrix(0.27, -0.96, 0.96, 0.27, -451.46, 340.01)"/><ellipse class="cls-23" cx="283.16" cy="708.66" rx="1.14" ry="1.71" transform="translate(-451.23 339.92) rotate(-74.55)"/><ellipse class="cls-25" cx="285.55" cy="709.12" rx="1.71" ry="1.14" transform="translate(4.63 -444.8) rotate(-1.58)"/><ellipse class="cls-23" cx="285.55" cy="708.92" rx="1.71" ry="1.14" transform="translate(4.63 -444.8) rotate(-1.58)"/><ellipse class="cls-25" cx="284.7" cy="707.41" rx="1.71" ry="1.14" transform="translate(-3.37 -441.27) rotate(-2.24)"/><ellipse class="cls-23" cx="284.69" cy="707.2" rx="1.71" ry="1.14" transform="translate(-3.36 -441.27) rotate(-2.24)"/><ellipse class="cls-25" cx="286.97" cy="707.92" rx="1.71" ry="1.14" transform="translate(-3.38 -441.18) rotate(-2.24)"/><ellipse class="cls-23" cx="286.96" cy="707.71" rx="1.71" ry="1.14" transform="translate(-3.38 -441.18) rotate(-2.24)"/><ellipse class="cls-25" cx="288.42" cy="709.48" rx="1.71" ry="1.14" transform="translate(-3.44 -441.12) rotate(-2.24)"/><ellipse class="cls-23" cx="288.41" cy="709.28" rx="1.71" ry="1.14" transform="matrix(1, -0.04, 0.04, 1, -3.44, -441.12)"/><ellipse class="cls-25" cx="269.2" cy="711.23" rx="1.71" ry="1.14" transform="translate(-144.02 -363.87) rotate(-14.37)"/><ellipse class="cls-23" cx="269.15" cy="711.03" rx="1.71" ry="1.14" transform="translate(-143.97 -363.89) rotate(-14.37)"/><ellipse class="cls-25" cx="277.01" cy="710.15" rx="1.14" ry="1.71" transform="translate(-457.18 335.08) rotate(-74.55)"/><ellipse class="cls-23" cx="277.06" cy="709.95" rx="1.14" ry="1.71" transform="translate(-456.95 334.99) rotate(-74.55)"/><ellipse class="cls-25" cx="279.45" cy="710.41" rx="1.71" ry="1.14" transform="translate(4.59 -444.96) rotate(-1.58)"/><ellipse class="cls-23" cx="279.45" cy="710.21" rx="1.71" ry="1.14" transform="translate(4.59 -444.96) rotate(-1.58)"/><ellipse class="cls-25" cx="278.6" cy="708.7" rx="1.71" ry="1.14" transform="translate(-3.42 -441.51) rotate(-2.24)"/><ellipse class="cls-23" cx="278.6" cy="708.49" rx="1.71" ry="1.14" transform="translate(-3.41 -441.51) rotate(-2.24)"/><ellipse class="cls-25" cx="280.87" cy="709.21" rx="1.71" ry="1.14" transform="translate(-3.44 -441.42) rotate(-2.24)"/><ellipse class="cls-23" cx="280.86" cy="709" rx="1.71" ry="1.14" transform="translate(-3.43 -441.42) rotate(-2.24)"/><ellipse class="cls-25" cx="279.1" cy="711.57" rx="1.71" ry="1.14" transform="translate(-3.53 -441.48) rotate(-2.24)"/><ellipse class="cls-23" cx="279.09" cy="711.36" rx="1.71" ry="1.14" transform="translate(-3.53 -441.49) rotate(-2.24)"/><ellipse class="cls-25" cx="271.36" cy="711.54" rx="1.14" ry="1.71" transform="translate(-462.66 330.66) rotate(-74.55)"/><ellipse class="cls-23" cx="271.42" cy="711.34" rx="1.14" ry="1.71" transform="translate(-462.43 330.57) rotate(-74.55)"/><ellipse class="cls-25" cx="273.81" cy="711.81" rx="1.71" ry="1.14" transform="translate(4.55 -445.12) rotate(-1.58)"/><ellipse class="cls-23" cx="273.8" cy="711.6" rx="1.71" ry="1.14" transform="translate(4.55 -445.12) rotate(-1.58)"/><ellipse class="cls-25" cx="272.96" cy="710.09" rx="1.71" ry="1.14" transform="translate(-3.48 -441.73) rotate(-2.24)"/><ellipse class="cls-23" cx="272.95" cy="709.88" rx="1.71" ry="1.14" transform="translate(-3.47 -441.73) rotate(-2.24)"/><ellipse class="cls-25" cx="275.22" cy="710.6" rx="1.71" ry="1.14" transform="translate(-3.5 -441.64) rotate(-2.24)"/><ellipse class="cls-23" cx="275.22" cy="710.39" rx="1.71" ry="1.14" transform="translate(-3.49 -441.64) rotate(-2.24)"/><ellipse class="cls-25" cx="273.45" cy="712.96" rx="1.71" ry="1.14" transform="translate(-3.59 -441.7) rotate(-2.24)"/><ellipse class="cls-23" cx="273.45" cy="712.76" rx="1.71" ry="1.14" transform="translate(-3.58 -441.7) rotate(-2.24)"/><ellipse class="cls-25" cx="277.5" cy="710.26" rx="1.71" ry="1.14" transform="translate(-72.9 -406.94) rotate(-8.07)"/><ellipse class="cls-23" cx="277.47" cy="710.05" rx="1.71" ry="1.14" transform="translate(-72.87 -406.95) rotate(-8.07)"/><ellipse class="cls-25" cx="283.59" cy="709.16" rx="1.14" ry="1.71" transform="translate(-455.96 242.63) rotate(-67.18)"/><ellipse class="cls-23" cx="283.67" cy="708.97" rx="1.14" ry="1.71" transform="matrix(0.39, -0.92, 0.92, 0.39, -455.73, 242.59)"/><ellipse class="cls-25" cx="281.21" cy="709.3" rx="1.71" ry="1.14" transform="translate(-454.16 182.79) rotate(-62.84)"/><ellipse class="cls-23" cx="281.02" cy="709.21" rx="1.71" ry="1.14" transform="translate(-454.18 182.58) rotate(-62.84)"/><ellipse class="cls-25" cx="277.05" cy="707.83" rx="1.71" ry="1.14" transform="translate(-443.97 104.61) rotate(-57.22)"/><ellipse class="cls-23" cx="277.23" cy="707.94" rx="1.71" ry="1.14" transform="translate(-443.99 104.8) rotate(-57.22)"/><ellipse class="cls-25" cx="266.88" cy="710.52" rx="1.71" ry="1.14" transform="translate(-143.92 -364.47) rotate(-14.37)"/><ellipse class="cls-23" cx="266.83" cy="710.32" rx="1.71" ry="1.14" transform="translate(-143.87 -364.49) rotate(-14.37)"/><ellipse class="cls-25" cx="274.14" cy="708.73" rx="1.71" ry="1.14" transform="translate(-143.25 -362.72) rotate(-14.37)"/><ellipse class="cls-23" cx="274.09" cy="708.53" rx="1.71" ry="1.14" transform="translate(-143.2 -362.74) rotate(-14.37)"/><ellipse class="cls-25" cx="278.48" cy="708.09" rx="1.71" ry="1.14" transform="translate(-142.95 -361.67) rotate(-14.37)"/><ellipse class="cls-23" cx="278.42" cy="707.89" rx="1.71" ry="1.14" transform="translate(-142.9 -361.69) rotate(-14.37)"/><ellipse class="cls-25" cx="264.19" cy="711.61" rx="1.71" ry="1.14" transform="translate(-288.57 -234.72) rotate(-29.09)"/><ellipse class="cls-23" cx="264.09" cy="711.43" rx="1.71" ry="1.14" transform="translate(-288.5 -234.79) rotate(-29.09)"/><ellipse class="cls-25" cx="259.98" cy="713.07" rx="1.14" ry="1.71" transform="translate(-469.7 348.93) rotate(-76.69)"/><ellipse class="cls-23" cx="260.03" cy="712.87" rx="1.14" ry="1.71" transform="translate(-469.47 348.82) rotate(-76.69)"/><ellipse class="cls-25" cx="258.07" cy="712.68" rx="1.71" ry="1.14" transform="translate(-418.44 -29.54) rotate(-47.66)"/><ellipse class="cls-23" cx="257.91" cy="712.54" rx="1.71" ry="1.14" transform="translate(-418.39 -29.7) rotate(-47.66)"/><ellipse class="cls-25" cx="260.94" cy="711.33" rx="1.71" ry="1.14" transform="translate(-416.5 -27.85) rotate(-47.66)"/><ellipse class="cls-23" cx="260.79" cy="711.19" rx="1.71" ry="1.14" transform="translate(-416.45 -28.01) rotate(-47.66)"/><ellipse class="cls-25" cx="262.1" cy="711.06" rx="1.71" ry="1.14" transform="translate(-180.71 -338.8) rotate(-17.8)"/><ellipse class="cls-23" cx="262.04" cy="710.86" rx="1.71" ry="1.14" transform="translate(-180.65 -338.83) rotate(-17.8)"/><ellipse class="cls-25" cx="272.37" cy="709.16" rx="1.71" ry="1.14" transform="translate(-373.73 -101.46) rotate(-40.9)"/><ellipse class="cls-23" cx="272.23" cy="709" rx="1.71" ry="1.14" transform="translate(-373.66 -101.59) rotate(-40.9)"/><ellipse class="cls-25" cx="238.8" cy="742.64" rx="1.14" ry="1.71" transform="matrix(0.58, -0.82, 0.82, 0.58, -481.91, 57.7)"/><ellipse class="cls-23" cx="238.91" cy="742.47" rx="1.14" ry="1.71" transform="translate(-481.72 57.73) rotate(-54.87)"/><ellipse class="cls-25" cx="238.37" cy="752.32" rx="1.71" ry="1.14" transform="translate(-5.16 -443.05) rotate(-2.24)"/><ellipse class="cls-23" cx="238.36" cy="752.11" rx="1.71" ry="1.14" transform="translate(-5.15 -443.05) rotate(-2.24)"/><ellipse class="cls-25" cx="250" cy="728.1" rx="1.14" ry="1.71" transform="translate(-493.62 332.27) rotate(-75.3)"/><ellipse class="cls-23" cx="250.05" cy="727.9" rx="1.14" ry="1.71" transform="translate(-493.38 332.17) rotate(-75.3)"/><ellipse class="cls-25" cx="235.99" cy="754.11" rx="1.71" ry="1.14" transform="translate(-79.47 -412.34) rotate(-8.07)"/><ellipse class="cls-23" cx="235.96" cy="753.9" rx="1.71" ry="1.14" transform="translate(-79.44 -412.34) rotate(-8.07)"/><ellipse class="cls-25" cx="236.57" cy="751.78" rx="1.71" ry="1.14" transform="translate(-499.49 90.72) rotate(-57.22)"/><ellipse class="cls-23" cx="236.74" cy="751.89" rx="1.71" ry="1.14" transform="translate(-499.51 90.92) rotate(-57.22)"/><ellipse class="cls-25" cx="239.27" cy="754.85" rx="1.71" ry="1.14" transform="translate(-155.78 -369.94) rotate(-14.37)"/><ellipse class="cls-23" cx="239.22" cy="754.64" rx="1.71" ry="1.14" transform="translate(-155.74 -369.96) rotate(-14.37)"/><ellipse class="cls-25" cx="267.03" cy="707.53" rx="1.14" ry="1.71" transform="matrix(0.58, -0.82, 0.82, 0.58, -441.21, 65.89)"/><ellipse class="cls-23" cx="267.15" cy="707.36" rx="1.14" ry="1.71" transform="translate(-441.02 65.92) rotate(-54.87)"/><ellipse class="cls-25" cx="265.98" cy="709.11" rx="1.71" ry="1.14" transform="translate(-3.45 -442) rotate(-2.24)"/><ellipse class="cls-23" cx="265.98" cy="708.9" rx="1.71" ry="1.14" transform="translate(-3.44 -442) rotate(-2.24)"/><ellipse class="cls-25" cx="268.25" cy="709.62" rx="1.71" ry="1.14" transform="translate(-3.47 -441.91) rotate(-2.24)"/><ellipse class="cls-23" cx="268.24" cy="709.41" rx="1.71" ry="1.14" transform="translate(-3.46 -441.91) rotate(-2.24)"/><ellipse class="cls-25" cx="264.88" cy="710.67" rx="1.71" ry="1.14" transform="translate(-73.08 -408.71) rotate(-8.07)"/><ellipse class="cls-23" cx="264.85" cy="710.46" rx="1.71" ry="1.14" transform="translate(-73.05 -408.72) rotate(-8.07)"/><ellipse class="cls-25" cx="264.43" cy="708.24" rx="1.71" ry="1.14" transform="translate(-450.11 94.18) rotate(-57.22)"/><ellipse class="cls-23" cx="264.61" cy="708.35" rx="1.71" ry="1.14" transform="translate(-450.12 94.38) rotate(-57.22)"/><ellipse class="cls-25" cx="265.86" cy="708.5" rx="1.71" ry="1.14" transform="translate(-143.45 -364.79) rotate(-14.37)"/><ellipse class="cls-23" cx="265.8" cy="708.3" rx="1.71" ry="1.14" transform="translate(-143.4 -364.81) rotate(-14.37)"/><ellipse class="cls-25" cx="261.12" cy="708.03" rx="1.14" ry="1.71" transform="matrix(0.58, -0.82, 0.82, 0.58, -444.13, 61.27)"/><ellipse class="cls-23" cx="261.24" cy="707.86" rx="1.14" ry="1.71" transform="translate(-443.94 61.29) rotate(-54.87)"/><ellipse class="cls-25" cx="260.07" cy="709.61" rx="1.71" ry="1.14" transform="translate(-3.47 -442.23) rotate(-2.24)"/><ellipse class="cls-23" cx="260.06" cy="709.4" rx="1.71" ry="1.14" transform="translate(-3.46 -442.23) rotate(-2.24)"/><ellipse class="cls-25" cx="262.33" cy="710.12" rx="1.71" ry="1.14" transform="translate(-3.49 -442.14) rotate(-2.24)"/><ellipse class="cls-23" cx="262.32" cy="709.91" rx="1.71" ry="1.14" transform="translate(-3.48 -442.14) rotate(-2.24)"/><ellipse class="cls-25" cx="258.97" cy="711.17" rx="1.71" ry="1.14" transform="translate(-73.21 -409.54) rotate(-8.07)"/><ellipse class="cls-23" cx="258.94" cy="710.96" rx="1.71" ry="1.14" transform="translate(-73.18 -409.54) rotate(-8.07)"/><ellipse class="cls-25" cx="258.52" cy="708.74" rx="1.71" ry="1.14" transform="translate(-453.24 89.44) rotate(-57.22)"/><ellipse class="cls-23" cx="258.69" cy="708.85" rx="1.71" ry="1.14" transform="translate(-453.26 89.64) rotate(-57.22)"/><ellipse class="cls-25" cx="259.94" cy="709" rx="1.71" ry="1.14" transform="translate(-143.76 -366.24) rotate(-14.37)"/><ellipse class="cls-23" cx="259.89" cy="708.8" rx="1.71" ry="1.14" transform="translate(-143.71 -366.26) rotate(-14.37)"/><ellipse class="cls-25" cx="263.47" cy="706.03" rx="1.14" ry="1.71" transform="matrix(0.58, -0.82, 0.82, 0.58, -441.5, 62.34)"/><ellipse class="cls-23" cx="263.59" cy="705.86" rx="1.14" ry="1.71" transform="translate(-441.31 62.37) rotate(-54.87)"/><ellipse class="cls-25" cx="262.42" cy="707.61" rx="1.71" ry="1.14" transform="translate(-3.39 -442.14) rotate(-2.24)"/><ellipse class="cls-23" cx="262.41" cy="707.4" rx="1.71" ry="1.14" transform="translate(-3.38 -442.14) rotate(-2.24)"/><ellipse class="cls-25" cx="264.68" cy="708.12" rx="1.71" ry="1.14" transform="translate(-3.41 -442.05) rotate(-2.24)"/><ellipse class="cls-23" cx="264.67" cy="707.91" rx="1.71" ry="1.14" transform="translate(-3.4 -442.05) rotate(-2.24)"/><ellipse class="cls-25" cx="261.31" cy="709.17" rx="1.71" ry="1.14" transform="translate(-72.9 -409.23) rotate(-8.07)"/><ellipse class="cls-23" cx="261.28" cy="708.96" rx="1.71" ry="1.14" transform="translate(-72.88 -409.23) rotate(-8.07)"/><ellipse class="cls-25" cx="260.87" cy="706.74" rx="1.71" ry="1.14" transform="translate(-450.48 90.5) rotate(-57.22)"/><ellipse class="cls-23" cx="261.04" cy="706.85" rx="1.71" ry="1.14" transform="translate(-450.5 90.7) rotate(-57.22)"/><ellipse class="cls-25" cx="262.29" cy="707" rx="1.71" ry="1.14" transform="translate(-143.19 -365.72) rotate(-14.37)"/><ellipse class="cls-23" cx="262.24" cy="706.8" rx="1.71" ry="1.14" transform="translate(-143.14 -365.74) rotate(-14.37)"/><ellipse class="cls-25" cx="236.81" cy="756.77" rx="1.14" ry="1.71" transform="matrix(0.58, -0.82, 0.82, 0.58, -494.31, 62.08)"/><ellipse class="cls-23" cx="236.93" cy="756.6" rx="1.14" ry="1.71" transform="translate(-494.12 62.11) rotate(-54.87)"/><ellipse class="cls-25" cx="246.45" cy="744.57" rx="1.71" ry="1.14" transform="translate(-4.85 -442.74) rotate(-2.24)"/><ellipse class="cls-23" cx="246.44" cy="744.36" rx="1.71" ry="1.14" transform="translate(-4.84 -442.74) rotate(-2.24)"/><ellipse class="cls-25" cx="256.3" cy="735.68" rx="1.71" ry="1.14" transform="translate(-359.21 -162.05) rotate(-35.98)"/><ellipse class="cls-23" cx="256.18" cy="735.51" rx="1.71" ry="1.14" transform="translate(-359.13 -162.15) rotate(-35.98)"/><ellipse class="cls-25" cx="243.34" cy="739.6" rx="1.14" ry="1.71" transform="translate(-389.98 -130.53) rotate(-39.39)"/><ellipse class="cls-23" cx="243.5" cy="739.47" rx="1.14" ry="1.71" transform="translate(-389.86 -130.46) rotate(-39.39)"/><ellipse class="cls-25" cx="248.57" cy="743.16" rx="1.71" ry="1.14" transform="translate(-486.74 96.86) rotate(-57.22)"/><ellipse class="cls-23" cx="248.74" cy="743.28" rx="1.71" ry="1.14" transform="translate(-486.76 97.06) rotate(-57.22)"/><ellipse class="cls-25" cx="249.15" cy="730.97" rx="1.71" ry="1.14" transform="translate(-149.55 -368.23) rotate(-14.37)"/><ellipse class="cls-23" cx="249.1" cy="730.77" rx="1.71" ry="1.14" transform="translate(-149.5 -368.25) rotate(-14.37)"/><ellipse class="cls-25" cx="235.35" cy="758.04" rx="1.14" ry="1.71" transform="matrix(0.58, -0.82, 0.82, 0.58, -495.97, 61.42)"/><ellipse class="cls-23" cx="235.47" cy="757.87" rx="1.14" ry="1.71" transform="translate(-495.78 61.45) rotate(-54.87)"/><ellipse class="cls-25" cx="237.62" cy="758.57" rx="1.14" ry="1.71" transform="translate(-432.11 -82.33) rotate(-43.4)"/><ellipse class="cls-23" cx="237.77" cy="758.43" rx="1.14" ry="1.71" transform="translate(-431.97 -82.27) rotate(-43.4)"/><ellipse class="cls-25" cx="254.71" cy="712.33" rx="1.71" ry="1.14" transform="translate(-422.01 -25.5) rotate(-48.2)"/><ellipse class="cls-23" cx="254.56" cy="712.2" rx="1.71" ry="1.14" transform="translate(-421.96 -25.66) rotate(-48.2)"/><ellipse class="cls-25" cx="256.62" cy="711.72" rx="1.71" ry="1.14" transform="translate(-420.92 -24.28) rotate(-48.2)"/><ellipse class="cls-23" cx="256.46" cy="711.58" rx="1.71" ry="1.14" transform="translate(-420.87 -24.44) rotate(-48.2)"/><ellipse class="cls-25" cx="255.06" cy="714.21" rx="1.71" ry="1.14" transform="translate(-448.7 48.23) rotate(-54.03)"/><ellipse class="cls-23" cx="254.9" cy="714.09" rx="1.71" ry="1.14" transform="translate(-448.67 48.04) rotate(-54.03)"/><ellipse class="cls-25" cx="254.19" cy="712" rx="1.71" ry="1.14" transform="translate(-466.21 127.5) rotate(-60.33)"/><ellipse class="cls-23" cx="254.01" cy="711.9" rx="1.71" ry="1.14" transform="translate(-466.21 127.29) rotate(-60.33)"/><rect class="cls-26" x="296.09" y="305.18" width="76.62" height="34.35"/><path class="cls-1" d="M334.92,772.92h0l-13.64-11.06-.1-1.2c0,.4.07.8.1,1.2Z" transform="translate(24.09 -452.95)"/><path class="cls-1" d="M367.18,770.09a1.57,1.57,0,0,0-.06.55h0A1.57,1.57,0,0,1,367.18,770.09Z" transform="translate(24.09 -452.95)"/><path class="cls-1" d="M398,786.44a19.14,19.14,0,0,1,5.3-.17c4.5.18,8,2.08,11.13,4.51-3.16-2.43-6.63-4.33-11.13-4.51A19.14,19.14,0,0,0,398,786.44Z" transform="translate(24.09 -452.95)"/><path class="cls-1" d="M370,767.44a4.12,4.12,0,0,0-.39,1.34h0A4.12,4.12,0,0,1,370,767.44Z" transform="translate(24.09 -452.95)"/><path class="cls-1" d="M393.53,789.7a18.48,18.48,0,0,1-3,2.77h0A18.48,18.48,0,0,0,393.53,789.7Z" transform="translate(24.09 -452.95)"/><path class="cls-1" d="M320.48,741.79c.25,4.31,0,8.64.11,13-.15-4.31.14-8.64-.11-13-.43-3.36-.9-6.72-1.3-10.09C319.58,735.07,320.05,738.42,320.48,741.79Z" transform="translate(24.09 -452.95)"/><path class="cls-1" d="M390.77,775.24a1,1,0,0,0-.6-.89h0A1,1,0,0,1,390.77,775.24Z" transform="translate(24.09 -452.95)"/><path class="cls-1" d="M392.05,777.5h0l-.34-.33Z" transform="translate(24.09 -452.95)"/><path class="cls-1" d="M392.64,778.1h0l-.62-.63h0Z" transform="translate(24.09 -452.95)"/><path class="cls-1" d="M371,766.11a5.49,5.49,0,0,0-.57.61A5.49,5.49,0,0,1,371,766.11Z" transform="translate(24.09 -452.95)"/><path class="cls-1" d="M391.17,775.86a.85.85,0,0,0-.37-.26h0A.85.85,0,0,1,391.17,775.86Z" transform="translate(24.09 -452.95)"/><path class="cls-1" d="M390.8,775.6c0-.12,0-.24,0-.36,0,.12,0,.24,0,.36Z" transform="translate(24.09 -452.95)"/><path class="cls-1" d="M491.29,737.88c1.7,2.93,3.47,5.83,5.2,8.74,2.47,4.93,4.15,10.23,6.89,15-2.74-4.8-4.42-10.1-6.89-15C494.76,743.71,493,740.81,491.29,737.88Z" transform="translate(24.09 -452.95)"/><path class="cls-1" d="M368.71,768.93a1.05,1.05,0,0,0-.36.47h0A1.05,1.05,0,0,1,368.71,768.93Z" transform="translate(24.09 -452.95)"/><path class="cls-1" d="M580,768.93a3.59,3.59,0,0,1-.14-.43h0A3.59,3.59,0,0,0,580,768.93Z" transform="translate(24.09 -452.95)"/><path class="cls-1" d="M579.5,768.69a1.53,1.53,0,0,0-.63,1h0A1.53,1.53,0,0,1,579.5,768.69Z" transform="translate(24.09 -452.95)"/><path class="cls-1" d="M577.13,751.3h0l-.82-.32h0Z" transform="translate(24.09 -452.95)"/><path class="cls-1" d="M576.31,751l.82.32h0Z" transform="translate(24.09 -452.95)"/><path class="cls-1" d="M580,767.29l.3-1a14.15,14.15,0,0,0,2.21-4.47,14.15,14.15,0,0,1-2.21,4.47Z" transform="translate(24.09 -452.95)"/><path class="cls-1" d="M580,768.93a5.44,5.44,0,0,0,.65,1.18A5.44,5.44,0,0,1,580,768.93Z" transform="translate(24.09 -452.95)"/><path class="cls-1" d="M580.93,770.48c.18.24.38.48.57.71C581.31,771,581.11,770.72,580.93,770.48Z" transform="translate(24.09 -452.95)"/><path class="cls-1" d="M580.14,767.45l-.16-.16.16.17Z" transform="translate(24.09 -452.95)"/><path class="cls-1" d="M574.06,749.13a1.54,1.54,0,0,1,.31.47A1.54,1.54,0,0,0,574.06,749.13Z" transform="translate(24.09 -452.95)"/><path class="cls-1" d="M590.14,754.58c4.86-1.87,9.37-1.09,13.81.22-4.44-1.31-9-2.09-13.81-.22a19.59,19.59,0,0,0-4.8,2.27A19.59,19.59,0,0,1,590.14,754.58Z" transform="translate(24.09 -452.95)"/><path class="cls-1" d="M585.34,756.85a7.17,7.17,0,0,0-.72.64A7.17,7.17,0,0,1,585.34,756.85Z" transform="translate(24.09 -452.95)"/><path class="cls-1" d="M583.27,759.65c-.23.56-.43,1.13-.62,1.7C582.84,760.78,583,760.21,583.27,759.65Z" transform="translate(24.09 -452.95)"/><path class="cls-1" d="M552.17,750.08a4.83,4.83,0,0,1,.56-1.57A4.83,4.83,0,0,0,552.17,750.08Z" transform="translate(24.09 -452.95)"/><path class="cls-1" d="M-1.7,774.68c-.17-.38-.32-.76-.47-1.14C-2,773.92-1.87,774.3-1.7,774.68Z" transform="translate(24.09 -452.95)"/><path class="cls-1" d="M-.9,776a3.43,3.43,0,0,0,1.19,1h0A3.43,3.43,0,0,1-.9,776Z" transform="translate(24.09 -452.95)"/><path class="cls-1" d="M82.69,711.74c-1.24,4.35-2.28,8.75-3.41,13.13-1.6,4.86-3.93,9.46-5.42,14.36,1.49-4.9,3.82-9.5,5.42-14.36C80.41,720.49,81.45,716.09,82.69,711.74Z" transform="translate(24.09 -452.95)"/><path class="cls-1" d="M26.14,735.85a5.85,5.85,0,0,0,.38.49l1.16.47-1.16-.47A5.85,5.85,0,0,1,26.14,735.85Z" transform="translate(24.09 -452.95)"/><path class="cls-1" d="M74.42,747c-.6-1-1.19-2.11-1.78-3.16l.34-1.15c-.11.38-.23.76-.34,1.15.59,1,1.18,2.11,1.78,3.16Z" transform="translate(24.09 -452.95)"/><path class="cls-1" d="M115.83,755h0Z" transform="translate(24.09 -452.95)"/><path class="cls-1" d="M5.85,792.47h0l0-.08Z" transform="translate(24.09 -452.95)"/><path class="cls-1" d="M116.26,752.1c0-.24,0-.47.08-.7C116.31,751.63,116.29,751.86,116.26,752.1Z" transform="translate(24.09 -452.95)"/><path class="cls-1" d="M414.94,791.19l1.52,1.25Z" transform="translate(24.09 -452.95)"/><path class="cls-1" d="M.22,778.1a.92.92,0,0,1-.11-.29A.92.92,0,0,0,.22,778.1Z" transform="translate(24.09 -452.95)"/><path class="cls-1" d="M1.47,780.85h0a1.16,1.16,0,0,1-.34-.68A1.21,1.21,0,0,0,1.47,780.85Z" transform="translate(24.09 -452.95)"/><path class="cls-1" d="M3.82,785.47c-.29-.75-.6-1.48-1-2.2C3.22,784,3.53,784.72,3.82,785.47Z" transform="translate(24.09 -452.95)"/><path class="cls-1" d="M4.93,788.91c-.18-.65-.37-1.29-.58-1.93C4.56,787.62,4.75,788.26,4.93,788.91Z" transform="translate(24.09 -452.95)"/><path class="cls-1" d="M227.52,779.42l-.73-.32h0Z" transform="translate(24.09 -452.95)"/><path class="cls-1" d="M233.9,780.26h0l-6.38-.84h0Z" transform="translate(24.09 -452.95)"/><path class="cls-1" d="M219.18,778.08a1.36,1.36,0,0,0-1.56.9l-7,3.74h0l7-3.74A1.36,1.36,0,0,1,219.18,778.08Z" transform="translate(24.09 -452.95)"/><path class="cls-1" d="M380.81,732.55v0l-.17,28.53Z" transform="translate(24.09 -452.95)"/><path class="cls-1" d="M391.29,776.07a.19.19,0,0,1,0,.09A.19.19,0,0,0,391.29,776.07Z" transform="translate(24.09 -452.95)"/><path class="cls-1" d="M39,751.37l.33.13h0Z" transform="translate(24.09 -452.95)"/><path class="cls-1" d="M137.12,751.12a.94.94,0,0,0-.68.31h0A.94.94,0,0,1,137.12,751.12Z" transform="translate(24.09 -452.95)"/><path class="cls-1" d="M116.5,749.68c.06-.79.11-1.59.16-2.39C116.61,748.09,116.56,748.89,116.5,749.68Z" transform="translate(24.09 -452.95)"/><path class="cls-1" d="M132.91,751.79a1.78,1.78,0,0,1,.39-.07A1.78,1.78,0,0,0,132.91,751.79Z" transform="translate(24.09 -452.95)"/><path class="cls-1" d="M132.39,752.1a1.51,1.51,0,0,1,.34-.24A1.51,1.51,0,0,0,132.39,752.1Z" transform="translate(24.09 -452.95)"/><path class="cls-1" d="M135,751.87a1.69,1.69,0,0,0-.11.27h0A1.69,1.69,0,0,1,135,751.87Z" transform="translate(24.09 -452.95)"/><path class="cls-1" d="M132.23,752.27a2.54,2.54,0,0,0-.4.68h0A2.54,2.54,0,0,1,132.23,752.27Z" transform="translate(24.09 -452.95)"/><path class="cls-1" d="M102.86,789.74v0Z" transform="translate(24.09 -452.95)"/><path class="cls-1" d="M.56,778.44a1.56,1.56,0,0,0,.43.2H1A1.56,1.56,0,0,1,.56,778.44Z" transform="translate(24.09 -452.95)"/><path class="cls-1" d="M552.17,750.08a4,4,0,0,0,.13,1.82h0A4,4,0,0,1,552.17,750.08Z" transform="translate(24.09 -452.95)"/><path class="cls-1" d="M550.57,753.82a1.6,1.6,0,0,0,.17.78h0A1.6,1.6,0,0,1,550.57,753.82Z" transform="translate(24.09 -452.95)"/><path class="cls-1" d="M551.53,752.4a1,1,0,0,0-.14.56h0A1,1,0,0,1,551.53,752.4Z" transform="translate(24.09 -452.95)"/><path class="cls-1" d="M522.1,769.47l-16.91-4.75-.57-1.05.57,1.06,16.91,4.74Z" transform="translate(24.09 -452.95)"/><path class="cls-1" d="M468.44,791.56l-1.15.49c-.3,0-.63-.11-.92-.1.29,0,.62.08.92.1Z" transform="translate(24.09 -452.95)"/><path class="cls-1" d="M574.83,749.8a.9.9,0,0,0-.38,0h0A.9.9,0,0,1,574.83,749.8Z" transform="translate(24.09 -452.95)"/><path class="cls-1" d="M576.35,751h0l-.44-.17Z" transform="translate(24.09 -452.95)"/><path class="cls-1" d="M574.06,749.13a.89.89,0,0,0-.68-.28h0A.89.89,0,0,1,574.06,749.13Z" transform="translate(24.09 -452.95)"/><path class="cls-27" d="M155.19,764.76a.89.89,0,0,0-.29-.68h0A.89.89,0,0,1,155.19,764.76Z" transform="translate(24.09 -452.95)"/><path class="cls-27" d="M155.49,767.69h0l-.17-.38Z" transform="translate(24.09 -452.95)"/><path class="cls-27" d="M155.82,768.47h0c.13.21.3.42.45.63C156.12,768.89,156,768.68,155.82,768.47Z" transform="translate(24.09 -452.95)"/><path class="cls-27" d="M219.44,750.22c3.38-3.72,2.84-7.32.69-11.29-1.58-2.91-3.78-5.41-5.09-8.53-.87-2.06-5.23-2.94-7.18-1.93-3.83,2-8.21,2.91-11.83,5a36,36,0,0,1-6.42,2.77c.22.36.44.71.65,1.1,4.58,8.51,8.66,17.37,14.67,25,2.6-1.9,5.16-3.87,7.65-5.94A67.1,67.1,0,0,0,219.44,750.22Z" transform="translate(24.09 -452.95)"/><path class="cls-27" d="M155.82,768.47h0l-.35-.82h0C155.59,767.92,155.7,768.2,155.82,768.47Z" transform="translate(24.09 -452.95)"/><path class="cls-27" d="M155.32,766.14a.83.83,0,0,0-.3-.67h0A.83.83,0,0,1,155.32,766.14Z" transform="translate(24.09 -452.95)"/><path class="cls-28" d="M293.13,781.26Z" transform="translate(24.09 -452.95)"/><path class="cls-28" d="M275.12,771.57a5.74,5.74,0,0,0,.53.32h0A5.74,5.74,0,0,1,275.12,771.57Z" transform="translate(24.09 -452.95)"/><path class="cls-26" d="M160,778.82c.91.34,1.8.78,2.7,1.17a16.37,16.37,0,0,1,5,3.39h0a16.37,16.37,0,0,0-5-3.39c-.9-.39-1.79-.83-2.7-1.17Z" transform="translate(24.09 -452.95)"/><path class="cls-26" d="M196,733.47c3.62-2.09,8-3,11.83-5,1.95-1,6.31-.13,7.18,1.93,1.31,3.12,3.51,5.62,5.09,8.53,2.15,4,2.69,7.57-.69,11.29a67.1,67.1,0,0,1-6.86,6.21c-2.49,2.07-5.05,4-7.65,5.94.62.79,1.25,1.56,1.9,2.32a3.67,3.67,0,0,1,.69,1.7c1,5.44,2.12,10.87,3.08,16.33l7-3.74a1.36,1.36,0,0,1,1.56-.9,10.84,10.84,0,0,0,1.11.07,9.09,9.09,0,0,0,8-5.2c.36-.66.25-2.21,1.84-1.58,3.11-3.27,2.44-7.59,2.91-11.48.73-6,.92-12.15,2-18.17.48-2.77-.29-4.52-3.13-5.83-3.59-1.66-7.6-2.64-10.57-5.51a12.1,12.1,0,0,1-2.59-1c-4.69-3.07-8.91-3.61-14.54-.94-5,2.39-10.13,4.55-15.29,6.64.25.36.5.73.73,1.11A36,36,0,0,0,196,733.47Z" transform="translate(24.09 -452.95)"/><path class="cls-29" d="M218.19,779.32l-.57-.34-7,3.74c.57,3.24,1.1,6.49,1.56,9.75h11.66q-2.35-4.63-4.64-9.3A7.54,7.54,0,0,1,218.19,779.32Z" transform="translate(24.09 -452.95)"/><path class="cls-30" d="M145,784.26c-.06.3-.09.6-.13.9C144.93,784.86,145,784.56,145,784.26Z" transform="translate(24.09 -452.95)"/><path class="cls-30" d="M145.92,782.57h0Z" transform="translate(24.09 -452.95)"/><path class="cls-30" d="M146.53,782v0Z" transform="translate(24.09 -452.95)"/><path class="cls-30" d="M172.31,789.9c-.58-1.06-1.18-2.09-1.85-3.09h0C171.13,787.81,171.73,788.84,172.31,789.9Z" transform="translate(24.09 -452.95)"/><path class="cls-30" d="M144.07,782.67h0a1.73,1.73,0,0,1,.75-.26A1.73,1.73,0,0,0,144.07,782.67Z" transform="translate(24.09 -452.95)"/><path class="cls-30" d="M145.29,783.23a4.07,4.07,0,0,1,.31-.67h0A4.07,4.07,0,0,0,145.29,783.23Z" transform="translate(24.09 -452.95)"/><path class="cls-30" d="M146.54,781.78l.94-.52a18.07,18.07,0,0,0,5.83-2.12,18.07,18.07,0,0,1-5.83,2.12Z" transform="translate(24.09 -452.95)"/><path class="cls-30" d="M235,741.72c-1,6-1.23,12.13-2,18.17-.47,3.89.2,8.21-2.91,11.48a15,15,0,0,1-.79,2c-.92,1.9-2.11,3.67-2.55,5.78l.73.32,6.38.84h0q0,6.11-.08,12.21h7.3c-1-6.22-3.48-12-5-18.11-.21-.8-.29-1.63-.43-2.44h.65c.47-1.65-1-3.28,0-4.93h0c-.69-.1-1.49.11-1.88-.74l3.39-4.87a.22.22,0,0,1,0-.08c-.5-5.74-1.59-11.44-2.08-17.19-.39-4.7,1.44-6.24,5.91-5,3.35.92,6.77,1.49,10.18,2.13l1.42-2a7,7,0,0,1,1.14-1c.71-.74,1.44-1.47,2.16-2.2a6.9,6.9,0,0,0-2.37-.79c-11-1.56-21.9-3.2-32.85-4.8,3,2.87,7,3.85,10.57,5.51C234.71,737.2,235.48,739,235,741.72Z" transform="translate(24.09 -452.95)"/><path class="cls-31" d="M227.52,779.42c-1.29,2-.77,4-.22,6l.15.53c.1.36.19.71.27,1.07a7.55,7.55,0,0,1,.17,1.06,44.61,44.61,0,0,0,.72,4.44h5.21q0-6.11.08-12.21Z" transform="translate(24.09 -452.95)"/><path class="cls-32" d="M170.46,786.81h0a21.41,21.41,0,0,0-2.8-3.43h0A21.41,21.41,0,0,1,170.46,786.81Z" transform="translate(24.09 -452.95)"/><path class="cls-32" d="M217.62,779l.57.34,8.6-.22h0c.44-2.11,1.63-3.88,2.55-5.78a15,15,0,0,0,.79-2c-1.59-.63-1.48.92-1.84,1.58a9.09,9.09,0,0,1-8,5.2,10.84,10.84,0,0,1-1.11-.07A1.36,1.36,0,0,0,217.62,779Z" transform="translate(24.09 -452.95)"/><path class="cls-28" d="M227.72,787c-.08-.36-.17-.71-.27-1.07l-.15-.53c-.55-2-1.07-3.93.22-6h0l-.73-.32-8.6.22a7.54,7.54,0,0,0,1,3.85q2.3,4.67,4.64,9.3h4.79a44.61,44.61,0,0,1-.72-4.44A7.55,7.55,0,0,0,227.72,787Z" transform="translate(24.09 -452.95)"/><path class="cls-33" d="M246.65,741.55c-2.24-.68-3.07.17-2.92,2.43a5.56,5.56,0,0,0,.85,3.25c.54.7,1.07,1.4,1.59,2.11l4.58-6.6C249.38,742.37,248,742,246.65,741.55Z" transform="translate(24.09 -452.95)"/><path class="cls-34" d="M265,770.47c3.19.34,6.39.65,9.59.89a1.49,1.49,0,0,1,.55.21,5.74,5.74,0,0,0,.53.32h2.49l5.61.05c5.44-2.28,11.27-3.15,16.86-4.88,5.41-1.69,10.95-3,16.4-4.51a14.9,14.9,0,0,1,4.27-.7c0-.4-.07-.8-.1-1.2-.14-.78-.25-1.56-.34-2.35-.13-1.19-.21-2.38-.25-3.57-.15-4.31.14-8.64-.11-13-.43-3.37-.9-6.72-1.3-10.09-.13-1.12-.26-2.25-.37-3.37-.22-2.27-1.05-2.62-3.26-2.2-5.78,1.12-11.63,1.88-17.45,2.78h0c-4.36,1.68-9,2.21-13.53,2.93-1.52.25-3,.51-4.53.85-8,1.79-15.88,3.62-23.82,5.41a10.45,10.45,0,0,1-1.86.07,7,7,0,0,0-1.14,1l-1.42,2c-3.41-.64-6.83-1.21-10.18-2.13-4.47-1.24-6.3.3-5.91,5,.49,5.75,1.58,11.45,2.08,17.19a.22.22,0,0,0,0,.08l-3.39,4.87c.39.85,1.19.64,1.88.74h0C245.86,768.11,255.4,769.45,265,770.47Zm-20.4-23.24a5.56,5.56,0,0,1-.85-3.25c-.15-2.26.68-3.11,2.92-2.43,1.36.42,2.73.82,4.1,1.19l-4.58,6.6C245.65,748.63,245.12,747.93,244.58,747.23Z" transform="translate(24.09 -452.95)"/><path class="cls-28" d="M365.06,771.16a2.09,2.09,0,0,0-.44,1.35h0A2.09,2.09,0,0,1,365.06,771.16Z" transform="translate(24.09 -452.95)"/><path class="cls-35" d="M256.22,738.1c7.94-1.79,15.87-3.62,23.82-5.41,1.5-.34,3-.6,4.53-.85,4.56-.72,9.17-1.25,13.53-2.93h0a8,8,0,0,1,4.71-1.69c.55-.08,1.1-.14,1.63-.24,5.31-1,10.38-3.28,15.92-3,2.8-3.66,6.9-5.82,10.21-8.88,2.87-2.65,6.54-4.38,8.81-7.72-2.59-.72-5.15.17-7.73.2-12.86.14-25.7.92-38.56,1.19-5.81.12-10.27,1.45-14.44,5.78-7.12,7.39-14.88,14.16-22.13,21.44-.72.73-1.45,1.46-2.16,2.2A10.45,10.45,0,0,0,256.22,738.1Z" transform="translate(24.09 -452.95)"/><path class="cls-36" d="M330.57,715.08c-3.31,3.06-7.41,5.22-10.21,8.88l.12,17.83c.25,4.31,0,8.64.11,13,0,1.19.12,2.38.25,3.57.09.79.2,1.57.34,2.35,3.27-.44,6.54-.86,9.8-1.31a1.93,1.93,0,0,0,1.67-1.26,3.84,3.84,0,0,1,2.93-3.14c2.39-4.55,4.81-9.08,7.22-13.61.94-3.46,3.29-5,6.75-5.85l1.17-.29q-4.75-13.44-9.5-26.89c-.36-1-.89-1.28-1.84-.95C337.11,710.7,333.44,712.43,330.57,715.08Z" transform="translate(24.09 -452.95)"/><path class="cls-37" d="M334.92,772.92c-.71-5-.29-10.16-.31-15.25a4.49,4.49,0,0,1,.62-2c.11-.23.23-.45.35-.67a3.84,3.84,0,0,0-2.93,3.14,1.93,1.93,0,0,1-1.67,1.26c-3.26.45-6.53.87-9.8,1.31l.1,1.2Z" transform="translate(24.09 -452.95)"/><path class="cls-26" d="M306,791.18c-.24.44-.5.87-.77,1.29h0c.27-.42.53-.85.77-1.29Z" transform="translate(24.09 -452.95)"/><path class="cls-26" d="M302,788.15l-8.91-6.89h-.49a2.53,2.53,0,0,1-1.24-.3,1.78,1.78,0,0,1-.77-1.58h0a3.24,3.24,0,0,1-2.75-.91,6.39,6.39,0,0,1-.54-.5l-.78-.77a6.57,6.57,0,0,0-.82-.68c-2.48-1.64-5.47-2.44-7.6-4.62H276.9c-.42.64-.84.65-1.25,0a5.74,5.74,0,0,1-.53-.32,1.49,1.49,0,0,0-.55-.21c-3.2-.24-6.4-.55-9.59-.89-9.58-1-19.12-2.36-28.69-3.48h0c-.94,1.65.5,3.28,0,4.93,2.32,7,4.83,13.85,7.78,20.55h4.21a49.64,49.64,0,0,1-5.69-14.84c-.23-1-.24-2-.48-3-.66-2.87.84-4.59,4.28-4.55l8.26,1.86a146.58,146.58,0,0,0,15.87,2.6c5.79.66,9.79,4.5,14.11,7.91,2.84,2.24,5.3,4.84,8,7.2a7,7,0,0,1,2.18,2.86h2.83c1.08-1.22,2.18-2.42,3.26-3.62A2.44,2.44,0,0,1,302,788.15Z" transform="translate(24.09 -452.95)"/><path class="cls-35" d="M306.33,791.23c.11-.2.23-.39.33-.59l.12-.26a15.9,15.9,0,0,0,.79-2c7.49-.5,15-1.06,22.46-1.51L338,783l.25-.13a22.77,22.77,0,0,1-3.27-9.13l-13.47-10.58a15.18,15.18,0,0,0-4.22.67c-5.39,1.47-10.86,2.7-16.21,4.31-5.53,1.66-11.3,2.5-16.66,4.67.43,2,2.26,2.81,3.7,4a36.76,36.76,0,0,1,3.09,3.15h0a3.06,3.06,0,0,1,2.47,1.8h0l8.8,6.59a2.53,2.53,0,0,0-1.09.67c-1.06,1.16-2.15,2.3-3.22,3.47h7.43c.26-.4.51-.82.75-1.24Z" transform="translate(24.09 -452.95)"/><path class="cls-32" d="M318.81,728.33c.11,1.12.24,2.25.37,3.37.4,3.37.87,6.73,1.3,10.09L320.36,724c-5.54-.26-10.61,2-15.92,3-.53.1-1.08.16-1.63.24a8,8,0,0,0-4.71,1.69h0c5.82-.9,11.67-1.66,17.45-2.78C317.76,725.71,318.59,726.06,318.81,728.33Z" transform="translate(24.09 -452.95)"/><path class="cls-27" d="M285.74,776.52a6.57,6.57,0,0,1,.82.68l.78.77a6.39,6.39,0,0,0,.54.5,3.24,3.24,0,0,0,2.75.91,37.51,37.51,0,0,0-3.13-3.29c-1.46-1.21-3.31-2-3.75-4.14l-5.61-.05C280.27,774.08,283.26,774.88,285.74,776.52Z" transform="translate(24.09 -452.95)"/><path class="cls-27" d="M276.9,771.9h-1.25C276.06,772.55,276.48,772.54,276.9,771.9Z" transform="translate(24.09 -452.95)"/><path class="cls-31" d="M329.94,786.67q3.53-.23,7.07-.4c2.77-.14,3.08-1,1.73-3-.18-.27-.35-.54-.52-.81l-.25.14Z" transform="translate(24.09 -452.95)"/><path class="cls-32" d="M236.32,771.92h-.65c.14.81.22,1.64.43,2.44,1.54,6.07,4.06,11.89,5,18.11h3C241.15,785.77,238.64,778.87,236.32,771.92Z" transform="translate(24.09 -452.95)"/><path class="cls-27" d="M292.67,789.61c-2.71-2.36-5.17-5-8-7.2-4.32-3.41-8.32-7.25-14.11-7.91a146.58,146.58,0,0,1-15.87-2.6L246.42,770c-3.44,0-4.94,1.68-4.28,4.55.24,1,.25,2,.48,3a49.64,49.64,0,0,0,5.69,14.84h46.54A7,7,0,0,0,292.67,789.61Z" transform="translate(24.09 -452.95)"/><path class="cls-27" d="M291.4,781a2.53,2.53,0,0,0,1.24.3h.49a3.09,3.09,0,0,0-2.5-1.88A1.78,1.78,0,0,0,291.4,781Z" transform="translate(24.09 -452.95)"/><path class="cls-33" d="M386.08,729c-4.35-1.06-3.36,2.07-3.39,4.34,0,3,.2,6-.05,9-.41,4.84.38,9.09,3.83,12.83,3.28,3.57,5.67,7.84,8.25,11.94a6.67,6.67,0,0,0,6.43,3.47c3-.13,5.35,1.34,7.73,3.23,4,3.17,7.47,6.79,11.1,10.31,1.47,1.43,2.71,1.53,4.66.54,2.29-1.16,4.62-2.25,7-3.31q1.06-5.24,2.12-10.48a6.44,6.44,0,0,1,.64-1.39c.89-2.38,1.84-4.74,2.81-7.09-4.57-6.7-10.66-11.84-17.1-16.84-6.15-4.77-13.16-8.42-18.63-14.08a133.25,133.25,0,0,0-15-3.31A4.82,4.82,0,0,1,386.08,729Z" transform="translate(24.09 -452.95)"/><path class="cls-34" d="M437.17,762.46q1.2-2.91,2.45-5.8a3,3,0,0,0-.95-.87c-9.6-5-17.32-12.46-25.48-19.32a21.32,21.32,0,0,0-11.75-4.93c5.47,5.66,12.48,9.31,18.63,14.08C426.51,750.62,432.6,755.76,437.17,762.46Z" transform="translate(24.09 -452.95)"/><polygon class="cls-34" points="414.89 322.65 414.89 322.65 414.89 322.65 414.89 322.65 414.89 322.65"/><path class="cls-34" d="M391.71,777.17l.34.33-.63-.63h0Z" transform="translate(24.09 -452.95)"/><path class="cls-34" d="M380.81,732.55l-.17,28.53a29.24,29.24,0,0,1,5.47,7.59c.09.22.19.43.29.64a8.56,8.56,0,0,0,2.92,3.77,1.1,1.1,0,0,1,.84,1.08,1.21,1.21,0,0,1,0,.19,1,1,0,0,1,.6.89c0,.12,0,.24,0,.36a.85.85,0,0,1,.37.26.72.72,0,0,1,.12.21.19.19,0,0,1,0,.09,2.72,2.72,0,0,1,.07.33c0,.12,0,.25,0,.38l.63.63h0l0,0,.62.63h0c.4.31.95.52,1.17.92,2.07,3.85,4.62,7,9.47,7.26,4.5.18,8,2.08,11.13,4.51l.53.41,1.52,1.25,0,0h48.16l1.44-.48a.86.86,0,0,1,.28,0c.29,0,.62.08.92.1l1.15-.49,1.14-.49,5.17-2.19c4.08-4.24,9.09-7.36,13.54-11.17,4.29-3.69,8.86-7.07,13.26-10.64a14.77,14.77,0,0,1,3.64-2.34l-.57-1.06c-.44-.66-.85-1.34-1.24-2-2.74-4.8-4.42-10.1-6.89-15-1.73-2.91-3.5-5.81-5.2-8.74-.57-1-1.13-2-1.68-3-1.1-2-2-2-3.86-.72-4.86,3.32-9.93,6.34-14.91,9.48h0c-3.06,3-6.7,5.19-10.28,7.44-1.63,1-3.25,2.06-4.81,3.2q-9.86,7.2-19.71,14.42a10.8,10.8,0,0,1-1.68.8,6.44,6.44,0,0,0-.64,1.39q-1.07,5.23-2.12,10.48c-2.34,1.06-4.67,2.15-7,3.31-1.95,1-3.19.89-4.66-.54-3.63-3.52-7.13-7.14-11.1-10.31-2.38-1.89-4.73-3.36-7.73-3.23a6.67,6.67,0,0,1-6.43-3.47c-2.58-4.1-5-8.37-8.25-11.94-3.45-3.74-4.24-8-3.83-12.83.25-3,0-6,.05-9,0-2.27-1-5.4,3.39-4.34a4.82,4.82,0,0,0,.34-.8c-1.85-.45-3.63-1.19-5.57-1.17,0,1.82,0,3.64,0,5.47Z" transform="translate(24.09 -452.95)"/><path class="cls-34" d="M342.53,790.39c.67-3.34,5.56-4.74,8.33-7.31a5.8,5.8,0,0,0,0-.59,63,63,0,0,0-3.12-11.77c-.58-1.75-1.15-3.51-1.64-5.29-.37-1.38-1-2.69-.87-4.18-1-3.46-.65-7.08-1.21-10.6-.5-3.09-.35-6.27-1.22-9.31-2.41,4.53-4.83,9.06-7.22,13.61-.12.22-.24.44-.35.67a4.49,4.49,0,0,0-.62,2c0,5.09-.4,10.26.31,15.25h0a24,24,0,0,0,3.3,9.53c.17.27.34.54.52.81,1.35,2,1,2.87-1.73,3q-3.54.18-7.07.4c-7.58.47-15.15,1.05-22.73,1.57a15.3,15.3,0,0,1-.8,2l-.12.27-.33.62c-.24.44-.5.87-.77,1.29h37.32A6.3,6.3,0,0,1,342.53,790.39Z" transform="translate(24.09 -452.95)"/><path class="cls-27" d="M342.8,741.34c.87,3,.72,6.22,1.22,9.31.56,3.52.2,7.14,1.21,10.6,2.67,1.44,3.69,4.31,5.45,6.51,1.29,1.6,2.34,1.79,3.83.66,5.27-4,11.42-6.65,16.48-10.93,2.12-1.8,1.1-4.56,1.64-6.85,1.46-6.19.18-12.58,1-18.84.27-2-1.36-1.64-2.52-1.8a7.39,7.39,0,0,0-3.05.43c-5.78,1.62-11.53,3.36-17.36,4.77l-1.17.29C346.09,736.3,343.74,737.88,342.8,741.34Z" transform="translate(24.09 -452.95)"/><path class="cls-26" d="M373.65,731.8c-.84,6.26.44,12.65-1,18.84-.54,2.29.48,5.05-1.64,6.85-5.06,4.28-11.21,6.94-16.48,10.93-1.49,1.13-2.54.94-3.83-.66-1.76-2.2-2.78-5.07-5.45-6.51-.16,1.49.5,2.8.87,4.18.49,1.78,1.06,3.54,1.64,5.29a63,63,0,0,1,3.12,11.77h0a7.05,7.05,0,0,0,3.74-1.92c.63-.55,1.24-1.14,1.87-1.67.28-.24.57-.46.87-.68,2.08-1.52,4.43-2.71,6-4.82a1,1,0,0,1,1-.89h.22a2.09,2.09,0,0,1,.44-1.35,1.49,1.49,0,0,1,.67-.41,2.73,2.73,0,0,1,.89-.13l.5,0a1.57,1.57,0,0,1,.06-.55q.21-.72,1.17-.69a1.05,1.05,0,0,1,.36-.47,1.41,1.41,0,0,1,.9-.16h0a4.12,4.12,0,0,1,.39-1.34,3.83,3.83,0,0,1,.46-.72,5.49,5.49,0,0,1,.57-.61,22,22,0,0,1,3.15-2c4.09-2.57,5.77-5.72,5.52-10.71-.33-6.36.78-12.76.5-19.17a1.78,1.78,0,0,1,.61-1.67v0c0-1.83,0-3.65,0-5.47h0c-3.3.8-6.65,1.43-9.72,2.94C372.29,730.16,373.92,729.81,373.65,731.8Z" transform="translate(24.09 -452.95)"/><path class="cls-31" d="M414.94,791.19l-.53-.41c-3.16-2.43-6.63-4.33-11.13-4.51a19.14,19.14,0,0,0-5.3.17,6.52,6.52,0,0,0-2.26,1,30.45,30.45,0,0,0-2.19,2.21,18.48,18.48,0,0,1-3,2.77h25.92l0,0Z" transform="translate(24.09 -452.95)"/><path class="cls-36" d="M393.53,789.7a30.45,30.45,0,0,1,2.19-2.21,8.25,8.25,0,0,0-1.63-6.09c-.67-1-1.65-1.91-1.45-3.3l-.62-.63h0l0,0h0l-.34-.33-.29-.3h0v0l0,0,0,0-.65-1.28h0l-.63-1.25h0c-.27-.42-.54-.84-.82-1.26a8.56,8.56,0,0,1-2.92-3.77c-.1-.21-.2-.42-.29-.64a29.24,29.24,0,0,0-5.47-7.59c-3.88,2.28-6.93,5.73-11,7.7h0a.94.94,0,0,1-1.24.63c.07.91-.5,1.17-1.25,1.26h0a3.47,3.47,0,0,1-2.5,1.88v0l-1.26.89c-1.59,2.11-3.94,3.3-6,4.82-.3.22-.59.44-.87.68-.63.53-1.24,1.12-1.87,1.67a7.05,7.05,0,0,1-3.74,1.92h0a5.8,5.8,0,0,1,0,.59c6.3,1.26,12,4.19,18.06,6.23,1.51.51,3,1.07,4.48,1.64l3.94,1.52h13.23A18.48,18.48,0,0,0,393.53,789.7Z" transform="translate(24.09 -452.95)"/><path class="cls-32" d="M380.64,761.08l.17-28.53a1.78,1.78,0,0,0-.61,1.67c.28,6.41-.83,12.81-.5,19.17.25,5-1.43,8.14-5.52,10.71a22,22,0,0,0-3.15,2,5.49,5.49,0,0,0-.57.61,3.83,3.83,0,0,0-.46.72,4.12,4.12,0,0,0-.39,1.34C373.71,766.81,376.76,763.36,380.64,761.08Z" transform="translate(24.09 -452.95)"/><path class="cls-32" d="M392.66,778.12l0,0c-.2,1.39.78,2.32,1.45,3.3a8.25,8.25,0,0,1,1.63,6.09,6.52,6.52,0,0,1,2.26-1,19.14,19.14,0,0,1,5.3-.17c-4.85-.21-7.4-3.41-9.47-7.26-.22-.4-.77-.61-1.17-.92h0Z" transform="translate(24.09 -452.95)"/><path class="cls-32" d="M391.42,776.88h0Z" transform="translate(24.09 -452.95)"/><path class="cls-32" d="M390.14,774.34h0l.63,1.25h0l.65,1.28h0c0-.13,0-.26,0-.38a2.72,2.72,0,0,0-.07-.33.19.19,0,0,0,0-.09.72.72,0,0,0-.12-.21.85.85,0,0,0-.37-.26h0c0-.12,0-.24,0-.36a1,1,0,0,0-.6-.89h0a1.21,1.21,0,0,0,0-.19,1.1,1.1,0,0,0-.84-1.08C389.6,773.5,389.87,773.92,390.14,774.34Z" transform="translate(24.09 -452.95)"/><path class="cls-38" d="M392.66,778.12l0,0" transform="translate(24.09 -452.95)"/><path class="cls-38" d="M392,777.47l.62.63" transform="translate(24.09 -452.95)"/><path class="cls-38" d="M392.05,777.5l-.63-.63" transform="translate(24.09 -452.95)"/><path class="cls-38" d="M391.41,776.86h0" transform="translate(24.09 -452.95)"/><path class="cls-38" d="M391.41,776.86l0,0" transform="translate(24.09 -452.95)"/><path class="cls-28" d="M368.92,789.31c-6-2-11.76-5-18.06-6.23-2.77,2.57-7.66,4-8.33,7.31a6.3,6.3,0,0,0,0,2.08h34.83L373.4,791C371.92,790.38,370.43,789.82,368.92,789.31Z" transform="translate(24.09 -452.95)"/><path class="cls-32" d="M364.62,772.51v0a3.47,3.47,0,0,0,2.5-1.88h0c.75-.09,1.32-.35,1.25-1.26a.94.94,0,0,0,1.24-.63,1.41,1.41,0,0,0-.9.16,1.05,1.05,0,0,0-.36.47h0q-1,0-1.17.69a1.57,1.57,0,0,0-.06.55h0l-.5,0a2.73,2.73,0,0,0-.89.13,1.49,1.49,0,0,0-.67.41,2.09,2.09,0,0,0-.44,1.35h-.22a1,1,0,0,0-1,.89Z" transform="translate(24.09 -452.95)"/><path class="cls-28" d="M549.24,755.54a1.78,1.78,0,0,0,0,1.76h0A1.78,1.78,0,0,1,549.24,755.54Z" transform="translate(24.09 -452.95)"/><path class="cls-35" d="M434.36,769.55a10.8,10.8,0,0,0,1.68-.8q9.87-7.2,19.71-14.42c1.56-1.14,3.18-2.17,4.81-3.2,3.58-2.25,7.22-4.44,10.28-7.44h0a8,8,0,0,1,3.64-3.43c.48-.28,1-.56,1.4-.86,4.49-3,8.23-7.13,13.42-9.09,1.11-4.47,4-8.08,5.85-12.21,1.58-3.57,4.26-6.62,5-10.57-2.67.36-4.66,2.19-7,3.24-11.74,5.23-23.23,11.05-34.91,16.4-5.29,2.42-8.86,5.4-11,11-2.33,6.23-5,12.33-7.65,18.45q-1.25,2.9-2.45,5.8C436.2,764.81,435.25,767.17,434.36,769.55Z" transform="translate(24.09 -452.95)"/><path class="cls-36" d="M489.3,730.31l7.19,16.32c2.47,4.92,4.15,10.22,6.89,15,.39.68.8,1.36,1.24,2,2.83-1.7,5.66-3.39,8.47-5.1a1.94,1.94,0,0,0,1-1.82,3.84,3.84,0,0,1,1.44-4c.39-5.12.81-10.24,1.23-15.36-.52-3.55,1-5.93,3.87-8.05l1-.73q-9.69-10.44-19.38-20.91c-.75-.8-1.33-.82-2.07-.13-.76,4-3.44,7-5,10.57C493.32,722.23,490.41,725.84,489.3,730.31Z" transform="translate(24.09 -452.95)"/><path class="cls-37" d="M533.73,763.19c.57.64,1.15,1.29,1.71,1.95C534.88,764.48,534.3,763.83,533.73,763.19Z" transform="translate(24.09 -452.95)"/><path class="cls-37" d="M522.1,769.47c-2.63-4.3-4.3-9.21-6.35-13.88a4.74,4.74,0,0,1-.24-2.13l.06-.75a3.84,3.84,0,0,0-1.44,4,1.94,1.94,0,0,1-1,1.82c-2.81,1.71-5.64,3.4-8.47,5.1l.57,1.05Z" transform="translate(24.09 -452.95)"/><path class="cls-26" d="M469.58,791.07l-1.14.49c-.13.76-.51.93-1.15.49-.3,0-.63-.11-.92-.1a.86.86,0,0,0-.28,0l-1.44.48h14.43l-.69-.18C475.46,791.77,472.4,792.23,469.58,791.07Z" transform="translate(24.09 -452.95)"/><path class="cls-35" d="M528.73,777.13l.19-.24a24.24,24.24,0,0,1-6.82-7.42l-16.91-4.74a14.77,14.77,0,0,0-3.64,2.34c-4.4,3.57-9,6.95-13.26,10.64-4.45,3.81-9.46,6.93-13.54,11.17,1.24,1.77,3.26,1.79,5.08,2.32a22.19,22.19,0,0,1,3.08,1.27h23.8c5.42-2.81,10.83-5.64,16.27-8.41Z" transform="translate(24.09 -452.95)"/><path class="cls-32" d="M489.3,730.31c-5.19,2-8.93,6.08-13.42,9.09-.44.3-.92.58-1.4.86a8,8,0,0,0-3.64,3.43h0c5-3.14,10.05-6.16,14.91-9.48,1.85-1.26,2.76-1.27,3.86.72.55,1,1.11,2,1.68,3,1.7,2.93,3.47,5.83,5.2,8.75Z" transform="translate(24.09 -452.95)"/><path class="cls-27" d="M474.75,788.88l-5.17,2.19c2.82,1.16,5.88.7,8.81,1.22l.69.18h3.83a22.19,22.19,0,0,0-3.08-1.27C478,790.67,476,790.65,474.75,788.88Z" transform="translate(24.09 -452.95)"/><path class="cls-27" d="M468.44,791.56l-1.15.49C467.93,792.49,468.31,792.32,468.44,791.56Z" transform="translate(24.09 -452.95)"/><path class="cls-31" d="M544.2,792.47h0l-.47-.48Z" transform="translate(24.09 -452.95)"/><path class="cls-31" d="M523,784.06c2.11-1.06,4.21-2.13,6.33-3.17,2.49-1.23,2.43-2.17.4-3.45l-.79-.55-.19.24Z" transform="translate(24.09 -452.95)"/><path class="cls-33" d="M551.64,708.87c-4.42.76-2.27,3.24-1.39,5.33,1.16,2.78,2.58,5.48,3.54,8.32,1.54,4.6,4,8.19,8.6,10.26,4.43,2,8.32,4.94,12.31,7.68a6.68,6.68,0,0,0,7.28.64c2.71-1.32,5.45-.9,8.38-.11,4.91,1.33,9.56,3.27,14.28,5.06,1.92.73,3.1.33,4.5-1.35,3.72-4.48,7.74-8.71,11.68-13,2.81-3.06,2.63-4.05-.87-6.39-2.23-1.49-4.2-3.34-6.4-4.87-7.3-5.1-15.56-7.62-24.13-9.83-7.54-1.94-15.43-2.5-22.7-5.53a136.37,136.37,0,0,0-15.1,2.92A5.48,5.48,0,0,1,551.64,708.87Z" transform="translate(24.09 -452.95)"/><path class="cls-34" d="M559.36,740.45a29.42,29.42,0,0,1,8,4.8l.51.47a8.63,8.63,0,0,0,4.18,2.3,1.11,1.11,0,0,1,1.2.65l.09.18a.89.89,0,0,1,.68.28,1.54,1.54,0,0,1,.31.47l.08.15a.9.9,0,0,1,.38,0l.17.09a2.11,2.11,0,0,1,.53.78l.82.32h0l.82.32h0a3.86,3.86,0,0,1,1.43.38c3.44,2.71,7,4.64,11.58,2.9,4.86-1.87,9.37-1.09,13.81.22a105,105,0,0,0,10.36,3c3.23.59,6.38,1.66,9.56,2.52h0q8.25-10.41,16.48-20.83c.95-1.21,1.83-2.47,2.74-3.71-9.68-8.34-20.32-15.36-30.87-22.49a3.72,3.72,0,0,0-1.69-.72c-10.79-.75-20.85-4.56-31.06-7.62a21.31,21.31,0,0,0-12.75.14c7.27,3,15.16,3.59,22.7,5.53,8.57,2.21,16.83,4.73,24.13,9.83,2.2,1.53,4.17,3.38,6.4,4.87,3.5,2.34,3.68,3.33.87,6.39-3.94,4.29-8,8.52-11.68,13-1.4,1.68-2.58,2.08-4.5,1.35-4.72-1.79-9.37-3.73-14.28-5.06-2.93-.79-5.67-1.21-8.38.11a6.68,6.68,0,0,1-7.28-.64c-4-2.74-7.88-5.71-12.31-7.68-4.65-2.07-7.06-5.66-8.6-10.26-1-2.84-2.38-5.54-3.54-8.32-.88-2.09-3-4.57,1.39-5.33a5.48,5.48,0,0,0,0-.87c-1.87.33-3.8.36-5.57,1.14.71,1.69,1.43,3.37,2.14,5.06Z" transform="translate(24.09 -452.95)"/><path class="cls-34" d="M575.91,750.82l.44.17-.82-.32h0Z" transform="translate(24.09 -452.95)"/><path class="cls-34" d="M543.05,791.22c-2.4-2.94-6.33-5.48-7-8.74s3.22-6.55,4.74-10a4.38,4.38,0,0,0-.23-.54h0a46.44,46.44,0,0,0-5.09-6.79c-.56-.66-1.14-1.31-1.71-1.95-1.48-1.66-3-3.3-4.34-5-.89-1.12-2-2.06-2.46-3.5-2.3-2.77-3.41-6.24-5.32-9.25-1.68-2.64-2.81-5.61-4.81-8.06-.42,5.12-.84,10.24-1.23,15.36l-.06.75a4.74,4.74,0,0,0,.24,2.13c2,4.67,3.72,9.58,6.35,13.88h0a24.24,24.24,0,0,0,6.82,7.42l.79.55c2,1.28,2.09,2.22-.4,3.45-2.12,1-4.22,2.11-6.33,3.17-5.44,2.77-10.85,5.6-16.27,8.41H544.2l-.47-.48C543.5,791.74,543.27,791.48,543.05,791.22Z" transform="translate(24.09 -452.95)"/><path class="cls-27" d="M516.8,737.35c2,2.45,3.13,5.42,4.81,8.06,1.91,3,3,6.48,5.32,9.25,3,.27,5.09,2.49,7.59,3.81,1.82,1,2.86.71,3.77-.91,3.25-5.76,7.84-10.64,10.79-16.58,1.23-2.49-.8-4.62-1.22-6.93-1.12-6.26-4.82-11.62-6.53-17.7-.55-1.93-1.91-1-3-.65a7.38,7.38,0,0,0-2.62,1.6c-4.66,3.78-9.26,7.66-14,11.27l-1,.73C517.81,731.42,516.28,733.8,516.8,737.35Z" transform="translate(24.09 -452.95)"/><path class="cls-26" d="M541.33,716.35c1.71,6.08,5.41,11.44,6.53,17.7.42,2.31,2.45,4.44,1.22,6.93-3,5.94-7.54,10.82-10.79,16.58-.91,1.62-1.95,1.87-3.77.91-2.5-1.32-4.57-3.54-7.59-3.81.44,1.44,1.57,2.38,2.46,3.5,1.38,1.73,2.86,3.37,4.34,5,.57.64,1.15,1.29,1.71,1.95a46.44,46.44,0,0,1,5.09,6.79h0a8.08,8.08,0,0,0,3-4c.23-.52.45-1,.7-1.52a20.19,20.19,0,0,1,1.11-1.91c1.18-1.87,2.5-3.67,3-5.88a1,1,0,0,1,.6-1.22l.2-.09a1.78,1.78,0,0,1,0-1.76,2.88,2.88,0,0,1,1.5-.94,1.6,1.6,0,0,1-.17-.78,1.13,1.13,0,0,1,.82-.86,1,1,0,0,1,.14-.56,1.4,1.4,0,0,1,.76-.51h0a4,4,0,0,1-.13-1.82,4.83,4.83,0,0,1,.56-1.57,29.87,29.87,0,0,1,1.9-2.73c2.74-4,3-7.54.82-12-2.83-5.71-4.35-12-7.16-17.8a1.8,1.8,0,0,1-.1-1.77c-.71-1.69-1.43-3.37-2.14-5.06h0c-2.71,2.05-5.53,4-7.76,6.56C539.42,715.38,540.78,714.42,541.33,716.35Z" transform="translate(24.09 -452.95)"/><path class="cls-31" d="M627.87,775.8c-1-3.94-2-7.89-3.06-11.83-.31-1.22-.62-2.44-.94-3.66h0c-3.18-.86-6.33-1.93-9.56-2.52a105,105,0,0,1-10.36-3c-4.44-1.31-9-2.09-13.81-.22a19.59,19.59,0,0,0-4.8,2.27,7.17,7.17,0,0,0-.72.64,5.77,5.77,0,0,0-.93,1.22c-.15.31-.29.62-.42.94-.23.56-.43,1.13-.62,1.7,0,.14-.11.28-.16.43a14.15,14.15,0,0,1-2.21,4.47l-.3,1,.16.16h0a.81.81,0,0,1-.15.95l-.12.09a3.59,3.59,0,0,0,.14.43,5.44,5.44,0,0,0,.65,1.18l.27.37c.18.24.38.48.57.71a6.34,6.34,0,0,1,1.88,3.6c6.55,4.43,5.55,11.27,5.9,17.68h34.17c1.52-3.94,3-7.9,4.51-11.84A7.53,7.53,0,0,0,627.87,775.8Z" transform="translate(24.09 -452.95)"/><path class="cls-36" d="M559.81,771c1.59-.13,3.18-.21,4.77-.28a110.31,110.31,0,0,0,14.29-1.08,1.53,1.53,0,0,1,.63-1,1.31,1.31,0,0,1,.35-.19l.29-1h0l-.16-.17.3-1a14.15,14.15,0,0,0,2.21-4.47c0-.15.11-.29.16-.43.19-.57.39-1.14.62-1.7.13-.32.27-.63.42-.94a8.27,8.27,0,0,0-3.91-4.94c-1-.64-2.28-1.1-2.65-2.47l-.82-.32h0l-.44-.17-.38-.15h0l0,0h0l-1.1-.92h0l-1.07-.9h0l-1.26-.83a8.63,8.63,0,0,1-4.18-2.3l-.51-.47a29.42,29.42,0,0,0-8-4.8c-2.65,3.63-4.09,8-7.06,11.45h0a1,1,0,0,1-.89,1.07c.43.8,0,1.27-.65,1.65h0a3.44,3.44,0,0,1-1.55,2.72v0l-.81,1.31c-.53,2.21-1.85,4-3,5.88a20.19,20.19,0,0,0-1.11,1.91c-.25.49-.47,1-.7,1.52a8.08,8.08,0,0,1-3,4h0a4.38,4.38,0,0,1,.23.54C547,771.12,553.46,771.54,559.81,771Z" transform="translate(24.09 -452.95)"/><path class="cls-32" d="M552.3,751.9c3-3.44,4.41-7.82,7.06-11.45L548.19,714.2a1.8,1.8,0,0,0,.1,1.77c2.81,5.77,4.33,12.09,7.16,17.8,2.21,4.47,1.92,8-.82,12a29.87,29.87,0,0,0-1.9,2.73,4.83,4.83,0,0,0-.56,1.57A4,4,0,0,0,552.3,751.9Z" transform="translate(24.09 -452.95)"/><path class="cls-32" d="M577.16,751.32l0,0h0c.37,1.37,1.64,1.83,2.65,2.47a8.27,8.27,0,0,1,3.91,4.94,5.77,5.77,0,0,1,.93-1.22,7.17,7.17,0,0,1,.72-.64,19.59,19.59,0,0,1,4.8-2.27c-4.54,1.74-8.14-.19-11.58-2.9a3.86,3.86,0,0,0-1.43-.38h0Z" transform="translate(24.09 -452.95)"/><path class="cls-32" d="M575.53,750.68h0Z" transform="translate(24.09 -452.95)"/><path class="cls-32" d="M573.35,748.85h0l1.07.9h0l1.1.92h0a2.11,2.11,0,0,0-.53-.78l-.17-.09a.9.9,0,0,0-.38,0h0l-.08-.15a1.54,1.54,0,0,0-.31-.47.89.89,0,0,0-.68-.28h0l-.09-.18a1.11,1.11,0,0,0-1.2-.65Z" transform="translate(24.09 -452.95)"/><path class="cls-38" d="M577.13,751.3l0,0" transform="translate(24.09 -452.95)"/><path class="cls-38" d="M576.31,751l.82.32" transform="translate(24.09 -452.95)"/><path class="cls-38" d="M575.51,750.66h0" transform="translate(24.09 -452.95)"/><path class="cls-38" d="M576.35,751l-.82-.32" transform="translate(24.09 -452.95)"/><path class="cls-38" d="M575.48,750.65h0" transform="translate(24.09 -452.95)"/><path class="cls-28" d="M583.38,774.79l-4.51-5.13h0a110.31,110.31,0,0,1-14.29,1.08c-1.59.07-3.18.15-4.77.28-6.35.52-12.77.1-19,1.45-1.52,3.46-5.45,6.68-4.74,10s4.63,5.8,7,8.74c.22.26.45.52.68.77l.47.48h45.08C588.93,786.06,589.93,779.22,583.38,774.79Z" transform="translate(24.09 -452.95)"/><path class="cls-32" d="M549.2,757.3v0a3.44,3.44,0,0,0,1.55-2.72h0c.66-.38,1.08-.85.65-1.65a1,1,0,0,0,.89-1.07,1.4,1.4,0,0,0-.76.51,1,1,0,0,0-.14.56h0a1.13,1.13,0,0,0-.82.86,1.6,1.6,0,0,0,.17.78h0a2.88,2.88,0,0,0-1.5.94,1.78,1.78,0,0,0,0,1.76h0l-.2.09a1,1,0,0,0-.6,1.22Z" transform="translate(24.09 -452.95)"/><path class="cls-33" d="M579.85,768.5a1.31,1.31,0,0,0-.35.19,1.53,1.53,0,0,0-.63,1l4.51,5.13a6.34,6.34,0,0,0-1.88-3.6c-.19-.23-.39-.47-.57-.71l-.27-.37a5.44,5.44,0,0,1-.65-1.18,3.59,3.59,0,0,1-.14-.43h0l.12-.09a.81.81,0,0,0,.15-.95Z" transform="translate(24.09 -452.95)"/><path class="cls-39" d="M580.28,766.25l-.3,1" transform="translate(24.09 -452.95)"/><path class="cls-34" d="M17.12,731.1q4.26,2.24,8.59,4.36a1.32,1.32,0,0,1,.43.39,5.85,5.85,0,0,0,.38.49l1.16.47,1.15.46,5.2,2.11c5.89-.11,11.64,1.23,17.47,1.67,5.65.43,11.27,1.28,16.91,1.86a14.89,14.89,0,0,1,4.23.92c.11-.39.23-.77.34-1.15.24-1.17.54-2.32.88-3.45,1.49-4.9,3.82-9.5,5.42-14.36,1.13-4.38,2.17-8.78,3.41-13.13.62-2.18,0-2.82-2.22-3.24-5.79-1.09-11.5-2.53-17.25-3.84h0c-4.29,0-8.4-1.06-12.53-2-1.88-.43-3.76-.85-5.66-1.14-8-1.26-16.09-2.48-24.13-3.75a9.71,9.71,0,0,1-1.76-.62,6.12,6.12,0,0,0-1.43.54Q4,706.78-9.75,715.91c.05.94.88,1,1.47,1.38h0C.21,721.85,8.59,726.62,17.12,731.1Z" transform="translate(24.09 -452.95)"/><path class="cls-28" d="M84.51,779.92l13.54.46-13.54-.46Z" transform="translate(24.09 -452.95)"/><path class="cls-35" d="M45,701.52c1.9.29,3.78.71,5.66,1.14,4.13.94,8.24,2,12.53,2h0a8.05,8.05,0,0,1,5,.15c.54.14,1.08.28,1.61.39,5.29,1,10.85.78,15.91,3.06,4-2.38,8.55-2.88,12.76-4.5,3.65-1.4,7.7-1.67,11-3.93-2.14-1.63-4.84-1.75-7.25-2.67-12-4.6-24.24-8.61-36.29-13.09-5.45-2-10.08-2.44-15.56,0-10.27,4.68-21,8.35-31.29,13a9.71,9.71,0,0,0,1.76.62C28.94,699,37,700.26,45,701.52Z" transform="translate(24.09 -452.95)"/><path class="cls-36" d="M85.74,708.26q-3.22,8.31-6.46,16.61c-1.6,4.86-3.93,9.46-5.42,14.36-.34,1.13-.64,2.28-.88,3.45,3.2.79,6.4,1.6,9.6,2.38a1.94,1.94,0,0,0,2-.55c1.74-2.61,4.18-1.9,6.42-1.31a11.17,11.17,0,0,0,6.07,0c1.65-.45,3.77-.78,5.2-.11a7.93,7.93,0,0,0,1.49.53c1.06-5.37,3.59-10.42,5.61-15.57a3.28,3.28,0,0,1,.53-.87q.48-12.91,1-25.84c0-1.1-.36-1.52-1.37-1.56-3.33,2.26-7.38,2.53-11,3.93C94.29,705.38,89.69,705.88,85.74,708.26Z" transform="translate(24.09 -452.95)"/><path class="cls-30" d="M5.82,792.39a18.12,18.12,0,0,1-.89-3.48c-.18-.65-.37-1.29-.58-1.93s-.34-1-.53-1.51c-.29-.75-.6-1.48-1-2.2a19.25,19.25,0,0,0-1-1.74l-.36-.7h0a1.21,1.21,0,0,1-.34-.69,1,1,0,0,1,.21-.72.68.68,0,0,1-.36-.32.66.66,0,0,1,0-.48,1.56,1.56,0,0,1-.43-.2,1.1,1.1,0,0,1-.34-.34.92.92,0,0,1-.11-.29A1.4,1.4,0,0,1,.29,777,3.43,3.43,0,0,1-.9,776a5.93,5.93,0,0,1-.8-1.35c-.17-.38-.32-.76-.47-1.14-.07-.18-.15-.36-.23-.54-3.84-8.29-7.48-16.67-11.22-25a3.23,3.23,0,0,1-.31-2.4c2.25-7,1.84-14.35,2.77-21.52.1-.82.33-1.62.49-2.43-.48-1.53.9-3.06,0-4.58-4.23,10.49-8.41,21-12.75,31.46a7.18,7.18,0,0,0-.05,5.9c5,12.67,10,25.37,14.93,38.05H5.85Z" transform="translate(24.09 -452.95)"/><path class="cls-37" d="M74.42,747c8.9,2.83,17.82,5.58,26.67,8.58,2.62.89,3.24.19,2.72-2.16a23.34,23.34,0,0,1,0-9.74,7.93,7.93,0,0,1-1.49-.53c-1.43-.67-3.55-.34-5.2.11a11.17,11.17,0,0,1-6.07,0c-2.24-.59-4.68-1.3-6.42,1.31a1.94,1.94,0,0,1-2,.55c-3.2-.78-6.4-1.59-9.6-2.38l-.34,1.15C73.23,744.88,73.82,745.94,74.42,747Z" transform="translate(24.09 -452.95)"/><path class="cls-26" d="M-10.21,747.58c.36,5.8,3.44,10.95,5.59,16.31C-2.89,768.22-.26,772.23.29,777A1.09,1.09,0,0,1,1,778.63c.12.26.24.53.35.8a1.16,1.16,0,0,1,.13,1.4l.36.7a19.25,19.25,0,0,1,1,1.74c.36.72.67,1.45,1,2.2.19.5.37,1,.53,1.51s.4,1.28.58,1.93a7.83,7.83,0,0,1,2.43,3.56H19.23c2.22-1.3,4.51-2.49,6.68-3.88,6.47-4.14,12.89-8.35,19.31-12.55-.9-3.17-1.5-6.42-2.37-9.6-.31-1.11.41-1.93,1.09-2.75.51-.61,1-1.23,1.51-1.86L39.32,751.5l-.33-.13a2.27,2.27,0,0,1-1.36-1.13,1.93,1.93,0,0,1,.06-1.41h0a3,3,0,0,1-1.86-1.24c-.69-1-1-2.26-1.64-3.21-1.7-2.44-4.18-4.28-5.36-7.1l-1.15-.46c-.63.45-1,.3-1.16-.47a5.85,5.85,0,0,1-.38-.49,1.32,1.32,0,0,0-.43-.39q-4.34-2.12-8.59-4.36C8.59,726.62.21,721.85-8.27,717.29h0c-1.47,1.19-.73,3.24-1.77,4.59A218.2,218.2,0,0,0-10.21,747.58Zm31-10.69c5.14,2.75,7.45,7.8,10.21,12.55,1.82,3.13,3.14,6.46,4.79,9.65,1.86,3.59,1,5.54-2.18,8.14-7.08,5.72-15.07,10-22.69,14.89-1.35.86-2.06,1.15-2.87-.86-2.83-7-6.4-13.71-8.85-20.82-1.69-4.89-4.62-9.34-5.59-14.35a49.1,49.1,0,0,1,.06-16.58c.15-1,.52-2,.68-3,.44-2.91,2.47-4,5.66-2.65l7,4.77A147,147,0,0,0,20.81,736.89Z" transform="translate(24.09 -452.95)"/><path class="cls-32" d="M85.74,708.26c-5.06-2.28-10.62-2-15.91-3.06-.53-.11-1.07-.25-1.61-.39a8.05,8.05,0,0,0-5-.15h0C69,706,74.68,707.41,80.47,708.5c2.2.42,2.84,1.06,2.22,3.24-1.24,4.35-2.28,8.75-3.41,13.13Q82.51,716.58,85.74,708.26Z" transform="translate(24.09 -452.95)"/><path class="cls-27" d="M36,744.62c-.91-1.67-2.33-3.1-2-5.24l-5.2-2.11c1.18,2.82,3.66,4.66,5.36,7.1.66,1,1,2.24,1.64,3.21a3,3,0,0,0,1.86,1.24A40.51,40.51,0,0,0,36,744.62Z" transform="translate(24.09 -452.95)"/><path class="cls-27" d="M27.68,736.81l-1.16-.47C26.66,737.11,27.05,737.26,27.68,736.81Z" transform="translate(24.09 -452.95)"/><path class="cls-31" d="M60.1,792.47h0a20.39,20.39,0,0,1,6.81-2.63A20.39,20.39,0,0,0,60.1,792.47Z" transform="translate(24.09 -452.95)"/><path class="cls-31" d="M53,792.47h0l-1.27-.25Z" transform="translate(24.09 -452.95)"/><path class="cls-32" d="M-13.93,745.59a3.23,3.23,0,0,0,.31,2.4c3.74,8.34,7.38,16.72,11.22,25,.08.18.16.36.23.54.15.38.3.76.47,1.14A5.93,5.93,0,0,0-.9,776a3.43,3.43,0,0,0,1.19,1h0a1.4,1.4,0,0,0-.18.79.92.92,0,0,0,.11.29,1.1,1.1,0,0,0,.34.34,1.56,1.56,0,0,0,.43.2H1a.66.66,0,0,0,0,.48.68.68,0,0,0,.36.32,1,1,0,0,0-.21.72,1.16,1.16,0,0,0,.34.68h0v0a1.16,1.16,0,0,0-.13-1.4c-.11-.27-.23-.54-.35-.8A1.09,1.09,0,0,0,.29,777c-.55-4.78-3.18-8.79-4.91-13.12-2.15-5.36-5.23-10.51-5.59-16.31a218.2,218.2,0,0,1,.16-25.7l-.62-.24c-.16.81-.39,1.61-.49,2.43C-12.09,731.24-11.68,738.58-13.93,745.59Z" transform="translate(24.09 -452.95)"/><path class="cls-27" d="M4.93,788.91a18.12,18.12,0,0,0,.89,3.48l0,.08H7.36A7.83,7.83,0,0,0,4.93,788.91Z" transform="translate(24.09 -452.95)"/><path class="cls-38" d="M1.47,780.81v0" transform="translate(24.09 -452.95)"/><path class="cls-38" d="M1.84,781.53l-.36-.7" transform="translate(24.09 -452.95)"/><path class="cls-27" d="M0,723.86c-3.19-1.31-5.22-.26-5.66,2.65-.16,1-.53,2-.68,3a49.1,49.1,0,0,0-.06,16.58c1,5,3.9,9.46,5.59,14.35,2.45,7.11,6,13.82,8.85,20.82.81,2,1.52,1.72,2.87.86,7.62-4.87,15.61-9.17,22.69-14.89,3.21-2.6,4-4.55,2.18-8.14-1.65-3.19-3-6.52-4.79-9.65-2.76-4.75-5.07-9.8-10.21-12.55A147,147,0,0,1,7,728.63Z" transform="translate(24.09 -452.95)"/><path class="cls-27" d="M37.69,748.83a1.93,1.93,0,0,0-.06,1.41A2.27,2.27,0,0,0,39,751.37l.33.13A3.11,3.11,0,0,0,37.69,748.83Z" transform="translate(24.09 -452.95)"/><path class="cls-33" d="M167.8,720.44c-3.66-2.59-3.89.68-4.75,2.78-1.15,2.79-2.05,5.7-3.39,8.39-2.16,4.34-3,8.59-1.16,13.34,1.73,4.52,2.39,9.37,3.27,14.14a6.69,6.69,0,0,0,4.7,5.59c2.84,1,4.49,3.22,6,5.85,2.53,4.41,4.45,9.07,6.52,13.67.84,1.88,2,2.42,4.13,2.22,5.8-.53,11.64-.67,17.46-.92,4.14-.18,4.72-1,3.9-5.14-.52-2.62-.61-5.33-1.08-8-1.56-8.76-5.62-16.39-10.12-24-4-6.71-9.14-12.68-12.13-20a135,135,0,0,0-12.75-8.62A6.71,6.71,0,0,1,167.8,720.44Z" transform="translate(24.09 -452.95)"/><path class="cls-34" d="M150.93,748.22a29.51,29.51,0,0,1,2.29,9.08,9.42,9.42,0,0,0,1.36,5.28,1.17,1.17,0,0,1,.32,1.5.89.89,0,0,1,.29.68,1.1,1.1,0,0,1,0,.18,2.23,2.23,0,0,1-.15.53.83.83,0,0,1,.3.67,3,3,0,0,1-.18.74l.35.81h0l0,0,.35.82h0c.13.21.3.42.45.63a1.48,1.48,0,0,1,.3.65c.51,4.34,1.69,8.26,6.13,10.24a16.37,16.37,0,0,1,5,3.39,21.41,21.41,0,0,1,2.8,3.43c.67,1,1.27,2,1.85,3.09.46.85.91,1.71,1.35,2.57h38.5c-.46-3.26-1-6.51-1.56-9.75h0c-1-5.46-2-10.89-3.08-16.33a3.67,3.67,0,0,0-.69-1.7c-.65-.76-1.28-1.53-1.9-2.32-6-7.66-10.09-16.52-14.67-25-.21-.39-.43-.74-.65-1.1s-.48-.75-.73-1.11a21.66,21.66,0,0,0-7.73-6.7c3,7.27,8.17,13.24,12.13,20,4.5,7.62,8.56,15.25,10.12,24,.47,2.64.56,5.35,1.08,8,.82,4.13.24,5-3.9,5.14-5.82.25-11.66.39-17.46.92-2.17.2-3.29-.34-4.13-2.22-2.07-4.6-4-9.26-6.52-13.67-1.51-2.63-3.16-4.87-6-5.85a6.69,6.69,0,0,1-4.7-5.59c-.88-4.77-1.54-9.62-3.27-14.14-1.83-4.75-1-9,1.16-13.34,1.34-2.69,2.24-5.6,3.39-8.39.86-2.1,1.09-5.37,4.75-2.78a6.71,6.71,0,0,0,.6-.63c-1.55-1.09-2.94-2.43-4.75-3.14q-1,2.55-2.06,5.1Q156.26,735,150.93,748.22Z" transform="translate(24.09 -452.95)"/><path class="cls-34" d="M155.32,767.31l.17.38-.35-.81h0Z" transform="translate(24.09 -452.95)"/><path class="cls-34" d="M103.78,743.67a23.34,23.34,0,0,0,0,9.74c.52,2.35-.1,3.05-2.72,2.16-8.85-3-17.77-5.75-26.67-8.58h0l-1.76-.56A16.34,16.34,0,0,1,70,749a34.18,34.18,0,0,1-5.22,3.24c-1.68.88-1.65,1.72-1.31,3.44,1.2,6.06,6.06,9.35,9.75,13.52,1.71,1.92,3.7,3.59,5.43,5.5a8.89,8.89,0,0,0,5.18,2.63c3.84.7,7.74,1.12,11.62,1.67,1,.14,2.1.17,2.59,1.34l4.42.37a10.9,10.9,0,0,0,1-5.58,24.7,24.7,0,0,1,.07-2.58c.38-3.78-.61-8.35,1.21-11.15s6.9-2.36,10.43-3.72c.08-.18.15-.37.22-.55.18-.72.34-1.45.47-2.17h0c.18-1,.32-1.93.43-2.89,0-.24,0-.47.08-.7.06-.57.11-1.14.16-1.72.06-.79.11-1.59.16-2.39s.09-1.48.13-2.22c.11-1.84.22-3.68.43-5.52.15-1.42,0-2.88.73-4.21.33-3.59,2-6.82,2.77-10.3.68-3,2-5.95,2.3-9.1-4.1,3.49-8.22,7-12.3,10.48a6.13,6.13,0,0,0-.8.81,3.28,3.28,0,0,0-.53.87C107.37,733.25,104.84,738.3,103.78,743.67Z" transform="translate(24.09 -452.95)"/><path class="cls-27" d="M118,735.34c2,2.33,1.84,5.37,2.67,8.06.61,2,1.52,2.53,3.32,2,6.36-1.78,13.06-2,19.34-4.1,2.63-.89,2.71-3.83,4.05-5.76,3.63-5.22,4.8-11.63,7.89-17.14,1-1.75-.66-2-1.69-2.6a7.14,7.14,0,0,0-3-.72c-6.37-.67-12.77-1.19-19.1-2.13-3.51-.52-6.28.08-8.43,3-.31,3.15-1.62,6-2.3,9.1C120,728.52,118.28,731.75,118,735.34Z" transform="translate(24.09 -452.95)"/><path class="cls-26" d="M155.22,718.43c-3.09,5.51-4.26,11.92-7.89,17.14-1.34,1.93-1.42,4.87-4.05,5.76-6.28,2.12-13,2.32-19.34,4.1-1.8.5-2.71-.06-3.32-2-.83-2.69-.72-5.73-2.67-8.06-.7,1.33-.58,2.79-.73,4.21-.21,1.84-.32,3.68-.43,5.52,0,.74-.08,1.48-.13,2.22s-.1,1.6-.16,2.39c0,.58-.1,1.15-.16,1.72,0,.23,0,.46-.08.7-.11,1-.25,1.93-.43,2.89h0c-.13.72-.29,1.45-.47,2.17h0a7.5,7.5,0,0,0,4.57-.56c.66-.24,1.32-.5,2-.72l1.06-.31c2.49-.65,5.11-.89,7.37-2.27a1,1,0,0,1,1.29-.44l.21.08a2.54,2.54,0,0,1,.4-.68l.16-.17a1.51,1.51,0,0,1,.34-.24l.18-.07a1.78,1.78,0,0,1,.39-.07,3.31,3.31,0,0,1,1.54.42,1.69,1.69,0,0,1,.11-.27,1,1,0,0,1,1.49-.44.94.94,0,0,1,.68-.31,1.46,1.46,0,0,1,.73.2h0c1.3-2.4,3.92-2.3,6-2.68,4.75-.88,7.48-3.19,9.08-7.92,2-6,5.43-11.57,7.52-17.64a1.79,1.79,0,0,1,1.18-1.32q1-2.55,2.06-5.1h0c-3.36-.46-6.7-1.11-10.12-.84C154.56,716.4,156.2,716.68,155.22,718.43Z" transform="translate(24.09 -452.95)"/><path class="cls-40" d="M103,792.47h1.58c-.54-.23-1.08-.45-1.63-.65C103,792,103,792.25,103,792.47Z" transform="translate(24.09 -452.95)"/><path class="cls-29" d="M103,791.82a16,16,0,0,1-.11-2.08v0c0-.91.09-1.84.15-2.76,0-.46.06-.92.07-1.39,0-.23,0-.46,0-.69,0-.46,0-.92,0-1.38a10.33,10.33,0,0,0-.59-2.75l-4.42-.37-13.54-.46-5.58-.18c-.87,2.48-2.07,4.85-3,7.32a20.47,20.47,0,0,0-1.19,4.6,1.73,1.73,0,0,1-.12.46,1.25,1.25,0,0,1-.21.35H103c0-.22,0-.43,0-.65Zm-2.82-10.24a1.24,1.24,0,0,1,.27,0,.66.66,0,0,1,0,.23,1.34,1.34,0,0,1-.28,0C100.13,781.73,100.12,781.59,100.15,781.58Z" transform="translate(24.09 -452.95)"/><path class="cls-35" d="M53.55,771.77h0l2-2.88a3,3,0,0,1,.25-2.21,2.39,2.39,0,0,1,.92-.89c.9-.5,1.64.33,2,1.25,5.08,4.35,11.44,6.64,16.81,10.53,1.09.78,2.27,1.45,3.41,2.17l5.58.18,13.54.46c-.49-1.17-1.58-1.2-2.59-1.34-3.88-.55-7.78-1-11.62-1.67a8.89,8.89,0,0,1-5.18-2.63c-1.73-1.91-3.72-3.58-5.43-5.5-3.69-4.17-8.55-7.46-9.75-13.52-.34-1.72-.37-2.56,1.31-3.44A34.18,34.18,0,0,0,70,749a16.34,16.34,0,0,0,2.65-2.61l1.76.56c-.6-1-1.19-2.11-1.78-3.16a14.89,14.89,0,0,0-4.23-.92c-5.64-.58-11.26-1.43-16.91-1.86-5.83-.44-11.58-1.78-17.47-1.67-.37,2.14,1,3.57,2,5.24a40.51,40.51,0,0,1,1.7,4.2h0a3.11,3.11,0,0,1,1.63,2.67h0l6.13,10.33c-.5.63-1,1.25-1.51,1.86-.68.82-1.4,1.64-1.09,2.75.87,3.18,1.47,6.43,2.37,9.6a33.81,33.81,0,0,0,1.88,5.18Zm3-7.17a2.53,2.53,0,0,1-.72-2.86l-.19-.82.29-.06c0,.29-.06.58-.08.87h0a1.63,1.63,0,0,1,.95,1.53A4.57,4.57,0,0,1,56.54,764.6Zm-10.37,9c-.24-.84.32-1.93,0-2.73-1.92-5.43.49-9.24,4.3-12.76,1.3-1.2,2.14-1.48,2.61.31.69,2.61,2.45,5.28.18,7.74-.82,3.48-3.39,5.58-5.23,8.14C47,775.75,46.37,774.3,46.17,773.61Z" transform="translate(24.09 -452.95)"/><path class="cls-31" d="M74.76,791.66a20.47,20.47,0,0,1,1.19-4.6c.91-2.47,2.11-4.84,3-7.32l5.58.18h0l-5.58-.18c-1.14-.72-2.32-1.39-3.41-2.17-5.37-3.89-11.73-6.18-16.81-10.53-1.83-.72-2.45.68-3.19,1.85l-2,2.88h0l-6.45,9.45A33.81,33.81,0,0,1,45.22,776c-6.42,4.2-12.84,8.41-19.31,12.55-2.17,1.39-4.46,2.58-6.68,3.88H51.62c0-.08.05-.16.09-.25l6.08-3.44a3.51,3.51,0,0,0,1.2-.2,10.05,10.05,0,0,1,2.44-1,7,7,0,0,1,6.77,2l4.63,2.9h1.6a1.25,1.25,0,0,0,.21-.35A1.73,1.73,0,0,0,74.76,791.66Z" transform="translate(24.09 -452.95)"/><path class="cls-26" d="M68.2,789.57a7,7,0,0,0-6.77-2,10.05,10.05,0,0,0-2.44,1,3.51,3.51,0,0,1-1.2.2l-6.08,3.44,1.27.25H60.1a20.39,20.39,0,0,1,6.81-2.63Q67.56,789.69,68.2,789.57Z" transform="translate(24.09 -452.95)"/><path class="cls-36" d="M51.62,792.47H53l-1.27-.25C51.67,792.31,51.65,792.39,51.62,792.47Z" transform="translate(24.09 -452.95)"/><path class="cls-31" d="M170.46,786.81a21.41,21.41,0,0,0-2.8-3.43,16.37,16.37,0,0,0-5-3.39c-.9-.39-1.79-.83-2.7-1.17a9.2,9.2,0,0,0-2.77-.67,6.38,6.38,0,0,0-2,.19,17.55,17.55,0,0,0-1.91.8,18.07,18.07,0,0,1-5.83,2.12l-.94.52V782h0a.91.91,0,0,1-.61.56h0a1.06,1.06,0,0,1-.3,0,4.07,4.07,0,0,0-.31.67,6,6,0,0,0-.27,1c-.06.3-.09.6-.13.9-.15,1.52-.16,3.08-1.25,4.33a13.64,13.64,0,0,1,.24,3h29.78c-.44-.86-.89-1.72-1.35-2.57C171.73,788.84,171.13,787.81,170.46,786.81Z" transform="translate(24.09 -452.95)"/><path class="cls-36" d="M133.2,773.33a109.7,109.7,0,0,0,10.87,9.34,1.73,1.73,0,0,1,.75-.26,1.7,1.7,0,0,1,.39,0,2.65,2.65,0,0,1,.37.12l.95-.54h0v-.23l.94-.52a18.07,18.07,0,0,0,5.83-2.12,17.55,17.55,0,0,1,1.91-.8,8.27,8.27,0,0,0,.73-6.26c-.26-1.16-.83-2.39-.13-3.61-.12-.27-.23-.55-.35-.82h0l0,0h0l-.17-.38-.18-.43h0v0c0-.48-.09-1-.13-1.43h0c0-.47-.09-.93-.13-1.4h0l-.3-1.47a9.42,9.42,0,0,1-1.36-5.28,29.51,29.51,0,0,0-2.29-9.08c-4.44.69-8.56,2.78-13.09,3.11h0a1,1,0,0,1-1.39.13c-.27.87-.9.9-1.63.7h0a3.45,3.45,0,0,1-3,.82h0l-1.49.35c-2.26,1.38-4.88,1.62-7.37,2.27l-1.06.31c-.65.22-1.31.48-2,.72a7.5,7.5,0,0,1-4.57.56h0c-.07.18-.14.37-.22.55,5.39,3.48,9.64,8.32,14.49,12.44C130.85,771.19,132,772.26,133.2,773.33Z" transform="translate(24.09 -452.95)"/><path class="cls-32" d="M161.59,721.77a1.79,1.79,0,0,0-1.18,1.32c-2.09,6.07-5.48,11.61-7.52,17.64-1.6,4.73-4.33,7-9.08,7.92-2.05.38-4.67.28-6,2.68,4.53-.33,8.65-2.42,13.09-3.11Q156.27,735,161.59,721.77Z" transform="translate(24.09 -452.95)"/><path class="cls-32" d="M155.83,768.5v0c-.7,1.22-.13,2.45.13,3.61a8.27,8.27,0,0,1-.73,6.26,6.38,6.38,0,0,1,2-.19,9.2,9.2,0,0,1,2.77.67h0c.91.34,1.8.78,2.7,1.17-4.44-2-5.62-5.9-6.13-10.24a1.48,1.48,0,0,0-.3-.65c-.15-.21-.32-.42-.45-.63h0Z" transform="translate(24.09 -452.95)"/><path class="cls-32" d="M155.13,766.89h0Z" transform="translate(24.09 -452.95)"/><path class="cls-32" d="M154.88,764.05h0c0,.47.09.93.13,1.4h0c0,.48.09.95.13,1.43h0a3,3,0,0,0,.18-.74.83.83,0,0,0-.3-.67h0a2.23,2.23,0,0,0,.15-.53,1.1,1.1,0,0,0,0-.18.89.89,0,0,0-.29-.68h0a1.17,1.17,0,0,0-.32-1.5Z" transform="translate(24.09 -452.95)"/><path class="cls-38" d="M155.83,768.5v0" transform="translate(24.09 -452.95)"/><path class="cls-38" d="M155.47,767.65c.12.27.23.55.35.82" transform="translate(24.09 -452.95)"/><path class="cls-38" d="M155.14,766.88l.35.81" transform="translate(24.09 -452.95)"/><path class="cls-38" d="M155.13,766.87v0" transform="translate(24.09 -452.95)"/><path class="cls-38" d="M155.13,766.87h0" transform="translate(24.09 -452.95)"/><path class="cls-28" d="M143.64,789.49c.14-2.27.29-4.54.43-6.82h0a109.7,109.7,0,0,1-10.87-9.34c-1.17-1.07-2.35-2.14-3.57-3.17-4.85-4.12-9.1-9-14.49-12.44-3.53,1.36-8.58.87-10.43,3.72s-.83,7.37-1.21,11.15a24.7,24.7,0,0,0-.07,2.58,10.9,10.9,0,0,1-1,5.58l-4.42-.37,4.42.37a10.33,10.33,0,0,1,.59,2.75c0,.46,0,.92,0,1.38,0,.23,0,.46,0,.69,0,.47,0,.93-.07,1.39-.06.92-.13,1.85-.15,2.76v0a16,16,0,0,0,.11,2.08h0c.55.2,1.09.42,1.63.65h39.28A13.64,13.64,0,0,0,143.64,789.49Z" transform="translate(24.09 -452.95)"/><path class="cls-32" d="M131.82,753h0a3.45,3.45,0,0,0,3-.82h0c.73.2,1.36.17,1.63-.7a1,1,0,0,0,1.39-.13,1.46,1.46,0,0,0-.73-.2.94.94,0,0,0-.68.31h0a1,1,0,0,0-1.49.44,1.69,1.69,0,0,0-.11.27h0a3.31,3.31,0,0,0-1.54-.42,1.78,1.78,0,0,0-.39.07l-.18.07a1.51,1.51,0,0,0-.34.24l-.16.17a2.54,2.54,0,0,0-.4.68h0l-.21-.08a1,1,0,0,0-1.29.44Z" transform="translate(24.09 -452.95)"/><path class="cls-34" d="M66.91,789.84a20.39,20.39,0,0,0-6.81,2.63H72.83l-4.63-2.9Q67.55,789.69,66.91,789.84Z" transform="translate(24.09 -452.95)"/><path class="cls-28" d="M100.4,781.82a.66.66,0,0,0,0-.23,1.24,1.24,0,0,0-.27,0s0,.15,0,.23A1.34,1.34,0,0,0,100.4,781.82Z" transform="translate(24.09 -452.95)"/><path class="cls-26" d="M48.06,774.31c1.84-2.56,4.41-4.66,5.23-8.14,2.27-2.46.51-5.13-.18-7.74-.47-1.79-1.31-1.51-2.61-.31-3.81,3.52-6.22,7.33-4.3,12.76.29.8-.27,1.89,0,2.73C46.37,774.3,47,775.75,48.06,774.31Z" transform="translate(24.09 -452.95)"/><path class="cls-32" d="M56.69,765.79a2.39,2.39,0,0,0-.92.89,3,3,0,0,0-.25,2.21c.74-1.17,1.36-2.57,3.19-1.85C58.33,766.12,57.59,765.29,56.69,765.79Z" transform="translate(24.09 -452.95)"/><path class="cls-32" d="M55.84,761.73h0a2.53,2.53,0,0,0,.72,2.86,4.57,4.57,0,0,0,.25-1.34A1.63,1.63,0,0,0,55.84,761.73Z" transform="translate(24.09 -452.95)"/><path class="cls-32" d="M55.84,761.73c0-.29,0-.58.08-.87l-.29.06.19.82Z" transform="translate(24.09 -452.95)"/><path class="cls-33" d="M145.58,782.55a2.65,2.65,0,0,0-.37-.12,1.7,1.7,0,0,0-.39,0,1.73,1.73,0,0,0-.75.26c-.14,2.28-.29,4.55-.43,6.82,1.09-1.25,1.1-2.81,1.25-4.33,0-.3.07-.6.13-.9a6,6,0,0,1,.27-1,4.07,4.07,0,0,1,.31-.67h0a1.06,1.06,0,0,0,.3,0h0a.91.91,0,0,0,.61-.56Z" transform="translate(24.09 -452.95)"/><path class="cls-39" d="M146.54,781.78l.94-.52" transform="translate(24.09 -452.95)"/></g></g></svg>