<svg xmlns="http://www.w3.org/2000/svg" 
  xmlns:xlink="http://www.w3.org/1999/xlink" width="100%" height="100%" viewBox="0 0 1920 489">
  <defs>
    <clipPath id="clip-path">
      <rect width="1920" height="489" fill="none"/>
    </clipPath>
    <clipPath id="clip-path-2">
      <rect id="Rectangle_201" data-name="Rectangle 201" width="1920" height="489" transform="translate(0 10243)" fill="#fff" stroke="#707070" stroke-width="1"/>
    </clipPath>
    <linearGradient id="linear-gradient" x1="0.5" x2="0.5" y2="1" gradientUnits="objectBoundingBox">
      <stop offset="0" stop-color="#145877"/>
      <stop offset="1" stop-color="#172a61"/>
    </linearGradient>
  </defs>
  <g id="Component_3_1" data-name="Component 3 – 1" clip-path="url(#clip-path)">
    <g id="Mask_Group_6" data-name="Mask Group 6" transform="translate(0 -10243)" clip-path="url(#clip-path-2)">
      <g id="Group_96" data-name="Group 96" transform="translate(-143 3527)">
        <path id="Path_117" data-name="Path 117" d="M1920,680.961c-49.837-19.58-63.137-38.028-149.7-26.284-34.638,4.707-49.872,24.212-85.9,26.142-33.459,1.787-55.781-6.754-75.552-11.014-67.065-14.447-133.192-6.249-183.845,13.517-41.284,16.14-93.99,4.158-132.935-6.926-61.367-17.462-170.63,20.682-271.959.447-74.648-14.894-105.781,4.519-160.9,9.389-95.718,8.47-107.344-17.062-203.206-7.272-43.781,4.473-66.005,10.719-109.471,13.015-157.5,8.319-97.1,5.967-182.534,5.967-67.26,0-103.88-21.971-190.141-14.345-85.315,7.552-59.939-23.344-126.61-23.344-12.09,0-28.613.305-47.249.986V931.854H1920Z" transform="translate(0 6228)" fill="#9e8d7d" fill-rule="evenodd"/>
        <path id="Path_118" data-name="Path 118" d="M1542.458,699.585c-40.037-31.751-50.722-61.667-120.267-42.622-27.827,7.633-40.065,39.263-69.008,42.392-26.88,2.9-44.812-10.952-60.7-17.86-53.878-23.428-107-10.134-147.694,21.919-33.166,26.172-75.508,6.742-106.8-11.232-49.3-28.317-137.078,33.539-218.482.725-59.969-24.153-84.981,7.328-129.257,15.226-76.9,13.735-86.236-27.668-163.248-11.793-35.172,7.253-53.026,17.382-87.945,21.105-126.529,13.49-78,9.676-146.641,9.676-54.034,0-83.453-35.629-152.752-23.262C71.133,716.105,91.519,666,37.958,666c-9.713,0-22.987.495-37.958,1.6v438.834H1542.458Z" transform="translate(94.937 6082.133) rotate(9)" fill="#9e8d7d" fill-rule="evenodd"/>
        <path id="Path_119" data-name="Path 119" d="M1542.458,699.585c-40.037-31.751-50.722-61.667-120.267-42.622-27.827,7.633-40.065,39.263-69.008,42.392-26.88,2.9-44.812-10.952-60.7-17.86-53.878-23.428-107-10.134-147.694,21.919-33.166,26.172-75.508,6.742-106.8-11.232-49.3-28.317-137.078,33.539-218.482.725-59.969-24.153-84.981,7.328-129.257,15.226-76.9,13.735-86.236-27.668-163.248-11.793-35.172,7.253-53.026,17.382-87.945,21.105-126.529,13.49-78,9.676-146.641,9.676-54.034,0-83.453-35.629-152.752-23.262C71.133,716.105,91.519,666,37.958,666c-9.713,0-22.987.495-37.958,1.6v438.834H1542.458Z" transform="translate(434.766 6544.842) rotate(-17)" fill="#9e8d7d" fill-rule="evenodd"/>
      </g>
      <g id="Group_97" data-name="Group 97" transform="translate(-143 3642)" opacity="0.63">
        <path id="Path_117-2" data-name="Path 117" d="M1920,680.961c-49.837-19.58-63.137-38.028-149.7-26.284-34.638,4.707-49.872,24.212-85.9,26.142-33.459,1.787-55.781-6.754-75.552-11.014-67.065-14.447-133.192-6.249-183.845,13.517-41.284,16.14-93.99,4.158-132.935-6.926-61.367-17.462-170.63,20.682-271.959.447-74.648-14.894-105.781,4.519-160.9,9.389-95.718,8.47-107.344-17.062-203.206-7.272-43.781,4.473-66.005,10.719-109.471,13.015-157.5,8.319-97.1,5.967-182.534,5.967-67.26,0-103.88-21.971-190.141-14.345-85.315,7.552-59.939-23.344-126.61-23.344-12.09,0-28.613.305-47.249.986V931.854H1920Z" transform="translate(0 6228)" fill="#fbedca" fill-rule="evenodd"/>
        <path id="Path_118-2" data-name="Path 118" d="M1542.458,699.585c-40.037-31.751-50.722-61.667-120.267-42.622-27.827,7.633-40.065,39.263-69.008,42.392-26.88,2.9-44.812-10.952-60.7-17.86-53.878-23.428-107-10.134-147.694,21.919-33.166,26.172-75.508,6.742-106.8-11.232-49.3-28.317-137.078,33.539-218.482.725-59.969-24.153-84.981,7.328-129.257,15.226-76.9,13.735-86.236-27.668-163.248-11.793-35.172,7.253-53.026,17.382-87.945,21.105-126.529,13.49-78,9.676-146.641,9.676-54.034,0-83.453-35.629-152.752-23.262C71.133,716.105,91.519,666,37.958,666c-9.713,0-22.987.495-37.958,1.6v438.834H1542.458Z" transform="translate(172.937 6171.133) rotate(9)" fill="#fbedca" fill-rule="evenodd"/>
        <path id="Path_119-2" data-name="Path 119" d="M1542.458,699.585c-40.037-31.751-50.722-61.667-120.267-42.622-27.827,7.633-40.065,39.263-69.008,42.392-26.88,2.9-44.812-10.952-60.7-17.86-53.878-23.428-107-10.134-147.694,21.919-33.166,26.172-75.508,6.742-106.8-11.232-49.3-28.317-137.078,33.539-218.482.725-59.969-24.153-84.981,7.328-129.257,15.226-76.9,13.735-86.236-27.668-163.248-11.793-35.172,7.253-53.026,17.382-87.945,21.105-126.529,13.49-78,9.676-146.641,9.676-54.034,0-83.453-35.629-152.752-23.262C71.133,716.105,91.519,666,37.958,666c-9.713,0-22.987.495-37.958,1.6v438.834H1542.458Z" transform="translate(635.353 6300.39) rotate(-6)" fill="#fbedca" fill-rule="evenodd"/>
      </g>
    </g>
  </g>
</svg>
