<svg xmlns="http://www.w3.org/2000/svg" viewBox="0 0 123.17 194.95"><defs><style>.cls-1{fill:#c8e9ef}.cls-2{fill:#93d6de}.cls-3{fill:none;stroke:#000;stroke-linecap:round;stroke-miterlimit:10;stroke-width:.75px}.cls-4{fill:#231f20}.cls-5{fill:#fff}.cls-6{fill:#d1ecf2}</style></defs><title>Creature</title><g id="Layer_4" data-name="Layer 4"><path d="M86,191.58c3.32-10.76.41-21.84-7.21-27.62-8-6.05-19.45-5.05-28.14,2.51,0,0,1.61-11.65,10.38-18.82a23.76,23.76,0,0,1,17.28-5.49c.59.05,11,1.11,16.09,10C100.19,162.25,97.23,178.92,86,191.58Z" class="cls-1"/><path d="M59.24,52.72c-16.57-4.27-35.55,3.06-44.45,6.94,0,0-7.75,3.21-9.66,1.18-.64-.68-.16-1.72-1.67-1.41-2.5.5-3.72-1.11-.64-3.16A35,35,0,0,0,8,52.33c4-3.81,6.66-11.31,7.12-14.1,1.9-11.67,34.79-27.77,53-21.54,110.71,37.87,4,145.94,5.34,141.09C91.94,90.74,88.74,60.32,59.24,52.72Z" class="cls-2"/><path d="M28.55,77.9s10.37-35.24,35.92-42l23,22.83C63,46.9,28.55,77.9,28.55,77.9Z" class="cls-2"/><path d="M58.22,15.22A46.1,46.1,0,0,1,101.48,4s-10.84,6.3-11,28.42Z" class="cls-2"/><path d="M20.15,53.66s-7.44,5.51-15.59,5.69" class="cls-3"/><ellipse cx="21.76" cy="41.38" class="cls-4" rx="2.48" ry="3.7" transform="translate(-6.84 4.39) rotate(-9.97)"/><circle cx="21.92" cy="39.62" r=".93" class="cls-5"/><path d="M56.31,45.65c21.21.47,37.69,14.43,36.51,46.7-.4,10.83-2.39,20.27-12.61,37.88,10.18-48.09,4.14-71.13-21-77.6-11.78-3-24.76-.21-34.49,3.07C33.34,50.54,44.75,45.4,56.31,45.65Z" class="cls-1"/><path d="M48.76,79.66s21.59,6.7,39.06-15.53L81.94,34C79.13,61.77,48.76,79.66,48.76,79.66Z" class="cls-2"/><path d="M40.19,22.78c-.24.52,0,.92.52,1.33a2.3,2.3,0,0,0,1.94.47c1.8-.39,3.64-.75,5.3-1.28a31.68,31.68,0,0,1,10.36-1c.91,0,2,.11,1.74-.76s-1.16-1.22-2.15-1.35c-6.63-.88-12.46-.52-16.91,2A6.52,6.52,0,0,0,40.19,22.78Z" class="cls-6"/><path d="M34.11,25.59a1.76,1.76,0,0,0,1.44,1.27c1.09.19,3.16-1.13,1.48-2.25C36.08,24,34,24.34,34.11,25.59Z" class="cls-6"/></g></svg>