<svg xmlns="http://www.w3.org/2000/svg" viewBox="0 0 240.6 115.93"><defs><style>.cls-1{fill:#aceef9;}.cls-2{fill:#045882;opacity:0.5;}.cls-3{fill:#0c020b;stroke:#000;stroke-miterlimit:10;}.cls-4{fill:#fff;}</style></defs><title>Fishes (Daniella)</title><g id="Layer_7" data-name="Layer 7"><path class="cls-1" d="M240.41,3.56c0-14.76-19.91,23-35.09,31.76-6.65,3.83-20.47,9.59-30.68.3C132.35-2.79,40.66-7.62,1.1,52.17-5.43,62,75.57,154.48,172.54,71.45c10.28-8.77,27.4-4.25,33.67,0,12.33,8.34,34.61,56.51,34.2,41.33C240.12,101.87,240.41,7.79,240.41,3.56Z"/><path class="cls-2" d="M11.92,71.46c11.56,11.88,77.58,70.07,160.62,0,10.33-8.72,27.4-4.25,33.67,0,12.33,8.34,34.61,56.51,34.2,41.33-.15-5.42-.15-31.44-.11-56.74l.11-41S231.77,69.28,194,62.84c-20.94-3.57-50.9,18.89-78.47,26C73,99.83,11.92,71.46,11.92,71.46Z"/><ellipse class="cls-3" cx="39.77" cy="45.16" rx="7.85" ry="7.44"/><path class="cls-2" d="M79,64.48S100.62,80,108.29,77.62c8.22-2.59,12.28-14.69,12.28-14.69s-9,6.95-12.84,7.47C98.59,71.63,79,64.48,79,64.48Z"/><ellipse class="cls-4" cx="36.97" cy="42.12" rx="2.05" ry="1.94"/></g></svg>