<svg xmlns="http://www.w3.org/2000/svg" xmlns:xlink="http://www.w3.org/1999/xlink" id="Layer_5_Image" x="0" y="0" enable-background="new 0 0 746.9 569" version="1.1" viewBox="0 0 746.9 569" xml:space="preserve"><style type="text/css">.st0{fill:#cececd}.st1{fill:#a6a6a5}.st2{fill:#a5a5a4}.st3{fill:#060606}.st4{fill:#fecccc}.st5{fill:#fefefe}</style><title>Manatee (SVG)</title><path d="M655.7,561.4c-3.6,3-8,4.8-12.6,5.2c-8.5,0.7-17,1.9-25.5,1.2c-11.1-0.9-21.3-4.4-29.7-11.9	c-4.9-4.4-7.5-10.3-9.5-16.6c-3.5-11-7.1-21.9-10.2-32.9c-1.3-4.8-2.9-9.5-4.8-14.1c4.7-4.9,8.9-10.2,12.8-15.8	c6.4-9.1,11-19.2,15.9-29.1c1.5-3.2,2.9-6.4,4.3-9.7c0.6-1.4,1-3.1-0.2-4c-1.6-1.2-2.4,0.7-3.2,1.6c-9.6,9.6-19.9,18.4-29.3,28	c-3.3,3.4-6.8,6.5-10.6,9.3c-1.2,0.8-3,1.5-3,3.5c-6,2.7-12.3,4.3-18.5,6.2c-15.1,4.6-30.6,7.2-46.2,9.2c-10,1.3-20,2.2-30,2.4	c-25.2,0.7-49.6-4.1-73.8-10.7c-17.3-4.9-34.1-11.3-50.2-19.3c-11.7-5.7-23.5-11.1-35.1-16.8c-7.7-3.8-15.2-8.2-22.3-13	c-5.9-4-12.3-7-18.5-10.3c-52-28.4-88.2-79-98.3-137.5c-1.5-8.7-2.4-17.5-2.6-26.4c6.7-7.4,14-14.2,20.4-21.8	c4.6-5.3,8.8-10.8,12.6-16.6c0.7-1,1.4-2.4,0.3-3.5s-2.4-0.1-3.3,0.7c-3.1,2.7-6.3,5.2-9.7,7.4c-6.9,4.5-14.1,8.5-21.6,11.9	c-8.7,0.4-17.4-0.3-25.9-2.1c-1.6-0.3-2.5,0.4-3.6,1.4c-5.1,5-10.7,9.1-17.5,11.6s-13.7,1.8-20.5-0.4c-4.6-1.4-9-3.1-12.9-6.2	c-3.6-3.1-6.3-7-7.8-11.5c-1-2.7-1.9-5.5-2.8-8.3c-0.3-1.2-1.3-2-2.5-2.1c-11.2-1.6-21.8-6.2-30.5-13.3	c-14.2-11.3-23.3-25.7-26.4-43.7c-2.8-16.2-0.5-31.6,8.3-45.8c5.8-9.5,14.1-17.3,24-22.4c1.5-0.7,2.5-2.1,2.9-3.7	c3.9-13.9,10.2-27,18.8-38.7c10.4-14.3,23.7-26.2,39-35c22.6-13.2,48.9-19,75-16.4c15.7,1.3,30.9,5.9,44.7,13.4	c19.2,10.1,35.1,25.6,45.8,44.5c2.6,4.5,4.8,9.1,6.6,14c0.9,2.6,2.1,2.6,4.2,1.7c6.9-3,14-5.6,21.2-7.7c10.5-3.1,21.3-5.2,32.1-6.5	c7.7-1,15.5-1.5,23.3-1.4c15.1,0.2,30.2,2,44.9,5.5c19.6,4.7,37.7,12.8,55.2,22.5c22.7,12.5,43.5,27.9,64.3,43.1	c9.5,7.1,18.6,14.8,27.2,23c10.9,10.3,21.8,20.6,32.8,30.6c12.8,11.6,24.2,24.5,35.2,37.8c9.8,11.6,19,23.8,27.4,36.5	c6.6,10.2,13.5,20.5,17.1,32.4c3.2,10,5.3,20.3,6.3,30.8c0.9,7.8,1.3,15.7,1.3,23.6c-0.1,7.6,0.1,15.2-1.5,22.7	c-0.7,3.6,1.9,5.4,3.8,7.3c9,9.4,19.2,17.4,30.4,24.1c5.8,3.5,11.5,7.5,18.1,9.4c6.2,1.8,12.2,4.1,18,7c8.9,4.4,14.4,11.3,16.2,21.1	c0.7,4,0,7.9-0.3,11.9c-1.2,13.8-6.3,26.3-12,38.7c-0.8,1.8-1.9,3.5-3.3,5c-6.3-5.9-11.7-12.6-17.4-19c-9.9-11.2-20.3-21.9-31-32.4	c-1.6-1.5-3.4-2.8-5.1-4.2l-0.5,0.6c0.7,0.7,1.3,1.4,2,2.1c6.2,6.1,12.5,12,18.5,18.3c8.9,9.4,17.3,19.2,26.1,28.7	c2.2,2.4,4.9,4.4,6.3,7.4c-0.1,0.4-0.3,0.9-0.5,1.2c-10.3,11.2-19.8,23-31.1,33.2c-0.2-0.8-0.6-1.5-1.3-2c-7-7-14.1-13.8-20.7-21.3	c-4.3-4.9-8.5-9.9-12.8-14.8c-5.9-6.7-11.2-14-17.8-20.1c-0.5-0.5-0.8-1.5-1.9-1c0,0.9,0.7,1.3,1.2,1.8c4.9,4.9,9.6,10.2,13.9,15.6	c11.5,14,23.7,27.4,36.5,40.2c0.6,0.6,1.2,1.4,1.7,2.1c-1.3,2.3-3.5,3.8-5.4,5.5c-10.6,9.4-21.4,18.4-33.3,26	c-0.7-0.6-1.4-1.2-2-1.8c-6.3-6.7-12.5-13.6-18.5-20.6c-8.1-9.3-14.8-19.7-21.1-30.2c-2.7-4.5-5.1-9-7.4-13.9	c-1.1,1.4-0.2,2.4,0.2,3.3c10,19.8,22.9,38.1,38.3,54.1C649.8,554.8,652.8,558.2,655.7,561.4z M347.8,165c-1.9,2.2-0.9,3.6,0.1,4.9	c6.2,8,13.7,14.8,20.6,22.1c9.1,9.7,18.6,19.1,27.4,29.1c6.2,7.2,11.6,14.8,15,23.8c4.2,11.1,3.6,21.7-3.1,31.9	c-5.5,8.5-13.3,14.3-21.9,19.1c-10.1,5.7-21.1,9.6-32.3,12.7c-12.3,3.4-24.9,5.5-37.6,6.3c-7.8,0.3-15.6-0.4-23.2-2.1	c-19.5-4.1-33-15.3-39.8-34.3c-2.5-7.2-4.2-14.6-5.2-22.1c-0.8-5.7-2.8-11.6,0.5-18c-2.1,1-2.7,2.2-2.8,3.7c-0.3,4.6,0,9.2,0.7,13.8	c1.4,7.9,3.1,15.8,4,23.7c0.9,9.3,4.7,18,10.8,25c10.6,12.2,24.6,17.3,40.3,17.8c6.1,0.1,12.1-0.9,17.9-2.8c6.5-2.1,13-4.5,19.7-6.1	c10.6-2.5,21.1-4.9,31.3-8.8c13.2-5.1,25.7-11.4,35.2-22.4c7.7-9,11.3-19.2,8.7-31.2c-1.9-8.7-6-16.3-11.2-23.4	c-8.4-11.6-18.9-21.3-28.5-31.7c-7.1-7.7-14.6-14.9-21.8-22.5C350.6,171.2,348,169.1,347.8,165z M154.8,95.6	c7.6,0.1,13.8-5.9,13.9-13.5c0.1-7.1-5.4-12.3-13-12.3c-6.8,0-13.3,6.5-13.3,13.4c-0.2,6.7,5.1,12.2,11.8,12.4	C154.4,95.6,154.6,95.6,154.8,95.6z M103.8,206.3c-7.8,0.8-16-1.9-24.1-5.1c-3.1-1.2-5.8-2.9-8.8-4.3c-4.2-2.1-8-4.9-11.3-8.4	c-5.7-5.9-9.6-13.1-12.8-20.6c-4.3-9.9-6.5-20.1-4.8-30.9c0.1-0.5,0.2-1.2-0.6-1.3s-0.9,0.7-1,1.4c-0.5,5-1,10,0.1,14.9	c4,18,11,34.4,27.4,44.9c0.7,0.4,1.5,0.8,1.4,1.8c-0.1,3.7,0.3,7.3-1.1,11s-2.5,6.9-5.6,9.3c-0.4,0.3-0.5,0.8-0.2,1.1	c0,0,0,0,0.1,0.1c0.4,0.5,0.8,0.1,1.2-0.2c1.9-1.6,3.4-3.5,4.5-5.7c0.7-1.7,1.4-2.1,3.2-1c5.4,3.4,14,2.8,17.1-5.4	c0.4-1.1,1-1.7,2.2-1.4c6.5,1.3,13.1,1.7,19.6,1.1c7.5-0.6,14.9-1.1,22.3-2.3c1-0.2,1.9-0.5,2.8-0.9c0.5-0.2,1.2-0.8,0.7-1.5	s-1-0.2-1.4,0.2c-0.9,0.6-1.9,1-3,1.1C122.8,205.2,113.9,206.4,103.8,206.3L103.8,206.3z M177.5,119c-4.2-0.2-8,0.6-11,3.6	c-2.5,2.5-1.9,6,1.2,7.7c6,3.2,11.8,2.2,17.2-1.2c2.8-1.8,2.9-5.3,0.6-7.6S180.4,118.9,177.5,119L177.5,119z M61.6,115.7	c-3.9,0-6.2,0.8-7.9,2.9c-1,1.2-1.8,2.6-0.9,3.9s2.9,1.2,4.2,0.4c2.7-1.7,5.2-2.8,8.4-1.4c0.9,0.4,1.6-0.2,2.1-0.9	c0.6-0.9,0.1-1.5-0.4-2.2C65.6,116.9,63.7,115.9,61.6,115.7z M26.4,118.4c-2.1,0-4.1,0.9-5.6,2.4c-0.6,0.6-1.5,1.3-0.8,2.3	c0.5,1,1.7,1.4,2.7,0.9c0,0,0.1,0,0.1-0.1c2.3-1,5-0.5,6.9,1.1c0.3,0.3,0.8,0.5,1.2,0.6c1.3,0.3,2.9,0.8,3.8-0.4s0.3-2.8-0.7-4	C32.2,119.3,29.9,118.4,26.4,118.4L26.4,118.4z" class="st0"/><path d="M550,476c0.1-2,1.8-2.7,3-3.5c3.8-2.8,7.3-5.9,10.6-9.3c9.5-9.6,19.8-18.4,29.3-28c0.8-0.9,1.6-2.8,3.2-1.6	c1.3,1,0.8,2.7,0.2,4c-1.4,3.3-2.8,6.5-4.3,9.7c-4.8,9.9-9.5,20-15.9,29.1c-3.8,5.6-8.1,10.9-12.8,15.8c-2.2-1.3-2.8-3.7-3.7-5.8	c-1.8-4-4.9-6.6-7.8-9.7C551.4,476.3,550.8,476,550,476z" class="st1"/><path d="M153.2,237.9c7.5-3.4,14.7-7.4,21.6-11.9c3.4-2.3,6.6-4.8,9.7-7.4c0.9-0.8,2-1.9,3.3-0.7s0.4,2.4-0.3,3.5	c-3.8,5.8-8.1,11.4-12.6,16.6c-6.4,7.6-13.7,14.5-20.4,21.8c-0.8-0.6-0.5-1.5-0.5-2.3c0.2-5.4-0.5-10.8,0.5-16.1	C154.6,240.1,154.8,238.7,153.2,237.9z" class="st2"/><path d="M696.1,529.2c-0.6-0.7-1.1-1.4-1.7-2.1c-12.8-12.8-25-26.2-36.5-40.2c-4.3-5.5-8.9-10.7-13.9-15.6	c-0.5-0.5-1.2-0.9-1.2-1.8c1.1-0.5,1.4,0.5,1.9,1c6.6,6.1,11.9,13.4,17.8,20.1c4.3,4.9,8.5,9.9,12.8,14.8	c6.5,7.4,13.7,14.3,20.7,21.3c0.6,0.5,1.1,1.2,1.3,2C697,529.1,696.5,529.2,696.1,529.2z" class="st1"/><path d="M655.7,561.4c-3-3.3-5.9-6.6-9-9.8c-15.4-16-28.3-34.3-38.3-54.1c-0.5-0.9-1.3-1.8-0.2-3.3	c2.3,4.9,4.8,9.4,7.4,13.9c6.3,10.6,13,20.9,21.1,30.2c6,7,12.2,13.9,18.5,20.6c0.6,0.7,1.3,1.2,2,1.8	C657,561.6,656.3,561.3,655.7,561.4z" class="st1"/><path d="M728.8,494.2c-1.4-3.1-4.1-5.1-6.3-7.4c-8.8-9.5-17.2-19.3-26.1-28.7c-6-6.3-12.3-12.3-18.5-18.3	c-0.7-0.7-1.3-1.4-2-2.1l0.5-0.6c1.7,1.4,3.5,2.7,5.1,4.2c10.7,10.5,21.1,21.2,31,32.4c5.7,6.4,11.1,13.1,17.4,19	C730,493.4,729.5,494,728.8,494.2z" class="st1"/><path d="M347.8,165c0.2,4.1,2.8,6.2,4.9,8.4c7.2,7.6,14.7,14.9,21.8,22.5c9.7,10.4,20.1,20.1,28.5,31.7	c5.2,7.1,9.3,14.6,11.2,23.4c2.6,12-1,22.2-8.7,31.2c-9.5,11-21.9,17.3-35.2,22.4c-10.2,3.9-20.7,6.3-31.3,8.8	c-6.7,1.6-13.1,4-19.7,6.1c-5.8,1.9-11.8,2.9-17.9,2.8c-15.7-0.5-29.6-5.6-40.3-17.8c-6.1-7-9.9-15.7-10.8-25	c-0.9-8-2.6-15.8-4-23.7c-0.7-4.6-1-9.2-0.7-13.8c0.1-1.5,0.7-2.7,2.8-3.7c-3.3,6.3-1.4,12.2-0.5,18c1,7.5,2.8,14.9,5.2,22.1	c6.8,19,20.3,30.2,39.8,34.3c7.6,1.7,15.4,2.4,23.2,2.1c12.7-0.7,25.3-2.8,37.5-6.3c11.2-3.1,22.2-6.9,32.3-12.7	c8.6-4.8,16.4-10.6,21.9-19.1c6.6-10.2,7.3-20.8,3.1-31.9c-3.4-8.9-8.8-16.6-15-23.8c-8.8-10.1-18.3-19.4-27.4-29.1	c-6.9-7.3-14.4-14.1-20.6-22.1C346.9,168.6,345.9,167.2,347.8,165z" class="st1"/><path d="M154.8,95.6c-6.7,0.1-12.2-5.2-12.4-11.8c0-0.2,0-0.4,0-0.6c0-6.9,6.5-13.4,13.3-13.4c7.6,0,13.1,5.2,13,12.3	C168.6,89.7,162.3,95.7,154.8,95.6z M166,77.7c0.1-2.1-1.6-3.9-3.7-4c-0.1,0-0.3,0-0.4,0c-2.5-0.1-4.5,1.8-4.7,4.2	c-0.1,2.1,1.6,3.9,3.7,4c0.2,0,0.3,0,0.5,0C163.8,82,165.9,80.2,166,77.7z" class="st3"/><path d="M103.8,206.3c10.1,0.1,19-1.1,27.9-2.2c1.1-0.1,2.1-0.5,3-1.1c0.4-0.3,1-0.8,1.4-0.2s-0.2,1.2-0.7,1.5	c-0.9,0.4-1.8,0.7-2.8,0.9c-7.4,1.3-14.9,1.7-22.3,2.3c-6.5,0.5-13.1,0.1-19.6-1.1c-1.2-0.2-1.8,0.3-2.2,1.4	c-3.1,8.1-11.7,8.8-17.1,5.4c-1.8-1.1-2.4-0.8-3.2,1c-1.1,2.2-2.6,4.1-4.6,5.7c-0.3,0.3-0.7,0.7-1.2,0.2c-0.3-0.3-0.3-0.9,0.1-1.2	c0,0,0,0,0.1,0c3.1-2.4,4.3-5.8,5.6-9.3s1-7.3,1.1-11c0-1-0.8-1.3-1.4-1.8c-16.4-10.5-23.3-26.9-27.4-44.9	c-1.1-4.9-0.6-9.9-0.1-14.9c0.1-0.6,0.2-1.4,1-1.4s0.6,0.8,0.6,1.3c-1.7,10.8,0.5,21,4.8,30.9c3.3,7.6,7.1,14.7,12.8,20.6	c3.3,3.4,7.1,6.3,11.3,8.4c2.9,1.4,5.7,3.1,8.8,4.3C87.8,204.3,96,207.1,103.8,206.3z" class="st1"/><path d="M177.5,119c2.9-0.1,5.8,0.1,8,2.4s2.2,5.9-0.6,7.6c-5.5,3.4-11.3,4.4-17.2,1.2c-3.1-1.7-3.7-5.2-1.2-7.7	C169.5,119.6,173.3,118.8,177.5,119z" class="st4"/><path d="M61.6,115.7c2.1,0.2,4,1.2,5.3,2.8c0.6,0.6,1.1,1.3,0.4,2.2c-0.5,0.7-1.2,1.3-2.1,0.9c-3.1-1.4-5.7-0.3-8.4,1.4	c-1.3,0.8-3.2,1.1-4.2-0.4s-0.1-2.8,0.9-3.9C55.4,116.5,57.7,115.7,61.6,115.7z" class="st2"/><path d="M26.4,118.4c3.5,0,5.8,0.9,7.5,3c1,1.2,1.7,2.6,0.7,4s-2.5,0.7-3.8,0.4c-0.4-0.1-0.8-0.3-1.2-0.6	c-1.9-1.7-4.5-2.1-6.8-1.1c-1,0.5-2.2,0.2-2.7-0.8c0,0,0-0.1-0.1-0.1c-0.6-1,0.2-1.7,0.8-2.3C22.3,119.3,24.3,118.4,26.4,118.4z" class="st2"/><path d="M166,77.7c-0.2,2.4-2.2,4.3-4.7,4.2c-2.1,0.2-4-1.4-4.1-3.5c0-0.2,0-0.3,0-0.5c0.1-2.5,2.2-4.3,4.7-4.2	c2.1-0.1,4,1.5,4.1,3.6C166,77.4,166,77.6,166,77.7z" class="st5"/></svg>