<svg xmlns="http://www.w3.org/2000/svg" xmlns:xlink="http://www.w3.org/1999/xlink" viewBox="0 0 239.7 436.77"><defs><style>.cls-1,.cls-16,.cls-19{fill:none;}.cls-2,.cls-5{fill:#8e9bbc;}.cls-3,.cls-5{opacity:0.5;}.cls-4{fill:#5a606b;}.cls-6{fill:#3d4147;}.cls-7{clip-path:url(#clip-path);}.cls-8{fill:#f9ef6b;}.cls-9{fill:#fbf39c;}.cls-10{fill:#732b36;}.cls-11{fill:#9f3f40;}.cls-12{fill:#f16667;}.cls-13{clip-path:url(#clip-path-2);}.cls-14{fill:#e8e625;}.cls-15{fill:#be1e2d;}.cls-16{stroke:#9f3f40;}.cls-16,.cls-19{stroke-miterlimit:10;}.cls-17{fill:#231f20;}.cls-18{fill:#fff;}.cls-19{stroke:#fff;stroke-width:2px;}</style><clipPath id="clip-path" transform="translate(-70.3)"><rect class="cls-1" y="121.59" width="338.5" height="285.23"/></clipPath><clipPath id="clip-path-2" transform="translate(-70.3)"><rect class="cls-1" x="70.3" y="183.03" width="189.14" height="168.23"/></clipPath></defs><title>Cave_w_Octopus_Final</title><g id="Layer_2" data-name="Layer 2"><g id="Layer_2-2" data-name="Layer 2"><path class="cls-2" d="M252,204.67c-1.25-11.84-1.25-44.18-1.25-44.18S254.39,199,278,198.11c12.38-.46,15,26.56,24,35.83h0l.88,29.93c-39.16,36.84-54.51,27.79-55.94,26.73,0,0,.06,0,.06-.05h0s0-.09,0-.13c1-16.29,3.81-38.25,3.81-38.25,0-11.38,3.68-34.84,3.68-45.34C254.5,206,252.09,205.49,252,204.67Z" transform="translate(-70.3)"/><path class="cls-2" d="M310,135.83v101l-.49-77.7,0,0c-11.8,9.5-21.28,14.62-28.9,16.88-.69.22-1.37.4-2,.55l-1,.23c-.63.13-1.26.25-1.86.35l-.95.13-.84.09h-.08l-.69.06-.82,0-.94,0a23.06,23.06,0,0,1-3.06-.19c-.45-.06-.89-.13-1.31-.21-13.24-2.59-16.26-16.67-16.26-16.67l0,0h0a3.67,3.67,0,0,1-.38.27,4.15,4.15,0,0,1-.56.27l-.27.1c-3.62,1.26-10.87-.29-10.87-.29-4.87-1.88-9.87,3.62-9.87,3.62-2,3.12-8.25,1.72-8.25,1.72-8.1-1.93-21.27,5.74-21.74,6h0c-1.6.06-4.47-.68-7-5.74,0,0-7.35-18.12,8-23.25l26.78-13.08s22.65-8.18,39.28,1.63c.43.25.85.51,1.27.79a28.89,28.89,0,0,1,3.36,2.58s3.79-.77,9.11-1.45C289.07,132.5,303.58,131.55,310,135.83Z" transform="translate(-70.3)"/><path class="cls-2" d="M310,277v77.75c-2.88-2.1-6.55-2.25-10.25-1.25h-.17c-1.05-1.39-6.81-8.54-14.25-10.57-5.49-1.49-9.55-11.72-15.11-12.93a40.37,40.37,0,0,1-4.36-1.24c-.75-.25-1.54-.53-2.34-.83l-1.24-.47c-3.44-1.33-7.11-3-10.52-4.57l-1.25-.59-2.4-1.16-.57-.28-1.88-.93-.81-.41c-3.06-1.55-5.29-2.74-6-3.1l-.16-.09-.05,0s0,.15.1.36a1.31,1.31,0,0,1,0,.15c.22.72.63,2.14,1.06,3.84.2.78.39,1.63.57,2.49.12.54.23,1.09.32,1.63.18.93.32,1.85.4,2.72,0,.21.05.42.06.62s0,.21,0,.32,0,.32,0,.48a6.37,6.37,0,0,1,0,1,5.33,5.33,0,0,1-.26,1.52,56.91,56.91,0,0,0-1.66,6.3s0,0,0,0c-.13.56-.25,1.14-.37,1.73-.53,2.5-1,5.15-1.45,7.47l-.12.67q-.17,1-.33,1.86c-.13.7-.24,1.34-.33,1.9,0,.24-.08.47-.12.67s-.05.32-.08.46c-.1.53-.16.88-.19,1h0l-1.83-.16,0,.06c-.09-.07-.61-.4-1.43-1-1.26-.93-3.24-2.41-5.55-4.2a.83.83,0,0,1-.16-.12l-1.26-1-.74-.59-.87-.69-1.4-1.14-.83-.68-.89-.74c-2.84-2.38-5.69-4.9-8.06-7.27a31.5,31.5,0,0,1-4.79-5.75,14.65,14.65,0,0,0-3.39-5l-.29-.29c-.3-.28-.61-.57-.95-.87l-.71-.58-.77-.57a22,22,0,0,0-2.23-1.39c-.48-.27-1-.53-1.54-.78s-1.11-.49-1.71-.71l-1.24-.44-.66-.2c-.44-.14-.89-.26-1.35-.38a37.06,37.06,0,0,0-4.61-.83c-.55-.07-1.12-.13-1.7-.17a61.11,61.11,0,0,0-15.35,1s-12.5,1.18-15.75-2.82c0,0-8.25-4.87-20-.62a8.08,8.08,0,0,1-2.16.35l-.47,0a61.74,61.74,0,0,1-7.21-.32l-.41-.05s-17.58-9.23-19.14-15.12c-5.61-21.22-12-81.26-12-81.26s-6.31-17.31,11.94-26.06c0,0,.46-.22,1.21-.65h0c.92-.31,30.39-10.25,41.63-11.57,3.57-.41,9.83,5.92,9.83,5.92a10.13,10.13,0,0,1,1.31,1.47l.32.45c.19.28.39.6.58.94l.1.2c.11.2.22.41.32.64l.15.34a3.65,3.65,0,0,1,.14.35c.05.12.09.24.13.36a3.53,3.53,0,0,1,.15.46c.06.21.12.42.16.64a1.55,1.55,0,0,1,0,.23c-2.43,1.56-11.35,7-17.91,7,0,0-11.17,3.34-4.5,10.5,0,0,.83,8.25.83,11,0,0-1.33,34.5-1.33,43.67,0,0,2.67,9.17,9.17,8,0,0,42,14.45,57.44,22.6,3.64,2.32,7.1,4.47,10.14,6.15,10.75,5.94,13.25,5.5,13.25,5.5v0c.05-.24.29-1.5.68-3.27l.06-.3c0-.11.05-.21.07-.31.1-.42.19-.86.3-1.32,1.06-4.57,2.72-10.84,4.38-13.26,0,0,9.25-25,5.5-36-.7-2,5-7,5-7s5.12-42.49.87-57.79l2.79-19.72a29,29,0,0,0,1.09-7.73s0,32.34,1.25,44.18c.09.82,2.5,1.34,2.5,2.16,0,10.5-3.68,34-3.68,45.34,0,0-2.81,22-3.81,38.25,0,0,0,.09,0,.13h0s.16,0,.16.05c1.43,1.06,14.84,9.64,54.84-27.2h0c-26,24.26-40.85,28.84-48.43,28.83-.56,0-1.16,0-1.64-.07l-.77-.08-.63-.1-.6-.12-.53-.14c-.16-.05-.33-.09-.48-.15s-.53-.19-.75-.28a6.27,6.27,0,0,1-1.19-.66h0l-.09-.08c0,.49-.08,1-.11,1.44,0,0,0,0,0,0l0,.48c-.05.65-.1,1.28-.14,1.9-.08,1.23-.16,2.41-.22,3.52,0,.28-.14.56-.15.82,0,.81-.21,1.58-.21,2.3v.17c0,.82.17,1.58.17,2.27h.06c1.5,0,30.63-1.4,49.59-12.22l1.18-.69q.58-.34,1.14-.72,1.13-.72,2.19-1.5c.36-.26.71-.53,1.05-.8s.64-.5.95-.77c.63-.52,1.23-1.06,1.81-1.62l.65-.66a27.22,27.22,0,0,0,2.76-3.26c.47-.66.91-1.34,1.31-2,.2-.33.38-.67.55-1S309.82,277.41,310,277Z" transform="translate(-70.3)"/><path class="cls-2" d="M209.85,126.29c-.88,2-5.75,12.75-11.09,15.21,0,0-7.76,2-13.09,12.33,0,0-7.67,15.84-35.67,12.39,0,0-1.17-1.05-2.33,1a54.1,54.1,0,0,1-7.13,5.82c-4.19,2.9-9.84,5.94-15.87,6.76-.91.13-4,.37-4.88-.16s-1.14-2-1.74-3.12c0-.18-.07-.38-.11-.58-.52-2.66-1-6.44-.36-8.2A39.31,39.31,0,0,1,121,163.2s7.71-4.51,11.31-5.32c2.1-.48,11.68-1.88,11.68-5.54,0,0,.17-23.17,26-15.67,0,0,10.67,0,12.5-1.5C182.5,135.17,197,127.93,209.85,126.29Z" transform="translate(-70.3)"/><path d="M246,245.73s-5.7,5-5,7c3.75,11-5.5,36-5.5,36-1.66,2.42-3.32,8.69-4.38,13.26q-.17.69-.3,1.32c0,.2-.09.41-.13.61-.39,1.77-.63,3-.68,3.27v0s-2.5.44-13.25-5.5c-3-1.68-6.5-3.83-10.14-6.15-11.24-7.17-24.22-16-32.11-18.1-39.25-10.25-17.75-71.25-17.75-71.25,4.88-4.3,6.37-8.21,6.37-11.39,0-.25,0-.49,0-.73a6.2,6.2,0,0,0-.06-.62c0-.14,0-.28-.07-.42a2.38,2.38,0,0,0-.05-.26,1.55,1.55,0,0,0,0-.23c0-.22-.1-.43-.16-.64a3.53,3.53,0,0,0-.15-.46c0-.12-.08-.24-.13-.36a3.65,3.65,0,0,0-.14-.35l-.15-.34a5.46,5.46,0,0,0-.32-.64l-.1-.2c-.19-.34-.39-.66-.58-.94l-.32-.45a10.13,10.13,0,0,0-1.31-1.47c4.79-10.66,11.51-15.87,17.58-18.37l14.67-1.88c2.53,5.06,5.4,5.8,7,5.74h0A3.53,3.53,0,0,0,200,172c28-10,46,13.5,46,13.5l.11.23.15.37a17.25,17.25,0,0,1,.61,1.84C251.12,203.24,246,245.73,246,245.73Z" transform="translate(-70.3)"/><path class="cls-3" d="M191.75,166.5l-14.67,1.88A27.81,27.81,0,0,1,191.75,166.5Z" transform="translate(-70.3)"/><path class="cls-4" d="M221.75,390.62c-17.37-2.12-28.63-22.74-28.63-22.74-6.12,2.37-8.12-7.26-8.12-7.26s-2.12-8.37-8.62-13.12c-5-3.65-14.43-11.7-19.55-15.17-1.38-.94-4.79-2.81-6.33-2.16-13,5.42-23.8-14.08-24.09-14.62a61.74,61.74,0,0,0,7.21.32l.47,0c3-.09,14.28-.26,16.78,2.65,1.21,1.4,6.63,3.25,6.63,3.25s17,6.19,21.25,10.25c.25.24.5.5.75.79,3.58,4.09,7.15,12.41,16.5,11.71,2.24-.17,6.85-.67,9,0C218.37,348.69,221.75,390.62,221.75,390.62Z" transform="translate(-70.3)"/><path class="cls-5" d="M285.33,361.46a59.34,59.34,0,0,1,7.14-4.62,60.71,60.71,0,0,0-7.14,4.73c-1.15.88-1.88,1.51-2,1.65A19.67,19.67,0,0,1,285.33,361.46Z" transform="translate(-70.3)"/><path class="cls-5" d="M299.74,353.5c-2.14,1-4.28,1.53-6.28,2.58,1.81-1,3.74-1.58,5.68-2.58Z" transform="translate(-70.3)"/><path class="cls-6" d="M310,88.12v47.71c-6.42-4.28-20.93-3.33-30.48-2.11-5.32.68-9.11,1.45-9.11,1.45a28.89,28.89,0,0,0-3.36-2.58c-.42-.28-.84-.54-1.27-.79.48-.92,1.44-2.81,2.63-5.51l0,0C269.7,125.54,310,102,310,88.12Z" transform="translate(-70.3)"/><path class="cls-4" d="M310,0V88.12c0,13.9-40.3,37.42-41.56,38.15l0,0c6.25-14.14,19-50.4,4.42-84.71,0,0-11.15-21.61,9.5-31.79C288.92,6.55,310,0,310,0Z" transform="translate(-70.3)"/><path class="cls-4" d="M250.75,160.49l-1.09,7.73-2.79,19.72a17.25,17.25,0,0,0-.61-1.84l-.15-.37-.11-.23S228,162,200,172a3.53,3.53,0,0,1-1.24.23c.47-.27,13.64-7.94,21.74-6,0,0,6.25,1.4,8.25-1.72,0,0,5-5.5,9.87-3.62C238.62,160.88,248,162.88,250.75,160.49Z" transform="translate(-70.3)"/><path class="cls-4" d="M250.75,160.49a29,29,0,0,1-1.09,7.73Z" transform="translate(-70.3)"/><path class="cls-4" d="M118.05,176.55a3.81,3.81,0,0,0-.38-.55l.27,0C118,176.17,118,176.37,118.05,176.55Z" transform="translate(-70.3)"/><path class="cls-4" d="M226.5,130.17l-26.78,13.08c-15.32,5.13-8,23.25-8,23.25a27.81,27.81,0,0,0-14.67,1.88c-6.07,2.5-12.79,7.71-17.58,18.37,0,0-6.26-6.33-9.83-5.92C138.43,182.15,109,192.09,108,192.4c2.92-1.69,10.06-6.49,10.55-13.49,0,0-.25-1-.54-2.36.6,1.07,1,2.62,1.74,3.12s4,.29,4.88.16c6-.82,11.68-3.86,15.87-6.76a54.1,54.1,0,0,0,7.13-5.82c1.16-2.08,2.33-1,2.33-1,28,3.45,35.67-12.39,35.67-12.39,5.33-10.33,13.09-12.33,13.09-12.33,5.34-2.46,10.21-13.17,11.09-15.21,6.71-.87,13-.21,16.56,3.77l.05.06Z" transform="translate(-70.3)"/><path class="cls-4" d="M191.75,166.5l-14.67,1.88A27.81,27.81,0,0,1,191.75,166.5Z" transform="translate(-70.3)"/><path class="cls-4" d="M226.41,130.06c-3.58-4-9.85-4.64-16.56-3.77L210,126C220.76,123.69,225.71,129.19,226.41,130.06Z" transform="translate(-70.3)"/><path class="cls-4" d="M206.61,295.6c-15.43-8.15-57.44-22.6-57.44-22.6-6.5,1.17-9.17-8-9.17-8,0-9.17,1.33-43.67,1.33-43.67,0-2.75-.83-11-.83-11-6.67-7.16,4.5-10.5,4.5-10.5,6.56,0,15.48-5.44,17.91-7a2.38,2.38,0,0,1,.05.26c0,.14,0,.28.07.42a6.2,6.2,0,0,1,.06.62c0,.24,0,.48,0,.73,0,3.18-1.49,7.09-6.37,11.39,0,0-21.5,61,17.75,71.25C182.39,279.56,195.37,288.43,206.61,295.6Z" transform="translate(-70.3)"/><path class="cls-6" d="M254,206.83c0,10.5,9.87,26,9.87,37.38,0,0-14.21,28.79-17.11,46.21,0,0,.24.09.24.13h0s0,0,0,.05a.06.06,0,0,1,0,0c-.08.46-.16.91-.22,1.35l-.12,0a59.55,59.55,0,0,0-.64,9v2.61s-9.08,3.58-7.43,12.63c-.22-.59-3.57-10.91-8.57-9.05v0c0-.24.3-1.5.68-3.27,0-.1,0-.2.07-.3s.05-.21.07-.31c.1-.42.19-.86.3-1.32,1.06-4.57,2.72-10.84,4.38-13.26,0,0,9.25-25,5.5-36-.7-2,5-7,5-7s5.12-42.49.87-57.79l2.79-19.72,1.09-7.73s-.25,32.34,1,44.18C251.84,205.49,254,206,254,206.83Z" transform="translate(-70.3)"/><path class="cls-6" d="M236.33,353.77c-.2,1.39-2,13.19-4.33,16.54-3.5,5-10.25,20.31-10.25,20.31S218.37,348.69,205,344.5c-2.15-.67-6.76-.17-9,0-9.35.7-12.92-7.62-16.5-11.71-.25-.29-.5-.55-.75-.79-4.28-4.06-21.25-10.25-21.25-10.25s-5.42-1.85-6.63-3.25c-2.5-2.91-13.81-2.74-16.78-2.65a8.08,8.08,0,0,0,2.16-.35c11.75-4.25,20,.62,20,.62,3.25,4,15.75,2.82,15.75,2.82a61.11,61.11,0,0,1,15.35-1c.58,0,1.15.1,1.7.17a37.06,37.06,0,0,1,4.61.83c.47.12.92.25,1.35.38l.66.2,1.24.44c.6.22,1.17.46,1.71.71s1.06.51,1.54.78a22,22,0,0,1,2.23,1.39l.77.57.71.58c.34.3.65.59.95.87l.29.29a14.65,14.65,0,0,1,3.39,5,31.94,31.94,0,0,0,4.79,5.76c2.37,2.38,5.22,4.9,8.06,7.27,4.73,3.95,9.41,7.48,11.7,9.17l1.43,1.05h0Z" transform="translate(-70.3)"/><path class="cls-6" d="M218.74,408.4a24.1,24.1,0,0,0-.69,2.45A9,9,0,0,1,218.74,408.4Z" transform="translate(-70.3)"/><path class="cls-6" d="M310,354.75v81.64S220,441.5,217.75,414a9.57,9.57,0,0,1,.21-2.51l0,0a4,4,0,0,1,.05-.62,24.1,24.1,0,0,1,.69-2.45c1.35-3.09,5.1-7.63,15.59-7.63.22,0,.47-.27.7-.27h0a13,13,0,0,0,3.41-.25,27.46,27.46,0,0,0,4.53-2,74.31,74.31,0,0,0,15.72-11.92,57.72,57.72,0,0,0,5.16-5.62c4-5.14,19.38-17.5,19.38-17.5l0,0a19.67,19.67,0,0,1,2-1.76,59.34,59.34,0,0,1,7.14-4.62l1-.54a47.7,47.7,0,0,1,5.68-2.58l.48-.17.12-.05h0C303.45,352.5,307.12,352.65,310,354.75Z" transform="translate(-70.3)"/><path class="cls-4" d="M299.62,353.55l-.48.17a47.7,47.7,0,0,0-5.68,2.58l-1,.54a59.34,59.34,0,0,0-7.14,4.62,19.67,19.67,0,0,0-2,1.76l0,0s-15.36,12.36-19.38,17.5a57.72,57.72,0,0,1-5.16,5.62A74.31,74.31,0,0,1,243,398.29a27.46,27.46,0,0,1-4.53,2,13,13,0,0,1-3.41.25h0c-.23,0-.48.27-.7.27-10.49,0-14.24,4.54-15.59,7.63.82-2.87,1.85-5.91,1.89-7.9a72.52,72.52,0,0,1,1.12-9.88s6.75-15.3,10.25-20.31c2.34-3.35,4.13-15.15,4.33-16.54,0,0,0,0,0-.11.24-1.45,2.81-17.08,4.65-22.16,1.31-3.61-2.34-15.2-2.34-15.2s21.08,11.44,31.56,13.7c5.56,1.21,9.62,11.44,15.11,12.93,7.44,2,13.2,9.18,14.25,10.57Z" transform="translate(-70.3)"/><path class="cls-4" d="M299.74,353.72h-.6l.48-.17Z" transform="translate(-70.3)"/><path class="cls-4" d="M247,290.42s0,.09,0,.13h0s0,0,0,.05l-.12-.09v0h0Z" transform="translate(-70.3)"/><path class="cls-4" d="M310,236.88V277c-.18.41-.38.82-.59,1.22s-.36.68-.55,1c-.4.7-.84,1.37-1.31,2a27.22,27.22,0,0,1-2.76,3.26c-.2.22-.43.44-.65.66-.58.56-1.18,1.1-1.81,1.62-.31.27-.63.52-.95.77s-.69.54-1.05.8q-1.06.78-2.19,1.5-.56.38-1.14.72l-1.18.69c-19,10.82-48.2,12.22-49.7,12.22,0-.69-.12-1.45-.12-2.27v-.17c0-.72.17-1.49.21-2.3,0-.27.08-.54.09-.82.06-1.11.17-2.29.25-3.52,0-.62.11-1.25.16-1.9l0-.48,0,0c.06-.44.14-.89.22-1.35a6.27,6.27,0,0,0,1.19.66,7,7,0,0,0,.75.28c.15.06.31.1.47.15s.34.1.53.14.38.09.59.12l.61.1.72.08c.48.05,1.16.07,1.72.07,7.59,0,22.44-4.57,48.44-28.83h0V234h0c-9-9.27-11.64-36.29-24-35.83-23.59.89-27.28-37.62-27.28-37.62s8.45,39.26,58.78-1.31Z" transform="translate(-70.3)"/><path class="cls-4" d="M246.23,303.5c1.5,0,30.63-1.49,49.59-12.31-19,10.87-48.09,12.31-49.59,12.31H246c0-.69.11-1.45.13-2.27C246.13,302.05,246.23,302.81,246.23,303.5Z" transform="translate(-70.3)"/><path class="cls-4" d="M247,290.65c-.08.46-.16.91-.22,1.35,0-.47.07-.95.11-1.44l.09.08Z" transform="translate(-70.3)"/><path class="cls-4" d="M253.39,292.25a15,15,0,0,1-1.55-.07C252.32,292.22,252.83,292.25,253.39,292.25Z" transform="translate(-70.3)"/></g><g id="Layer_3" data-name="Layer 3"><g class="cls-7"><path class="cls-8" d="M231,296.89c1.14,1.45,2.16,3.31,4.62,3.22h.19l.19,0a7.55,7.55,0,0,0,1.32-.29l.3-.1h0l.07,0,.37-.15.48-.2.42-.2c.28-.14.6-.29.94-.49h0l.19-.12.19-.12.23-.15.51-.39c-7.36,2.11-11-10.11-6.23-12.74a2.63,2.63,0,0,0-.62.2c-.17.09-.36.2-.56.33l-.24.19a11.06,11.06,0,0,0-1.92,1.56c-1.82,1.86-3.83,5.26-.48,9.51" transform="translate(-70.3)"/><path class="cls-9" d="M193.2,304.07q0,.76,0,1.56c0,.23,0,.46,0,.7s0,.47,0,.71c0,.71.09,1.45.16,2.2,0,.25.05.5.08.75.05.51.11,1,.17,1.54s.1.76.16,1.16v.05c0,.15,0,.3.07.46.09.61.19,1.25.31,1.91.16.93.34,1.9.54,2.89l.12.62c1.43,7.13,3.8,15.72,8.2,22.62a1.25,1.25,0,0,1,.08.12,29.9,29.9,0,0,0,6.06,7s0,0,0,0h0l.26.2a14.71,14.71,0,0,0,2.52,1.61l.06,0c.41.21.82.39,1.25.56h0a13.46,13.46,0,0,0,1.49.46h0c4.51.18,9.46-1.89,10.95-7.17a2,2,0,0,1-1.21.31c-14.5,0-33.54-58.45,0-62.87h.06a26,26,0,0,1,4.78-.44c10.53.11,11.25,8.26,11.11,9.47a5.33,5.33,0,0,1-.15.74c0,.06,0,.11-.05.16a1.91,1.91,0,0,1-.15.32l-.06.09a.76.76,0,0,0-.08.11L240,292l-.09.08-.08.05-.14.06-.19,0a2.18,2.18,0,0,1-1.38-.55,9.26,9.26,0,0,1-1.39-1.32,3.54,3.54,0,0,1-.86-2,1.5,1.5,0,0,1,0-.2.75.75,0,0,1,.26-.6c.45-.36,1.46-.22,3,1,0,0-1.42-3.27-3.58-3.49a2.1,2.1,0,0,0-.66,0h0s0,0,0,0c-4.76,2.63-1.13,14.85,6.23,12.74h0c1.33-1.13,2.53-3.09,2.19-6.9a18,18,0,0,0-12.75-15.15A44.89,44.89,0,0,0,221,275h0c-11.09.25-27.85,4.66-27.73,29.06" transform="translate(-70.3)"/><path class="cls-10" d="M281.07,279.54v0a.36.36,0,0,0,0-.1.69.69,0,0,1,0,.13" transform="translate(-70.3)"/><path class="cls-11" d="M238.08,299.51h0c0,.06.2.38.48.88.11.18.23.4.36.63a2.55,2.55,0,0,1,.14.24l.09.15a1.88,1.88,0,0,1,.14.24l.15.25a35.78,35.78,0,0,0,3.05,4.41c.14.17.27.32.41.47a5.18,5.18,0,0,0,1.57,1.24s29.87,2.89,36.6-28.49a3,3,0,0,1-.17.51l-.06.14c-.08.15-.16.31-.26.48l-.08.13-.1.16-.11.16a7.29,7.29,0,0,1-.45.61l-.28.35c-6.67,8-32.86,24.22-39.63,16.55h0c-.34.2-.66.35-.94.49l-.42.2-.48.2" transform="translate(-70.3)"/><path class="cls-12" d="M239.93,298.63c6.77,7.67,33-8.59,39.63-16.55l.28-.35a7.29,7.29,0,0,0,.45-.61l.11-.16.1-.16.08-.13c.1-.17.18-.33.26-.48l.06-.14a3,3,0,0,0,.17-.51.69.69,0,0,0,0-.13.36.36,0,0,1,0,.1c.22-1,.42-2.09.59-3.19,1.37-9,1-20.59-2.25-35.42a10.33,10.33,0,0,1-.75-2.41c0-.62.71-1.71.82-2.47-.2.89-2.06,2.18-2.74,1.78a.88.88,0,0,1,0,.23c-.05.21-.41.59-.61.54-.55-.15-1.22-1.47-1.24-2.09s.72-1.69.7-2.34a.68.68,0,0,0,0-.15c-.32-1.11-2.51-2.75-3.56-2.56a5.8,5.8,0,0,0-3.21,3,8.54,8.54,0,0,0-.24,1.45,11.09,11.09,0,0,0-.05,1.77c.05.52.26,1.61.49,3.16h0a70,70,0,0,1,.77,8.74c.29,12.71-3.2,32-26.51,41.34.34,3.81-.86,5.77-2.19,6.9h0l-.51.39-.23.15-.19.12-.19.12Z" transform="translate(-70.3)"/><path class="cls-10" d="M281.07,279.54v0a.36.36,0,0,0,0-.1.69.69,0,0,1,0,.13" transform="translate(-70.3)"/><path class="cls-10" d="M238.56,300.4a4.68,4.68,0,0,0,.61.57l-.52-.69Z" transform="translate(-70.3)"/><path class="cls-11" d="M213,316.06a72.85,72.85,0,0,0,6.17,14.68c3.5,6.09,6.35,8.1,6.35,8.1h0a29.88,29.88,0,0,0-2.22-5.47c-.84-1.62-2.09-3.78-3.41-6.11-2.3-4.09-4.79-8.71-5.58-11.86-1.21-4.81-1-18.81,5.84-8.93.84,1.22,1.93,2.64,3.18,4.19.61.75,1.26,1.54,2,2.35,2.11,2.5,4.52,5.19,6.94,7.78,5.25,5.63,10.57,10.79,13.15,12.52,7.34,4.93,9.4,5,15.76-2-7.73,7.91-26-12-36-24.32-4.14-5.08-6.86-8.88-6.86-8.88l-.41-.41-4.25-3.3c-2.19,7.42-2.3,16.3-.65,21.65" transform="translate(-70.3)"/><path class="cls-11" d="M235.8,288.19a1.5,1.5,0,0,0,0,.2,3.54,3.54,0,0,0,.86,2c1,1.18,2,1.93,2.77,1.87l.19,0c-4.86-4.36-.56-3.66-.56-3.66-2.16-1.64-3.28-1.28-3.28-.37" transform="translate(-70.3)"/><path class="cls-12" d="M213.61,294.37c.27-.54,4.13-8.19,11.07-10.15a13.14,13.14,0,0,1,9.47,1.06l.06,0a2.63,2.63,0,0,1,.62-.2s0,0,0,0h0a2.1,2.1,0,0,1,.66,0c2.16.22,3.58,3.49,3.58,3.49s-4.3-.7.56,3.66l.14-.06.08-.05L240,292,240,292a.76.76,0,0,1,.08-.11l.06-.09a1.91,1.91,0,0,0,.15-.32c0-.05,0-.1.05-.16a5.33,5.33,0,0,0,.15-.74c.14-1.21-.58-9.36-11.11-9.47a26,26,0,0,0-4.78.44h-.06l-.29.05c-5.27,1-8.76,6.34-10.67,12.8" transform="translate(-70.3)"/><path class="cls-12" d="M213.6,294.41l4.25,3.3.41.41s2.72,3.8,6.86,8.88c10,12.32,28.24,32.23,36,24.32.39-.43,7.84-5.44,12.24-6.92a7.44,7.44,0,0,1,1.61-.39c4.93-.53,6.61,2.09,6.72,4.2.16,3.34-.93,10.65-13.75,7.38,0,0,12.29,9,16.24-1.71,7.05-19.11-6.59-24-14.6-21.59-6.28,1.89-9.91,12.74-25.08-4.26a5.18,5.18,0,0,1-1.57-1.24c-.14-.15-.27-.31-.41-.47a35.78,35.78,0,0,1-3.05-4.41l-.15-.25a1.88,1.88,0,0,0-.14-.24l-.09-.15a2.55,2.55,0,0,0-.14-.24c-.13-.23-.25-.45-.36-.63-.28-.5-.45-.82-.48-.88h0l-.37.15-.07,0h0l-.3.1a7.55,7.55,0,0,1-1.32.29l-.19,0h-.19c-2.46.09-3.48-1.77-4.62-3.22-3.35-4.25-1.34-7.65.48-9.51a11.06,11.06,0,0,1,1.92-1.56l.24-.19a5.21,5.21,0,0,1,.5-.35,13.14,13.14,0,0,0-9.47-1.06c-6.94,2-10.8,9.61-11.07,10.15v0h0" transform="translate(-70.3)"/><g class="cls-13"><g class="cls-13"><path class="cls-12" d="M143.07,272a3,3,0,0,1-2.73,1.81c-4.35,3.1-2.74,3-11.91,2.18l0-.18C109,275,93.56,259,90.32,243.78c0,0,17.74-15.56-1.07-32.39-8.33-7.46-17.84,2.09-18.73,6.47-.71,3.45.31,8.33,3.69,10.38h0a9.28,9.28,0,0,0,6.54-.22l-.4.11c3.92-1.48,3.11-7.43,3.11-7.43s1.42,1.55,1.42,2.52c0,.11,0,.22,0,.35a8.34,8.34,0,0,1-.14,1.12,5.9,5.9,0,0,1-.41,1.37l0,0a.45.45,0,0,0-.07.09c-.12.14-.33.42-.6.76h0c-.27.35-.6.77-1,1.2l.08,0-.37.4h0l-2,2.07-3,3.12c-5,5.31-7.82,14.23-2.5,28.52q1.11,3,2.71,6.32c4.16,8.57,15.33,20,27.16,26.46h0l0,0a8.9,8.9,0,0,0,2.64.79c10.82,1.64,34.76-8.8,34.76-8.8s-4,2.8-5.18,4.36c-3.88,5-11,10.09-15.72,8.62a26.49,26.49,0,0,1-7.21-1.08,82.34,82.34,0,0,0-8.93-.9c-7.26,0-22.2-.83-23.93,15.84-.64,6.18,4.36,13.41,13,18.14,3.16,1.73,9.69,3,13.15-1.53,2.79-3.67,2-4.51,4.5-11.49l.27-.73h.11c.45,0,2.21.15,4.6.27,1.17-1,2.09-2.9,2.09-6.57,5.25,1.05,20.89-4.39,21.11-4.47h0c4.54-11.46,10.95-11.61,10.95-11.61,7.55-.39,4.49-6.83,4.49-6.83.42,5.46-2.57,4.19-3.78,3.33-3.54-2.49-.93-7.61,2.13-6.21,6.77,3.09,3,7.86,1.57,9.79-7.9,10.58-9.91,19.34-8.72,26.11,2.63,15,20.94,20.27,25.72,14.15,3.22-7.28,8.13-22.77,9.07-30.79,1.36-11.55,5.36-6.92,6.42-5.09,2.13,3.71,6.32,16,6.45,16.33-.1-.51-.19-1-.27-1.5-.12-.66-.22-1.3-.31-1.91,0-.16,0-.31-.07-.46v-.05c-.06-.4-.11-.79-.16-1.16s-.12-1-.17-1.54c0-.25-.06-.5-.08-.75-.07-.75-.12-1.49-.16-2.2,0-.24,0-.48,0-.71s0-.47,0-.7q0-.79,0-1.56c0-23.69,16.83-28.45,27.73-29.06h0a44.8,44.8,0,0,1,9,.38s1.27-8.58-9-18.33l-10.85-12.52c-2-1.93-2.61-4.67-1.41-6.13s3.77-1.08,5.74.85a6.67,6.67,0,0,1,1.94,3.43,3.35,3.35,0,0,1-.43,2.57c22,16.56,39.46-5.37,43.42-20.77a31.56,31.56,0,0,0-1.69-4.56c-.73-1.62-1.54-3.11-2.28-4.44-8.94-16-37.58-24.38-60.87-15.52A50.62,50.62,0,0,0,181,208.43h0a17.66,17.66,0,0,0-6.51.82h0c-1.75,1.22-2.51,4.08-2.84,6.36a15.41,15.41,0,0,0-.22,3.07c0-1.56,5.56-4.7,5.56-4.7-1.11,1.08-5.11,4.6-8.31,8.29-4.14,6.5-11.81,19.62-11.8,29h0c-2.19,7.73-5.2,9.35-8.14,7.66-6.35-3.66-12.33-22.79-8.69-29.11,0,0,8.7-17.36,9.08-23.25a25,25,0,0,0-11.16-22.43c-3.45-2.4-15.07-1.4-14.22,8.62.19,2.18,1.54,4.18,4,6.12,2.3,1.81,7.59.06,7.59.06s1,5-3,11.3a60.9,60.9,0,0,0-9.51,32.05c0,1.15.89,3.32,1.28,4.78l6,15.37c5,9,8.24,11.32,10.27,11.41.72-.51,1.6-1.11,2.73-1.81m-66-48.72h0c3.22.29,2-.86,2-.86h0a.61.61,0,0,0-.09-.23s-1.06-1.16.58-2l.06,0,0-.36a4.44,4.44,0,0,1,1,3.41,2.23,2.23,0,0,1-3.57.12m77.34,98.21a18.11,18.11,0,0,1-1.31-8.38c0-2.37,3.16-7.9,4.91-9.31,3.3-2.67,2.49,2.64,2.49,2.64l-.13.12c0,.26,0,.56,0,.91-.07,3.56.3,10.3-2.2,14a5.39,5.39,0,0,1-.86,1l9,3.27s-9.54,4.63-12-4.33" transform="translate(-70.3)"/><path class="cls-12" d="M79.66,219.77l0,.36c.13-.07.12-.2,0-.36" transform="translate(-70.3)"/><path class="cls-12" d="M140.34,273.83a3,3,0,0,0,2.73-1.81c-1.13.7-2,1.3-2.73,1.81" transform="translate(-70.3)"/><path class="cls-12" d="M211.51,349.9a25.32,25.32,0,0,1-2.22-1.51,16.73,16.73,0,0,0,2.22,1.51" transform="translate(-70.3)"/><path class="cls-12" d="M211.78,350.06a11.87,11.87,0,0,0,2.52,1.12,5.12,5.12,0,0,0-.92-.39h0a17.56,17.56,0,0,1-1.6-.73" transform="translate(-70.3)"/><path class="cls-12" d="M214.61,351.26l-.29-.07a.87.87,0,0,0,.29.07" transform="translate(-70.3)"/><path class="cls-12" d="M215.05,245.34l.29.56a2.19,2.19,0,0,0,.59-.51,2.35,2.35,0,0,1-.88,0" transform="translate(-70.3)"/></g></g><path class="cls-11" d="M117,318.47c7,.36,19.4.79,20.39-.69,0-.2,0-.31,0-.31a54,54,0,0,1,2.77-10c-.22.08-15.86,5.52-21.11,4.47,0,3.67-.92,5.6-2.09,6.57" transform="translate(-70.3)"/><path class="cls-11" d="M210.19,244.54,221,257.06c1.06,1,13,10.86,33.54-12.74,6.24-7.15,6.48-14,4.87-19.83-4,15.4-21.42,37.33-43.42,20.77l-.1.13a2.19,2.19,0,0,1-.59.51c-1.32.81-3.46.3-5.15-1.36" transform="translate(-70.3)"/><path class="cls-10" d="M215.05,245.34l.29.56a2.19,2.19,0,0,0,.59-.51,2.35,2.35,0,0,1-.88,0" transform="translate(-70.3)"/><path class="cls-9" d="M267.91,335.59c12.82,3.27,13.91-4,13.75-7.38-.11-2.11-1.79-4.73-6.72-4.2a7.44,7.44,0,0,0-1.61.39,12.57,12.57,0,0,1,.42,2.64c.14,3.68-2.33,3.83-3.73,3.68l-.33,0c-5.72-.82-1.78,4.91-1.78,4.91" transform="translate(-70.3)"/><path class="cls-9" d="M162.63,344.68c3.94-.29,7.19-3.79,9.94-8.52-4.78,6.12-23.09.84-25.72-14.15-1.19-6.77.82-15.53,8.72-26.11,1.44-1.93,5.2-6.7-1.57-9.79-3.06-1.4-5.67,3.72-2.13,6.21,1.21.86,4.2,2.13,3.78-3.33,0,0,3.06,6.44-4.49,6.83,0,0-6.41.15-10.95,11.61h0a54,54,0,0,0-2.77,10,.34.34,0,0,1,0,.31c-.43,3.15-3.12,29,25.23,26.9" transform="translate(-70.3)"/><path class="cls-9" d="M112,318.92s2.9,1.29,5-.45c1.17-1,2.09-2.9,2.09-6.57,0-2.58-5.66-7.46-5.83-7.61,0,.25,1.71,8.66-.86,13.91a5,5,0,0,1-.38.72" transform="translate(-70.3)"/><path class="cls-9" d="M75,262.16c-5.32-14.29-2.53-23.21,2.5-28.52C65,236.32,72.77,257,75,262.16" transform="translate(-70.3)"/><path class="cls-14" d="M84.88,223.58a8.34,8.34,0,0,1-.14,1.12c0,.12.05.18.05.18s.06-.5.09-1.3" transform="translate(-70.3)"/><path class="cls-9" d="M76.19,224.88c1.38.28,4.21.9,4.44-1.7a2.23,2.23,0,0,1-3.57.12h0a4,4,0,0,1-1.2-1.32c-.54-.57-.24-2.51,0-3.26,1-2.49,4.75-1.69,5.21-1.53.88.28,1.71,1.87,2.35,3.53,0,0,1.42,1.55,1.42,2.52,0-3.4-.74-10.71-8.7-8.54-2.71.73-4.25,9.32,0,10.19" transform="translate(-70.3)"/><path class="cls-9" d="M79.09,222.43h0a.61.61,0,0,0-.09-.23s-1.06-1.16.58-2a2.68,2.68,0,0,0,.25-.2s-.07,0-.17-.19c-.42-.65-2.41-1.81-2.49-1.56-1.39,4.26,2.06,5.15,1.92,4.22" transform="translate(-70.3)"/><path class="cls-9" d="M124.71,251.94c.22.5.36.77.36.77a36.21,36.21,0,0,1-.06-9.6c1.39-12.29,7.46-25.24,9.41-29.12,1.1-2.19,5.49-11.19,5.39-14.28s-.71-9.45-6.68-10.13c-2.56-.29-4.45,1.72-4.22,3.09.19,1.06,1.93,3,3.26,2.5,0,0,2.89.24.37-3.85-.86-1.4,3.44.47,3.75,2.92a16.16,16.16,0,0,1-.09,2.95v0c-.24,1.63-.89,1.71-.89,1.71v2.56c-1.21,4.24-3.53,10.32-6,14-11.82,17.51-6.18,33-4.6,36.49" transform="translate(-70.3)"/><path class="cls-9" d="M276.31,236.48c0,.33.35.91.43,1.32.68.4,2.54-.89,2.74-1.78V236a.15.15,0,0,0,0-.07v0a.83.83,0,0,0,0-.32c-.19-.46-.89-1.46-1.35-1.39a2.35,2.35,0,0,0-1.23,1.06,3.11,3.11,0,0,0-.56,1.27" transform="translate(-70.3)"/><path class="cls-15" d="M279.48,236a.31.31,0,0,0,0-.1h0a.31.31,0,0,1,0,.1" transform="translate(-70.3)"/><path class="cls-11" d="M269.78,249.58c6.53,3.38,8.62-8,8.62-8s-.24,1-2.09,1.11c-3.71.18-7.75-6.74-7.75-6.74Z" transform="translate(-70.3)"/><path class="cls-11" d="M196.26,228.65c2,3.46,5.33,5.49,10,3.61,4.95-2,9.06-8.3,7.49-11.71s-9.84-3.11-12.83-1.55c-4.78,2.48-5.5,8.08-4.62,9.65" transform="translate(-70.3)"/><path class="cls-12" d="M210.19,244.54c1.69,1.66,3.83,2.17,5.15,1.36,0,0,.55-.46.59-.51l.1-.13a3.35,3.35,0,0,0,.43-2.57,6.67,6.67,0,0,0-1.94-3.43c-2-1.93-4.55-2.31-5.74-.85s-.57,4.2,1.41,6.13" transform="translate(-70.3)"/><path class="cls-16" d="M210.19,244.54c1.69,1.66,3.83,2.17,5.15,1.36,0,0,.55-.46.59-.51l.1-.13a3.35,3.35,0,0,0,.43-2.57,6.67,6.67,0,0,0-1.94-3.43c-2-1.93-4.55-2.31-5.74-.85S208.21,242.61,210.19,244.54Z" transform="translate(-70.3)"/><path class="cls-16" d="M215.34,245.9a2.19,2.19,0,0,0,.59-.51C215.89,245.44,215.34,245.9,215.34,245.9Z" transform="translate(-70.3)"/><path class="cls-10" d="M213.6,294.41l4.25,3.3c-1-1-3.43-3.3-4.25-3.3" transform="translate(-70.3)"/><path class="cls-11" d="M172.57,336.16c.26-.45.52-.91.77-1.39,4.15-7.72,7.11-18,9.59-23.33.46-1,2.35-3,4.09.46,0,0,1.51,3.3,3.84,8,5.43,10.87,15.27,29.17,20.76,30.59a26.53,26.53,0,0,0,2.67.8,22.21,22.21,0,0,1-5-2.87h0s0,0,0,0C201,342.1,196.45,327,194.51,316.62h0c-.13-.38-4.32-12.62-6.45-16.33-1.06-1.83-5.06-6.46-6.42,5.09-.94,8-5.85,23.51-9.07,30.79" transform="translate(-70.3)"/><path class="cls-11" d="M128.39,275.83l0,.18c8.09,2.41,16,.44,22.61-8.54-.7.86-7.81,8.81-18.9-6.21,0,0-4.63-5.76-7.13-18.15a36.21,36.21,0,0,0,.06,9.6s-.14-.27-.36-.77c1,4.45,3.31,10.55,8,18.4,1.45,2.42,1.86,2.87,1.18,4.2-.36.69-2.7,1.28-3.16,1.31h0c-.78,0-1.55,0-2.32,0" transform="translate(-70.3)"/><path class="cls-11" d="M89.11,323.75c10.26,5.24,12.4-13.45,11.49-13.2-9.71,2.73-11.49,13.2-11.49,13.2" transform="translate(-70.3)"/><path class="cls-11" d="M79.83,246.92c4.36,14.37,11.51-4.41,10.55-2.86-1.55,2.47-10.55,2.86-10.55,2.86" transform="translate(-70.3)"/><path class="cls-11" d="M168.69,222.18l0,0-.08.14c3.2-3.69,7.2-7.21,8.31-8.29,0,0-5.56,3.14-5.56,4.7a15.41,15.41,0,0,1,.22-3.07c.33-2.28,1.09-5.14,2.84-6.36-8.79,3.05-6.56,13.4-5.76,12.92" transform="translate(-70.3)"/><path class="cls-10" d="M168.64,222.28l.08-.14,0,0Z" transform="translate(-70.3)"/><path class="cls-11" d="M104.92,295a45.28,45.28,0,0,0,9.29,3.89c3.8.52,7.21,1.08,7.21,1.08,4.74,1.47,11.84-3.6,15.72-8.62,1.2-1.56,5.18-4.36,5.18-4.36s-23.94,10.44-34.76,8.8a8.9,8.9,0,0,1-2.64-.79" transform="translate(-70.3)"/><path class="cls-10" d="M104.88,295l0,0a8.9,8.9,0,0,0,2.64.79Z" transform="translate(-70.3)"/><path class="cls-11" d="M153.09,313.13h0a2.69,2.69,0,0,1,.13-.51c.64-1.53,1.87-2.74,3.74-5.36,0,0,3.08-4.42,3.4-.68l.13-.12s.81-5.31-2.49-2.64c-1.75,1.41-4.91,6.94-4.91,9.31" transform="translate(-70.3)"/><path class="cls-11" d="M150.7,295.88s-10.09,1.18-5.81-7.67c1-2.16,3.35-5.35,5.81-5,0,0-8.8,5.4,0,12.72" transform="translate(-70.3)"/><path class="cls-11" d="M153.44,283.14c-2.9-.55,7.14-1.38,8.68,6.39a16.4,16.4,0,0,1-2.2,12.27s8-15.93-6.48-18.66" transform="translate(-70.3)"/><path class="cls-11" d="M154.4,321.51c2.43,9,12.75,7.26,13.71,3.15.78-3.32-10.78-2.09-10.78-2.09a1.4,1.4,0,0,1-1.91.3,3.57,3.57,0,0,1-1-1.36" transform="translate(-70.3)"/><path class="cls-11" d="M213.61,294.39c4.24-5.6,8.09-7.73,11.11-8.31a8.66,8.66,0,0,1,6.77,1.3,11.06,11.06,0,0,1,1.92-1.56l.24-.19c.2-.13.39-.24.56-.33l-.06,0a13.14,13.14,0,0,0-9.47-1.06c-6.94,2-10.8,9.61-11.07,10.15v0" transform="translate(-70.3)"/><path class="cls-11" d="M274.89,236.48c0,.62.69,1.94,1.24,2.09.2.05.56-.33.61-.54a.88.88,0,0,0,0-.23c-.08-.41-.46-1-.43-1.32a3.11,3.11,0,0,1,.56-1.27h0a4.48,4.48,0,0,0-1.27-1.06c0,.65-.73,1.73-.7,2.34" transform="translate(-70.3)"/><path class="cls-17" d="M201.54,226.8c.42,1.38,2.38,1.92,4.38,1.21s3.3-2.42,2.88-3.8-2.37-1.91-4.38-1.2-3.29,2.42-2.88,3.79" transform="translate(-70.3)"/><path class="cls-18" d="M207.66,225.49a1.93,1.93,0,0,1-1,1.42,2.1,2.1,0,0,1-1.58.46c-.67-.16-.38-1.28.29-1.12-.14,0,.06,0,0,0l.21-.05A2.69,2.69,0,0,0,206,226a2.24,2.24,0,0,0,.38-.29,1.37,1.37,0,0,0,.16-.18c0-.06,0-.08,0,0,.06-.74,1.12-.75,1.07,0" transform="translate(-70.3)"/><path class="cls-8" d="M224.61,344.39a2,2,0,0,0,1.21-.31h0a8.83,8.83,0,0,0-.08-4.14c-.07-.37-.17-.74-.27-1.11h0s-2.85-2-6.35-8.1A72.85,72.85,0,0,1,213,316.06c-1.65-5.35-1.54-14.23.65-21.65h0v0c1.91-6.46,5.4-11.82,10.67-12.8l.29-.05c-33.5,4.42-14.46,62.86,0,62.87" transform="translate(-70.3)"/><path class="cls-18" d="M171.49,285.81c.23,4.66,6.4,4.66,6.63,0a3.51,3.51,0,0,0-3.31-3.61c-1.88-.11-3.22,1.73-3.32,3.61a.11.11,0,1,1-.21,0c.24-4.95,6.81-4.95,7.05,0a3.74,3.74,0,0,1-3.52,3.85c-2,.12-3.43-1.84-3.53-3.85a.11.11,0,1,1,.21,0" transform="translate(-70.3)"/><path class="cls-18" d="M174.81,283.19c0-.56,1.28-.29,1.79.31s1,1.34.52,1.47-.37-.35-1.21-.9c-.38-.25-1.13-.37-1.1-.88" transform="translate(-70.3)"/><path class="cls-18" d="M174.7,283.16c.1-.62,1-.36,1.31-.22a2.24,2.24,0,0,1,.88.74,1.78,1.78,0,0,1,.52,1.08.37.37,0,0,1-.4.34c-.23,0-.44-.32-.59-.47a3.85,3.85,0,0,0-1.22-.78.76.76,0,0,1-.5-.66.11.11,0,1,1,.21,0c0,.47.75.6,1.06.78a5.16,5.16,0,0,1,.92.83c.13.13.22.05.27-.25a2.32,2.32,0,0,0-.24-.47,2.68,2.68,0,0,0-.7-.76c-.22-.16-1.23-.62-1.31-.1,0,.15-.23.09-.21-.06" transform="translate(-70.3)"/><path class="cls-18" d="M172.08,286.64c.14-.29.93.88,1.71,1.35s2,.54,1.83.83-1.55.17-2.33-.3-1.36-1.6-1.21-1.88" transform="translate(-70.3)"/><path class="cls-18" d="M172,286.55c.16-.16.32,0,.47.11a16,16,0,0,0,1.37,1.23c.18.12,2.12.53,1.87,1s-1.77.09-2.15-.09c-.61-.28-1.83-1.3-1.59-2.17a.11.11,0,1,1,.21.06c-.19.69.87,1.59,1.32,1.83a3.6,3.6,0,0,0,1.19.34c.15,0,1.11,0,.62-.16a8.33,8.33,0,0,1-1.73-.69c-.16-.11-1.37-1.33-1.43-1.27s-.25-.06-.15-.17" transform="translate(-70.3)"/><path class="cls-18" d="M108.67,263.91c.23,4.65,6.39,4.65,6.62,0A3.51,3.51,0,0,0,112,260.3c-1.87-.11-3.22,1.73-3.31,3.61a.11.11,0,1,1-.22,0c.25-5,6.81-5,7,0a3.72,3.72,0,0,1-3.52,3.84c-2,.12-3.43-1.84-3.53-3.84a.11.11,0,1,1,.22,0" transform="translate(-70.3)"/><path class="cls-18" d="M112,261.29c0-.57,1.28-.29,1.79.3s1,1.34.53,1.48-.38-.35-1.21-.9c-.39-.26-1.14-.38-1.11-.88" transform="translate(-70.3)"/><path class="cls-18" d="M111.88,261.26c.1-.63,1-.37,1.3-.22a2.14,2.14,0,0,1,.88.73c.21.26.57.7.52,1.08a.38.38,0,0,1-.4.35c-.23,0-.44-.33-.59-.48a3.82,3.82,0,0,0-1.22-.77.77.77,0,0,1-.5-.66.11.11,0,1,1,.22,0c0,.46.74.59,1,.78a4.78,4.78,0,0,1,.92.82c.13.14.22.06.28-.24a1.92,1.92,0,0,0-.25-.47,3,3,0,0,0-.69-.77c-.22-.15-1.23-.61-1.32-.09,0,.15-.23.08-.2-.06" transform="translate(-70.3)"/><path class="cls-18" d="M109.25,264.73c.14-.29.94.89,1.71,1.36s2,.53,1.83.82-1.55.17-2.32-.3-1.37-1.59-1.22-1.88" transform="translate(-70.3)"/><path class="cls-18" d="M109.17,264.65c.16-.16.33,0,.47.1A17.82,17.82,0,0,0,111,266c.18.11,2.12.53,1.88,1s-1.78.08-2.16-.1c-.6-.27-1.83-1.29-1.59-2.17a.11.11,0,0,1,.21.06c-.19.69.88,1.59,1.32,1.84a3.35,3.35,0,0,0,1.2.33c.15,0,1.1,0,.62-.16a8.09,8.09,0,0,1-1.74-.69c-.16-.1-1.37-1.33-1.43-1.27s-.25-.06-.15-.16" transform="translate(-70.3)"/><path class="cls-19" d="M283.26,208.81c0-4.81-3.57-8.7-8-8.7s-8,3.89-8,8.7,3.57,8.71,8,8.71S283.26,213.62,283.26,208.81Z" transform="translate(-70.3)"/><path class="cls-18" d="M275.28,214.93c-.08,1.32-3,.68-4.2-.71s-2.25-3.13-1.21-3.45c.77-.24.87.83,2.82,2.11.9.59,2.65.88,2.59,2.05" transform="translate(-70.3)"/><path class="cls-19" d="M275.28,214.93c-.08,1.32-3,.68-4.2-.71s-2.25-3.13-1.21-3.45c.77-.24.87.83,2.82,2.11C273.59,213.47,275.34,213.76,275.28,214.93Z" transform="translate(-70.3)"/><path class="cls-18" d="M281.65,206.89c-.34.67-2.19-2.07-4-3.16s-4.62-1.26-4.28-1.93,3.63-.4,5.44.7,3.19,3.72,2.84,4.39" transform="translate(-70.3)"/><path class="cls-19" d="M281.65,206.89c-.34.67-2.19-2.07-4-3.16s-4.62-1.26-4.28-1.93,3.63-.4,5.44.7S282,206.22,281.65,206.89Z" transform="translate(-70.3)"/><path class="cls-19" d="M283.26,208.81c0-4.81-3.57-8.7-8-8.7s-8,3.89-8,8.7,3.57,8.71,8,8.71S283.26,213.62,283.26,208.81Z" transform="translate(-70.3)"/><path class="cls-18" d="M275.28,214.93c-.08,1.32-3,.68-4.2-.71s-2.25-3.13-1.21-3.45c.77-.24.87.83,2.82,2.11.9.59,2.65.88,2.59,2.05" transform="translate(-70.3)"/><path class="cls-19" d="M275.28,214.93c-.08,1.32-3,.68-4.2-.71s-2.25-3.13-1.21-3.45c.77-.24.87.83,2.82,2.11C273.59,213.47,275.34,213.76,275.28,214.93Z" transform="translate(-70.3)"/><path class="cls-18" d="M281.65,206.89c-.34.67-2.19-2.07-4-3.16s-4.62-1.26-4.28-1.93,3.63-.4,5.44.7,3.19,3.72,2.84,4.39" transform="translate(-70.3)"/><path class="cls-19" d="M281.65,206.89c-.34.67-2.19-2.07-4-3.16s-4.62-1.26-4.28-1.93,3.63-.4,5.44.7S282,206.22,281.65,206.89Z" transform="translate(-70.3)"/><path class="cls-19" d="M157.18,202.75c0-4.8-3.58-8.7-8-8.7s-8,3.9-8,8.7,3.58,8.71,8,8.71S157.18,207.56,157.18,202.75Z" transform="translate(-70.3)"/><path class="cls-18" d="M149.19,208.87c-.07,1.32-3,.68-4.19-.71s-2.25-3.13-1.21-3.45c.77-.24.87.83,2.82,2.11.9.59,2.65.88,2.58,2.05" transform="translate(-70.3)"/><path class="cls-19" d="M149.19,208.87c-.07,1.32-3,.68-4.19-.71s-2.25-3.13-1.21-3.45c.77-.24.87.83,2.82,2.11C147.51,207.41,149.26,207.7,149.19,208.87Z" transform="translate(-70.3)"/><path class="cls-18" d="M155.57,200.83c-.34.67-2.19-2.07-4-3.16s-4.62-1.26-4.28-1.93,3.63-.4,5.43.7,3.19,3.72,2.85,4.39" transform="translate(-70.3)"/><path class="cls-19" d="M155.57,200.83c-.34.67-2.19-2.07-4-3.16s-4.62-1.26-4.28-1.93,3.63-.4,5.43.7S155.91,200.16,155.57,200.83Z" transform="translate(-70.3)"/><path class="cls-19" d="M157.18,202.75c0-4.8-3.58-8.7-8-8.7s-8,3.9-8,8.7,3.58,8.71,8,8.71S157.18,207.56,157.18,202.75Z" transform="translate(-70.3)"/><path class="cls-18" d="M149.19,208.87c-.07,1.32-3,.68-4.19-.71s-2.25-3.13-1.21-3.45c.77-.24.87.83,2.82,2.11.9.59,2.65.88,2.58,2.05" transform="translate(-70.3)"/><path class="cls-19" d="M149.19,208.87c-.07,1.32-3,.68-4.19-.71s-2.25-3.13-1.21-3.45c.77-.24.87.83,2.82,2.11C147.51,207.41,149.26,207.7,149.19,208.87Z" transform="translate(-70.3)"/><path class="cls-18" d="M155.57,200.83c-.34.67-2.19-2.07-4-3.16s-4.62-1.26-4.28-1.93,3.63-.4,5.43.7,3.19,3.72,2.85,4.39" transform="translate(-70.3)"/><path class="cls-19" d="M155.57,200.83c-.34.67-2.19-2.07-4-3.16s-4.62-1.26-4.28-1.93,3.63-.4,5.43.7S155.91,200.16,155.57,200.83Z" transform="translate(-70.3)"/></g><g class="cls-7"><path class="cls-18" d="M215.22,179.76c.15,5.15,3.72,9,8.44,9.21s8.29-4.32,8.44-9.21a8.93,8.93,0,0,0-8.44-9.2c-4.71-.17-8.3,4.31-8.44,9.2a.54.54,0,1,1-1.07,0c.17-5.78,4.21-10.18,9.51-10.37s9.34,4.87,9.51,10.37a10.07,10.07,0,0,1-9.51,10.37c-5.3.19-9.35-4.86-9.51-10.37a.54.54,0,1,1,1.07,0" transform="translate(-70.3)"/><path class="cls-18" d="M223.36,172.89c.09-1.49,3.37-.77,4.71.79s2.54,3.52,1.37,3.88c-.87.27-1-.93-3.17-2.37-1-.66-3-1-2.91-2.3" transform="translate(-70.3)"/><path class="cls-18" d="M222.85,172.73c.29-1.83,2.69-1.21,3.74-.76a6,6,0,0,1,2.42,2c.62.78,1.56,2,1.42,3.1a1.23,1.23,0,0,1-1.28,1.12c-.71,0-1.27-.87-1.73-1.33a10.13,10.13,0,0,0-3.16-2,2.22,2.22,0,0,1-1.43-2,.54.54,0,1,1,1.07,0c0,1,2,1.39,2.64,1.8A13.58,13.58,0,0,1,229,176.9c.21.22.3.1.29-.37a4.18,4.18,0,0,0-.62-1.16,6.65,6.65,0,0,0-1.73-1.92c-.43-.3-2.9-1.48-3.07-.41-.12.74-1.15.43-1-.31" transform="translate(-70.3)"/><path class="cls-18" d="M225,188.14a7.14,7.14,0,0,1-7.79-3.9c-.31-.67.61-1.26.92-.59a6.13,6.13,0,0,0,6.59,3.37c.67-.15,1,1,.28,1.12" transform="translate(-70.3)"/><path class="cls-18" d="M287,292.09c.15,5.14,3.73,9,8.44,9.2s8.3-4.32,8.44-9.2a8.94,8.94,0,0,0-8.44-9.21c-4.71-.17-8.3,4.32-8.44,9.21a.54.54,0,1,1-1.07,0c.17-5.79,4.21-10.19,9.51-10.37s9.35,4.86,9.51,10.37a10.08,10.08,0,0,1-9.51,10.37c-5.3.18-9.35-4.87-9.51-10.37a.54.54,0,1,1,1.07,0" transform="translate(-70.3)"/><path class="cls-18" d="M295.17,285.21c.08-1.49,3.36-.77,4.71.79s2.53,3.52,1.37,3.88c-.87.27-1-.93-3.18-2.37-1-.66-3-1-2.9-2.3" transform="translate(-70.3)"/><path class="cls-18" d="M294.65,285.05c.29-1.83,2.69-1.21,3.75-.76a6.1,6.1,0,0,1,2.42,2c.62.78,1.56,2,1.42,3.11A1.23,1.23,0,0,1,301,290.5c-.71,0-1.27-.87-1.72-1.33a10.29,10.29,0,0,0-3.17-2,2.24,2.24,0,0,1-1.43-2,.54.54,0,1,1,1.07,0c0,1,2,1.4,2.64,1.8a14,14,0,0,1,2.48,2.21c.2.22.3.1.29-.37a4.49,4.49,0,0,0-.63-1.16,6.9,6.9,0,0,0-1.72-1.92c-.44-.3-2.91-1.48-3.08-.41-.12.74-1.15.43-1-.31" transform="translate(-70.3)"/><path class="cls-18" d="M296.83,300.47a7.18,7.18,0,0,1-7.8-3.91c-.31-.67.61-1.26.92-.59a6.13,6.13,0,0,0,6.59,3.37c.67-.15,1,1,.29,1.13" transform="translate(-70.3)"/><path class="cls-18" d="M88.8,198.14c.16,5.14,3.73,9,8.44,9.2s8.3-4.31,8.45-9.2a8.93,8.93,0,0,0-8.45-9.2c-4.71-.17-8.29,4.31-8.44,9.2a.54.54,0,1,1-1.07,0c.18-5.78,4.21-10.18,9.51-10.37s9.35,4.87,9.51,10.37a10.07,10.07,0,0,1-9.51,10.37c-5.3.19-9.34-4.87-9.51-10.37a.54.54,0,1,1,1.07,0" transform="translate(-70.3)"/><path class="cls-18" d="M97,191.26c.08-1.48,3.36-.76,4.71.8s2.54,3.52,1.37,3.88c-.87.27-1-.93-3.17-2.37-1-.67-3-1-2.91-2.31" transform="translate(-70.3)"/><path class="cls-18" d="M96.43,191.11c.29-1.84,2.69-1.21,3.75-.77a6.27,6.27,0,0,1,2.42,2c.62.78,1.56,2,1.42,3.11a1.24,1.24,0,0,1-1.29,1.12c-.7,0-1.27-.87-1.72-1.34a10.41,10.41,0,0,0-3.16-2,2.26,2.26,0,0,1-1.44-2,.54.54,0,1,1,1.07,0c0,1,2,1.4,2.65,1.81a13.9,13.9,0,0,1,2.47,2.2c.2.23.3.11.29-.36a4.72,4.72,0,0,0-.63-1.17,6.57,6.57,0,0,0-1.72-1.91c-.44-.31-2.91-1.48-3.08-.41-.11.74-1.14.42-1-.31" transform="translate(-70.3)"/><path class="cls-18" d="M98.61,206.52a7.16,7.16,0,0,1-7.79-3.9c-.32-.67.61-1.26.92-.59a6.12,6.12,0,0,0,6.59,3.37c.67-.16,1,1,.28,1.12" transform="translate(-70.3)"/><path class="cls-18" d="M76.41,297.88c.15,5.14,3.72,9,8.44,9.2s8.3-4.31,8.44-9.2a8.94,8.94,0,0,0-8.44-9.21c-4.71-.16-8.3,4.32-8.44,9.21a.54.54,0,1,1-1.07,0c.17-5.78,4.21-10.19,9.51-10.37s9.35,4.87,9.51,10.37a10.08,10.08,0,0,1-9.51,10.37c-5.3.18-9.35-4.87-9.51-10.37a.54.54,0,1,1,1.07,0" transform="translate(-70.3)"/><path class="cls-18" d="M84.55,291c.09-1.49,3.37-.77,4.72.8s2.53,3.52,1.36,3.88c-.87.26-1-.94-3.17-2.37-1-.67-3-1-2.91-2.31" transform="translate(-70.3)"/><path class="cls-18" d="M84,290.85c.29-1.84,2.69-1.21,3.74-.77a6,6,0,0,1,2.42,2c.62.78,1.56,2,1.42,3.11a1.23,1.23,0,0,1-1.28,1.11c-.71,0-1.27-.87-1.72-1.33a10.29,10.29,0,0,0-3.17-2A2.22,2.22,0,0,1,84,291a.54.54,0,1,1,1.07,0c0,1,2,1.4,2.64,1.8A14,14,0,0,1,90.2,295c.21.23.31.1.3-.37a4.66,4.66,0,0,0-.63-1.16,6.61,6.61,0,0,0-1.73-1.91c-.43-.31-2.9-1.48-3.07-.41-.12.73-1.15.42-1-.31" transform="translate(-70.3)"/><path class="cls-18" d="M86.22,306.26a7.18,7.18,0,0,1-7.8-3.91c-.31-.66.61-1.25.92-.59a6.13,6.13,0,0,0,6.59,3.37c.67-.15,1,1,.29,1.13" transform="translate(-70.3)"/><path class="cls-18" d="M249.28,276.49c.23,4.66,6.4,4.66,6.63,0a3.51,3.51,0,0,0-3.32-3.61c-1.87-.11-3.22,1.73-3.31,3.61a.11.11,0,1,1-.21,0c.24-4.95,6.8-4.95,7.05,0a3.74,3.74,0,0,1-3.53,3.85c-2,.11-3.42-1.85-3.52-3.85a.11.11,0,1,1,.21,0" transform="translate(-70.3)"/><path class="cls-18" d="M252.59,273.87c0-.56,1.28-.29,1.8.31s1,1.34.52,1.47-.37-.35-1.21-.9c-.39-.25-1.14-.38-1.11-.88" transform="translate(-70.3)"/><path class="cls-18" d="M252.49,273.84c.1-.63,1-.36,1.31-.22a2.38,2.38,0,0,1,.88.73c.2.27.56.71.51,1.09a.36.36,0,0,1-.39.34c-.24,0-.44-.32-.59-.47a4,4,0,0,0-1.23-.78.75.75,0,0,1-.49-.66.11.11,0,1,1,.21,0c0,.47.75.6,1.06.78a5.46,5.46,0,0,1,.92.82q.18.21.27-.24a1.77,1.77,0,0,0-.25-.47A2.51,2.51,0,0,0,254,274c-.22-.16-1.23-.62-1.31-.1,0,.15-.23.09-.21-.06" transform="translate(-70.3)"/><path class="cls-18" d="M249.86,277.32c.15-.29.94.88,1.71,1.35s2,.54,1.84.82-1.56.18-2.33-.29-1.37-1.6-1.22-1.88" transform="translate(-70.3)"/><path class="cls-18" d="M249.79,277.23c.15-.16.32,0,.46.1a16.09,16.09,0,0,0,1.38,1.24c.17.12,2.11.53,1.87,1s-1.77.08-2.16-.09c-.6-.28-1.82-1.3-1.58-2.18a.11.11,0,1,1,.2.07c-.19.69.88,1.58,1.33,1.83a3.3,3.3,0,0,0,1.19.33c.15,0,1.1,0,.62-.15a8.92,8.92,0,0,1-1.73-.69c-.16-.11-1.37-1.33-1.43-1.27s-.25-.06-.15-.17" transform="translate(-70.3)"/><path class="cls-18" d="M251.84,339.88c.23,4.65,6.4,4.65,6.63,0a3.52,3.52,0,0,0-3.31-3.62c-1.88-.11-3.22,1.73-3.32,3.62a.11.11,0,1,1-.21,0c.25-5,6.81-5,7.05,0a3.73,3.73,0,0,1-3.52,3.84c-2,.12-3.43-1.84-3.53-3.84a.11.11,0,1,1,.21,0" transform="translate(-70.3)"/><path class="cls-18" d="M255.16,337.26c0-.57,1.28-.3,1.79.3s1,1.34.52,1.48-.37-.36-1.2-.9c-.39-.26-1.14-.38-1.11-.88" transform="translate(-70.3)"/><path class="cls-18" d="M255.05,337.23c.1-.63,1-.37,1.31-.22a2.14,2.14,0,0,1,.88.73c.21.26.57.7.52,1.08a.38.38,0,0,1-.4.35c-.23,0-.44-.33-.59-.48a4,4,0,0,0-1.22-.78.76.76,0,0,1-.5-.65.11.11,0,1,1,.21,0c0,.46.75.59,1.06.77a4.83,4.83,0,0,1,.92.83q.19.19.27-.24a1.61,1.61,0,0,0-.24-.47,2.72,2.72,0,0,0-.7-.77c-.21-.15-1.23-.62-1.31-.09,0,.15-.23.08-.21-.06" transform="translate(-70.3)"/><path class="cls-18" d="M252.43,340.7c.14-.29.93.89,1.71,1.35s2,.54,1.83.83-1.55.17-2.32-.3-1.37-1.59-1.22-1.88" transform="translate(-70.3)"/><path class="cls-18" d="M252.35,340.62c.16-.16.32,0,.47.1a17.69,17.69,0,0,0,1.37,1.23c.18.12,2.12.54,1.88,1s-1.78.08-2.16-.1c-.61-.28-1.83-1.29-1.59-2.17a.11.11,0,0,1,.21.06c-.19.69.87,1.59,1.32,1.84a3.58,3.58,0,0,0,1.19.33c.15,0,1.11,0,.63-.16a8.41,8.41,0,0,1-1.74-.69c-.16-.1-1.37-1.33-1.43-1.27s-.25-.06-.15-.16" transform="translate(-70.3)"/><path class="cls-18" d="M218.94,311.91c.23,4.66,6.39,4.66,6.62,0a3.51,3.51,0,0,0-3.31-3.61c-1.88-.11-3.22,1.73-3.31,3.61,0,.15-.23.15-.22,0,.25-5,6.81-5,7.05,0a3.74,3.74,0,0,1-3.52,3.85c-2,.11-3.43-1.84-3.53-3.85,0-.15.21-.15.22,0" transform="translate(-70.3)"/><path class="cls-18" d="M222.25,309.29c0-.56,1.28-.29,1.79.31s1,1.34.52,1.47-.37-.35-1.2-.9c-.39-.25-1.14-.38-1.11-.88" transform="translate(-70.3)"/><path class="cls-18" d="M222.15,309.26c.09-.62,1-.36,1.3-.22a2.24,2.24,0,0,1,.88.74c.21.26.57.7.52,1.08a.37.37,0,0,1-.4.34c-.23,0-.44-.32-.59-.47a3.85,3.85,0,0,0-1.22-.78.76.76,0,0,1-.5-.66c0-.15.21-.15.22,0,0,.47.74.6,1,.78a4.52,4.52,0,0,1,.92.83c.13.13.22.05.27-.25a1.9,1.9,0,0,0-.24-.47,2.68,2.68,0,0,0-.7-.76c-.21-.16-1.23-.62-1.31-.1,0,.15-.23.09-.2-.06" transform="translate(-70.3)"/><path class="cls-18" d="M219.52,312.74c.14-.29.93.88,1.71,1.35s2,.54,1.83.83-1.55.17-2.32-.3-1.37-1.6-1.22-1.88" transform="translate(-70.3)"/><path class="cls-18" d="M219.44,312.65c.16-.16.32,0,.47.1a16,16,0,0,0,1.37,1.24c.18.12,2.12.53,1.88,1s-1.78.09-2.16-.09c-.61-.28-1.83-1.3-1.59-2.17a.11.11,0,1,1,.21.06c-.19.69.87,1.59,1.32,1.83a3.36,3.36,0,0,0,1.19.33c.16,0,1.11,0,.63-.15a9,9,0,0,1-1.74-.69c-.16-.11-1.37-1.33-1.43-1.27s-.25-.06-.15-.17" transform="translate(-70.3)"/><path class="cls-18" d="M213.38,266.24c.23,4.65,6.39,4.65,6.62,0a3.5,3.5,0,0,0-3.31-3.61c-1.87-.11-3.22,1.73-3.31,3.61a.11.11,0,1,1-.21,0c.24-5,6.8-5,7.05,0a3.73,3.73,0,0,1-3.53,3.84c-2,.12-3.43-1.84-3.52-3.84a.11.11,0,1,1,.21,0" transform="translate(-70.3)"/><path class="cls-18" d="M216.69,263.62c0-.57,1.28-.29,1.8.3s1,1.34.52,1.48-.38-.35-1.21-.9c-.39-.26-1.14-.38-1.11-.88" transform="translate(-70.3)"/><path class="cls-18" d="M216.59,263.59c.1-.63,1-.37,1.31-.22a2.27,2.27,0,0,1,.88.73c.2.26.56.7.51,1.08a.37.37,0,0,1-.39.35c-.24,0-.44-.33-.59-.48a4,4,0,0,0-1.23-.77.75.75,0,0,1-.49-.66.11.11,0,1,1,.21,0c0,.46.75.59,1,.78a5.16,5.16,0,0,1,.93.82q.18.21.27-.24a1.63,1.63,0,0,0-.25-.47,3,3,0,0,0-.69-.77c-.22-.15-1.23-.61-1.31-.09,0,.15-.23.08-.21-.06" transform="translate(-70.3)"/><path class="cls-18" d="M214,267.06c.15-.29.94.89,1.71,1.36s2,.53,1.84.82-1.56.17-2.33-.3-1.37-1.59-1.22-1.88" transform="translate(-70.3)"/><path class="cls-18" d="M213.88,267c.16-.16.33,0,.47.1a18,18,0,0,0,1.38,1.24c.17.11,2.11.53,1.87,1s-1.77.08-2.16-.1c-.6-.27-1.82-1.29-1.58-2.17a.1.1,0,1,1,.2.06c-.19.69.88,1.59,1.33,1.84a3.3,3.3,0,0,0,1.19.33c.15,0,1.1,0,.62-.16a8.6,8.6,0,0,1-1.74-.68c-.16-.11-1.36-1.34-1.42-1.28s-.26-.06-.16-.16" transform="translate(-70.3)"/><path class="cls-18" d="M153.12,243.4c.23,4.66,6.39,4.66,6.62,0a3.51,3.51,0,0,0-3.31-3.61c-1.87-.11-3.22,1.73-3.31,3.61,0,.15-.23.15-.22,0,.25-5,6.81-5,7,0a3.74,3.74,0,0,1-3.52,3.85c-2,.11-3.43-1.85-3.53-3.85,0-.15.21-.15.22,0" transform="translate(-70.3)"/><path class="cls-18" d="M156.43,240.78c0-.56,1.28-.29,1.79.3s1,1.35.52,1.48-.37-.35-1.2-.9c-.39-.25-1.14-.38-1.11-.88" transform="translate(-70.3)"/><path class="cls-18" d="M156.33,240.75c.1-.63,1-.36,1.3-.22a2.3,2.3,0,0,1,.88.73c.21.27.57.7.52,1.09a.37.37,0,0,1-.4.34c-.23,0-.44-.32-.59-.47a3.85,3.85,0,0,0-1.22-.78.76.76,0,0,1-.5-.66.11.11,0,1,1,.22,0c0,.47.74.6,1.05.78a4.78,4.78,0,0,1,.92.82c.13.14.22.06.28-.24a2.12,2.12,0,0,0-.25-.47,2.8,2.8,0,0,0-.69-.76c-.22-.16-1.23-.62-1.32-.1,0,.15-.23.09-.2-.06" transform="translate(-70.3)"/><path class="cls-18" d="M153.7,244.23c.14-.29.94.88,1.71,1.35s2,.54,1.83.82-1.55.18-2.32-.29-1.37-1.6-1.22-1.88" transform="translate(-70.3)"/><path class="cls-18" d="M153.62,244.14c.16-.16.33,0,.47.1a16,16,0,0,0,1.37,1.24c.18.12,2.12.53,1.88,1s-1.78.08-2.16-.09c-.6-.28-1.83-1.3-1.59-2.18a.11.11,0,1,1,.21.07c-.19.68.88,1.58,1.32,1.83a3.36,3.36,0,0,0,1.19.33c.16,0,1.11,0,.63-.16a8.38,8.38,0,0,1-1.74-.68c-.16-.11-1.37-1.33-1.43-1.27s-.25-.06-.15-.17" transform="translate(-70.3)"/></g></g></g></svg>