<svg xmlns="http://www.w3.org/2000/svg" viewBox="0 0 332.9 160.45"><defs><style>.cls-1{fill:#f9c0f4;}.cls-2{fill:#cc71cc;}.cls-3{fill:#0c020b;stroke:#000;stroke-miterlimit:10;}.cls-4{fill:#fff;}</style></defs><title>Fishes (Daniella)</title><g id="Layer_2" data-name="Layer 2"><path class="cls-1" d="M332.89,4.7c0-20.5-27.65,32-48.73,44.11-9.24,5.32-28.43,13.32-42.62.42C182.81-4.12,55.47-10.83.51,72.21-8.55,85.9,104,214.31,238.63,99c14.28-12.19,38.06-5.91,46.76,0,17.12,11.58,48.07,78.49,47.5,57.39-.21-7.67-9.89-41-9.83-76.74C323.11,44.89,332.89,7.6,332.89,4.7Z"/><path class="cls-2" d="M15.54,99c16.06,16.5,107.76,97.33,223.09,0,14.35-12.11,38.06-5.91,46.76,0,17.12,11.58,48.07,78.49,47.5,57.39-.2-7.52-9.95-38.25-9.71-69.33.14-17.29-.88-24.48,7.08-68.83,0,0-9.36,77.78-61.85,68.83-29.09-5-70.71,26.24-109,36.12C100.33,138.4,15.54,99,15.54,99Z"/><ellipse class="cls-3" cx="54.23" cy="62.48" rx="10.9" ry="10.34"/><path class="cls-2" d="M108.71,89.31s30,21.6,40.67,18.25c11.43-3.6,17.07-20.41,17.07-20.41s-12.52,9.67-17.84,10.38C135.91,99.25,108.71,89.31,108.71,89.31Z"/></g><g id="Layer_7" data-name="Layer 7"><ellipse class="cls-4" cx="50.09" cy="58.3" rx="2.83" ry="2.68"/></g></svg>