<svg id="Layer_1" data-name="Layer 1" xmlns="http://www.w3.org/2000/svg" xmlns:xlink="http://www.w3.org/1999/xlink" viewBox="0 0 226.92 154.57"><defs><style>.cls-1,.cls-5{fill:#e95086;}.cls-2{fill:#f391bc;}.cls-3{fill:#c8eafb;}.cls-4{fill:url(#linear-gradient);}.cls-5{opacity:0.5;}.cls-6{fill:#f0f4fb;}.cls-7{fill:#f6d0e3;}</style><linearGradient id="linear-gradient" x1="-74.64" y1="-30.52" x2="43.72" y2="-30.52" gradientTransform="matrix(0.67, -0.19, 0.37, 0.92, 123.29, 77.22)" gradientUnits="userSpaceOnUse"><stop offset="0" stop-color="#e95086"/><stop offset="1" stop-color="#e95086"/></linearGradient></defs><title>Submarine (Split)</title><rect class="cls-1" x="18.93" y="95.04" width="27.16" height="5.5"/><path class="cls-2" d="M94.37,43.37,88.25,29.55c-.36-.83-.71-1.66-1.08-2.49A8.56,8.56,0,0,1,91,15.87c2-1.07,4.06-2,5.9-2.89L100,19.3c-1.38.79-2.59,1.55-3.85,2.18a2.66,2.66,0,0,0-1.56,3.28,19.42,19.42,0,0,0,1.15,3.63c1.58,3.42,3.24,6.81,5,10.17.57,1.12.39,1.68-.79,2.17C98.07,41.49,96.34,42.41,94.37,43.37Z"/><path class="cls-3" d="M98.19,11.88,101.65,19a3.74,3.74,0,0,0,1.4-5.08A3.74,3.74,0,0,0,98.19,11.88Z"/><path class="cls-1" d="M96.29,12.91a6.2,6.2,0,0,1,1.29-1.22,5.17,5.17,0,0,1,1.19-.55l3.77,7.74a3.53,3.53,0,0,1-2.81,1Z"/><path class="cls-4" d="M143.53,46.56c-.21-.56-8.58-21.7-8.58-21.7-19.45-4.86-71.9,33.8-71.9,33.8l3,15.28S152.81,71.21,143.53,46.56Z"/><path class="cls-2" d="M29.46,86.29c8.78-18.85,89.71-49.58,89.71-49.58-28.76,18.87,88.58,84.37,88.58,84.37-46.29,33.77-138.29,14.18-178.38-11.52Z"/><path class="cls-5" d="M29.4,102.45l0,7.11c40.09,25.7,132.09,45.29,178.38,11.52,0,0-2.16-1.21-5.81-3.33C154.15,146.12,67.89,127.1,29.4,102.45Z"/><path class="cls-3" d="M205.06,112.13l.1.16a63.28,63.28,0,0,0,4.81-18c3.66-32.58-20.05-58.84-52.62-62.5a55.53,55.53,0,0,0-31.57,5.43C109.4,120.16,205.06,112.13,205.06,112.13Z"/><path class="cls-1" d="M137.58,107.25,112.67,55.88C112.46,71.77,117.52,93.07,137.58,107.25Z"/><path class="cls-1" d="M210.71,121.93c1.31-2.45-2.91-10.29-5.65-9.8a110,110,0,0,1-5.34,10.26C203.25,122.34,210.71,121.93,210.71,121.93Z"/><path class="cls-1" d="M125.78,37.25s0-.07,0-.1-7.43-1.86-9.06-1.42c-2,.52-2.31,5.13-3.12,9.71A58.5,58.5,0,0,1,125.78,37.25Z"/><path class="cls-1" d="M199.72,122.39a66.28,66.28,0,0,0,5.44-10.1l-.1-.16s-95.66,8-79.28-74.88a58.5,58.5,0,0,0-12.17,8.19,66.3,66.3,0,0,0-.94,10.44l24.91,51.37C150.82,116.62,170.6,122.87,199.72,122.39Z"/><path class="cls-6" d="M159,43.09c.64,5,22.93,2.73,33.54,33.58,1.22,3.58,8.22,3.31,7.53-5.35-1.18-14.8-24.4-29.71-24.4-29.71C171.86,38.81,157.67,32.67,159,43.09Z"/><rect class="cls-1" x="13.94" y="79.02" width="8.59" height="37.52" rx="3.25"/><path class="cls-7" d="M65.46,67.15A2.58,2.58,0,0,1,67.74,69a1.94,1.94,0,0,1-1.21,2.41c-2.9,1.41-5.78,2.9-8.84,4-5.64,2.07-9.92,5.57-14,9.38-1,.94-2,2.09-3.63,1a2.28,2.28,0,0,1-.44-3.51c5.7-7.52,13.16-13,23.59-15A21.63,21.63,0,0,1,65.46,67.15Z"/></svg>