<svg id="Layer_1" data-name="Layer 1" xmlns="http://www.w3.org/2000/svg" viewBox="0 0 1641.8 351"><defs><style>.cls-1{fill:#fff;}</style></defs><title>Akamai</title><g id="g842"><g id="g1518"><g id="g1557"><g id="g1402"><path id="path1404" class="cls-1" d="M572.65,340.243C501.88,318.2,449.672,253.231,449.672,175.5c0-78.891,52.208-145.021,125.3-165.9,6.961-2.321,5.8-6.961-3.481-6.961C475.2,2.636,397.465,80.367,397.465,175.5S475.2,348.364,571.489,348.364c9.282,0,9.282-5.8,1.161-8.121"/></g><g id="g1406"><path id="path1408" class="cls-1" d="M482.982,215.584c0-4.641-1.16-9.282-1.16-13.922,0-75.411,61.488-136.9,136.9-136.9,71.93,0,92.813,32.485,95.133,30.165,3.481-2.321-25.523-66.13-110.215-66.13C529.388,28.8,467.9,90.286,467.9,165.7a141.175,141.175,0,0,0,9.281,49.887c2.32,5.8,5.8,5.8,5.8,0"/></g><g id="g1410"><path id="path1412" class="cls-1" d="M540.392,116.894c35.965-15.082,80.051-16.242,124.137,0,29,10.441,46.407,25.524,47.567,24.363,2.32-1.16-17.4-32.484-52.207-45.246-41.766-17.4-88.173-8.121-121.818,17.4-3.48,3.48-2.32,5.8,2.321,3.48"/></g><g id="g1414"><path id="path1416" class="cls-1" d="M1244.335,181.411c0,9.281-8.121,18.563-18.562,18.563-9.282,0-18.563-8.121-18.563-18.563,0-9.281,8.121-18.562,18.563-18.562a18.325,18.325,0,0,1,18.562,18.562"/></g><path id="path1420" class="cls-1" d="M657.617,282.454l2.32,24.363h38.286L685.461,167.6H628.613l-71.931,139.22h38.286l11.6-24.363ZM655.3,255.77H620.491l30.164-60.328h0Z"/><path id="path1424" class="cls-1" d="M750.43,245.329h5.8L782.914,208.2h34.805L780.594,255.77l23.2,51.048H766.672L751.59,267.372h-5.8l-8.121,39.446H705.183l29-139.22h32.485Z"/><g id="g1428"><g id="g1434"><path id="path1436" class="cls-1" d="M868.169,306.344h32.485l12.762-61.489c6.961-33.644-5.8-38.285-38.286-38.285-23.2,0-45.246,0-51.047,30.164h32.485c0-8.121,5.8-9.281,13.922-9.281,13.922,0,13.922,5.8,11.6,15.082l-3.48,15.082h-1.16c-1.161-11.6-15.083-10.441-24.364-10.441-23.2,0-37.125,6.961-41.766,31.324s6.961,30.164,29,30.164c11.6,0,26.684-2.32,31.325-15.082h1.16Zm-9.281-40.606c10.441,0,17.4,1.16,15.082,9.282-2.32,10.441-6.961,11.6-19.723,11.6-4.64,0-13.922,0-11.6-10.441,2.32-9.282,8.121-10.442,16.242-10.442"/></g><g id="g1438"><path id="path1440" class="cls-1" d="M964.944,208.475l-3.48,13.922h1.16c5.8-11.6,18.563-15.082,30.164-15.082,13.922,0,27.844,2.32,25.524,18.563h1.16c4.641-13.922,18.563-18.563,31.324-18.563,23.2,0,32.485,9.281,27.844,32.484l-13.922,66.13h-32.484l11.6-56.848c2.321-9.282,3.481-17.4-8.121-17.4-12.762,0-17.4,8.121-18.562,19.723l-11.6,55.688H973.065l12.762-59.168c1.16-10.442,2.32-16.243-9.281-16.243-12.762,0-17.4,6.961-19.723,18.563l-11.6,55.688H912.737l20.883-97.454Z"/></g><g id="g1442"><path id="path1444" class="cls-1" d="M1137.992,306.344h32.485l12.762-61.489c6.961-33.644-5.8-38.285-38.286-38.285-23.2,0-45.246,0-51.047,30.164h32.485c2.32-9.281,6.961-10.441,15.082-10.441,13.922,0,13.922,5.8,11.6,15.082l-4.64,16.242h-1.16c-1.161-11.6-15.082-10.441-24.364-10.441-23.2,0-37.125,6.961-41.766,31.324s6.961,30.164,29,30.164c11.6,0,26.684-2.32,31.325-15.082h1.16Zm-9.281-40.606c10.442,0,17.4,1.16,15.082,9.282-2.32,10.441-6.961,11.6-19.723,11.6-4.64,0-13.922,0-11.6-10.441,2.32-9.282,9.281-10.442,16.242-10.442"/></g></g><path id="path1448" class="cls-1" d="M1216.816,306.818h-32.484l20.882-97.454H1237.7Z"/></g></g></g></svg>