<svg id="Layer_1" data-name="Layer 1" xmlns="http://www.w3.org/2000/svg" viewBox="0 0 1177.33 246.49"><defs><style>.cls-1,.cls-2{fill:#fff;}.cls-2{font-size:27.61px;font-family:MyriadPro-Regular, Myriad Pro;}</style></defs><title>Assurant Logo (SVG)</title><path class="cls-1" d="M-397.09-47.08a117.13,117.13,0,0,1,35.8,39.9,7.86,7.86,0,0,1,.19,5.62,486.11,486.11,0,0,1-54.49,113.4,6.63,6.63,0,0,1-4.28,2.74q-13.17,1.19-26.39,1.66a6.33,6.33,0,0,1-4.34-2.4c-3.82-4.83-7.28-9.93-11-14.83-1.48-1.94-1.81-3.37-.29-5.66C-433.57,50.66-411.59,5-398.17-44.58A21.66,21.66,0,0,1-397.09-47.08Z" transform="translate(591.7 70.22)"/><path class="cls-1" d="M-417.37,165a107.39,107.39,0,0,1-33.47,10c-21.12,2.69-21.2,2.59-34.8-13.77A504.31,504.31,0,0,1-545.28,71c-1.43-2.73-1.76-5-.26-7.9,3.62-6.93,6.7-14.14,10.47-21a8.93,8.93,0,0,1,5.59-3.82c5.37-1,10.93-1.1,16.33-2,3.72-.62,5.55.45,7.26,3.91a479.36,479.36,0,0,0,69.62,104.4C-430.26,151.41-423.9,158-417.37,165Z" transform="translate(591.7 70.22)"/><path class="cls-1" d="M-590.69,40.86c.39-10.47,3.1-20.36,6.54-30,7.88-22.18,9.62-23.23,32.89-26.93a536,536,0,0,1,89.54-6.61c6,.06,12,.29,18,.78a6.65,6.65,0,0,1,4.33,2.49c4.92,6.91,9.7,13.94,14.23,21.12a6.87,6.87,0,0,1,.4,5.36c-2.13,5.58-4.88,10.93-7.06,16.51-1.17,3-2.88,3.7-6,3.67-19.63-.21-39.28-.7-58.89-.08-29.87.94-59.29,5.63-88.26,13-1.29.33-2.57.68-3.87.93A6.79,6.79,0,0,1-590.69,40.86Z" transform="translate(591.7 70.22)"/><path class="cls-1" d="M-566.22-21.72c10.82-14,23-24.77,37.48-32.52,39.82-21.25,79.85-21.25,119.86-.35,2.15,1.12,4.58,1.94,3.46,5.46C-410-34.74-414.37-20.3-418.89-5.68l-49-63.62c-8.37,10-16.49,18.18-22.81,27.6C-496.84-32.56-504-29-515.07-28.46c-15.37.71-30.63,4-45.94,6.17C-562.31-22.1-563.62-22-566.22-21.72Z" transform="translate(591.7 70.22)"/><path class="cls-1" d="M-574.19,114c11.6,2.07,22.3,5,33.14,5.66,11.52.75,19.14,4.93,25.53,15,8.36,13.14,18.94,24.85,28.58,37.18.68.88,1.41,1.72,2.12,2.58l-.56,1.32c-8.23-2.21-16.63-3.92-24.66-6.7C-557.82,152.44-591,106.33-591.7,56.09c-.06-4.07.76-6.23,5.2-7.12,14.14-2.87,28.19-6.17,43-9.46C-549.35,52.44-555,64.24-560,76.33S-569.27,100.85-574.19,114Z" transform="translate(591.7 70.22)"/><path class="cls-1" d="M-409.86,161.1l-32.28-35.5,79.52-10.67c-4.8-13.05-8.18-24.91-13.5-35.84-4.17-8.58-3.28-15.26.69-23.55,7.11-14.8,12.67-30.35,18.88-45.58.48-1.18.93-2.37,1.47-3.76C-330.63,60.68-353.2,131.67-409.86,161.1Z" transform="translate(591.7 70.22)"/><path class="cls-1" d="M398.51,62V8.66h15v92.26l-57.7-57.73-1.35.68v53.8H339.15v-92l57.59,57.61Z" transform="translate(591.7 70.22)"/><path class="cls-1" d="M198.23,97.57c-1,.26-1.16.33-1.32.34-16.48.75-16.48.75-26.23-12.58Q163.3,75.25,156,65.16c-3.48-4.77-3.47-4.77-10.35-4V97.68H130.09V8.28c13.53.33,27-1.5,40.17,2.25,11.16,3.19,18,11.63,18.72,22.11s-4.7,19.08-15.1,24.25c-1.16.57-2.34,1.11-4.1,1.94ZM145.76,49.69c6.88-1,13.19-1.43,19.2-3,5.67-1.48,8.6-6.53,8.39-12.15s-3-9.94-8.79-11.32c-6-1.44-12.27-1.82-18.8-2.72Z" transform="translate(591.7 70.22)"/><path class="cls-1" d="M74.83,8.51H89.7c.27.38.61.64.6.9-.13,20,.94,40-.77,59.85C87.69,90.68,72.56,102,51,101c-20.11-1-33.93-13-35.16-33.11-1.19-19.56-.26-39.25-.26-59.25H31.5V14c0,16-.06,32,.05,48a42.75,42.75,0,0,0,1.05,9.38C34.85,81,41.18,86,51.51,86.76c9.71.7,17.64-4,20.7-13A42,42,0,0,0,74.28,61c.25-17,.13-34,.16-50.95A9.26,9.26,0,0,1,74.83,8.51Z" transform="translate(591.7 70.22)"/><path class="cls-1" d="M-255.35,76c-2.08,6.37-4.25,12.48-6,18.7-.73,2.58-1.89,3.47-4.5,3.35-4-.19-8,0-12.44,0,9.74-33.59,23.8-64.67,44.56-93.22C-212.95,32.94-199.1,64.09-189,98c-4.92,0-9.48.16-14-.12-1-.07-2.29-1.58-2.7-2.7-1.92-5.31-3.43-10.77-5.45-16-.5-1.3-2.31-3-3.55-3C-228.16,75.92-241.63,76-255.35,76Zm37.29-14.21c-5.11-10.64-9.88-20.6-14.66-30.56l-1.94.23-14.19,30.33Z" transform="translate(591.7 70.22)"/><path class="cls-1" d="M308.43,97.83H292.76c-2.05-6.09-4.29-12.29-6.18-18.59-.77-2.55-2-3.32-4.57-3.29q-18.22.18-36.45,0c-2.7,0-3.76,1-4.49,3.42-1.83,6-3.92,12-6,18.33h-15.7c9.59-33.49,23.79-64.55,44.49-93C284.61,33.22,298.65,64.35,308.43,97.83Zm-29-36L264.78,31.13l-1.76.08L248.65,61.8Z" transform="translate(591.7 70.22)"/><path class="cls-1" d="M-164.2,78.69c5.29,2.38,9.93,5.41,15,6.48,5.49,1.17,11.71,1.78,17,.36,8.85-2.37,11.26-12.13,5.33-19.2-2.4-2.86-5.73-5-8.87-7.16-4.68-3.18-9.73-5.83-14.34-9.09-10.93-7.72-14.71-17.51-11.3-28.4,3-9.73,12.52-16.45,25-16.22,6.68.12,13.33,2.24,20,3.57,3.12.62,4.21,2.57,3.74,5.8s-.41,6.27-.6,9.87c-4.28-1.75-8.06-3.95-12.12-4.81-4.58-1-9.65-1.74-14.1-.77C-147.95,21-150,29.51-143.73,35.58c2.71,2.63,6.12,4.55,9.3,6.67,4.71,3.13,9.71,5.86,14.21,9.26,10.94,8.26,14.72,18.89,11.35,30.6-3.07,10.65-12.44,18.25-25.72,18.54-8.3.18-16.69-2-24.93-3.71-1.52-.31-3.25-3.06-3.59-4.91C-163.89,87.81-163.87,83.44-164.2,78.69Z" transform="translate(591.7 70.22)"/><path class="cls-1" d="M-75.59,78.48c4.51,2.2,8.42,4.35,12.51,6,6.13,2.53,12.5,3.65,19,1.46,9.37-3.16,12.09-13.18,5.26-20.33-2.93-3.07-6.79-5.28-10.32-7.74-5.46-3.79-11.3-7.09-16.42-11.28-7.55-6.17-9.69-14.55-7.36-23.87,2.41-9.63,9.38-14.66,18.63-16.66,9.41-2,18.57-.5,27.29,3.33a5.63,5.63,0,0,1,2.72,3.94,111.15,111.15,0,0,1,.13,11.51c-4.76-1.94-8.72-4.18-13-5.11s-9.31-1.63-13.64-.73c-8.31,1.72-10.5,10.54-4.42,16.52a52.23,52.23,0,0,0,8,5.86c5.27,3.48,10.88,6.5,15.87,10.33C-20.49,60-16.86,70.45-20.28,82-24,94.44-33.48,99.38-45.34,100.77a51.16,51.16,0,0,1-25.9-3.83c-1.3-.54-3-2-3.11-3.18C-75,88.87-75.2,83.9-75.59,78.48Z" transform="translate(591.7 70.22)"/><path class="cls-1" d="M445.68,22.23V8.59h75.65V22h-29.4v75.6H475.81V22.23Z" transform="translate(591.7 70.22)"/><path class="cls-1" d="M585.62,26.72a17.36,17.36,0,0,1-17.75,17.61c-10.19,0-17.83-7.82-17.72-18.16.1-10.13,7.61-17.53,17.77-17.52C578.26,8.65,585.71,16.26,585.62,26.72ZM568,41.24a14.82,14.82,0,0,0,14.7-15.07A14.57,14.57,0,0,0,568,11.75,14.86,14.86,0,0,0,552.9,26.46,15.16,15.16,0,0,0,568,41.24Z" transform="translate(591.7 70.22)"/><text class="cls-2" transform="translate(1152.28 105.27)">R</text></svg>