<svg xmlns="http://www.w3.org/2000/svg" id="Layer_1" data-name="Layer 1" viewBox="0 0 1628.677 330.366"><defs><style>.cls-1,.cls-2{fill:#fff}.cls-2{isolation:isolate;font-size:134.119px;font-family:ArialMT,Arial}</style></defs><title>Assurant</title><path d="M6.523,165.934A147.529,147.529,0,0,1,35.247,81.216c1.006,0,2.459,0,1.788-1.9h0l89.412-11.177H215.3a242.423,242.423,0,0,1,24.924,32.412,183.867,183.867,0,0,1-20.118,46.607,604.976,604.976,0,0,0-97.571,0c-17.548,2.682-35.877.782-52.865,7.823C47.541,153.528,27.535,162.47,6.523,165.934Z" class="cls-1" transform="translate(-6 -10.317)"/><path d="M69.335,154.87c16.989-7.042,35.318-5.142,52.865-7.824a460.848,460.848,0,0,0,48.73,83.824,237.02,237.02,0,0,0,28.836,40.124A351.2,351.2,0,0,0,243.8,323.189a141.608,141.608,0,0,1-86.394,16.318l-56.666-72.313C85.877,241.6,70.9,216.117,56.035,190.523,57.153,177.334,68.218,167.946,69.335,154.87Z" class="cls-1" transform="translate(-6 -10.317)"/><path d="M199.766,270.882A237.049,237.049,0,0,1,170.93,230.87a499.813,499.813,0,0,0,49.177-83.712A183.877,183.877,0,0,0,240.672,101,512.3,512.3,0,0,0,263.025,38.41a141.937,141.937,0,0,1,57.336,65.942c-9.277,29.17-23.024,56.665-33.53,85.277-14.194,26.376-28.612,52.418-44.706,77.565A252.073,252.073,0,0,1,199.766,270.882Z" class="cls-1" transform="translate(-6 -10.317)"/><path d="M1275.175,166.829v57.335c0,8.271-1.453,12.183-11.176,11.847s-11.959-1.452-11.848-11.176V111.169l74.883,76.9,5.589-3.353c0-19.224.894-38.559,0-57.671-.783-12.965,5.7-13.635,15.312-12.853,4.47,0,6.37,2.123,6.37,6.482v120.6l-74.883-77.453Z" class="cls-1" transform="translate(-6 -10.317)"/><path d="M898.19,156.1v-33.53c0-9.5,5.923-7.935,11.176-8.047s11.177-1.117,11.177,8.159c0,23.247.894,46.495,0,69.63a50.688,50.688,0,0,1-100.891,3.228q-.113-2.115-.034-4.234c-1.229-22.353,0-45.488-.67-68.289,0-10.282,6.482-8.047,12.517-8.606s10.283,1.565,10.171,9.5v64.266c0,18.218,8.047,28.724,21.571,31.071A26.935,26.935,0,0,0,897.854,192.2c.783-11.959,0-24.029,0-36.1Z" class="cls-1" transform="translate(-6 -10.317)"/><path d="M1064.609,233.888c-16.765,4.247-28.165,1.006-36.1-13.635a326.281,326.281,0,0,0-20.341-28.165c-2.794-4.024-5.812-7.042-11.177-5.253s-2.57,6.035-2.682,9.164v28.165c0,9.389-2.012,11.177-11.177,11.177s-11.176-3.465-11.176-11.177V125.028c0-8.047,2.235-11.176,10.506-10.618a280.7,280.7,0,0,1,38.671,2.236,35.429,35.429,0,0,1,30.735,27.718,31.518,31.518,0,0,1-18.218,35.318c-6.929,3.464-4.8,6.594-1.452,11.176ZM993.861,150.4c4.135,5.924-7.265,19.224,9.947,19.112s27.941-7.153,27.718-18.665-10.394-17.1-26.936-17.994S996.543,143.581,993.861,150.4Z" class="cls-1" transform="translate(-6 -10.317)"/><path d="M1200.851,235.117c-9.724,2.571-12.182-4.247-13.412-11.176a18.778,18.778,0,0,0-24.812-17.771,72.4,72.4,0,0,1-12.071,0c-24.253,0-24.7,0-33.529,22.353-4.359,11.177-13.636,7.6-20.23,6.259s-1.565-8.159,0-11.177a389.7,389.7,0,0,1,49.289-104.5c4.917-7.265,7.488-10.059,13.523-.783a452.637,452.637,0,0,1,50.63,105.954C1213.7,235.006,1209.569,236.235,1200.851,235.117Zm-67.059-48.171h31.182c4.359,0,7.377-1.117,5.141-6.147a121.585,121.585,0,0,0-17.547-32.859,140.053,140.053,0,0,0-18.441,39.006Z" class="cls-1" transform="translate(-6 -10.317)"/><path d="M533.833,235.341c-9.5,2.794-12.629-4.135-13.747-12.183-2.012-14.082-9.276-20.117-23.582-17.435a76.627,76.627,0,0,1-13.412,0c-23.918,0-24.253,0-32.971,22.353-4.471,11.735-13.859,7.153-20.341,6.035s-1.565-8.047,0-11.176a423.532,423.532,0,0,1,48.953-103.83c5.923-9.165,8.606-8.159,14.194,0a415.6,415.6,0,0,1,49.959,104.724C546.351,235.229,546.239,235.229,533.833,235.341ZM485.662,146.6c-2.906,5.253-5.364,8.941-7.153,12.965-3.8,8.27-12.964,18.218-8.494,25.035s17.1,1.565,26.153,2.347,8.271-3.464,5.7-9.612A160.353,160.353,0,0,0,485.662,146.6Z" class="cls-1" transform="translate(-6 -10.317)"/><path d="M765.412,137.658a59.117,59.117,0,0,0-30.065-8.159,14.305,14.305,0,0,0-13.635,8.941,12.63,12.63,0,0,0,6.035,14.977c8.271,5.923,17.324,11.176,25.706,16.764,17.994,12.406,24.141,27.048,18.777,44.707s-19.559,25.371-40.907,25.371h-8.047c-22.353-2.347-25.482-5.365-25.259-30.065a152.319,152.319,0,0,0,25.93,9.835c11.176,1.453,21.459,1.676,26.153-10.171s-2.906-18.329-11.847-23.918-16.206-9.611-23.583-15.2a31.853,31.853,0,0,1,17.659-58.9,74.8,74.8,0,0,1,17.324.67C767.759,115.193,769.212,117.54,765.412,137.658Z" class="cls-1" transform="translate(-6 -10.317)"/><path d="M580.216,210.305a127.76,127.76,0,0,0,27.5,9.389c9.947.894,19.558,0,23.694-10.506s-2.124-17.548-11.177-23.248A178.792,178.792,0,0,1,590.5,165.6a30.958,30.958,0,0,1-8.383-33.53,29.619,29.619,0,0,1,25.483-20.9,71.231,71.231,0,0,1,21.235,0c18.665,2.571,20.23,5.03,17.771,25.036-9.835-2.236-18.553-8.606-29.171-7.712-6.594.67-12.629,1.9-14.865,8.941a13.635,13.635,0,0,0,6.594,16.094c8.5,5.812,17.548,11.177,25.93,16.653a37.554,37.554,0,0,1,17.547,44.707,38.558,38.558,0,0,1-39.453,24.029,80.1,80.1,0,0,1-14.641-1.229C578.763,234.782,577.757,232.547,580.216,210.305Z" class="cls-1" transform="translate(-6 -10.317)"/><path d="M285.714,189.629c11.176-28.612,24.588-55.883,33.529-85.278a159.939,159.939,0,0,1-5.029,152.337l-3.8-.67A417.288,417.288,0,0,0,285.714,189.629Z" class="cls-1" transform="translate(-6 -10.317)"/><path d="M1448.188,114.522h41.577c7.6,0,10.171,2.236,10.059,9.836s-1.006,11.176-9.388,11.176c-10.171,0-23.694-4.694-29.618,1.9s-1.9,21.347-2.235,32.412v54.989c0,8.159-1.118,12.071-11.177,11.847s-11.176-2.235-11.176-11.177v-79.13c0-8.941-2.8-11.959-11.177-11.176-6.259.559-12.518,0-18.777,0s-11.176-1.23-11.176-10.059,2.906-11.177,11.176-10.506C1420.359,114.969,1434.329,114.522,1448.188,114.522Z" class="cls-1" transform="translate(-6 -10.317)"/><path d="M100.741,267.082,157.407,339.4c-48.507,0-111.766-39.9-127.637-80.695h0a130.152,130.152,0,0,1,19.671,1.9A258.6,258.6,0,0,0,100.741,267.082Z" class="cls-1" transform="translate(-6 -10.317)"/><path d="M126.559,68.475,37.147,79.651a156.476,156.476,0,0,1,131.66-69.183l2.011,3.689A344.171,344.171,0,0,0,126.559,68.475Z" class="cls-1" transform="translate(-6 -10.317)"/><path d="M310.749,256.018l3.8.67a150.216,150.216,0,0,1-70.859,66.389,357.659,357.659,0,0,1-43.924-52.195,252.138,252.138,0,0,0,41.018-3.688A321.705,321.705,0,0,0,310.749,256.018Z" class="cls-1" transform="translate(-6 -10.317)"/><path d="M170.818,14.157l-2.011-3.689A147.985,147.985,0,0,1,262.243,38.41,512.635,512.635,0,0,1,239.89,101a242.452,242.452,0,0,0-24.924-32.413A353.58,353.58,0,0,0,170.818,14.157Z" class="cls-1" transform="translate(-6 -10.317)"/><path d="M30.105,258.588h0A136.578,136.578,0,0,1,6.858,165.823c21.012-3.465,41.018-12.406,62.812-11.177C68.553,167.723,57.488,177,56.259,190.188A391.864,391.864,0,0,0,30.105,258.588Z" class="cls-1" transform="translate(-6 -10.317)"/><path d="M37.035,79.316c.671,1.9-.782,1.676-1.788,1.9Z" class="cls-1" transform="translate(-6 -10.317)"/><text class="cls-2" transform="translate(1529.698 169.249)">®</text></svg>