<?xml version="1.0" encoding="utf-8"?>
<!-- Generator: Adobe Illustrator 19.0.0, SVG Export Plug-In . SVG Version: 6.00 Build 0)  -->
<svg version="1.1" id="Layer_1" xmlns="http://www.w3.org/2000/svg" xmlns:xlink="http://www.w3.org/1999/xlink" x="0px" y="0px"
	 viewBox="-219 382.5 142 29.5" style="enable-background:new -219 382.5 142 29.5;" xml:space="preserve">
<style type="text/css">
	.st0{fill:#BCBCBC;}
	.st1{fill:#E2E2E2;}
	.st2{fill:#FFFFFF;}
	.st3{fill:#F8A61C;}
	.st4{font-family:'MyriadPro-Regular';}
	.st5{font-size:12px;}
</style>
<title>Assurant (Hori)</title>
<path class="st0" d="M-218.9,396.4c0.1-2.7,0.9-5.4,2.6-7.6c0.1,0,0.2,0,0.2-0.2l0,0l8-1h7.9c0.8,0.9,1.6,1.9,2.2,2.9
	c-0.4,1.5-1,2.9-1.8,4.2c-2.9-0.2-5.8-0.2-8.7,0c-1.6,0.2-3.2,0.1-4.7,0.7C-215.3,395.3-217.1,396.1-218.9,396.4z"/>
<path class="st1" d="M-213.3,395.4c1.5-0.6,3.2-0.5,4.7-0.7c1.2,2.6,2.6,5.2,4.4,7.5c0.7,1.3,1.6,2.5,2.6,3.6
	c1.2,1.7,2.5,3.2,3.9,4.7c-2.4,1.3-5.1,1.8-7.7,1.5l-5.1-6.5c-1.3-2.3-2.7-4.6-4-6.9C-214.4,397.4-213.4,396.6-213.3,395.4z"/>
<path class="st2" d="M-201.7,405.8c-1-1.1-1.8-2.3-2.6-3.6c1.7-2.3,3.2-4.9,4.4-7.5c0.8-1.3,1.4-2.7,1.8-4.1c0.8-1.8,1.5-3.7,2-5.6
	c2.3,1.4,4.1,3.4,5.1,5.9c-0.8,2.6-2.1,5.1-3,7.6c-1.3,2.4-2.6,4.7-4,6.9C-199.1,405.7-200.4,405.8-201.7,405.8z"/>
<path class="st2" d="M-105.4,396.5c0,1.7,0,3.4,0,5.1c0,0.7-0.1,1.1-1,1.1s-1.1-0.1-1.1-1c0-3.3,0-6.7,0-10.2l6.7,6.9l0.5-0.3
	c0-1.7,0.1-3.4,0-5.2c-0.1-1.2,0.5-1.2,1.4-1.1c0.4,0,0.6,0.2,0.6,0.6v10.8l-6.7-6.9L-105.4,396.5z"/>
<path class="st2" d="M-139.2,395.5c0-1,0-2,0-3c0-0.9,0.5-0.7,1-0.7s1-0.1,1,0.7c0,2.1,0.1,4.2,0,6.2c0.1,2.3-1.7,4.2-4,4.3
	c-0.2,0-0.4,0-0.6,0c-2.3,0.1-4.3-1.7-4.4-4c0-0.1,0-0.3,0-0.4c-0.1-2,0-4.1-0.1-6.1c0-0.9,0.6-0.7,1.1-0.8c0.5,0,0.9,0.1,0.9,0.9
	c0,1.9,0,3.8,0,5.8c0,1.6,0.7,2.6,1.9,2.8c1.3,0.4,2.6-0.3,3-1.6c0.1-0.3,0.1-0.5,0.1-0.8C-139.1,397.7-139.2,396.6-139.2,395.5
	L-139.2,395.5z"/>
<path class="st2" d="M-124.3,402.5c-1.5,0.4-2.5,0.1-3.2-1.2c-0.6-0.9-1.2-1.7-1.8-2.5c-0.3-0.4-0.5-0.6-1-0.5s-0.2,0.5-0.2,0.8
	c0,0.8,0,1.7,0,2.5s-0.2,1-1,1s-1-0.3-1-1c0-3,0-5.9,0-8.9c0-0.7,0.2-1,0.9-1c1.2,0,2.3,0.1,3.5,0.2c1.4,0.1,2.5,1.1,2.8,2.5
	c0.3,1.3-0.4,2.6-1.6,3.2c-0.6,0.3-0.4,0.6-0.1,1L-124.3,402.5z M-130.6,395c0.4,0.5-0.7,1.7,0.9,1.7c1.5,0,2.5-0.6,2.5-1.7
	c0-1-0.9-1.5-2.4-1.6S-130.4,394.4-130.6,395z"/>
<path class="st2" d="M-112.1,402.6c-0.9,0.2-1.1-0.4-1.2-1c0-0.9-0.8-1.7-1.7-1.7c-0.2,0-0.4,0-0.5,0.1c-0.4,0-0.7,0-1.1,0
	c-2.2,0-2.2,0-3,2c-0.4,1-1.2,0.7-1.8,0.6c-0.6-0.1-0.1-0.7,0-1c1-3.3,2.5-6.5,4.4-9.4c0.4-0.6,0.7-0.9,1.2-0.1
	c1.9,2.9,3.4,6.1,4.5,9.5C-110.9,402.6-111.3,402.7-112.1,402.6z M-118.1,398.3h2.8c0.4,0,0.7-0.1,0.5-0.6c-0.4-1.1-0.9-2-1.6-2.9
	C-117.1,395.8-117.7,397-118.1,398.3L-118.1,398.3z"/>
<path class="st2" d="M-171.8,402.6c-0.8,0.3-1.1-0.4-1.2-1.1c-0.2-1.3-0.8-1.8-2.1-1.6c-0.4,0-0.8,0-1.2,0c-2.1,0-2.2,0-2.9,2
	c-0.4,1-1.2,0.6-1.8,0.5s-0.1-0.7,0-1c1-3.3,2.5-6.4,4.4-9.3c0.5-0.8,0.8-0.7,1.3,0c1.9,2.9,3.4,6.1,4.5,9.4
	C-170.6,402.6-170.7,402.6-171.8,402.6z M-176.1,394.6c-0.3,0.5-0.5,0.8-0.6,1.2c-0.3,0.7-1.2,1.6-0.8,2.2s1.5,0.1,2.3,0.2
	s0.7-0.3,0.5-0.9C-175,396.4-175.5,395.5-176.1,394.6z"/>
<path class="st2" d="M-151.1,393.9c-0.8-0.5-1.7-0.7-2.7-0.7c-0.5,0-1,0.3-1.2,0.8s0.1,1.1,0.5,1.3c0.7,0.5,1.6,1,2.3,1.5
	c1.6,1.1,2.2,2.4,1.7,4s-1.8,2.3-3.7,2.3c-0.2,0-0.5,0-0.7,0c-2-0.2-2.3-0.5-2.3-2.7c0.7,0.4,1.5,0.7,2.3,0.9c1,0.1,1.9,0.1,2.3-0.9
	s-0.3-1.6-1.1-2.1s-1.5-0.9-2.1-1.4c-1.3-0.8-1.7-2.6-0.9-3.9c0.5-0.9,1.5-1.4,2.5-1.3c0.5,0,1,0,1.5,0.1
	C-150.8,391.8-150.7,392-151.1,393.9z"/>
<path class="st2" d="M-167.6,400.4c0.8,0.4,1.6,0.7,2.5,0.8c0.9,0.1,1.8,0,2.1-0.9c0.4-0.9-0.2-1.6-1-2.1c-0.9-0.5-1.8-1.1-2.7-1.8
	c-0.8-0.8-1.1-1.9-0.8-3c0.3-1,1.2-1.8,2.3-1.9c0.6-0.1,1.3-0.1,1.9,0c1.7,0.2,1.8,0.4,1.6,2.2c-0.9-0.2-1.7-0.8-2.6-0.7
	c-0.6,0.1-1.1,0.2-1.3,0.8c-0.2,0.6,0.1,1.2,0.6,1.4c0.8,0.5,1.6,1,2.3,1.5c1.4,0.8,2.1,2.5,1.6,4c-0.6,1.4-2,2.3-3.5,2.1
	c-0.4,0-0.9,0-1.3-0.1C-167.8,402.5-167.8,402.3-167.6,400.4z"/>
<path class="st1" d="M-194,398.5c1-2.6,2.2-5,3-7.6c2.2,4.3,2,9.5-0.4,13.6l-0.3-0.1C-192.3,402.4-193.1,400.4-194,398.5z"/>
<path class="st2" d="M-90,391.8c1.2,0,2.5,0,3.7,0c0.7,0,0.9,0.2,0.9,0.9c0,0.7-0.1,1-0.8,1c-0.9,0-2.1-0.4-2.7,0.2
	c-0.5,0.6-0.2,1.9-0.2,2.9c0,1.6,0,3.3,0,4.9c0,0.7-0.1,1.1-1,1.1s-1-0.2-1-1c0-2.4,0-4.7,0-7.1c0-0.8-0.3-1.1-1-1
	c-0.6,0-1.1,0-1.7,0s-1-0.1-1-0.9s0.3-1,1-0.9C-92.4,391.8-91.2,391.8-90,391.8z"/>
<path class="st0" d="M-210.5,405.4l5.1,6.5c-4.3,0-10-3.6-11.4-7.2l0,0c0.6,0,1.2,0.1,1.8,0.2C-213.6,405.2-212.1,405.4-210.5,405.4
	z"/>
<path class="st2" d="M-208.2,387.7l-8,1c2.6-3.9,7.1-6.2,11.8-6.2l0.2,0.3C-205.7,384.3-207.1,385.9-208.2,387.7z"/>
<path class="st0" d="M-191.7,404.4l0.3,0.1c-1.4,2.6-3.6,4.7-6.3,5.9c-1.5-1.4-2.8-3-3.9-4.7c1.2,0,2.5-0.1,3.7-0.3
	C-195.9,405.3-193.8,405-191.7,404.4z"/>
<path class="st1" d="M-204.3,382.8l-0.2-0.3c3-0.1,5.9,0.7,8.4,2.5c-0.5,1.9-1.2,3.8-2,5.6c-0.7-1-1.4-2-2.2-2.9
	C-201.5,385.9-202.8,384.3-204.3,382.8z"/>
<path class="st2" d="M-216.8,404.7L-216.8,404.7c-1.7-2.4-2.4-5.4-2.1-8.3c1.9-0.3,3.7-1.1,5.6-1c-0.1,1.2-1.1,2-1.2,3.2
	C-215.5,400.5-216.3,402.6-216.8,404.7z"/>
<path class="st3" d="M-216.2,388.6c0.1,0.2-0.1,0.1-0.2,0.2L-216.2,388.6z"/>
<text transform="matrix(1 0 0 1 -82.1625 397.6083)" class="st2 st4 st5">®</text>
</svg>
