<?xml version="1.0" encoding="utf-8"?>
<!-- Generator: Adobe Illustrator 19.0.0, SVG Export Plug-In . SVG Version: 6.00 Build 0)  -->
<svg version="1.1" id="layer" xmlns="http://www.w3.org/2000/svg" xmlns:xlink="http://www.w3.org/1999/xlink" x="0px" y="0px"
	 viewBox="20 71 600 126.6" style="enable-background:new 20 71 600 126.6;" xml:space="preserve">
<style type="text/css">
	.st0{fill:#FFFFFF;}
</style>
<g>
	<path class="st0" d="M82.9,159.9l-6.7-19H45l-6.7,19H20l32.6-85.3h16.6l32.4,85.3H82.9z M64.8,109.2c-1.7-5-3.4-10.1-4.3-13.3
		c-0.9,3.2-2.6,8.3-4.3,13.3l-5.4,15.5h19.5L64.8,109.2z"/>
	<path class="st0" d="M143.5,159.9v-4.3c-2.9,3-8.3,5.6-15,5.6c-16.3,0-23.6-11.2-23.6-29.2V95.9h16.8v34.6
		c0,11.4,3.9,14.9,10.8,14.9s11-3.4,11-14.5v-35h16.8v63.9h-16.8V159.9z"/>
	<path class="st0" d="M202.5,157.3c-2.8,2.2-7.8,3.9-13,3.9c-10.4,0-17.1-8-17.1-19.3V79.4l16.8-8.4v24.8h15.3v15.8h-15.3v25.7
		c0,6.1,2.2,7.7,6.2,7.7c3,0,5.4-1.3,9.5-4.9L202.5,157.3z"/>
	<path class="st0" d="M237.5,161.2c-16.7,0-28.9-13.6-28.9-33.3c0-19.6,12.2-33.4,28.9-33.4s29,13.8,29,33.4
		C266.5,147.6,254.2,161.2,237.5,161.2 M237.5,110.8c-8,0-11.8,7.3-11.8,17.2c0,9.9,3.8,17.1,11.8,17.1s11.9-8.2,11.9-17.1
		C249.5,118.2,245.6,110.8,237.5,110.8"/>
	<path class="st0" d="M330.1,159.9l-31.3-46.6c-2.1-3.2-4.9-7.4-6-9.6c0,3.2,0.2,13.9,0.2,18.6v37.5h-16.8V74.5h16.3l30.3,45.2
		c2.1,3.2,4.9,7.4,6,9.6c0-3.2-0.2-13.9-0.2-18.6V74.6h16.8v85.3H330.1z"/>
	<path class="st0" d="M393.6,159.9v-4.3c-3,3.2-8.4,5.6-14.4,5.6c-11.9,0-23.9-7.3-23.9-22.8c0-14.1,11.4-21.2,25.9-21.2
		c5.8,0,9.6,1.2,12.3,2.6v-3.2c0-4.5-3-8.2-9.1-8.2c-7.7,0-11.7,1.1-17.5,4.3l-6.5-11.7c7.4-4.3,13.6-6.5,24-6.5
		c15.5,0,25.9,8,25.9,22.4v42.9h-16.7L393.6,159.9L393.6,159.9z M393.6,133.1c-2.9-1.8-5.7-2.7-11.7-2.7c-6.3,0-9.7,2.9-9.7,8
		c0,4.5,2.6,8.5,9.7,8.5c5.5,0,9.9-2.8,11.7-5.8V133.1z"/>
	<path class="st0" d="M451.9,157.3c-2.8,2.2-7.8,3.9-13,3.9c-10.4,0-17.1-8-17.1-19.3V79.4l16.8-8.4v24.8h15.3v15.8h-15.3v25.7
		c0,6.1,2.2,7.7,6.2,7.7c3,0,5.4-1.3,9.5-4.9L451.9,157.3z"/>
	<rect x="464.6" y="95.9" class="st0" width="16.8" height="63.9"/>
	<path class="st0" d="M517.8,161.2c-16.7,0-28.9-13.6-28.9-33.3c0-19.6,12.2-33.4,28.9-33.4s29,13.8,29,33.4
		C546.8,147.6,534.5,161.2,517.8,161.2 M517.8,110.8c-8,0-11.8,7.3-11.8,17.2c0,9.9,3.8,17.1,11.8,17.1s11.9-8.2,11.9-17.1
		C529.7,118.2,525.8,110.8,517.8,110.8"/>
	<path class="st0" d="M592.3,159.9v-34.6c0-11.5-3.9-14.9-10.8-14.9c-6.9,0-11,3.4-11,14.5v35h-16.8V96h16.8v4.3
		c2.9-3,8.3-5.6,15-5.6c16.3,0,23.6,11.2,23.6,29.2V160h-16.8V159.9z"/>
	<path class="st0" d="M616.3,159.8c-2.1,0-3.7-1.6-3.7-3.7s1.6-3.7,3.7-3.7c2.1,0,3.7,1.6,3.7,3.7S618.4,159.8,616.3,159.8
		 M616.3,153c-1.8,0-3.1,1.3-3.1,3.1c0,1.8,1.3,3.1,3.1,3.1s3.1-1.3,3.1-3.1C619.4,154.3,618.1,153,616.3,153 M617.2,156.4l0.8,1.6
		h-0.8l-0.8-1.6h-0.8v1.6h-0.7v-4h1.8c0.7,0,1.3,0.4,1.3,1.2C618,155.8,617.7,156.2,617.2,156.4 M616.7,154.6h-1.1v1.1h1.1
		c0.4,0,0.6-0.2,0.6-0.6C617.3,154.8,617,154.6,616.7,154.6"/>
	<path class="st0" d="M535.7,172.7c-17.9,0-35.8,0.2-53.6,0.6c-25,0.5-50.1,1.3-75.1,2.5c-24.3,1.2-48.7,2.5-73,4.3
		c-19,1.4-38,3-57,4.6c0.5,0,1.1-0.1,1.6-0.1c20.5-1.1,40.9-2.2,61.4-3.1c23.5-1.1,47-1.5,70.4-2c14.5-0.3,29-0.4,43.5-0.4
		c9.7,0,19.4,0.1,29,0.1c23.3,0.2,46.6,0.7,69.9,1.5c10.6,0.4,21.3,0.8,31.9,1.4c4.2,0.2,8.5,0.5,12.7,0.7c2.3,0.1,4.5,0.3,6.8,0.4
		c0.6,0,1.5,0.2,2.3,0.2c1.3,0,2.5-0.4,2.6-2.1c0.1-1.3,0.1-2.6,0.2-3.9c0-0.2,0-0.3,0-0.5c0-1.6-0.5-2.8-2.3-3
		c-2.1-0.1-4.2-0.2-6.3-0.2c-4.6-0.2-9.2-0.3-13.8-0.4c-10.8-0.3-21.7-0.5-32.5-0.5C548.2,172.7,542,172.7,535.7,172.7"/>
	<path class="st0" d="M470.8,187c-5.4,0-10.9,0-16.3,0.1c-18.5,0.2-37.1,0.4-55.6,1c-14.5,0.4-29,1-43.5,1.5c0.4,0,0.8,0,1.2,0
		c15.6-0.2,31.2-0.4,46.7-0.4c2.1,0,4.3,0,6.4,0c15.7,0,31.5,0.3,47.2,0.5c18.4,0.3,36.8,1,55.1,1.7c17.7,0.7,35.4,1.7,53.1,2.9
		c8.1,0.5,16.1,1.1,24.2,1.8c3.2,0.3,6.4,0.5,9.6,0.8c1.7,0.2,3.4,0.3,5.2,0.5c0.5,0.1,1.3,0.2,1.9,0.2c0.9,0,1.7-0.3,1.8-1.4
		c0.1-0.9,0.2-1.8,0.2-2.6c0-0.2,0-0.3,0-0.5c0-1-0.4-1.8-1.6-1.9c-1.6-0.2-3.2-0.2-4.8-0.3c-3.5-0.2-7-0.5-10.5-0.7
		c-8.2-0.5-16.5-0.9-24.7-1.2c-18.3-0.7-36.7-1.3-55-1.6C498,187.1,484.4,187,470.8,187"/>
</g>
</svg>
