<svg xmlns="http://www.w3.org/2000/svg" id="Layer_1" data-name="Layer 1" viewBox="0 0 1641.8 351"><defs><style>.cls-1{fill:#fff}</style></defs><title>Balsamiq</title><path d="M114.422,273.168c.77-12.7,1.539-31.551,1.539-48.1V0H149.43V116.964h.77c11.928-20.778,33.475-34.245,63.481-34.245,46.172,0,78.871,38.471,78.487,95.032,0,66.553-41.94,99.643-83.489,99.643-26.934,0-48.475-10.382-62.327-35.008H145.2l-1.539,30.782Zm35.014-74.645a63.487,63.487,0,0,0,1.539,12.318c6.541,23.465,26.165,39.632,50.784,39.632,35.4,0,56.561-28.864,56.561-71.568,0-37.316-19.239-69.252-55.4-69.252-23.086,0-44.633,15.776-51.559,41.555-.769,3.848-1.924,8.465-1.924,13.852Z" class="cls-1"/><path d="M431.3,273.168,428.61,249.7h-1.154c-10.389,14.621-30.4,27.7-56.946,27.7-37.7,0-56.94-26.549-56.94-53.477,0-45.018,40.016-69.637,111.962-69.258v-3.848c0-15.39-4.232-43.088-42.325-43.088-17.308,0-35.392,5.387-48.474,13.852l-7.7-22.311c15.391-10,37.708-16.545,61.172-16.545C445.155,82.719,459,121.575,459,158.9v69.638c0,16.16.769,31.929,3.078,44.633Zm-5-95.026c-36.938-.776-78.872,5.765-78.872,41.934,0,21.932,14.621,32.314,31.936,32.314,24.24,0,39.625-15.384,45.012-31.16a35.352,35.352,0,0,0,1.924-10.773Z" class="cls-1"/><path d="M503.881,0h33.853V273.168H503.881Z" class="cls-1"/><path d="M578.406,238.545c10,6.541,27.7,13.467,44.627,13.467,24.625,0,36.168-12.319,36.168-27.7,0-16.16-9.619-25-34.629-34.244-33.469-11.916-49.245-30.391-49.245-52.708,0-30.011,24.241-54.631,64.257-54.631,18.853,0,35.393,5.387,45.781,11.543L676.9,118.894a72.46,72.46,0,0,0-38.086-10.774c-20.008,0-31.166,11.543-31.166,25.395,0,15.391,11.152,22.316,35.393,31.551,32.32,12.312,48.859,28.467,48.859,56.176,0,32.693-25.394,55.78-69.637,55.78-20.393,0-39.24-5-52.328-12.692Z" class="cls-1"/><path d="M832.846,273.168,830.153,249.7H829c-10.388,14.621-30.39,27.7-56.939,27.7-37.7,0-56.94-26.549-56.94-53.477,0-45.018,40.016-69.637,111.955-69.258v-3.848c0-15.39-4.226-43.088-42.318-43.088-17.315,0-35.4,5.387-48.475,13.852l-7.695-22.311c15.39-10,37.7-16.545,61.172-16.545,56.94,0,70.791,38.856,70.791,76.178v69.638c0,16.16.764,31.929,3.078,44.633Zm-5-95.026c-36.938-.776-78.872,5.765-78.872,41.934,0,21.932,14.622,32.314,31.936,32.314,24.241,0,39.625-15.384,45.012-31.16a35.534,35.534,0,0,0,1.924-10.773Z" class="cls-1"/><path d="M905.14,137.35c0-19.238-.384-35.014-1.539-50.4h29.628l1.539,30.012h1.148c10.395-17.7,27.709-34.245,58.491-34.245,25.389,0,44.633,15.391,52.713,37.323h.764A76.73,76.73,0,0,1,1068.667,95.8c11.152-8.464,23.459-13.082,41.158-13.082,24.626,0,61.179,16.161,61.179,80.8V273.168h-33.09V167.747c0-35.783-13.083-57.324-40.395-57.324-19.233,0-34.239,14.236-40.016,30.781a55.761,55.761,0,0,0-2.688,16.924v115.04h-33.09V161.591c0-29.627-13.082-51.168-38.855-51.168-21.163,0-36.553,16.923-41.946,33.853a46.939,46.939,0,0,0-2.688,16.545V273.168h-33.09V137.35Z" class="cls-1"/><path d="M1253.9,34.629c.385,11.543-8.08,20.778-21.547,20.778-11.915,0-20.386-9.235-20.386-20.778,0-11.928,8.843-21.162,21.162-21.162C1245.817,13.467,1253.9,22.7,1253.9,34.629Zm-37.7,238.539V86.952h33.866V273.168Z" class="cls-1"/><path d="M1424.687,244.31h-.776c-10,18.469-30.775,33.09-60.787,33.09-43.467,0-78.872-37.7-78.872-94.262,0-69.637,45.018-100.419,84.265-100.419,28.851,0,48.1,14.237,57.324,32.315h.776l1.148-28.082h31.93c-.764,15.775-1.149,31.936-1.149,51.168V349.34h-33.853V244.31Zm0-81.95a57.707,57.707,0,0,0-1.539-14.236c-5-20.778-23.086-38.477-48.481-38.477-35,0-56.176,29.627-56.176,71.567,0,36.932,17.7,69.259,55.021,69.259,21.932,0,40.78-13.467,48.469-36.944a56.854,56.854,0,0,0,2.7-16.161V162.36Z" class="cls-1"/><path d="M1546.292,108.884c0,15.655-12.289,27.937-28.281,27.937-15.823,0-28.443-12.288-28.443-27.937,0-15.319,12.626-27.608,28.443-27.608C1534,81.276,1546.292,93.565,1546.292,108.884Zm-49.66,0c0,12.288,9.091,22.052,21.547,22.052,12.121,0,21.043-9.764,21.043-21.884,0-12.289-8.922-22.22-21.211-22.22S1496.632,96.763,1496.632,108.884Zm17,14.477h-6.4V95.753a55.918,55.918,0,0,1,10.605-.841c5.218,0,7.581.841,9.6,2.02a7.65,7.65,0,0,1,2.687,6.06c0,3.03-2.356,5.387-5.717,6.4v.336c2.687,1.01,4.2,3.03,5.05,6.734.842,4.208,1.347,5.891,2.02,6.9h-6.9c-.841-1.011-1.346-3.536-2.182-6.734-.505-3.03-2.188-4.383-5.723-4.383h-3.03v11.117Zm.169-15.656h3.03c3.541,0,6.4-1.172,6.4-4.04,0-2.525-1.852-4.208-5.892-4.208a15.382,15.382,0,0,0-3.535.336Z" class="cls-1"/></svg>