<svg id="Layer_1" data-name="Layer 1" xmlns="http://www.w3.org/2000/svg" viewBox="0 0 1641.8 351"><defs><style>.cls-1{fill:#fff;}</style></defs><title>BurgerKing</title><path class="cls-1" d="M839.989,4.251c1.589.661,3.31.463,4.964.595a169.05,169.05,0,0,1,33.191,6.387c.4.132.794.331,1.589.629a222.793,222.793,0,0,0-24.72-3.773,170.5,170.5,0,0,0-27.268-.132,161.034,161.034,0,0,0-37,6.585C736.115,31.617,699.681,67.125,682.87,122.057c-5.923,19.325-7.512,39.247-5.956,59.4,2.184,27.9,10.92,53.477,27.433,76.244a4.1,4.1,0,0,1,.728,2.449c-.033,7.544.033,15.122-.033,22.667,0,1.556.43,1.589,1.654,1.059,4.6-2.018,9.2-3.938,13.8-5.956a1.725,1.725,0,0,1,2.184.364c22.172,20.252,48.347,32.1,77.8,36.93a158.7,158.7,0,0,0,43.185,1.324,129.65,129.65,0,0,0,66.017-26.374c19.194-14.693,33.589-33.257,44.509-54.7,1.257-2.482,2.482-5.03,3.64-7.611.4-.86.728-.993,1.555-.529q13.154,7.246,26.407,14.394c1.192.629.861,1.225.5,2.085A164.848,164.848,0,0,1,964.05,281c-19.855,25.216-44.475,43.979-74.655,55.2a164.007,164.007,0,0,1-42.092,9.6c-2.813.265-5.593.43-8.406.662-.3.033-.661-.1-.86.3H819.506c-.232-.43-.662-.3-1.026-.3a164.3,164.3,0,0,1-26.639-3.674c-29.981-6.651-56.388-20.318-78.659-41.43-32.43-30.676-50.3-68.5-54.3-112.909-.133-1.721.132-3.508-.563-5.162V164.745c.53-.265.3-.761.331-1.158.3-4.467.761-8.9,1.423-13.3a168.324,168.324,0,0,1,17.108-53.046c15.984-30.808,39.015-54.9,69.394-71.776A168.97,168.97,0,0,1,816,4.846c1.588-.132,3.276.1,4.8-.595Z"/><path class="cls-1" d="M826.389,295.854c-16.414-.132-32.364-2.647-47.553-9.034a46.315,46.315,0,0,1-14.2-8.637,15.552,15.552,0,0,1-2.284-2.614c-1.588-2.283-1.026-4.434,1.523-5.526q6.056-2.631,12.21-5.063c31.437-12.509,63.536-22.966,95.933-32.7,21.51-6.486,43.152-12.475,64.992-17.7a18.157,18.157,0,0,1,2.25-.463c3.21-.4,5.063,1.522,4.534,4.732a44.7,44.7,0,0,1-2.978,9.431,96.92,96.92,0,0,1-27.665,37.394c-16.347,13.832-35.408,22.039-56.09,26.8A134.693,134.693,0,0,1,826.389,295.854Zm52.748-16.512c.364-.1.728-.2,1.092-.331,17.274-7.744,31.371-19.227,41.695-35.243a62.693,62.693,0,0,0,5.494-10.159c.959-2.35.231-4.6-1.655-5.626a4.523,4.523,0,0,0-5.725,1.523,8.652,8.652,0,0,0-1.224,2.316,95.327,95.327,0,0,1-27.665,38.519A149.618,149.618,0,0,1,879,279.209c-.132.033-.3.033-.231.265Zm-.827.4c-.034-.033-.067-.1-.1-.1s-.066.034-.1.067c.033.033.066.1.1.1S878.276,279.772,878.31,279.739Z"/><path class="cls-1" d="M726.816,97.8a45.284,45.284,0,0,1,3.044-11.02c7.016-18.134,18.863-32.43,34.747-43.515,14.262-9.928,30.245-15.62,47.188-18.863a149.753,149.753,0,0,1,32.364-2.912c17.77.464,34.912,3.707,50.763,12.244,6.783,3.673,12.938,8.207,17.472,14.594,2.25,3.143,1.357,5.493-2.416,6.221-10.225,1.919-20.45,3.739-30.643,5.824-15.42,3.177-30.742,6.751-46.03,10.49C808.85,76.887,784.826,84.3,760.9,92.043c-9.365,3.011-18.73,6.155-28.061,9.265-.53.166-1.026.364-1.556.53C728.106,102.731,726.75,101.639,726.816,97.8Zm143.849-43.35a29.475,29.475,0,0,0,6.817-1.258,32.068,32.068,0,0,0,8.306-2.68c3.309-1.787,4.236-4.964,2.482-8.273a13.718,13.718,0,0,0-2.647-3.376,32.427,32.427,0,0,0-7.777-5.228,81.649,81.649,0,0,0-23.76-7.214,86.571,86.571,0,0,0-18.961-.827,2.279,2.279,0,0,0,.794.165c9.2.927,18.2,2.614,26.738,6.288,4.666,2.018,9.167,4.368,12.476,8.438a7.463,7.463,0,0,1,.43,9.6A16.3,16.3,0,0,1,870.665,54.451Zm-89.546-16.48a2.8,2.8,0,0,0-.728.3c-16.744,9.2-29.385,22.3-37.426,39.71a18.876,18.876,0,0,0-1.986,7.445A3.081,3.081,0,0,0,743.56,88.9a3.219,3.219,0,0,0,3.376-2.581c4.1-15.719,12.839-28.624,24.355-39.809C774.435,43.464,777.81,40.784,781.119,37.971Z"/><path class="cls-1" d="M867.456,180.1c0-7.082-.034-13.733,0-20.385a57.7,57.7,0,0,1,.33-9.563c.927-5.659,3.905-9.663,9.432-11.45a123.905,123.905,0,0,1,13.4-3.309v72.669c0,11.218-10.557,15.189-17.8,13a13.134,13.134,0,0,1-6.188-4.2q-11.913-13.75-23.892-27.433c-.265-.3-.43-.762-1.059-.894v1.622c.033,8.7.066,17.439.066,26.142a44.459,44.459,0,0,1-.231,5.129c-.795,6.453-4.534,10.59-10.49,12.807-4.071,1.522-8.207,2.846-12.311,4.269a4.186,4.186,0,0,1-.926.1v-1.721q0-40.455-.033-80.876c0-1.324.331-1.886,1.654-2.25,4.137-1.125,8.207-2.548,12.344-3.607a12.453,12.453,0,0,1,13.269,3.971c7.38,8.008,14.461,16.314,21.378,24.752C866.661,179.173,866.926,179.471,867.456,180.1Z"/><path class="cls-1" d="M734.2,232.782v25.91a22.342,22.342,0,0,1-.662,5.725,9.86,9.86,0,0,1-5.956,6.85c-5.857,2.515-11.781,4.9-17.671,7.38-1.257.529-1.324.1-1.324-.993q.049-40.752.067-81.538c0-.794.1-1.291.959-1.621,8.041-3.277,16.083-6.586,24.124-9.862a2.3,2.3,0,0,1,.662-.1v29.154a2.064,2.064,0,0,0,1.026-1.225q10.226-17.373,20.384-34.746a12.315,12.315,0,0,1,18.465-3.375c4.368,3.474,5.163,9.3,1.92,14.56-3.343,5.361-6.751,10.722-10.16,16.05-2.514,4-5.029,8.041-7.611,11.979a1.493,1.493,0,0,0,.265,2.316c5.361,5.295,10.623,10.722,16.017,16.017a12.6,12.6,0,0,1,3.474,13.6c-1.621,5.229-5.592,8.075-10.788,9.133-5.129,1.059-9.5-.694-13-4.4-6.287-6.486-12.442-13.137-18.63-19.722-.4-.431-.795-.927-1.159-1.357Z"/><path class="cls-1" d="M968.319,167.393c-.033,5.393.3,10.821-.265,16.214a20.079,20.079,0,0,1-6.916,13.833c-6.751,5.824-14.726,8.868-23.4,10.357-7.743,1.324-15.387,1.092-22.767-1.787-10.556-4.1-17.009-11.846-19.226-22.833-2.647-12.972-1.158-25.613,5.295-37.327,6.188-11.251,16.049-18.1,28.194-21.708,10.589-3.144,21.278-3.409,31.834.3,5.559,1.952,8.207,6.452,7.346,12.277-.893,6.055-5.89,9.431-12.078,8.008a40.322,40.322,0,0,0-17.671-.563c-10.722,2.283-17.671,10.159-18.532,21.212a31.192,31.192,0,0,0,1.092,12.111c2.151,6.784,6.917,9.994,14.031,9.432a17.355,17.355,0,0,0,8.141-2.482,4.366,4.366,0,0,0,2.316-4.236c-.066-1.588-.066-3.21,0-4.8.033-.96-.231-1.092-1.158-.828a35.009,35.009,0,0,1-4.5.993c-3.938.563-6.718-1.489-7.347-5.394-.529-3.276-.165-6.585-.264-9.894-.034-1.059.827-.894,1.389-1.026,6.718-1.489,13.469-2.912,20.186-4.368,4.3-.927,8.6-1.82,12.906-2.813,1.191-.3,1.522-.066,1.522,1.191C968.286,157.9,968.319,162.66,968.319,167.393Z"/><path class="cls-1" d="M809.975,156.108v70.651a31.429,31.429,0,0,1-.529,6.585c-1.059,5.063-4.137,8.538-8.67,10.821-4.633,2.317-9.6,3.806-14.461,5.593-3.177,1.158-3.177,1.125-3.177-2.284V181.622a38.962,38.962,0,0,1,.827-8.538,15.227,15.227,0,0,1,8.538-10.92C798.062,159.55,803.953,157.994,809.975,156.108Z"/><path class="cls-1" d="M727.676,147.769a13.467,13.467,0,0,1,5.791,2.879c4.335,3.872,4.6,8.769,3.409,13.965A19.115,19.115,0,0,1,730.191,175a41.035,41.035,0,0,1-10.655,6.254q-11.317,4.815-22.6,9.663c-1.257.529-1.522.364-1.522-1.026q.05-29.187.033-58.407c0-.695-.166-1.357.794-1.721,6.817-2.614,13.5-5.658,20.451-7.942a18.219,18.219,0,0,1,8.637-.86c6.949,1.059,10.821,6.287,9.993,13.3a19.379,19.379,0,0,1-6.386,12.144c-.4.364-.794.762-1.192,1.126C727.676,147.571,727.676,147.637,727.676,147.769Zm-6.717,14c0-4.236-2.515-6.387-6.586-5.559a19.319,19.319,0,0,0-2.349.761,1.2,1.2,0,0,0-.894,1.356c.034,4.3.034,8.571,0,12.873,0,.86.265,1.092,1.059.695a29.412,29.412,0,0,0,4.633-2.449A9.082,9.082,0,0,0,720.959,161.767ZM710.965,147.8a13.371,13.371,0,0,0,6.486-3.938,8.664,8.664,0,0,0,2.118-7.048,3.594,3.594,0,0,0-3.475-3.376,8.979,8.979,0,0,0-4.6,1.059c-.529.232-.529.629-.529,1.059V147.8Z"/><path class="cls-1" d="M874.405,98.3c0,5.3.033,10.49,0,15.652-.033,2.979.3,5.957-.3,8.9a11.221,11.221,0,0,1-3.739,6.817c-8.174,6.618-17.506,9.332-27.8,6.784-8.075-2.019-12.774-7.843-14.5-15.818-2.448-11.185-.827-21.774,6.189-31.04,5.89-7.81,14.2-11.218,23.759-11.88a28.284,28.284,0,0,1,9.862.7c4.732,1.39,6.916,4.7,5.989,8.968a6.285,6.285,0,0,1-6.155,5.228,27.881,27.881,0,0,1-5.261-.4c-9.034-1.158-16.811,4.037-18.466,14.891a23.092,23.092,0,0,0,.629,10.623,8.941,8.941,0,0,0,13.535,4.9,3.073,3.073,0,0,0,1.787-2.415c.066-1.92.033-3.872.066-5.791,0-.695-.3-.828-.927-.695-.926.2-1.82.364-2.779.5a3.848,3.848,0,0,1-4.7-3.838c-.1-1.986,0-3.971-.067-5.957,0-.695.232-.993.861-1.125C859.679,101.672,866.959,99.985,874.405,98.3Z"/><path class="cls-1" d="M800.246,130.164c0,4.633-.033,9.266,0,13.9a8.637,8.637,0,0,1-5.361,8.538c-2.978,1.356-6.188,2.25-9.3,3.375-.761.265-.861-.066-.828-.662v-.993q0-26.952-.033-53.939c0-1.324.3-2.019,1.688-2.449,7.048-2.184,13.965-4.8,21.245-6.089a18.6,18.6,0,0,1,7.876.232c6.717,1.654,10.291,7.247,9.431,14.362a23.33,23.33,0,0,1-8.439,15.222c-.992.86-.926,1.257,0,2.085,2.846,2.614,5.626,5.294,8.406,7.975,3.507,3.408,3.772,8.537.6,11.847a8.368,8.368,0,0,1-12.012-.265c-3.938-4.1-7.909-8.141-11.88-12.211a11.416,11.416,0,0,1-.893-1.324Zm-.066-9.232c4.335-2.78,7.909-5.758,8.9-10.821.86-4.368-1.622-6.85-5.99-6.023-.6.132-1.158.3-1.754.4-.86.166-1.092.662-1.092,1.489,0,4.071-.033,8.141-.066,12.211Z"/><path class="cls-1" d="M764.937,125.532c0-6.453.034-12.906-.033-19.359,0-1.092.265-1.688,1.39-2.019,2.151-.628,4.269-1.456,6.42-2.051,4.865-1.357,7.677.761,7.677,5.758V139.3a39.717,39.717,0,0,1-1.092,9.662,21.586,21.586,0,0,1-12.045,14.892c-5,2.415-10.192,4.2-15.884,3.607-6.685-.695-11.251-5.13-12.31-11.847a26.464,26.464,0,0,1-.331-4.269c0-12.112.033-24.256-.033-36.4a1.728,1.728,0,0,1,1.39-1.985c2.25-.728,4.434-1.655,6.684-2.35,4.633-1.39,7.479.761,7.512,5.593.033,4.136,0,8.273,0,12.409v17.539a16.754,16.754,0,0,0,.033,1.82c.2,1.886.463,3.838,2.581,4.6s3.938-.066,5.493-1.389c1.953-1.688,2.449-4.038,2.482-6.453.067-6.387.033-12.774.033-19.193Z"/><path class="cls-1" d="M930.33,98.529V111.2c0,5.162-2.217,7.843-7.28,8.835-2.151.431-4.335.828-6.486,1.291-.96.2-1.39.066-1.39-1.092q.05-26.358.033-52.781c0-.7-.033-1.225.926-1.39,7.049-1.125,14.064-2.714,21.212-3.309,4.467-.364,8.7.463,12.31,3.309,5.03,3.971,6.453,10.953,3.607,17.571a19.8,19.8,0,0,1-6.916,8.273c-.927.662-.927,1.026-.165,1.854,2.912,3.176,5.758,6.419,8.57,9.629,3.243,3.673,3.177,8.339-.132,11.185a8.046,8.046,0,0,1-11.748-1.092C938.8,108.622,934.731,103.79,930.33,98.529Zm-.066-8.5c3.9-1.886,7.081-3.971,8.438-7.909,1.721-5-.894-8.107-6.089-7.445-.43.066-.86.1-1.324.165-.761.1-1.092.463-1.059,1.324.034,4.5.034,9,.034,13.865Z"/><path class="cls-1" d="M878.078,101.772c0-8.836.033-17.638-.033-26.474,0-1.158.331-1.621,1.456-1.853,10.126-2.151,20.252-4.3,30.444-6.155,1.125-.2,1.456-.033,1.39,1.125-.1,2.151,0,4.3-.165,6.453-.2,2.912-1.655,4.534-4.5,5.162-3.872.828-7.743,1.622-11.648,2.383-1.092.2-1.589.53-1.489,1.787.132,1.986.066,3.971.033,5.957-.033.959.165,1.191,1.191.959,4.567-1.059,9.167-1.952,13.7-2.978,1.158-.265,1.423.033,1.357,1.125-.066,1.754,0,3.541-.033,5.3-.133,3.044-1.357,4.7-4.335,5.46-3.409.86-6.883,1.522-10.325,2.25-1.092.232-1.688.563-1.588,1.886a70.053,70.053,0,0,1,0,7.446c-.066,1.522.331,1.853,1.787,1.489,4.963-1.191,9.993-2.184,14.99-3.375,1.258-.3,1.655-.1,1.556,1.224-.1,1.853,0,3.739-.067,5.626-.1,3.673-1.82,5.89-5.394,6.717-9.1,2.151-18.233,4.17-27.366,6.288-1.291.3-1.059-.43-1.059-1.125V101.805h.1Z"/><path class="cls-1" d="M880.593,12.126l.1-.165c-.033,0-.1-.033-.132-.033a.536.536,0,0,0-.232.132Z"/><path class="cls-1" d="M879.137,279.342l-.364.132c-.066-.232.1-.2.232-.265Z"/><path class="cls-1" d="M878.31,279.739c-.034.033-.067.066-.1.066s-.066-.066-.1-.1c.033-.033.066-.067.1-.067S878.276,279.706,878.31,279.739Z"/></svg>