<svg id="Layer_1" data-name="Layer 1" xmlns="http://www.w3.org/2000/svg" viewBox="0 0 1641.8 351"><defs><style>.cls-1{fill:#fff;}</style></defs><title>Carvel</title><path class="cls-1" d="M1018.429,336.653a42.791,42.791,0,0,1-12.984-1.779c-22.943-7.826-31.836-22.677-35.126-33.7-1.957-6.491-3.735-12.894-.889-28.9-4.358-2.757-11.383-7.292-14.585-11.027A38.562,38.562,0,0,1,948,249.77c-2.134,3.024-9.515,14.317-11.65,17.341-41.974,58.959-59.048,68.3-73.01,64.117A21.626,21.626,0,0,1,850,319.312c-2.668-5.87-3.112-14.14-2.134-23.833-16.719,20.631-37.172,32.814-50.778,36.905-9.426,2.846-18.675,2.134-26.678-2.223a25.763,25.763,0,0,1-13.34-17.43c-4.357-19.031,10.494-41.974,26.234-63.939,1.779-2.4,3.2-4.447,4.091-5.869,3.29-5.158,12-18.764,11.027-23.477-1.423-3.558-11.828-10.672-19.831-15.83C755.024,260.8,707.181,329.627,673.655,333.185c-11.739,1.333-22.054-3.647-28.19-13.518a22.074,22.074,0,0,1-1.156-1.956c-17.7,14.317-41.974,25.522-61.628,14.762-9.515-5.158-16.007-14.851-18.852-28.012-5.425-25.434,4.357-58.515,22.41-83.77,39.217-54.78,84.037-72.833,115.606-51.668a8,8,0,0,1,1.69,1.334c20.186,18.586,8.27,43.486.355,59.938l-2.223,4.624c-5.691,12.183-18.5,32.992-30.324,50.956a14.046,14.046,0,0,1-1.423,3.112,18.834,18.834,0,0,0-2.045,13.339c.533,2.135,1.333,3.024,1.511,3.113a2.928,2.928,0,0,0,1.245,0c16.719-1.779,74.522-74.877,90.974-137.927a13.869,13.869,0,1,1,26.856,6.936l-.534,2.134c16.986,10.761,34.593,21.877,37.617,37.261,3.2,15.74-7.292,32.014-14.851,43.931-1.067,1.689-2.757,4.09-4.891,7.025-19.564,27.39-22.232,37.261-21.787,40.907.8.355,2.312.8,5.157-.089,9.338-2.757,42.152-20.187,94.887-120.231a13.885,13.885,0,0,1,24.9,12.272c-17.518,38.061-31.747,81.28-33.792,101.111,14.94-13.961,41.885-50.6,66.785-89.194,4.535-7.2,9.782-19.031,9.782-19.031,6.847-39.039,21.431-50.511,27.39-52.112,7.825-2.134,13.339,1.067,17.874,7.2,5.336,7.2,5.425,17.252.267,26.323-5.869,10.493-17.786,29.791-30.236,49.266-1.511,11.294,2.579,19.475,10.4,23.21a236.6,236.6,0,0,1,19.831-32.814l1.69-2.223c8.448-11.472,26.856-34.06,50.066-36.283,7.648-.711,19.031.623,30.413,11.116,13.073,12.005,15.385,30.68,6.225,49.978-13.517,28.634-50.778,52.289-84.481,47.576-1.779-.267-3.557-.533-5.247-.889a30.513,30.513,0,0,0,1.067,12c1.423,4.535,4.624,11.65,17.608,15.563,15.384,4.624,54.6-13.7,87.416-46.332,3.913-59.493,39.84-144.241,69.542-173.765,25.878-25.7,34.415-20.187,42.6-14.585,17.163,11.65,26.412,38.951,17.875,58.693-10.849,26.856-54.335,91.507-102.534,141.662a13.13,13.13,0,0,0,.089,1.868c.444,12.094,3.112,21.076,7.47,25.433q8.8,4.8,28.012-19.653l.534-.711a13.868,13.868,0,1,1,21.787,17.163h0l-.534.711c-23.832,30.5-46.153,38.951-66.251,24.989a10.167,10.167,0,0,1-1.156-.889c-6.936-5.958-11.827-14.318-14.673-24.9-28.19,24.989-63.5,38.417-86.349,38.506ZM674.011,188.5c-20.543,0-48.288,23.3-65.718,49.177-14.318,21.342-20.543,46.242-17.341,61.182,1.067,4.8,2.845,8.271,4.98,9.427,9.248,5.069,34.237-11.205,44.819-26.412,15.474-22.5,30.5-47.043,35.75-58.426l2.312-4.98c7.2-15.029,9.96-22.765,6.491-26.945a22.186,22.186,0,0,0-11.293-3.023Zm329.656,65.717,1.334.178c20.364,2.846,46.6-13.072,55.491-31.925,2.668-5.691,4.891-13.339.089-17.7-4.269-3.824-7.115-4.09-8.982-3.912-10.849,1.067-25.256,18.319-30.413,25.166l-1.779,2.4a125.973,125.973,0,0,0-15.74,25.789Zm203.645-157.4c-.8.089-6.67,1.778-16.363,11.383-17.7,17.607-44.286,72.387-56.291,119.963,31.48-36.727,60.827-79.768,71.587-106.269,5.247-11.916,3.29-23.21,1.067-25.077Zm-738.1,242.507a53.387,53.387,0,0,1-23.388-5.425c-15.562-8.093-26.5-21.876-32.014-40.018-11.561-38.417,1.512-97.376,34.949-157.669,36.905-66.34,104.223-115.7,145.4-123.432,18.053-3.38,28.724,1.689,34.5,6.491,32.014,26.679,5.692,85.46-22.054,130.013a13.871,13.871,0,0,1-19.119,4.447h0a13.871,13.871,0,0,1-4.447-19.12c28.279-45.442,39.751-84.126,27.835-94.086-.979-.8-4.536-1.778-11.561-.533-34.415,6.4-94.708,53-126.1,109.559-29.435,53.268-41.974,105.38-32.725,136.327,3.379,11.116,9.248,18.675,17.963,23.21,16.1,8,38.95-4.091,62.694-33.081a13.849,13.849,0,0,1,19.475-2.046h.089a13.948,13.948,0,0,1,2.046,19.565h0c-29.435,36.1-54.78,45.8-73.544,45.8Z"/></svg>