<?xml version="1.0" encoding="utf-8"?>
<!-- Generator: Adobe Illustrator 22.0.1, SVG Export Plug-In . SVG Version: 6.00 Build 0)  -->
<svg version="1.1" id="Layer_1" xmlns="http://www.w3.org/2000/svg" xmlns:xlink="http://www.w3.org/1999/xlink" x="0px" y="0px"
	 viewBox="0 0 916 1024" style="enable-background:new 0 0 916 1024;" xml:space="preserve">
<style type="text/css">
	.st0{fill:#2390C9;}
	.st1{fill:#DE1424;}
	.st2{fill:#FDFEFE;}
</style>
<title>Chevron</title>
<path class="st0" d="M917.6,516c-100.9,33.7-201.9,67.3-302.8,101c-32.9,11-65.8,22-98.7,33c-16.5,5.5-33.1,10.9-49.5,16.7
	c-4,1.4-7.5,1.4-11.5,0.1c-73.9-24.7-147.9-49.4-221.8-74c-75.2-25.1-150.4-50.2-225.7-75.2c-3.6-1.2-4.9-2.7-4.9-6.6
	c0.1-98.3,0.2-196.7,0.1-295c0-4.7,1.1-5.1,5.2-3.7c62.9,21,125.9,42,188.9,62.9c23.6,7.8,47.1,15.7,70.7,23.6
	c61.6,20.5,123.2,40.8,184.7,61.7c6.4,2.2,11.5,1.8,17.5-0.2c55.8-18.8,111.7-37.3,167.6-56c50.9-17,101.7-34,152.6-50.9
	c41.8-13.9,83.5-27.8,125.3-41.7c0.8-0.3,1.6-0.4,2.4-0.6C917.6,312.7,917.6,414.3,917.6,516z"/>
<path class="st1" d="M917.6,871c-16,4.4-31.6,10.2-47.4,15.5c-71.4,23.8-142.8,47.6-214.2,71.4c-38.6,12.9-77.1,25.7-115.7,38.6
	c-24.6,8.2-49.1,16.3-73.6,24.7c-4.2,1.4-7.8,1.4-11.9,0c-71.4-23.9-142.8-47.6-214.2-71.4C163,923.8,85.5,897.9,7.8,872.1
	c-3.9-1.3-4.9-3.1-4.9-7c0.1-98,0.1-196,0-294c0-5.9,0-5.9,5.7-4c59.3,19.7,118.6,39.5,177.9,59.2c90.5,30.2,180.9,60.4,271.4,90.6
	c2.2,0.7,4.1,0.5,6.2-0.2c88.9-29.7,177.9-59.3,266.8-89c60.5-20.2,121-40.4,181.5-60.5c1.7-0.6,3.4-1.6,5.3-1.2
	C917.6,667.7,917.6,769.3,917.6,871z"/>
<path class="st0" d="M109.6,0c6.7,1.6,13.6,2.5,20.1,5.2c3.3,1.4,4.5,3.1,3.8,6.7c-1.8,9.3-3.4,18.6-5,27.9
	c-0.5,3.2-1.5,3.8-4.8,2.5c-12.8-5.1-25.9-6.5-39.5-3.4C61.2,44.1,48.5,61.7,46.8,85c-0.7,9.8,0,19.6,3.4,29
	c6.6,18.7,23.5,30.3,44,30.9c10.5,0.3,20.6-1,30.1-5.3c3-1.4,3.8-0.3,4.3,2.3c1.7,9.6,3.4,19.3,5.1,28.9c0.4,2.2,0.5,4.1-2.3,5.2
	c-30.9,11.1-80.2,9.9-108-21.8c-11.5-13.1-18-28.5-20.7-45.6c-0.2-0.9,0.2-2-1-2.6c0-9,0-18,0-27c0.3-0.8,0.7-1.5,0.8-2.3
	c5-36.8,25.3-61,60.6-72.3c6-1.9,12.4-3,18.6-4.4C91,0,100.3,0,109.6,0z"/>
<path class="st0" d="M917.6,177c-11.3,0-22.7-0.1-34,0.1c-3.6,0.1-4.5-1.1-4.4-4.5c0.1-20.5,0.1-41,0.1-61.5
	c0-5.8-0.1-11.7-1.5-17.3c-2.6-10.3-8.6-15.5-17.9-15.6c-8.8-0.1-17.5,6.4-20,15.3c-0.8,2.9-1.2,5.8-1.2,8.9
	c0.1,23.2-0.1,46.3,0.1,69.5c0,4-0.7,5.5-5.1,5.4c-9.7-0.3-19.3-0.3-29,0c-4.3,0.1-5.7-0.9-5.6-5.4c0.3-20.3,0.1-40.7,0.1-61
	c0-19.5,0.1-39-1.5-58.4c-0.3-3.1,0.7-4.1,3.8-4.1c10,0.1,20,0.1,30,0c2.6,0,3.6,0.9,3.6,3.4c0.2,4.6,0.5,9.2,0.9,14.5
	c4.3-5.5,8.5-10.1,13.7-13.7c22.2-15.1,59.3-11.4,67,26.8c0.2,1,0,2,1,2.7C917.6,113.7,917.6,145.3,917.6,177z"/>
<path class="st2" d="M81.6,0C75.4,1.4,69.1,2.5,63,4.4C27.7,15.7,7.5,39.9,2.4,76.7c-0.1,0.8-0.5,1.5-0.8,2.3
	c0-25.3,0.1-50.5-0.1-75.8c0-2.8,0.6-3.3,3.3-3.3C30.5,0.1,56,0,81.6,0z"/>
<path class="st0" d="M191.1,62.1c13-14.5,28.3-19.5,46.2-17.2c15,1.9,27.3,14.6,31.4,32.2c2,8.5,2.6,17.1,2.6,25.7
	c0.2,23,0,46,0.2,69c0,4.2-1.2,5.4-5.4,5.3c-10-0.3-20-0.3-30,0c-3.9,0.1-4.7-1.2-4.6-4.8c0.1-22.8,0-45.7,0.1-68.5
	c0-3.5-0.6-7-1.4-10.3c-2.5-10.2-9.9-15.9-19.3-15.3c-9.8,0.6-17.8,8-19.2,17.9c-0.4,3-0.6,6-0.6,9c0,22.2-0.2,44.3,0.1,66.5
	c0.1,4.7-1.4,5.8-5.9,5.7c-9.8-0.3-19.7-0.2-29.5,0c-3.1,0-4.4-0.6-4.4-4c0.1-51.8,0.1-103.6,0-155.4c0-2.7,0.7-4.1,3.5-4.9
	c10.6-3.4,21.1-7,31.5-10.9c4.2-1.6,4.7-0.2,4.7,3.6c-0.1,17-0.1,34-0.1,51C191.1,57.9,191.1,59.5,191.1,62.1z"/>
<path class="st0" d="M403.6,141.4c1.8,9.5,3.4,18.7,5.3,27.7c0.5,2.5-0.5,3.1-2.3,4c-10.2,4.8-20.9,7.5-32,8.4
	c-21.5,1.7-42.6,0.8-60.9-12.9c-14.2-10.6-21.2-25.3-23.9-42.2c-2.5-15.2-1.7-30.3,4.3-44.6c9.3-22.4,26.5-34.5,50.2-38.1
	c12.3-1.8,24.3-1.1,35.8,3.4C399.3,55,409,70.6,413.6,90c2.3,10,2.4,20.1,2,30.3c-0.1,4-1.5,5.6-6,5.6c-24.8-0.3-49.6,0-74.4-0.2
	c-4.7,0-5.3,1.5-4,5.5c3.4,10.4,13.8,17.8,27,18.7C374.7,151.1,379.6,150.2,403.6,141.4z M353.1,97.1c6.7,0,13.3,0,20,0
	c1.2,0,3.1,0.9,3.3-1.7c0.7-7.5-6-18.8-13.3-21.9c-14.7-6.4-33.3,6-33.1,21.9c0,2.4,1.6,1.7,2.7,1.7
	C339.4,97.2,346.3,97.1,353.1,97.1z"/>
<path class="st0" d="M715.5,182.1c-39.4,0.7-65-26.9-66-65.7c-0.3-11.9,0.8-23.6,5.3-34.7c10.2-24.8,29.6-36.8,55.6-38.5
	c20-1.3,38.4,3.3,53,18c11.3,11.3,16.4,25.4,18.2,41c1.6,13.8,0.3,27.2-4.4,40.2C768.9,165.5,747.3,182.9,715.5,182.1z M690.6,112.8
	c-0.4,8.1,0.7,16.2,4.1,23.8c3.9,8.9,10.3,14.4,20.6,14.6c10.5,0.2,17.6-4.8,21.4-14.1c6.6-16.2,6.6-32.8-0.1-49
	c-3.7-9.1-10.8-14.1-21-14c-10.2,0.1-16.8,5.4-20.8,14.3C691.3,96.1,690.3,104.3,690.6,112.8z"/>
<path class="st0" d="M485.2,139.3c6.3-24.3,12.3-47.7,18.4-71.1c1.4-5.3,2.8-10.6,4-15.9c0.6-2.7,1.7-4.2,5-4.2
	c11.8,0.2,23.7,0.2,35.5,0c3.8,0,4,1.1,2.9,4.4c-13.6,40.2-27.1,80.4-40.5,120.6c-0.9,2.7-2.1,3.9-5.2,3.9c-13.3-0.2-26.7-0.2-40,0
	c-3,0-4.4-0.9-5.4-3.7c-13.5-40.4-27-80.7-40.7-121c-1.1-3.2-0.7-4.2,2.8-4.1c12,0.1,24,0.2,36,0c3.1,0,4,1.5,4.6,3.9
	c7,27.3,14,54.5,21.1,81.8C484.1,135.3,484.5,136.8,485.2,139.3z"/>
<path class="st0" d="M600,72c1.7-3.5,3-6.2,4.4-8.8c8.5-15.5,23.3-19.7,38.5-17.4c1.9,0.3,2.5,1.3,2.5,3c0,10.8-0.1,21.6,0,32.5
	c0,3.3-2.1,2.8-4,2.5c-5.3-0.9-10.5-1.2-15.8,0.1c-13,3-22.6,13.9-22.9,27.3c-0.4,20.1-0.4,40.3-0.3,60.4c0,4.4-1.2,5.7-5.6,5.5
	c-9.5-0.3-19-0.3-28.5,0c-4.4,0.1-5.9-0.9-5.9-5.7c0.2-33.8,0.1-67.6,0-101.4c0-6-0.5-12-1-17.9c-0.2-2.6,0.3-4,3.4-3.9
	c10.2,0.2,20.3,0.1,30.5,0c2.7,0,3.3,1.1,3.4,3.6C599,58.2,599.5,64.6,600,72z"/>
<path class="st2" d="M353.1,97.1c-6.8,0-13.7,0-20.5,0c-1.1,0-2.6,0.6-2.7-1.7c-0.2-15.9,18.4-28.3,33.1-21.9
	c7.3,3.1,14,14.4,13.3,21.9c-0.2,2.6-2.1,1.7-3.3,1.7C366.4,97.2,359.7,97.1,353.1,97.1z"/>
<path class="st2" d="M690.6,112.8c-0.4-8.5,0.7-16.7,4.2-24.4c4-8.9,10.7-14.2,20.8-14.3c10.2-0.1,17.2,4.9,21,14
	c6.7,16.2,6.7,32.8,0.1,49c-3.8,9.3-10.9,14.3-21.4,14.1c-10.3-0.2-16.7-5.6-20.6-14.6C691.3,129,690.3,120.9,690.6,112.8z"/>
</svg>
