<?xml version="1.0" encoding="utf-8"?>
<!-- Generator: Adobe Illustrator 19.0.0, SVG Export Plug-In . SVG Version: 6.00 Build 0)  -->
<svg version="1.1" id="svg38898" xmlns:svg="http://www.w3.org/2000/svg"
	 xmlns="http://www.w3.org/2000/svg" xmlns:xlink="http://www.w3.org/1999/xlink" x="0px" y="0px"
	 viewBox="-1945.4 172.6 1138.7 448" style="enable-background:new -1945.4 172.6 1138.7 448;" xml:space="preserve">
<style type="text/css">
	.st0{fill:#FFFFFF;}
</style>
<g id="g38907" transform="matrix(1.25,0,0,-1.25,-539.88561,154.39707)">
	<g id="XMLID_1_">
		<g>
			<path class="st0" d="M-236.1-99.7c12.4,0,22.6-10.1,22.6-22.6c0-12.5-10.2-22.6-22.6-22.6c-12.5,0-22.7,10.1-22.7,22.6
				C-258.7-109.8-248.6-99.7-236.1-99.7z M-216.4-122.3c0,10.8-8.8,19.6-19.6,19.6c-10.9,0-19.6-8.9-19.6-19.6
				c0-10.9,8.8-19.6,19.6-19.6C-225.2-142-216.4-133.2-216.4-122.3z"/>
			<path class="st0" d="M-225.9-134.7h-4.1c-0.2,0.9-0.3,1.7-0.3,3.1c0,5.3-1.6,6.7-6.2,6.7h-4.4v-9.9h-4v24.8h8.4
				c5.3,0,10.7-1.2,10.7-7.2c0-4.2-3.2-5.6-6.1-6c3.7-0.8,5.6-3.1,5.6-7.5C-226.4-132.3-226.2-134-225.9-134.7z M-230.3-117
				c0,2.9-2.4,4.2-6.3,4.2h-4.4v-9h4.4C-232.5-121.8-230.3-120.3-230.3-117z"/>
			<polygon class="st0" points="-330.9,-186.3 -266,-287.1 -333.1,-287.1 -364.3,-232.1 -403.7,-287.1 -471.6,-287.1 -396.7,-186 
				-454.1,-100.4 -385.6,-100.4 -363.5,-140 -337.9,-100.4 -269.1,-100.4 			"/>
			<polygon class="st0" points="-537.3,-100.4 -481.2,-100.4 -481.2,-100.4 			"/>
			<path class="st0" d="M-509.2-302.8c19.4,0,35.1-15.7,35.1-35s-15.7-35.1-35.1-35.1c-19.4,0-35.1,15.7-35.1,35.1
				C-544.4-318.5-528.6-302.8-509.2-302.8z"/>
			<path class="st0" d="M-606.7-212.7l57.1-74.4h-70.6l-35.6,55.7v-55.7h-56v186.7h73.4c21.8,0,39.4-6.1,51-17.7
				c10.4-10.4,15.6-24.4,15.6-41.7C-571.8-185.5-585.4-205.4-606.7-212.7z M-622-162.7c0,6.3-1.6,10.9-5,14.3
				c-6.6,6.6-19.4,7.5-28.9,7.6v-44C-631.9-184.4-622-178.1-622-162.7z"/>
			<polygon class="st0" points="-727,-100.4 -727,-149.2 -769.6,-149.2 -769.6,-287.1 -825.3,-287.1 -825.3,-149.2 -867.9,-149.2 
				-867.9,-100.4 			"/>
			<polygon class="st0" points="-883,-100.4 -883,-287.1 -939,-287.1 -939,-261.5 -939,-126.1 -939,-100.4 			"/>
			<path class="st0" d="M-911-14.6c19.4,0,35.1-15.7,35.1-35c0-19.4-15.7-35.2-35.1-35.2c-19.5,0-35.1,15.8-35.1,35.2
				C-946.1-30.3-930.4-14.6-911-14.6z"/>
			<path class="st0" d="M-956-126.1l-29.5-47.6c-8.3,13.8-24.6,22.6-41.1,22.6c-23.5,0-40.8-19.1-40.8-42.7s17.2-42.6,40.8-42.6
				c16.5,0,32.8,8.9,41.1,22.6l29.5-47.7c-17.8-18.6-42.8-30.1-70.6-30.1c-54,0-97.8,43.7-97.8,97.8c0,54,43.8,97.9,97.8,97.9
				C-998.8-95.9-973.8-107.5-956-126.1z"/>
		</g>
	</g>
</g>
<polygon class="st0" points="-1141.4,279.9 -1141.4,513.2 -1211.4,513.2 -1211.4,481.3 -1211.4,312.1 -1211.4,279.9 "/>
</svg>
