<svg xmlns="http://www.w3.org/2000/svg" id="Layer_1" data-name="Layer 1" viewBox="0 0 1641.8 351"><defs><style>.cls-1{fill:#fff}</style></defs><title>Clarifai</title><path d="M368.95,278.758h0c-18.37,30.873-52.049,53.581-90.066,53.581-66.848,0-108.691-50.264-108.691-109.713S219.18,114.955,279.14,114.955a105.533,105.533,0,0,1,90.066,51.8h0a5.389,5.389,0,0,1-2.042,7.144l-42.609,24.494a5.565,5.565,0,0,1-7.144-1.786h0A46.1,46.1,0,1,0,241.123,248.4c14.288,20.922,43.119,26.535,64.041,12.247A46.589,46.589,0,0,0,317.411,248.4h0a5.7,5.7,0,0,1,7.4-2.041s40.058,23.218,42.61,24.494C369.971,272.89,370.736,276.207,368.95,278.758ZM925.166,29.992A32.914,32.914,0,1,0,958.08,62.906a32.994,32.994,0,0,0-32.914-32.914Zm30.617,91.852a5.448,5.448,0,0,0-5.613-5.358H900.162a5.389,5.389,0,0,0-5.358,5.358v202.84a5.389,5.389,0,0,0,5.358,5.358H950.17a5.389,5.389,0,0,0,5.358-5.358Zm486.051-91.852a32.914,32.914,0,1,0,32.914,32.914c-.255-18.116-14.8-32.914-32.914-32.914Zm30.362,91.852a5.232,5.232,0,0,0-5.358-5.358h-50.263a5.389,5.389,0,0,0-5.358,5.358v202.84a5.389,5.389,0,0,0,5.358,5.358h50.008a5.389,5.389,0,0,0,5.358-5.358ZM462.078,24.379a5.389,5.389,0,0,0-5.358-5.358H406.712a5.389,5.389,0,0,0-5.358,5.358V324.684a5.232,5.232,0,0,0,5.358,5.358H456.72a5.389,5.389,0,0,0,5.358-5.358Zm679.706,91.852h-45.671c-6.634,0-6.634-4.082-6.634-7.654,0-31.893,0-28.577,50.774-28.577a5.117,5.117,0,0,0,5.1-5.1V25.91c0-2.807,0-7.144-6.379-7.144-35.975,0-109.712-6.889-110.222,91.341,0,0,0,5.869-4.338,5.869H992.269a5.232,5.232,0,0,0-5.358,5.358V171.6a5.389,5.389,0,0,0,5.358,5.358h31.383c4.592,0,5.1,0,5.1,4.848V324.684a5.389,5.389,0,0,0,5.358,5.358h50.008a5.389,5.389,0,0,0,5.358-5.358V182.058c0-4.592,1.531-4.592,5.613-4.592h46.692a5.39,5.39,0,0,0,5.358-5.358V121.844a5.611,5.611,0,0,0-5.358-5.613Zm-439.359,5.613v202.84a5.232,5.232,0,0,1-5.358,5.358H647.313c-5.613,0-5.358-7.144-5.358-7.144,0-3.062-2.551-4.848-5.1-3.317a77.009,77.009,0,0,1-42.1,12.758c-64.3,0-107.671-46.182-107.671-110.478A107.045,107.045,0,0,1,593.223,114.955a97.718,97.718,0,0,1,43.885,11.482,3.575,3.575,0,0,0,4.847-.766,4.11,4.11,0,0,0,.766-2.3s-.256-7.144,5.358-7.144h49.243A5.581,5.581,0,0,1,702.425,121.844Zm-60.47,101.037a46.692,46.692,0,1,0-46.691,46.947,46.879,46.879,0,0,0,46.691-46.947ZM795.042,329.787H744.779a5.232,5.232,0,0,1-5.358-5.358V121.589a5.232,5.232,0,0,1,5.358-5.358h51.029c5.613,0,5.358,7.144,5.358,7.144a3.629,3.629,0,0,0,3.316,3.827h1.276c1.276-.255,4.338-2.041,6.634-3.062,7.909-3.316,21.942-7.4,47.712-7.4,6.379,0,6.379,4.338,6.379,7.144v48.733a5.118,5.118,0,0,1-5.1,5.1c-45.161,0-58.939,5.1-60.725,28.321l.256,118.9a5.647,5.647,0,0,1-5.869,4.848Zm578.413-207.943v202.84a5.232,5.232,0,0,1-5.358,5.358h-49.753c-5.613,0-5.358-7.144-5.358-7.144,0-3.062-2.551-4.848-5.1-3.317a77.009,77.009,0,0,1-42.1,12.758c-64.3,0-107.671-46.182-107.671-110.478a107.044,107.044,0,0,1,106.14-106.906,97.711,97.711,0,0,1,43.885,11.482,3.576,3.576,0,0,0,4.848-.766,4.118,4.118,0,0,0,.766-2.3s-.256-7.144,5.358-7.144h49.242A5.58,5.58,0,0,1,1373.455,121.844Zm-60.469,101.037a46.692,46.692,0,1,0-46.692,46.947C1292.319,269.573,1313.241,248.651,1312.986,222.881Z" class="cls-1"/></svg>