<svg id="Layer_1" data-name="Layer 1" xmlns="http://www.w3.org/2000/svg" viewBox="0 0 1641.8 351"><defs><style>.cls-1{fill:#fff;}</style></defs><title>Cloudflare</title><path class="cls-1" d="M1335.287,284.348a8.826,8.826,0,0,1-8.883-8.883,8.883,8.883,0,1,1,17.765,0,9.014,9.014,0,0,1-8.882,8.883m0-16.018a7.135,7.135,0,1,0,7.135,7.135,7.146,7.146,0,0,0-7.135-7.135m4.514,11.8h-2.039l-1.747-3.349h-2.33v3.349h-1.893v-9.757h4.66a3.1,3.1,0,0,1,3.349,3.2,3.022,3.022,0,0,1-2.039,2.912Zm-3.495-5.1a1.371,1.371,0,0,0,1.456-1.456c0-1.165-.582-1.456-1.456-1.456h-2.912v2.912Z"/><polygon class="cls-1" points="409.9 265.709 432.616 265.709 432.616 327.595 472.078 327.595 472.078 347.399 409.9 347.399 409.9 265.709"/><path class="cls-1" d="M495.522,306.772v-.291c0-23.444,18.93-42.52,44.122-42.52s43.83,18.785,43.83,42.229v.291c0,23.444-18.93,42.52-44.122,42.52s-43.83-18.785-43.83-42.229m64.945,0v-.291c0-11.8-8.446-21.988-20.969-21.988-12.377,0-20.677,10.048-20.677,21.842v.292c0,11.8,8.445,21.988,20.823,21.988,12.523,0,20.823-10.048,20.823-21.843"/><path class="cls-1" d="M611.286,311.578V265.709h23.008v45.432c0,11.795,5.97,17.328,15,17.328s15-5.388,15-16.746V265.709H687.3V311c0,26.357-15,37.86-38.3,37.86-23.153,0-37.715-11.649-37.715-37.277"/><path class="cls-1" d="M721.954,265.709h31.453c29.123,0,46.16,16.746,46.16,40.335v.292c0,23.589-17.182,41.063-46.6,41.063H721.954v-81.69Zm31.89,61.595c13.542,0,22.57-7.426,22.57-20.677v-.292c0-13.1-9.028-20.677-22.57-20.677H744.67v41.5h9.174Z"/><polygon class="cls-1" points="832.476 265.709 897.858 265.709 897.858 285.513 855.047 285.513 855.047 299.492 893.781 299.492 893.781 318.276 855.047 318.276 855.047 347.399 832.476 347.399 832.476 265.709"/><polygon class="cls-1" points="929.311 265.709 951.881 265.709 951.881 327.595 991.489 327.595 991.489 347.399 929.311 347.399 929.311 265.709"/><path class="cls-1" d="M1050.609,265.126h21.842l34.8,82.273h-24.318l-5.97-14.561h-31.453l-5.825,14.561h-23.735Zm19.949,50.092-9.028-23.153-9.174,23.153Z"/><path class="cls-1" d="M1136.376,265.709h38.588c12.523,0,21.114,3.2,26.648,8.882,4.8,4.66,7.281,10.922,7.281,19.076v.291c0,12.523-6.7,20.823-16.746,25.046l19.512,28.541h-26.21l-16.455-24.755h-9.9v24.755h-22.716V265.709Zm37.569,39.17c7.718,0,12.086-3.786,12.086-9.61v-.292c0-6.407-4.66-9.61-12.232-9.61h-14.853v19.512Z"/><polygon class="cls-1" points="1241.511 265.709 1307.183 265.709 1307.183 284.93 1263.935 284.93 1263.935 297.307 1303.106 297.307 1303.106 315.218 1263.935 315.218 1263.935 328.178 1307.766 328.178 1307.766 347.399 1241.511 347.399 1241.511 265.709"/><path class="cls-1" d="M360.391,316.383a20.086,20.086,0,0,1-18.639,12.232c-12.377,0-20.823-10.339-20.823-21.988v-.291c0-11.8,8.3-21.843,20.677-21.843a20.29,20.29,0,0,1,19.367,13.542h23.881c-3.786-19.512-20.968-33.928-43.1-33.928-25.191,0-44.121,19.076-44.121,42.52v.291c0,23.444,18.638,42.229,43.83,42.229,21.551,0,38.442-13.98,42.811-32.618l-23.881-.146Z"/><path class="cls-1" d="M1166.664,214.452c3.058-10.484,1.893-20.095-3.2-27.23-4.66-6.553-12.523-10.339-21.988-10.776L962.22,174.117a3.315,3.315,0,0,1-2.767-1.457,4.015,4.015,0,0,1-.437-3.2,4.918,4.918,0,0,1,4.223-3.2l180.855-2.329c21.4-1.02,44.7-18.348,52.858-39.608l10.339-26.939a5.786,5.786,0,0,0,.291-3.495A117.757,117.757,0,0,0,981.15,81.8a52.937,52.937,0,0,0-84.457,36.987A55.585,55.585,0,0,0,898,137.276a75.231,75.231,0,0,0-73.1,75.283,91.651,91.651,0,0,0,.729,10.921,3.586,3.586,0,0,0,3.494,3.058h330.839a4.5,4.5,0,0,0,4.223-3.2Z"/><path class="cls-1" d="M1223.745,99.27c-1.6,0-3.349,0-4.951.146a2.945,2.945,0,0,0-2.621,2.038l-6.989,24.318c-3.058,10.485-1.893,20.095,3.2,27.23,4.66,6.553,12.523,10.339,21.988,10.776l38.152,2.33a3.311,3.311,0,0,1,2.766,1.456,4.1,4.1,0,0,1,.437,3.2,4.915,4.915,0,0,1-4.223,3.2l-39.753,2.33c-21.551,1.019-44.7,18.347-52.858,39.607l-2.912,7.427a2.1,2.1,0,0,0,2.038,2.912H1314.61a3.583,3.583,0,0,0,3.494-2.621,99.524,99.524,0,0,0,3.641-26.5c0-53.878-43.976-97.854-98-97.854"/></svg>