<svg xmlns="http://www.w3.org/2000/svg" id="Layer_1" data-name="Layer 1" viewBox="0 0 1641.8 351"><defs><style>.cls-1{fill:#fff}</style></defs><title>Dell</title><path d="M641.218,98.818V92.19L638.377,90.3H524.759l-1.894,1.893v6.628l1.894,1.893h48.287l1.893,1.893V240.839l1.894,1.893h8.521l1.894-1.893V103.55l1.893-1.893h49.235l2.841-2.839ZM666.8,131.969c-30.3,0-48.32,21.754-48.32,53v4.766c0,30.3,15.16,56.783,50.193,56.783,30.3,0,41.662-19.88,43.557-33.135l-1.87-1.87H701.8l-1.871,1.87c-4.734,13.255-13.286,21.778-30.33,21.778-28.4,0-36.919-26.514-36.919-39.769l1.915-1.871H713.16l1.915-1.915v-6.636c0-31.244-17.032-53-48.277-53Zm0,11.356c13.256,0,21.991,5.444,27.434,12.782s7.571,16.565,7.571,24.139l-1.87,1.915H633.661l-1.915-1.915c0-7.574,2.127-16.8,7.571-24.139s14.224-12.782,27.48-12.782Zm70.05,45.441c0-30.3,15.149-46.394,36.926-46.394s30.3,13.255,33.139,26.511l1.894,1.892h9.468l1.893-1.892c-1.893-21.777-19.883-36.925-46.394-36.925-28.4,0-50.181,17.989-50.181,56.808,0,39.768,21.777,56.811,50.181,56.811,26.511,0,43.553-15.15,46.394-36.927l-1.893-1.892h-8.521l-1.894,1.892c-1.893,13.255-11.362,26.511-33.139,26.511s-37.873-15.148-37.873-46.4Zm189.364,53.023V175.511c0-28.4-15.149-43.553-39.766-43.553-15.149,0-28.4,6.627-35.031,17.989h-1.894V93.137l-2.84-2.839h-8.522l-1.893,1.893v149.6l1.893,1.893h8.522l1.893-1.893V182.14c0-24.618,11.362-39.768,35.032-39.768,17.989,0,28.405,11.363,28.405,33.139v66.278l1.894,1.893h8.521l3.787-1.893Zm111.725,0V175.511c0-28.4-15.149-43.553-39.765-43.553-15.149,0-28.4,6.627-35.032,17.989h-1.893l-1.894-13.255-1.893-1.892h-6.628l-1.893,1.892v105.1l1.893,1.893h8.521l1.894-1.893V182.14c0-24.618,11.362-39.768,35.032-39.768,17.989,0,28.405,11.363,28.405,33.139v66.278l1.893,1.893h9.468l1.894-1.893Zm63.446-108.884c-28.405,0-50.193,19.9-50.193,56.828s21.788,56.783,50.193,56.783,50.193-19.857,50.193-56.783S1129.785,132.905,1101.38,132.905Zm0,10.421a33.31,33.31,0,0,1,26.634,12.559c6.509,8.049,10.287,19.647,10.287,33.848s-3.778,25.8-10.287,33.849a34.6,34.6,0,0,1-53.267,0c-6.51-8.048-10.288-19.645-10.288-33.849,0-14.675,3.778-26.273,10.288-34.2s15.744-12.2,26.633-12.2ZM1180.9,241.79V92.191l-2.84-1.892h-8.522l-1.893,1.892v149.6l1.893,1.892h8.522Zm65.352-108.885c-28.4,0-50.193,19.905-50.193,56.829s21.788,56.783,50.193,56.783,50.148-19.857,50.148-56.783S1274.66,132.905,1246.256,132.905Zm0,10.422a33.217,33.217,0,0,1,26.588,12.559c6.509,8.048,10.332,19.646,10.332,33.848s-3.823,25.8-10.332,33.848a34.548,34.548,0,0,1-53.221,0c-6.544-8.049-10.375-19.646-10.375-33.85,0-14.676,3.823-26.273,10.332-34.2s15.744-12.2,26.633-12.2Zm107.911-11.357c-30.3,0-46.408,24.593-46.408,56.783,0,33.139,15.162,56.828,46.408,56.828,19.883,0,30.316-8.522,35.05-17.992v.935c0,28.4-6.624,50.193-33.134,50.193-19.884,0-26.52-8.5-28.415-19.863l-1.915-1.915h-8.506l-1.915,1.915c1.893,17.989,15.175,30.284,41.685,30.284,28.4,0,46.408-17.994,46.408-61.549v-90.9l-1.915-1.871h-6.636L1393,136.692l-1.915,13.271h-1.87c-4.734-8.521-15.167-17.992-35.05-17.992Zm0,10.421c10.888,0,19.662,3.753,25.7,11.446s9.352,19.3,9.352,34.915-3.316,27.224-9.352,34.916-14.809,11.49-25.7,11.49-19.661-3.8-25.7-11.49-9.308-19.293-9.308-34.916c0-15.148,3.272-26.749,9.308-34.559s14.809-11.8,25.7-11.8Zm83.325-27.474V101.659l-1.892-1.892h-8.522l-2.84,1.892v13.258l1.892,1.892h8.522Zm0,126.873v-105.1L1435.6,134.8h-8.522l-2.84,1.892v105.1l1.892,1.893h8.522Zm63.423-109.819c-30.3,0-48.277,21.754-48.277,53v4.766c0,30.3,15.16,56.783,50.193,56.783,30.3,0,41.662-19.88,43.557-33.135l-1.915-1.87h-8.506l-1.915,1.87c-4.734,13.255-13.242,21.778-30.284,21.778-28.4,0-36.92-26.514-36.92-39.769l1.915-1.871h78.562l1.914-1.915v-6.636c0-30.3-18.023-53-48.32-53Zm0,11.357c13.256,0,22.035,5.443,27.48,12.781s7.571,16.565,7.571,24.139l-1.915,1.915h-66.269l-1.87-1.915c0-7.574,2.127-16.8,7.571-24.139s14.179-12.781,27.434-12.781Zm141.091,71.951c0-19.882-11.362-28.4-33.139-33.137s-35.032-6.629-35.032-21.779c0-11.36,8.522-17.989,24.618-17.989,19.883,0,26.51,8.522,26.51,19.884l1.893,1.893h8.521l1.895-1.893c0-21.776-17.99-30.3-39.768-30.3-24.617,0-36.926,13.256-36.926,28.4,0,17.992,13.255,26.513,35.032,30.3,21.776,4.734,33.139,6.627,33.139,24.616,0,11.362-6.628,19.884-28.406,19.884-19.883,0-28.4-11.363-28.4-24.618l-1.9-1.893h-8.521l-1.895,1.893c0,19.884,15.149,35.034,41.661,35.034,27.458.957,40.714-12.309,40.714-30.3Z" class="cls-1"/><path d="M521.915,211.386v31.346H423.4V88.234h35.826V211.379h62.693ZM224.091,79.277,136.8,146.483c-8.957-33.588-38.06-58.254-73.885-58.254H.206v154.5H62.913c35.825,0,67.167-24.622,73.885-58.208l87.29,67.161,87.336-67.161v58.208h98.514V211.372H345.049V88.229H309.2v58.208l-82.838,67.206-17.9-15.677,40.306-31.353,42.549-33.582L266.684,112.9l-82.848,64.89-17.9-15.677,82.828-62.707-24.62-20.13h-.051Zm-190.3,40.306H60.642a38.7,38.7,0,0,1,16.122,3.562,43.438,43.438,0,0,1,13.583,9.887A47.105,47.105,0,0,1,99.7,147.907a51.688,51.688,0,0,1,.312,36.431,48.676,48.676,0,0,1-8.863,15.009A42.278,42.278,0,0,1,77.7,209.724,39.023,39.023,0,0,1,60.642,213.6H33.787V119.583Z" class="cls-1"/></svg>