<?xml version="1.0" encoding="utf-8"?>
<!-- Generator: Adobe Illustrator 19.0.0, SVG Export Plug-In . SVG Version: 6.00 Build 0)  -->
<svg version="1.1" id="Layer_1" xmlns="http://www.w3.org/2000/svg" xmlns:xlink="http://www.w3.org/1999/xlink" x="0px" y="0px"
	 viewBox="-593 351.4 720 92" style="enable-background:new -593 351.4 720 92;" xml:space="preserve">
<style type="text/css">
	.st0{fill:#FFFFFF;}
</style>
<g>
	<path class="st0" d="M-311.9,360V357l-1.2-0.8H-363l-0.8,0.8v2.9l0.8,0.8h21.2l0.8,0.8v60.6l0.8,0.8h3.7l0.8-0.8V362l0.8-0.8h21.6
		L-311.9,360L-311.9,360z M-300.7,374.5c-13.3,0-21.2,9.5-21.2,23.2v2.1c0,13.3,6.6,24.9,22,24.9c13.3,0,18.3-8.7,19.1-14.5
		l-0.8-0.8h-3.7l-0.8,0.8c-2.1,5.8-5.8,9.6-13.3,9.6c-12.5,0-16.2-11.6-16.2-17.4l0.8-0.8h34.5l0.8-0.8v-2.9
		C-279.5,384-287,374.5-300.7,374.5L-300.7,374.5z M-300.7,379.5c5.8,0,9.6,2.4,12,5.6c2.4,3.2,3.3,7.3,3.3,10.6l-0.8,0.8h-29.1
		l-0.8-0.8c0-3.3,0.9-7.4,3.3-10.6C-310.3,381.9-306.5,379.5-300.7,379.5L-300.7,379.5z M-270,399.4c0-13.3,6.6-20.3,16.2-20.3
		c9.6,0,13.3,5.8,14.5,11.6l0.8,0.8h4.2l0.8-0.8c-0.8-9.5-8.7-16.2-20.3-16.2c-12.5,0-22,7.9-22,24.9c0,17.4,9.6,24.9,22,24.9
		c11.6,0,19.1-6.6,20.3-16.2l-0.8-0.8h-3.7l-0.8,0.8c-0.8,5.8-5,11.6-14.5,11.6C-262.9,419.7-270,413.1-270,399.4L-270,399.4z
		 M-186.9,422.6v-29.1c0-12.5-6.6-19.1-17.4-19.1c-6.6,0-12.5,2.9-15.4,7.9h-0.8v-24.9l-1.2-1.2h-3.7l-0.8,0.8v65.6l0.8,0.8h3.7
		l0.8-0.8v-26.2c0-10.8,5-17.4,15.4-17.4c7.9,0,12.5,5,12.5,14.5v29.1l0.8,0.8h3.7L-186.9,422.6L-186.9,422.6z M-137.9,422.6v-29.1
		c0-12.5-6.6-19.1-17.4-19.1c-6.6,0-12.5,2.9-15.4,7.9h-0.8l-0.8-5.8l-0.8-0.8h-2.9l-0.8,0.8v46.1l0.8,0.8h3.7l0.8-0.8v-26.2
		c0-10.8,5-17.4,15.4-17.4c7.9,0,12.5,5,12.5,14.5v29.1l0.8,0.8h4.2L-137.9,422.6L-137.9,422.6z M-110.1,374.9
		c-12.5,0-22,8.7-22,24.9c0,16.2,9.6,24.9,22,24.9s22-8.7,22-24.9C-88.1,383.6-97.6,374.9-110.1,374.9z M-110.1,379.5
		c4.8,0,8.8,2,11.7,5.5c2.9,3.5,4.5,8.6,4.5,14.8c0,6.2-1.7,11.3-4.5,14.8c-2.9,3.5-6.9,5.5-11.7,5.5c-4.8,0-8.8-2-11.7-5.5
		c-2.9-3.5-4.5-8.6-4.5-14.8c0-6.4,1.7-11.5,4.5-15C-118.9,381.3-114.9,379.5-110.1,379.5L-110.1,379.5z M-75.2,422.7V357l-1.2-0.8
		h-3.7L-81,357v65.6l0.8,0.8h3.7L-75.2,422.7z M-46.6,374.9c-12.5,0-22,8.7-22,24.9c0,16.2,9.6,24.9,22,24.9s22-8.7,22-24.9
		C-24.6,383.6-34.1,374.9-46.6,374.9z M-46.6,379.5c4.8,0,8.8,2,11.7,5.5c2.9,3.5,4.5,8.6,4.5,14.8c0,6.2-1.7,11.3-4.5,14.8
		c-2.9,3.5-6.9,5.5-11.7,5.5c-4.8,0-8.8-2-11.7-5.5c-2.9-3.5-4.5-8.6-4.5-14.8c0-6.4,1.7-11.5,4.5-15
		C-55.4,381.3-51.3,379.5-46.6,379.5L-46.6,379.5z M0.8,374.5c-13.3,0-20.4,10.8-20.4,24.9c0,14.5,6.6,24.9,20.4,24.9
		c8.7,0,13.3-3.7,15.4-7.9v0.4c0,12.5-2.9,22-14.5,22c-8.7,0-11.6-3.7-12.5-8.7l-0.8-0.8h-3.7l-0.8,0.8c0.8,7.9,6.7,13.3,18.3,13.3
		c12.5,0,20.4-7.9,20.4-27v-39.9l-0.8-0.8h-2.9l-0.8,0.8l-0.8,5.8h-0.8C14.1,378.6,9.5,374.5,0.8,374.5L0.8,374.5z M0.8,379.1
		c4.8,0,8.6,1.6,11.3,5c2.6,3.4,4.1,8.5,4.1,15.3c0,6.9-1.5,11.9-4.1,15.3c-2.6,3.4-6.5,5-11.3,5c-4.8,0-8.6-1.7-11.3-5
		c-2.6-3.4-4.1-8.5-4.1-15.3c0-6.6,1.4-11.7,4.1-15.2C-7.9,380.8-4,379.1,0.8,379.1L0.8,379.1z M37.3,367v-5.8l-0.8-0.8h-3.7
		l-1.2,0.8v5.8l0.8,0.8h3.7C36.1,367.8,37.3,367,37.3,367z M37.3,422.7v-46.1l-0.8-0.8h-3.7l-1.2,0.8v46.1l0.8,0.8h3.7
		C36.1,423.5,37.3,422.7,37.3,422.7z M65.1,374.5c-13.3,0-21.2,9.5-21.2,23.2v2.1c0,13.3,6.6,24.9,22,24.9
		c13.3,0,18.3-8.7,19.1-14.5l-0.8-0.8h-3.7l-0.8,0.8c-2.1,5.8-5.8,9.6-13.3,9.6c-12.5,0-16.2-11.6-16.2-17.4l0.8-0.8h34.5l0.8-0.8
		v-2.9C86.3,384.4,78.4,374.5,65.1,374.5L65.1,374.5z M65.1,379.5c5.8,0,9.7,2.4,12.1,5.6c2.4,3.2,3.3,7.3,3.3,10.6l-0.8,0.8H50.6
		l-0.8-0.8c0-3.3,0.9-7.4,3.3-10.6C55.5,381.9,59.3,379.5,65.1,379.5L65.1,379.5z M127,411c0-8.7-5-12.5-14.5-14.5
		c-9.6-2.1-15.4-2.9-15.4-9.6c0-5,3.7-7.9,10.8-7.9c8.7,0,11.6,3.7,11.6,8.7l0.8,0.8h3.7l0.8-0.8c0-9.5-7.9-13.3-17.4-13.3
		c-10.8,0-16.2,5.8-16.2,12.5c0,7.9,5.8,11.6,15.4,13.3c9.6,2.1,14.5,2.9,14.5,10.8c0,5-2.9,8.7-12.5,8.7c-8.7,0-12.5-5-12.5-10.8
		l-0.8-0.8h-3.7l-0.8,0.8c0,8.7,6.6,15.4,18.3,15.4C121.2,424.7,127,418.9,127,411L127,411z"/>
	<path class="st0" d="M-364.2,409.3v13.7h-43.2v-67.8h15.7v54L-364.2,409.3L-364.2,409.3z M-494.8,351.4l-38.3,29.5
		c-3.9-14.7-16.7-25.5-32.4-25.5H-593v67.8h27.5c15.7,0,29.5-10.8,32.4-25.5l38.3,29.5l38.3-29.5v25.5h43.2v-13.7h-28.5v-54h-15.7
		v25.5l-36.3,29.5l-7.9-6.9l17.7-13.7l18.7-14.7l-10.8-8.8l-36.3,28.5l-7.9-6.9l36.3-27.5L-494.8,351.4L-494.8,351.4L-494.8,351.4z
		 M-578.3,369.1h11.8c2.5,0,4.9,0.5,7.1,1.6c2.2,1,4.2,2.5,6,4.3c1.7,1.8,3.1,4,4.1,6.5s1.5,5.3,1.5,8.2c0,2.7-0.5,5.3-1.4,7.8
		c-0.9,2.4-2.2,4.7-3.9,6.6c-1.7,1.9-3.6,3.5-5.9,4.6c-2.3,1.1-4.8,1.7-7.5,1.7h-11.8V369.1L-578.3,369.1z"/>
</g>
</svg>
