<svg xmlns="http://www.w3.org/2000/svg" id="Layer_1" data-name="Layer 1" viewBox="0 0 1641.8 351"><defs><style>.cls-1{fill:#fff}</style></defs><title>Deloitte</title><path d="M12.049,173.311q0-69.438-.183-139.057c0-6.587.915-9.332,8.6-9.149,35.862.732,71.907-.549,107.769.915,40.253,1.647,76.481,14.455,102.646,47.389,14.637,18.3,22.139,39.705,25.433,62.576,4.391,30.739,3.293,61.478-5.855,91.3C233.625,281.994,195.2,312,139.762,319.869c-40.8,5.855-82.153,1.281-123.322,2.379-5.672.183-4.574-3.294-4.574-6.587V173.311Zm164.673-3.66c.732-7.685-.366-16.833-1.83-25.8-4.391-28.36-19.029-45.742-43.364-51.6-10.429-2.562-21.224-1.281-31.836-1.83-6.953-.366-9.149,1.464-9.149,8.783.366,44.278.183,88.374.183,132.653,0,25.8,0,25.8,25.982,24.152,27.262-1.647,46.291-16.467,54.342-42.449A131.209,131.209,0,0,0,176.722,169.651Z" class="cls-1"/><path d="M730.388,97.012c63.307-.732,106.3,42.266,107.769,107.952.366,18.846-.915,37.692-7.319,55.623-11.71,32.935-34.215,53.976-68.247,62.21-23.055,5.672-46.658,5.672-69.529-1.281-34.764-10.8-56.355-34.947-66.052-69.529a153.36,153.36,0,0,1-.549-80.323c11.527-45.194,46.109-73,92.949-74.835C723.069,97.012,726.728,97.012,730.388,97.012Zm-32.2,114.356c0,12.808.915,25.433,5.306,37.692,4.941,13.906,13.54,20.31,26.9,20.31s22.139-5.855,26.53-20.493a129.029,129.029,0,0,0,0-74.469c-4.208-13.9-13.539-20.309-26.713-20.309-12.991,0-21.591,6.587-26.531,19.577C698.917,185.752,698,198.56,698.185,211.368Z" class="cls-1"/><path d="M422.633,232.41c-20.127,0-40.253.183-60.38-.183-5.489,0-6.587,1.281-5.489,6.77,3.659,17.382,16.467,29.641,35.313,31.836a129.053,129.053,0,0,0,64.405-8.416c6.587-2.562,8.051-.549,9.149,5.306,2.012,11.71,4.757,23.237,7.868,34.581,2.195,7.136-.366,9.514-6.221,12.076-26.165,11.344-53.611,12.625-81.422,12.076a125.541,125.541,0,0,1-38.424-6.587c-32.568-11.344-53.793-33.849-62.392-67.15a166.621,166.621,0,0,1,.366-83.251c11.344-43.913,44.095-69.894,89.655-72.456,16.467-.915,32.934-.366,49.036,4.026,39.7,10.8,63.856,43.18,65.32,88.374.366,12.259-.183,24.335.183,36.594.183,5.306-1.647,6.587-6.587,6.4C462.886,232.227,442.76,232.41,422.633,232.41ZM389.15,183.923c8.782,0,17.565-.183,26.347,0,4.757.183,6.221-.915,5.489-6.221-2.927-17.565-14.637-28.726-31.105-28.726s-29.275,11.893-31.653,29.458c-.549,3.842,0,5.672,4.391,5.489C371.4,183.74,380.184,183.923,389.15,183.923Z" class="cls-1"/><path d="M1462.266,232.41c-19.577,0-38.972.366-58.55-.183-8.234-.183-8.782,2.378-6.953,9.331,4.208,16.1,16.65,27.08,34.582,29.275a131.767,131.767,0,0,0,64.588-8.233c6.77-2.562,8.05-.549,9.148,5.123,2.562,12.259,5.123,24.518,8.417,36.411,1.281,4.94.183,6.953-4.208,9.148a134.477,134.477,0,0,1-42.083,11.527c-22.872,2.379-45.743,3.477-68.248-1.646-46.291-10.613-75.018-44.279-78.494-92.217-1.464-19.761-1.281-39.521,3.659-59.1,10.978-44.828,44.462-72.456,90.753-74.835,16.833-.732,33.484-.183,49.768,4.392,39.521,11.161,63.307,43.912,64.222,88.557.183,11.893-.366,23.786.183,35.679.183,6.038-2.013,6.953-7.319,6.77C1501.971,232.227,1482.027,232.41,1462.266,232.41Zm-33.117-48.487c8.782,0,17.565-.183,26.53,0,4.575,0,5.489-1.464,4.758-6.038-2.745-17.565-14.455-28.726-30.922-28.909s-28.91,11.344-31.837,29.275c-.732,4.757.732,5.672,5.123,5.672C1411.4,183.74,1420.366,183.923,1429.149,183.923Z" class="cls-1"/><path d="M1302.9,258.208c0,17.931-.183,34.765,0,51.781,0,4.025-2.2,5.123-5.123,6.4-27.446,10.8-55.623,13.54-84.166,6.77-24.335-5.855-38.79-25.25-41.717-53.976-3.294-33.667-1.1-67.516-1.281-101.366,0-8.233-2.379-10.063-10.064-9.7-16.1.549-16.1.183-16.1-15.918,0-11.527.183-23.237,0-34.765-.183-4.757.549-7.135,6.221-6.952,6.221.366,14.638,2.927,18.48-1.1,4.208-4.208,1.1-12.625,1.281-19.212.183-10.429.366-20.676,0-31.105-.183-4.757,1.647-6.4,6.038-6.953,21.407-3.293,42.632-6.587,63.856-10.429,6.038-1.1,6.4,1.1,6.4,6.038-.183,18.663.183,37.143-.183,55.806-.183,6.221,2.013,7.5,7.685,7.319,10.978-.366,21.956.183,32.934-.183,5.307-.183,7.5.914,7.319,6.952-.549,14.638-.366,29.276,0,43.913.183,5.855-1.829,7.319-7.319,7.136-11.527-.366-23.237,0-34.764-.183-4.208,0-5.855.915-5.855,5.489.183,27.994,0,55.989.183,84.166.183,11.161,6.77,17.2,17.931,17.748C1277.65,266.259,1289.909,261.868,1302.9,258.208Z" class="cls-1"/><path d="M1129.993,258.208c0,17.566-.182,34.582.183,51.6,0,3.842-1.829,5.306-4.757,6.4-27.262,10.8-55.623,13.54-84.166,6.77-25.067-5.855-36.594-24.152-40.985-48.3-3.111-17.2-1.83-34.582-2.013-51.964-.183-19.211-.183-38.423.183-57.635,0-5.672-1.647-7.136-7.136-7.319-19.211-.183-19.211-.366-19.211-19.578,0-10.612.182-21.407,0-32.019-.183-4.94,1.463-6.77,6.221-5.855h.914c18.846-.183,18.846-.183,18.846-19.029,0-10.612.183-21.408,0-32.02,0-3.659.732-5.306,4.758-6.038,22.139-3.659,44.461-7.5,66.6-11.71,5.306-.915,4.391,2.379,4.391,5.306,0,18.663.366,37.143-.183,55.806-.183,6.221,1.1,8.6,7.868,8.234,11.161-.549,22.5,0,33.849-.366,4.757-.183,6.221,1.1,6.221,6.038-.366,15.186-.366,30.556,0,45.742.183,4.94-1.647,6.221-6.221,6.038-11.527-.366-23.237,0-34.764-.183-4.94-.183-6.953,1.281-6.77,6.587.366,26.531,0,53.061.183,79.592.183,15.186,7.136,21.59,22.139,21.224C1107.488,265.344,1118.283,261.5,1129.993,258.208Z" class="cls-1"/><path d="M593.527,172.945c0,47.023-.183,93.863.183,140.886,0,6.587-1.1,8.966-8.417,8.783-20.127-.549-40.253-.366-60.38,0-5.489,0-7.319-1.464-7.136-7.136q.274-142.167,0-284.518c0-6.587,2.562-7.319,7.868-7.136,19.761.366,39.7.366,59.465,0,6.77-.183,8.6,1.464,8.6,8.417C593.344,79.081,593.527,125.921,593.527,172.945Z" class="cls-1"/><path d="M867.432,210.819c0-33.849.183-67.7-.183-101.548,0-7.5,2.2-8.965,9.149-8.782,19.76.366,39.521.366,59.465,0,4.94,0,6.77,1.1,6.77,6.4q-.274,104.292,0,208.4c0,5.855-1.83,7.136-7.319,6.953-19.761-.366-39.7-.366-59.465,0-6.77.183-8.783-1.464-8.6-8.417C867.615,279.616,867.432,245.218,867.432,210.819Z" class="cls-1"/><path d="M1633.16,284.373a43.181,43.181,0,0,1-86.362-.366c.183-24.335,19.212-43,43.73-42.815a42.324,42.324,0,0,1,42.449,42.266A1.99,1.99,0,0,1,1633.16,284.373Z" class="cls-1"/><path d="M904.941,23.824c10.429,0,20.675.366,31.105-.183,5.489-.183,6.587,1.647,6.587,6.77-.366,12.442-.183,25.067,0,37.509,0,4.574-1.281,6.4-6.221,6.4-21.042-.183-42.083-.183-62.942,0-5.123,0-6.038-2.013-6.038-6.4q.274-19.212,0-38.424c0-4.391,1.281-5.855,5.672-5.672C883.533,24.007,894.329,23.824,904.941,23.824Z" class="cls-1"/></svg>