<svg xmlns="http://www.w3.org/2000/svg" id="Layer_1" data-name="Layer 1" viewBox="0 0 1641.8 351"><defs><style>.cls-1{fill:#fff}</style></defs><title>Devpost</title><path d="M1508.325,335.735H133.96c-28.134-49.154-55.621-98.308-84.4-147.138-5.5-9.7-5.5-16.492,0-26.194,28.781-48.507,56.591-97.661,84.4-146.814H1508.325c28.134,49.153,55.621,98.307,84.4,147.137,5.5,9.7,5.5,16.493,0,26.194C1564.27,237.427,1536.459,286.581,1508.325,335.735ZM169.532,174.692c0,29.1.323,58.208,0,87.312,0,8.085,1.94,11.642,10.671,11.318,19.727-.97,39.776,0,59.826-1.616,49.477-4.2,81.168-33.309,86.666-82.139,6.144-55.945-15.523-108.332-87.96-110.6-18.756-.647-37.835,0-56.591-.97-10.025-.323-12.935,2.587-12.612,12.612C170.179,118.747,169.532,146.557,169.532,174.692Zm941.359.97a122.639,122.639,0,0,0-7.114-46.89,78.848,78.848,0,0,0-73.084-54c-33.955-1.293-64.353,16.816-77.611,47.537a130.77,130.77,0,0,0-.971,103.482,77.778,77.778,0,0,0,77.288,50.447c35.249-1.294,62.089-21.02,74.7-54.328a124.522,124.522,0,0,0,6.791-46.243Zm-739.247,0v85.7c0,7.115.647,12.289,10.025,11.965,39.776-.323,79.552-.323,119.651,0,7.438,0,11-2.263,10.348-10.348a54.792,54.792,0,0,1,0-14.552c1.617-11.318-2.91-14.875-14.229-14.229-23.607.971-47.213-.323-71.143.647-11.642.324-15.846-2.263-15.523-14.875.647-32.662,0-32.662,32.985-32.662,23.607,0,23.607,0,23.283-23.93v-3.234c1.294-8.731-2.91-11.318-10.994-10.994-11.319.646-22.637-.647-33.955.323-14.229,1.293-10.672-8.408-10.672-15.846.324-7.437-4.2-18.109,11-17.462,23.607.647,47.537-.324,71.144.323,11.641.324,15.522-3.234,13.9-14.552a33.24,33.24,0,0,1,0-11.318c1.293-9.7-1.94-13.259-12.288-12.935-37.189.646-74.378.646-111.243,0-9.378,0-11.965,2.91-11.965,11.965,0,29.1-.324,57.561-.324,86.019ZM1216.96,276.233c19.079-.647,35.895-2.587,50.447-11.318,20.7-12.289,28.134-31.368,27.164-54.652-.97-22.313-12.612-36.865-32.338-45.92-18.11-8.407-38.159-10.348-56.915-17.139-7.438-2.587-15.2-6.791-14.229-17.139.97-9.7,7.761-12.935,16.169-15.2a44.653,44.653,0,0,1,41.069,8.085c11.966,9.7,19.727,9.054,28.135-2.911a45.967,45.967,0,0,1,8.084-7.761c6.468-4.85,4.527-8.408-.647-12.612a96.263,96.263,0,0,0-74.377-23.93,73.628,73.628,0,0,0-41.069,16.816c-29.428,24.9-23.284,73.084,12.288,87.959,19.079,8.085,39.776,12.612,59.5,19.08,9.054,2.91,14.229,9.054,13.258,19.4s-6.791,15.2-16.169,17.139c-18.756,4.527-38.158,2.91-52.064-9.378-14.228-12.289-22.313-7.761-31.691,3.88a7.793,7.793,0,0,1-2.587,1.941c-10.025,6.144-6.791,11.641,0,18.432C1170.716,269.118,1194,275.263,1216.96,276.233ZM758.407,175.662v72.76c0,24.9,0,23.93,24.577,24.9,12.935.324,15.522-3.88,14.875-15.522-.97-12.935.647-25.87-.323-38.805-.97-11.642,2.263-16.493,14.875-15.523a276.508,276.508,0,0,0,43.333-.646c32.985-2.911,54.005-25.871,54.651-58.532.647-35.9-18.109-59.5-52.064-64.353-28.781-3.88-57.885-.323-86.989-1.94-11-.647-13.259,3.88-12.935,13.905C758.73,119.717,758.407,147.851,758.407,175.662ZM630.025,218.671,593.483,106.135C584.428,77.678,584.428,78.648,554.354,78c-12.935,0-12.288,4.527-8.731,13.905C566,148.5,586.692,205.089,606.1,262c4.2,12.612,11.965,11.965,21.02,11.318,9.7-.646,20.372,4.528,25.87-11.318,17.786-53.034,37.512-105.1,56.268-157.809,9.055-25.547,9.055-24.9-17.786-25.547-11.965-.324-17.462,2.587-21.343,15.2C657.512,134.916,643.607,175.985,630.025,218.671Zm747.654-23.93c0,21.02.971,42.04-.323,62.736-.647,13.258,3.881,17.462,16.169,15.522a21.708,21.708,0,0,1,6.468,0c12.935,1.94,17.462-2.264,17.139-16.492-.97-37.189-.324-74.378-.324-111.243,0-28.457,0-28.457,28.781-28.457,30.074,0,29.751,0,27.164-29.751-.323-5.821-1.617-8.732-8.084-8.732h-135.5a6.848,6.848,0,0,0-7.761,5.821v.324c-5.821,24.576,0,32.661,24.9,32.661a109.389,109.389,0,0,0,14.552,0c12.935-1.94,18.109,2.587,17.462,16.492C1376.709,153.672,1377.679,174.045,1377.679,194.741Z" class="cls-1"/><path d="M88.687,335.735C60.876,287.228,33.389,238.4,4.608,190.214c-6.144-10.672-6.144-18.756,0-29.428C33.066,112.6,60.553,63.772,88.687,15.265H133.96c-28.134,49.154-55.621,98.308-84.4,147.138-5.5,9.7-5.5,16.492,0,26.194,28.781,48.83,56.591,97.984,84.4,147.138Z" class="cls-1"/><path d="M1553.6,15.589c27.487,48.183,54.975,96.367,83.109,143.9,6.791,11.641,6.791,20.373,0,32.014-28.134,47.861-55.3,96.044-83.109,144.228h-45.273c28.134-49.154,55.621-98.308,84.4-147.138,5.5-9.7,5.5-16.492,0-26.194-28.457-48.83-56.268-97.984-84.4-147.138H1553.6Z" class="cls-1"/><path d="M208.984,175.338V127.155c0-3.881-1.617-8.408,4.528-10.348,26.517-9.7,63.382,7.761,70.82,34.925a82.6,82.6,0,0,1-2.587,53.681c-9.378,22.313-42.686,36.542-67.263,30.074-6.144-1.617-5.5-5.821-5.5-9.7Z" class="cls-1"/><path d="M1071.439,176.955a85.781,85.781,0,0,1-7.115,35.895c-7.438,16.493-20.7,23.931-38.482,23.607s-30.074-8.731-36.219-24.577a97.5,97.5,0,0,1-.323-72.113c6.791-17.463,20.373-25.547,39.129-25.224,17.139.323,30.074,9.055,36.865,25.87A87.947,87.947,0,0,1,1071.439,176.955Z" class="cls-1"/><path d="M824.376,164.99c-28.134-.647-27.164-.647-27.164-29.751,0-16.492,4.528-23.283,21.667-20.049,10.348,1.94,21.343.97,32.015,2.91,14.228,2.587,21.019,12.288,19.4,26.517C869,158.2,860.918,165.96,846.69,165.637,839.252,165.96,831.814,165.314,824.376,164.99Z" class="cls-1"/></svg>