<svg id="Layer_1" data-name="Layer 1" xmlns="http://www.w3.org/2000/svg" viewBox="0 0 870.96 217.58"><defs><style>.cls-1,.cls-2{fill:#fff;}.cls-2{fill-rule:evenodd;}</style></defs><title>DigitalOcean</title><path class="cls-1" d="M82.49,180.4V152.66c29.44,0,52.08-29.15,40.9-60A41.61,41.61,0,0,0,98.62,67.88c-30.85-11.18-60,11.47-60,40.91H10.87c0-46.85,45.29-83.37,94.41-68.08a68.9,68.9,0,0,1,45.15,45.15C165.71,135.11,129.34,180.4,82.49,180.4Z"/><polygon class="cls-2" points="82.49 152.66 54.89 152.66 54.89 125.06 54.89 125.06 82.49 125.06 82.49 125.06 82.49 152.66"/><polygon class="cls-2" points="54.89 173.89 33.66 173.89 33.66 173.89 33.66 152.66 54.89 152.66 54.89 173.89"/><polygon class="cls-2" points="33.66 152.66 15.83 152.66 15.83 152.66 15.83 134.97 15.83 134.97 33.66 134.97 33.66 134.97 33.66 152.66"/><path class="cls-1" d="M265.64,78.64C257.43,73,247.24,70,235.35,70h-25.9v82.24h25.9c11.89,0,22.08-3,30.29-9.06A30.47,30.47,0,0,0,276.11,130a48.28,48.28,0,0,0,3.68-19.39,48.06,48.06,0,0,0-3.68-19.25A29.19,29.19,0,0,0,265.64,78.64Zm-41,5.38h8.21c9.06,0,16.56,1.84,22.22,5.23,6.23,3.83,9.48,11,9.48,21.38,0,10.75-3.25,18.25-9.48,22.36h0c-5.38,3.54-12.88,5.38-22.08,5.38h-8.21V84Z"/><path class="cls-1" d="M297.91,69a8.95,8.95,0,0,0-9.06,8.78,8.25,8.25,0,0,0,2.69,6.37,8.76,8.76,0,0,0,6.37,2.69,8.26,8.26,0,0,0,6.37-2.69A9,9,0,0,0,307,77.79a7.76,7.76,0,0,0-2.69-6.23A8.88,8.88,0,0,0,297.91,69Z"/><rect class="cls-1" x="290.41" y="94.35" width="14.58" height="58.03"/><path class="cls-1" d="M358.06,99.16c-4.39-4-9.34-6.23-14.58-6.23a26.74,26.74,0,0,0-20,8.21c-5.24,5.38-7.79,12.46-7.79,20.81s2.55,15.14,7.79,20.8a26.74,26.74,0,0,0,20,8.21,22.62,22.62,0,0,0,14.44-4.67v1.42c0,4.81-1.28,8.49-3.82,11.18s-6.09,3.82-10.48,3.82c-6.79,0-10.89-2.69-16.13-9.62l-9.91,9.48.28.42a35.47,35.47,0,0,0,9.77,8.78C332,174.6,337.4,176,343.91,176c8.63,0,15.71-2.69,20.8-7.93,5.24-5.24,7.79-12.31,7.79-21.09V94.35H358.2v4.81Zm-3.82,34.25a12.74,12.74,0,0,1-10.05,4.25c-4.25,0-7.5-1.42-9.91-4.25s-3.82-6.65-3.82-11.32,1.27-8.63,3.82-11.46a12.73,12.73,0,0,1,9.91-4.39,12.39,12.39,0,0,1,10.05,4.39c2.55,2.83,3.82,6.79,3.82,11.46A17.1,17.1,0,0,1,354.24,133.41Z"/><rect class="cls-1" x="384.81" y="94.35" width="14.58" height="58.03"/><path class="cls-1" d="M392.31,69a8.95,8.95,0,0,0-9.06,8.78,8.25,8.25,0,0,0,2.69,6.37,8.76,8.76,0,0,0,6.37,2.69,8.25,8.25,0,0,0,6.37-2.69,9,9,0,0,0,2.69-6.37,7.76,7.76,0,0,0-2.69-6.23A8.86,8.86,0,0,0,392.31,69Z"/><path class="cls-1" d="M431.38,78.78h-14.3V94.49h-8.35v13.3h8.35v24.07c0,7.5,1.56,12.88,4.53,16s8.21,4.67,15.71,4.67c2.41,0,4.81-.14,7.08-.28h.7V138.93l-5,.29c-3.54,0-5.8-.57-6.93-1.84s-1.7-3.83-1.7-7.65V107.65H445.1V94.35H431.52V78.78Z"/><rect class="cls-1" x="513.32" y="70" width="14.58" height="82.23"/><path class="cls-1" d="M675.24,131.57a34.74,34.74,0,0,1-7.36,6.8h0a13.78,13.78,0,0,1-7.5,2,13.42,13.42,0,0,1-10.61-4.81,18.06,18.06,0,0,1-4.25-12.32,18.07,18.07,0,0,1,4.1-12.17,13.13,13.13,0,0,1,10.48-4.81c4.67,0,9.62,3,13.87,7.92l9.62-9.2h0c-6.23-8.2-14.29-12-23.92-12A28.34,28.34,0,0,0,639,101.57c-5.66,5.66-8.49,13-8.49,21.65s2.83,15.85,8.49,21.66a27.8,27.8,0,0,0,20.66,8.63c10.62,0,19.11-4.53,24.77-12.88Z"/><path class="cls-1" d="M735.11,102.42a23.6,23.6,0,0,0-8.35-6.94,27.29,27.29,0,0,0-12-2.55c-8.21,0-14.86,3-19.81,8.92s-7.36,13.16-7.36,21.8,2.68,16,8.06,21.65,12.46,8.35,21.09,8.35a28.66,28.66,0,0,0,23.92-11.89l.28-.42-9.48-9.2h0a37.72,37.72,0,0,1-3.25,3.4,16.42,16.42,0,0,1-4.25,3.11,15.63,15.63,0,0,1-7.36,1.56c-4.1,0-7.36-1.14-9.91-3.54a12.59,12.59,0,0,1-4.1-8.78H741.2l.14-5.38a38,38,0,0,0-1.56-10.75A32.08,32.08,0,0,0,735.11,102.42Zm-31.84,13.73a14.39,14.39,0,0,1,3.82-6.94,10.35,10.35,0,0,1,7.64-3q5.31,0,8.07,3a11.46,11.46,0,0,1,3,6.79h-22.5Z"/><path class="cls-1" d="M791.16,98.74h0c-4.39-3.82-10.47-5.66-18.12-5.66a30.75,30.75,0,0,0-13.44,3.11,24.07,24.07,0,0,0-9.91,9.34l.14.14,9.34,8.92c3.82-6.09,8.07-8.21,13.73-8.21a11.59,11.59,0,0,1,7.5,2.41,7.45,7.45,0,0,1,2.83,6.22v2.83a36.25,36.25,0,0,0-10.75-1.69c-7.22,0-13.17,1.69-17.55,5.09s-6.66,8.35-6.66,14.44c0,5.38,1.84,9.9,5.67,13.16a21.57,21.57,0,0,0,14,4.81c5.52,0,10.75-2.26,15.43-6.08v4.81h14.29V115C798,108.08,795.69,102.56,791.16,98.74Zm-25.9,31.42a12.27,12.27,0,0,1,6.93-1.7,31.84,31.84,0,0,1,11,2.12v5.66c-3.11,3-7.36,4.39-12.59,4.39-2.55,0-4.53-.57-5.81-1.7a5.3,5.3,0,0,1-2-4.24A5.45,5.45,0,0,1,765.26,130.16Z"/><path class="cls-1" d="M854,99.87q-6.15-6.8-17-6.79c-5.81,0-10.48,1.69-14,5V94.49h-14.3v58h14.58V120.39c0-4.39,1-7.92,3.11-10.33s4.81-3.68,8.64-3.68a9.64,9.64,0,0,1,7.64,3.25,13.88,13.88,0,0,1,2.83,9.06v33.55h14.58V118.69C860.09,110.77,858.11,104.4,854,99.87Z"/><path class="cls-1" d="M495.07,98.74h0c-4.39-3.82-10.48-5.66-18.12-5.66a30.83,30.83,0,0,0-13.45,3.11,24,24,0,0,0-9.9,9.34l.14.14,9.34,8.92c3.82-6.09,8.07-8.21,13.73-8.21a11.61,11.61,0,0,1,7.5,2.41,7.45,7.45,0,0,1,2.83,6.22v2.83a36.32,36.32,0,0,0-10.76-1.69c-7.21,0-13.16,1.69-17.55,5.09s-6.65,8.35-6.65,14.44c0,5.38,1.84,9.9,5.66,13.16a21.57,21.57,0,0,0,14,4.81c5.52,0,10.76-2.26,15.43-6.08v4.81h14.3V115C501.72,108.08,499.45,102.56,495.07,98.74Zm-25.9,31.42a12.24,12.24,0,0,1,6.93-1.7,31.84,31.84,0,0,1,11,2.12v5.66c-3.11,3-7.36,4.39-12.6,4.39-2.54,0-4.53-.57-5.8-1.7a5.3,5.3,0,0,1-2-4.24A5.13,5.13,0,0,1,469.17,130.16Z"/><path class="cls-1" d="M580.84,153.51a42.46,42.46,0,1,1,42.46-42.46A42.49,42.49,0,0,1,580.84,153.51Zm0-69.78a27.46,27.46,0,1,0,27.46,27.46A27.49,27.49,0,0,0,580.84,83.73Z"/></svg>