<svg id="Layer_1" data-name="Layer 1" xmlns="http://www.w3.org/2000/svg" viewBox="0 0 1641.8 351"><defs><style>.cls-1{fill:#fff;fill-rule:evenodd;}</style></defs><title>EA</title><path class="cls-1" d="M860.013,4.249c-94.326,0-171.064,76.74-171.064,171.067s76.738,171.065,171.064,171.065,171.064-76.738,171.064-171.065S954.339,4.249,860.013,4.249Zm0,319.976c-82.109,0-148.908-66.8-148.908-148.909s66.8-148.91,148.908-148.91,148.907,66.8,148.907,148.91S942.12,324.225,860.013,324.225ZM918.13,125.419h1.35v-6.54h2.433v-1.154H915.7v1.154h2.427v6.54Zm5.937-5.945h.024l2.134,5.945h1.1l2.133-5.945h.03v5.945h1.268v-7.694h-1.863l-2.062,6.018H926.8l-2.113-6.018h-1.894v7.694h1.279Zm-38.851-1.755H801.061l-12.768,20.519h84.058Zm17.2.2-51.445,81.919H793.9L807.069,179.3h34.2l13.065-20.528h-79.07L762.2,179.3h18.731l-25.989,41H863.407l40.061-63.178L918.075,179.3H904.9l-12.473,20.537h39L944.976,220.3h24.88Z"/></svg>