<svg id="Layer_1" data-name="Layer 1" xmlns="http://www.w3.org/2000/svg" viewBox="0 0 1641.8 351"><defs><style>.cls-1{fill:#fff;}</style></defs><title>Facebook</title><path class="cls-1" d="M747,179.5V48.412c0-4.581,0-9.064-.2-13.645-.1-2.729.683-4,3.7-4.483,16.959-2.729,33.723-5.848,50.682-8.382C812.4,20.147,812.5,20.44,812.5,31.746c-.1,28.557-.1,57.212-.195,85.77,0,6.822,0,6.822,6.823,4.97,25.341-6.92,50.974-8.187,76.8-2.339,23.294,5.263,37.134,20.468,41.228,44.152,2.047,11.891,2.144,23.879,2.339,35.868.292,19.98.585,39.961-.585,59.844S933.651,299,918.349,313.519c-12.963,12.378-29.24,17.739-46.491,20.566-29.532,4.775-59.162,3.118-88.791-.293-10.137-1.169-20.176-3.119-30.312-4.191-4.484-.487-5.848-2.047-5.848-6.628Q747.053,251.043,747,179.5ZM812.7,230.771c0,15.4.195,30.9-.1,46.3-.1,4.581,1.559,5.945,5.945,5.848,8.577-.195,17.251.487,25.828-.195,18.324-1.364,28.168-9.357,28.85-27.485.78-20.468.293-40.936.1-61.4-.1-11.5-6.628-19.3-17.934-21.735-13.353-2.924-25.633.488-37.817,5.653-3.606,1.56-4.873,3.314-4.873,7.213C812.794,200.167,812.7,215.469,812.7,230.771Z"/><path class="cls-1" d="M1383.846,182.428q0-72.661-.1-145.127c0-4.483.975-6.725,5.751-7.407q27.632-4.24,54.97-9.064c4.289-.78,4.874.584,4.874,4.288-.1,23.2,0,46.491,0,69.688V208.841c0,1.17-.78,3.119.877,3.314,1.852.292,2.924-1.852,3.7-3.217,5.945-9.259,11.793-18.615,17.641-27.972,12.086-19.2,24.366-38.3,36.355-57.6a7.793,7.793,0,0,1,7.5-4.192c19.688.1,39.279,0,58.967.1,1.852,0,4.191-1.072,5.361.975s-.975,3.606-1.949,5.165q-29.824,47.369-59.844,94.542c-1.852,2.924-2.047,5.068-.1,8.187q29.532,48.976,58.869,97.953a14.257,14.257,0,0,1,.78,1.267c.877,2.047,3.509,3.8,2.437,6.043-1.17,2.242-4.094.975-6.238.975-19.3.1-38.6,0-57.992.195-3.8,0-5.848-1.267-7.7-4.386q-26.169-43.86-52.534-87.524c-1.365-2.242-2.632-6.336-4.971-5.751-2.534.585-.974,4.484-.974,6.92q-.147,42.4,0,84.795c0,4.581-1.072,6.141-5.946,6.043-17.836-.292-35.77-.389-53.606,0-5.263.1-6.238-1.949-6.238-6.432.1-19.3,0-38.694,0-57.993Z"/><path class="cls-1" d="M662.794,245.781c-18.519,0-37.037.1-55.556-.1-4.191,0-5.36,1.365-5.263,5.361a83.028,83.028,0,0,0,1.17,12.085c1.949,10.429,8.284,16.375,19.493,18.129,17.251,2.827,34.6,1.365,51.949.292a346.951,346.951,0,0,0,38.986-5.263c4-.682,4.679.488,4.581,4.094-.2,14.425-.2,28.947,0,43.372.1,3.8-1.462,4.971-4.873,5.751a355.6,355.6,0,0,1-59.259,7.31c-19.4.779-38.6.584-57.408-4.386-35.867-9.552-55.263-34.8-58.869-70.761-2.339-23.1-1.364-46.393-.585-69.59.488-15.887,4.386-31.092,13.938-44.25,10.136-14.035,24.074-22.612,40.546-26.7,27.387-6.725,54.97-7.018,81.968,1.657,28.07,8.967,43.665,28.947,48.148,57.7,3.217,20.663.878,41.521,1.462,62.281.1,3.8-2.534,3.022-4.678,3.022ZM630.24,202.018h23.392c1.949,0,4.191.293,4.386-2.534,1.072-15.594-1.365-30.8-20.955-33.43-9.162-1.268-18.324-.975-26.121,4.873-6.628,4.971-11.014,21.15-8.382,29.045.682,2.144,2.242,2.046,3.9,2.046Z"/><path class="cls-1" d="M1363.768,226.58c-.488,15.5.877,31.579-2.437,47.466-5.848,27.777-21.54,46.978-48.538,55.653-30.7,9.844-61.891,9.746-92.3-.878-27.875-9.649-42.69-30.9-47.368-59.454-2.827-17.349-1.17-34.99-1.462-52.436-.195-12.184-.39-24.269,1.949-36.355,5.945-30.6,23.684-50.682,53.7-58.674,31.091-8.285,62.28-8.285,92.495,4.093,22.9,9.454,35.964,27.583,41.325,51.559C1364.645,193.636,1363.378,209.913,1363.768,226.58Zm-65.4,2.047V198.315c-.1-12.768-6.335-21.93-17.836-25.536a42.311,42.311,0,0,0-23.1-.683c-12.963,3.119-20.077,11.7-20.272,24.952-.293,19.3-.293,38.694,0,57.992.292,14.815,6.92,23,20.565,26.218a49.825,49.825,0,0,0,17.836.39c12.476-1.559,20.468-9.552,22.125-22.125C1299.148,248.705,1297.881,237.691,1298.368,228.627Z"/><path class="cls-1" d="M959.187,226.872c.195-15.692-.78-31.481,2.339-47.076,6.531-31.579,25.634-51.267,56.725-58.772,27.778-6.725,55.653-6.627,82.944,2.534,28.557,9.552,44.834,30.41,48.538,59.747,3.606,28.168,3.216,56.725.2,84.99-3.412,32.846-24.562,56.043-56.725,63.743-25.829,6.14-51.755,6.335-77.486-.585-31.189-8.48-48.927-29.337-54.678-60.819C958.407,256.112,959.382,241.492,959.187,226.872Zm126.511-.1h-.2c0-10.527.292-21.15-.1-31.677-.39-11.988-8.187-20.565-19.883-23.1a51.842,51.842,0,0,0-15.009-.78c-15.5.975-25.536,11.014-25.731,26.219q-.292,29.24,0,58.479c.194,13.548,7.7,22.612,20.857,25.536a45.988,45.988,0,0,0,19.3,0c13.742-3.021,20.565-11.6,20.76-25.926.1-9.552,0-19.1,0-28.752Z"/><path class="cls-1" d="M328.973,264.007c0,21.929-.1,43.859.1,65.789,0,3.9-.975,4.873-4.873,4.873-15.4-.195-30.9-.195-46.3,0-3.021,0-4.288-.39-4.775-4-1.17-10.039-1.56-10.039-10.819-5.458a115.424,115.424,0,0,1-64.035,11.111c-29.337-3.314-46.979-23-50.78-52.924a87.879,87.879,0,0,1,1.56-30.7c4.483-19.4,17.251-30.8,36.159-35.868a111.252,111.252,0,0,1,21.93-3.119c17.154-1.169,34.406-.682,51.56-.779,2.924,0,4.581-.488,4.191-3.9-.585-5.751-.195-11.6-.683-17.446-.877-10.527-9.161-15.5-18.518-16.375-22.71-2.144-45.419-.487-68.129-.877-4.386-.1-6.725.195-5.945-5.848,1.949-14.327,2.729-28.85,4.093-43.275.39-3.7,1.657-5.75,6.336-5.653,24.853.39,49.707,0,74.561.683,13.45.389,26.8,2.436,39.376,7.7,18.909,7.8,28.753,22.71,32.164,42.2,2.534,14.328,3.021,28.947,2.924,43.47C328.876,230.186,328.973,247.145,328.973,264.007ZM243.2,256.794c-5.069.39-11.4-.487-17.642.682-9.746,1.755-13.158,5.653-12.768,15.887.39,9.26,4.679,14.425,13.451,16.375,9.746,2.241,18.615-.78,27.192-4.386,10.722-4.581,9.26-2.242,9.455-13.938,0-3.411-.39-6.823-.1-10.234.293-3.7-1.559-4.483-4.581-4.483C253.535,256.794,249.052,256.794,243.2,256.794Z"/><path class="cls-1" d="M36.479,253.968c0-25.049-.1-50,.1-75.049,0-3.8-1.072-5.166-4.971-5.068-7.992.195-15.887,0-23.879.1-3.314.1-4.678-.974-4.581-4.483.1-15.205.1-30.507,0-45.809,0-3.314,1.17-4.678,4.581-4.581,8.09.1,16.277-.1,24.367.1,3.411.1,4.483-1.073,4.483-4.484-.2-11.988-.39-24.074,0-36.062.487-14.718,3.411-28.948,12.378-41.131,9.26-12.768,22.417-18.811,37.427-21.442,20.565-3.607,41.423-1.657,62.183-2.145,2.729-.1,3.314,1.268,3.314,3.607,0,15.789-.1,31.481,0,47.271,0,3.119-1.462,3.9-4.191,4-9.747.195-19.493.292-29.24.584-10.234.293-15.984,6.043-16.179,16.082-.2,9.942,0,19.786-.292,29.727-.1,3.509,1.267,4.386,4.581,4.386,13.645-.195,27.29,0,40.935-.1,3.7,0,4.581.78,4.094,4.678-1.755,13.743-3.119,27.681-4.386,41.521-.683,7.992-.585,8.187-8.382,8.187-10.527,0-21.15.195-31.677-.1-4.093-.1-5.165,1.072-5.165,5.166q.293,74.562.292,149.025c0,6.433,0,6.433-6.335,6.433-18.226,0-36.355-.1-54.581.1-3.8,0-5.068-1.072-5.068-4.97C36.576,304.26,36.479,279.114,36.479,253.968Z"/><path class="cls-1" d="M416.888,226.677c0,9.065-.1,18.226,0,27.291.2,18.713,8.674,27,27.193,28.362,22.222,1.657,43.957-1.949,65.691-5.653,6.531-1.169,6.433-1.267,6.531,5.068,0,14.133,0,28.266.2,42.4,0,3.021-.585,4.776-3.9,5.458-22.125,4.581-44.347,8.187-66.959,7.5-17.544-.585-34.795-2.924-50.877-10.916-21.93-10.916-34.893-28.753-40.448-52.339a104.309,104.309,0,0,1-2.73-24.562c0-15.887-.194-31.871.1-47.758.292-19.006,4.776-36.939,16.277-52.339,11.013-14.62,26.121-23.489,43.762-28.07,20.858-5.361,41.91-5.458,63.158-3.217,12.28,1.365,24.269,3.607,36.354,5.946,3.7.682,5.166,2.047,5.069,5.945-.2,14.328-.2,28.558-.1,42.885,0,3.509,0,5.068-4.678,4.289-17.544-2.924-35.088-6.336-53.022-6.238-7.309,0-14.619-.1-21.832,1.364-13.353,2.632-19.785,11.306-19.98,26.414C416.79,207.769,416.888,217.223,416.888,226.677Z"/><path class="cls-1" d="M1641.74,310.108c.1,12.183-8.772,22.222-19.493,22.32-14.913.1-24.269-7.8-24.269-20.566,0-14.132,8.479-23.489,20.273-24.269C1631.7,286.716,1642.715,296.755,1641.74,310.108ZM1620.2,289.64a20.364,20.364,0,0,0-20.663,20.078v.487c0,13.061,10.527,21.151,19.786,21.053,11.4-.1,20.37-7.407,20.955-20.955.487-11.209-8.869-20.663-20.078-20.663Z"/><path class="cls-1" d="M1620.1,293.149c8.966,0,16.276,7.8,16.179,17.251s-7.6,17.252-16.472,16.959c-8.967-.195-16.277-7.992-16.277-17.348C1603.631,300.849,1611.038,293.149,1620.1,293.149Zm-7.7,17.154c0,2.631-.1,5.166,0,7.8.1,1.462-.877,3.606,1.754,3.8,3.022.1,1.657-2.436,2.047-3.9.487-1.95-1.559-4.971,2.047-5.458,3.508-.488,4.873,1.949,5.36,4.97a20.074,20.074,0,0,0,.488,2.34A2.288,2.288,0,0,0,1626.73,322c.195,0,.39-.1.585-.1,2.242-.487.682-2.046.682-3.119-.292-4.191-4.093-8.284,0-12.573,1.072-1.072,0-3.119-.877-4.581-1.657-2.631-8.382-4-12.671-2.729-3.9,1.17-1.559,4.289-2.046,6.531a20.364,20.364,0,0,0,0,4.873Z"/><path class="cls-1" d="M1616.2,305.235c-.292-2.437.585-3.8,3.216-3.509,2.34.292,4.776.975,4.581,3.9-.195,3.118-2.826,3.606-5.263,3.7C1615.424,309.426,1616.5,306.892,1616.2,305.235Z"/></svg>