<svg xmlns="http://www.w3.org/2000/svg" id="Layer_1" data-name="Layer 1" viewBox="0 0 1641.8 351"><defs><style>.cls-1{fill:#fff}</style></defs><title>Farelogix</title><path d="M1455.125,169.313a52.878,52.878,0,0,1-3.474,26.336c-11.148,30.08-50.034,50.035-55.366,53.132-52.943,30.834-111.218,47.368-170.327,60.4-112.591,24.963-153.793,24.532-277.64,35.923-7.244.674-20.3,2.424-21.328,2.5-20.708,1.535-150.157,3.77-243.17-.35-30.969-1.374-54.936-3.178-78.1-5.575-32.045-3.312-58.705-7.3-77.744-10.5,46.56,0,93.175,1.131,139.681-.242A2404.049,2404.049,0,0,0,960.84,303.8c89.163-13.465,177.437-31.453,263.556-58.706,48.473-15.3,95.922-32.611,139.439-59.4,34.254-21.113,41.983-29.622,57.871-64.792a85.654,85.654,0,0,1,22.217,22.459A58.7,58.7,0,0,1,1455.125,169.313Z" class="cls-1"/><path d="M166.78,149.547C187.434,111.98,227.747,95.5,241.266,90.3,355.93,45.2,435.156,32.728,435.156,32.728,509,21.094,588.491,8.815,698.146,3.483c0,0,97.268-4.713,207.086,0,42.2,1.777,71.254,4.389,83.749,5.6,33.258,3.178,61.587,7.056,83.481,10.449-24.479,0-48.985-.3-73.463,0A2485.471,2485.471,0,0,0,625.707,52.575C528.3,68.759,432.221,89.764,339.4,124.1c-38.455,14.245-75.59,31.372-108.821,55.743-15.457,11.31-29.838,23.751-33.285,45-.565,3.473-1.777,5.385-3.312,5.9-3.07,1.239-7.325-2.908-9.694-5.386-15.781-15.888-23.7-23.832-26.256-34.065C153.665,173.944,161.825,158.568,166.78,149.547Z" class="cls-1"/><path d="M646.792,165.112c13.923,7.459,22.621,17.45,33.419,28.087-16.157,2.208-29.191,2.154-39.936-10.556-5.628-6.679-12.36-13.115-21.543-15.485-13.061-3.366-15.377-1.319-15.754,12.172-.215,6.706,3.663,15.242-9.856,15.242-11.256,0-14.514-2.908-13.733-14.057,1.05-15.161.35-30.43.188-45.645,0-5.116.512-8.456,7.055-8.294,20.117.512,40.26.512,60.4.862a33.545,33.545,0,0,1,7.863,1.642c8.752,2.343,16.346,6.41,16.427,16.7,0,9.694-7.379,13.464-15.377,16.157Zm-25.825-10.368c6.275-.35,12.064-.3,17.746-1.077,3.905-.539,8.079-1.885,8.322-7.029s-4.174-6.867-8.079-7.163c-10.152-.754-20.359-.781-30.538-1.05-3.985,0-5.386,2.37-5.547,5.924C601.686,161.4,614.935,151.647,620.967,154.744Z" class="cls-1"/><path d="M942.151,194.734c-12.71.485-25.178-.889-36.65-6.679s-18.366-14.218-18.42-27.44a28.358,28.358,0,0,1,17.989-27.657c25.1-10.771,50.842-11.31,75.213,1.589,22,11.633,21.22,39.909-.512,52.162A70.009,70.009,0,0,1,942.151,194.734Zm-.323-57.171c-17.1.216-28.168,7.056-30.134,18.312-1.534,8.671.647,16.427,8.375,21.059a40.638,40.638,0,0,0,41.014,1.346c8.078-4.039,11.418-11.364,10.933-19.9a19.067,19.067,0,0,0-12.738-17.45A41.293,41.293,0,0,0,941.828,137.563Z" class="cls-1"/><path d="M1111.267,145.023c-10.772,2.477-19.5,3.446-29.623-3.34-11.579-7.809-26.094-5.789-38.481,1.1-14.03,7.783-13.465,27.2.727,35.143s28.464,6,42.871.862c2.693-1,4.74-2.532,4.147-5.844-.673-3.743-3.77-3.1-6.274-3.178-4.5-.134-8.968-.134-13.465,0-3.635,0-5.924-1.292-6.14-5.385s1.1-6.221,5.09-6.248h38.939c4.363,0,5.386,3.016,4.821,6.355-1.293,7.783,5.385,18.851-5.386,22.755-27.683,10.072-56.2,12.953-83.292-1.373-20.655-10.933-22.082-37.539-2.5-49.469,24.937-15.161,51.785-14.407,78.472-3.528A17.157,17.157,0,0,1,1111.267,145.023Z" class="cls-1"/><path d="M732,194.114c-11.283-1.211-29.622,6.059-37.351-2.693-6.759-7.647-2.046-25.582-2.127-38.993-.135-25.637-.054-25.637,25.8-25.637h48.473c4.335,0,9.317-.807,8.94,6.3-.323,6.3-4.955,5.251-8.806,5.386H725.264c-5.305-.108-9.775-.27-9.829,7.163s4.2,7.54,9.586,7.459c11.176-.161,22.406,0,33.581,0,5.386,0,11.93.7,12.145,6.894.377,8.025-7.244,4.5-11.256,4.5q-17.451.755-35.008,0c-7.352-.323-9.048,2.693-9.156,9.452-.135,7.379,3.932,7.756,9.371,7.7,14.784-.134,29.622,0,44.353,0,5.062,0,8.779.566,8.644,7.056s-4.551,5.385-8.429,5.385C757.66,194.114,746.053,194.114,732,194.114Z" class="cls-1"/><path d="M455.407,193.71c14.11-21.92,26.74-41.9,39.8-61.533,5.386-8.078,26.04-8.267,31.561-.35,13.68,19.712,26.929,39.748,41.309,61.156-13.007,1.212-24.909,5.629-31.345-9.479-1.912-4.443-5.817-4.82-10.045-4.793-9.829.135-19.685,0-29.622,0-3.582,0-7.863-.485-9.344,3.528C482.093,198.046,469.517,194.114,455.407,193.71Zm42.467-27.844h27.387c-5.2-8.079-9.371-14.434-14.326-22.028Z" class="cls-1"/><path d="M1170.834,127.734c17.612-2.693,30.861-1.481,40.394,11.606,5.385,7.514,10.987,5.79,15.888-.538,10.152-13.088,23.563-14.111,40.394-10.772-9.426,8.267-17.585,15.888-26.256,22.863-6.921,5.574-9.075,9.371-.162,15.781,10.045,7.163,18.635,16.373,29,25.744-17.585,4.416-31.157,1.266-41.471-12.091-6.948-9.022-13.465-8.483-19.874.242-10.071,13.6-23.832,15.619-41.417,12.2,8.941-8.079,16.481-16.158,25.152-22.674,10.421-7.783,12.576-14,.538-22.379C1185.51,142.626,1179.29,135.517,1170.834,127.734Z" class="cls-1"/><path d="M419.375,126.791h30.942c4.766,0,7.836,1,7.594,6.625s-4.066,5.117-7.648,5.144c-12.549,0-25.125.215-37.7,0-6.059,0-9.075,1.642-8.967,8.348s3.474,7.217,8.59,7.136c10.314-.162,20.655,0,30.969,0,4.847,0,7.621,1.319,7.325,6.813s-4.148,4.874-7.675,4.9a163.724,163.724,0,0,1-21.544,0c-13.464-1.7-20.331,2.424-17.557,17.1,1.75,9.344-2.209,11.984-11.634,12.064s-12.387-2.477-11.876-11.956a393.444,393.444,0,0,0,0-44.38c-.565-9.909,3.124-12.36,12.2-11.633S410.273,126.791,419.375,126.791Z" class="cls-1"/><path d="M837.074,194.114c-10.287,0-20.6-.215-30.861,0-5.736.162-9.183-.646-8.994-7.782.43-16.992.511-34.012,0-51-.3-9.237,5.251-8.4,11.283-8.456,6.544,0,12.522-.754,11.956,9.183-.7,12.037.135,24.236-.3,36.247-.242,6.974,2.262,9.56,9.264,9.344,12.953-.35,25.933,0,38.913,0,5.385,0,8.267,1.158,8.078,7.352-.134,6.813-4.9,5.116-8.348,5.116Z" class="cls-1"/><path d="M1133.779,160.453v-20.2c0-12.576,7.567-17.639,19.335-13.465,4.363,1.535,3.528,4.686,3.555,7.541,0,17.5-.3,35.008.189,52.485.269,10.448-6.975,6.92-11.984,7.3-5.709.431-11.983,1.616-11.229-8.078C1134.318,177.553,1133.779,168.989,1133.779,160.453Z" class="cls-1"/></svg>