<svg xmlns="http://www.w3.org/2000/svg" id="Layer_1" data-name="Layer 1" viewBox="0 0 1641.8 351"><defs><style>.cls-1{fill:#fff}</style></defs><title>FCA</title><g id="layer1"><path id="path5533" d="M464.6,232.5h43.53V158.9h149.2V115.65H508.13V64.94H665.45V21.68H464.6Z" class="cls-1"/><path id="path5545" d="M878,148.71a73.2,73.2,0,0,1-69.94,51.12c-40.44,0-73.21-32.54-73.21-72.73s32.77-72.74,73.21-72.74A73.22,73.22,0,0,1,878,105.47h44.57A116.38,116.38,0,0,0,808.1,11.21c-64.4,0-116.63,51.89-116.63,115.89S743.7,243,808.1,243a116.36,116.36,0,0,0,114.51-94.26Z" class="cls-1"/><path id="path5549" d="M1048.49,4,915.63,232.5h50.29l82.57-142,82.63,142.05h50.29L1048.49,4Z" class="cls-1"/><path id="path5553" d="M1000.8,326.34a17.47,17.47,0,0,1-1.15,6.44,16,16,0,0,1-3.2,5.24,14.6,14.6,0,0,1-11.13,4.83,14.69,14.69,0,0,1-6.27-1.33,16.08,16.08,0,0,1-4.94-3.55,17.06,17.06,0,0,1-3.27-5.25,19,19,0,0,1-1.13-6.48v-.11a18.58,18.58,0,0,1,1.13-6.44,17.27,17.27,0,0,1,3.22-5.24,15,15,0,0,1,11.16-4.83,14.33,14.33,0,0,1,6.21,1.34,16,16,0,0,1,8.22,8.82,18.08,18.08,0,0,1,1.15,6.46Zm-.89-14.73a19.3,19.3,0,0,0-6.38-4.51,20,20,0,0,0-8.21-1.68,20.25,20.25,0,0,0-8.27,1.7,19.8,19.8,0,0,0-6.37,4.55,21,21,0,0,0-4.15,6.65,21.9,21.9,0,0,0-1.46,7.92v.1a21.71,21.71,0,0,0,1.45,7.94,19.22,19.22,0,0,0,4.08,6.57,20.19,20.19,0,0,0,29.26,0,20.09,20.09,0,0,0,4.09-6.61,21.48,21.48,0,0,0,1.51-8,.11.11,0,0,0,0-.11,22.21,22.21,0,0,0-1.44-7.89,21.17,21.17,0,0,0-4.11-6.63m-81.37,17.92c0,4.39-1.09,7.71-3.22,9.93a11.56,11.56,0,0,1-8.7,3.31q-5.72,0-8.91-3.47c-2.17-2.35-3.2-5.71-3.2-10.07V306.1H890v23.43a22.07,22.07,0,0,0,1.2,7.53,15.36,15.36,0,0,0,3.34,5.49,14.51,14.51,0,0,0,5.21,3.32,20.81,20.81,0,0,0,13.47,0,13.72,13.72,0,0,0,5.19-3.35,14.63,14.63,0,0,0,3.36-5.6,22.46,22.46,0,0,0,1.23-7.77v-23h-4.49v23.43Zm-129.89-2.9V310.3H800.9a12.15,12.15,0,0,1,7.49,2.09,7.14,7.14,0,0,1,2.64,5.86v.13a7.57,7.57,0,0,1-.74,3.44,7.94,7.94,0,0,1-2.13,2.64,9.88,9.88,0,0,1-3.22,1.58,12.76,12.76,0,0,1-4.07.59Zm20.44,1.92a12,12,0,0,0,3.42-2.39,10.09,10.09,0,0,0,2.2-3.47,11.17,11.17,0,0,0,.83-4.51v-.13a11.08,11.08,0,0,0-.83-4.39,10.54,10.54,0,0,0-2.25-3.49,12.47,12.47,0,0,0-4.7-3,18.73,18.73,0,0,0-6.55-1.09h-17v40.28h4.47V330.73H800l11.49,15.65h5.47l-12.16-16.46a17.46,17.46,0,0,0,4.32-1.37m46.24,3.08,9.06-20.5,9,20.5Zm7-25.8-18,40.55h4.59l4.7-10.65h21.51l4.67,10.65h4.79l-18-40.55ZM748,328.15h21.59v-4.1H748V310.2H772.1v-4.1H743.52v40.28h28.86v-4.09H748Zm287.58-.08-14.43-22h-4.54v40.28h4.4V313.82l14.43,21.49h.16L1050,313.79v32.59h4.48V306.1H1050Zm248.14.13c-2.08-1.76-5.36-3.13-9.76-4.15a36.72,36.72,0,0,1-5.38-1.47,10.9,10.9,0,0,1-3.27-1.72,4.67,4.67,0,0,1-1.64-2.07,6.43,6.43,0,0,1-.43-2.56v-.1a5.78,5.78,0,0,1,2.2-4.63,9.51,9.51,0,0,1,6.19-1.88,16.73,16.73,0,0,1,5.86,1A19.34,19.34,0,0,1,1283,314l2.59-3.48a21.47,21.47,0,0,0-6.28-3.68,21.14,21.14,0,0,0-7.61-1.27,15.38,15.38,0,0,0-5.18.83,12.14,12.14,0,0,0-4.16,2.33,10.09,10.09,0,0,0-3.7,7.83v.11a11.46,11.46,0,0,0,.81,4.31,8.59,8.59,0,0,0,2.49,3.19,13.44,13.44,0,0,0,4.12,2.36,38.85,38.85,0,0,0,5.91,1.76,38.52,38.52,0,0,1,5.13,1.41,12.14,12.14,0,0,1,3.17,1.68,5,5,0,0,1,1.57,2.05,6.6,6.6,0,0,1,.48,2.48V336a6,6,0,0,1-2.42,4.9,10,10,0,0,1-6.41,1.92,17.58,17.58,0,0,1-7.3-1.41,22.24,22.24,0,0,1-6.26-4.26l-2.79,3.32a24.18,24.18,0,0,0,7.52,4.84,22.53,22.53,0,0,0,8.64,1.61,17.53,17.53,0,0,0,5.43-.82,12.24,12.24,0,0,0,4.25-2.3,10.39,10.39,0,0,0,2.79-3.58,11.57,11.57,0,0,0,1-4.69v-.15a9,9,0,0,0-3.15-7.21m-60.21-.05h21.62v-4.1h-21.62V310.2h24.14v-4.09H1219v40.27h28.91v-4.09h-24.43Zm-36.66-22h-4.51v40.27h26.75v-4.22h-22.24V306.11Zm-40,29a6.16,6.16,0,0,1-2.58,5.28,11.85,11.85,0,0,1-7.16,1.93h-13.26V328.07h12.51c3.45,0,6.05.64,7.81,1.83a5.73,5.73,0,0,1,2.68,5.09v.09Zm-23-24.9h12a10.34,10.34,0,0,1,6.49,1.81,5.75,5.75,0,0,1,2.26,4.73v.12a6.22,6.22,0,0,1-2.52,5.35,10.79,10.79,0,0,1-6.57,1.81h-11.7V310.18Zm25,18.67a11.85,11.85,0,0,0-2.7-2,14.89,14.89,0,0,0-3.29-1.32,17.13,17.13,0,0,0,2.3-1.33,11.29,11.29,0,0,0,2-1.89,9.22,9.22,0,0,0,1.46-2.64,10.84,10.84,0,0,0,.53-3.46v-.15a9,9,0,0,0-2.55-6.41,12.23,12.23,0,0,0-4.32-2.61,18.9,18.9,0,0,0-6-1h-16.83v40.28H1137a22.65,22.65,0,0,0,5.86-.77,13.62,13.62,0,0,0,4.55-2.16,9.38,9.38,0,0,0,2.9-3.45,10.21,10.21,0,0,0,1-4.64v-.1a9.72,9.72,0,0,0-.67-3.67,9.12,9.12,0,0,0-1.8-2.74m-46.33-2.51a17.89,17.89,0,0,1-1.13,6.44,16.61,16.61,0,0,1-3.23,5.24,15.3,15.3,0,0,1-4.88,3.56,15.09,15.09,0,0,1-6.23,1.27,14.81,14.81,0,0,1-6.29-1.33,15.38,15.38,0,0,1-4.91-3.55,15.87,15.87,0,0,1-3.26-5.25,17.65,17.65,0,0,1-1.14-6.48v-.11a17.27,17.27,0,0,1,4.31-11.68,14.51,14.51,0,0,1,4.93-3.52,15.38,15.38,0,0,1,12.49,0,16.2,16.2,0,0,1,8.21,8.82,18.52,18.52,0,0,1,1.13,6.46v.1Zm-.9-14.73a19.59,19.59,0,0,0-6.35-4.51,20.93,20.93,0,0,0-16.48,0,19.67,19.67,0,0,0-6.39,4.55,20.1,20.1,0,0,0-4.13,6.65,21.71,21.71,0,0,0-1.48,7.92v.1a22.57,22.57,0,0,0,1.44,7.94,19.71,19.71,0,0,0,4.09,6.57,19.94,19.94,0,0,0,6.35,4.55,20.28,20.28,0,0,0,8.24,1.64,19.53,19.53,0,0,0,8.26-1.7,20.19,20.19,0,0,0,6.41-4.53,20.5,20.5,0,0,0,4.12-6.61,22.23,22.23,0,0,0,1.46-8,.06.06,0,0,0,0-.11,22.42,22.42,0,0,0-1.42-7.89,20.15,20.15,0,0,0-4.12-6.63m61.83,34.77h4.46V306.11h-4.46ZM931.32,310.3h13.3v36.08h4.45V310.3h13.3v-4.19h-31ZM528,341.35a15.22,15.22,0,0,1-7,1.5,14.6,14.6,0,0,1-6.06-1.27,16.09,16.09,0,0,1-8.08-8.8,18.09,18.09,0,0,1-1.2-6.54v-.11a17.79,17.79,0,0,1,1.2-6.47,15.46,15.46,0,0,1,3.25-5.26,14.28,14.28,0,0,1,4.83-3.5,14.61,14.61,0,0,1,6.06-1.28,15,15,0,0,1,7,1.57,25.27,25.27,0,0,1,5.43,4l3.06-3.34a28.58,28.58,0,0,0-3.06-2.61,17,17,0,0,0-3.42-2A18.86,18.86,0,0,0,526,305.9a22.73,22.73,0,0,0-4.9-.48,19.26,19.26,0,0,0-14.35,6.14,20.94,20.94,0,0,0-5.65,14.68v.1a22.23,22.23,0,0,0,1.46,8.14,21.15,21.15,0,0,0,4.19,6.58,20.19,20.19,0,0,0,6.26,4.38,19.22,19.22,0,0,0,7.93,1.6,22.88,22.88,0,0,0,4.94-.5,20.26,20.26,0,0,0,4.08-1.45,17.63,17.63,0,0,0,3.61-2.21,28.11,28.11,0,0,0,3.23-2.91l-3-2.91a23.93,23.93,0,0,1-5.76,4.29M574.7,324H551.86V306.11h-4.45v40.27h4.45V328.27H574.7v18.11h4.45V306.11H574.7V324ZM447.53,310.3h13.3v36.08h4.48V310.3h13.28v-4.19H447.53v4.19ZM355,346.38h4.46V328.82h21.45v-4.07H359.43V310.3h24v-4.19H355Zm64.58-14.75,9-20.5,9,20.5Zm7-25.8-18,40.55h4.58l4.7-10.65h21.53L444,346.38h4.8l-18-40.55Zm-31.25,40.55h4.48V306.11h-4.48Zm202.41-19.75V310.3h12.24a12.17,12.17,0,0,1,7.47,2.09,7.14,7.14,0,0,1,2.63,5.87v.12a7.18,7.18,0,0,1-.77,3.44,7.1,7.1,0,0,1-2.1,2.64,9.65,9.65,0,0,1-3.25,1.58,12.56,12.56,0,0,1-4.09.59Zm20.38,1.93a11,11,0,0,0,3.39-2.4,9.73,9.73,0,0,0,2.29-3.47,12.76,12.76,0,0,0,.76-4.51v-.13a12.68,12.68,0,0,0-.76-4.39,9.9,9.9,0,0,0-2.29-3.49,12.35,12.35,0,0,0-4.73-3,18.39,18.39,0,0,0-6.51-1.08h-17v40.27h4.5V330.73H609l11.46,15.65h5.49l-12.15-16.46a17.58,17.58,0,0,0,4.3-1.36m27.84-2.31L632.6,306.11h-5.41l16.44,24.34v15.93h4.48v-16l16.45-24.28h-5.2l-13.45,20.13ZM694,328.2c-2.09-1.76-5.33-3.13-9.78-4.14a35.9,35.9,0,0,1-5.38-1.48,10.82,10.82,0,0,1-3.24-1.72,4.75,4.75,0,0,1-1.67-2.07,7,7,0,0,1-.43-2.56v-.1a5.81,5.81,0,0,1,2.22-4.63,9.53,9.53,0,0,1,6.21-1.88,16.91,16.91,0,0,1,5.82,1,19.3,19.3,0,0,1,5.58,3.34L696,310.5a22.6,22.6,0,0,0-6.3-3.68,21.2,21.2,0,0,0-7.64-1.27,15.86,15.86,0,0,0-5.19.83,12.46,12.46,0,0,0-4.11,2.33,9.54,9.54,0,0,0-2.74,3.45,10.44,10.44,0,0,0-1,4.38v.11a11.46,11.46,0,0,0,.79,4.31,8.71,8.71,0,0,0,2.46,3.19,14.37,14.37,0,0,0,4.19,2.36,36.94,36.94,0,0,0,5.87,1.76,38.72,38.72,0,0,1,5.14,1.41,11.9,11.9,0,0,1,3.18,1.68,5.23,5.23,0,0,1,1.57,2.05,6.23,6.23,0,0,1,.48,2.48V336a6,6,0,0,1-2.44,4.91,10,10,0,0,1-6.41,1.91,17.68,17.68,0,0,1-7.28-1.41,22.86,22.86,0,0,1-6.27-4.26l-2.78,3.32a24.3,24.3,0,0,0,7.48,4.84,22.75,22.75,0,0,0,8.66,1.62,17.86,17.86,0,0,0,5.46-.83,12.2,12.2,0,0,0,4.25-2.29,11.54,11.54,0,0,0,2.77-3.59,10.91,10.91,0,0,0,1-4.69v-.15A9,9,0,0,0,694,328.2m18.39-22.09h-4.46v40.27h26.72v-4.22H712.39V306.11Z" class="cls-1"/></g></svg>