<svg xmlns="http://www.w3.org/2000/svg" id="Layer_1" data-name="Layer 1" viewBox="0 0 1641.8 351"><defs><style>.cls-1{fill:#fff}</style></defs><title>FIU SGA</title><path d="M1636.523,222.563c-9.15,1.941-18.023,2.218-26.895-.554-5.268-1.664-8.041-5.823-8.6-10.814-.832-6.654-.832-13.308-1.109-20.24-.278-6.1,0-12.477,0-19.132-3.605-.554-6.932-.831-10.537-1.386V156.019c3.328-.277,6.655-.554,10.537-1.109V135.779h22.735V154.91c4.991.277,9.428.555,14.141.555v15.249h-13.863v20.795c0,13.864,0,13.864,13.308,14.7h.555C1636.523,211.75,1636.523,217.018,1636.523,222.563Z" class="cls-1"/><path d="M939.75,191.509c-4.713-.277-9.427-.554-14.7-.831v-18.3h38.817v50.74H948.623c-.832-2.5-1.387-4.991-1.941-6.1C940.027,219.791,933.65,223.4,927,224.5c-22.459,3.605-42.977-9.427-49.354-31.054-5.822-20.24-2.772-38.817,13.309-54.067s46.858-14.7,62.663.832c5.822,5.823,9.7,12.754,9.427,21.9H939.2c-2.5-6.654-6.932-10.813-14.141-11.645-13.863-1.386-23.013,6.377-24.122,21.349a45.041,45.041,0,0,0,1.109,14.973c3.6,15.527,20.795,21.627,33.549,12.2,2.218-1.664,3.605-4.159,5.268-6.1C940.582,192.618,940.305,192.064,939.75,191.509Z" class="cls-1"/><path d="M1428.85,223.118h-21.9a62.06,62.06,0,0,1-.832-6.655V182.637c0-4.714-1.387-8.318-6.655-9.427-5.545-1.109-9.7,1.386-10.259,6.931-.831,7.209-.831,14.7-1.109,22.182-.277,6.654,0,13.031,0,20.518h-22.736V192.618a99.706,99.706,0,0,0-.831-13.031c-.555-3.6-2.5-6.1-6.655-6.377-4.436-.278-7.763,1.109-9.149,5.545a36.918,36.918,0,0,0-1.387,9.427c-.277,9.427,0,18.854,0,28.281,0,1.941-.277,3.882-.554,6.655H1324.32v-67.1h21.35c.554,1.664.831,3.6,1.663,6.1,5.268-5.268,11.368-8.595,18.854-8.318s13.864,2.773,17.745,8.595c5.546-2.772,10.537-6.377,15.805-7.763,11.645-3.05,27.726.554,28.835,19.686C1429.682,189.846,1428.85,206.205,1428.85,223.118Z" class="cls-1"/><path d="M950.841,51.767H927.273c-3.882-9.15-10.813-12.755-19.409-9.982-2.5.832-5.545,3.605-5.822,5.823-.277,1.941,2.5,5.545,4.991,6.377,5.822,2.218,11.922,3.327,18.022,5.268a112.933,112.933,0,0,1,16.913,6.654c18.577,9.427,14.141,35.213,2.773,44.086-15.25,11.922-46.3,11.645-61-.832-6.932-5.545-10.813-15.25-9.427-23.845h23.291c.277.277.554.832.831,1.109,4.159,11.091,14.418,15.8,25.232,10.536,2.218-1.109,4.99-4.159,5.268-6.654.277-1.941-2.218-5.546-4.437-6.377-5.545-2.5-11.922-3.882-17.745-5.823-5.545-1.941-11.368-3.327-16.636-6.1-17.745-8.872-18.854-31.886-2.5-43.254,16.636-11.367,44.363-9.427,56.84,4.159C949.177,37.9,951.4,43.726,950.841,51.767Z" class="cls-1"/><path d="M963.318,329.866H937.255c-1.941-4.991-3.882-9.982-5.823-15.527H900.655c-1.94,4.991-3.881,10.259-6.1,15.527H869.047c11.645-31.054,23.013-61.554,34.381-92.053h25.509C940.305,268.312,951.673,298.812,963.318,329.866Zm-56.563-35.213h18.577c-3.05-9.705-5.822-18.3-8.6-27.172h-1.386C912.578,276.353,909.805,285.226,906.755,294.653Z" class="cls-1"/><path d="M1131.065,53.985V24.04h22.181v91.775h-20.8q-.416-2.494-.832-4.99c-.554.277-.832.277-1.109.554-13.309,11.091-30.5,8.873-40.481-5.545-9.982-14.141-8.6-39.372,2.495-51.295a26.46,26.46,0,0,1,35.491-2.772C1128.846,52.321,1129.678,52.876,1131.065,53.985Zm.554,28.836c-.554-3.328-.554-6.1-1.109-8.6-1.664-6.377-5.545-9.7-11.368-9.7-5.545,0-9.981,3.6-11.645,9.427a27.585,27.585,0,0,0,1.109,18.854c1.941,4.714,5.545,7.209,11.091,6.932,5.268-.277,8.6-3.05,9.981-7.764C1130.787,88.92,1131.065,85.593,1131.619,82.821Z" class="cls-1"/><path d="M1308.238,283.839h-19.963c-.832-9.149,4.159-16.636,13.586-20.24,9.15-3.6,18.577-3.6,28-2.5,16.082,1.941,21.9,9.15,21.9,25.509v18.854q.417,11.646.832,24.122h-21.072a42.054,42.054,0,0,0-2.5-3.881,35.924,35.924,0,0,1-23.013,6.377c-14.972-.555-23.568-11.645-20.518-26.063a16.544,16.544,0,0,1,11.646-13.032c7.763-2.218,15.8-3.327,23.845-4.991,1.386-.277,3.05,0,3.881-.831,1.664-1.387,4.159-3.6,4.159-5.269,0-1.94-2.495-4.436-4.436-5.268C1317.943,274.412,1312.952,276.63,1308.238,283.839ZM1328.2,300.2c-5.268,1.387-10.536,2.218-15.25,3.882-3.327,1.109-6.1,4.159-4.436,7.763a9.634,9.634,0,0,0,6.931,5.269C1324.874,318.775,1330.142,311.843,1328.2,300.2Z" class="cls-1"/><path d="M1307.961,115.815h-21.9a59.694,59.694,0,0,1-.555-6.377V77.553c0-8.318-3.05-11.923-9.7-11.923-6.377,0-11.091,4.436-11.091,11.923-.277,10.536,0,21.072-.277,31.331a69.246,69.246,0,0,1-.554,6.931h-22.459v-67.1h21.627a30.319,30.319,0,0,0,.831,4.713c5.823-2.218,11.923-6.1,18.023-6.654,14.418-1.941,25.508,4.991,26.34,19.686.832,15.25.555,30.777.832,46.026C1308.793,113.6,1308.238,114.429,1307.961,115.815Z" class="cls-1"/><path d="M1521.18,263.044h21.349c.555,1.941.832,3.882,1.387,6.1,6.931-6.931,14.972-9.15,24.4-8.318,9.982.832,18.3,6.655,19.132,16.359,1.386,16.913.831,33.827,1.109,50.463,0,.554-.555,1.109-.832,2.218H1566.1a53.9,53.9,0,0,1-.554-6.655V291.326c0-7.764-3.05-11.368-9.427-11.646-6.1-.277-11.091,4.159-11.368,11.091-.555,10.536-.278,21.35-.278,31.886a68.349,68.349,0,0,1-.554,7.209h-22.182C1521.18,307.684,1521.18,285.78,1521.18,263.044Z" class="cls-1"/><path d="M1508.148,195.114h-47.135c0,6.654,2.5,10.813,8.041,12.754,7.208,2.5,13.308.555,17.745-5.822h19.963c-.277,13.863-16.636,23.845-33.827,22.735-25.231-1.386-39.094-18.3-35.49-42.144,3.05-20.795,24.4-33.827,46.3-28.559C1500.939,158.515,1511.753,177.091,1508.148,195.114Zm-47.135-13.863h24.122c-.832-7.487-4.991-11.368-11.368-11.368C1466.835,169.605,1462.4,173.487,1461.013,181.251Z" class="cls-1"/><path d="M1232.544,87.811h-46.3a11.374,11.374,0,0,0,6.1,12.755c6.1,3.05,13.031,1.109,19.686-5.546h19.686c.277,8.6-8.318,18.023-19.132,21.073-18.854,5.545-37.708-.278-45.749-14.418-8.872-14.973-6.1-33.827,6.655-46.027,11.368-10.813,31.608-12.754,44.64-4.436C1229.217,58.976,1236.7,76.166,1232.544,87.811Zm-23.013-13.863c-.277-6.932-5.268-11.645-11.922-11.368s-11.368,4.991-11.368,11.368Z" class="cls-1"/><path d="M1185.409,195.114H1138c-.277,5.822,1.941,9.427,6.1,11.922,6.377,3.882,12.477,2.219,20.518-4.99h19.409c1.109,11.645-14.695,23.29-32.163,23.013-24.123-.278-37.986-14.695-37.431-37.154.554-21.627,19.686-37.431,41.312-34.658A34.925,34.925,0,0,1,1185.409,195.114Zm-46.858-13.863h23.568c-.278-6.932-4.437-11.091-10.814-11.368C1144.1,169.605,1139.383,173.487,1138.551,181.251Z" class="cls-1"/><path d="M1246.131,155.742H1267.2c.554,1.941,1.109,3.6,1.386,4.713,4.991-2.218,9.705-5.545,14.973-6.377,14.7-3.05,29.39,3.6,29.39,23.291V217.3c0,1.664-.277,3.327-.277,5.546h-22.182a53.579,53.579,0,0,1-.277-6.378V184.578c-.277-8.873-3.882-12.2-11.645-11.646-4.159.278-7.209,2.5-8.318,6.378a30.165,30.165,0,0,0-1.664,9.981c-.277,10.814,0,21.9,0,33.55H1246.13C1246.131,200.382,1246.131,178.2,1246.131,155.742Z" class="cls-1"/><path d="M1008.79,48.717h22.458V88.366c.278,6.654,3.05,9.982,8.6,10.536,6.377.555,11.368-2.773,11.922-8.872.832-6.378.832-12.755,1.109-19.132.277-6.932,0-14.141,0-21.9h22.459v67.1h-21.35c-.554-1.664-.832-3.605-1.109-4.714-5.268,2.218-10.259,5.545-15.527,6.377-15.249,2.5-26.895-3.6-28.281-19.131C1007.681,82.266,1008.79,65.907,1008.79,48.717Z" class="cls-1"/><path d="M1516.743,222.841V156.019h21.35c.555,1.664.832,3.6,1.386,4.714,4.991-2.218,9.7-5.546,14.973-6.377,15.249-3.05,29.39,3.881,29.39,23.29v39.927c0,1.663-.277,3.327-.277,5.545h-22.459v-38.54c-.277-7.764-3.05-11.091-8.872-11.368-6.932-.555-10.814,2.5-12.477,9.7a34.043,34.043,0,0,0-.555,7.486v32.441Z" class="cls-1"/><path d="M1043.448,189.291c0,20.8-14.972,36.045-35.767,36.045-20.241,0-35.768-15.25-35.768-36.045s14.973-36.044,35.768-36.044C1028.2,153.247,1043.448,168.5,1043.448,189.291ZM1007.4,171.823c-4.713-.277-8.04,1.941-9.981,6.1-3.328,7.487-3.605,14.973-.278,22.459,1.941,4.436,5.269,6.654,10.259,6.654s8.318-2.5,10.259-6.931a25.557,25.557,0,0,0-.277-22.459C1015.721,173.764,1012.394,171.546,1007.4,171.823Z" class="cls-1"/><path d="M1512.862,296.316c0,21.35-14.418,36.045-35.49,36.045s-36.045-14.695-36.045-35.49,14.972-35.768,35.767-36.045C1498.167,260.549,1512.862,275.244,1512.862,296.316Zm-48.522-.277c1.109,3.882,1.663,7.764,2.773,11.368a9.809,9.809,0,0,0,9.7,6.655c4.436,0,8.041-1.664,9.982-5.546,4.159-8.041,4.436-16.636-.278-24.677a10.686,10.686,0,0,0-19.131.555C1466,288.276,1465.449,292.157,1464.34,296.039Z" class="cls-1"/><path d="M1136.055,260.826c20.518,0,36.045,15.527,35.768,36.045s-15.527,35.49-36.322,35.49c-20.518,0-36.045-15.527-35.768-36.045C1100.288,275.244,1115.26,260.549,1136.055,260.826Zm13.032,35.768c-.832-3.605-1.109-6.932-2.495-10.259-1.664-4.714-5.268-7.764-10.814-7.764s-8.872,3.05-10.813,7.764a28.29,28.29,0,0,0,0,20.24c1.941,4.714,5.545,7.764,10.813,7.764s8.873-3.05,10.814-7.764A87.5,87.5,0,0,0,1149.087,296.594Z" class="cls-1"/><path d="M1024.317,283.008h-19.964c-1.663-7.209-7.209-7.487-13.031-6.655-1.664.277-4.436,1.941-4.436,3.05a7.357,7.357,0,0,0,3.049,4.991c4.437,1.664,9.15,2.5,13.587,3.6,3.327.832,6.931,1.11,10.258,2.5,7.209,2.495,12.2,7.486,13.032,15.25,1.109,8.04-1.386,14.695-8.041,19.686-11.645,8.872-35.49,9.427-47.69,1.386-6.654-4.436-10.259-11.923-8.872-18.854H983c1.386,7.486,6.931,9.981,13.863,8.6,2.5-.555,4.714-3.605,6.932-5.268-1.941-1.941-3.605-4.991-6.1-5.823-7.486-2.5-15.25-3.327-22.459-5.822-10.813-3.605-15.249-13.586-11.922-23.845a16.888,16.888,0,0,1,9.981-10.814c13.309-5.545,26.895-5.822,40.2.278C1021.821,268.035,1025.426,275.244,1024.317,283.008Z" class="cls-1"/><path d="M1031.8,307.684h20.518c1.663,7.209,6.654,9.427,13.586,8.873,3.6-.277,7.486-1.664,7.209-5.545-.278-2.219-3.327-4.991-5.823-5.546-6.932-2.218-14.141-3.327-21.072-5.545-9.427-2.773-13.864-8.595-14.141-16.913-.277-8.873,3.882-15.527,13.032-19.132a51.216,51.216,0,0,1,35.767-.277c7.209,2.5,14.7,10.536,12.755,19.409h-19.409c-5.268-7.209-11.645-8.873-18.023-4.437-1.109,3.882,1.387,5.546,4.437,6.377,5.822,1.664,11.922,2.773,17.745,4.159,10.536,2.219,16.913,7.764,18.022,16.082,1.387,10.813-3.05,19.131-13.586,23.568-13.309,5.545-27.172,5.545-40.2-1.109C1034.3,323.489,1030.139,315.171,1031.8,307.684Z" class="cls-1"/><path d="M1223.949,303.248h21.35c-.555,11.091-5.546,18.854-14.141,24.122-14.972,9.15-35.767,6.1-46.858-6.654-10.813-12.2-10.813-34.1-.555-47.413,11.923-15.249,39.927-16.913,53.513-3.05A23.809,23.809,0,0,1,1244.744,288h-21.072c-4.991-8.872-9.982-11.368-16.913-8.04-7.209,3.327-7.487,10.259-7.487,16.913s.832,13.032,7.487,16.359c6.1,3.05,12.477.554,15.249-5.546C1222.563,306.3,1223.4,304.912,1223.949,303.248Z" class="cls-1"/><path d="M1091.138,155.742h23.291c-7.764,22.736-14.973,44.917-22.459,67.376h-26.34c-7.487-22.182-14.7-44.363-22.459-67.1h23.845c3.882,13.586,7.486,26.895,11.922,41.868C1083.375,182.914,1086.979,169.328,1091.138,155.742Z" class="cls-1"/><path d="M1360.365,48.717V63.135c-4.159.277-8.041.554-12.755.831V91.139c0,6.377.832,7.209,7.209,7.486a46.705,46.705,0,0,1,5.546.554v16.082a46.221,46.221,0,0,1-26.063-.555c-6.1-1.941-8.873-6.931-9.15-12.754-.555-9.982-.555-20.24-.832-30.222,0-2.218-.277-4.714-.277-7.486-3.328-.278-6.377-.555-10.259-1.109V48.994c3.327-.555,6.377-.832,10.536-1.386V28.753h23.29V47.885A92.34,92.34,0,0,1,1360.365,48.717Z" class="cls-1"/><path d="M1002.135,99.179v16.359c-8.872,1.941-17.19,2.218-25.231-.277-7.209-2.218-10.536-7.764-10.813-17.191s0-18.577,0-28c0-1.941-.278-3.881-.278-6.377-3.6-.277-6.654-.554-10.259-.832V48.439c3.328-.554,6.377-.831,10.536-1.663V27.922H989.1V47.053c4.713.555,8.872.832,13.308,1.386v14.7c-4.436.277-8.6.277-13.031.554,0,10.536-.277,20.518.277,30.5,0,1.386,3.327,3.327,5.268,4.159C996.59,99.179,999.085,98.9,1002.135,99.179Z" class="cls-1"/><path d="M1366.465,242.8h23.567v19.409c4.714.277,8.6.554,12.755.831v13.864c-4.159.277-8.041.554-12.755.832v27.172c0,6.377,1.664,8.04,8.041,8.04h4.714v16.082c-9.15,2.218-18.023,2.5-26.618-.832-6.1-2.218-8.6-7.486-8.873-13.586-.554-9.982-.554-20.24-.831-30.222,0-2.218-.278-4.436-.278-6.932-3.6-.277-6.654-.554-10.259-.832V262.767c3.328-.277,6.377-.554,10.536-.832Q1366.465,253.2,1366.465,242.8Z" class="cls-1"/><path d="M1194.559,155.742h21.349c.278,2.5.832,4.713,1.109,6.932,3.605-2.219,6.932-5.268,11.091-6.932,3.882-1.386,8.318-1.109,13.586-1.664v21.073h-8.04c-10.259,0-15.527,4.99-15.805,15.249v26.341a59.691,59.691,0,0,1-.554,6.377h-22.182C1194.559,200.382,1194.559,178.478,1194.559,155.742Z" class="cls-1"/><path d="M1410.827,263.044h22.182v66.545h-22.182Z" class="cls-1"/><path d="M1254.171,329.589V263.044h21.9v66.545Z" class="cls-1"/><path d="M1433.009,254.726h-22.182V237.813h22.182Z" class="cls-1"/><path d="M1254.171,254.726V238.09h21.9v16.636Z" class="cls-1"/><path d="M736.513,6.849c0,.832.555,2.5.555,3.328v82.9c0,3.881-.832,5.822-5.268,5.268h-.555c-5.268.554-13.031-2.5-15.8,1.386s-.832,9.982-.832,15.8V273.581c0,3.881-1.386,7.763-3.882,9.981-17.745,18.3-34.935,36.877-52.126,55.454a15.5,15.5,0,0,1-11.922,5.268h-109.8a11.958,11.958,0,0,1-9.7-4.437c-17.745-19.131-35.49-37.985-53.789-56.562a10.618,10.618,0,0,1-3.328-9.15V105c0-5.268-.831-7.763-6.654-7.209-3.882.555-7.763,0-11.368,0-2.5,0-3.882-.554-3.882-3.327.555-29.113-.554-58.5.555-87.617H584.848V93.634c0,3.327-.832,4.714-4.713,4.714h-4.714c-3.882-.555-4.713.831-4.713,4.713v146.12c0,4.436,1.386,4.714,5.268,4.714,10.536,0,20.517-.555,31.053,0,4.714,0,6.1-.832,6.1-6.1V108.329c0-9.981,0-10.536-10.536-9.981-4.713,0-5.822-1.387-5.822-5.823V6.849ZM480.6,182.637v89.557a8.919,8.919,0,0,0,2.5,7.764c15.8,16.636,32.163,33.549,47.967,50.185a7.328,7.328,0,0,0,5.823,2.773H647.233c1.941,0,4.436-.555,5.823-2.5,15.8-16.358,31.608-33,47.413-48.8a12.644,12.644,0,0,0,3.881-10.536V94.743c0-8.595-.832-7.209,7.209-7.763H722.65c3.882,0,4.713-.832,4.436-4.714V22.376c0-3.881-1.386-5.268-5.268-5.268-35.767.278-70.7.278-105.084.278-4.714,0-5.268,1.94-5.268,5.822,0,18.577.554,37.431,0,56.563,0,5.822,1.386,8.595,7.763,7.209,4.436-.832,5.823.831,5.823,5.268V252.785c.554,5.823-3.327,11.091-9.705,11.368H573.2c-8.6,0-13.032-3.881-13.032-13.031V96.961c0-9.15,0-9.15,9.15-9.15,3.327,0,4.714-.554,4.714-4.436V22.931c0-2.773,0-4.714-3.882-4.714H462.85c-2.772,0-3.881.832-3.881,3.882V83.375c0,3.327.832,3.882,3.881,3.882h12.478c3.881,0,5.822,1.386,5.822,5.823C480.041,122.747,480.6,152.969,480.6,182.637Z" class="cls-1"/><path d="M277.913,6.849c0,36.322,0,72.367.555,108.689,0,3.327-.832,4.436-4.437,4.436H181.147c-3.327,0-4.436-1.386-3.882-4.436V101.675c0-2.5-.832-3.327-3.327-3.327H139c-2.772,0-3.882.831-3.882,3.881v31.054c0,4.437,2.773,3.882,5.269,3.882h63.216c5.269,0,6.1,1.386,6.1,6.1q-.831,38.262,0,75.694c0,4.713-1.386,5.822-5.822,5.822-21.073-.554-42.7,0-63.772-.554-4.436,0-5.822,1.386-5.268,5.268.555,6.654,0,13.309,0,20.241,0,3.327.832,4.436,4.436,4.436h12.477c3.882,0,4.714,1.386,4.714,4.713v80.131c0,4.713-1.386,5.268-5.823,5.268H13.677c-2.772,0-3.881-.555-3.881-3.882V258.054c0-3.328.831-4.437,4.436-4.437,4.436,0,8.6-.554,12.477,0,5.823.555,6.654-1.941,6.654-6.654-.554-22.459,0-44.917,0-67.1V104.725c0-4.437-.831-6.1-5.822-5.823-4.714.555-8.6,0-12.477,0s-5.546-1.109-5.546-5.268V6.849ZM143.161,18.217H25.877c-2.773,0-5.822-.554-5.822,3.882V83.375c0,3.327,1.386,3.882,4.436,3.882H38.909c4.713,0,5.268.832,5.268,5.268v166.36c0,4.437-.555,6.1-5.823,5.823s-8.595,0-12.477,0-5.822,1.386-5.822,5.823c.554,19.131.554,37.985,0,57.117,0,4.713,1.94,6.1,6.1,5.822H140.389c2.495,0,4.713.555,4.713-3.327V267.758c0-2.5-.832-3.327-3.327-3.327H127.912c-4.714,0-4.714-1.664-4.714-4.991,0-13.863.555-27.727,0-42.145,0-4.436,1.386-5.268,5.268-5.268h63.772c4.713,0,5.822-1.386,5.822-5.822,0-17.746-.554-35.491,0-53.79,0-4.714-.832-6.655-6.1-6.655-21.072.555-42.144,0-63.217,0-2.772,0-5.268.555-5.268-3.881V89.752c0-2.772.832-3.881,3.882-3.881h57.394c3.328,0,3.882.831,3.882,4.436,0,3.882.555,7.763,0,11.368-.554,4.713,1.386,5.822,5.823,5.822h66.267c4.713,0,5.822-1.386,5.822-5.822,0-26.341-.554-52.681,0-78.467,0-4.713-1.386-6.1-6.1-6.1C221.351,18.217,182.533,18.217,143.161,18.217Z" class="cls-1"/><path d="M436.51,6.849c0,28.282-.555,56.563,0,85.4,0,5.268-1.941,6.654-6.654,6.654-4.437-.554-8.6,0-12.477,0-2.5,0-3.328.832-3.328,3.327V247.517c0,4.714.832,7.209,6.1,6.655s11.923-2.5,15.25.832.832,9.981.832,14.972v67.931c0,4.436-.555,5.822-5.268,5.822H294.826c-3.881,0-5.268-.832-5.268-4.713V258.885c0-3.881.832-5.268,5.268-5.268h13.309c4.714,0,4.714-.832,4.714-4.713V103.616c0-4.714-1.386-6.1-6.1-5.823-5.268,0-12.477,2.495-15.8-.832-3.327-3.881-.832-10.536-.832-16.358V6.3ZM323.385,175.982V259.44c0,4.436-.832,5.823-5.268,5.823H306.194c-3.881,0-5.268.554-5.268,4.713v58.5c0,3.882.832,5.269,5.268,5.269H420.151c4.714,0,5.823-1.941,5.823-5.823,0-19.132-.555-37.986,0-57.117,0-4.714-1.386-6.1-6.1-5.823-2.773.555-6.1,0-9.15,0-6.1.555-8.041-1.386-8.041-7.209V90.584c0-2.5.832-3.327,3.328-3.327h14.972c2.773,0,3.882-.832,3.882-3.882V22.1c0-2.773-.832-3.882-3.882-3.882H306.194c-2.772,0-5.822-.554-5.822,3.882V83.375c0,3.327,1.386,3.882,4.436,3.882,4.436,0,8.6.554,13.309,0,4.436-.555,5.823,1.386,5.823,5.823C323.385,120.806,323.385,148.256,323.385,175.982Z" class="cls-1"/><path d="M813.594,6.849c0,2.5-.555,4.714-.555,7.764V337.075c0,6.654-2.773,8.6-9.7,7.209a2.249,2.249,0,0,1-1.941-2.5V6.849Z" class="cls-1"/></svg>