<svg id="Layer_1" data-name="Layer 1" xmlns="http://www.w3.org/2000/svg" viewBox="0 0 1641.8 351"><defs><style>.cls-1{fill:#fff;}</style></defs><title>FIU Honors</title><path class="cls-1" d="M624.447,31.334c0,.819.409,2.048.409,2.867v70.854c0,3.277-.819,4.915-4.5,4.5h-.409c-4.506.41-11.059-2.047-13.516,1.229s-.819,8.6-.819,13.516V259.46a12.437,12.437,0,0,1-3.277,8.6c-15.153,15.564-29.9,31.536-44.642,47.509a13.31,13.31,0,0,1-10.239,4.506h-93.79a10.31,10.31,0,0,1-8.191-3.687c-15.154-16.382-30.308-32.355-45.871-48.328a9.338,9.338,0,0,1-2.867-7.782V115.7c0-4.5-.819-6.553-5.734-6.144-3.276.41-6.553,0-9.829,0-2.048,0-3.277-.409-3.277-2.867.41-24.983-.409-49.966.41-74.949H494.615v74.13c0,2.867-.819,4.1-4.1,4.1h-4.1c-3.276-.41-4.095.819-4.095,4.1V238.982c0,3.686,1.228,4.1,4.5,4.1,9.01,0,17.611-.41,26.621,0,4.1,0,5.325-.819,5.325-5.325V118.571c0-8.6,0-9.011-9.011-8.6-4.1,0-4.914-1.229-4.914-4.915V31.744ZM405.74,181.643v76.589a7.559,7.559,0,0,0,2.048,6.553c13.516,14.334,27.441,28.669,40.956,43a6.4,6.4,0,0,0,4.915,2.457h94.2a5.962,5.962,0,0,0,4.914-2.048c13.516-13.925,27.031-28.26,40.547-41.775a10.86,10.86,0,0,0,3.277-9.01V106.694c0-7.373-.82-6.144,6.143-6.553h9.42c3.276,0,4.1-.82,3.686-4.1V44.85c0-3.277-1.229-4.506-4.5-4.506H522.056c-4.1,0-4.5,1.639-4.5,4.915,0,15.973.409,31.946,0,48.329,0,4.914,1.229,7.372,6.553,6.143,3.686-.819,4.915.819,4.915,4.505v137.2a8.853,8.853,0,0,1-8.192,9.829H484.786c-7.372,0-11.058-3.276-11.058-11.058V108.332c0-7.782,0-7.782,7.781-7.782,2.867,0,4.1-.409,4.1-3.686v-51.6c0-2.457,0-4.095-3.276-4.095H390.587c-2.458,0-3.277.819-3.277,3.276V96.864c0,2.867.819,3.277,3.277,3.277h10.648c3.277,0,4.915,1.228,4.915,4.914C405.331,130.448,405.74,156.251,405.74,181.643Z"/><path class="cls-1" d="M232.5,31.334c0,31.127,0,61.844.41,92.971,0,2.867-.819,3.686-3.686,3.686H149.764c-2.867,0-3.686-1.229-3.277-3.686V112.427c0-2.047-.819-2.867-2.867-2.867h-29.9c-2.457,0-3.276.82-3.276,3.277v26.622c0,3.686,2.457,3.276,4.5,3.276h54.062c4.5,0,5.325,1.229,5.325,5.324-.41,21.707-.41,43.414,0,64.711,0,4.1-1.229,4.915-4.915,4.915-18.021-.41-36.451,0-54.472-.41-3.686,0-4.915,1.229-4.5,4.506.409,5.733,0,11.467,0,17.2,0,2.867.819,3.686,3.686,3.686h10.649c3.276,0,4.095,1.229,4.095,4.1v68.4c0,4.095-1.229,4.5-4.915,4.5H6.827c-2.458,0-3.277-.41-3.277-3.276V245.945c0-2.867.819-3.686,3.686-3.686,3.686,0,7.372-.41,10.649,0,4.914.409,5.734-1.639,5.734-5.734-.41-19.25,0-38.5,0-57.339v-64.3c0-3.686-.82-5.325-4.915-4.915s-7.372,0-10.649,0-4.915-.819-4.915-4.5V31.334Zm-115.087,9.83H17.066c-2.458,0-4.915-.41-4.915,3.276V96.864c0,2.867,1.229,3.277,3.686,3.277H28.124c4.1,0,4.5.819,4.5,4.5V246.764c0,3.686-.41,5.324-4.915,4.915s-7.372,0-10.648,0-4.915,1.228-4.915,4.914c.409,16.383.409,32.356,0,48.738,0,4.1,1.638,5.325,5.324,4.915h97.476c2.048,0,4.1.41,4.1-2.867V254.136c0-2.048-.819-2.867-2.867-2.867H104.3c-4.1,0-4.1-1.229-4.1-4.1,0-11.877.409-23.754,0-36.041,0-3.686,1.228-4.5,4.505-4.5h54.472c4.095,0,4.915-1.229,4.915-4.915,0-15.154-.41-30.308,0-45.871,0-4.1-.82-5.734-5.325-5.734-18.021.41-36.041,0-54.062,0-2.457,0-4.505.41-4.505-3.276V102.188c0-2.457.819-3.276,3.276-3.276h49.148c2.867,0,3.276.819,3.276,3.686,0,3.276.41,6.553,0,9.829-.409,4.1,1.229,4.915,4.915,4.915h56.52c4.095,0,4.914-1.229,4.914-4.915,0-22.526-.409-45.051,0-67.168,0-4.095-1.228-5.324-5.324-5.324C184.167,41.164,150.993,41.164,117.408,41.164Z"/><path class="cls-1" d="M368.061,31.334c0,24.164-.41,48.328,0,72.9,0,4.5-1.639,5.734-5.734,5.734-3.686-.41-7.372,0-10.649,0-2.048,0-2.867.819-2.867,2.867v124.1c0,4.1.819,6.144,5.325,5.734s10.239-2.048,13.106.819.819,8.6.819,12.7v58.158c0,3.686-.41,4.914-4.506,4.914H247.24c-3.277,0-4.5-.819-4.5-4.095v-68.4c0-3.277.819-4.505,4.5-4.505h11.467c4.1,0,4.1-.819,4.1-4.1v-124.1c0-4.1-1.229-5.325-5.324-4.915-4.5,0-10.649,2.048-13.516-.819-2.867-3.277-.819-9.011-.819-13.925V30.924ZM271.4,175.91v71.263c0,3.687-.819,4.915-4.5,4.915H256.66c-3.277,0-4.506.41-4.506,4.1V306.15c0,3.277.82,4.506,4.506,4.506h97.476c4.095,0,4.914-1.639,4.914-4.915,0-16.383-.409-32.356,0-48.738,0-4.1-1.228-5.324-5.324-4.915-2.457.41-5.324,0-7.782,0-5.324.41-6.962-1.228-6.962-6.143V103.007c0-2.047.819-2.866,2.867-2.866h12.7c2.457,0,3.277-.82,3.277-3.277V44.44c0-2.457-.82-3.276-3.277-3.276h-98.3c-2.457,0-4.915-.41-4.915,3.276V96.864c0,2.867,1.229,3.277,3.686,3.277,3.686,0,7.373.409,11.468,0,3.686-.41,4.915,1.228,4.915,4.914Z"/><path class="cls-1" d="M690.386,31.334c0,2.048-.409,4.1-.409,6.553V313.523c0,5.733-2.458,7.372-8.191,6.143a1.874,1.874,0,0,1-1.639-2.048V31.334Z"/><path class="cls-1" d="M1641.8,180.824c-13.925,0-27.441.41-41.366,0-4.5,0-4.5,2.048-4.1,5.325a15.109,15.109,0,0,0,18.839,10.239,16.031,16.031,0,0,0,6.554-4.1,10.562,10.562,0,0,1,10.239-3.686c2.457,0,6.553-1.229,7.372.41,1.228,2.457-1.229,5.324-2.867,7.781-6.553,11.058-19.25,15.154-34.813,12.287-12.287-2.457-21.3-12.7-23.345-24.983-3.277-18.43,5.324-34.4,20.887-39.728a30.886,30.886,0,0,1,39.728,17.611c.41,1.639,1.229,3.277,1.229,4.915.409.819-.41,2.458,1.228,2.867Zm-17.2-11.058a53.59,53.59,0,0,0-2.047-6.143,12.4,12.4,0,0,0-13.926-6.963,13.062,13.062,0,0,0-11.877,10.239c-.409,2.048-.819,3.686,2.048,3.277C1606.987,169.766,1615.588,169.766,1624.6,169.766Z"/><path class="cls-1" d="M746.5,164.032V124.714c0-2.867.41-4.5,4.1-4.095a61.673,61.673,0,0,0,12.287,0c2.867,0,3.276.819,3.276,3.276v26.622c0,2.867.82,3.686,3.686,3.686,9.42,0,18.84-.41,27.851,0,3.276,0,3.686-1.229,3.686-4.1V124.714c0-3.686,1.228-4.5,4.5-4.095a61.673,61.673,0,0,0,12.287,0c2.048,0,2.867.819,2.867,2.867V205.4c0,2.457-.819,3.277-2.867,3.277H805.064c-2.867,0-3.277-1.229-3.277-3.277V175.09c0-2.866-.819-4.095-3.686-4.095-9.42,0-18.84.409-27.85,0-3.276,0-3.686,1.229-3.686,4.095v29.9c0,2.866-.819,4.095-3.686,4.095a46.326,46.326,0,0,0-10.649,0c-3.686.41-4.914-.819-4.914-4.5C746.5,190.654,746.5,177.548,746.5,164.032Z"/><path class="cls-1" d="M1550.468,198.026c-16.383,15.563-39.318,9.42-44.643-11.877a40.838,40.838,0,0,1,3.277-30.308c8.191-15.563,31.946-17.2,40.546-4.5a1.431,1.431,0,0,0,.82-.41c-.82-5.324,1.638-6.553,6.553-6.143,10.648.409,10.648,0,10.648,10.648,0,18.021,0,35.632-.409,53.653a21.511,21.511,0,0,1-17.2,21.3,44.11,44.11,0,0,1-29.9-.409,20.661,20.661,0,0,1-13.516-14.335c-.819-2.867,0-3.276,2.867-3.276h11.468a4.505,4.505,0,0,1,4.1,2.457c3.276,5.324,8.6,7.372,15.973,5.734a12.194,12.194,0,0,0,9.42-11.468C1550.877,205.4,1550.468,202.122,1550.468,198.026Zm0-22.936a55.458,55.458,0,0,0-.82-8.191,13.507,13.507,0,0,0-26.212,0,26.2,26.2,0,0,0,1.229,19.25c2.457,5.734,8.6,9.01,14.335,7.372,7.372-2.048,11.877-8.6,11.468-18.431Z"/><path class="cls-1" d="M1275.651,150.517h-3.276a5.95,5.95,0,0,1-6.963-4.1v-.409c-5.324-13.516-25.8-15.154-35.222-2.867-8.192,10.648-8.192,31.945,0,42.594a20.284,20.284,0,0,0,21.707,7.782,17.826,17.826,0,0,0,14.744-14.744c.819-4.1,2.457-4.915,6.143-4.506h6.553c8.191,0,8.191,0,6.144,8.192-5.734,22.935-29.9,33.993-53.653,25.392-16.383-6.143-27.031-21.706-27.031-42.184,0-18.84,6.143-35.223,24.574-43.414a42.219,42.219,0,0,1,44.232,4.5,32.943,32.943,0,0,1,11.878,19.25c.819,3.686,0,4.914-3.686,4.5A15.5,15.5,0,0,0,1275.651,150.517Z"/><path class="cls-1" d="M1473.47,180.824h-19.25c-3.686,0-4.1,1.229-3.276,4.1a12.235,12.235,0,0,0,9.01,10.649c6.144,1.638,12.287,1.638,16.383-3.277a11.66,11.66,0,0,1,11.058-4.1c2.457,0,6.144-1.228,6.963.41s-1.639,5.324-2.867,7.372c-6.553,10.649-18.84,15.564-32.356,13.106a29.128,29.128,0,0,1-25.393-24.164c-3.276-16.792,2.867-32.355,16.383-38.908a31.454,31.454,0,0,1,32.765,1.228c10.649,6.963,13.925,18.021,13.925,30.308,0,2.867-1.229,2.867-3.276,2.867C1486.576,180.824,1480.023,180.824,1473.47,180.824Zm-9.011-11.058h10.649c3.686,0,3.277-1.229,2.457-3.276a12.706,12.706,0,0,0-12.286-10.239,13.825,13.825,0,0,0-14.335,9.42c-1.229,3.276-.41,4.5,3.276,4.095Z"/><path class="cls-1" d="M1047.115,176.729c0,20.478-12.7,33.584-32.765,33.584s-33.174-13.106-33.174-33.994c0-20.478,13.106-33.584,32.765-33.584C1034.009,143.145,1047.115,156.251,1047.115,176.729Zm-17.611.409a26.022,26.022,0,0,0-2.867-13.515,13.234,13.234,0,0,0-13.106-7.372,13.413,13.413,0,0,0-12.287,8.191,29.93,29.93,0,0,0,0,23.754c3.277,7.373,11.878,10.24,19.25,6.963a16.075,16.075,0,0,0,7.372-7.372A18.937,18.937,0,0,0,1029.5,177.138Z"/><path class="cls-1" d="M899.263,176.729c0,20.478-13.106,33.584-33.174,33.584s-32.765-13.516-32.765-33.584,12.7-33.584,32.765-33.584S899.263,155.841,899.263,176.729Zm-17.611,0a29.074,29.074,0,0,0-2.048-11.878,13.848,13.848,0,0,0-13.515-8.191,13.294,13.294,0,0,0-12.7,9.011,29.7,29.7,0,0,0,.41,22.935,12.959,12.959,0,0,0,13.106,8.191,13.294,13.294,0,0,0,13.106-8.6,37.014,37.014,0,0,0,1.638-11.467Z"/><path class="cls-1" d="M1361.25,176.729c0,20.478-12.7,33.584-32.765,33.584s-33.175-13.516-33.175-33.994,13.106-33.584,32.765-33.584C1348.144,143.145,1361.25,156.251,1361.25,176.729Zm-17.612.409a23.583,23.583,0,0,0-2.047-11.877,12.974,12.974,0,0,0-13.516-8.6,12.5,12.5,0,0,0-13.106,9.011,30.57,30.57,0,0,0,0,22.525c2.048,5.734,7.372,9.42,13.516,8.6a12.805,12.805,0,0,0,13.106-9.01A30.785,30.785,0,0,0,1343.638,177.138Z"/><path class="cls-1" d="M927.523,152.565a25.542,25.542,0,0,1,24.574-9.42,17.868,17.868,0,0,1,17.2,17.2c2.048,15.154.41,30.308.819,45.462,0,2.047-.819,2.457-2.457,2.457h-12.7c-3.277,0-2.458-2.048-2.458-3.686V173.043a37.525,37.525,0,0,0-.409-6.553c-1.229-6.963-4.1-9.83-9.83-10.239a11.179,11.179,0,0,0-13.106,9.01h0a51.026,51.026,0,0,0-.819,17.611v21.3c0,2.867-.819,4.1-3.686,3.686h-.41c-4.5,0-10.239,1.229-12.7-.819s-.819-8.191-.819-12.7V148.059c0-3.276.819-4.914,4.1-4.5h4.506C926.7,144.783,926.7,144.783,927.523,152.565Z"/><path class="cls-1" d="M1151.554,163.623h-5.325c-1.638,0-2.457-.41-2.867-2.048-2.457-6.144-13.515-9.01-18.839-4.915a4.826,4.826,0,0,0-1.229,6.963,2.765,2.765,0,0,0,2.457,1.638,62.163,62.163,0,0,0,11.468,3.686,68.877,68.877,0,0,1,13.106,3.686,15.8,15.8,0,0,1,11.468,13.106,19.871,19.871,0,0,1-7.372,18.84c-10.239,7.782-32.765,7.782-43.414,0a20.934,20.934,0,0,1-7.782-12.7c-.409-2.458-.409-4.506,3.277-4.1h6.962c3.686,0,6.144-.41,7.782,4.5,2.457,7.372,16.792,8.191,21.707,2.457a6.228,6.228,0,0,0,0-8.191,8.968,8.968,0,0,0-2.048-1.228,58.345,58.345,0,0,0-14.335-4.506,45.961,45.961,0,0,1-10.648-3.276,14.407,14.407,0,0,1-11.059-13.925,16.234,16.234,0,0,1,9.42-16.792,42.655,42.655,0,0,1,36.042,0,18.545,18.545,0,0,1,9.829,12.287c1.229,3.686.41,5.324-3.686,4.5Z"/><path class="cls-1" d="M1404.663,164.032V124.305c0-2.867.82-4.1,3.686-3.686a46.326,46.326,0,0,0,10.649,0c2.867,0,3.277.819,3.277,3.276v81.094c0,2.866-.82,3.686-3.687,3.686-4.5-.41-10.648,1.228-13.106-.82s-.819-8.6-.819-13.106C1404.254,184.51,1404.663,174.271,1404.663,164.032Z"/><path class="cls-1" d="M1390.329,164.851v39.728c0,3.276-.819,4.1-4.1,4.1-4.5-.41-10.239,1.638-12.7-.82-2.867-2.457-.82-8.191-.82-12.7V125.943c0-3.686.41-5.734,4.915-5.324s9.83-1.639,12.287.819c2.458,2.867.819,7.781.819,11.877C1390.329,143.964,1390.329,154.2,1390.329,164.851Z"/><path class="cls-1" d="M1075.785,155.022a23.419,23.419,0,0,1,18.84-11.877c3.276-.41,5.324.409,4.914,4.5v2.867a18.5,18.5,0,0,1-.409,8.191c-1.638,2.867-4.915.41-7.372.41a15.6,15.6,0,0,0-15.154,14.744,242.942,242.942,0,0,0-.819,29.9c0,3.276-.41,4.915-4.506,4.5s-9.829,1.229-12.286-.819-.82-8.191-.82-12.7v-46.28c0-3.277.41-4.915,4.1-4.5h2.457C1074.556,144.783,1074.556,144.783,1075.785,155.022Z"/></svg>