<svg xmlns="http://www.w3.org/2000/svg" id="Layer_1" data-name="Layer 1" viewBox="0 0 1641.8 351"><defs><style>.cls-1{fill:#fff}</style></defs><title>FIU Online</title><path d="M752.743,7.03c0,.957.478,2.393.478,3.35v82.8c0,3.829-.957,5.743-5.264,5.265h-.479c-5.265.478-12.922-2.393-15.794,1.435s-.957,10.051-.957,15.794V273.611a14.537,14.537,0,0,1-3.829,10.051c-17.708,18.187-34.938,36.852-52.168,55.518a15.551,15.551,0,0,1-11.965,5.264h-109.6a12.051,12.051,0,0,1-9.572-4.307c-17.708-19.144-35.416-37.81-53.6-56.475a10.912,10.912,0,0,1-3.35-9.094V105.622c0-5.265-.957-7.658-6.7-7.179a92.09,92.09,0,0,1-11.486,0c-2.393,0-3.829-.479-3.829-3.351.479-29.194-.479-58.389.479-87.584H601.026V94.135c0,3.35-.957,4.786-4.786,4.786h-4.786c-3.829-.478-4.786.957-4.786,4.786V249.681c0,4.307,1.435,4.786,5.264,4.786,10.53,0,20.58-.479,31.109,0,4.786,0,6.222-.957,6.222-6.222V108.972c0-10.051,0-10.529-10.529-10.051-4.786,0-5.743-1.436-5.743-5.743V7.508ZM497.169,182.677v89.5a8.831,8.831,0,0,0,2.393,7.658c15.794,16.751,32.066,33.5,47.86,50.253a7.482,7.482,0,0,0,5.743,2.872H663.244a6.972,6.972,0,0,0,5.743-2.393c15.794-16.273,31.588-33.024,47.382-48.818a12.687,12.687,0,0,0,3.829-10.529V95.092c0-8.614-.957-7.179,7.179-7.657h11.008c3.828,0,4.786-.957,4.307-4.786V22.824c0-3.829-1.436-5.265-5.265-5.265H633.092c-4.786,0-5.265,1.914-5.265,5.743,0,18.666.479,37.331,0,56.475,0,5.743,1.436,8.615,7.658,7.179,4.307-.957,5.743.957,5.743,5.265V252.553A10.347,10.347,0,0,1,632.11,264c-.151.017-.3.031-.454.041H589.539c-8.615,0-12.922-3.829-12.922-12.922V97.007c0-9.094,0-9.094,9.093-9.094,3.351,0,4.786-.478,4.786-4.307V23.3c0-2.872,0-4.786-3.828-4.786H479.461c-2.872,0-3.829.957-3.829,3.829V83.606c0,3.35.957,3.829,3.829,3.829H491.9c3.829,0,5.744,1.436,5.744,5.743C496.69,122.851,497.169,153,497.169,182.677Z" class="cls-1"/><path d="M294.72,7.03c0,36.373,0,72.269.479,108.642,0,3.351-.957,4.308-4.308,4.308H198.042c-3.35,0-4.307-1.436-3.828-4.308V101.793c0-2.393-.958-3.35-3.351-3.35H155.925c-2.871,0-3.828.957-3.828,3.829v31.109c0,4.307,2.871,3.828,5.264,3.828h63.176c5.264,0,6.222,1.436,6.222,6.222-.479,25.366-.479,50.732,0,75.619,0,4.787-1.436,5.744-5.744,5.744-21.058-.479-42.595,0-63.654-.479-4.307,0-5.743,1.436-5.264,5.265.478,6.7,0,13.4,0,20.1,0,3.35.957,4.307,4.307,4.307h12.444c3.829,0,4.786,1.436,4.786,4.787V338.7c0,4.786-1.436,5.265-5.743,5.265H31.01c-2.871,0-3.829-.479-3.829-3.829v-82.32c0-3.35.958-4.307,4.308-4.307a107.627,107.627,0,0,1,12.444,0c5.743.478,6.7-1.915,6.7-6.7-.479-22.494,0-44.988,0-67v-75.14c0-4.308-.957-6.222-5.743-5.744a107.627,107.627,0,0,1-12.444,0c-3.829,0-5.743-.957-5.743-5.264V7.03ZM160.233,18.516H42.975c-2.871,0-5.743-.479-5.743,3.829V83.606c0,3.35,1.436,3.829,4.307,3.829H55.9c4.786,0,5.264.957,5.264,5.264V258.775c0,4.307-.478,6.221-5.743,5.743a107.181,107.181,0,0,0-12.444,0c-3.829,0-5.743,1.436-5.743,5.743.479,19.144.479,37.81,0,56.954,0,4.786,1.914,6.221,6.222,5.743H157.361c2.393,0,4.786.478,4.786-3.35V267.389c0-2.393-.957-3.35-3.35-3.35H144.918c-4.786,0-4.786-1.436-4.786-4.786,0-13.879.478-27.759,0-42.117,0-4.307,1.435-5.265,5.264-5.265H209.05c4.786,0,5.744-1.435,5.744-5.743,0-17.708-.479-35.416,0-53.6,0-4.786-.958-6.7-6.222-6.7-21.059.479-42.117,0-63.176,0-2.871,0-5.264.479-5.264-3.828V89.828c0-2.872.957-3.829,3.828-3.829h57.433c3.35,0,3.829.957,3.829,4.307a92.106,92.106,0,0,1,0,11.487c-.479,4.786,1.435,5.743,5.743,5.743h66.047c4.786,0,5.743-1.436,5.743-5.743,0-26.323-.478-52.646,0-78.491,0-4.786-1.436-6.222-6.222-6.222C238.245,18.516,199.478,18.516,160.233,18.516Z" class="cls-1"/><path d="M453.138,7.03c0,28.237-.479,56.475,0,85.191,0,5.264-1.915,6.7-6.7,6.7a108.076,108.076,0,0,0-12.444,0c-2.393,0-3.35.957-3.35,3.351V247.288c0,4.786.957,7.179,6.222,6.7s11.965-2.393,15.315.958.958,10.05.958,14.836v67.962c0,4.307-.479,5.743-5.265,5.743H311.95c-3.829,0-5.265-.957-5.265-4.786V258.775c0-3.829.957-5.265,5.265-5.265h13.4c4.786,0,4.786-.957,4.786-4.786V103.707c0-4.786-1.436-6.222-6.222-5.743-5.265,0-12.444,2.393-15.794-.957-3.35-3.829-.957-10.529-.957-16.273V6.551ZM340.187,175.976v83.277c0,4.308-.957,5.743-5.264,5.743H322.958c-3.829,0-5.265.479-5.265,4.786v58.39c0,3.829.957,5.264,5.265,5.264H436.865c4.786,0,5.743-1.914,5.743-5.743,0-19.144-.478-37.809,0-56.953,0-4.786-1.436-6.222-6.222-5.744a57.509,57.509,0,0,1-9.093,0c-6.222.479-8.136-1.435-8.136-7.179V90.785c0-2.393.957-3.35,3.35-3.35h14.837c2.871,0,3.828-.957,3.828-3.829V22.345c0-2.872-.957-3.829-3.828-3.829H322.479c-2.872,0-5.743-.479-5.743,3.829V83.606c0,3.35,1.436,3.829,4.307,3.829a125.324,125.324,0,0,0,13.4,0c4.308-.479,5.743,1.436,5.743,5.743Z" class="cls-1"/><path d="M829.8,7.03c0,2.393-.479,4.786-.479,7.657v322.1c0,6.7-2.872,8.615-9.572,7.179a2.192,2.192,0,0,1-1.914-2.393V7.03Z" class="cls-1"/><path d="M922.647,178.331a104.569,104.569,0,0,1,7.514-42.179,77.441,77.441,0,0,1,15.315-22.547,63.955,63.955,0,0,1,21.255-14.8,90.19,90.19,0,0,1,35.445-6.509q36.345,0,58.164,22.547t21.815,62.7q0,39.819-21.647,62.309t-57.882,22.494q-36.675,0-58.332-22.375T922.647,178.331Zm34.21-1.125q0,27.936,12.922,42.347a44.342,44.342,0,0,0,62.648,2.792q1.4-1.282,2.691-2.682,12.735-14.3,12.731-42.9,0-28.27-12.4-42.179a45.946,45.946,0,0,0-64.971-.88q-.529.514-1.043,1.047-12.582,14.081-12.582,42.457Z" class="cls-1"/><path d="M1216.2,259.54h-31.521V198.758a94.046,94.046,0,0,0-2.019-24.959,17.476,17.476,0,0,0-6.562-8.8,18.741,18.741,0,0,0-10.936-3.144,25.268,25.268,0,0,0-14.693,4.489,22.591,22.591,0,0,0-8.921,11.888,102.786,102.786,0,0,0-2.393,27.372V259.54h-31.521V140.416h29.281v17.5a48.816,48.816,0,0,1,58.327-16.435,32.036,32.036,0,0,1,13.071,9.572,34.846,34.846,0,0,1,6.169,13.238,98.553,98.553,0,0,1,1.737,21.2Z" class="cls-1"/><path d="M1248.173,259.54V95.092h31.511V259.54Z" class="cls-1"/><path d="M1312,124.287v-29.2h31.516v29.2Zm0,135.277V140.416h31.516V259.54Z" class="cls-1"/><path d="M1484.181,259.54h-31.52V198.758a93.881,93.881,0,0,0-2.02-24.959,17.476,17.476,0,0,0-6.562-8.8,18.732,18.732,0,0,0-10.936-3.144,25.268,25.268,0,0,0-14.693,4.489,22.6,22.6,0,0,0-8.921,11.888,103.038,103.038,0,0,0-2.393,27.372V259.54h-31.521V140.416h29.276v17.5a48.816,48.816,0,0,1,58.327-16.435,32,32,0,0,1,13.071,9.572,34.772,34.772,0,0,1,6.169,13.238,98.554,98.554,0,0,1,1.738,21.2Z" class="cls-1"/><path d="M1585.138,221.63l31.41,5.265a51.536,51.536,0,0,1-19.144,26.323,56.188,56.188,0,0,1-32.7,9.031q-31.071,0-45.994-20.3a68.239,68.239,0,0,1-11.778-41.055q0-29.61,15.483-46.386a50.977,50.977,0,0,1,39.145-16.751,52.886,52.886,0,0,1,41.954,17.555q15.372,17.56,14.693,53.79H1539.24a31.905,31.905,0,0,0,7.628,21.815,23.855,23.855,0,0,0,18.187,7.8,19.3,19.3,0,0,0,12.444-4.039A24.887,24.887,0,0,0,1585.138,221.63Zm1.809-31.86a30.349,30.349,0,0,0-7.065-20.805,21.677,21.677,0,0,0-16.377-7.127,21.9,21.9,0,0,0-17.053,7.519,29.076,29.076,0,0,0-6.614,20.413Z" class="cls-1"/></svg>