<svg id="Layer_1" data-name="Layer 1" xmlns="http://www.w3.org/2000/svg" viewBox="0 0 1641.8 351"><defs><style>.cls-1{fill:#fff;}</style></defs><title>FIU Engagement</title><path class="cls-1" d="M628.466,29.673c0,.828.414,2.071.414,2.9v71.67c0,3.315-.828,4.972-4.557,4.558h-.414c-4.557.414-11.186-2.072-13.671,1.242s-.829,8.7-.829,13.672V260.428a12.585,12.585,0,0,1-3.314,8.7c-15.329,15.742-30.243,31.9-45.157,48.056a13.465,13.465,0,0,1-10.357,4.558H455.71a10.428,10.428,0,0,1-8.285-3.729c-15.329-16.571-30.657-32.728-46.4-48.885a9.451,9.451,0,0,1-2.9-7.872V115.015c0-4.557-.828-6.629-5.8-6.214-3.314.414-6.628,0-9.943,0-2.071,0-3.314-.415-3.314-2.9.414-25.272-.414-50.543.414-75.814H497.139v74.985c0,2.9-.829,4.143-4.143,4.143h-4.143c-3.314-.414-4.143.828-4.143,4.143V239.714c0,3.728,1.243,4.143,4.557,4.143,9.114,0,17.814-.415,26.929,0,4.142,0,5.385-.829,5.385-5.386V117.915c0-8.7,0-9.114-9.114-8.7-4.143,0-4.971-1.243-4.971-4.972V30.087ZM407.239,181.714v77.471a7.645,7.645,0,0,0,2.072,6.629c13.671,14.5,27.757,29,41.428,43.5a6.475,6.475,0,0,0,4.971,2.486H551a6.034,6.034,0,0,0,4.972-2.072c13.671-14.085,27.342-28.585,41.014-42.256a10.986,10.986,0,0,0,3.314-9.115V105.9c0-7.457-.829-6.215,6.214-6.629h9.529c3.314,0,4.142-.828,3.728-4.143V43.344c0-3.314-1.243-4.557-4.557-4.557H524.9c-4.142,0-4.557,1.657-4.557,4.971,0,16.157.415,32.314,0,48.886,0,4.971,1.243,7.457,6.629,6.214,3.728-.829,4.971.828,4.971,4.557V242.2a8.955,8.955,0,0,1-8.285,9.943H487.2c-7.457,0-11.186-3.314-11.186-11.185v-133.4c0-7.872,0-7.872,7.871-7.872,2.9,0,4.143-.414,4.143-3.728v-52.2c0-2.485,0-4.143-3.314-4.143h-92.8c-2.486,0-3.314.829-3.314,3.315V95.958c0,2.9.828,3.314,3.314,3.314h10.771c3.314,0,4.972,1.243,4.972,4.971C406.825,129.929,407.239,156.029,407.239,181.714Z"/><path class="cls-1" d="M232,29.673c0,31.485,0,62.556.414,94.042,0,2.9-.828,3.728-3.728,3.728H148.313c-2.9,0-3.729-1.243-3.314-3.728V111.7c0-2.072-.829-2.9-2.9-2.9H111.856c-2.486,0-3.314.828-3.314,3.314v26.928c0,3.729,2.486,3.314,4.557,3.314h54.685c4.557,0,5.386,1.243,5.386,5.386-.414,21.957-.414,43.914,0,65.457,0,4.143-1.243,4.971-4.971,4.971-18.229-.414-36.872,0-55.1-.414-3.729,0-4.971,1.243-4.557,4.557.414,5.8,0,11.6,0,17.4,0,2.9.828,3.728,3.728,3.728h10.772c3.314,0,4.143,1.243,4.143,4.143V316.77c0,4.143-1.243,4.557-4.972,4.557H3.729c-2.486,0-3.315-.414-3.315-3.314V246.757c0-2.9.829-3.729,3.729-3.729,3.728,0,7.457-.414,10.771,0,4.972.414,5.8-1.657,5.8-5.8-.414-19.471,0-38.942,0-58V114.186c0-3.728-.828-5.385-4.971-4.971s-7.457,0-10.772,0S0,108.386,0,104.658V29.673ZM115.585,39.615H14.086c-2.486,0-4.972-.414-4.972,3.315V95.958c0,2.9,1.243,3.314,3.729,3.314H25.271c4.143,0,4.557.829,4.557,4.557V247.585c0,3.729-.414,5.386-4.971,4.972s-7.457,0-10.771,0-4.972,1.242-4.972,4.971c.414,16.571.414,32.728,0,49.3,0,4.143,1.657,5.386,5.386,4.972h98.6c2.071,0,4.143.414,4.143-2.9V255.042c0-2.071-.829-2.9-2.9-2.9H102.328c-4.143,0-4.143-1.243-4.143-4.143,0-12.014.414-24.028,0-36.456,0-3.729,1.243-4.558,4.557-4.558h55.1c4.143,0,4.972-1.242,4.972-4.971,0-15.328-.414-30.657,0-46.4,0-4.142-.829-5.8-5.386-5.8-18.228.414-36.457,0-54.685,0-2.486,0-4.557.414-4.557-3.315V101.344c0-2.486.828-3.315,3.314-3.315h49.714c2.9,0,3.314.829,3.314,3.729,0,3.314.415,6.628,0,9.943-.414,4.142,1.243,4.971,4.972,4.971H216.67c4.142,0,4.971-1.243,4.971-4.971,0-22.786-.414-45.571,0-67.943,0-4.143-1.243-5.385-5.386-5.385C183.113,39.615,149.556,39.615,115.585,39.615Z"/><path class="cls-1" d="M369.125,29.673c0,24.442-.414,48.885,0,73.742,0,4.557-1.657,5.8-5.8,5.8-3.728-.414-7.457,0-10.771,0-2.071,0-2.9.828-2.9,2.9V237.642c0,4.143.829,6.215,5.386,5.8s10.357-2.071,13.257.829.828,8.7.828,12.843v58.828c0,3.728-.414,4.971-4.557,4.971H246.912c-3.314,0-4.557-.828-4.557-4.143V247.585c0-3.314.829-4.557,4.557-4.557h11.6c4.143,0,4.143-.829,4.143-4.143V113.358c0-4.143-1.243-5.386-5.386-4.972-4.557,0-10.771,2.072-13.671-.828-2.9-3.315-.829-9.114-.829-14.086V29.258Zm-97.77,146.241V248c0,3.729-.829,4.972-4.557,4.972H256.441c-3.315,0-4.557.414-4.557,4.143v50.542c0,3.314.828,4.557,4.557,4.557h98.6c4.143,0,4.971-1.657,4.971-4.971,0-16.572-.414-32.729,0-49.3,0-4.143-1.243-5.385-5.386-4.971-2.485.414-5.385,0-7.871,0-5.386.414-7.043-1.243-7.043-6.214V102.172c0-2.071.829-2.9,2.9-2.9h12.843c2.486,0,3.314-.828,3.314-3.314V42.93c0-2.486-.828-3.315-3.314-3.315H256.026c-2.485,0-4.971-.414-4.971,3.315V95.958c0,2.9,1.243,3.314,3.729,3.314,3.728,0,7.457.414,11.6,0,3.729-.414,4.972,1.243,4.972,4.972Z"/><path class="cls-1" d="M695.165,29.673c0,2.071-.414,4.143-.414,6.628V315.113c0,5.8-2.486,7.457-8.286,6.214a1.9,1.9,0,0,1-1.657-2.071V29.673Z"/><path class="cls-1" d="M760.208,216.514V110.043h79.128v18.229H781.75v23.614h53.443V169.7H781.75v29h59.657v17.814Z"/><path class="cls-1" d="M929.649,216.514h-20.3V177.157q0-12.427-1.243-16.157a12.346,12.346,0,0,0-4.142-5.8,11.849,11.849,0,0,0-7.043-2.071,15.287,15.287,0,0,0-9.529,2.9,15.772,15.772,0,0,0-5.8,7.871c-1.242,3.314-1.657,9.114-1.657,17.814v35.214h-20.3V139.457h19.057v11.186c6.629-8.7,15.329-13.257,25.686-13.257a30.267,30.267,0,0,1,12.428,2.486c3.729,1.657,6.629,3.728,8.286,6.214a28.228,28.228,0,0,1,4.143,8.7,59.014,59.014,0,0,1,1.243,13.671v48.057Z"/><path class="cls-1" d="M948.706,221.9l23.2,2.9c.414,2.9,1.243,4.557,2.9,5.8,2.071,1.657,4.971,2.071,9.114,2.071,5.386,0,9.529-.829,12.014-2.486a12.186,12.186,0,0,0,4.143-4.971c.829-1.657.829-4.971.829-9.529V204.5c-6.215,8.285-13.672,12.428-23.2,12.428-10.357,0-18.643-4.557-24.857-13.257-4.557-7.043-7.043-15.743-7.043-26.1,0-12.842,3.314-22.785,9.529-29.828a29.686,29.686,0,0,1,23.2-10.357q14.293,0,23.614,12.429V139.043h19.057v69.6c0,9.114-.828,15.742-2.071,20.3a27.351,27.351,0,0,1-6.214,10.772c-2.486,2.9-6.214,4.557-10.772,6.214S991.791,248,984.749,248c-13.257,0-22.372-2.071-27.757-6.628s-8.286-10.357-8.286-16.986Zm18.228-45.571c0,8.285,1.658,14.085,4.972,18.228s7.043,5.8,11.6,5.8c4.971,0,9.114-2.071,12.843-5.8s4.971-9.528,4.971-17.4-1.657-14.085-4.971-17.814a16.136,16.136,0,0,0-12.429-5.8,14.727,14.727,0,0,0-12.014,5.8C968.592,162.657,966.934,168.457,966.934,176.329Z"/><path class="cls-1" d="M1056.834,163.072l-18.643-3.315c2.071-7.457,5.8-12.842,10.771-16.571s12.843-5.386,22.786-5.386c9.114,0,15.743,1.243,20.3,3.315a21.087,21.087,0,0,1,9.528,8.285c2.072,3.315,2.9,9.529,2.9,18.229l-.414,24.028a115.693,115.693,0,0,0,.829,14.914c.414,2.9,2.071,6.629,3.728,10.357h-20.3c-.414-1.243-1.243-3.314-2.071-6.214-.414-1.243-.414-2.071-.829-2.486a33.1,33.1,0,0,1-11.185,7.457,33.746,33.746,0,0,1-12.843,2.486c-7.872,0-14.086-2.071-18.643-6.628a22.536,22.536,0,0,1-7.043-16.572,21.2,21.2,0,0,1,3.315-11.6,20.039,20.039,0,0,1,8.7-7.871,96.032,96.032,0,0,1,16.157-4.971q14.293-2.487,19.886-4.972v-2.071c0-3.729-.829-6.629-2.9-8.286s-5.8-2.486-11.186-2.486a16.838,16.838,0,0,0-8.7,2.072C1058.905,156.029,1058.077,159.343,1056.834,163.072Zm27.342,16.571a117.258,117.258,0,0,1-12.428,3.314q-8.7,1.864-11.186,3.729c-2.485,2.071-4.143,4.142-4.143,7.042a10.376,10.376,0,0,0,3.315,7.458,11.567,11.567,0,0,0,8.285,3.314,16.74,16.74,0,0,0,10.357-3.729,12.888,12.888,0,0,0,4.972-6.628,45.492,45.492,0,0,0,.828-9.943Z"/><path class="cls-1" d="M1122.705,221.9l23.2,2.9c.415,2.9,1.243,4.557,2.9,5.8,2.072,1.657,4.972,2.071,9.115,2.071,5.385,0,9.528-.829,12.014-2.486a12.186,12.186,0,0,0,4.143-4.971c.828-1.657.828-4.971.828-9.529V204.5c-6.214,8.285-13.671,12.428-23.2,12.428-10.357,0-18.642-4.557-24.856-13.257-4.558-7.043-7.043-15.743-7.043-26.1,0-12.842,3.314-22.785,9.528-29.828a29.688,29.688,0,0,1,23.2-10.357q14.292,0,23.614,12.429V139.043H1195.2v69.6c0,9.114-.829,15.742-2.071,20.3a27.353,27.353,0,0,1-6.215,10.772c-2.485,2.9-6.214,4.557-10.771,6.214S1165.79,248,1158.747,248c-13.257,0-22.371-2.071-27.757-6.628s-8.285-10.357-8.285-16.986Zm18.228-45.571c0,8.285,1.657,14.085,4.971,18.228s7.043,5.8,11.6,5.8c4.972,0,9.115-2.071,12.843-5.8s4.971-9.528,4.971-17.4-1.657-14.085-4.971-17.814a16.132,16.132,0,0,0-12.428-5.8,14.728,14.728,0,0,0-12.015,5.8C1142.59,162.657,1140.933,168.457,1140.933,176.329Z"/><path class="cls-1" d="M1260.66,192.071l20.3,3.315c-2.485,7.457-6.628,13.257-12.428,16.985a38.331,38.331,0,0,1-21.129,5.8c-13.257,0-23.2-4.557-29.828-13.257-4.971-7.043-7.457-15.743-7.457-26.514,0-12.843,3.314-22.786,9.943-30.243s15.328-10.771,25.271-10.771c11.6,0,20.714,3.729,27.343,11.6s9.942,19.057,9.528,34.8h-51.371c0,6.214,1.657,10.771,4.972,14.085a15.672,15.672,0,0,0,11.6,4.972,14,14,0,0,0,8.286-2.486C1258.175,198.7,1259.418,195.8,1260.66,192.071Zm.829-20.714c0-5.8-1.657-10.357-4.557-13.671a13.556,13.556,0,0,0-10.771-4.557,14.185,14.185,0,0,0-11.186,4.971c-2.9,3.314-4.143,7.872-4.143,13.257Z"/><path class="cls-1" d="M1297.117,139.457h19.057v10.358c6.629-8.286,14.915-12.429,24.029-12.429,4.971,0,9.114.829,12.842,2.9a24.04,24.04,0,0,1,9.115,9.114,32.949,32.949,0,0,1,11.185-9.114,27.28,27.28,0,0,1,12.429-2.9,31.226,31.226,0,0,1,14.5,3.314,18.067,18.067,0,0,1,8.7,10.357c1.242,3.315,2.071,8.7,2.071,16.157v49.3h-20.3V172.6c0-7.871-.828-12.428-2.071-14.914a10.259,10.259,0,0,0-8.7-4.557,15.988,15.988,0,0,0-8.286,2.485c-2.9,1.658-4.143,4.143-5.385,7.872-1.243,3.314-1.657,8.7-1.657,16.157v37.285h-20.3V174.257c0-7.457-.415-12.428-1.243-14.5a10.569,10.569,0,0,0-3.314-4.971,9.984,9.984,0,0,0-6.214-1.657,16.3,16.3,0,0,0-8.7,2.485c-2.9,1.658-4.143,4.143-5.386,7.458s-1.657,8.7-1.657,15.742v37.7h-20.3V139.457Z"/><path class="cls-1" d="M1476.087,192.071l20.3,3.315c-2.486,7.457-6.629,13.257-12.428,16.985a38.331,38.331,0,0,1-21.129,5.8c-13.257,0-23.2-4.557-29.828-13.257-4.972-7.043-7.457-15.743-7.457-26.514,0-12.843,3.314-22.786,9.942-30.243s15.329-10.771,25.272-10.771c11.6,0,20.714,3.729,27.342,11.6s9.943,19.057,9.529,34.8h-51.371c0,6.214,1.657,10.771,4.971,14.085a15.676,15.676,0,0,0,11.6,4.972,14,14,0,0,0,8.286-2.486C1473.6,198.7,1474.844,195.8,1476.087,192.071Zm1.243-20.714c0-5.8-1.657-10.357-4.557-13.671A13.556,13.556,0,0,0,1462,153.129a14.185,14.185,0,0,0-11.186,4.971c-2.9,3.314-4.143,7.872-4.143,13.257Z"/><path class="cls-1" d="M1584.629,216.514h-20.3V177.157q0-12.427-1.242-16.157a12.354,12.354,0,0,0-4.143-5.8,11.849,11.849,0,0,0-7.043-2.071,15.287,15.287,0,0,0-9.529,2.9,15.77,15.77,0,0,0-5.8,7.871c-1.243,3.314-1.658,9.114-1.658,17.814v35.214h-20.3V139.457h19.057v11.186c6.628-8.7,15.328-13.257,25.685-13.257a30.276,30.276,0,0,1,12.429,2.486c3.728,1.657,6.628,3.728,8.285,6.214a28.228,28.228,0,0,1,4.143,8.7,58.958,58.958,0,0,1,1.243,13.671v48.057Z"/><path class="cls-1" d="M1640.557,139.457v16.157h-14.085v31.072c0,6.214,0,9.942.414,11.185a3.8,3.8,0,0,0,1.657,2.486,7.812,7.812,0,0,0,3.314.829c2.072,0,4.557-.829,8.286-2.072l1.657,15.743c-4.557,2.071-9.943,2.9-16.157,2.9a25.069,25.069,0,0,1-9.943-1.657,16.473,16.473,0,0,1-6.628-4.972,14.933,14.933,0,0,1-2.9-7.871,94.321,94.321,0,0,1-.829-14.5V155.2h-9.528V139.043h9.528V123.715l20.714-12.014v27.342h14.5Z"/></svg>