<svg id="Layer_1" data-name="Layer 1" xmlns="http://www.w3.org/2000/svg" viewBox="0 0 870.96 217.58"><defs><style>.cls-1{fill:#fff;}</style></defs><title>FIUCEC</title><path class="cls-1" d="M371,34.14c0,12.71-.11,25.25,0,37.88,0,2.11-.63,2.71-2.71,2.64-2.42,0-5.64-1.12-7,.49s-.45,4.51-.45,7v70.15a5.27,5.27,0,0,1-1.57,4c-7.84,8.12-15.55,16.36-23.36,24.66a6.45,6.45,0,0,1-5.26,2.25q-24-.13-48.05,0a5.58,5.58,0,0,1-4.55-2c-7.84-8.48-15.83-16.74-23.82-25a5.17,5.17,0,0,1-1.61-4V77.46c0-2.37-.65-3-2.94-2.9s-5.26,1.06-6.55-.47-.38-4.24-.38-6.35V34.18h61V70.51c0,4,0,4.09-4.13,4.11-1.42,0-2.12.21-2.12,1.91v64.81c0,1.67.72,1.9,2.12,1.88,4.66,0,9.32-.13,14,0,2.12,0,2.5-.61,2.48-2.54V79.24c0-4.53,0-4.66-4.41-4.51-2.12,0-2.69-.55-2.67-2.67V34.2ZM257.49,111.93v39.66a5,5,0,0,0,1.48,3.83q10.29,10.72,20.51,21.53a4.41,4.41,0,0,0,3.56,1.5h47.77a4.08,4.08,0,0,0,3.31-1.42c6.63-7,13.24-14.06,20-20.95a7.1,7.1,0,0,0,2.11-5.55V72c0-1.73.43-2.41,2.25-2.26s3.73,0,5.59,0c1.51,0,2.12-.34,2.12-2q-.12-13.48,0-26.95c0-1.68-.53-2.12-2.12-2.12H317.32c-1.72,0-2.12.57-2.12,2.12V66.21c0,3.39,0,3.54,3.28,3.37,2.12,0,2.48.7,2.48,2.6v70.91a4.56,4.56,0,0,1-4.22,4.87,4.14,4.14,0,0,1-.61,0H298.08a4.65,4.65,0,0,1-5.2-4,4.76,4.76,0,0,1,0-1.25V73.16c0-3.39,0-3.54,3.28-3.37,2.12.13,2.48-.76,2.46-2.6V44.81c0-6.06,0-6.06-6.06-6.06H250.2c-1.08,0-2.44-.48-2.44,1.55v28c0,1.1.38,1.5,1.49,1.46,2.11,0,4.06.15,6.08,0s2.52.63,2.5,2.56C257.44,85.49,257.49,98.71,257.49,111.93Z"/><path class="cls-1" d="M168.12,34.14c0,.93-.21,1.84-.21,2.77V81.4c0,2-.51,2.56-2.54,2.54H125.48c-2.12,0-2.52-.74-2.5-2.62s1-5-.47-6.36-4.24-.36-6.35-.4h-9.92c-1.33,0-1.72.44-1.69,1.76v13c0,1.8.67,2,2.11,2.12,9.58,0,19.07.15,28.71.13,1.82,0,2.12.53,2.12,2.26q-.13,17.16,0,34.33c0,1.78-.45,2.24-2.25,2.24-9.38,0-18.79,0-28.19-.13-2.38,0-2.84.7-2.7,2.84a54.26,54.26,0,0,1,0,7.86c-.16,2,.62,2.48,2.44,2.33s3.73,0,5.59,0c1.19,0,1.61.41,1.61,1.63v36.85c0,1.33-.57,1.5-1.67,1.5H50.88c-1.52,0-1.78-.57-1.78-1.93v-36c0-1.59.55-2.12,2.12-2,2.12.1,4.41,0,6.61,0,1.4,0,1.93-.36,1.93-1.85V76.63c0-1.56-.64-1.82-2-1.78H51.43c-2.12,0-2.2-.55-2.2-2.33V34.14Zm-59.57,4.61H56.45c-1.31,0-2.45-.17-2.43,1.85.1,9.15,0,18.3,0,27.54,0,1.35.46,1.76,1.78,1.71h6.1c2,0,2.52.53,2.5,2.53v73.45c0,1.82-.34,2.62-2.35,2.43s-4.07,0-6.08,0c-1.4,0-2,.34-1.95,1.85v26.67c0,1.48.53,1.89,1.93,1.89h51.58c1.42,0,2-.47,2-1.91v-26.7c0-1.29-.42-1.84-1.76-1.8-1.86,0-3.75-.1-5.59,0s-2.39-.63-2.35-2.45c.1-6,.13-12,0-18,0-2,.63-2.4,2.48-2.38H130.2c1.89,0,2.46-.48,2.44-2.41,0-8-.13-16.08,0-24.13,0-2.23-.74-2.63-2.76-2.61h-28c-1.63,0-2.12-.44-2.12-2.12q.12-11.06,0-22.12c0-1.73.42-2.33,2.25-2.28,6.35.1,12.88,0,19.32,0,2.24,0,5.12-1,6.56.48s.45,4.24.34,6.36.58,2.41,2.44,2.39q14.83-.12,29.66,0c2,0,2.59-.48,2.56-2.52V41.08c0-2.11-.67-2.47-2.58-2.47C143.17,38.77,125.88,38.75,108.55,38.75Z"/><path class="cls-1" d="M237.78,34.14V73c0,1.23-.44,1.63-1.63,1.59h-6.1c-1.65,0-2.12.43-2.12,2.12v64.07c0,1.8.34,2.52,2.35,2.45,2.42,0,5.75-1.14,7,.47s.38,4.7.38,7.14v30c0,1.95-.53,2.35-2.4,2.35q-30.12-.12-60.23,0c-2,0-2.35-.66-2.33-2.46V145.7c0-2.12.62-2.71,2.59-2.52,1.5.15,3.07-.13,4.57,0,2.38.27,3.18-.42,3.14-3-.17-9.49,0-19.07,0-28.47V77.14c0-1.9-.36-2.67-2.48-2.62-2.48,0-5.72,1.16-7.31-.51s-.38-4.69-.4-7.12v-30c0-.93-.13-1.84-.19-2.78Zm-14.64,75V72.55c0-2.12.34-3.16,2.74-2.84a45.3,45.3,0,0,0,5.34,0c1.78,0,2.11-.39,2.11-2q-.12-13.48,0-26.95c0-1.7-.53-2.12-2.11-2.12H180.14c-1.57,0-2.12.3-2.12,2.12V67.74c0,1.48.29,2.11,1.95,2.11s3.75.15,5.57,0c2.39-.29,2.73.72,2.73,2.84v73.82c0,1.46-.44,1.94-1.88,1.86-2-.11-4.07,0-6.1,0-1.47,0-2.12.34-2.12,2v26.44c0,1.36.36,2,1.86,2h51.61c1.21,0,1.84-.3,1.84-1.71V150.13c0-1.38-.48-1.78-1.78-1.74-1.86,0-3.75-.11-5.59,0s-2.73-.44-2.71-2.63C223.21,133.37,223.14,121.27,223.14,109.15Z"/><path class="cls-1" d="M404.56,34.14V180.47a3,3,0,0,1-3,3,3.09,3.09,0,0,1-1.51-.42c-.45-.25-.47-.63-.49-1.06V34.14Z"/><path class="cls-1" d="M588.66,131.4c8.08-6.19,14.26-6,19.52.68,3.66-4.88,8.62-5.91,14.21-4.54,5,1.23,7.57,4.75,7.74,10.81.16,7,0,13.9,0,20.82,0,1.36-.45,1.81-1.76,1.74-2.44-.13-5.55.72-7.14-.46s-.43-4.45-.47-6.78c0-4.66,0-9.33-.15-14,0-3.47-1.61-5.1-4.53-5.38a5.35,5.35,0,0,0-6.19,4.33c0,.09,0,.18,0,.27-.91,4.09-.3,8.26-.42,12.39v8.14c0,1.08-.28,1.61-1.42,1.44h-.26c-2.43-.13-5.57,1-7.09-.42s-.36-4.49-.41-6.85V140.91c0-4.62-1.63-6.63-5.17-6.61a6.14,6.14,0,0,0-6.14,6.14c0,.18,0,.36,0,.54v17.77c0,1.63-.38,2.29-2.12,2.12a43.14,43.14,0,0,0-5.57,0c-1.36,0-1.74-.45-1.72-1.76V129.64c0-1.48.51-2,1.93-1.84h3C588.22,127.84,588.22,127.84,588.66,131.4Z"/><path class="cls-1" d="M433.18,72.27V52.21c0-1.78.28-2.52,2.31-2.5,9.89.12,19.81.1,29.66,0,1.7,0,2.33.34,2.33,2.12,0,6.46,0,6.46-6.35,6.46H445.38c-1.54,0-2.11.42-2,2,.17,2.35-.72,5.42.45,6.88s4.43.43,6.76.47c4.23,0,8.47.13,12.71,0,1.84,0,2.24.57,2.22,2.31-.1,5.83,0,5.83-5.87,5.83H445.17c-1.42,0-1.95.36-1.86,1.84a64.68,64.68,0,0,1,0,7.1c0,1.58.49,2.11,2.12,2h20.08c1.84,0,2.67.25,2.63,2.43-.11,6.23,0,6.23-6.15,6.23H435.81c-1.93,0-2.61-.42-2.57-2.48C433.27,86,433.18,79.13,433.18,72.27Z"/><path class="cls-1" d="M473.39,160.89H462.8c-1.63,0-2.12-1.63-2.86-2.63-1-1.33-1.65-1.59-3.07-.36a16.92,16.92,0,0,1-16.46,3.2,12.25,12.25,0,0,1-9.26-10.1,12.85,12.85,0,0,1,5.38-13.33c1.33-1,3.45-1.65,3.9-2.9s-1.59-2.59-2.33-3.92a10.59,10.59,0,0,1,8.2-15.72,16.42,16.42,0,0,1,6.05.17c4.24,1,7.55,3.24,8.48,7.71a11.6,11.6,0,0,1-4.6,12.35c-.89.72-2.71.87-2.56,2.25.13,1,1.33,1.86,2.12,2.79l3,3.63c.3-.58.49-1,.77-1.47.72-1.1,0-3.19,1.48-3.47a32.39,32.39,0,0,1,6.82,0c1,0,.45.85.38,1.36a16.72,16.72,0,0,1-2.9,8c-1.12,1.55-.72,2.44.36,3.65C468.16,154.7,470.55,157.56,473.39,160.89Zm-26.69-6.74a9.58,9.58,0,0,0,5.78-2.81c.89-.81.89-1.36,0-2.25-1.88-2.12-3.77-4.36-5.46-6.67-1-1.36-1.89-1.4-3.1-.49a16.49,16.49,0,0,0-2.35,1.91,5.55,5.55,0,0,0-1.57,6.35A6.8,6.8,0,0,0,446.7,154.15Zm6.35-28.62a4.23,4.23,0,0,0-3.85-4.45,3.91,3.91,0,0,0-4,3.88.56.56,0,0,0,0,.13c0,2,2.45,6.25,3.62,6.22,1.61,0,4.13-3.51,4.15-5.76Z"/><path class="cls-1" d="M812.9,131.34c-.91-3.54,1-3.61,3.45-3.54,5.49.15,5.51,0,5.51,5.63v23.88c0,10-4,14.64-13.82,15.95a20.47,20.47,0,0,1-11.2-1.4,10.69,10.69,0,0,1-6.61-7.5c-.36-1.48.1-1.77,1.44-1.73h6.08a1.89,1.89,0,0,1,2,1.18c1.65,3,4.47,3.94,8.3,3.08a6.52,6.52,0,0,0,4.88-6.11c.1-1.58,0-3.19,0-5.21a13,13,0,0,1-12,4.24,12,12,0,0,1-10.17-7.35,21.47,21.47,0,0,1-.26-17C794.15,126,807.07,124.2,812.9,131.34Zm0,11.86a11.09,11.09,0,0,0-.81-4.62,6.93,6.93,0,0,0-6.52-4.64,6.74,6.74,0,0,0-6.36,4.51,13.25,13.25,0,0,0,.3,10.6,6.35,6.35,0,0,0,7.94,3.64C811,151.72,812.9,148.52,812.9,143.2Z"/><path class="cls-1" d="M534.17,89.66a13.06,13.06,0,0,1-15.06,3.8c-5.66-1.83-8-6.53-8.73-12a21.25,21.25,0,0,1,2-13.07c4.73-9,17.74-9,21.44-2.52.13,0,.36-.15.36-.23.22-3.46.19-3.46,3.75-3.46,5,0,5,0,5,5,0,8.22-.27,16.47,0,24.66.42,10.47-5.63,15-13.94,15.79a20.65,20.65,0,0,1-13-2.46,10.23,10.23,0,0,1-4.51-6.08c-.36-1.27-.17-2.12,1.53-1.95a29.86,29.86,0,0,0,3.54,0c2.11,0,3.83-.17,5.21,2.29s4.51,2.24,7.16,1.78A5.89,5.89,0,0,0,533.69,97,22.06,22.06,0,0,0,534.17,89.66ZM519.43,77.88a12.17,12.17,0,0,0,.49,3.84,6.67,6.67,0,0,0,6.35,5.57,7,7,0,0,0,7.25-5.17,12.7,12.7,0,0,0-.81-10.3,6.85,6.85,0,0,0-11.86-.21A10.92,10.92,0,0,0,519.43,77.88Z"/><path class="cls-1" d="M778.77,89.77A11.74,11.74,0,0,1,771,94.15c-8.47.94-14-3.17-15.68-11.52a22.8,22.8,0,0,1,.79-12.25c3.43-9.7,16.29-12.37,22.5-4.7a2.44,2.44,0,0,0,.19-1.91c-.15-1.44.55-1.69,1.8-1.65a42.92,42.92,0,0,0,5.32,0c1.41,0,1.67.53,1.67,1.78V94.39a12.19,12.19,0,0,1-9.85,12.46A21.43,21.43,0,0,1,761,105.28a10.11,10.11,0,0,1-4.79-6.36c-.38-1.38-.27-2.12,1.4-2a27.06,27.06,0,0,0,3.82,0,4.63,4.63,0,0,1,5,2.25c1.66,2.69,4.86,2.41,7.63,1.88a6.35,6.35,0,0,0,4.77-6C778.89,93.58,778.77,91.91,778.77,89.77Zm0-11.46a12.15,12.15,0,0,0-1.53-6.78,7,7,0,0,0-9.61-2.06,6.87,6.87,0,0,0-1.91,1.85,13.3,13.3,0,0,0,.16,13.26,6.1,6.1,0,0,0,4.41,2.65c5,.51,8.5-3,8.54-8.92Z"/><path class="cls-1" d="M529.49,130.85H528a3.53,3.53,0,0,1-4.24-2.52c-2.9-6.57-13.22-7.18-17.71-1.34s-4.56,16.1-.53,21.8a10.82,10.82,0,0,0,11.59,4.45,9.26,9.26,0,0,0,7.54-7.88c.32-1.44.89-2.12,2.5-2a44.35,44.35,0,0,0,6.1,0c1.42,0,1.65.42,1.53,1.76a19.21,19.21,0,0,1-16.23,16.71c-17.37,2.12-28.09-10.93-25.74-27.69,1.5-10.78,7.52-17.24,17-19.34s18.47,1.55,22.54,8.79c.27.51.57,1,.8,1.57C535.47,130.53,535.32,130.85,529.49,130.85Z"/><path class="cls-1" d="M645.76,131.7c4.51-5.28,9.92-5.68,15.51-3.67,6,2.12,8.35,7.33,9.13,13.24a22.14,22.14,0,0,1-1.59,12.42,13.42,13.42,0,0,1-21.74,4.38,7.12,7.12,0,0,0-.86-.57v13.05c0,1.61-.45,2.12-2,1.93-2.33-.21-5.4.93-6.84-.42s-.42-4.5-.42-6.83v-35c0-1.93.53-2.6,2.41-2.37a22.17,22.17,0,0,0,3,0C645.65,127.86,645.65,127.86,645.76,131.7Zm.19,12.71a15.84,15.84,0,0,0,.81,5.46,6.93,6.93,0,0,0,6.86,5,6.61,6.61,0,0,0,6.89-5,15.41,15.41,0,0,0-.49-11.83,7.1,7.1,0,0,0-13,.32,15.91,15.91,0,0,0-1.08,5.91Z"/><path class="cls-1" d="M482.48,66.3a12.89,12.89,0,0,1,12.92-4.77A9.31,9.31,0,0,1,504.11,70c1,8,.26,16.06.47,24.11,0,.89-.38,1.21-1.23,1.17h-.26c-7.88.65-7.88.65-7.9-7.21V74.62c-.15-3.73-1.78-5.66-4.66-5.93a6,6,0,0,0-7.18,4.56,1.55,1.55,0,0,0,0,.21,19.4,19.4,0,0,0-.49,5.53V93.22c0,1.76-.55,2.12-2.12,2.12a52.12,52.12,0,0,0-5.59,0c-1.38,0-1.7-.46-1.68-1.76V64.09c0-1.61.53-2.12,2.12-1.93h2.78C482.14,62.14,482.14,62.14,482.48,66.3Z"/><path class="cls-1" d="M697.71,157.06A12.85,12.85,0,0,1,684,161.42a9.28,9.28,0,0,1-7.88-9c-.78-7.69-.23-15.41-.4-23.1,0-1.31.61-1.46,1.71-1.52,7.67-.38,7.65-.4,7.67,7.27,0,4.23,0,8.62.11,12.94s1.9,6.36,5.48,6.48a6,6,0,0,0,6.72-6.35c.25-5.57.13-11.17.19-16.76,0-4.24-.55-3.56,3.67-3.58,5.67,0,5.7,0,5.7,5.63V158.6c0,1.7-.34,2.52-2.12,2.27a21.49,21.49,0,0,0-2.78,0C698.22,160.89,698.22,160.89,697.71,157.06Z"/><path class="cls-1" d="M634.72,85c-2.31,7.88-8.07,11.61-17,11.14a15.74,15.74,0,0,1-14.83-12.94,20.11,20.11,0,0,1,1.28-12.41,16.6,16.6,0,0,1,19.06-9.11c6.44,1.39,11.65,7.75,12.08,15.33v.77c0,3.3,0,3.3-3.35,3.3H614c-2.12,0-2.43.87-2,2.57a6.66,6.66,0,0,0,5,5.19,7.92,7.92,0,0,0,8.48-2.12A4.86,4.86,0,0,1,630,84.92C631.46,85,633,85,634.72,85Zm-8.79-9.79c-.49-4.23-2.41-6.46-5.89-6.84A7.22,7.22,0,0,0,612.16,73c-.49,1.44-.45,2.33,1.59,2.27C617.8,75.09,621.86,75.19,625.93,75.19Z"/><path class="cls-1" d="M660.06,81.06H649.89c-1.29,0-1.8.26-1.48,1.76a6.77,6.77,0,0,0,4.81,5.91,7.92,7.92,0,0,0,8.66-2A4.44,4.44,0,0,1,666.12,85h.76c1.38.15,3.46-.65,4,.38s-.79,2.78-1.59,4.07C664.57,97,652,98.62,644.79,92.59c-8.33-6.93-7.8-22.23,1.14-28.24a16.15,16.15,0,0,1,18-.91C670.06,67,671.84,73,672,79.66c0,1.42-.74,1.44-1.76,1.42C666.84,81,663.45,81.06,660.06,81.06Zm-4.81-5.87h5.83c1.18,0,1.46-.4,1.25-1.48a6.36,6.36,0,0,0-6.65-5.38,6.93,6.93,0,0,0-7.23,5.44c-.3,1.32.21,1.42,1.23,1.4Z"/><path class="cls-1" d="M556.78,161.78c-10.59,0-17.33-6.78-17.33-17.31s6.76-17.43,17.2-17.41,17.18,6.8,17.18,17.43S567.12,161.76,556.78,161.78Zm-7.94-17.41a21.24,21.24,0,0,0,.12,2.77c.53,4.47,3.07,7.27,6.82,7.59A7.12,7.12,0,0,0,564,149a.36.36,0,0,1,0-.11,15.91,15.91,0,0,0-.15-9.22,7.23,7.23,0,0,0-7.16-5.68,7.35,7.35,0,0,0-7.27,5.91A20.27,20.27,0,0,0,548.84,144.37Z"/><path class="cls-1" d="M575.4,66.25a12.89,12.89,0,0,1,12.71-4.74c5.58.82,8.88,4,9.09,9.76.28,7.52.15,15.07.24,22.61,0,1.12-.39,1.57-1.47,1.42h-.25c-2.44-.15-5.55,1-7.1-.45s-.4-4.49-.44-6.82c0-4.4.1-8.81,0-13.22-.21-5.19-4.24-7.6-8.77-5.55A6.36,6.36,0,0,0,576,75a171.18,171.18,0,0,0-.38,17.69c0,1.87-.29,2.8-2.43,2.57s-5.11.68-6.36-.45-.45-4.23-.47-6.54V64.16c0-1.68.47-2.29,2.12-2.12a25.86,25.86,0,0,0,3.05,0C575.08,62.14,575.08,62.14,575.4,66.25Z"/><path class="cls-1" d="M727.18,66.36a13.05,13.05,0,0,1,13.9-4.7,9.17,9.17,0,0,1,7.73,8.47c1.06,7.92.23,15.89.49,23.83,0,.83-.22,1.32-1.13,1.28h-.51c-2.43,0-5.52.76-7.13-.43s-.39-4.43-.47-6.76c-.19-4.72.3-9.47-.3-14.19-.44-3.39-2-5-4.81-5.23a6,6,0,0,0-7,4.49,32.64,32.64,0,0,0-.55,8.6V93.39c0,1.42-.38,2-1.84,1.87a47,47,0,0,0-5.57,0c-1.4,0-1.91-.3-1.89-1.8V64c0-1.61.51-2.12,2.12-1.91h2.54C726.71,62.14,726.71,62.14,727.18,66.36Z"/><path class="cls-1" d="M761.25,132c3.85-4.93,8.94-5.82,14.57-4.45,4.77,1.19,7.25,4.56,7.42,10.6.21,7.1,0,14.21,0,21.33,0,1.34-.58,1.53-1.68,1.49-2.43,0-5.55.76-7.12-.45s-.42-4.43-.46-6.76V141.31c-.15-5.69-3.48-8.19-8.48-6.48a5.69,5.69,0,0,0-3.7,4.7c-.94,4.45-.32,9-.47,13.44v6.61c0,1.12-.36,1.46-1.46,1.42h-6.36c-1.16,0-1.42-.41-1.42-1.47v-30c0-1.17.26-1.78,1.55-1.63h2.54C760.67,127.84,760.67,127.84,761.25,132Z"/><path class="cls-1" d="M715.89,144.7v-8.64c0-1.63-.53-2-2.12-1.95-1.08,0-2.84.74-3.2-.51a9.75,9.75,0,0,1,0-5.25c.3-1.08,2-.53,3-.45,1.83.15,2.38-.48,2.23-2.26s0-3.9,0-5.83c0-1.25.19-1.88,1.63-1.8a56.42,56.42,0,0,0,6.1,0c1.4,0,1.72.49,1.68,1.76v6.35c0,1.3.29,1.93,1.69,1.74h1.76c2.48-.4,3.47.36,3.26,3.09-.32,3.65.34,3.2-3.35,3.22-3.32,0-3.32,0-3.32,3.35V149.7c0,4.05.74,4.67,4.43,4.24,1.94-.21,2.11.34,2.11,2.12,0,5.28,0,5.28-5.21,5.28h-3.3c-5-.49-7.42-3.1-7.48-8.12C715.84,150.3,715.89,147.5,715.89,144.7Z"/><path class="cls-1" d="M685.8,67.88a12.6,12.6,0,0,1,9.6-6.56c2-.26,3.39,0,3,2.58a1.46,1.46,0,0,0,0,.51,13.78,13.78,0,0,1-.11,5c-.85,1.84-2.92.19-4.49.51-4.85,1-7.42,4-7.5,9.85-.09,4.58-.09,9.14,0,13.71,0,1.46-.38,1.9-1.82,1.82-2.36-.15-5.45.78-6.89-.4s-.44-4.43-.47-6.78c0-7.61.13-15.24,0-22.84,0-2.78.83-3.58,3.33-3.16h.15C685.63,62.14,685.63,62.14,685.8,67.88Z"/><path class="cls-1" d="M559.49,78.9V93.37c0,1.61-.49,2.12-2.12,1.95-2.35-.15-5.4.72-6.88-.44s-.45-4.43-.47-6.76V64.24c0-1.67.45-2.27,2.12-2.12a31.74,31.74,0,0,0,5.34,0c1.63-.13,2,.55,1.95,2.12C559.43,69.07,559.49,74,559.49,78.9Z"/><path class="cls-1" d="M702,78.9v-15c0-1.44.4-1.9,1.84-1.82,2.33.15,5.4-.74,6.84.43s.47,4.42.49,6.75V93.14c0,1.8-.46,2.35-2.24,2.12a36.33,36.33,0,0,0-5.32,0c-1.36,0-1.7-.41-1.68-1.72C702,88.71,702,83.82,702,78.9Z"/><path class="cls-1" d="M736.12,144.26V129.81c0-1.55.44-2.12,2-2,1.95.13,3.9,0,5.83,0,1.1,0,1.48.38,1.48,1.46v30.17c0,1.12-.38,1.57-1.46,1.42h-.26c-2.43-.13-5.53,1-7.09-.45s-.39-4.47-.45-6.8C736.06,150.51,736.12,147.39,736.12,144.26Z"/><path class="cls-1" d="M554.68,57.38c-4.55,0-4.38,0-4.64-4.71-.12-2.54.74-3.32,3.1-2.92a5.68,5.68,0,0,0,1,0c5.41,0,5.34,0,5.38,5.4,0,1.82-.57,2.44-2.31,2.23A17.94,17.94,0,0,0,554.68,57.38Z"/><path class="cls-1" d="M740.86,115.36c4.5,0,4.5,0,4.5,4.41,0,3.3,0,3.3-3.35,3.3h-.51c-5.47,0-5.38,0-5.44-5.55,0-1.82.55-2.39,2.28-2.12A19.24,19.24,0,0,0,740.86,115.36Z"/><path class="cls-1" d="M706.59,57.38c-4.6,0-4.41,0-4.67-4.58-.14-2.61.66-3.5,3.14-3h.76c1.72.17,4.24-.8,5,.4.87,1.66.3,4.07.36,6.17,0,.95-.55,1.06-1.31,1Z"/></svg>