<svg id="Layer_1" data-name="Layer 1" xmlns="http://www.w3.org/2000/svg" viewBox="0 0 1641.8 351"><defs><style>.cls-1{fill:#fff;}</style></defs><title>FIUCEC</title><path class="cls-1" d="M683.906,15.579c0,27-.233,53.646,0,80.48,0,4.483-1.338,5.758-5.757,5.609-5.142,0-11.983-2.38-14.873,1.041s-.956,9.582-.956,14.872v149.04a11.2,11.2,0,0,1-3.335,8.5c-16.657,17.251-33.038,34.758-49.631,52.392a13.7,13.7,0,0,1-11.175,4.78q-50.991-.276-102.087,0a11.854,11.854,0,0,1-9.667-4.249c-16.656-18.016-33.632-35.566-50.607-53.115a10.98,10.98,0,0,1-3.421-8.5V107.617c0-5.036-1.381-6.374-6.246-6.162s-11.176,2.252-13.916-1-.808-9.008-.808-13.491v-71.3h129.6V92.851c0,8.5,0,8.689-8.774,8.732-3.017,0-4.5.446-4.5,4.058v137.7c0,3.548,1.529,4.036,4.5,3.994,9.9,0,19.8-.276,29.744,0,4.5,0,5.312-1.3,5.269-5.4V111.4c0-9.624,0-9.9-9.369-9.581-4.5,0-5.716-1.169-5.673-5.673V15.707ZM442.744,180.851v84.262a10.62,10.62,0,0,0,3.144,8.137q21.863,22.776,43.576,45.742a9.369,9.369,0,0,0,7.563,3.187H598.519a8.665,8.665,0,0,0,7.032-3.017c14.086-14.872,28.13-29.871,42.492-44.51a15.084,15.084,0,0,0,4.483-11.791V96.016c0-3.675.914-5.12,4.78-4.8s7.925,0,11.877,0c3.208,0,4.5-.723,4.5-4.249q-.255-28.639,0-57.258c0-3.569-1.126-4.5-4.5-4.5H569.858c-3.654,0-4.5,1.211-4.5,4.5V83.715c0,7.2,0,7.521,6.969,7.16,4.5,0,5.269,1.487,5.269,5.524V247.054a9.688,9.688,0,0,1-8.966,10.346,8.76,8.76,0,0,1-1.3,0H528.981a9.878,9.878,0,0,1-11.048-8.5,10.093,10.093,0,0,1,0-2.656V98.481c0-7.2,0-7.521,6.969-7.16,4.5.276,5.269-1.615,5.226-5.524V38.249c0-12.875,0-12.875-12.875-12.875h-90c-2.295,0-5.185-1.02-5.185,3.293V88.155c0,2.337.808,3.187,3.166,3.1,4.483,0,8.626.319,12.918,0s5.354,1.339,5.311,5.439C442.638,124.677,442.744,152.764,442.744,180.851Z"/><path class="cls-1" d="M252.869,15.579c0,1.976-.446,3.91-.446,5.885v94.524c0,4.249-1.084,5.439-5.4,5.4h-84.75c-4.5,0-5.354-1.572-5.311-5.566s2.124-10.623-1-13.513-9.008-.765-13.491-.85H121.4c-2.826,0-3.654.935-3.59,3.74v27.619c0,3.825,1.423,4.25,4.483,4.5,20.353,0,40.516.319,61,.277,3.866,0,4.5,1.126,4.5,4.8q-.276,36.459,0,72.938c0,3.781-.956,4.759-4.781,4.759-19.928,0-39.921,0-59.892-.277-5.056,0-6.034,1.488-5.736,6.034a115.49,115.49,0,0,1,0,16.7c-.34,4.249,1.317,5.269,5.184,4.95s7.924,0,11.876,0c2.528,0,3.421.871,3.421,3.463v78.291c0,2.826-1.211,3.187-3.548,3.187H3.782c-3.23,0-3.782-1.211-3.782-4.1V251.855c0-3.378,1.169-4.5,4.5-4.249,4.5.213,9.37,0,14.044,0,2.974,0,4.1-.765,4.1-3.93V105.853c0-3.314-1.36-3.867-4.249-3.782H4.95c-4.5,0-4.674-1.168-4.674-4.95V15.579ZM126.307,25.374H15.616c-2.783,0-5.206-.361-5.163,3.93.212,19.44,0,38.88,0,58.511,0,2.869.977,3.74,3.782,3.634H27.2c4.249,0,5.354,1.126,5.311,5.375V252.875c0,3.867-.722,5.566-4.993,5.163s-8.647,0-12.917,0c-2.975,0-4.249.722-4.143,3.93v56.663c0,3.145,1.126,4.016,4.1,4.016H124.14c3.017,0,4.249-1,4.249-4.058V261.862c0-2.741-.892-3.909-3.739-3.824-3.952,0-7.967-.213-11.877,0s-5.077-1.339-4.992-5.205c.212-12.748.276-25.5,0-38.243,0-4.249,1.338-5.1,5.269-5.057H172.3c4.016,0,5.227-1.019,5.184-5.12,0-17-.276-34.163,0-51.266,0-4.738-1.572-5.588-5.863-5.546H112.136c-3.463,0-4.5-.934-4.5-4.5q.255-23.5,0-47c0-3.675.892-4.95,4.78-4.844,13.491.213,27.365,0,41.047,0,4.759,0,10.878-2.124,13.938,1.02s.956,9.008.722,13.512,1.232,5.121,5.184,5.078q31.507-.255,63.015,0c4.25,0,5.5-1.02,5.439-5.354V30.324c0-4.483-1.423-5.248-5.481-5.248C199.86,25.416,163.126,25.374,126.307,25.374Z"/><path class="cls-1" d="M400.868,15.579V98.141c0,2.613-.935,3.463-3.463,3.378h-12.96c-3.506,0-4.5.914-4.5,4.5V242.146c0,3.824.722,5.354,4.993,5.205,5.141,0,12.216-2.422,14.872,1s.807,9.985.807,15.169v63.738c0,4.143-1.126,4.993-5.1,4.993q-63.993-.255-127.964,0c-4.249,0-4.993-1.4-4.95-5.227V252.6c0-4.5,1.317-5.758,5.5-5.354,3.187.319,6.523-.276,9.71,0,5.056.574,6.756-.892,6.671-6.374-.361-20.162,0-40.516,0-60.487V106.937c0-4.037-.765-5.673-5.269-5.567-5.269,0-12.153,2.465-15.531-1.083s-.807-9.965-.85-15.127V21.422c0-1.976-.276-3.909-.4-5.906Zm-31.1,159.345V97.185c0-4.5.722-6.714,5.821-6.034a96.3,96.3,0,0,0,11.346,0c3.782,0,4.483-.828,4.483-4.249q-.255-28.64,0-57.258c0-3.612-1.126-4.5-4.483-4.5H278.407c-3.336,0-4.5.637-4.5,4.5V86.966c0,3.144.617,4.483,4.143,4.483s7.968.318,11.834,0c5.078-.617,5.8,1.529,5.8,6.033V254.32c0,3.1-.935,4.121-4,3.951-4.249-.233-8.647,0-12.96,0-3.123,0-4.5.723-4.5,4.25V318.7c0,2.889.765,4.249,3.952,4.249h109.65c2.571,0,3.909-.637,3.909-3.633v-57.3c0-2.932-1.019-3.782-3.781-3.7-3.952,0-7.968-.234-11.877,0s-5.8-.935-5.758-5.588c-.4-26.323-.552-52.031-.552-77.781Z"/><path class="cls-1" d="M755.208,15.579V326.471a6.374,6.374,0,0,1-6.374,6.374,6.557,6.557,0,0,1-3.208-.893c-.956-.531-1-1.338-1.041-2.252V15.579Z"/><path class="cls-1" d="M1146.345,222.217c17.167-13.151,30.3-12.747,41.472,1.445,7.776-10.368,18.314-12.556,30.191-9.646,10.623,2.613,16.083,10.092,16.444,22.967.34,14.872,0,29.532,0,44.234,0,2.89-.956,3.846-3.739,3.7-5.184-.276-11.792,1.53-15.17-.977s-.914-9.455-1-14.405c0-9.9,0-19.823-.318-29.744,0-7.373-3.421-10.836-9.625-11.431a11.366,11.366,0,0,0-13.151,9.2v.573c-1.933,8.69-.637,17.549-.892,26.324v17.294c0,2.3-.6,3.421-3.017,3.06h-.553c-5.162-.277-11.834,2.124-15.063-.893s-.765-9.539-.871-14.553v-26.94c0-9.816-3.463-14.086-10.984-14.044a13.045,13.045,0,0,0-13.045,13.045h0v38.9c0,3.463-.808,4.865-4.5,4.5a91.627,91.627,0,0,0-11.834,0c-2.89,0-3.7-.956-3.655-3.739V218.478c0-3.144,1.084-4.249,4.1-3.909h6.374C1145.41,214.654,1145.41,214.654,1146.345,222.217Z"/><path class="cls-1" d="M816.013,96.59V53.971c0-3.782.595-5.354,4.908-5.312,21.012.255,42.088.213,63.016,0,3.611,0,4.95.723,4.95,4.5,0,13.725,0,13.725-13.491,13.725H841.933c-3.271,0-4.482.893-4.249,4.249.361,4.993-1.529,11.516.956,14.618s9.412.913,14.363,1c8.987,0,18,.276,27,0,3.909,0,4.759,1.211,4.717,4.908-.213,12.386,0,12.386-12.472,12.386H841.487c-3.017,0-4.143.765-3.951,3.91a137.5,137.5,0,0,1,0,15.084c0,3.357,1.041,4.483,4.5,4.249H884.7c3.909,0,5.672.532,5.587,5.163-.233,13.236,0,13.236-13.066,13.236H821.6c-4.1,0-5.545-.892-5.46-5.269C816.205,125.761,816.013,111.165,816.013,96.59Z"/><path class="cls-1" d="M901.443,284.871h-22.5c-3.463,0-4.5-3.463-6.076-5.587-2.125-2.826-3.506-3.378-6.523-.765a35.95,35.95,0,0,1-34.971,6.8A26.029,26.029,0,0,1,811.7,263.859a27.3,27.3,0,0,1,11.431-28.321c2.825-2.124,7.33-3.505,8.286-6.161s-3.378-5.5-4.951-8.328a22.5,22.5,0,0,1,17.422-33.4,34.885,34.885,0,0,1,12.854.361c9.008,2.125,16.041,6.884,18.016,16.381a24.645,24.645,0,0,1-9.773,26.239c-1.891,1.529-5.757,1.848-5.439,4.78.277,2.124,2.826,3.952,4.5,5.927l6.374,7.713c.638-1.233,1.041-2.125,1.636-3.123,1.53-2.337,0-6.778,3.145-7.373a68.8,68.8,0,0,1,14.489,0c2.125,0,.956,1.806.808,2.89a35.517,35.517,0,0,1-6.162,17c-2.379,3.294-1.529,5.184.765,7.755C890.332,271.72,895.409,277.8,901.443,284.871Zm-56.7-14.319a20.358,20.358,0,0,0,12.28-5.97c1.891-1.721,1.891-2.89,0-4.781-3.994-4.5-8.01-9.263-11.6-14.171-2.125-2.889-4.016-2.974-6.586-1.041a35,35,0,0,0-4.993,4.058,11.791,11.791,0,0,0-3.336,13.491A14.449,14.449,0,0,0,844.738,270.552Zm13.491-60.806a8.987,8.987,0,0,0-8.18-9.455,8.308,8.308,0,0,0-8.5,8.114c0,.043,0,.086,0,.13a1.158,1.158,0,0,0,0,.276c0,4.249,5.2,13.279,7.691,13.215,3.421,0,8.775-7.457,8.817-12.238Z"/><path class="cls-1" d="M1622.764,222.09c-1.934-7.521,2.124-7.67,7.33-7.521,11.664.318,11.706,0,11.706,11.961v50.735c0,21.246-8.5,31.1-29.362,33.888a43.489,43.489,0,0,1-23.8-2.975,22.709,22.709,0,0,1-14.044-15.934c-.765-3.145.213-3.761,3.06-3.676h12.917a4.016,4.016,0,0,1,4.249,2.507c3.506,6.374,9.5,8.371,17.634,6.544a13.851,13.851,0,0,0,10.368-12.981c.213-3.357,0-6.778,0-11.069a27.62,27.62,0,0,1-25.495,9.008,25.5,25.5,0,0,1-21.607-15.616,45.615,45.615,0,0,1-.552-36.118C1582.928,210.744,1610.377,206.92,1622.764,222.09Zm0,25.2a23.568,23.568,0,0,0-1.721-9.815,14.722,14.722,0,0,0-13.853-9.858,14.318,14.318,0,0,0-13.512,9.582,28.149,28.149,0,0,0,.637,22.52,13.492,13.492,0,0,0,16.87,7.734C1618.727,265.389,1622.764,258.59,1622.764,247.287Z"/><path class="cls-1" d="M1030.576,133.537a27.746,27.746,0,0,1-32,8.073c-12.026-3.888-17-13.873-18.548-25.5a45.145,45.145,0,0,1,4.249-27.768c10.049-19.122,37.69-19.122,45.551-5.354.277,0,.765-.319.765-.489.468-7.351.4-7.351,7.967-7.351,10.623,0,10.623,0,10.623,10.623,0,17.464-.573,34.992,0,52.392.893,22.245-11.961,31.869-29.616,33.548a43.876,43.876,0,0,1-27.62-5.227,21.737,21.737,0,0,1-9.582-12.917c-.765-2.7-.361-4.5,3.251-4.143a63.755,63.755,0,0,0,7.521,0c4.483,0,8.137-.362,11.069,4.865s9.582,4.759,15.212,3.782a12.514,12.514,0,0,0,10.134-8.945A46.879,46.879,0,0,0,1030.576,133.537Zm-31.317-25.028a25.839,25.839,0,0,0,1.042,8.158,14.169,14.169,0,0,0,13.491,11.834,14.872,14.872,0,0,0,15.4-10.984,26.983,26.983,0,0,0-1.721-21.883,14.554,14.554,0,0,0-25.2-.446A23.21,23.21,0,0,0,999.259,108.509Z"/><path class="cls-1" d="M1550.251,133.77a24.94,24.94,0,0,1-16.508,9.306c-17.995,2-29.744-6.735-33.313-24.475a48.436,48.436,0,0,1,1.678-26.026c7.287-20.609,34.61-26.282,47.8-9.986a5.183,5.183,0,0,0,.4-4.058c-.319-3.059,1.168-3.591,3.824-3.506a91.083,91.083,0,0,0,11.3,0c3,0,3.548,1.126,3.548,3.782v64.779a25.9,25.9,0,0,1-20.927,26.472,45.529,45.529,0,0,1-35.566-3.335,21.481,21.481,0,0,1-10.176-13.513c-.808-2.932-.574-4.5,2.974-4.249a57.549,57.549,0,0,0,8.116,0,9.836,9.836,0,0,1,10.623,4.781c3.527,5.715,10.325,5.12,16.211,3.994a13.493,13.493,0,0,0,10.134-12.748C1550.506,141.865,1550.251,138.317,1550.251,133.77Zm0-24.347a25.807,25.807,0,0,0-3.25-14.4,14.873,14.873,0,0,0-20.418-4.377,14.618,14.618,0,0,0-4.058,3.931,28.259,28.259,0,0,0,.34,28.172,12.96,12.96,0,0,0,9.37,5.63c10.623,1.083,18.059-6.374,18.144-18.951Z"/><path class="cls-1" d="M1020.633,221.049h-3.166a7.5,7.5,0,0,1-9.008-5.354c-6.161-13.959-28.087-15.255-37.627-2.847s-9.688,34.206-1.126,46.316a22.989,22.989,0,0,0,24.625,9.454,19.674,19.674,0,0,0,16.019-16.742c.68-3.059,1.891-4.5,5.311-4.249a94.05,94.05,0,0,0,12.96,0c3.017,0,3.506.893,3.251,3.74a40.812,40.812,0,0,1-34.482,35.5c-36.9,4.5-59.68-23.221-54.687-58.829,3.187-22.9,15.977-36.628,36.118-41.09s39.241,3.293,47.888,18.675a35.048,35.048,0,0,1,1.7,3.336C1033.338,220.369,1033.019,221.049,1020.633,221.049Z"/><path class="cls-1" d="M1267.659,222.855c9.582-11.218,21.076-12.068,32.953-7.8,12.747,4.5,17.74,15.574,19.4,28.13a47.028,47.028,0,0,1-3.378,26.387,28.513,28.513,0,0,1-46.189,9.306,15.136,15.136,0,0,0-1.827-1.211V305.4c0,3.421-.956,4.5-4.249,4.1-4.95-.446-11.473,1.976-14.532-.892s-.892-9.561-.892-14.511V219.731c0-4.1,1.126-5.524,5.12-5.035a47.077,47.077,0,0,0,6.374,0C1267.426,214.7,1267.426,214.7,1267.659,222.855Zm.4,27a33.646,33.646,0,0,0,1.721,11.6,14.722,14.722,0,0,0,14.575,10.623A14.043,14.043,0,0,0,1299,261.458a32.74,32.74,0,0,0-1.041-25.134,15.085,15.085,0,0,0-27.62.68,33.8,33.8,0,0,0-2.294,12.557Z"/><path class="cls-1" d="M920.756,83.906a27.385,27.385,0,0,1,27.45-10.134,19.781,19.781,0,0,1,18.5,17.995c2.124,17,.552,34.121,1,51.224,0,1.891-.807,2.571-2.613,2.486h-.552c-16.742,1.381-16.742,1.381-16.785-15.318V101.583c-.318-7.925-3.781-12.025-9.9-12.6a12.747,12.747,0,0,0-15.241,9.628l-.014.06a3.319,3.319,0,0,0,0,.446,41.235,41.235,0,0,0-1.041,11.749V141.1c0,3.74-1.168,4.5-4.5,4.5a110.96,110.96,0,0,0-11.876,0c-2.932,0-3.612-.977-3.57-3.739V79.211c0-3.421,1.126-4.5,4.5-4.1h5.907C920.033,75.068,920.033,75.068,920.756,83.906Z"/><path class="cls-1" d="M1378.032,276.734A27.3,27.3,0,0,1,1348.9,286a19.715,19.715,0,0,1-16.742-19.121c-1.657-16.338-.489-32.74-.85-49.078,0-2.783,1.3-3.1,3.633-3.229,16.3-.808,16.253-.85,16.3,15.445,0,8.987,0,18.314.233,27.493s4.037,13.512,11.643,13.767a12.748,12.748,0,0,0,14.277-13.491c.531-11.834.276-23.732.4-35.608,0-9.009-1.169-7.564,7.8-7.606,12.047,0,12.11,0,12.11,11.961v53.476c0,3.612-.722,5.354-4.5,4.823a45.466,45.466,0,0,0-5.906,0C1379.115,284.871,1379.115,284.871,1378.032,276.734Z"/><path class="cls-1" d="M1244.2,123.636c-4.908,16.742-17.146,24.667-36.118,23.668a33.44,33.44,0,0,1-31.508-27.492,42.726,42.726,0,0,1,2.719-26.366,35.268,35.268,0,0,1,40.495-19.355c13.683,2.953,24.752,16.465,25.665,32.57V108.3c0,7.011,0,7.011-7.117,7.011h-38.158c-4.5,0-5.163,1.848-4.249,5.46a14.151,14.151,0,0,0,10.623,11.027,16.827,16.827,0,0,0,18.016-4.5,10.329,10.329,0,0,1,9.6-3.824C1237.278,123.636,1240.549,123.636,1244.2,123.636Zm-18.675-20.8c-1.041-8.987-5.121-13.725-12.514-14.532a15.34,15.34,0,0,0-16.742,9.837c-1.041,3.059-.956,4.95,3.378,4.823,8.605-.383,17.23-.17,25.878-.17Z"/><path class="cls-1" d="M1298.041,115.265h-21.607c-2.741,0-3.824.553-3.145,3.739a14.386,14.386,0,0,0,10.22,12.557,16.829,16.829,0,0,0,18.4-4.249,9.432,9.432,0,0,1,9.008-3.676h1.615c2.932.319,7.351-1.381,8.5.807s-1.678,5.907-3.378,8.648c-10.028,16.04-36.734,19.482-52.053,6.671-17.7-14.724-16.571-47.23,2.422-60a34.312,34.312,0,0,1,38.243-1.933c13.024,7.563,16.806,20.311,17.146,34.461,0,3.017-1.573,3.059-3.74,3.017C1312.446,115.138,1305.243,115.265,1298.041,115.265Zm-10.219-12.471h12.386c2.507,0,3.1-.85,2.656-3.145a13.513,13.513,0,0,0-14.129-11.43,14.723,14.723,0,0,0-15.361,11.558c-.637,2.8.447,3.017,2.614,2.974Z"/><path class="cls-1" d="M1078.613,286.762c-22.5,0-36.819-14.4-36.819-36.776s14.362-37.032,36.543-36.99,36.5,14.448,36.5,37.032S1100.581,286.72,1078.613,286.762Zm-16.869-36.989a45.186,45.186,0,0,0,.255,5.885c1.126,9.5,6.522,15.446,14.489,16.126a15.128,15.128,0,0,0,17.465-12.174.765.765,0,0,1,0-.234,33.812,33.812,0,0,0-.319-19.588,15.361,15.361,0,0,0-15.212-12.068,15.615,15.615,0,0,0-15.446,12.556A43.019,43.019,0,0,0,1061.744,249.773Z"/><path class="cls-1" d="M1118.173,83.8a27.386,27.386,0,0,1,27-10.071c11.855,1.743,18.866,8.5,19.312,20.736.6,15.977.319,32.018.51,48.037,0,2.38-.829,3.336-3.123,3.017h-.531c-5.184-.318-11.792,2.125-15.085-.956s-.85-9.539-.935-14.489c0-9.349.213-18.718,0-28.087-.446-11.027-9.008-16.147-18.632-11.792a13.511,13.511,0,0,0-7.245,12.2,363.644,363.644,0,0,0-.808,37.584c0,3.973-.616,5.949-5.162,5.46s-10.857,1.445-13.513-.956-.956-8.987-1-13.894V79.36c0-3.57,1-4.866,4.5-4.5a54.723,54.723,0,0,0,6.48,0C1117.493,75.068,1117.493,75.068,1118.173,83.8Z"/><path class="cls-1" d="M1440.644,84.034a27.724,27.724,0,0,1,29.531-9.986,19.482,19.482,0,0,1,16.423,18c2.253,16.827.489,33.76,1.042,50.629,0,1.764-.468,2.805-2.4,2.72h-1.084c-5.163,0-11.728,1.615-15.148-.914s-.829-9.412-1-14.362c-.4-10.028.638-20.12-.637-30.148-.935-7.2-4.249-10.623-10.219-11.112a12.748,12.748,0,0,0-14.872,9.54,69.3,69.3,0,0,0-1.169,18.271v24.794c0,3.017-.807,4.25-3.909,3.973a99.834,99.834,0,0,0-11.834,0c-2.975,0-4.058-.637-4.016-3.824V79.02c0-3.421,1.084-4.5,4.5-4.058h5.4C1439.645,75.068,1439.645,75.068,1440.644,84.034Z"/><path class="cls-1" d="M1513.028,223.492c8.18-10.474,18.994-12.365,30.956-9.454,10.134,2.528,15.4,9.688,15.764,22.52.446,15.085,0,30.191,0,45.318,0,2.847-1.232,3.25-3.569,3.165-5.163,0-11.792,1.615-15.127-.956s-.893-9.412-.978-14.362V243.272c-.318-12.089-7.393-17.4-18.016-13.767a12.087,12.087,0,0,0-7.861,9.985c-2,9.455-.68,19.121-1,28.555v14.043c0,2.38-.764,3.1-3.1,3.017h-13.512c-2.464,0-3.017-.871-3.017-3.123V218.244c0-2.486.553-3.782,3.293-3.463h5.4C1511.8,214.654,1511.8,214.654,1513.028,223.492Z"/><path class="cls-1" d="M1416.657,250.474V232.118c0-3.463-1.126-4.249-4.5-4.143-2.3,0-6.034,1.572-6.8-1.084a20.711,20.711,0,0,1,0-11.154c.637-2.294,4.249-1.126,6.374-.956,3.888.319,5.056-1.02,4.738-4.8s0-8.286,0-12.387c0-2.656.4-3.994,3.463-3.824a119.719,119.719,0,0,0,12.96,0c2.974,0,3.654,1.041,3.569,3.739V211c0,2.762.616,4.1,3.591,3.7h3.739c5.269-.85,7.372.765,6.926,6.565-.68,7.755.722,6.8-7.117,6.841-7.054,0-7.054,0-7.054,7.118V261.1c0,8.605,1.572,9.922,9.412,9.008,4.122-.446,4.483.723,4.483,4.5,0,11.217,0,11.217-11.069,11.217h-7.011c-10.623-1.041-15.765-6.586-15.892-17.251C1416.551,262.372,1416.657,256.423,1416.657,250.474Z"/><path class="cls-1" d="M1352.728,87.263a26.768,26.768,0,0,1,20.4-13.937c4.249-.553,7.2,0,6.374,5.481a3.084,3.084,0,0,0,0,1.084,29.3,29.3,0,0,1-.234,10.623c-1.806,3.909-6.2.4-9.539,1.083-10.3,2.125-15.765,8.5-15.935,20.927-.191,9.731-.191,19.419,0,29.129,0,3.1-.807,4.036-3.867,3.866-5.014-.318-11.579,1.658-14.638-.849s-.935-9.412-1-14.4c0-16.168.277-32.379,0-48.526,0-5.906,1.764-7.606,7.075-6.714h.319C1352.367,75.068,1352.367,75.068,1352.728,87.263Z"/><path class="cls-1" d="M1084.371,110.676v30.743c0,3.421-1.041,4.5-4.5,4.143-4.993-.319-11.473,1.53-14.618-.935s-.956-9.412-1-14.362V79.53c0-3.549.956-4.823,4.5-4.5a67.366,67.366,0,0,0,11.345,0c3.463-.276,4.25,1.169,4.143,4.5C1084.243,89.791,1084.371,100.266,1084.371,110.676Z"/><path class="cls-1" d="M1387.146,110.676V78.807c0-3.059.85-4.037,3.91-3.867,4.95.319,11.472-1.572,14.532.914s1,9.391,1.041,14.341V140.93c0,3.825-.977,4.993-4.759,4.5a77.252,77.252,0,0,0-11.3,0c-2.889,0-3.612-.871-3.569-3.654C1387.146,131.518,1387.146,121.129,1387.146,110.676Z"/><path class="cls-1" d="M1459.637,249.539v-30.7c0-3.293.935-4.5,4.25-4.249,4.143.276,8.286,0,12.386,0,2.337,0,3.144.807,3.144,3.1v64.1c0,2.379-.807,3.335-3.1,3.017h-.552c-5.163-.277-11.749,2.124-15.063-.956s-.829-9.5-.957-14.448C1459.51,262.818,1459.637,256.189,1459.637,249.539Z"/><path class="cls-1" d="M1074.151,64.955c-9.667,0-9.305,0-9.858-10.007-.255-5.4,1.572-7.054,6.586-6.2a11.97,11.97,0,0,0,2.125,0c11.494,0,11.345,0,11.43,11.473,0,3.867-1.211,5.184-4.907,4.738A37.976,37.976,0,0,0,1074.151,64.955Z"/><path class="cls-1" d="M1469.708,188.139c9.561,0,9.561,0,9.561,9.369,0,7.011,0,7.011-7.118,7.011h-1.083c-11.622,0-11.431,0-11.558-11.791,0-3.867,1.168-5.078,4.844-4.5A41.057,41.057,0,0,0,1469.708,188.139Z"/><path class="cls-1" d="M1396.9,64.955c-9.773,0-9.369,0-9.922-9.731-.3-5.545,1.4-7.436,6.672-6.374h1.614c3.655.362,9.009-1.7,10.623.85,1.849,3.527.638,8.647.765,13.109,0,2.018-1.168,2.252-2.783,2.125Z"/></svg>