<svg xmlns="http://www.w3.org/2000/svg" id="Layer_1" data-name="Layer 1" viewBox="0 0 1641.8 351"><defs><style>.cls-1{fill:#fff}</style></defs><title>FIUSCIS</title><polygon points="560.641 292.638 560.641 53.647 568.363 53.647 568.363 292.638 560.641 292.638 560.641 292.638" class="cls-1"/><path d="M107.148,292.332H.607V224.713l16.134-.053V122.533l-16.134.006V53.928H191.319v83.059H116.065V122.4H92.2v21.2l51.756.1v65.908L92.2,209.5v15.244h14.946Zm-101.2-5.338h95.864V230.085H86.863V204.156l51.757.1V149.032l-51.757-.106V117.058H121.4v14.591h64.578V59.266H5.945V117.2l16.135-.013V229.979l-16.135.053Z" class="cls-1"/><path d="M303.571,292.3H197.03V224.733h15.9V122.4h-15.9V53.928H303.683V122.4H288.167V224.733h15.4Zm-101.2-5.338h95.864v-56.89h-15.4V117.058h15.517V59.266H202.368v57.792h15.9V230.071h-15.9Z" class="cls-1"/><path d="M455.036,292.359h-86.28l-44.317-46.538V122.4H309.075V53.928H409.634v68.479h-9.688V224.786H423.8l.013-102.393-10.856.02V53.938l101.767-.01V122.4H499.071V245.814Zm-83.989-5.339h81.692l40.993-43.33V117.058h15.657V59.266l-91.091.01v57.792l10.856-.02-.013,113.076H394.608V117.068H404.3v-57.8H314.413v57.792h15.365V243.683Z" class="cls-1"/><path d="M668.012,103.317C667,96.077,660.057,90.569,652.1,90.569c-14.378,0-19.783,12.237-19.783,24.986,0,12.135,5.4,24.374,19.783,24.374,9.793,0,15.3-6.731,16.523-16.317h15.5c-1.63,18.153-14.175,29.777-32.023,29.777-22.535,0-35.793-16.827-35.793-37.834,0-21.621,13.258-38.448,35.793-38.448,16.015,0,29.474,9.382,31.412,26.21Z" class="cls-1"/><path d="M719.111,97.5c16.623,0,27.329,11.014,27.329,27.841,0,16.725-10.706,27.739-27.329,27.739-16.52,0-27.229-11.014-27.229-27.739C691.882,108.518,702.591,97.5,719.111,97.5Zm0,44.667c9.893,0,12.848-8.464,12.848-16.826,0-8.464-2.955-16.93-12.848-16.93-9.793,0-12.748,8.466-12.748,16.93C706.363,133.707,709.318,142.171,719.111,142.171Z" class="cls-1"/><path d="M756.234,98.932H769.9v7.138h.206A19.038,19.038,0,0,1,786.216,97.5c6.629,0,12.545,2.447,15.4,8.77a19.15,19.15,0,0,1,15.909-8.77c11.215,0,19.275,5.2,19.275,18.867v35.285H822.319v-29.88c0-7.037-.614-12.849-8.874-12.849-8.157,0-9.691,6.73-9.691,13.358v29.371H789.273V122.081c0-6.118.412-13.154-8.768-13.154-2.858,0-9.79,1.835-9.79,12.135v30.594H756.234Z" class="cls-1"/><path d="M848.224,98.932h13.767v6.731h.206c3.466-5.609,9.176-8.159,15.7-8.159,16.52,0,23.966,13.36,23.966,28.35,0,14.075-7.752,27.23-23.149,27.23a18.722,18.722,0,0,1-15.81-7.954h-.2v25.087H848.224Zm39.161,26.516c0-8.363-3.366-17.033-12.646-17.033-9.484,0-12.542,8.466-12.542,17.033s3.26,16.723,12.642,16.723C884.324,142.171,887.385,134.013,887.385,125.448Z" class="cls-1"/><path d="M960,151.656H946.229v-7.343h-.305a18.8,18.8,0,0,1-16.115,8.771c-15.4,0-19.271-8.668-19.271-21.722V98.932h14.481v29.779c0,8.668,2.55,12.951,9.279,12.951,7.855,0,11.221-4.386,11.221-15.094V98.932H960Z" class="cls-1"/><path d="M989.368,98.932h10.61v9.687h-10.61v26.108c0,4.9,1.228,6.12,6.121,6.12a22.393,22.393,0,0,0,4.489-.408v11.319a55.559,55.559,0,0,1-8.466.511c-8.874,0-16.626-2.04-16.626-12.544V108.619h-8.767V98.932h8.767V83.124h14.482Z" class="cls-1"/><path d="M1021.8,90.773h-14.481V78.842H1021.8Zm-14.481,8.159H1021.8v52.724h-14.481Z" class="cls-1"/><path d="M1033.223,98.932h13.768v7.342h.305a18.807,18.807,0,0,1,16.111-8.77c15.4,0,19.275,8.669,19.275,21.722v32.43H1068.2V121.877c0-8.668-2.55-12.95-9.279-12.95-7.851,0-11.218,4.385-11.218,15.091v27.638h-14.481Z" class="cls-1"/><path d="M1144.385,148.291c0,8.669-3.061,23.354-27.332,23.354-10.4,0-22.538-4.9-23.252-16.929h14.378c1.328,5.4,5.71,7.24,10.81,7.24,8.06,0,11.729-5.506,11.626-13.054v-6.935h-.2c-3.161,5.508-9.485,8.159-15.806,8.159-15.809,0-22.538-12.033-22.538-26.514,0-13.666,7.851-26.108,22.638-26.108,6.935,0,12.237,2.346,15.706,8.464h.2V98.932h13.77Zm-13.77-23.66c0-8.567-2.955-16.216-12.337-16.216-8.16,0-11.729,7.14-11.729,14.993,0,7.545,2.855,15.807,11.729,15.807C1126.538,139.215,1130.615,132.177,1130.615,124.631Z" class="cls-1"/><path d="M1226.177,144.416c-5.813,5.71-12.237,8.668-20.5,8.668-13.154,0-23.558-8.056-23.558-21.825,0-10.2,7.752-17.132,16.32-21.109-3.877-4.794-6.938-9.178-6.938-15.5,0-10.1,9.282-16.623,18.969-16.623,11.016,0,19.989,5.916,19.989,17.439,0,8.464-5.607,14.277-12.951,18.153l9.383,11.524a25.867,25.867,0,0,0,2.649-8.669h12.545a34.6,34.6,0,0,1-7.034,17.949l14.786,17.235h-17.748Zm-20.089-24.884c-5.1,2.244-10.2,6.118-10.2,12.034,0,5.3,4.893,9.586,10.4,9.586,5.2,0,8.874-2.651,12.237-6.425Zm5.1-31.818a6.417,6.417,0,0,0-6.527,6.424c0,4.59,2.954,7.548,5.71,10.912,4.077-2.651,7.443-5.1,7.443-10.4A6.885,6.885,0,0,0,1211.188,87.714Z" class="cls-1"/><path d="M619.471,184.227h16.011v72.815H619.471Z" class="cls-1"/><path d="M648.026,204.316H661.8v7.344h.3a18.8,18.8,0,0,1,16.112-8.772c15.4,0,19.275,8.672,19.275,21.725v32.429H683.008V227.263c0-8.668-2.55-12.951-9.279-12.951-7.855,0-11.222,4.386-11.222,15.092v27.638H648.026Z" class="cls-1"/><path d="M711.665,214H703v-9.687h8.668v-4.077c0-9.282,5.813-16.012,17.645-16.012,2.549,0,5.2.306,7.649.409v10.809a44.58,44.58,0,0,0-5.3-.305c-3.878,0-5.508,1.63-5.508,6.015v3.161h10V214h-10v43.039H711.665Z" class="cls-1"/><path d="M768.059,202.888c16.626,0,27.336,11.016,27.336,27.841,0,16.725-10.71,27.74-27.336,27.74-16.519,0-27.226-11.015-27.226-27.74C740.833,213.9,751.54,202.888,768.059,202.888Zm0,44.669c9.893,0,12.855-8.462,12.855-16.828,0-8.463-2.962-16.928-12.855-16.928-9.787,0-12.745,8.465-12.745,16.928C755.314,239.1,758.272,247.557,768.059,247.557Z" class="cls-1"/><path d="M804.777,204.316h13.767v9.794h.2a18.642,18.642,0,0,1,16.828-11.222,10.81,10.81,0,0,1,3.161.512v13.462a26.215,26.215,0,0,0-5.2-.511c-10.6,0-14.275,7.649-14.275,16.928v23.763H804.777Z" class="cls-1"/><path d="M844.854,204.316h13.668v7.138h.2a19.046,19.046,0,0,1,16.114-8.566c6.626,0,12.543,2.45,15.4,8.772a19.158,19.158,0,0,1,15.908-8.772c11.222,0,19.275,5.2,19.275,18.871v35.283H910.939V227.163c0-7.038-.61-12.851-8.87-12.851-8.16,0-9.688,6.729-9.688,13.359v29.371H877.9V227.469c0-6.122.4-13.157-8.771-13.157-2.855,0-9.79,1.836-9.79,12.134v30.6H844.854Z" class="cls-1"/><path d="M936.237,220.53c.813-13.561,12.95-17.642,24.779-17.642,10.5,0,23.153,2.347,23.153,14.993v27.435c0,4.791.508,9.585,1.832,11.726H971.318a21.357,21.357,0,0,1-1.02-5.1c-4.591,4.793-11.32,6.526-17.747,6.526-9.993,0-17.948-5-17.948-15.809,0-11.931,8.974-14.786,17.948-16.008,8.873-1.328,17.133-1.022,17.133-6.935,0-6.222-4.282-7.141-9.382-7.141-5.507,0-9.076,2.244-9.584,7.954Zm33.447,10.71c-2.446,2.141-7.546,2.244-12.034,3.061-4.486.916-8.565,2.447-8.565,7.748,0,5.405,4.182,6.733,8.87,6.733,11.321,0,11.729-8.977,11.729-12.137Z" class="cls-1"/><path d="M1013.742,204.316h10.607V214h-10.607v26.108c0,4.9,1.225,6.122,6.122,6.122a22.262,22.262,0,0,0,4.485-.409v11.318a55.108,55.108,0,0,1-8.462.511c-8.874,0-16.626-2.038-16.626-12.543V214H990.49v-9.687h8.771V188.51h14.481Z" class="cls-1"/><path d="M1046.174,196.159h-14.485V184.227h14.485Zm-14.485,8.157h14.485v52.726h-14.485Z" class="cls-1"/><path d="M1083.194,202.888c16.622,0,27.329,11.016,27.329,27.841,0,16.725-10.707,27.74-27.329,27.74-16.52,0-27.23-11.015-27.23-27.74C1055.964,213.9,1066.674,202.888,1083.194,202.888Zm0,44.669c9.893,0,12.848-8.462,12.848-16.828,0-8.463-2.955-16.928-12.848-16.928-9.794,0-12.749,8.465-12.749,16.928C1070.445,239.1,1073.4,247.557,1083.194,247.557Z" class="cls-1"/><path d="M1119.911,204.316h13.765v7.344h.305a18.807,18.807,0,0,1,16.115-8.772c15.4,0,19.275,8.672,19.275,21.725v32.429h-14.482V227.263c0-8.668-2.549-12.951-9.282-12.951-7.851,0-11.215,4.386-11.215,15.092v27.638h-14.481Z" class="cls-1"/><path d="M1221.18,232.873c0,9.688,7.543,13.459,16.112,13.459,5.607,0,14.175-1.63,14.175-9.076,0-7.852-10.912-9.176-21.622-12.032-10.809-2.855-21.718-7.038-21.718-20.7,0-14.89,14.069-22.031,27.229-22.031,15.192,0,29.165,6.633,29.165,23.458h-15.5c-.511-8.771-6.733-11.015-14.382-11.015-5.1,0-11.012,2.145-11.012,8.26,0,5.61,3.466,6.324,21.722,11.015,5.3,1.328,21.619,4.691,21.619,21.214,0,13.359-10.5,23.352-30.287,23.352-16.115,0-31.207-7.954-31-25.9Z" class="cls-1"/><path d="M1310.823,222.877c-.916-5.912-4.691-9.076-10.71-9.076-9.279,0-12.336,9.385-12.336,17.134,0,7.546,2.954,16.622,12.031,16.622,6.733,0,10.607-4.282,11.526-10.707h13.97c-1.835,13.971-11.526,21.619-25.393,21.619-15.909,0-26.615-11.217-26.615-27.023,0-16.42,9.786-28.558,26.92-28.558,12.443,0,23.864,6.527,24.783,19.989Z" class="cls-1"/><path d="M1348.354,196.159H1333.87V184.227h14.484Zm-14.484,8.157h14.484v52.726H1333.87Z" class="cls-1"/><path d="M1371.709,234.2c.406,9.18,4.894,13.359,12.948,13.359,5.816,0,10.5-3.569,11.424-6.832h12.748c-4.08,12.44-12.748,17.744-24.68,17.744-16.623,0-26.921-11.42-26.921-27.74,0-15.806,10.909-27.841,26.921-27.841,17.951,0,26.615,15.093,25.6,31.31Zm23.558-9.179c-1.328-7.344-4.488-11.218-11.526-11.218-9.176,0-11.829,7.141-12.032,11.218Z" class="cls-1"/><path d="M1418.314,204.316h13.771v7.344h.305a18.8,18.8,0,0,1,16.111-8.772c15.4,0,19.275,8.672,19.275,21.725v32.429H1453.3V227.263c0-8.668-2.55-12.951-9.279-12.951-7.855,0-11.221,4.386-11.221,15.092v27.638h-14.481Z" class="cls-1"/><path d="M1514.689,222.877c-.916-5.912-4.691-9.076-10.71-9.076-9.279,0-12.336,9.385-12.336,17.134,0,7.546,2.955,16.622,12.031,16.622,6.733,0,10.607-4.282,11.527-10.707h13.97c-1.836,13.971-11.527,21.619-25.394,21.619-15.909,0-26.616-11.217-26.616-27.023,0-16.42,9.788-28.558,26.921-28.558,12.443,0,23.863,6.527,24.783,19.989Z" class="cls-1"/><path d="M1549.262,234.2c.409,9.18,4.894,13.359,12.951,13.359,5.813,0,10.5-3.569,11.424-6.832h12.748c-4.08,12.44-12.748,17.744-24.68,17.744-16.626,0-26.924-11.42-26.924-27.74,0-15.806,10.912-27.841,26.924-27.841,17.947,0,26.616,15.093,25.6,31.31Zm23.558-9.179c-1.328-7.344-4.488-11.218-11.526-11.218-9.176,0-11.826,7.141-12.032,11.218Z" class="cls-1"/><path d="M1607.088,239.908c.1,6.325,5.4,8.874,11.114,8.874,4.184,0,9.486-1.633,9.486-6.733,0-4.382-6.019-5.915-16.417-8.156-8.366-1.836-16.726-4.794-16.726-14.073,0-13.462,11.627-16.932,22.944-16.932,11.523,0,22.13,3.878,23.252,16.829h-13.767c-.409-5.607-4.691-7.141-9.894-7.141-3.26,0-8.054.614-8.054,4.9,0,5.2,8.157,5.917,16.417,7.852,8.466,1.939,16.726,5,16.726,14.787,0,13.87-12.035,18.358-24.066,18.358-12.24,0-24.172-4.588-24.783-18.561Z" class="cls-1"/></svg>