<svg xmlns="http://www.w3.org/2000/svg" id="Layer_1" data-name="Layer 1" viewBox="0 0 1641.8 351"><defs><style>.cls-1{fill:#fff}</style></defs><title>Github</title><path d="M415.578,150.416H307.311a5.062,5.062,0,0,0-5.059,5.062v52.933a5.066,5.066,0,0,0,5.059,5.066h42.235v65.765s-9.484,3.233-35.7,3.233c-30.934,0-74.144-11.3-74.144-106.322,0-95.038,45-107.543,87.238-107.543,36.566,0,52.319,6.437,62.343,9.54,3.149.965,6.062-2.171,6.062-4.966L407.422,22.04a4.717,4.717,0,0,0-1.933-3.952c-4.071-2.905-28.906-16.8-91.644-16.8-72.278,0-146.416,30.749-146.416,178.571S252.311,349.712,323.84,349.712c59.225,0,95.154-25.308,95.154-25.308,1.481-.817,1.64-2.887,1.64-3.835V155.478A5.06,5.06,0,0,0,415.578,150.416Z" class="cls-1"/><path d="M973.536,19a5.043,5.043,0,0,0-5.025-5.089h-60.96A5.067,5.067,0,0,0,902.5,19c0,.013.016,117.808.016,117.808H807.5V19a5.05,5.05,0,0,0-5.03-5.089H741.51A5.063,5.063,0,0,0,736.474,19V337.991a5.077,5.077,0,0,0,5.036,5.1h60.957a5.063,5.063,0,0,0,5.03-5.1V201.547h95.022s-.166,136.434-.166,136.444a5.079,5.079,0,0,0,5.049,5.1h61.1a5.063,5.063,0,0,0,5.03-5.1Z" class="cls-1"/><path d="M530.613,60.858A39.309,39.309,0,1,0,491.3,100.573,39.48,39.48,0,0,0,530.613,60.858Z" class="cls-1"/><path d="M526.253,270.7V123.454a5.067,5.067,0,0,0-5.043-5.081H460.442c-2.788,0-5.282,2.875-5.282,5.67V335c0,6.2,3.864,8.043,8.863,8.043h54.75c6.008,0,7.48-2.95,7.48-8.142Z" class="cls-1"/><path d="M1205.214,118.852H1144.72a5.072,5.072,0,0,0-5.032,5.1v156.41a68.345,68.345,0,0,1-37.182,11.245c-21.811,0-27.6-9.9-27.6-31.255v-136.4a5.069,5.069,0,0,0-5.03-5.1H1008.48a5.081,5.081,0,0,0-5.041,5.1V270.68c0,63.439,35.356,78.959,84,78.959,39.9,0,72.073-22.044,72.073-22.044s1.533,11.617,2.225,12.995a5.33,5.33,0,0,0,4.451,2.761l39.057-.173a5.081,5.081,0,0,0,5.041-5.093l-.019-214.132A5.077,5.077,0,0,0,1205.214,118.852Z" class="cls-1"/><path d="M1370.551,111.686c-34.358,0-57.727,15.329-57.727,15.329V19a5.056,5.056,0,0,0-5.03-5.089h-61.133A5.062,5.062,0,0,0,1241.623,19V337.991a5.077,5.077,0,0,0,5.046,5.1h42.414a5.053,5.053,0,0,0,4.424-2.709c1.054-1.713,2.576-14.708,2.576-14.708s25,23.69,72.32,23.69c55.555,0,87.415-28.18,87.415-126.505S1404.935,111.686,1370.551,111.686Zm-23.859,179.728a72.537,72.537,0,0,1-35.215-10.16V180.236s14.04-8.6,31.266-10.144c21.785-1.951,42.775,4.629,42.775,56.6C1385.518,281.485,1376.045,292.3,1346.692,291.414Z" class="cls-1"/><path d="M701.456,118.344H655.729s-.068-60.4-.068-60.412c0-2.287-1.179-3.429-3.823-3.429H589.524c-2.423,0-3.723,1.066-3.723,3.394v62.427s-31.229,7.539-33.341,8.148a5.065,5.065,0,0,0-3.649,4.863v39.229a5.063,5.063,0,0,0,5.04,5.1H585.8v94.377c0,70.1,49.17,76.983,82.349,76.983,15.161,0,33.3-4.868,36.291-5.974a4.716,4.716,0,0,0,2.863-4.574l.05-43.155a5.147,5.147,0,0,0-5.054-5.093c-2.664,0-9.481,1.085-16.5,1.085-22.461,0-30.071-10.443-30.071-23.962s0-89.687,0-89.687h45.73a5.068,5.068,0,0,0,5.047-5.1V123.426A5.059,5.059,0,0,0,701.456,118.344Z" class="cls-1"/></svg>