<?xml version="1.0" encoding="utf-8"?>
<!-- Generator: Adobe Illustrator 19.0.0, SVG Export Plug-In . SVG Version: 6.00 Build 0)  -->
<svg version="1.1" id="Layer_1" xmlns="http://www.w3.org/2000/svg" xmlns:xlink="http://www.w3.org/1999/xlink" x="0px" y="0px"
	 viewBox="943 -13.8 2498 818.8" style="enable-background:new 943 -13.8 2498 818.8;" xml:space="preserve">
<style type="text/css">
	.st0{fill:#FFFFFF;}
</style>
<title>google</title>
<path class="st0" d="M1411.9,276.4c47,0,94,0.1,141-0.1c4.1,0,5.8,0.9,6.2,5.2c8.6,79.1-2.2,154-48,221.2
	c-29.3,43.1-69.6,72.9-116.6,94.4c-46,21.1-94.3,29-144.5,26.8c-149.1-6.3-276.5-115.6-301.7-262.9
	C928,242.5,965.8,142.6,1055.8,63.3c48.7-42.9,106.5-67.5,170.9-74.7c94.9-10.6,179.3,15,252.5,76.8c5.2,4.4,5.1,4.4,0.2,9.5
	c-17.9,18.4-35.9,36.7-53.6,55.3c-2.9,3-4.4,3.4-7.9,0.5c-47.1-40.3-101.8-59.2-163.6-56.1c-99.6,5-183.7,73.2-210.7,170
	c-27.8,99.5,16.7,208.1,106.1,260c40.2,23.3,83.4,34.3,129.7,31.3c53.2-3.3,100.8-21.3,140.1-58.2c29.7-27.9,45.8-63,51.1-103.1
	c1.5-11.4,1.3-11.4-10.1-11.5c-38.3-0.1-76.7-0.2-115-0.3c-25.3-0.1-50.6-0.4-76-0.5c-3.7,0-4.8-0.8-4.8-4.7c0.2-25.5,0.2-51,0-76.5
	c0-4.3,1.5-4.9,5.2-4.8C1317.2,276.4,1364.6,276.4,1411.9,276.4z"/>
<path class="st0" d="M2790.3,256.9c0.4-8.8,1-17.7,1.2-26.6c0.1-3.5,1.4-4.4,4.7-4.4c25.2,0.1,50.3,0.1,75.5,0
	c3.5,0,4.3,0.9,4.3,4.4c-0.1,125.7-0.1,251.3,0,377c0.1,46.9-11.9,89.9-39.8,127.9c-17.7,24.3-41.6,43.3-69.3,55
	c-14.7,6.3-30.7,8.8-46.4,11.4c-33.7,5.7-67.1,4.5-99.9-5.2c-47.7-14.2-82.2-44.7-107.1-87c-3.6-6.2-6.6-12.7-10.2-18.9
	c-1.6-2.8-0.9-4,1.9-5.2c23.7-10.2,47.4-20.5,71-30.9c3.2-1.4,3.6,0.5,4.6,2.4c11.1,21.5,25.3,40.4,45.5,54.2
	c17.3,11.8,36.3,16.5,57.3,14.8c14-1.1,27.9-2.2,41.2-7.1c35.1-12.9,55-39,63.7-74.5c5.1-20.9,5.2-42.2,4-63.6
	c-0.1-1.2,0.3-3-1.3-3.4c-1.4-0.3-2.3,1.2-3.3,2c-20.1,16.7-42.1,29.7-67.4,36.9c-38.4,10.9-75.6,6.4-111.6-9.5
	c-72.6-32.1-111.2-90.3-124.6-166.4c-6.3-35.9,1.3-70.6,16.7-103.6c22.4-47.9,56.8-84.4,104.2-107.9
	c59.7-29.5,116.2-21.4,169.4,16.8c5.1,3.7,10.1,7.6,15.1,11.5C2789.6,257.1,2789.8,257,2790.3,256.9z M2575.6,414.9
	c0.3,32.1,8.3,58.9,25.7,82.7c38.5,52.9,109.8,60.7,157.2,17.2c52.1-48,55.1-135.7,6.3-187.1c-40.1-42.4-101-46.4-144.8-9
	C2589.8,344.6,2576.6,378.6,2575.6,414.9z"/>
<path class="st0" d="M2002.4,418.3c-0.3,114.3-93.1,206.2-207.9,205.9c-113.6-0.3-205.6-93.4-205.2-207.6
	c0.5-113.9,93.3-205.9,207.3-205.5S2002.7,304.4,2002.4,418.3z M1912.7,426.7c0-34.5-7.5-59.5-21.8-80.8
	c-42-62.4-126.4-69.7-177.1-15.4c-46.8,50.1-45.1,131.4,3.6,179.5c39.2,38.8,98.2,44.2,143.1,12.1
	C1895.7,497.1,1911.5,461.3,1912.7,426.7L1912.7,426.7z"/>
<path class="st0" d="M2035.9,417.8c0-114.1,92.7-206.8,206.8-206.7c113.9,0.1,206.4,92.6,206.5,206.5
	c0.1,114.1-92.6,206.6-206.8,206.6C2128.5,624.2,2035.9,531.7,2035.9,417.8z M2126.5,410.1c0,35.1,7.5,59.8,22.2,81.5
	c40.1,59.5,120.2,68.8,171.7,20c48.6-46,52.5-126.3,8.8-176.9c-37.9-43.9-98.4-53.9-145.7-23C2145,336.7,2127.7,373.6,2126.5,410.1
	L2126.5,410.1z"/>
<path class="st0" d="M3275.6,620.9c-105.6,0-189.7-71.9-206.3-170.7c-17-101.1,42.8-199.9,140.9-229c63.9-19,134.6-3.8,184,56.6
	c20.8,25.5,35.1,54.4,46.4,85.1c1.3,3.5-1.1,3.5-2.9,4.3c-21.6,9.2-43.1,18.4-64.8,27.5c-66.3,27.9-132.6,55.6-198.9,83.4
	c-3.7,1.6-4.1,2.9-2.4,6.4c20.5,41.4,60.7,62.8,106.5,57.1c30.7-3.8,57.4-15.3,78.4-38.6c4.2-4.6,7.8-9.6,10.9-14.9
	c1.1-2,1.8-3.1,4.4-1.3c20.8,14.1,41.8,28,62.8,41.8c3.5,2.3,1.2,3.8,0,5.4c-23.6,33.4-54.2,58-92.3,73.1
	C3318.8,616.4,3294.3,620.8,3275.6,620.9z M3154.3,412.1c2.1-0.9,3.8-1.5,5.5-2.2l35.4-14.8c46.4-19.4,92.7-38.9,139.1-58.2
	c3.7-1.5,3.9-2.8,1.8-5.9c-6.1-9.2-13.8-17.2-22.9-23.5c-21.8-15.1-45.9-17.4-71.3-12.3c-37.5,7.6-65.6,26.9-79,64.1
	C3156.8,376.2,3153.8,394.1,3154.3,412.1z"/>
<path class="st0" d="M2937.5,308c0-98.3,0-196.7-0.1-295c0-4.8,1-6.1,5.9-6c26.5,0.3,53,0.2,79.5,0c3.6,0,4.8,0.7,4.8,4.6
	c-0.1,197.8-0.1,395.6,0,593.4c0,3.5-0.9,4.5-4.4,4.5c-26.8-0.1-53.7-0.2-80.5,0.1c-4.8,0-5.2-1.7-5.2-5.7
	C2937.5,505.3,2937.6,406.6,2937.5,308z"/>
</svg>
