<svg xmlns="http://www.w3.org/2000/svg" id="Layer_1" data-name="Layer 1" viewBox="0 0 1641.8 351"><defs><style>.cls-1{fill:#fff}</style></defs><title>Google</title><path d="M488.9,124.822c19.959,0,39.917.025,59.875-.038,1.737,0,2.446.365,2.65,2.208,3.639,33.576-.943,65.4-20.362,93.914-12.455,18.289-29.555,30.935-49.513,40.086-19.534,8.955-40.048,12.314-61.352,11.4-63.3-2.662-117.4-49.093-128.132-111.625-8.637-50.3,7.41-92.742,45.637-126.412,20.675-18.2,45.211-28.655,72.575-31.725C450.6-1.891,486.429,9,517.492,35.24c2.2,1.86,2.17,1.885.1,4.017C510,47.066,502.357,54.85,494.82,62.735c-1.223,1.274-1.873,1.444-3.338.2C471.477,45.839,448.237,37.8,422,39.117c-42.311,2.123-78.011,31.1-89.489,72.189-11.809,42.264,7.071,88.385,45.059,110.406,17.071,9.9,35.432,14.544,55.059,13.309,22.57-1.414,42.8-9.045,59.5-24.71,12.629-11.848,19.444-26.731,21.682-43.785.637-4.854.539-4.858-4.28-4.866q-24.414-.065-48.834-.14c-10.756-.043-21.508-.183-32.273-.192-1.554,0-2.047-.339-2.038-1.974q.114-16.239,0-32.481c0-1.805.645-2.064,2.208-2.059Q458.751,124.861,488.9,124.822Z" class="cls-1"/><path d="M1074.213,116.558c.183-3.732.425-7.516.518-11.3.034-1.508.574-1.86,2.005-1.856q16.033.081,32.056,0c1.49,0,1.839.37,1.839,1.873q-.073,80.04,0,160.09c.025,19.9-5.054,38.183-16.91,54.324a70.544,70.544,0,0,1-29.414,23.355c-6.247,2.688-13.024,3.716-19.721,4.858a92.486,92.486,0,0,1-42.426-2.225c-20.234-6.013-34.9-18.969-45.466-36.923-1.542-2.62-2.824-5.384-4.314-8.034-.659-1.172-.374-1.7.8-2.212q15.091-6.51,30.15-13.13c1.346-.6,1.516.2,1.949,1.036,4.705,9.117,10.735,17.147,19.3,23.007a36.7,36.7,0,0,0,24.34,6.3c5.945-.459,11.844-.951,17.483-3.024,14.918-5.482,23.355-16.561,27.033-31.631,2.178-8.892,2.225-17.937,1.7-27.007-.034-.514.132-1.274-.535-1.448-.582-.145-.96.509-1.38.849-8.531,7.079-17.9,12.625-28.638,15.669-16.31,4.616-32.1,2.7-47.4-4.051-30.841-13.618-47.237-38.345-52.918-70.647-2.68-15.237.543-30,7.083-43.976,9.507-20.324,24.111-35.853,44.256-45.8,25.351-12.514,49.322-9.1,71.917,7.126,2.178,1.562,4.272,3.244,6.408,4.862C1073.925,116.665,1074,116.614,1074.213,116.558Zm-91.162,67.111c.124,13.631,3.546,25.007,10.914,35.13,16.361,22.477,46.63,25.789,66.736,7.287,22.12-20.361,23.377-57.615,2.676-79.459-17.05-17.992-42.889-19.7-61.48-3.8C989.073,153.8,983.5,168.22,983.051,183.669Z" class="cls-1"/><path d="M739.643,185.1a87.74,87.74,0,0,1-88.3,87.442c-48.235-.123-87.323-39.674-87.12-88.147a87.711,87.711,0,0,1,175.42.705Zm-38.1,3.571c0-14.65-3.2-25.274-9.274-34.289-17.835-26.5-53.675-29.611-75.221-6.527-19.86,21.274-19.151,55.789,1.524,76.24,16.659,16.476,41.688,18.752,60.75,5.151,15.023-10.71,21.737-25.878,22.221-40.575Z" class="cls-1"/><path d="M753.877,184.905a87.744,87.744,0,1,1,87.684,87.641A87.811,87.811,0,0,1,753.877,184.905Zm38.455-3.27c0,14.9,3.2,25.393,9.415,34.625,17.011,25.262,51.029,29.224,72.9,8.493,20.616-19.534,22.3-53.62,3.72-75.128-16.111-18.65-41.768-22.875-61.879-9.766-16.289,10.6-23.61,26.268-24.154,41.776Z" class="cls-1"/><path d="M1280.322,271.145c-44.826,0-80.542-30.545-87.587-72.495-7.219-42.918,18.158-84.881,59.819-97.243,27.114-8.068,57.178-1.613,78.134,24.035,8.833,10.816,14.922,23.117,19.7,36.145.543,1.482-.48,1.487-1.249,1.814-9.164,3.906-18.323,7.83-27.508,11.694q-42.21,17.742-84.453,35.4c-1.588.662-1.745,1.227-1.015,2.705,8.714,17.571,25.768,26.654,45.237,24.247,13.037-1.614,24.375-6.48,33.28-16.387a36.131,36.131,0,0,0,4.624-6.327c.484-.85.756-1.3,1.847-.565q13.275,8.96,26.659,17.767c1.478.972.5,1.592,0,2.31a85.62,85.62,0,0,1-39.186,31.024A82.5,82.5,0,0,1,1280.322,271.145ZM1228.8,182.484c.909-.361,1.626-.628,2.327-.921l15.053-6.3q29.526-12.382,59.06-24.727c1.583-.658,1.66-1.184.751-2.522a37.313,37.313,0,0,0-9.711-9.979c-9.275-6.412-19.508-7.4-30.26-5.232-15.929,3.215-27.836,11.427-33.547,27.228A60.8,60.8,0,0,0,1228.8,182.484Z" class="cls-1"/><path d="M1136.742,138.253q0-62.625-.051-125.269c0-2.021.424-2.573,2.514-2.548,11.253.119,22.506.085,33.754,0,1.538,0,2.034.306,2.034,1.958q-.063,126,0,251.991c0,1.473-.386,1.9-1.881,1.894-11.393-.06-22.786-.1-34.179.029-2.055,0-2.217-.713-2.217-2.407Q1136.771,201.092,1136.742,138.253Z" class="cls-1"/></svg>