<svg id="Layer_1" data-name="Layer 1" xmlns="http://www.w3.org/2000/svg" viewBox="0 0 1641.8 351"><defs><style>.cls-1{fill:#fff;}</style></defs><title>Hasura</title><g id="Layer_1-2" data-name="Layer 1"><path class="cls-1" d="M710.851,200.029H688.1a6.381,6.381,0,0,1-6.246-6.246V121.957a6.38,6.38,0,0,0-6.246-6.246h-19.63a6.38,6.38,0,0,0-6.245,6.246V303.532a6.379,6.379,0,0,0,6.245,6.245h19.63a6.381,6.381,0,0,0,6.246-6.245V233.043A6.381,6.381,0,0,1,688.1,226.8h22.752a6.381,6.381,0,0,1,6.246,6.246v70.935a6.381,6.381,0,0,0,6.246,6.246h19.63a6.381,6.381,0,0,0,6.246-6.246V121.957a6.38,6.38,0,0,0-6.246-6.246h-19.63a6.381,6.381,0,0,0-6.246,6.246v71.38A6.482,6.482,0,0,1,710.851,200.029Z"/><path class="cls-1" d="M811.677,121.064,779.556,302.639c-.447,3.569,2.23,7.138,5.8,7.138h19.63a5.532,5.532,0,0,0,5.8-5.353l5.353-33.014a6.158,6.158,0,0,1,5.8-5.353h24.983a5.532,5.532,0,0,1,5.8,5.353l5.8,33.46a6.159,6.159,0,0,0,5.8,5.354h20.522c4.016,0,7.139-3.57,5.8-7.585l-33.46-181.575a6.158,6.158,0,0,0-5.8-5.353h-33.46C814.8,115.711,812.569,117.941,811.677,121.064Zm29.891,117.779H828.63c-4.015,0-6.246-3.569-5.8-7.138l5.8-66.92c1.338-7.138,11.153-7.138,12.045,0l6.246,66.92A5.717,5.717,0,0,1,841.568,238.843Z"/><path class="cls-1" d="M978.976,197.353H957.115c-4.015,0-6.245-1.785-6.245-6.246V149.17c0-4.015,2.23-6.245,6.245-6.245h12.938c4.015,0,6.246,1.784,6.246,6.245V168.8a6.381,6.381,0,0,0,6.246,6.246h20.522a6.381,6.381,0,0,0,6.246-6.246V144.263c0-19.184-10.261-29-30.783-29H949.085c-20.522,0-30.783,9.814-30.783,29V194.23c0,19.183,10.261,29.444,30.337,29.444H970.5c4.015,0,6.246,1.785,6.246,6.246v46.4c0,4.015-1.784,6.245-6.246,6.245H957.562c-4.016,0-6.246-1.784-6.246-6.245v-19.63a6.381,6.381,0,0,0-6.246-6.246H924.548a6.381,6.381,0,0,0-6.246,6.246v24.537c0,19.184,10.261,29,30.783,29h29c20.522,0,30.783-9.815,30.783-29V227.243C1009.313,207.167,998.606,197.353,978.976,197.353Z"/><path class="cls-1" d="M1100.769,276.318c0,4.015-1.784,6.245-6.245,6.245h-17.4c-4.015,0-6.245-1.784-6.245-6.245V121.957a6.38,6.38,0,0,0-6.246-6.246h-20.522a6.381,6.381,0,0,0-6.246,6.246V280.333c0,19.183,10.261,29,30.783,29h33.46c20.522,0,30.783-9.815,30.783-29V121.957a6.38,6.38,0,0,0-6.246-6.246h-19.184a6.38,6.38,0,0,0-6.245,6.246l-.447,154.361Z"/><path class="cls-1" d="M1262.269,204.045V144.709c0-19.183-10.261-29-30.783-29h-58a6.381,6.381,0,0,0-6.246,6.246V303.532a6.38,6.38,0,0,0,6.246,6.245h19.629a6.381,6.381,0,0,0,6.246-6.245v-63.8a6.381,6.381,0,0,1,6.246-6.246h0c2.231,0,4.461,1.785,5.8,4.015l25.429,68.258c1.339,2.231,3.569,4.015,5.8,4.015h21.414c4.015,0,7.584-4.015,5.8-8.03l-24.537-63.35c-1.339-3.123.446-6.246,3.569-8.031C1256.915,225.905,1262.269,216.536,1262.269,204.045ZM1229.7,149.17v50.859c0,4.016-2.231,6.246-6.246,6.246H1205.61a6.381,6.381,0,0,1-6.246-6.246V149.17a6.38,6.38,0,0,1,6.246-6.245h17.845C1227.47,142.925,1229.7,145.155,1229.7,149.17Z"/><path class="cls-1" d="M1368.894,115.711h-33.46a5.532,5.532,0,0,0-5.8,5.353l-32.121,181.575c-.446,3.569,2.231,7.138,5.8,7.138h19.629a5.532,5.532,0,0,0,5.8-5.353l5.354-33.014a6.157,6.157,0,0,1,5.8-5.353h24.984a5.531,5.531,0,0,1,5.8,5.353l5.8,33.46a6.159,6.159,0,0,0,5.8,5.354H1402.8c4.015,0,7.138-3.57,5.8-7.585l-33.46-181.575C1374.247,117.941,1372.017,115.711,1368.894,115.711Zm-10.261,123.132h-12.046c-4.015,0-6.246-3.569-5.8-7.138l5.8-61.12c1.339-7.138,11.153-7.138,12.046,0l6.246,61.12A6.323,6.323,0,0,1,1358.633,238.843Z"/><path class="cls-1" d="M524.369,116.6c9.815-23.645,9.815-71.827-3.123-108.856h0c-3.569-6.692-13.384-4.461-13.83,2.677V13.1c-2.231,35.244-15.168,54.428-34.352,63.8-3.123,1.339-8.03,1.339-11.153-.892a146.858,146.858,0,0,0-157.038,0,10.986,10.986,0,0,1-9.815.892c-19.63-7.138-33.014-28.552-35.244-64.242V9.978C259.367,2.84,249.106.609,245.984,7.3c-12.938,37.475-12.492,85.657-3.123,109.3,4.907,11.6,4.907,24.983.892,37.029a137.985,137.985,0,0,0-7.584,49.074c1.784,77.627,67.812,143.654,145.438,144.992A147.4,147.4,0,0,0,523.031,153.632,52.9,52.9,0,0,1,524.369,116.6ZM381.607,312.454c-59.781-1.338-108.856-49.966-109.748-109.748-1.338-63.8,50.413-115.548,113.763-114.209,59.782.892,108.856,49.966,109.748,109.748C496.709,261.6,444.958,313.346,381.607,312.454Z"/><path class="cls-1" d="M400.791,188.43l-26.322-40.6c-4.015-6.692-12.938-8.476-19.63-4.461a14.641,14.641,0,0,0-6.692,12.045A15.047,15.047,0,0,0,350.378,163l17.845,27.66a6.052,6.052,0,0,1-.446,6.692l-27.66,30.336a14.153,14.153,0,0,0,.892,20.076,15.589,15.589,0,0,0,9.815,3.569,14.522,14.522,0,0,0,10.261-4.461l20.522-24.091c1.785-1.785,4.461-1.785,5.8.446L402.129,244.2a8.751,8.751,0,0,0,4.015,4.015,14.119,14.119,0,0,0,16.061.447h0a14.643,14.643,0,0,0,6.692-12.046,15.031,15.031,0,0,0-2.231-7.584Z"/></g></svg>