<svg xmlns="http://www.w3.org/2000/svg" xmlns:xlink="http://www.w3.org/1999/xlink" id="Layer_1" data-name="Layer 1" viewBox="0 0 1641.8 351"><defs><style>.cls-1{fill:#fff;fill-rule:evenodd}</style><symbol id="heroku-border_2" data-name="heroku-border 2" viewBox="0 0 72 80"><path d="M64.8,80H7.2A7.2,7.2,0,0,1,0,72.8V7.2A7.2,7.2,0,0,1,7.2,0H64.8A7.2,7.2,0,0,1,72,7.2V72.8A7.2,7.2,0,0,1,64.8,80ZM68,7.2A3.2,3.2,0,0,0,64.8,4H7.2A3.2,3.2,0,0,0,4,7.2V72.8A3.2,3.2,0,0,0,7.2,76H64.8A3.2,3.2,0,0,0,68,72.8V7.2Z" class="cls-1"/></symbol><symbol id="heroku-h_2" data-name="heroku-h 2" viewBox="0 0 36 56"><path d="M0,0,9,8,0,16ZM32.517,32.425C30.905,34.056,27.945,36,23,36A50.628,50.628,0,0,1,8,33.289V56H0V21.308l5.651,2.56C5.742,23.909,14.866,28,23,28c4.062,0,4.961-2.243,5-4.11V0h8V24A12.481,12.481,0,0,1,32.517,32.425ZM22,43h8a23.437,23.437,0,0,1,6,13H28A31.1,31.1,0,0,0,22,43Z" class="cls-1"/></symbol><symbol id="heroku-text_2" data-name="heroku-text 2" viewBox="0 0 72 11.32"><path d="M62.848,4.584v6.529H65.8V4.6c0-1.5.486-2.181,1.666-2.181s1.65.678,1.65,2.181v6.515H72V4.584C72,1.7,70.615.045,67.431.045S62.848,1.7,62.848,4.584Zm-12.42,6.529h2.948V7.163l3.007,3.95H59.8l-3.67-4.3,3.994-6.6H56.8L54.216,4.569l-.84-.973V.206H50.428ZM36.433,5.66c0,3.993,2.726,5.66,5.365,5.66,2.623,0,5.35-1.666,5.35-5.66S44.421,0,41.8,0C39.159,0,36.433,1.666,36.433,5.66Zm7.766,0c0,2-.87,3.227-2.4,3.227-1.548,0-2.417-1.223-2.417-3.227s.87-3.3,2.417-3.3S44.2,3.655,44.2,5.66ZM24.588,11.113h4.259c2.8,0,4.51-.929,4.51-3.552a2.978,2.978,0,0,0-2.152-3.183L33.519.207H30.4L28.287,3.994h-.811V.207H24.587V11.113Zm4.156-4.878c1.209,0,1.739.339,1.739,1.253s-.531,1.238-1.739,1.238H27.477V6.235ZM13.318,11.113H21.1V8.666H16.266V6.9h3.449V4.6H16.266V2.579h5.085V.206H13.319V11.113ZM0,11.113H2.948V7.06H6.574v4.053H9.522V.207H6.574V4.614H2.948V.207H0Z" class="cls-1"/></symbol></defs><title>Heroku</title><g id="heroku-logotype"><use width="72" height="80" transform="matrix(4.371, 0, 0, -4.371, 229.62, 348.619)" xlink:href="#heroku-border_2"/><use width="36" height="56" transform="matrix(4.371, 0, 0, -4.371, 312.671, 296.165)" xlink:href="#heroku-h_2"/><use width="72" height="11.32" transform="matrix(10.928, 0, 0, -10.928, 612.09, 231.91)" xlink:href="#heroku-text_2"/></g></svg>