<svg id="Layer_1" data-name="Layer 1" xmlns="http://www.w3.org/2000/svg" viewBox="0 0 870.96 217.58"><defs><style>.cls-1{fill:#fff;}</style></defs><title>jetbrains</title><path class="cls-1" d="M628,24.51c.36-.4.69-.81,1-1.24l.24-.33a14,14,0,0,0,.81-1.29.43.43,0,0,0,0-.07,14.58,14.58,0,0,0,.68-1.44l.15-.37c.19-.5.36-1,.5-1.54h0a14.19,14.19,0,0,0,.3-1.58l.06-.41A14.58,14.58,0,0,0,618.92.09,15.57,15.57,0,0,0,617.25,0h0l-.82,0-.75.07-.32,0-.25,0L353.91,37.28a2,2,0,0,1-.26.06l-.66.16c-.47.11-.93.21-1.38.35l-.37.13c-.55.18-1.1.37-1.63.59l-.13.06c-.6.26-1.19.54-1.77.85l0,0-.2.12A20.87,20.87,0,0,0,344,42.06c-.26.23-.52.45-.77.69s-.33.34-.49.51-.57.58-.83.89l-.41.51c-.27.33-.53.66-.77,1l-.36.53c-.24.35-.46.72-.68,1.08l-.3.55c-.21.38-.4.78-.59,1.17l-.24.54c-.19.44-.36.89-.52,1.35l-.15.41a21.63,21.63,0,0,0-.85,3.81.76.76,0,0,1,0,.15c-.07.61-.11,1.22-.13,1.84v.25c0,.6,0,1.21.05,1.82,0,.06,0,.13,0,.19.06.66.14,1.32.26,2v0h0a19.67,19.67,0,0,0,2.12,6.1s13.27,25.35,28.15,53.75l-115-63.51a9.14,9.14,0,0,0-9.81,15.35L350,156.22l-80.64,47.85a7.08,7.08,0,1,0,6,12.85h0l.27-.13.27-.15,89.41-48.58,49.91,38.7c.13.1.27.18.41.28.47.34.94.67,1.43,1l.84.5c.43.25.88.49,1.33.72s.7.35,1.06.51.78.34,1.18.49.83.32,1.26.46.72.23,1.08.33.9.25,1.36.35.73.16,1.1.22.89.16,1.34.22.81.09,1.22.12.81.07,1.22.08.92,0,1.38,0l1.07,0c.5,0,1-.08,1.5-.13l1-.13c.51-.08,1-.18,1.52-.29.33-.06.65-.14,1-.22.47-.12,1-.26,1.42-.41s.72-.24,1.07-.36.82-.32,1.22-.49.84-.37,1.25-.57l1-.5c.46-.26.92-.53,1.37-.81.17-.1.34-.18.5-.29l.51-.35.63-.45c.57-.41,1.12-.85,1.64-1.3l.42-.38c.47-.43.93-.88,1.37-1.34l.33-.34c.52-.57,1-1.16,1.49-1.78,0,0,.09-.09.13-.15l.19-.27q.45-.62.87-1.26c.09-.14.19-.28.28-.43.35-.56.68-1.13,1-1.72l.12-.23c.26-.51.5-1,.73-1.56l.22-.54c.19-.46.36-.93.52-1.4.05-.16.11-.33.17-.5.19-.63.37-1.26.52-1.91a1.06,1.06,0,0,0,0-.19c.13-.58.24-1.16.33-1.75,0-.19.06-.39.08-.59.07-.48.12-1,.15-1.45,0-.2,0-.39,0-.59,0-.66.06-1.32,0-2s0-1.17-.1-1.74c0-.21-.05-.42-.07-.64s-.09-.73-.15-1.09-.08-.48-.13-.72-.13-.68-.21-1-.11-.47-.16-.7-.2-.73-.31-1.08l-.18-.59c-.18-.54-.37-1.07-.58-1.59l-.16-.36c-.18-.42-.36-.84-.56-1.25l-.25-.49c-.19-.38-.39-.74-.6-1.11l-.26-.44c-.25-.42-.51-.83-.79-1.23,0-.06-.07-.12-.11-.17L429,133.43,623.32,27.85l.1-.05A13.76,13.76,0,0,0,625,27l.09,0,.05,0h0l0,0a12.32,12.32,0,0,0,1.37-1l.24-.2a14,14,0,0,0,1.12-1.06ZM391,72.23,538.61,44.29,418.07,115.82Z"/><rect x="342.16" y="75.84" width="105.51" height="105.51"/><rect class="cls-1" x="351.26" y="161.57" width="39.57" height="6.59"/><path class="cls-1" d="M350.82,103.62l3.07-2.9a3.44,3.44,0,0,0,2.7,1.6,2,2,0,0,0,2-2,1.69,1.69,0,0,0,0-.38V89h4.74V99.94a6.4,6.4,0,0,1-1.69,4.84,6.5,6.5,0,0,1-4.72,1.74A7,7,0,0,1,350.82,103.62Z"/><path class="cls-1" d="M364.38,89h13.83v4h-9.12v2.63h8.26v3.76h-8.26v2.72h9.24v4.06H364.38Z"/><path class="cls-1" d="M384.44,93.21H379.3V89h15.06v4.18H389.2v13h-4.76Z"/><path class="cls-1" d="M351.26,110.25h8.82a6.42,6.42,0,0,1,4.69,1.52,3.91,3.91,0,0,1,1.11,2.8v.05a4,4,0,0,1-2.66,3.83,4.17,4.17,0,0,1,3.42,4.2v0c0,3-2.41,4.74-6.51,4.74h-8.87Zm9.92,5.3c0-1-.76-1.47-2.16-1.47H355.9v3h3c1.45,0,2.28-.49,2.28-1.5v0Zm-1.64,4.89H355.9v3.17h3.69c1.47,0,2.28-.56,2.28-1.57V122C361.87,121.06,361.13,120.44,359.54,120.44Z"/><path class="cls-1" d="M367.35,110.25h8.13a7.58,7.58,0,0,1,5.6,1.84,5.37,5.37,0,0,1,1.53,4v0a5.46,5.46,0,0,1-3.54,5.31l4.1,6h-5.48l-3.46-5.2h-2.11v5.2h-4.77Zm7.93,8.25a2.15,2.15,0,0,0,2.52-1.73,1.55,1.55,0,0,0,0-.31v0c0-1.37-1-2.06-2.58-2.06h-3.14v4.15Z"/><path class="cls-1" d="M388.18,110.12h4.6l7.32,17.32H395l-1.23-3.09H387.1l-1.23,3.09h-5Zm4.18,10.52-1.92-4.87-1.94,4.87Z"/><path class="cls-1" d="M400.66,110.25h4.77v17.19h-4.77Z"/><path class="cls-1" d="M406.61,110.25h4.44l7.08,9.09v-9.09h4.72v17.19h-4.16L411.32,118v9.43h-4.71V110.25Z"/><path class="cls-1" d="M423.14,124.89l2.66-3.17a8.86,8.86,0,0,0,5.57,2.06c1.31,0,2-.44,2-1.18v0c0-.73-.56-1.1-2.92-1.67-3.66-.83-6.49-1.86-6.49-5.38v0c0-3.19,2.53-5.5,6.66-5.5a10.79,10.79,0,0,1,7.08,2.29l-2.39,3.36a8.38,8.38,0,0,0-4.81-1.69c-1.16,0-1.72.46-1.72,1.1v0c0,.79.59,1.13,3,1.67,3.93.86,6.38,2.14,6.38,5.36v0c0,3.51-2.77,5.6-6.95,5.6A12.11,12.11,0,0,1,423.14,124.89Z"/></svg>