<svg xmlns="http://www.w3.org/2000/svg" id="Layer_1" data-name="Layer 1" viewBox="0 0 322 138"><defs><style>.cls-1{fill:#fff}</style></defs><title>JPMC</title><path d="M6.021,58.783h9.265v.672h-.5a4.853,4.853,0,0,0-1.927.241,1.263,1.263,0,0,0-.6.907,19.4,19.4,0,0,0-.151,3.159v6.831a28.062,28.062,0,0,1-.2,3.866A5.915,5.915,0,0,1,10.8,77.05a5.946,5.946,0,0,1-2.434,1.94,8.631,8.631,0,0,1-3.539.676,6.171,6.171,0,0,1-3.487-.835A2.4,2.4,0,0,1,.116,76.838a1.678,1.678,0,0,1,.437-1.174,1.41,1.41,0,0,1,1.077-.47,1.5,1.5,0,0,1,1.091.422,1.4,1.4,0,0,1,.44,1.046,1.9,1.9,0,0,1-.179.766,1.38,1.38,0,0,0-.163.525.813.813,0,0,0,.556.735,3.3,3.3,0,0,0,1.384.264,4,4,0,0,0,2.825-1.068,4.325,4.325,0,0,0,1.38-2.522A33.909,33.909,0,0,0,9.2,70.57V63.754a20.469,20.469,0,0,0-.14-3.077,1.353,1.353,0,0,0-.593-.958A4.633,4.633,0,0,0,6.5,59.455H6.021v-.672Z" class="cls-1"/><path d="M23.479,68.623h1.433a9.109,9.109,0,0,0,2.8-.347,3.3,3.3,0,0,0,1.772-1.455,4.973,4.973,0,0,0,.71-2.735,4.837,4.837,0,0,0-1.22-3.648,5.6,5.6,0,0,0-3.954-1.164,14.027,14.027,0,0,0-1.537.063v9.286Zm0,.72v4.221a25.858,25.858,0,0,0,.113,3.1,1.561,1.561,0,0,0,.6,1.088,3.319,3.319,0,0,0,1.84.357H26.7v.671H17.483v-.671h.535a3.562,3.562,0,0,0,1.787-.322,1.5,1.5,0,0,0,.632-1.018,22.592,22.592,0,0,0,.132-3.192V63.764a21.6,21.6,0,0,0-.132-3.085,1.319,1.319,0,0,0-.6-.96,4.728,4.728,0,0,0-1.986-.264h-.373v-.672L20,58.68q3.02-.123,4.708-.12a18.19,18.19,0,0,1,4.788.485,5.619,5.619,0,0,1,2.755,1.729A4.591,4.591,0,0,1,33.324,63.9a5.626,5.626,0,0,1-.734,2.892,4.674,4.674,0,0,1-2.1,1.9,12.414,12.414,0,0,1-4.812.65Z" class="cls-1"/><path d="M50.022,75.333,57.3,58.783H63.47v.672h-.739a4.909,4.909,0,0,0-1.938.241,1.29,1.29,0,0,0-.612.907,18.673,18.673,0,0,0-.155,3.161v9.817a24.809,24.809,0,0,0,.117,3.093,1.593,1.593,0,0,0,.6,1.082,3.313,3.313,0,0,0,1.843.357h.887v.671H53.85v-.671h.712a3.538,3.538,0,0,0,1.776-.322,1.538,1.538,0,0,0,.637-1.014,21.269,21.269,0,0,0,.141-3.2V60.849l-7.88,17.935h-.718L40.562,60.849v11.72a23.462,23.462,0,0,0,.147,3.276,2.541,2.541,0,0,0,.914,1.525,3.606,3.606,0,0,0,2.159.743v.671h-7.2v-.671a3.673,3.673,0,0,0,2.1-.7,2.505,2.505,0,0,0,.986-1.54,20.647,20.647,0,0,0,.182-3.4V63.764a20.41,20.41,0,0,0-.141-3.085,1.354,1.354,0,0,0-.6-.96,4.664,4.664,0,0,0-1.982-.264h-.549v-.672h6.1l7.342,16.55Z" class="cls-1"/><path d="M67.226,71.04A8.862,8.862,0,0,0,68.7,76.614a5.3,5.3,0,0,0,4.416,1.856A4.969,4.969,0,0,0,77.2,76.614a8.72,8.72,0,0,0,1.5-5.551,8.845,8.845,0,0,0-1.479-5.5,5.752,5.752,0,0,0-8.525-.042,8.747,8.747,0,0,0-1.475,5.519Zm-2.618-.08a7.344,7.344,0,0,1,2.379-5.718A8.514,8.514,0,0,1,72.92,63.09a8.719,8.719,0,0,1,6,2.131,7.385,7.385,0,0,1,2.4,5.819,7.663,7.663,0,0,1-2.3,5.783,9.327,9.327,0,0,1-12.066,0,7.679,7.679,0,0,1-2.346-5.863Z" class="cls-1"/><path d="M303.345,71.04a8.881,8.881,0,0,0,1.473,5.574,5.3,5.3,0,0,0,4.417,1.856,4.975,4.975,0,0,0,4.086-1.856,8.72,8.72,0,0,0,1.5-5.551,8.806,8.806,0,0,0-1.483-5.5,5.748,5.748,0,0,0-8.522-.042,8.766,8.766,0,0,0-1.473,5.519Zm-2.619-.08a7.356,7.356,0,0,1,2.377-5.718,8.536,8.536,0,0,1,5.939-2.152,8.707,8.707,0,0,1,5.993,2.131,7.373,7.373,0,0,1,2.4,5.819,7.643,7.643,0,0,1-2.309,5.783,9.314,9.314,0,0,1-12.057,0,7.673,7.673,0,0,1-2.348-5.863Z" class="cls-1"/><path d="M88,70.822c.559-.017,1.134-.038,1.734-.068a6.25,6.25,0,0,0,1.555-.251,2.7,2.7,0,0,0,1.068-.595,2.671,2.671,0,0,0,.64-1.029,4.527,4.527,0,0,0,.238-1.568,3.971,3.971,0,0,0-.8-2.6q-.8-.976-3.484-.977c-.275,0-.6.015-.951.044v7.044Zm11.556,7.933H95.435a18.67,18.67,0,0,1-3.345-4.017q-.725-1.037-1.5-1.985a8.212,8.212,0,0,0-1.07-1.161,1.6,1.6,0,0,0-.914-.207H88v3.384a20.448,20.448,0,0,0,.084,2.361,1.2,1.2,0,0,0,.456.831,2.58,2.58,0,0,0,1.415.27h.743v.524h-7.37v-.524h.5a2.682,2.682,0,0,0,1.371-.249,1.131,1.131,0,0,0,.48-.78,16.4,16.4,0,0,0,.108-2.454V67.206a15.627,15.627,0,0,0-.108-2.373,1,1,0,0,0-.459-.735,3.726,3.726,0,0,0-1.546-.2H83.4v-.527l2.2-.1q2.2-.092,3.484-.094a12.923,12.923,0,0,1,3.572.405,4.852,4.852,0,0,1,2.226,1.344,3.2,3.2,0,0,1,.844,2.225,3.472,3.472,0,0,1-1.1,2.581,5.483,5.483,0,0,1-3.238,1.329q.968.454,3.1,3.344a16.027,16.027,0,0,0,2.726,3.064,4.111,4.111,0,0,0,2.339.769v.524Z" class="cls-1"/><path d="M110.2,72.187h6.648v.522a3.365,3.365,0,0,0-1.491.228,1.077,1.077,0,0,0-.521.738,14.823,14.823,0,0,0-.124,2.51v1.642a3.016,3.016,0,0,0-.487-.046,6.937,6.937,0,0,0-2.287.533,10.249,10.249,0,0,1-3.57.723,7.462,7.462,0,0,1-7.673-7.68,8.714,8.714,0,0,1,2.094-5.783,7.037,7.037,0,0,1,5.682-2.484,6.565,6.565,0,0,1,5.114,2.261,5.3,5.3,0,0,0,.481-1.737h.526v5.152h-.526a6.082,6.082,0,0,0-1.8-3.738,5.046,5.046,0,0,0-3.57-1.376,5.165,5.165,0,0,0-3.773,1.611q-1.611,1.6-1.609,5.71,0,4.089,1.544,5.794a4.974,4.974,0,0,0,3.838,1.7,4.677,4.677,0,0,0,2.138-.483,2.756,2.756,0,0,0,1.308-1.172,3.863,3.863,0,0,0,.353-1.753,5.284,5.284,0,0,0-.168-1.649.936.936,0,0,0-.508-.558,3.746,3.746,0,0,0-1.256-.146H110.2v-.522Z" class="cls-1"/><path d="M127.772,72.51,125.09,66l-2.683,6.506Zm.233.567h-5.834l-.4.974a9.927,9.927,0,0,0-.884,2.77,1.233,1.233,0,0,0,.471,1.052,1.952,1.952,0,0,0,1.22.358v.524h-4.631v-.524a2.515,2.515,0,0,0,1.529-.723,8.817,8.817,0,0,0,1.207-2.369c.05-.114.236-.552.559-1.319l4.489-10.65h.449l5.123,12.2.7,1.609a2.173,2.173,0,0,0,.643.852,2.281,2.281,0,0,0,1.207.4v.524h-6.04v-.524a4.6,4.6,0,0,0,1.5-.164.644.644,0,0,0,.391-.653,6.692,6.692,0,0,0-.523-1.487l-1.172-2.85Z" class="cls-1"/><path d="M149.609,79.114,138.7,64.684V75.357a7.549,7.549,0,0,0,.128,1.752,1.491,1.491,0,0,0,.739.769,3.755,3.755,0,0,0,1.833.353v.524h-5.72v-.524a4.03,4.03,0,0,0,1.667-.4,1.31,1.31,0,0,0,.681-.7,8.5,8.5,0,0,0,.106-1.768V67.206a10.827,10.827,0,0,0-.165-2.373,1.119,1.119,0,0,0-.523-.769,4.688,4.688,0,0,0-1.6-.168v-.527h4.588l9.1,12.039v-9.2a3.4,3.4,0,0,0-.21-1.428,1.486,1.486,0,0,0-.854-.647,4.52,4.52,0,0,0-1.555-.235v-.527h5.559V63.9a3.905,3.905,0,0,0-1.518.372,1.354,1.354,0,0,0-.705.707,4.474,4.474,0,0,0-.155,1.405V79.114Z" class="cls-1"/><path d="M178.682,71.334h.67v7.027h-.67a5.37,5.37,0,0,0-.962-2.117,8.535,8.535,0,0,1-6.7,2.964,9.521,9.521,0,0,1-7.048-2.74,9.8,9.8,0,0,1-2.736-7.246,12.672,12.672,0,0,1,1.26-5.578,8.542,8.542,0,0,1,3.526-3.882,9.943,9.943,0,0,1,4.953-1.269,8.793,8.793,0,0,1,4.042.92,8.066,8.066,0,0,1,2.707,2.028,7.082,7.082,0,0,0,.78-2.587h.673l.179,7.56h-.67c-.441-2.681-1.337-4.559-2.7-5.615a7.25,7.25,0,0,0-4.588-1.588,5.818,5.818,0,0,0-4.969,2.554q-1.842,2.549-1.837,7.3c0,3,.661,5.3,2,6.9a6.3,6.3,0,0,0,5.007,2.394,7.682,7.682,0,0,0,3.275-.782,5.7,5.7,0,0,0,2.648-2.643,9.884,9.884,0,0,0,1.155-3.6Z" class="cls-1"/><path d="M195.557,70.982h-8.011V74.7a20.156,20.156,0,0,0,.09,2.383,1.244,1.244,0,0,0,.463.836,2.593,2.593,0,0,0,1.421.27h.4v.523h-6.968V78.19h.4a2.671,2.671,0,0,0,1.373-.25,1.129,1.129,0,0,0,.493-.772,16.826,16.826,0,0,0,.107-2.459V67.168a15.972,15.972,0,0,0-.107-2.373,1.029,1.029,0,0,0-.46-.735,3.566,3.566,0,0,0-1.522-.206h-.286v-.52h6.968v.52h-.285a3.741,3.741,0,0,0-1.493.189.987.987,0,0,0-.478.695,14.09,14.09,0,0,0-.119,2.43v3.049h8.011V67.168a16.878,16.878,0,0,0-.1-2.373,1.033,1.033,0,0,0-.447-.735,3.482,3.482,0,0,0-1.5-.206H193.1v-.52h6.966v.52h-.22a3.644,3.644,0,0,0-1.483.189.985.985,0,0,0-.471.695,14.311,14.311,0,0,0-.119,2.43v7.541a19.907,19.907,0,0,0,.087,2.377,1.2,1.2,0,0,0,.452.834,2.57,2.57,0,0,0,1.408.27h.346v.523H193.1V78.19h.529a2.576,2.576,0,0,0,1.347-.25,1.154,1.154,0,0,0,.48-.776,17.818,17.818,0,0,0,.1-2.463V70.982Z" class="cls-1"/><path d="M211.422,72.474l-2.679-6.507-2.686,6.507Zm.229.566h-5.825l-.408.977a9.9,9.9,0,0,0-.881,2.765,1.223,1.223,0,0,0,.47,1.049,1.96,1.96,0,0,0,1.22.359v.523h-4.635V78.19a2.5,2.5,0,0,0,1.534-.72,9.062,9.062,0,0,0,1.211-2.373c.047-.111.229-.552.552-1.315l4.49-10.654h.452l5.121,12.2.7,1.61a2.177,2.177,0,0,0,.644.859,2.335,2.335,0,0,0,1.206.388v.523H211.46V78.19a4.642,4.642,0,0,0,1.5-.161.649.649,0,0,0,.393-.651,6.6,6.6,0,0,0-.525-1.492l-1.176-2.846Z" class="cls-1"/><path d="M219.465,78.556V73.6h.563q.963,4.835,4.571,4.834a3.337,3.337,0,0,0,2.511-.924A2.9,2.9,0,0,0,228,75.442a2.631,2.631,0,0,0-.779-1.938,9.528,9.528,0,0,0-2.854-1.654,20.478,20.478,0,0,1-2.786-1.39,4.247,4.247,0,0,1-1.47-1.547,4.161,4.161,0,0,1-.523-2.031,3.622,3.622,0,0,1,1.144-2.738,4.015,4.015,0,0,1,2.9-1.1,5.284,5.284,0,0,1,1.849.319,4.7,4.7,0,0,1,1.772,1.313,2.423,2.423,0,0,0,.594-1.346h.478v4.022h-.478a5.346,5.346,0,0,0-1.539-2.741,3.677,3.677,0,0,0-2.556-1,2.565,2.565,0,0,0-2.029.736,2.4,2.4,0,0,0-.645,1.612,2.309,2.309,0,0,0,.813,1.785,11.133,11.133,0,0,0,2.877,1.68,30.532,30.532,0,0,1,2.892,1.43,4.1,4.1,0,0,1,1.453,1.493,4.409,4.409,0,0,1,.544,2.2,4.192,4.192,0,0,1-1.321,3.209A4.926,4.926,0,0,1,224.814,79a5.387,5.387,0,0,1-4.23-1.94,3.76,3.76,0,0,0-.556,1.5Z" class="cls-1"/><path d="M244.771,73.921h.525l-.336,4.792H232.289V78.19h.318a2.335,2.335,0,0,0,1.467-.306,1.381,1.381,0,0,0,.42-.775,18.465,18.465,0,0,0,.088-2.4V67.168a17.145,17.145,0,0,0-.094-2.317,1.081,1.081,0,0,0-.444-.774,3.155,3.155,0,0,0-1.473-.223v-.52h10.95l.366,3.819h-.522a6.015,6.015,0,0,0-.887-2.272,2.2,2.2,0,0,0-1.244-.85,10.739,10.739,0,0,0-2.318-.177H236.8V70.3h1.62a4.384,4.384,0,0,0,1.558-.19,1.01,1.01,0,0,0,.586-.583,5.217,5.217,0,0,0,.14-1.521h.523v5.234h-.523a4.482,4.482,0,0,0-.214-1.718,1.032,1.032,0,0,0-.623-.567,5.277,5.277,0,0,0-1.39-.13H236.8v3.637a7.724,7.724,0,0,0,.352,3.208c.235.324.863.483,1.89.483h1.138a6,6,0,0,0,1.995-.281,3.346,3.346,0,0,0,1.483-1.251,7.472,7.472,0,0,0,1.112-2.7Z" class="cls-1"/><path d="M259.947,65.757q3.081-1.8,3.077-3.883a2.892,2.892,0,0,0-.685-2.012,2.545,2.545,0,0,0-3.607-.029,2.59,2.59,0,0,0-.673,1.826q0,1.5,1.888,4.1Zm-1.537,1.862a7.813,7.813,0,0,0-2.505,2.3,4.59,4.59,0,0,0-.888,2.553,5.259,5.259,0,0,0,1.535,3.587,4.575,4.575,0,0,0,3.465,1.693A5.239,5.239,0,0,0,264,75.627q-3.245-4.95-5.588-8.008Zm6.632-1.455h6.621v.718a5.125,5.125,0,0,0-2.18,1.2,9.5,9.5,0,0,0-1.923,3.245,14.185,14.185,0,0,1-1.527,2.887,12.723,12.723,0,0,0,2.593,3,3.523,3.523,0,0,0,2.008.635,2.456,2.456,0,0,0,2.238-1.388h.714a3.55,3.55,0,0,1-1.381,2.043,4.034,4.034,0,0,1-2.444.777,6.58,6.58,0,0,1-5.3-3.017q-2.717,3.02-5.748,3.017a5.959,5.959,0,0,1-2.83-.716,5.867,5.867,0,0,1-2.206-2.01,5.3,5.3,0,0,1-.85-2.986,5.017,5.017,0,0,1,1.061-3.255,18.921,18.921,0,0,1,4.059-3.318,8.044,8.044,0,0,1-1.808-4.542,3.982,3.982,0,0,1,1.232-2.86,4.182,4.182,0,0,1,3.1-1.255,5.144,5.144,0,0,1,3.009.94,2.888,2.888,0,0,1,1.338,2.464q0,2.373-4.435,4.6,2.755,3.71,5.191,7.177a11.666,11.666,0,0,0,1.39-2.545,6.317,6.317,0,0,0,.508-2.05q0-1.764-2.429-2.041v-.718Z" class="cls-1"/><path d="M296.286,71.267h.672v7.024h-.672a5.4,5.4,0,0,0-.961-2.114,8.556,8.556,0,0,1-6.7,2.965,9.533,9.533,0,0,1-7.052-2.739,9.8,9.8,0,0,1-2.738-7.251,12.648,12.648,0,0,1,1.264-5.577,8.55,8.55,0,0,1,3.524-3.883,9.959,9.959,0,0,1,4.953-1.266,8.762,8.762,0,0,1,4.043.917,8.065,8.065,0,0,1,2.707,2.029,7.2,7.2,0,0,0,.786-2.589h.667l.18,7.561h-.672q-.66-4.024-2.7-5.612A7.232,7.232,0,0,0,289,59.14a5.818,5.818,0,0,0-4.97,2.555q-1.84,2.545-1.838,7.3,0,4.5,2.007,6.9a6.287,6.287,0,0,0,5.007,2.394,7.694,7.694,0,0,0,3.276-.783,5.662,5.662,0,0,0,2.645-2.637,9.827,9.827,0,0,0,1.155-3.6Z" class="cls-1"/><path d="M318.73,77.479a1.692,1.692,0,0,1,1.687-1.682,1.687,1.687,0,0,1,1.2,2.887,1.662,1.662,0,0,1-1.2.5,1.6,1.6,0,0,1-1.2-.512,1.673,1.673,0,0,1-.491-1.188Z" class="cls-1"/></svg>