<svg xmlns="http://www.w3.org/2000/svg" id="Layer_1" data-name="Layer 1" viewBox="0 0 1641.8 351"><defs><style>.cls-1{fill:#fff;fill-rule:evenodd}</style></defs><title>Lyft</title><g id="Page-1"><g id="logos"><path id="logo_standard" d="M574.49,7.185h74.838V208.03c0,31.785,14.539,50.718,26.036,58.834-12.172,10.82-49.366,20.288-77.093-2.706-16.347-13.553-23.781-35.84-23.781-56.805Zm467.7,166.838V152.916h22.825V78.868h-25.065A98.763,98.763,0,0,0,844.683,99.83V272.755c15.535,2.183,34.043-.272,49.789-13.33,16.345-13.555,23.778-35.84,23.778-56.8V196.25h37.377V122.2H918.25V99.83h.09a25.1,25.1,0,0,1,50.193,0v74.193a98.772,98.772,0,0,0,98.777,98.732V199.1A25.111,25.111,0,0,1,1042.192,174.023ZM758.757,78.868V187.541a11.438,11.438,0,0,1-22.869,0V78.868h-74.05V206.679c0,22.991,7.8,52.069,43.281,61.537,35.522,9.478,56.128-10.142,56.128-10.142C759.37,271,747.2,280.468,727.585,282.5c-14.838,1.534-33.813-3.38-43.279-7.438v67.714c24.119,7.113,49.63,9.411,74.6,4.566,45.308-8.791,73.9-46.66,73.9-97.042V78.868Z" class="cls-1" data-name="logo standard"/></g></g></svg>