<svg xmlns="http://www.w3.org/2000/svg" id="Layer_1" data-name="Layer 1" viewBox="0 0 1641.8 351"><defs><style>.cls-1{fill:#fff}</style></defs><title>Macys</title><path d="M1520.147,152.247v-5.658c0-17.761-.166-35.525.113-53.283.071-4.5-1.465-5.527-5.567-5.423q-13.546.345-27.106-.013c-4.111-.1-5.518,1-5.5,5.462.171,53.907.106,107.816.115,161.724,0,1.512.142,3.025.226,4.7h37.933V185.659c1.923-.108,3.3-.251,4.673-.252,21.5-.011,43,.093,64.5-.09,3.977-.033,4.973,1.261,4.945,5.054-.154,21.5-.076,43-.076,64.5v4.944h37.5a7.563,7.563,0,0,0,.4-1.569q.034-83.433.086-166.865c0-2.785-1.193-3.461-3.639-3.444-10.593.075-21.187.06-31.781.113a16,16,0,0,0-2.742.595v63.6Z" class="cls-1"/><path d="M15.3,126.458q29.128,21.076,58.3,42.094c2.682,1.923,4.033,3.556,2.819,7.2C68.9,198.321,61.639,220.975,54.29,243.6c-.621,1.912-1.268,3.816-2.322,6.982,2.457-1.631,3.638-2.354,4.754-3.166,19.39-14.1,38.845-28.108,58.085-42.408,3.318-2.466,5.47-2.68,8.819-.191,15.863,11.79,31.915,23.324,47.9,34.947,4.856,3.53,9.72,7.05,15.4,11.17-.511-1.906-.7-2.765-.97-3.6Q174.4,211.864,162.822,176.4c-.876-2.682-1.752-4.906,1.494-7.2,15.641-11.032,31.077-22.355,46.563-33.607,5.8-4.211,11.527-8.509,18.35-13.553-2.921,0-4.31,0-5.7,0-24.611,0-49.223-.048-73.834.04-3,.011-4.8-.536-5.812-3.795-4.608-14.837-9.466-29.6-14.276-44.369-3.2-9.842-6.481-19.661-9.948-30.169a21.962,21.962,0,0,0-1.443,2.7c-7.593,23.339-15.3,46.642-22.613,70.068-1.371,4.392-3.294,5.672-7.779,5.634-25.679-.221-51.362-.108-78.408-.108" class="cls-1"/><path d="M1182.294,260.1h6.629l100.5,0c3.583,0,7.181.177,10.743-.1,1.166-.092,3.194-1.357,3.21-2.118.213-10.538.144-21.082.144-32.247H1220.4V189.807h74.478c0-9.971-.247-19.451.106-28.91.173-4.623-1.423-5.761-5.813-5.719-20.877.2-41.758.1-62.637.106-1.981,0-3.962,0-6.24,0V122.5h78.817V88.48H1182.294Z" class="cls-1"/><path d="M1466.725,108.481c-7.407-9.282-16.53-15.307-27-19.394-17.529-6.844-35.605-7.152-53.727-3.472-25.847,5.247-46.279,18.551-59.233,42.083-10.035,18.229-12.518,37.833-10.433,58.293,1.989,19.525,8.625,37.243,22.684,51,27.959,27.358,61.349,33.634,98.28,22.538,13.787-4.142,24.821-12.533,33.524-24.706L1439.764,211.6a22.947,22.947,0,0,0-1.621,1.712c-16.605,22.456-50.988,21.486-68.667,1.241-13.24-15.162-17.091-32.926-13.719-52.281,3.343-19.19,13.256-34.154,32.024-41.039,18.36-6.734,35.544-4.025,50.208,10.707Z" class="cls-1"/><path d="M1111.585,260.056v-7.809c0-41.9.067-83.8-.084-125.7-.016-4.387,1.029-5.909,5.645-5.8,12.921.309,25.854.113,38.782.092,1.642,0,3.283-.153,5.167-.246,0-8.763.068-17-.02-25.242-.083-7.808,1.5-7.387-7.588-7.4q-59.814-.058-119.626-.013a34.509,34.509,0,0,0-6.057.121c-1.072.194-2.794,1.378-2.808,2.142-.189,10.061-.126,20.126-.126,30.656h5.637q18.691,0,37.383,0c6.176,0,6.2,0,6.2,6.042q.018,62.85.019,125.7a22.391,22.391,0,0,0,.2,5.113c.216.9,1.434,2.227,2.214,2.237C1088.013,260.1,1099.5,260.056,1111.585,260.056Z" class="cls-1"/><path d="M358.872,131.358c-10.591-19.272-26.042-30.417-47.063-32.538-20.945-2.113-38.174,6-52.77,23V102.3H247.558v151.9h11.575v-5.918q.006-45.576.046-91.154a48.8,48.8,0,0,1,.765-8.8c4.257-22.812,24.539-39.7,48.273-38.238,25.9,1.59,44.7,21.732,44.68,46.216q-.045,46.278.022,92.556c0,1.8,0,3.6,0,5.335h11.873v-6.4q0-45.811.034-91.622a42.144,42.144,0,0,1,.825-8.8c5.147-23.742,26.08-38.794,48.141-37.256,26.126,1.823,44.411,21.484,44.413,46.351q0,46.512,0,93.023v4.733H470.3V249.3c0-26.489.057-52.978-.038-79.467a186.079,186.079,0,0,0-.883-19.988c-4.636-41.437-51.078-64.576-87.066-43.522C372.252,112.211,364.75,120.509,358.872,131.358Z" class="cls-1"/><path d="M792.7,148.024c-6.5-30.113-48.03-54.583-83-49.4-40.8,6.048-70.378,42.405-67.255,82.67,3.232,41.671,37.6,73.405,78.716,72.684,32.205-.564,70.079-27.132,71.232-50.009a28.307,28.307,0,0,1-4.607-.038c-5.28-.886-8.045,1.324-10.879,5.984-13.01,21.4-32.626,32.594-57.486,32.168-41.389-.71-71.017-37.234-63.9-78.032a65.245,65.245,0,0,1,67.037-54c25.03.893,43.955,13.156,56.347,35.158.652,1.158,2,2.567,3.144,2.683C785.539,148.248,789.083,148.024,792.7,148.024Z" class="cls-1"/><path d="M916.941,102.037c-3.42,0-6.038.28-8.57-.066-3.8-.518-5.4,1.193-6.754,4.559q-21.825,54.326-43.923,108.54c-2.478,6.109-4.986,12.205-7.888,19.305-5.211-12.9-9.994-24.668-14.725-36.459q-18.413-45.888-36.848-91.765c-.619-1.532-1.965-3.66-3.237-3.864-3.38-.543-6.9-.184-10.9-.184,1.077,2.886,1.788,4.918,2.586,6.915q27.62,69.086,55.164,138.2a9.747,9.747,0,0,1,.062,6.486c-4.173,10.884-8.692,21.637-13.067,32.444-2.72,6.72-5.4,13.458-8.352,20.842,3.062,0,5.429-.35,7.649.074,4.4.84,6.1-1.189,7.665-5.058q34.683-85.854,69.66-171.59C909.191,121.243,912.89,112.055,916.941,102.037Z" class="cls-1"/><path d="M903.785,201.551c.81,5.2,1.285,9.98,2.325,14.637,6.4,28.685,33.814,45.435,60.429,36.51,17.645-5.917,28.036-18.745,30.775-37.068,2.59-17.334-4.544-30.9-18.979-40.161-7.659-4.916-16.277-8.351-24.512-12.35-4.745-2.3-9.738-4.13-14.357-6.653-6.862-3.748-10.583-9.756-11.675-17.56a26.489,26.489,0,0,1,23-29.919c13.334-1.843,28.743,9.45,29.892,22.428.373,4.218,1.792,5.471,5.674,5a53.317,53.317,0,0,1,5.948-.037c-.241-3.3-.133-5.965-.668-8.5-4.283-20.248-24.595-33.522-45.678-29.315-14.933,2.979-24.737,12.492-28.342,27.153-3.492,14.2-1.086,27.628,11.289,36.986,5.852,4.425,13.011,7.145,19.641,10.513,8.155,4.144,16.954,7.308,24.449,12.4,16,10.882,18.078,30.714,5.644,45.627C962.408,250.721,932.923,247.235,921.2,224c-3.42-6.778-4.741-14.615-7.176-22.453Z" class="cls-1"/><path d="M930.267,55.118c-.688,10.417-6.552,12.756-15.46,11.187,3.127,2.9,7.227,4.477,8.127,7.138.955,2.823-1.139,6.671-1.861,10.08-.04.187.293.453.861,1.273,5.5-7.44,11.486-6.635,17.645.027-.7-4.28-3.029-8.186-2.05-10.892,1.055-2.916,5.213-4.709,8.017-6.992C936.585,68.329,931.505,64.95,930.267,55.118Z" class="cls-1"/><path d="M1520.147,152.247h74.074v-63.6a16,16,0,0,1,2.742-.595c10.594-.053,21.188-.038,31.781-.113,2.446-.017,3.643.659,3.639,3.444q-.107,83.433-.086,166.865a7.563,7.563,0,0,1-.4,1.569h-37.5v-4.944c0-21.5-.078-43,.076-64.5.028-3.793-.968-5.087-4.945-5.054-21.5.183-43,.079-64.5.09-1.375,0-2.75.144-4.673.252v74.093h-37.933c-.084-1.671-.226-3.184-.226-4.7-.009-53.908.056-107.817-.115-161.724-.014-4.459,1.393-5.565,5.5-5.462q13.546.339,27.106.013c4.1-.1,5.638.924,5.567,5.423-.279,17.758-.114,35.522-.113,53.283Z" class="cls-1"/><path d="M9.417,122.041c27.046,0,52.729-.113,78.408.108,4.485.038,6.408-1.242,7.779-5.634,7.313-23.426,15.02-46.729,22.613-70.068a21.962,21.962,0,0,1,1.443-2.7c3.467,10.508,6.743,20.327,9.948,30.169,4.81,14.773,9.668,29.532,14.276,44.369,1.012,3.259,2.815,3.806,5.812,3.795,24.611-.088,49.223-.044,73.834-.04,1.389,0,2.778,0,5.7,0-6.823,5.044-12.555,9.342-18.35,13.553-15.486,11.252-30.922,22.575-46.563,33.607-3.246,2.29-2.37,4.514-1.494,7.2q11.575,35.469,23.138,70.942c.271.831.459,1.69.97,3.6-5.681-4.12-10.545-7.64-15.4-11.17-15.988-11.623-32.04-23.157-47.9-34.947-3.349-2.489-5.5-2.275-8.819.191-19.24,14.3-38.7,28.31-58.085,42.408-1.116.812-2.3,1.535-4.754,3.166,1.054-3.166,1.7-5.07,2.322-6.982,7.349-22.624,14.609-45.278,22.124-67.846,1.214-3.645-.137-5.278-2.819-7.2q-29.224-20.944-58.3-42.094" class="cls-1"/><path d="M1182.294,260.1V88.48h116.817V122.5h-78.817v32.784c2.278,0,4.259,0,6.24,0,20.879-.006,41.76.095,62.637-.106,4.39-.042,5.986,1.1,5.813,5.719-.353,9.459-.106,18.939-.106,28.91H1220.4v35.825h83.121c0,11.165.069,21.709-.144,32.247-.016.761-2.044,2.026-3.21,2.118-3.562.281-7.16.1-10.743.1l-100.5,0Z" class="cls-1"/><path d="M1466.725,108.481l-28.736,23.459c-14.664-14.732-31.848-17.441-50.208-10.707-18.768,6.885-28.681,21.849-32.024,41.039-3.372,19.355.479,37.119,13.719,52.281,17.679,20.245,52.062,21.215,68.667-1.241a22.947,22.947,0,0,1,1.621-1.712l31.056,23.223c-8.7,12.173-19.737,20.564-33.524,24.706-36.931,11.1-70.321,4.82-98.28-22.538-14.059-13.757-20.7-31.475-22.684-51-2.085-20.46.4-40.064,10.433-58.293,12.954-23.532,33.386-36.836,59.233-42.083,18.122-3.68,36.2-3.372,53.727,3.472C1450.2,93.174,1459.318,99.2,1466.725,108.481Z" class="cls-1"/><path d="M1111.585,260.056c-12.088,0-23.572.045-35.053-.1-.78-.01-2-1.334-2.214-2.237a22.391,22.391,0,0,1-.2-5.113q-.014-62.85-.019-125.7c0-6.038-.029-6.041-6.2-6.042q-18.692,0-37.383,0h-5.637c0-10.53-.063-20.595.126-30.656.014-.764,1.736-1.948,2.808-2.142a34.509,34.509,0,0,1,6.057-.121q59.813,0,119.626.013c9.088.009,7.5-.412,7.588,7.4.088,8.239.02,16.479.02,25.242-1.884.093-3.525.243-5.167.246-12.928.021-25.861.217-38.782-.092-4.616-.111-5.661,1.411-5.645,5.8.151,41.9.087,83.8.084,125.7Z" class="cls-1"/><path d="M358.872,131.358c5.878-10.849,13.38-19.147,23.444-25.035,35.988-21.054,82.43,2.085,87.066,43.522a186.079,186.079,0,0,1,.883,19.988c.1,26.489.039,52.978.038,79.467v4.93H458.209V249.5q0-46.511,0-93.023c0-24.867-18.287-44.528-44.413-46.351-22.061-1.538-42.994,13.514-48.141,37.256a42.144,42.144,0,0,0-.825,8.8q-.086,45.811-.034,91.622v6.4H352.919c0-1.737,0-3.536,0-5.335q-.015-46.278-.022-92.556c.024-24.484-18.784-44.626-44.68-46.216-23.734-1.457-44.016,15.426-48.273,38.238a48.8,48.8,0,0,0-.765,8.8q-.087,45.578-.046,91.154v5.918H247.558V102.3h11.481v19.517c14.6-17,31.825-25.112,52.77-23C332.83,100.941,348.281,112.086,358.872,131.358Z" class="cls-1"/><path d="M792.7,148.024c-3.621,0-7.165.224-10.651-.127-1.143-.116-2.492-1.525-3.144-2.683-12.392-22-31.317-34.265-56.347-35.158a65.245,65.245,0,0,0-67.037,54c-7.118,40.8,22.51,77.322,63.9,78.032,24.86.426,44.476-10.77,57.486-32.168,2.834-4.66,5.6-6.87,10.879-5.984a28.307,28.307,0,0,0,4.607.038c-1.153,22.877-39.027,49.445-71.232,50.009-41.117.721-75.484-31.013-78.716-72.684-3.123-40.265,26.455-76.622,67.255-82.67C744.674,93.441,786.2,117.911,792.7,148.024Z" class="cls-1"/><path d="M916.941,102.037c-4.051,10.018-7.75,19.206-11.48,28.381Q870.592,216.2,835.8,302.008c-1.562,3.869-3.263,5.9-7.665,5.058-2.22-.424-4.587-.074-7.649-.074,2.957-7.384,5.632-14.122,8.352-20.842,4.375-10.807,8.894-21.56,13.067-32.444a9.747,9.747,0,0,0-.062-6.486q-27.453-69.151-55.164-138.2c-.8-2-1.509-4.029-2.586-6.915,4,0,7.522-.359,10.9.184,1.272.2,2.618,2.332,3.237,3.864Q816.746,152,835.081,197.916c4.731,11.791,9.514,23.561,14.725,36.459,2.9-7.1,5.41-13.2,7.888-19.305q22-54.253,43.923-108.54c1.353-3.366,2.951-5.077,6.754-4.559C910.9,102.317,913.521,102.037,916.941,102.037Z" class="cls-1"/><path d="M903.785,201.551h10.241c2.435,7.838,3.756,15.675,7.176,22.453,11.721,23.231,41.206,26.717,57.442,7.244,12.434-14.913,10.361-34.745-5.644-45.627-7.5-5.1-16.294-8.26-24.449-12.4-6.63-3.368-13.789-6.088-19.641-10.513-12.375-9.358-14.781-22.781-11.289-36.986,3.605-14.661,13.409-24.174,28.342-27.153,21.083-4.207,41.395,9.067,45.678,29.315.535,2.532.427,5.2.668,8.5a53.317,53.317,0,0,0-5.948.037c-3.882.472-5.3-.781-5.674-5-1.149-12.978-16.558-24.271-29.892-22.428a26.489,26.489,0,0,0-23,29.919c1.092,7.8,4.813,13.812,11.675,17.56,4.619,2.523,9.612,4.349,14.357,6.653,8.235,4,16.853,7.434,24.512,12.35,14.435,9.264,21.569,22.827,18.979,40.161-2.739,18.323-13.13,31.151-30.775,37.068-26.615,8.925-54.025-7.825-60.429-36.51C905.07,211.531,904.6,206.748,903.785,201.551Z" class="cls-1"/><path d="M930.267,55.118c1.238,9.832,6.318,13.211,15.279,11.821-2.8,2.283-6.962,4.076-8.017,6.992-.979,2.706,1.353,6.612,2.05,10.892-6.159-6.662-12.145-7.467-17.645-.027-.568-.82-.9-1.086-.861-1.273.722-3.409,2.816-7.257,1.861-10.08-.9-2.661-5-4.24-8.127-7.138C923.715,67.874,929.579,65.535,930.267,55.118Z" class="cls-1"/><path d="M623.039,102.432V133.76c-30.725-43.978-86.769-45.07-118.948-15.174a78.469,78.469,0,0,0-2.534,112.527c30.8,31.46,90,33.044,121.573-12.743v35.954h11.558V102.432Zm-66.4,139.876c-36.365-.346-65.936-30.416-65.765-66.872.169-35.917,30.577-65.9,66.523-65.6,36.212.308,65.844,30.224,65.742,66.371C623.038,212.543,592.746,242.651,556.64,242.308Z" class="cls-1"/></svg>