<svg xmlns="http://www.w3.org/2000/svg" id="Layer_1" data-name="Layer 1" viewBox="0 0 1641.8 351"><defs><style>.cls-1{fill:#fff}.cls-2{fill:none;stroke:#fcfcfc;stroke-miterlimit:10;stroke-width:10.781px}</style></defs><title>Matrix</title><path d="M614.558,110.255c0,48.77.043,95.637-.1,142.5-.01,3.2-.39,7.343-2.341,9.37-3.423,3.556-9.668.221-9.84-5.077-.282-8.685-.13-17.385-.131-26.079-.006-44-.091-88,.161-131.993.021-3.635,1.393-9.374,3.793-10.453,5.376-2.417,9.8,1.038,12.784,6.215q34.137,59.222,68.444,118.345c.639,1.1,1.266,2.214,2.395,4.189,8.645-15.242,16.912-29.764,25.13-44.315,14.638-25.918,29.192-51.884,43.948-77.734,1.481-2.593,3.706-5.4,6.287-6.6,6.777-3.152,10.755-.127,10.77,7.889q.112,57.7.042,115.4,0,21.34-.017,42.68c-.008,4.336.195,8.581-6.279,8.555-6.516-.026-6.173-4.344-6.174-8.638q-.025-66.392-.018-132.784v-7.749l-1.638-.595c-3.619,6.194-7.32,12.341-10.841,18.59q-26.183,46.474-52.283,92.993c-5.932,10.559-11.43,10.771-17.449.4q-31.734-54.678-63.31-109.45C617.117,114.563,616.315,113.23,614.558,110.255Z" class="cls-1"/><path d="M1175.962,183.178l62.479,78.471c-8.227,2.725-14.178,1.838-19.286-4.737-15.667-20.166-31.984-39.841-47.233-60.313-6.828-9.166-14.423-13.345-25.94-12.659-14.143.843-14.183.2-14.186,14.167q0,28.044,0,56.089c0,4.647.267,9.037-6.657,8.978-7.008-.06-6.463-4.65-6.464-9.172-.011-52.4.087-104.807-.122-157.209-.028-6.823,2.164-9.6,9.075-9.217,19.154,1.051,38.488.54,57.447,3,23.244,3.011,36.594,17.765,38.3,38.614,1.834,22.441-9.755,40.969-30.849,48.932C1187.386,180.058,1182.005,181.353,1175.962,183.178Zm-21.239-85.255-.083.808c-5.527,0-11.056.093-16.58-.03-4.276-.095-6.26,1.724-6.247,6.079q.088,31.582-.018,63.164c-.023,4.906,2.415,6.376,6.876,6.3,9.735-.171,19.547.571,29.186-.428a72.759,72.759,0,0,0,21.943-5.743c14.683-6.58,22.446-21.761,20.45-37.528-2.083-16.458-10.855-26.149-28.168-29.587C1173.115,99.174,1163.852,98.886,1154.723,97.923Z" class="cls-1"/><path d="M956.243,261.671c-7.922,2.966-12.774,1.293-15.683-6.176-5.157-13.239-10.863-26.264-15.948-39.529-1.909-4.977-4.826-6.779-10.049-6.738q-35.526.279-71.056-.022c-5.455-.055-8.012,2.3-9.837,7.044-4.912,12.77-10.1,25.434-15.262,38.1-3.61,8.86-5.068,9.568-16.08,7.7.846-2.72,1.463-5.389,2.486-7.892q32.4-79.28,64.832-158.55c1.949-4.782,4.135-8.117,10.091-8.037,5.791.079,7.4,3.732,9.175,8.076q32.08,78.561,64.288,157.069C954.357,255.547,955.178,258.512,956.243,261.671ZM879.325,103.78,841,198.655h76.574C904.791,166.94,892.435,136.294,879.325,103.78Z" class="cls-1"/><path d="M1324.135,89.47c8.492-3.271,14.005-1.62,18.585,5.107,14.231,20.9,28.727,41.617,43.152,62.383,1.755,2.527,3.706,4.919,6.242,8.267,2.846-3.6,5.2-6.307,7.259-9.222,14.444-20.43,28.944-40.823,43.162-61.411,4.392-6.359,9.636-8.293,17.971-5.478-1.82,3.038-3.186,5.716-4.911,8.138-16.349,22.953-32.588,45.989-49.283,68.69-3.848,5.232-3.562,8.87.026,13.933,17.666,24.926,35.012,50.078,52.443,75.169,1.429,2.056,2.654,4.252,4.314,6.933-8.6,2.385-14.361,1.111-19.139-6.068-15.029-22.583-30.539-44.845-45.891-67.211-1.588-2.313-3.362-4.5-5.739-7.657-8.64,12.23-16.649,23.55-24.64,34.883-9.409,13.346-18.746,26.744-28.222,40.041-5.449,7.648-7.208,8.171-18.425,6.025,2.911-4.362,5.543-8.48,8.347-12.477,16.337-23.285,32.574-46.642,49.19-69.727,3.575-4.967,3.248-8.435-.214-13.2-15.628-21.524-30.93-43.285-46.3-65C1329.4,97.822,1327.006,93.871,1324.135,89.47Z" class="cls-1"/><path d="M1011.173,181.109c-.006-23.7-.31-47.412.162-71.106.162-8.143-2.635-10.517-10.486-10.226-14.2.526-28.438.161-42.66.125-4.312-.011-8.7.209-8.628-6.237.072-6.539,4.675-6,8.851-6q59.257-.063,118.515-.011c4.33,0,8.794-.119,8.709,6.233-.086,6.394-4.691,6-8.928,6.011-14.485.055-28.977.3-43.452-.083-6.959-.185-9.1,2.389-9.065,9.208.214,48.2.131,96.392.07,144.588-.006,4.266,1.174,9.3-6.026,9.55-6.6.23-7.107-3.575-7.091-8.572C1011.222,230.1,1011.179,205.6,1011.173,181.109Z" class="cls-1"/><path d="M1288.71,175.967q0,39.122.008,78.241c0,4.69.17,9-6.7,8.969-7.033-.029-6.473-4.622-6.474-9.146q-.014-78.636-.024-157.273c0-4.8.144-9.059,6.773-9.067,6.931-.009,6.42,4.682,6.42,9.244Q1288.709,136.451,1288.71,175.967Z" class="cls-1"/><circle cx="335.535" cy="175.5" r="156.83" class="cls-2"/></svg>