<svg xmlns="http://www.w3.org/2000/svg" xmlns:xlink="http://www.w3.org/1999/xlink" id="Layer_1" x="0" y="0" enable-background="new 515 222 1641.8 351" version="1.1" viewBox="515 222 1641.8 351" xml:space="preserve"><style type="text/css">.st0{fill:#fff}</style><title>Microsoft</title><path d="M598.1,388.9c-26,0-52-0.1-78,0.1c-3.6,0-5.2-0.4-5.1-4.7c0.2-52.6,0.2-105.3,0-157.9c0-3.6,1-4.4,4.4-4.4	c52.6,0.1,105.3,0.1,157.9,0c3.7,0,4.7,0.9,4.7,4.7c-0.1,52.5-0.1,104.9,0,157.4c0,4-1.1,5-5,4.9	C650.7,388.8,624.4,388.9,598.1,388.9z" class="st0"/><path d="M699.1,305.6c0-26.3,0.1-52.6-0.1-78.9c0-3.7,0.8-4.7,4.6-4.7c52.6,0.1,105.3,0.1,157.9,0	c3.4,0,4.5,0.8,4.5,4.4c-0.1,52.6-0.1,105.3,0,157.9c0,3.7-0.9,4.8-4.7,4.8c-52.6-0.1-105.3-0.1-157.9,0c-3.5,0-4.4-1-4.4-4.4	C699.2,358.2,699.1,331.9,699.1,305.6z" class="st0"/><path d="M515.1,489.3c0-26.3,0.1-52.6-0.1-78.9c0-3.5,0.8-4.4,4.4-4.4c52.6,0.1,105.3,0.1,157.9,0	c3.7,0,4.8,0.8,4.8,4.6c-0.1,52.5-0.1,104.9,0,157.4c0,3.9-0.9,5-4.9,5c-52.5-0.1-104.9-0.1-157.4,0c-3.8,0-4.7-1-4.7-4.7	C515.2,542,515.1,515.7,515.1,489.3z" class="st0"/><path d="M699.1,489.4c0-26.3,0.1-52.6-0.1-78.9c0-3.4,0.8-4.5,4.3-4.5c52.8,0.1,105.6,0.1,158.4,0	c3.2,0,4.3,0.7,4.3,4.1c-0.1,53-0.1,105.9,0,158.9c0,3-0.7,4-3.9,4c-53.1-0.1-106.2-0.1-159.4,0c-4.1,0-3.6-2.1-3.6-4.7	C699.1,542,699.1,515.7,699.1,489.4z" class="st0"/><path d="M1084.6,451.6c6-16.9,11.9-32.7,18.4-48.4c14.7-35.5,29.2-71,43.6-106.7c1.3-3.2,2.8-4.5,6.5-4.5	c13.5,0.3,27,0.2,40.5,0c3.2,0,4.7,0.4,4.7,4.2c-0.1,67.3-0.1,134.7,0,202c0,3.6-1.1,4.5-4.5,4.4c-9.3-0.2-18.7-0.2-28,0	c-3.3,0.1-4.3-1.1-4.3-4.3c0.1-43.7,0-87.3,0.1-131c0-11.5,1-22.9,1.4-32.8c-19.1,51.7-41.6,103.5-62.4,155.9	c-4.8,12.1-5,12.1-18.3,12.1c-10.5,0-10.5,0-14.4-9.6c-19.1-46.4-38.3-92.9-57.5-139.3c-2.3-5.5-3.7-11.3-5.7-17.6	c0,7.8,0,14.9,0,22c0.1,35.6,0.2,71.3,0.2,107c0,11-0.1,22,0.1,33c0.1,3.4-0.8,4.7-4.4,4.6c-8.7-0.2-17.3-0.2-26,0	c-3.4,0.1-4.2-1.2-4.2-4.4c0.1-67.3,0.1-134.7,0-202c0-3.2,0.8-4.3,4.2-4.3c14.7,0.2,29.3,0.1,44,0c2.4,0,3.9,0.5,4.9,3	c19.2,49.3,39.8,98,58.1,147.6C1082.7,445.4,1083.4,448,1084.6,451.6z" class="st0"/><path d="M2071.3,310.1c-4.3-1.1-7.6-2.7-11.3-3.3c-16.1-2.5-26,4.7-27.6,20.8c-0.7,7.1-0.2,14.3-0.3,21.5	c0,2.3,1.1,2.7,3.1,2.7c15.5,0,31-0.1,46.5,0c2.7,0,3.4-1,3.4-3.5c-0.1-8.7,0.1-17.3-0.1-26c-0.1-3.3,0.7-5.1,4.2-6	c9.3-2.6,18.5-5.4,27.6-8.5c3.9-1.3,4.1,0.2,4.1,3.3c-0.1,12,0.1,24-0.1,36c-0.1,3.7,1,4.9,4.8,4.8c8.8-0.3,17.7,0.2,26.5-0.2	c4.2-0.1,5.1,1.3,4.9,5.1c-0.3,6.5-0.2,13,0,19.5c0.1,3.4-0.9,4.7-4.5,4.6c-9.2-0.2-18.3,0-27.5-0.1c-2.8,0-4.2,0.4-4.2,3.8	c0.2,23.5-0.1,47,0.4,70.5c0.4,18.8,13.5,26.5,30.7,18.8c4.9-2.2,5-2.2,5,3.4c0,6.5-0.1,13,0,19.5c0.1,2.9-0.7,4.6-3.7,5.5	c-12.6,4-25.4,5.2-38.4,2.2c-14.7-3.4-23.6-12.9-27.5-27.3c-1.6-6.5-2.4-13.1-2.2-19.8c0-23.8-0.1-47.7,0.1-71.5	c0-3.8-0.8-5.2-4.9-5.1c-14.5,0.3-29,0.3-43.5,0c-3.8-0.1-4.6,1.1-4.6,4.8c0.1,37.2,0,74.3,0.2,111.5c0,4.6-1.2,5.9-5.8,5.7	c-8.1-0.4-16.3-0.4-24.5,0c-4.7,0.2-6.2-0.9-6.1-5.9c0.2-36.8,0-73.6,0.2-110.5c0-4.3-0.9-6-5.4-5.6c-5.3,0.4-10.7,0-16,0.1	c-2.4,0.1-3.7-0.4-3.6-3.3c0.2-7.5,0.2-15,0-22.5c-0.1-2.7,1-3.4,3.5-3.3c5.8,0.1,11.7-0.1,17.5,0.1c3,0.1,4-0.8,4-3.9	c-0.1-8.7-0.8-17.4,0.5-26c4.5-28.6,25.8-45.8,55.5-45.2c5.5,0,11,0.6,16.3,2c1.8,0.5,3,1.2,3,3.3	C2071.2,291.3,2071.3,300.5,2071.3,310.1z" class="st0"/><path d="M1888.8,506c-36.3,0-63.2-18.3-72.2-50c-5.7-19.7-5.2-40.6,1.5-60c6.8-19.9,20-33.9,39.5-41.8	c14.2-5.7,29-7,44.1-5.8c10.7,0.9,21,3.3,30.6,8.5c16.3,8.8,26.6,22.4,31.7,40c5.3,18,5.5,37.1,0.6,55.2	c-8.7,32.5-35.8,53.2-70.3,53.9C1892.4,506,1890.6,506,1888.8,506z M1850,427.5c-0.3,7.6,0.7,15.1,3.1,22.3	c5.8,17.5,20.4,27.4,39.4,26.8s31-10.1,35.9-28.7c3.5-13.1,3.6-26.8,0.5-40c-4.3-18.2-17.4-29.5-34.4-30.1	c-21.6-0.7-35.4,8.5-41.4,27.7C1850.7,412.7,1849.7,420.1,1850,427.5z" class="st0"/><path d="M1601.8,505.9c-20.2,0.1-38.5-4.9-53.7-18.9c-9.9-9.1-16.7-21-19.7-34.1c-4.5-18.9-4.2-37.8,2.1-56.1	c9.7-28.4,30.5-43.5,59.7-47.7c14.5-2.1,28.9-1.5,43,2.9c20.6,6.5,34.9,20,41.9,40.3c8.6,25.2,8.3,50.5-3.7,74.7	c-11,22.3-29.9,34.2-54.2,37.9c-2.5,0.4-5,0.7-7.4,0.8C1607.2,506,1604.5,505.9,1601.8,505.9z M1603.7,377.9	c-19.6,0-33.2,10.1-38.4,29.1c-2.9,10.2-3.2,20.6-2.1,31.1c2.5,22.6,15.4,36.4,37.5,38.2c18.3,1.5,33.6-5.9,39.6-25.5	c4.4-14.2,4.8-29.4,1-43.8C1636.5,388,1623.3,377.9,1603.7,377.9L1603.7,377.9z" class="st0"/><path d="M1789.7,387.5c-10.3-6.2-20.5-10.1-31.6-10.7c-4.5-0.2-9-0.3-13.3,1.2c-5.7,2-10.1,5.3-10.9,11.7	c-0.8,6.6,1.3,12.1,7.3,15.7c5.8,3.3,11.8,6.2,18,8.6c6.8,2.8,13.3,6.2,19.5,10c25.8,15.6,25.1,54.4,0.5,71	c-15.5,10.4-32.8,12.3-50.7,10.7c-9.5-0.8-18.8-3-27.6-6.4c-2.3-0.9-3.4-2.1-3.4-4.7c0.1-10.1,0-20.3,0-30.3	c1.4-0.8,2.1,0.1,2.8,0.7c10.7,7.4,23.2,11.9,36.3,12.9c5.5,0.5,11-0.2,16.2-2.1c7.3-2.6,11-10.7,8.4-17.9c-0.9-2.5-2.5-4.7-4.7-6.3	c-6.4-5.2-14.2-8-21.6-11.2c-5.7-2.4-11.1-5.2-16.6-8.1c-27.1-14.5-28-55.7-2.1-72.9c14.3-9.5,30.1-12,46.8-10.5	c7.8,0.6,15.5,2.2,22.9,4.6c2.1,0.7,4,1.4,3.9,4.3C1789.6,367.1,1789.7,376.8,1789.7,387.5z" class="st0"/><path d="M1410,390.6c-8.5-5.8-16.5-10-25.6-11.9c-28.2-5.7-52.8,12.4-55.2,41.2c-1,12.1-0.4,24,5.5,35	c10.2,18.9,32.8,26.4,55.5,18.6c5.8-2,11.4-4.7,16.4-8.3c2.4-1.7,3.4-1.5,3.4,1.7c-0.1,8.7-0.1,17.3,0,26c0.2,1.8-0.8,3.6-2.6,4.3	c-25.4,13.3-72.4,14.7-97.7-14.9c-9.4-10.8-15.3-24-17.1-38.2c-2.9-23,0.1-45,13.6-64.4c16.5-23.5,40.5-31.8,68.2-31.6	c10.5,0.1,20.9,2,30.8,5.7c3.4,1.3,5,2.9,4.8,6.8C1409.8,370.3,1410,379.9,1410,390.6z" class="st0"/><path d="M1472,375.2c4.2-6.7,8-13.1,14-17.9c10.3-8.2,22-9.7,34.5-7.1c1.8,0.4,3.6,0.8,3.5,3.4c-0.1,11,0,21.9,0,33.4	c-5.7-3.1-12-4.9-18.5-5.4c-10.8-0.6-19.1,3.6-25.1,12.4c-6.3,9.1-8.4,19.4-8.4,30.3c0,24.3-0.1,48.7,0.1,73c0,4.1-1,5.5-5.3,5.3	c-9-0.3-18-0.2-27-0.1c-2.7,0-3.8-0.7-3.8-3.6c0.1-47.8,0.1-95.7,0-143.5c0-2.7,0.6-3.8,3.6-3.8c9.5,0.2,19,0.2,28.5,0	c3.2-0.1,4,1.1,3.9,4C1471.8,362.3,1472,368.8,1472,375.2z" class="st0"/><path d="M1267.5,427.5c0,23.3-0.1,46.6,0.1,70c0,4-1.2,5.1-5.1,5c-8.7-0.3-17.3-0.2-26,0c-3.3,0.1-4.7-0.6-4.7-4.3	c0.1-47.5,0.1-95,0-142.5c0-3.1,1-4,4-3.9c9,0.2,18,0.3,27,0c3.8-0.1,4.8,1,4.7,4.8C1267.4,380.2,1267.5,403.9,1267.5,427.5z" class="st0"/><path d="M1250.1,287.9c12.1,0,21.8,9,21.9,20.6s-9.6,20.6-21.9,20.6c-12.1,0-21.5-8.9-21.6-20.3	C1228.4,297,1237.9,287.9,1250.1,287.9z" class="st0"/></svg>