<svg xmlns="http://www.w3.org/2000/svg" id="Layer_1" data-name="Layer 1" viewBox="0 0 1641.8 351"><defs><style>.cls-1,.cls-2{fill:#fff}.cls-1{fill-rule:evenodd}</style></defs><title>Mitre</title><g id="Capa_1"><g id="_46786296" data-name="46786296"><polygon id="_47588056" points="207.503 346.85 267.794 6.75 335.956 6.75 415.9 219.48 499.786 8.068 564.007 8.068 625.615 345.532 558.769 345.532 522.064 134.12 442.131 341.602 393.623 341.591 313.667 132.814 273.042 345.532 207.503 346.85" class="cls-1" data-name="47588056"/><rect id="_47489872" width="60.29" height="337.475" x="646.598" y="6.75" class="cls-2" data-name="47489872"/><polygon id="_46948704" points="809.109 345.532 809.109 63.222 735.71 63.222 735.71 6.75 941.483 6.75 941.483 61.892 869.411 61.892 869.411 345.521 809.109 345.532" class="cls-1" data-name="46948704"/><polygon id="_47616504" points="1408.078 345.532 1215.431 345.532 1215.431 5.455 1409.401 5.288 1409.401 63.222 1277.019 63.222 1277.019 149.888 1408.078 149.888 1408.078 203.701 1277.019 203.724 1277.019 293.003 1408.078 293.003 1408.078 345.532" class="cls-1" data-name="47616504"/><path id="_47609272" d="M961.147,346.85,962.454,5.444h136.962c58.973,0,98.3,25.293,97.644,93.232,5.237,98.471-80.681,110.173-93.567,103.909l101.128,140.178-69.984-.022-94.852-133.769-1.306-64.344h80.591c25.885.022,29.3-78.783-2.613-78.861l-95.019-2.546v281l-60.29,2.624Z" class="cls-1" data-name="47609272"/></g></g></svg>