<svg xmlns="http://www.w3.org/2000/svg" id="Layer_1" data-name="Layer 1" viewBox="0 0 1641.8 351"><defs><style>.cls-1{fill:#fdfeff}</style></defs><title>MixMax</title><polygon points="734.084 119.134 676.033 234.976 676.033 3.293 734.084 3.293 734.084 119.134" class="cls-1"/><polygon points="734.084 234.976 676.033 234.976 791.875 3.293 791.875 119.134 734.084 234.976" class="cls-1"/><polygon points="849.925 119.134 791.875 234.976 791.875 3.293 849.925 3.293 849.925 119.134" class="cls-1"/><polygon points="849.925 234.976 791.875 234.976 907.716 3.293 907.716 119.134 849.925 234.976" class="cls-1"/><rect width="57.791" height="231.683" x="907.716" y="3.293" class="cls-1"/><path d="M703.244,346.93l-17.1-43.02v43.02H676.033V284.992h11.921l18.919,47.685,18.659-47.685h11.661V346.93H727.087V303.91L710.5,346.93Z" class="cls-1"/><path d="M753,294.84a6.22,6.22,0,1,1,6.22-6.22A6.307,6.307,0,0,1,753,294.84Zm4.924,52.09H747.819V302.1h10.107Z" class="cls-1"/><path d="M790.579,323.606l16.845,23.324h-11.4l-11.143-15.808L773.734,346.93H762.85l16.585-23.065L763.886,302.1h11.4l9.848,14,10.107-14h10.884Z" class="cls-1"/><path d="M858.477,301.06c9.071,0,14.513,6.479,14.513,16.586v29.025H862.883V319.2c0-5.443-2.333-9.071-7.256-9.071a8.194,8.194,0,0,0-8.034,6.738V346.93H837.486V319.46c0-5.443-2.333-9.071-7.256-9.071a8.194,8.194,0,0,0-8.034,6.738v30.062H812.089V302.356H822.2v3.628c2.073-2.851,6.219-4.665,11.143-4.665a14.947,14.947,0,0,1,11.921,5.96C848.111,303.392,852.258,301.06,858.477,301.06Z" class="cls-1"/><path d="M907.2,346.93v-2.592c-1.555,1.555-5.96,3.369-11.144,3.369-9.07,0-16.844-5.442-16.844-14.512,0-8.552,7.515-14.513,17.363-14.513,4.146,0,8.552,1.3,10.366,2.851V317.9c0-4.665-2.851-8.034-8.552-8.034-4.147,0-6.479,1.814-7.775,4.924h-9.588c1.295-7.775,8.292-13.476,17.622-13.476,11.4,0,17.882,6.22,17.882,16.327V346.93Zm0-15.808c-1.037-2.851-5.183-4.665-9.07-4.665-4.665,0-9.33,1.814-9.33,6.479s4.665,6.478,9.33,6.478c4.146,0,8.033-1.814,9.07-4.664Z" class="cls-1"/><path d="M948.922,323.606l16.845,23.324h-11.4L943.22,331.122,932.077,346.93H921.192l16.586-23.065L922.229,302.1h11.4l9.848,14,10.107-14h10.884Z" class="cls-1"/></svg>