<svg id="Layer_1" data-name="Layer 1" xmlns="http://www.w3.org/2000/svg" viewBox="0 0 870.96 217.58"><defs><style>.cls-1{fill:#fff;}</style></defs><title>MLH</title><g id="Layer_1-2" data-name="Layer 1-2"><path class="cls-1" d="M318.2,41.75h-27V168.53c0,.78,0,1.57,0,2.36-.23,3-1.62,4.36-4.65,4.38-7.14,0-14.28,0-21.42,0-2.85,0-5.7,0-8.56,0-3.14-.06-4.71-1.6-4.88-4.75,0-.71,0-1.42,0-2.14V41.76h-27v128c0,4.72-.82,5.55-5.44,5.55H187.48c-4.28,0-5.34-1.06-5.34-5.29V7.25c0-4,1.21-5.21,5.22-5.21H333C348.39,2,360.9,15,360.84,29.76c-.17,46.6-.06,93.2-.06,139.81,0,4.38-1.32,5.68-5.78,5.68H324.16c-4.83,0-6-1.1-6-5.88V44.74C318.2,43.86,318.2,42.94,318.2,41.75Z"/><path class="cls-1" d="M688.85,88.84v80.95c0,3.92-1.48,5.49-5.36,5.49q-17.24,0-34.47,0c-3.81,0-5.42-1.67-5.42-5.54V114.92c0-4.52-1.35-5.92-5.82-5.92H589.6c-4.87,0-6.16,1.34-6.17,6.29v54.6c0,4.12-1.22,5.39-5.34,5.39q-17.24,0-34.47,0c-4.1,0-5.27-1.15-5.27-5.21V7.33c0-4.1,1.28-5.29,5.43-5.29h34.27c4,0,5.38,1.35,5.38,5.38V60.31a21.52,21.52,0,0,0,.09,2.78,3.84,3.84,0,0,0,3.76,3.68,20.53,20.53,0,0,0,2.35.1h47.75c4.77,0,6.22-1.47,6.22-6.28V8.13c0-4.59,1.52-6.09,6.17-6.09h33.62c3.85,0,5.45,1.6,5.45,5.42Q688.86,48.16,688.85,88.84Z"/><path class="cls-1" d="M387.24,88.77V7.62c0-4.33,1.25-5.57,5.62-5.57H426.7c4.36,0,5.62,1.24,5.62,5.57V126.89c0,5,1.28,6.32,6.36,6.32h67c4.81,0,6.16,1.32,6.16,6.07v30.4c0,4.08-1.5,5.57-5.54,5.57H392.83c-4.43,0-5.57-1.17-5.57-5.57Q387.25,129.24,387.24,88.77Z"/><path class="cls-1" d="M193.06,195.28h-4.2v19.95h-6.61c0-.79-.11-1.48-.11-2.17,0-7.42,0-14.84,0-22.27,0-1.69.33-2.4,2.21-2.37,6.91.1,13.83,0,20.75.05,3.68,0,5.34,1.74,5.34,5.41,0,6.49,0,13,0,19.47,0,1.46-.4,2-1.93,2-5.72-.16-4.76.81-4.82-4.65-.06-5.06,0-10.11,0-15.36H199.4v10.71c0,2.5,0,5,0,7.49,0,1.24-.37,1.82-1.72,1.79-5.36-.09-4.58.58-4.62-4.48S193.06,200.63,193.06,195.28Z"/><path class="cls-1" d="M232.12,207.13c-2.77,0-5.2-.08-7.6.06a2,2,0,0,0-1.29,1.4,42,42,0,0,0,0,5.14c0,1.17-.4,1.66-1.62,1.64-6.43-.14-5.11.85-5.2-4.89-.08-5.49,0-11,0-16.48,0-3.79,1.71-5.48,5.5-5.51s7.85,0,11.77,0c3.5,0,5.28,1.82,5.29,5.29,0,6.49,0,13,0,19.48,0,1.54-.43,2.14-2.07,2.14-4.76,0-4.76.07-4.77-4.71C232.12,209.56,232.12,208.46,232.12,207.13Zm-8.84-6H232v-6.35h-8.69Z"/><path class="cls-1" d="M548,214.93a3.46,3.46,0,0,1-.52.32c-6.33.68-6.33.68-6.33-5.57V194.07c0-3.77,1.71-5.56,5.43-5.59,3.92,0,7.83,0,11.75,0,3.71,0,5.4,1.71,5.41,5.35,0,6.43,0,12.85,0,19.24,0,1.78-.55,2.36-2.32,2.3-5.29-.17-4.44.7-4.52-4.54-.06-4.25.47-3.69-3.8-3.71-5.14,0-5.14,0-5.14,5.14Zm.19-20.18v6.38h8.61v-6.37Z"/><path class="cls-1" d="M394.69,207.12c0,2.21-.09,4.19,0,6.16.09,1.56-.36,2.12-2,2.11-4.87,0-4.87,0-4.87-4.85V194.48c0-4.35,1.65-6,5.93-6h10.92c4.18,0,5.72,1.56,5.73,5.66,0,6.35,0,12.7,0,19.05,0,1.71-.47,2.25-2.17,2.19-5.38-.16-4.6.72-4.67-4.65,0-4.13.46-3.56-3.69-3.6C398.28,207.1,396.67,207.12,394.69,207.12Zm.11-6h8.65v-6.34H394.8Z"/><path class="cls-1" d="M269.08,201.9c0-2.78,0-5.57,0-8.33,0-3.13,1.71-5,4.83-5.07,4.28-.1,8.57-.09,12.82,0,3.12.07,4.88,1.89,4.9,5q.08,8.44,0,16.89c0,3.34-1.71,4.94-5.05,5q-6.3,0-12.6,0c-3.19,0-4.86-1.69-4.91-4.89C269,207.61,269.08,204.75,269.08,201.9Zm15.66,6.9V195.37h-8.67V208.8Z"/><path class="cls-1" d="M304.36,207.56v6.26c0,1.05-.36,1.48-1.49,1.55-5.27.33-5.27.37-5.27-4.81,0-6.63,0-13.26,0-19.88,0-1.65.47-2.27,2.18-2.24,5,.09,10,0,15,0,3.66,0,5.37,1.76,5.39,5.38,0,2.64-.06,5.27,0,7.91s-.51,4.65-3.25,5.79l4.36,7.71c-2.62,0-4.84.06-7.05-.05-.43,0-.86-.68-1.16-1.14-.75-1.21-1.4-2.47-2.14-3.7C308.9,206.91,308.9,206.92,304.36,207.56Zm8.82-6.38v-6.24h-8.86v6.24Z"/><path class="cls-1" d="M637.94,201.91c0-3.85,0-7.7,0-11.56,0-1.35.43-1.93,1.84-1.91,5.27.05,10.55,0,15.84.05,3.15,0,4.87,1.87,4.88,5,0,6.63,0,13.28,0,19.89,0,1.49-.49,2-2,2-5.86-.15-4.73.74-4.81-4.63-.07-4.56-.08-9.12,0-13.7,0-1.58-.63-2-2-1.9a44.68,44.68,0,0,1-4.91,0c-1.58-.1-2.15.48-2.12,2.08.08,5.2,0,10.41.07,15.61,0,1.9-.43,2.62-2.46,2.57-4.32-.15-4.32,0-4.32-4.29Q637.94,206.51,637.94,201.91Z"/><path class="cls-1" d="M416.37,202v-8.34c0-3.16,1.71-5,4.78-5.11,4.85-.09,9.7,0,14.56,0,1.29,0,1.75.57,1.71,1.83-.08,5.79.64,4.79-4.64,4.87-2.64,0-5.27.05-7.91,0-1.29,0-1.77.49-1.75,1.76,0,3.43,0,6.85,0,10.28,0,1.14.36,1.71,1.59,1.71,1.93,0,3.86,0,5.78,0,1.21,0,1.65-.55,1.64-1.69a35,35,0,0,1,.07-4.91c.07-.57.93-1.06,1.45-1.55.08-.08.28,0,.43,0,5.59.07,4.79-.74,4.86,4.66,0,1.71.06,3.42,0,5.14-.16,3.27-1.77,4.8-5,4.82q-6.3,0-12.62,0c-3.31,0-4.91-1.67-4.94-5C416.34,207.51,416.37,204.73,416.37,202Z"/><path class="cls-1" d="M666.44,202c0-2.86,0-5.71,0-8.57,0-3.06,1.66-4.83,4.74-4.9,4.85-.1,9.71,0,14.56,0,1.29,0,1.77.55,1.75,1.82-.09,5.87.62,4.8-4.63,4.89-2.57,0-5.14.07-7.7,0-1.43,0-2.11.37-2.08,1.9.06,3.36,0,6.71,0,10.06,0,1.24.46,1.83,1.78,1.78,1.85-.07,3.71-.07,5.56,0,1.33.05,1.78-.55,1.76-1.78,0-1.57-.07-3.15,0-4.71,0-.55.43-1.5.71-1.53a31.26,31.26,0,0,1,5.12,0c.3,0,.75,1,.76,1.47.07,2.92.07,5.85,0,8.77a4.06,4.06,0,0,1-4.19,4.22q-7,.12-13.92,0a4.11,4.11,0,0,1-4.28-4.37C666.39,208,666.44,205,666.44,202Z"/><path class="cls-1" d="M512.64,201.88c0-3.86,0-7.71,0-11.57,0-1.38.46-1.89,1.86-1.87,6.07.11,4.93-.66,5,4.71s0,5.42,5.52,5.42c3.4,0,3.4,0,3.4-3.35,0-1.71-.06-3.42.05-5.13,0-.53.49-1.44.82-1.47a29,29,0,0,1,5.1,0c.3,0,.76,1,.76,1.5.05,7.84,0,15.68.05,23.52,0,1.33-.56,1.71-1.81,1.69-5.91-.11-4.9.75-5-4.74s0-5.44-5.56-5.44q-.75,0-1.5,0c-1.37-.14-1.94.38-1.89,1.81.08,2.2,0,4.42,0,6.63,0,1.28-.39,1.79-1.72,1.75-6.32-.16-5,.93-5.14-4.93C512.59,207.58,512.64,204.73,512.64,201.88Z"/><path class="cls-1" d="M480,194.82v4.59c3.07,0,6.1,0,9.14,0,.85,0,2.3.26,2.39.64a10.65,10.65,0,0,1-.05,4c0,.3-1.19.56-1.83.57-3.13.06-6.27,0-9.58,0v4.28c.55.05,1.16.15,1.77.15h7.71c4.26,0,4.85.69,4,5a1.88,1.88,0,0,1-1.34,1.18q-8.88.12-17.76,0c-.49,0-1.37-1-1.38-1.53C473,205.89,473,198,473,190.18c0-1.29.65-1.75,1.87-1.74,5.63,0,11.27,0,16.9,0,1.41,0,1.87.59,1.86,1.92-.07,5.48.42,4.34-4.18,4.43C486.38,194.86,483.32,194.82,480,194.82Z"/><path class="cls-1" d="M467.06,200.67c0,3.28,0,6.56,0,9.85s-1.64,4.81-4.91,4.83q-6.3,0-12.62,0c-3.26,0-4.93-1.59-5-4.82,0-6.7,0-13.4,0-20.11,0-1.51.55-2,2-2,5.9.12,4.86-.66,4.93,4.8,0,4.56.06,9.13,0,13.7,0,1.48.43,2.08,1.94,2a28,28,0,0,1,4.49,0c1.85.17,2.51-.47,2.46-2.39-.11-5.2,0-10.41-.07-15.61,0-1.86.55-2.52,2.44-2.47,5,.14,4.29-.5,4.36,4.32C467.09,195.4,467.06,198,467.06,200.67Z"/><path class="cls-1" d="M368.37,194.82v4.59c3.29,0,6.48.12,9.65,0,2.18-.12,2,1.14,2,2.57s.3,2.89-2,2.77c-3.13-.16-6.27,0-9.57,0v4.45h9.5c3.89,0,5,1.51,3.86,5.27a1.8,1.8,0,0,1-1.36.92c-5.85.06-11.7,0-17.56.05-1.15,0-1.46-.52-1.46-1.56q0-11.78,0-23.56c0-1.28.52-1.79,1.78-1.78q8.44,0,16.91,0c1.28,0,1.74.47,1.8,1.75.25,4.61.29,4.61-4.2,4.61Z"/><path class="cls-1" d="M606.72,204.51c-2.94,2.08-4.25,4.5-3.91,7.94.28,2.87.05,2.92-2.83,2.89-4.35-.05-3.85.66-3.85-3.85,0-6.86,0-13.71,0-20.56,0-1.78.36-2.57,2.35-2.51,5.17.19,4.37-.66,4.44,4.42,0,2.32,0,4.64,0,6.95l.52.14c2.32-2.68,5-5.14,6.86-8.1,2.63-4.17,6.3-3.5,10.63-3.15L611.36,200l9.27,15.28c-2.72,0-4.9.11-7.06-.06-.58-.05-1.28-.83-1.62-1.43C610.19,210.82,608.53,207.76,606.72,204.51Z"/><path class="cls-1" d="M569.59,202c0-2.86,0-5.71,0-8.57s1.74-4.85,4.75-4.91c4.63-.09,9.26,0,13.9,0,1.43,0,1.84.64,1.82,2-.06,5.72.48,4.66-4.55,4.75-2.49,0-5,.05-7.48,0-1.29,0-1.79.49-1.78,1.76,0,3.35.06,6.7,0,10.05,0,1.54.66,1.95,2.08,1.92,3.27-.06,6.56,0,9.85,0,1.35,0,1.93.42,1.91,1.83-.07,5.69.43,4.56-4.43,4.64-3.77.06-7.55,0-11.33,0-3,0-4.65-1.64-4.71-4.6S569.6,204.89,569.59,202Z"/><path class="cls-1" d="M263.2,200.73c0,3.21,0,6.43,0,9.62-.05,3.4-1.66,5-5,5-3.56,0-7.13,0-10.71,0-2.91,0-4.62-1.46-4.82-4.32-.17-2.57-.09-5.14,0-7.71,0-.45.48-1.25.78-1.28a47.21,47.21,0,0,1,5.32,0c.23,0,.53.57.64.93a5.07,5.07,0,0,1,0,1.29c0,4.87.77,5.5,5.71,4.53.53-.1,1.19-1.29,1.21-1.95.1-5.2.14-10.4,0-15.6-.06-2.1.5-2.9,2.73-2.81,4.59.18,4.09-.37,4.11,4.18C263.21,195.31,263.2,198,263.2,200.73Z"/><path class="cls-1" d="M339.78,201.82c0-3.78.05-7.55,0-11.33,0-1.4.31-2.08,1.89-2,6,.13,4.81-.64,4.88,4.81q.11,6.86,0,13.67c0,1.5.49,2,2,2,2.49-.09,5,0,7.48,0,1.29,0,1.76.48,1.74,1.76-.1,5.76.62,4.62-4.53,4.71-3.77.06-7.55-.05-11.32,0-1.57,0-2.15-.39-2.1-2C339.86,209.51,339.78,205.66,339.78,201.82Z"/><path class="cls-1" d="M625.27,201.89c0-3.85,0-7.71,0-11.54,0-1.34.36-1.93,1.81-1.9,5.9.12,4.92-.66,5,4.76.06,6.63,0,13.25.05,19.88,0,1.78-.55,2.32-2.32,2.29-4.48-.07-4.48,0-4.48-4.51C625.27,207.88,625.27,204.88,625.27,201.89Z"/></g></svg>