<svg id="Layer_1" data-name="Layer 1" xmlns="http://www.w3.org/2000/svg" viewBox="0 0 1641.8 351"><defs><style>.cls-1{fill:#fff;fill-rule:evenodd;}</style></defs><title>MLH</title><g id="Page-1"><g id="mlh-logo-white"><g id="Layer_1-2" data-name="Layer 1"><g id="Group"><path id="Shape" class="cls-1" d="M450.945,305.754a21.106,21.106,0,0,1,2.405,1.443,4.993,4.993,0,0,1,1.444,2.406,12.1,12.1,0,0,1,.481,2.886v35.119c0,.241,0,.722-.241.722a.881.881,0,0,1-.721.241h-8.66a.85.85,0,0,1-.962-.963V315.857h-6.976v31.751c0,.241,0,.722-.24.722a.883.883,0,0,1-.722.241h-7.938c-.24,0-.722,0-.722-.241a.885.885,0,0,1-.24-.722V315.857h-6.976v31.751a1.136,1.136,0,0,1-1.2,1.2h-8.659a1.136,1.136,0,0,1-1.2-1.2V306.476a1.136,1.136,0,0,1,1.2-1.2H448.54a2.961,2.961,0,0,1,2.4.481Z"/><path class="cls-1" d="M494.483,305.032a12.1,12.1,0,0,1,2.887.481,21.249,21.249,0,0,1,2.4,1.444,4.99,4.99,0,0,1,1.444,2.405,12.1,12.1,0,0,1,.481,2.887v35.119c0,.24,0,.722-.241.722a.885.885,0,0,1-.722.24h-8.659c-.241,0-.722,0-.722-.24a.887.887,0,0,1-.24-.722V336.3c0-.241,0-.722-.241-.722a.884.884,0,0,0-.721-.24H477.886c-.241,0-.722,0-.722.24a.886.886,0,0,0-.24.722v11.065a1.136,1.136,0,0,1-1.2,1.2h-8.66a1.136,1.136,0,0,1-1.2-1.2V312.249a12.046,12.046,0,0,1,.481-2.887,21.106,21.106,0,0,1,1.443-2.405,4.994,4.994,0,0,1,2.4-1.444,6.107,6.107,0,0,1,2.887-.481Zm-3.848,20.687V314.9H475.962v10.824Z"/><path class="cls-1" d="M540.908,305.513a.884.884,0,0,1,.241.722v35.119a12.1,12.1,0,0,1-.481,2.887,21.249,21.249,0,0,1-1.444,2.405,4.99,4.99,0,0,1-2.405,1.444,6.1,6.1,0,0,1-2.887.481H515.17a12.113,12.113,0,0,1-2.887-.481,21.339,21.339,0,0,1-2.405-1.444,4.98,4.98,0,0,1-1.443-2.405,6.1,6.1,0,0,1-.481-2.887v-13.23a1.136,1.136,0,0,1,1.2-1.2h8.66a1.136,1.136,0,0,1,1.2,1.2v8.9a.85.85,0,0,0,.962.962h8.9c.24,0,.722,0,.722-.241a.884.884,0,0,0,.24-.721V306.476c0-.241,0-.722.241-.722a.881.881,0,0,1,.721-.241h8.66a1.053,1.053,0,0,1,1.443,0Z"/><path class="cls-1" d="M580.117,305.032a12.1,12.1,0,0,1,2.886.481,21.358,21.358,0,0,1,2.406,1.444,5,5,0,0,1,1.443,2.405,12.1,12.1,0,0,1,.481,2.887v28.865a12.1,12.1,0,0,1-.481,2.886,21.214,21.214,0,0,1-1.443,2.406A5,5,0,0,1,583,347.849a6.1,6.1,0,0,1-2.886.481h-21.89a12.047,12.047,0,0,1-2.886-.481,21.125,21.125,0,0,1-2.406-1.443A5,5,0,0,1,551.492,344a6.1,6.1,0,0,1-.481-2.886V312.249a12.046,12.046,0,0,1,.481-2.887,8.009,8.009,0,0,1,1.443-2.405,4.993,4.993,0,0,1,2.406-1.444,6.1,6.1,0,0,1,2.886-.481Zm-3.849,10.584H561.6v22.371h14.673V315.616Z"/><path class="cls-1" d="M634.96,347.608a.451.451,0,0,1,0,.722c-.24.241-.24.241-.721.241h-9.863a1.445,1.445,0,0,1-.962-.241l-.721-.722-6.5-11.786c0-.241-.241-.241-.481-.241H608.26c-.24,0-.24,0-.24.241v11.546a1.137,1.137,0,0,1-1.2,1.2h-8.66a1.136,1.136,0,0,1-1.2-1.2V306.235a1.136,1.136,0,0,1,1.2-1.2H626.3a12.1,12.1,0,0,1,2.886.481,21.269,21.269,0,0,1,2.406,1.444,5,5,0,0,1,1.443,2.405,6.1,6.1,0,0,1,.481,2.887v16.357a7.206,7.206,0,0,1-1.443,4.329,7.862,7.862,0,0,1-3.608,2.646h-.241c-.24,0-.24.241-.24.481v.241l6.975,11.305Zm-12.267-32.473H607.779v10.584h14.914V315.135Z"/><path class="cls-1" d="M693.412,337.987a.849.849,0,0,1,.962.962v8.178c0,.241,0,.722-.24.722a.883.883,0,0,1-.722.241h-26.7a1.137,1.137,0,0,1-1.2-1.2V305.754a1.136,1.136,0,0,1,1.2-1.2h8.66a1.136,1.136,0,0,1,1.2,1.2V336.3a.85.85,0,0,0,.962.962h15.876v.722Z"/><path class="cls-1" d="M733.583,305.513a.887.887,0,0,1,.24.722v7.938a.849.849,0,0,1-.962.962H712.175c-.241,0-.241,0-.241.241v6.735c0,.24,0,.24.241.24h17.8a.852.852,0,0,1,.962.963v6.254c0,.24,0,.721-.241.721a.881.881,0,0,1-.721.241h-17.8c-.241,0-.241,0-.241.24V333.9h0v3.609c0,.24,0,.24.241.24h20.686c.241,0,.722,0,.722.241a.884.884,0,0,1,.24.721v7.7c0,.24,0,.721-.24.721a.883.883,0,0,1-.722.241H702.072a1.136,1.136,0,0,1-1.2-1.2V305.032c0-.24,0-.721.241-.721a.881.881,0,0,1,.721-.241h30.79a4.536,4.536,0,0,0,.962,1.443Z"/><path class="cls-1" d="M773.032,305.032a12.1,12.1,0,0,1,2.886.481,21.269,21.269,0,0,1,2.406,1.444,4.98,4.98,0,0,1,1.443,2.405,12.046,12.046,0,0,1,.481,2.887v35.119c0,.24,0,.722-.24.722a.886.886,0,0,1-.722.24h-8.9c-.241,0-.722,0-.722-.24a.887.887,0,0,1-.24-.722V336.3c0-.241,0-.722-.241-.722a.884.884,0,0,0-.721-.24H755.953c-.24,0-.721,0-.721.24a.883.883,0,0,0-.241.722v11.065a1.136,1.136,0,0,1-1.2,1.2h-8.66a1.136,1.136,0,0,1-1.2-1.2V312.249a12.1,12.1,0,0,1,.481-2.887,21.1,21.1,0,0,1,1.444-2.405,4.99,4.99,0,0,1,2.4-1.444,6.1,6.1,0,0,1,2.887-.481Zm-3.849,20.687V314.9H754.51v10.824Z"/><path class="cls-1" d="M826.192,325.238a.882.882,0,0,1,.241.722v15.394a12.057,12.057,0,0,1-.482,2.887,21.106,21.106,0,0,1-1.443,2.405,4.99,4.99,0,0,1-2.405,1.444,6.1,6.1,0,0,1-2.887.481H797.327a12.1,12.1,0,0,1-2.887-.481,21.249,21.249,0,0,1-2.405-1.444,4.98,4.98,0,0,1-1.443-2.405,6.1,6.1,0,0,1-.481-2.887V312.489a12.047,12.047,0,0,1,.481-2.886,7.994,7.994,0,0,1,1.443-2.406,5,5,0,0,1,2.405-1.443,6.1,6.1,0,0,1,2.887-.481h25.738c.24,0,.722,0,.722.24a.887.887,0,0,1,.24.722v8.179c0,.24,0,.721-.24.721a.884.884,0,0,1-.722.241H802.378c-.24,0-.721,0-.721.24a.883.883,0,0,0-.241.722v20.2a.852.852,0,0,0,.962.963h12.268a.85.85,0,0,0,.962-.963V325.719c0-.241,0-.722.241-.722a.884.884,0,0,1,.721-.24h8.66a1.823,1.823,0,0,1,.962.481Z"/><path class="cls-1" d="M871.9,305.513a.884.884,0,0,1,.241.722v35.119a12.1,12.1,0,0,1-.481,2.887,21.249,21.249,0,0,1-1.444,2.405,4.99,4.99,0,0,1-2.4,1.444,6.1,6.1,0,0,1-2.887.481H843.03a12.113,12.113,0,0,1-2.887-.481,21.339,21.339,0,0,1-2.4-1.444,4.98,4.98,0,0,1-1.443-2.405,6.1,6.1,0,0,1-.481-2.887V306.235a1.136,1.136,0,0,1,1.2-1.2h8.66a1.136,1.136,0,0,1,1.2,1.2v30.549a.849.849,0,0,0,.962.962h12.268a.85.85,0,0,0,.962-.962V306.235c0-.24,0-.722.24-.722a.886.886,0,0,1,.722-.24h8.659a.955.955,0,0,1,1.2.24Z"/><path class="cls-1" d="M914.952,305.513a.884.884,0,0,1,.241.722v7.938a.85.85,0,0,1-.962.962H893.544c-.241,0-.241,0-.241.241v6.735c0,.24,0,.24.241.24h17.8a.85.85,0,0,1,.962.963v6.254c0,.24,0,.721-.24.721a.883.883,0,0,1-.722.241h-17.8c-.241,0-.241,0-.241.24V333.9h0v3.609c0,.24,0,.24.241.24h20.687c.24,0,.721,0,.721.241a.881.881,0,0,1,.241.721v7.7c0,.24,0,.721-.241.721a.881.881,0,0,1-.721.241h-30.79a1.137,1.137,0,0,1-1.2-1.2V305.032c0-.24,0-.721.241-.721a.883.883,0,0,1,.722-.241H913.99a4.554,4.554,0,0,0,.962,1.443Z"/><path class="cls-1" d="M981.583,305.032c.24,0,.721,0,.721.241a.882.882,0,0,1,.241.722v41.132c0,.241,0,.722-.241.722a.881.881,0,0,1-.721.241h-8.66c-.24,0-.721,0-.721-.241a.883.883,0,0,1-.241-.722V332.7a.85.85,0,0,0-.962-.962H958.731c-.24,0-.722,0-.722.24a.886.886,0,0,0-.24.722v14.432a1.136,1.136,0,0,1-1.2,1.2h-8.659a1.136,1.136,0,0,1-1.2-1.2V306a1.136,1.136,0,0,1,1.2-1.2h8.659a1.136,1.136,0,0,1,1.2,1.2v13.951a1.136,1.136,0,0,0,1.2,1.2h12.267a.852.852,0,0,0,.963-.962V306.235c0-.24,0-.722.24-.722a.886.886,0,0,1,.722-.24h8.419v-.241Z"/><path class="cls-1" d="M1021.753,305.032a12.1,12.1,0,0,1,2.887.481,21.249,21.249,0,0,1,2.4,1.444,4.99,4.99,0,0,1,1.444,2.405,12.1,12.1,0,0,1,.481,2.887v35.119c0,.24,0,.722-.241.722a.885.885,0,0,1-.722.24h-8.659c-.241,0-.722,0-.722-.24a.887.887,0,0,1-.24-.722V336.3c0-.241,0-.722-.241-.722a.884.884,0,0,0-.721-.24h-12.268c-.241,0-.722,0-.722.24a.886.886,0,0,0-.24.722v11.065a1.136,1.136,0,0,1-1.2,1.2h-8.66a1.136,1.136,0,0,1-1.2-1.2V312.249a12.046,12.046,0,0,1,.481-2.887,21.106,21.106,0,0,1,1.443-2.405,4.993,4.993,0,0,1,2.406-1.444,6.1,6.1,0,0,1,2.886-.481Zm-3.608,20.687V314.9h-14.673v10.824Z"/><path class="cls-1" d="M1049.9,315.857a.881.881,0,0,0-.241.721v20.206a.85.85,0,0,0,.962.962h19.966c.24,0,.721,0,.721.241a.881.881,0,0,1,.241.721v8.179c0,.24,0,.721-.241.721a.881.881,0,0,1-.721.241h-24.776a12.1,12.1,0,0,1-2.887-.481,21.106,21.106,0,0,1-2.4-1.443,5,5,0,0,1-1.444-2.406,6.1,6.1,0,0,1-.481-2.886V311.527a12.113,12.113,0,0,1,.481-2.887,21.191,21.191,0,0,1,1.444-2.4,4.98,4.98,0,0,1,2.4-1.443,6.1,6.1,0,0,1,2.887-.481h24.776c.24,0,.721,0,.721.24a.883.883,0,0,1,.241.722v8.178c0,.241,0,.722-.241.722a.881.881,0,0,1-.721.241h-19.966c-.24,1.2-.481,1.443-.721,1.443Z"/><path class="cls-1" d="M1106.424,323.314c-.24.24-.24.24,0,.481l14.433,23.813a.451.451,0,0,1,0,.722c-.241.241-.241.241-.722.241h-10.343a1.442,1.442,0,0,1-.962-.241l-.722-.722-9.381-16.838c-.241-.24-.241-.24-.241,0l-5.051,5.533a1.25,1.25,0,0,0-.481.962,2.166,2.166,0,0,0-.241,1.2v9.14a1.136,1.136,0,0,1-1.2,1.2h-8.419a1.136,1.136,0,0,1-1.2-1.2V306.476a1.136,1.136,0,0,1,1.2-1.2h8.659a1.136,1.136,0,0,1,1.2,1.2V325l16.116-18.762a3.338,3.338,0,0,1,.963-.722,1.82,1.82,0,0,1,.962-.24h10.343c.241,0,.481,0,.481.24a.885.885,0,0,1-.24.722l-15.155,17.079Z"/><path class="cls-1" d="M1139.86,347.368a1.136,1.136,0,0,1-1.2,1.2H1130a1.136,1.136,0,0,1-1.2-1.2V306.235a1.136,1.136,0,0,1,1.2-1.2h8.659a1.136,1.136,0,0,1,1.2,1.2v41.133Z"/><path class="cls-1" d="M1181.714,305.754a21.125,21.125,0,0,1,2.406,1.443,5,5,0,0,1,1.443,2.406,6.1,6.1,0,0,1,.481,2.886v35.119c0,.241,0,.722-.24.722a.884.884,0,0,1-.722.241h-8.66a.852.852,0,0,1-.962-.963V317.059a.85.85,0,0,0-.962-.962H1162.23c-.24,0-.721,0-.721.241s-.241.481-.241.721v30.549a1.136,1.136,0,0,1-1.2,1.2h-8.659a1.136,1.136,0,0,1-1.2-1.2V306.476a1.136,1.136,0,0,1,1.2-1.2h28.143a2.594,2.594,0,0,1,2.165.481Z"/><path class="cls-1" d="M1231.988,325.238a.885.885,0,0,1,.24.722v15.394a12.055,12.055,0,0,1-.481,2.887,21.106,21.106,0,0,1-1.443,2.405,4.994,4.994,0,0,1-2.405,1.444,6.107,6.107,0,0,1-2.887.481h-21.889a12.1,12.1,0,0,1-2.887-.481,21.249,21.249,0,0,1-2.405-1.444,4.99,4.99,0,0,1-1.444-2.405,6.1,6.1,0,0,1-.481-2.887V312.489a12.1,12.1,0,0,1,.481-2.886,8.016,8.016,0,0,1,1.444-2.406,5,5,0,0,1,2.405-1.443,6.1,6.1,0,0,1,2.887-.481h25.738c.24,0,.721,0,.721.24a.884.884,0,0,1,.241.722v8.179c0,.24,0,.721-.241.721a.881.881,0,0,1-.721.241h-20.687c-.24,0-.722,0-.722.24a.886.886,0,0,0-.24.722v20.2a.85.85,0,0,0,.962.963h12.268a.852.852,0,0,0,.962-.963V325.719c0-.241,0-.722.24-.722a.887.887,0,0,1,.722-.24h8.66a1.249,1.249,0,0,1,.962.481Z"/></g><path class="cls-1" d="M671.523,5.8a46.608,46.608,0,0,1,14.432,9.862,51.119,51.119,0,0,1,9.863,14.433,44.437,44.437,0,0,1,3.608,17.8V275.927a7.391,7.391,0,0,1-7.457,7.456h-54.6a6.214,6.214,0,0,1-5.052-2.164,7.93,7.93,0,0,1-1.924-5.292V68.579H586.371V275.927a7.925,7.925,0,0,1-1.925,5.292,6.55,6.55,0,0,1-5.051,2.164H529.843a7.391,7.391,0,0,1-7.457-7.456V68.579H478.367V275.927c0,5.051-2.405,7.456-7.457,7.456H416.788c-5.051,0-7.457-2.4-7.457-7.456V9.646c0-5.052,2.406-7.457,7.457-7.457H653.482A45.6,45.6,0,0,1,671.523,5.8Z"/><path class="cls-1" d="M937.323,215.069a6.718,6.718,0,0,1,5.292,2.165,7.622,7.622,0,0,1,2.165,5.533v53.16a8.028,8.028,0,0,1-2.165,5.532,7.075,7.075,0,0,1-5.292,2.165h-186.9c-5.292,0-7.938-2.646-7.938-7.7V9.886c0-5.051,2.646-7.7,7.938-7.7H807.67c5.292,0,7.938,2.646,7.938,7.7V208.094a6.5,6.5,0,0,0,2.406,5.292,7.442,7.442,0,0,0,5.532,1.924H937.323v-.241Z"/><path class="cls-1" d="M1224.531,2.189a7.616,7.616,0,0,1,5.532,2.165,7.826,7.826,0,0,1,2.406,5.532V276.648a7.31,7.31,0,0,1-2.406,5.533,7.62,7.62,0,0,1-5.532,2.165H1166.32a7.622,7.622,0,0,1-5.533-2.165,7.832,7.832,0,0,1-2.4-5.533v-93.09a7.075,7.075,0,0,0-2.165-5.292c-1.443-1.443-3.127-1.924-5.533-1.924H1069.14a8.578,8.578,0,0,0-5.532,1.924,7.29,7.29,0,0,0-2.406,5.292v93.09c0,5.052-2.646,7.7-7.938,7.7h-57.73c-5.292,0-7.938-2.646-7.938-7.7V9.886c0-5.051,2.646-7.7,7.938-7.7h57.73c5.292,0,7.938,2.646,7.938,7.7v90.2c0,5.051,2.646,7.7,7.938,7.7h81.544a7.411,7.411,0,0,0,7.7-7.7V9.886a7.307,7.307,0,0,1,2.4-5.532,7.618,7.618,0,0,1,5.533-2.165Z"/></g></g></g></svg>