<svg id="Layer_1" data-name="Layer 1" xmlns="http://www.w3.org/2000/svg" viewBox="0 0 1641.8 351"><defs><style>.cls-1{fill:#fff;}</style></defs><title>NightOwl</title><path class="cls-1" d="M817.134,3.959h12.812a40.347,40.347,0,0,0,4.994.977,164.835,164.835,0,0,1,88.267,31.486c35.069,25.514,57.76,59.5,67.64,101.838,1.52,6.3,2.5,12.812,3.8,19.217v36.046c-.543,2.714-1.086,5.537-1.738,8.251-2.28,9.663-3.8,19.651-7.057,29.1-12.7,37.131-35.611,66.77-68.507,88.376-20.846,13.68-43.429,22.691-68.291,26.057a64.5,64.5,0,0,0-7.926,1.737H805.952c-6.189-1.086-12.377-2.063-18.457-3.366-33.006-7.382-61.56-22.8-85.445-46.793-24.537-24.646-40.28-54.068-46.794-88.268-1.628-8.686-2.388-17.48-3.583-26.166V168.769a47.313,47.313,0,0,0,.977-5.429,154.359,154.359,0,0,1,14.874-58.628C695.21,47.5,740.809,14.6,803.563,5.479,808.123,4.61,812.574,4.393,817.134,3.959ZM880,133.266c4.235,13.354,1.52,24.863-8.142,33.874-9.772,9.12-21.606,9.663-34.091,4.994-.652,2.389-.869,3.909-1.412,5.32-1.628,4.994-2.823,10.206-5.211,14.874-3.474,6.623-10.314,7.166-14.223.869-2.823-4.451-3.908-9.989-5.754-14.983a49.8,49.8,0,0,1-1.52-5.537c-2.171.543-3.8.869-5.429,1.3a29.9,29.9,0,0,1-32.9-12.486c-5.1-7.491-5.429-15.742-4.126-24.319.543-3.8-.651-5.755-4.886-5.863a13.731,13.731,0,0,0-1.628,3.366c-1.3,7.165-2.606,14.222-3.692,21.5-.76,5,1.086,8.686,5.863,11.183a57.415,57.415,0,0,1,10.423,7.492,29.581,29.581,0,0,1,10.206,21.388c.651,13.245.977,26.491,2.062,39.737,1.412,18.674,5.1,36.371,20.846,49.4,10.314,8.577,20.52,10.748,30.834,3.474,12.377-8.794,21.822-19.868,23.342-35.828,1.629-18.023,3.04-36.045,4.126-54.176.434-8.252,2.5-15.635,8.36-21.389,4.343-4.125,9.446-7.274,14.114-10.965,1.411-1.086,3.366-2.5,3.583-3.909,1.411-10.314-.109-20.411-3.691-30.291a15.849,15.849,0,0,0-.978-1.737C883.8,131.638,882.276,132.289,880,133.266ZM780.329,273.973a14.1,14.1,0,0,0,1.629-1.086c-1.3-5.211-2.715-10.422-3.8-15.634-4.343-19.434-4.235-39.411-5.212-59.17-.543-10.1-7.925-19.434-18.891-22.366-9.663,17.263-15.526,35.285-9.88,55.262C749.712,250.956,763.609,263.768,780.329,273.973Zm85.77-.326c.435.326.76.543,1.195.869,18.24-10.966,32.788-24.754,37.674-46.794,4.125-18.891-2.172-35.394-10.966-51.353-12.7,4.668-18.131,12.485-18.891,24.754-1.086,17.914-2.606,35.828-4.452,53.742C870.117,261.162,867.728,267.35,866.1,273.647ZM823.866,130.009c3.582-3.8,6.3-8.686,10.205-10.1,10.1-3.691,16.829-11.834,25.623-17.263a28.317,28.317,0,0,0,3.583-2.714c-13.68-19.217-64.708-19.325-78.062-.326a8.352,8.352,0,0,0,1.845,2.063c8.8,4.669,14.549,13.789,24.646,16.5,1.737.434,3.365,2.171,4.777,3.583C819.089,124.363,821.369,127.186,823.866,130.009Zm48.205,14.657a21.79,21.79,0,0,0-21.171-21.6c-10.532-.218-20.737,9.988-20.954,20.845-.218,11.617,9.771,21.823,21.388,21.714C862.191,165.62,871.962,155.74,872.071,144.666ZM795.746,165.4c11.4.217,21.28-9.229,21.5-20.52.217-11.074-9.771-21.714-20.411-21.822-11.292-.109-21.28,9.662-21.5,21.279C775.118,155.523,784.563,165.186,795.746,165.4ZM948.4,115.9a10.738,10.738,0,0,0-2.606.977Q924.945,129.9,904.1,143.038c-.977.651-2.389,1.845-2.5,2.714-.109,4.994.108,9.988.326,15.851,2.28-1.194,3.474-1.629,4.56-2.28,9.337-5.754,18.891-11.183,28.011-17.371a72.1,72.1,0,0,0,13.571-12.16C951.87,125.341,951.544,120.129,948.4,115.9ZM673.6,207.637c.543,7.925,5.863,10.965,11.726,14.874h44.514V207.637Zm299.654.325c-18.891-.108-37.348-.325-56.022.109v14.983c2.28.217,3.909.543,5.646.543,8.577,0,17.154.217,25.622-.109a60.61,60.61,0,0,0,13.137-1.737C968.373,220.339,972.39,215.671,973.258,207.962ZM745.912,161.277c.435-4.343.652-7.925.977-11.4.435-3.365-.977-5.645-3.8-7.382-12.268-7.492-24.428-15.2-36.7-22.8a25.018,25.018,0,0,0-4.56-1.954c-2.823,4.017-2.715,8.142-.652,11.291A41.625,41.625,0,0,0,711.061,140c9.989,7.057,20.629,13.245,30.943,19.759A18.245,18.245,0,0,0,745.912,161.277Zm-1.628-75.565c-.326.543-.543.76-.543.978.108,14.439,14.548,32.9,28.12,36.045.651.108,1.628.434,2.062.108,4.126-2.605,8.143-5.32,13.463-8.685-8.686-4.234-16.72-7.166-23.56-11.726C756.769,97.655,750.906,91.467,744.284,85.712Zm129.741,37.24c15.2-2.063,33.983-25.731,29.531-37.348a7.017,7.017,0,0,0-1.628,1.194,72.026,72.026,0,0,1-33.657,23.451c-2.28.76-4.126,2.5-6.84,4.126C866.1,117.523,870.008,120.129,874.025,122.952Zm60.474,28.88c-9.772,6.08-19.217,12.051-29.314,18.457,1.845,4.994,3.474,9.445,5.32,14.765,5.645-3.691,10.531-6.405,14.874-9.88a56.671,56.671,0,0,0,9.663-10.1C937.539,161.277,937.973,156.717,934.5,151.832Zm-197.055,32.9c2.171-4.777,4.125-9.011,6.3-13.571-9.663-6.08-18.24-12.268-27.794-16.611-2.823,4.56-2.932,7.817-.543,12.268C720.181,175.5,728.65,179.626,737.444,184.728Zm-31.16,47.88c-.108,5.428,1.954,9.337,6.406,11.508a42.233,42.233,0,0,0,25.839,3.257c-2.062-5.428-3.8-9.988-5.537-14.657C723.872,231.848,715.078,231.414,706.284,232.608Zm203.244,15.308c9.445.217,17.8.869,25.188-3.908,3.583-2.28,6.514-5.863,6.08-11.4H915.282C913.545,237.494,911.808,242.162,909.528,247.916Zm-91.091,51.245V332.6h9.337v-33.44Zm10.64-265.888c0-4.234.217-8.577-.109-12.811-.217-2.715-1.085-6.189-4.342-5.646-1.846.326-4.56,3.583-4.56,5.646-.326,8.468,0,17.045.325,25.622.109,2.5,1.412,5.32,4.343,4.56,1.737-.434,3.8-3.04,4.126-4.885C829.511,41.633,829.077,37.4,829.077,33.273Zm-16.72,295.094V299.379h-8.251c0,5.862.217,11.182-.109,16.5C803.78,321.853,807.8,324.567,812.357,328.367Zm21.063-.326c5.645-3.691,9.337-7.057,8.685-13.571-.434-4.994-.325-9.989-.542-15.634-3.366.217-5.646.325-8.143.434ZM735.6,262.9c5.863,7.383,13.68,9.011,23.126,9.446-5-5.429-9.012-10.532-13.789-14.549-2.606-2.171-6.623-1.628-10.206,0C735.055,259.75,735.381,261.488,735.6,262.9ZM768.061,55.421a34.422,34.422,0,0,0,15.308,11.617c1.086.435,4.126-.76,4.56-1.845a5.678,5.678,0,0,0-1.086-5.212,89.553,89.553,0,0,0-10.965-8.142C772.512,49.776,769.906,51.079,768.061,55.421Zm74.7-2.823c3.583,1.846,6.08,1.2,7.925-1.3a88.975,88.975,0,0,0,6.949-10.206c.76-1.3.543-4.451-.326-5.1-1.3-.977-4.777-1.3-5.537-.325A114.617,114.617,0,0,0,842.431,48.8C841.888,49.667,842.648,51.4,842.757,52.6Zm-51.68-14.656c.218,5.971,4.343,9.988,7.6,14.005a7.238,7.238,0,0,0,6.189,1.846c2.931-.869,2.388-4.017,1.194-6.189a112.385,112.385,0,0,0-6.188-9.662C797.266,34.142,794.877,34.033,791.077,37.942ZM865.557,66.6c5.211-2.171,10.748-5.32,14.657-10.531,1.954-2.606-1.086-6.949-3.692-5.537A79.4,79.4,0,0,0,861.431,61.61C859.368,63.673,861.54,66.713,865.557,66.6ZM891.288,271.15c10.965,2.063,21.28-5.32,20.085-14.331-2.5.217-5.863-.543-7.491.869C899.431,261.488,895.739,266.156,891.288,271.15ZM823.974,159c-4.885,4.235-4.885,16.069-.217,21.172C828.1,174.849,828.426,163.014,823.974,159ZM924.51,187.551c-8.143,2.172-11.4,5.32-10.205,9.012.977,3.257,4.777,3.908,10.205,1.628ZM734.3,193.414c-2.5-1.52-4.668-2.931-8.143-4.994-.542,4.126-.868,7.057-1.3,10.423h7.708C733.209,197.105,733.644,195.585,734.3,193.414Z"/><path class="cls-1" d="M864.688,139.238c-4.017.217-7.491,1.194-7.926,5.862s3.149,5.863,6.732,6.732c-1.412,4.668-6.732,7.491-12.7,6.405-5.754-.977-12.268-5.32-12.051-12.811s4.56-13.463,11.4-14.44C857.414,130.118,862.625,132.94,864.688,139.238Z"/><path class="cls-1" d="M809.534,138.152c-4.125.217-7.6,1.086-7.925,5.754-.326,4.56,3.257,5.863,6.731,6.949-2.28,5.1-7.926,7.491-14.331,6.079-6.514-1.411-10.314-6.3-10.206-13.354.109-7.165,4.343-12.377,11.074-13.788C801.392,128.489,806.82,131.42,809.534,138.152Z"/></svg>