<svg id="Layer_1" data-name="Layer 1" xmlns="http://www.w3.org/2000/svg" viewBox="0 0 1641.8 351"><defs><style>.cls-1{fill:#fff;}</style></defs><title>Nike</title><path class="cls-1" d="M437.106,350.857q-44.017-1.748-72.126-24.109A144,144,0,0,1,350,311.754a93.624,93.624,0,0,1-16.24-29.224c-10.623-31.817-5.156-73.568,15.637-119.39,17.8-39.228,45.273-78.135,93.2-132.021C449.653,23.189,470.677,0,470.812,0c.051,0-1.1,1.985-2.537,4.4-12.462,20.873-23.124,45.459-28.933,66.744-9.331,34.154-8.206,63.464,3.3,86.191,7.934,15.657,21.537,29.219,36.832,36.716,26.777,13.12,65.981,14.205,113.857,3.176,3.3-.764,166.633-44.123,362.972-96.356S1313.307,5.929,1313.332,5.965c.055.045-456.152,195.259-692.976,296.534-37.506,16.034-47.535,20.084-65.167,26.274C510.116,344.6,469.742,352.154,437.106,350.857Z"/></svg>