<svg id="Layer_1" data-name="Layer 1" xmlns="http://www.w3.org/2000/svg" viewBox="0 0 870.96 217.58"><defs><style>.cls-1{fill:#fff;}</style></defs><title>Origin</title><path class="cls-1" d="M391.84,85.08c0,50.37-43.95,50.37-43.95,50.37l43.95,44H347.89l-43.95-44H253.78v44H222.47V34.91H341.88C341.67,34.91,391.84,34.91,391.84,85.08ZM341.67,66.21H253.78v37.73h87.89c12.65,0,18.87-6.22,18.87-18.66C360.33,72.64,354.11,66.21,341.67,66.21Z"/><path class="cls-1" d="M410.7,34.91H442V179.4H410.7Z"/><path class="cls-1" d="M604.73,122.81H529.9V97.72H630.44V179.4H523.68s-62.81,0-62.81-75.46c0-69,62.81-69,62.81-69H624.22v31.3H523.68s-31.3,0-31.3,37.73c0,43.95,31.3,43.95,31.3,43.95h81.26Z"/><path class="cls-1" d="M649.3,34.91h31.3V179.4H649.3Z"/><path class="cls-1" d="M731,78.86V179.4H699.67V34.91H731L837.74,135.45V34.91H869V179.4h-31.3Z"/><path class="cls-1" d="M43.16,140a67,67,0,0,1,72.35-97c-27.57-10-53.9-12.86-83.13-1.46-6.84,2.7-8.5,3.74-14.92,14.1C12.69,63.31,10.2,67.66,7.09,77a100.39,100.39,0,0,0,7.05,79.81h0a99.45,99.45,0,0,0,56.59,47.47,100.68,100.68,0,0,0,91.84-14.71C118,203,69.28,185.82,46.06,145.19c-1-1.65-1.86-3.31-2.9-5.18"/><path class="cls-1" d="M191.79,62.27h0A100.62,100.62,0,0,0,39.64,30.56c44.15-14.93,93.07.62,117.74,39.38,0,0,3.73,5.6,5.39,8.92a67.09,67.09,0,0,1-79.6,94.32c28.4,12.44,65.51,18.24,95.15,1.45,1.24-.83,3.11-2.69,6.22-7a90.83,90.83,0,0,0,13.68-26.74,100.07,100.07,0,0,0-6.43-78.57Z"/><path class="cls-1" d="M88.35,117.21a17.67,17.67,0,1,0,7.47-23.84A17.62,17.62,0,0,0,88.35,117.21Z"/></svg>