<svg xmlns="http://www.w3.org/2000/svg" id="Layer_1" data-name="Layer 1" viewBox="0 0 1641.8 351"><defs><style>.cls-1{fill:#fff}</style></defs><title>Origin</title><path d="M745.35,134.258c0,87.243-76.123,87.243-76.123,87.243L745.35,297.71H669.227L593.1,221.5H506.224V297.71h-54.23V47.361H658.817C658.453,47.361,745.35,47.361,745.35,134.258Zm-86.9-32.684H506.224v65.35H658.453c21.911,0,32.684-10.773,32.684-32.32C690.773,112.711,680,101.574,658.453,101.574Z" class="cls-1"/><path d="M778.016,47.361h54.213V297.624H778.016Z" class="cls-1"/><path d="M1114.084,199.608H984.475V156.151h174.14V297.624H973.7s-108.789,0-108.789-130.7C864.913,47.413,973.7,47.413,973.7,47.413h174.139v54.213H973.7s-54.213,0-54.213,65.35c0,76.123,54.213,76.123,54.213,76.123h140.746Z" class="cls-1"/><path d="M1191.281,47.361h54.213V297.624h-54.213Z" class="cls-1"/><path d="M1332.789,123.485V297.624h-54.265V47.361h54.265L1517.667,221.5V47.361h54.143V297.624H1517.6Z" class="cls-1"/><path d="M141.422,229.381A116.046,116.046,0,0,1,266.735,61.374C218.983,44.053,173.378,39.1,122.75,58.845c-11.847,4.676-14.722,6.478-25.842,24.422-8.261,13.284-12.574,20.819-17.961,37A173.881,173.881,0,0,0,91.158,258.5h0a172.252,172.252,0,0,0,98.016,82.22,174.385,174.385,0,0,0,159.071-25.478c-77.2,23.261-161.582-6.495-201.8-76.868-1.732-2.858-3.222-5.733-5.023-8.972" class="cls-1"/><path d="M398.855,94.75h0a174.277,174.277,0,0,0-263.53-54.923c76.47-25.859,161.2,1.074,203.931,68.208,0,0,6.46,9.7,9.335,15.45a116.2,116.2,0,0,1-137.87,163.366c49.19,21.546,113.466,31.592,164.8,2.511,2.148-1.438,5.387-4.659,10.774-12.124a157.346,157.346,0,0,0,23.694-46.315A173.326,173.326,0,0,0,398.855,94.837Z" class="cls-1"/><path d="M219.693,189.908a30.605,30.605,0,1,0,12.952-41.3l-.014.007a30.519,30.519,0,0,0-13.012,41.152C219.644,189.815,219.668,189.862,219.693,189.908Z" class="cls-1"/></svg>