<svg xmlns="http://www.w3.org/2000/svg" id="Layer_1" data-name="Layer 1" viewBox="0 0 1641.8 351"><defs><style>.cls-1{fill:#fff}</style></defs><title>Panthers</title><path d="M819.668,351c-2.327-1.526-4.563-3.217-7-4.553-29.73-16.339-57.031-35.8-79.712-61.32-25.144-28.29-42.651-60.866-54.391-96.659a274.328,274.328,0,0,1-13.155-65.384,24.639,24.639,0,0,0-1.271-4.657V35.671c.649-.282,1.313-.532,1.944-.851C701.138,17.113,738.336,6.849,777.3,2.651,784.3,1.9,791.277.89,798.266,0H842.5q12.316,1.439,24.632,2.879c37.071,4.393,72.612,14.08,106.147,30.7,1.262.625,2.461,1.378,3.847,2.161a14.723,14.723,0,0,1,.494,2.741c-.29,26.842.79,53.788-1.2,80.505C971,191.646,943.6,254.534,889.462,304.554c-17.535,16.2-37.418,29.183-58.248,40.758-3.019,1.677-5.8,3.781-8.692,5.688ZM673.247,42.011c0,18.444-.371,36.748.121,55.03a358.986,358.986,0,0,0,2.994,41.15,279.612,279.612,0,0,0,32.78,97.255c26.091,46.816,64.459,80.374,111.663,104.726,1.85-.915,3.571-1.706,5.237-2.6,27.668-14.821,52.851-33,73.8-56.493C942.427,233.317,964,176.8,967.5,113.341c1.218-22.049.352-44.214.394-66.326,0-2.078-.307-4.157-.445-5.9C880.929-2.833,749.87.837,673.247,42.011Z" class="cls-1"/><path d="M727.167,168.357c8.331,5.107,20.155,3.765,26.847-2.559,3.193-3.017,6.333-6.092,9.5-9.141l1.259.811-2.033,12.976h19.575l14.5,12.786c1.344,6.5-1.463,11.2-3.118,16.054-1.674,4.912-4,9.6-6.265,14.9,3.933-.378,7.671-.387,11.245-1.16,5.761-1.245,10.546.33,15.545,3.192,17.184,9.837,35.4,16.055,55.944,14.321a77.142,77.142,0,0,0,19.971-26.489c-1.073-8.3-2.152-16.632-3.406-26.322,2.248,1.68,3.525,2.292,4.328,3.286a69.948,69.948,0,0,1,14.643,32.832c1.007,6.1-.363,12.763-1.521,19.012-3.957,21.354-11.829,41.012-26.286,57.633-.923,1.061-1.439,2.476-2.808,4.9-9.066-17.9-19.322-32.254-33.824-44.931,1.218,7.36,2.25,13.59,3.282,19.82l-1.389.757c-13.519-13.654-28.5-25.265-45.8-33.838,14.991,16.568,26.774,34.627,29.122,57.343.563,5.449,1.463,11.25-1.959,17.5-1.893-8.238-3.6-15.524-8.707-22.195-6.775,9.454-13.2,18.312-24.133,23.144A242.67,242.67,0,0,1,717.854,233.3c-21.282-37.044-32.585-77.089-35.548-120.108a71.132,71.132,0,0,1,6.913-3.822A322.954,322.954,0,0,1,768.683,87.89c20.261-2.863,40.591-4.618,61.033-3.865,42.519,1.567,83.928,8.767,123.313,25.56,2.122.905,4.111,2.122,6.205,3.216-1.553,27.153-6.485,53-16.262,78.959-9.775-9.124-16.444-20.066-27.217-27.5l-23.85,5.164-.9-1.693a61.183,61.183,0,0,1,5.048-4.072,29.047,29.047,0,0,0,12.876-18.837c1.708-7.633,3.909-15.158,5.581-22.8,1.156-5.281,1.307-10.878-3.894-14.15-4.651-2.926-10.06-4.613-15.637-2.479-4.644,1.777-9.146,3.938-13.655,6.049-9.239,4.325-18.42,8.774-27.673,13.068-2.12.984-4.437,1.546-8.219,2.83l5.067-8.972c-19.561-6.219-38.855-3.343-59.16.9,2.391-5.586,7.765-5.191,10.578-8.972l-4.809-8.287c-6.557,5.232-8.083,12.383-11.4,18.644l-19.092,12.42-3.373-1.262-8.819,5.65c.848,2.615,1.556,4.795,2.488,7.668A71.249,71.249,0,0,0,727.167,168.357Zm48.163,15.158-4.707-5.154c-5.07.406-10.032,1.2-14.977,1.106-6.966-.129-11.723,2.978-15.153,8.381v13.067c9.985,3.882,19.871,7.8,29.843,11.49,1.084.4,2.668-.548,5-1.106l-6.607-7.111,9.208-.671.424-1.6-8.953-6.518,10.649-1.432.184-1.634L767.733,185.9Zm-.873,42.406-34.666-18.36c-1.127,3.278-2.177,6.33-3.032,8.816,2.327,6.972,5.6,12.309,10.662,15.986Zm-43.795-15.13c3.287-4.263,5.558-7.208,7.511-9.739a36.5,36.5,0,0,0-12.349-21.933c-1.5,3.833-2.943,7.517-4.485,11.458C724.285,196.966,727.216,203.32,730.662,210.791Z" class="cls-1"/><path d="M959.313,46.393v55.691Q820.94,48.773,683.5,101.639c-1.438-4.865-1.9-43.991-.538-55.273,40.067-18.459,82.824-26.754,127.032-28.035C861.592,16.835,911.47,25.025,959.313,46.393ZM919.7,43.021c-1.188,3.006-2.825,5.317-2.908,7.682-.315,8.964-.127,17.945-.127,27.313l7.179,2.1c.242-4.737.444-8.675.694-13.561l7.049,2.585V82.814l7.842,2.174C937.9,71.8,942.311,59.332,935.356,47.9Zm-41.906-9.74c.164,12.959-.32,24.645.32,36.255l18.56,3.433c5.711-8.212,5.5-26.7-.313-36.108Zm-64.1-4.468c0,10.088-.023,19.512.017,28.936.009,2.075.236,4.15.4,6.877l7.513-.453V51.356l1.105-.115c1.972,4.448,3.943,8.9,5.862,13.227h7.725l-4.662-12.431c7.066-8.7,7.252-14.687.626-23.224ZM777.845,31.4c-4.288,6.889-5.382,14.12-3.831,27.984.313,2.8,2.092,5.437,3.241,8.261l15.937-1.9c5.559-9.4,5.228-28.449-.607-36.046ZM703.134,49.075V85.093l6.944-2.242V69.245l8.025-3.677V58.787l-7.6,1.622V54.651l10.714-4.13V43.193Zm35.389-10.392V74.6l18.3-3.989V63.5L745.289,65.04V36.95ZM860.7,67.132V31.074l-6.831-.654V66.152Z" class="cls-1"/><path d="M877.521,139.457c2.119-4.565,3.874-8.345,5.947-12.807l-9.6.433-.576-1.439c7.748-6.978,16.207-12.861,26.412-16.147,4.931,1,10.235,1.138,11.818,8.879-2.663,9.745-5.605,20.683-8.685,31.581a8.823,8.823,0,0,1-2.4,4.231c-4.831,4.057-9.871,7.866-15.642,12.4L880.136,156.2l6.523-16.13Z" class="cls-1"/><path d="M826.9,137.877l-9.476,2.45c-4.9,4.564-8.94,8.573-13.269,12.233a15.305,15.305,0,0,1-6.677,3.631c-8.836,1.546-17.748,1.007-28.133.452l13.534-18.868,2.668,4.84c9.358-2.874,18.123-5.574,26.894-8.258C817.312,132.867,821.663,133.9,826.9,137.877Z" class="cls-1"/><path d="M847.474,149.237,844.5,161.055l-24.936,11.6-1.2-1.31c4.419-6.684,10.577-12.154,14.814-19.376.192-2.948.4-6.2.642-9.843C839.607,142.372,842.82,146.3,847.474,149.237Z" class="cls-1"/><path d="M924.531,52.358l6.366,2.03v5.673l-6.366-1.475Z" class="cls-1"/><path d="M892.09,64.277l-6.272-1.209V42.751l6.272,1.092Z" class="cls-1"/><path d="M828.619,36.242v6.124l-6.723.468c-.217-2.13-.4-3.9-.634-6.239Z" class="cls-1"/><path d="M788.725,58.256l-6.765.858V39.091l6.765-1.049Z" class="cls-1"/></svg>