<svg xmlns="http://www.w3.org/2000/svg" id="Layer_1" data-name="Layer 1" viewBox="0 0 1641.8 351"><defs><style>.cls-1{fill:#fdfeff}.cls-2{fill:#fff}</style></defs><title>Pepsi</title><g id="g1017"><g id="g1003"><path id="path16" d="M973.064,163.733a87.42,87.42,0,0,1-15.486,3.092,81.043,81.043,0,0,1-10.526.6c-6.74,0-14.044-.537-21.116-1.09l-.245-.009c-6.55-.494-12.749-.96-18.7-.96a92.8,92.8,0,0,0-11.877.731,89.48,89.48,0,0,0-19.872,4.868l.1-.9c2.152-22.281,20.875-41.3,43.531-44.313a55.294,55.294,0,0,1,6.392-.383c21.345,0,42.046,16.181,48.2,37.676l.154.556Zm26.079,9.461-.006-.3c-.1-1.433-.372-3.751-.672-6.243a75.819,75.819,0,0,0-2.937-13.262c-10.3-32.5-37.882-53.473-70.263-53.473a73.3,73.3,0,0,0-9.863.655c-41.525,5.343-69.728,42.978-64.236,85.676,4.995,38.655,36.1,65.136,73.945,65.136a83.64,83.64,0,0,0,9.879-.623c20.172-2.563,37.9-11.012,51.175-27.442a4.386,4.386,0,0,0,.979-3.2,3.823,3.823,0,0,0-1.682-2.582c-2.227-1.6-10.179-5.461-14.506-7.522-1.272-.635-2.3-1.129-2.867-1.413a6.922,6.922,0,0,0-3.107-.979,3.929,3.929,0,0,0-3.017,1.717A47.918,47.918,0,0,1,931.5,225.964a52.785,52.785,0,0,1-6.393.41c-20.172,0-40.53-13.507-46.441-32.045l-.146-.485.434-.209c1.047-.522,10.487-4.916,24.476-4.916,1.734,0,3.5.071,5.228.225,4.012.316,8.043.837,12.291,1.374a185.706,185.706,0,0,0,25.475,2.113,125.818,125.818,0,0,0,17.472-1.24c23.09-4.45,32.25-10.925,32.321-10.985,3.261-2.108,3.139-3.857,2.922-7.012" class="cls-1"/><path id="path18" d="M1360.853,108.421a3.513,3.513,0,0,0-3.51-3.5h-19.11a3.5,3.5,0,0,0-3.478,3.5V244.3a3.515,3.515,0,0,0,3.478,3.506h19.11a3.532,3.532,0,0,0,3.51-3.506V108.421" class="cls-1"/><path id="path20" d="M1347.8,56.46a17.251,17.251,0,1,0,17.25,17.27,17.292,17.292,0,0,0-17.25-17.27" class="cls-1"/><path id="path22" d="M1094.832,125.718c27.082,0,48.3,22.289,48.3,50.761,0,28.641-20.137,50.219-46.847,50.219-13.488,0-25.988-4.837-35.137-13.6-9.436-9.01-14.613-21.732-14.613-35.768,0-28.46,21.661-51.613,48.293-51.613m-.849,125.708c1.208.051,2.46.1,3.676.1a71.875,71.875,0,0,0,51.439-21.242c13.749-13.926,21.3-33.024,21.3-53.8,0-42.931-33.052-76.567-75.256-76.567-34.343,0-63.336,22.616-72.2,56.256-1.508,5.713-3.068,20.279-3.068,34.805V297.587a3.511,3.511,0,0,0,3.5,3.525h18.956a3.556,3.556,0,0,0,3.546-3.553l-.016-67.161,1,.967c9.31,9.046,26.577,19.1,47.128,20.062" class="cls-1"/><path id="path24" d="M754.269,125.718c27.058,0,48.289,22.289,48.289,50.761,0,28.641-20.129,50.219-46.864,50.219-13.519,0-25.964-4.837-35.1-13.6-9.452-9.01-14.652-21.732-14.652-35.768,0-28.46,21.68-51.613,48.332-51.613m-.841,125.708c1.208.051,2.452.1,3.648.1a71.813,71.813,0,0,0,51.444-21.242c13.752-13.926,21.325-33.024,21.325-53.8,0-42.931-33.08-76.567-75.292-76.567-34.331,0-63.351,22.616-72.2,56.256-1.536,5.713-3.072,20.279-3.072,34.805V297.587a3.515,3.515,0,0,0,3.471,3.525h19.011a3.555,3.555,0,0,0,3.538-3.553l-.031-67.161.959.967c9.314,9.046,26.581,19.1,47.2,20.062" class="cls-1"/><path id="path26" d="M1188.657,227.626c16.5,15.1,34.532,23.73,57.938,23.73h.743c40.4-.261,58.451-22.344,58.451-44.1,0-30.094-28.392-38.319-37.091-40.143-2.791-.545-5.693-1.09-8.67-1.682-7.032-1.354-14.333-2.752-20.966-4.584-4.651-1.279-19.813-6.329-19.813-17.665,0-12.481,13.851-19.209,26.861-19.209,10.929,0,20.042,1.84,31.7,10.945a6.167,6.167,0,0,0,3.751,1.54,5.821,5.821,0,0,0,3.447-1.248,138.614,138.614,0,0,0,13.038-11.264,3.953,3.953,0,0,0,1.3-3.017,5.409,5.409,0,0,0-1.951-3.53c-15.592-12.37-30.6-17.432-51.759-17.487h-.154c-30.268,0-53.117,19.458-53.117,45.252,0,20.441,16.8,34.959,47.262,40.941l19.074,3.656c12.536,2.3,19.584,8.959,19.339,18.281-.225,9.085-11.367,18.494-29.676,18.494-14.944,0-28.108-5.836-39.136-15.845l-.162-.158a4.578,4.578,0,0,0-2.961-1.567,4.7,4.7,0,0,0-2.807,1.188c-1.149.932-13.887,11-15.245,12.43a2.979,2.979,0,0,0-.9,2.116,4.457,4.457,0,0,0,1.512,2.926" class="cls-1"/></g><path d="M573.307,52.656c-67.818-67.847-177.822-67.847-245.664-.006a173.727,173.727,0,0,0,245.676,245.7v0C641.168,230.491,641.168,120.481,573.307,52.656ZM289.27,175.5A161.189,161.189,0,0,1,547.157,46.51h0A334.684,334.684,0,0,1,320.733,271.2,160.476,160.476,0,0,1,289.27,175.5Zm161.2,161.211a160.837,160.837,0,0,1-123.667-57.823c97.949-30.865,168.888-30.912,217.559-66.759,27.99-20.623,46.393-53.536,46.393-90.967a112.867,112.867,0,0,0-5.038-33.332A161.157,161.157,0,0,1,450.474,336.711Z" class="cls-2"/></g></svg>