<svg xmlns="http://www.w3.org/2000/svg" id="Layer_1" data-name="Layer 1" viewBox="0 0 1641.8 351"><defs><style>.cls-1{fill:#fff}</style></defs><title>Popeyes</title><g id="layer1"><g id="g8892"><g id="g7084"><g id="g7086"><g id="g7104"><g id="g7106"><path id="path7108" d="M822.94,0a138.949,138.949,0,0,0-54.011,10.806A138.7,138.7,0,0,0,707.862,60.57a136.448,136.448,0,0,0-12.789,130.323,139.353,139.353,0,0,0,12.789,23.338A136.354,136.354,0,0,0,724.8,234.587a139.944,139.944,0,0,0,152.124,29.434,138.963,138.963,0,0,0,44.1-29.434,137.474,137.474,0,0,0,16.938-20.33A136.441,136.441,0,0,0,950.753,83.934,138.995,138.995,0,0,0,822.94,0M689.709,137.44c0-72.841,59.639-131.893,133.2-131.893s133.2,59.052,133.2,131.893c0,72.867-59.639,131.893-133.2,131.893-73.538,0-133.2-59.053-133.2-131.893M822.94,46.52c-50.708,0-91.8,40.685-91.8,90.92-.026,50.182,41.09,90.894,91.8,90.894s91.824-40.712,91.824-90.92c-.027-50.209-41.116-90.894-91.824-90.894m0,176.293a86.369,86.369,0,0,1-79.458-52.171,84.68,84.68,0,0,1,18.5-93.589,86.688,86.688,0,0,1,121.948,0,84.634,84.634,0,0,1,25.235,60.361,84.093,84.093,0,0,1-6.765,33.228,86.369,86.369,0,0,1-79.457,52.171" class="cls-1"/></g></g><g id="g7110"><g id="g7112"><path id="path7114" d="M724.886,119.327l-3.858-1.282.74-2.146a1.638,1.638,0,0,0-1.216-2.328l-14.48-4.815a1.612,1.612,0,0,0-2.352,1.125l-.74,2.146-3.858-1.256,5.787-17.085,3.858,1.282-.9,2.616a1.579,1.579,0,0,0,1.189,2.3l14.48,4.814c1.638.549,1.9.288,2.563-1.648l.793-2.329c.9-2.643-.079-5.181-3.911-6.463l-2.3-.758,1.507-4.4,11.653,3.872Z" class="cls-1"/></g></g><g id="g7116"><g id="g7118"><path id="path7120" d="M725.248,64.929c-2.009,2.669-1.11,4.631,5.047,9.184,6.183,4.6,8.455,4.971,10.464,2.3,2.008-2.643.977-4.683-5.179-9.262-6.184-4.553-8.324-4.867-10.332-2.224m19.025,14.129c-5.6,7.378-13.582,8.372-20.294,3.4-6.685-4.971-7.874-12.794-2.272-20.173,5.575-7.378,13.5-8.451,20.188-3.479,6.712,5,7.98,12.872,2.378,20.251" class="cls-1"/></g></g><g id="g7122"><g id="g7124"><path id="path7126" d="M764.661,30.487c-1.03.733-.951,1.858-.238,2.9l5.47,7.719c5.021,7.064,2.854,12.088-3.25,16.352-6.791,4.736-12.314,5.887-17.44-1.36l-5.972-8.4a1.652,1.652,0,0,0-2.669-.445l-.872.6-2.325-3.3L750.5,35.406l2.325,3.271-1.506,1.046a1.68,1.68,0,0,0-.423,2.643l6.553,9.236c2.114,2.982,4.783,2.721,7.769.654,2.8-1.963,3.25-4.658,1.427-7.222l-6.315-8.869c-.74-1.021-1.771-1.465-2.828-.733l-1.321.942-2.325-3.3,9.777-6.828,2.325,3.3Z" class="cls-1"/></g></g><g id="g7128"><g id="g7130"><path id="path7132" d="M781.409,48.273l-1.374-3.794,2.457-.864c1.189-.418,1.322-.758.9-1.988l-5.153-14.233c-.423-1.178-1.268-1.858-2.457-1.439l-2.167.758-1.374-3.767,16.541-5.861,1.374,3.768-2.193.785c-1.189.418-1.189,1.046-.766,2.25l5.126,14.233a1.627,1.627,0,0,0,2.378,1.151l1.85-.654,1.374,3.794Z" class="cls-1"/></g></g><g id="g7134"><g id="g7136"><path id="path7138" d="M817.374,40.125c-4.36.288-7.055-.89-8.535-.785a1.085,1.085,0,0,0-.978,1.125l-3.831.262-.714-10.283,4.334-.288.053.759c.264,3.768,3.461,5.154,7.346,4.893,3.541-.236,5.285-1.335,5.153-3.009-.106-1.491-.952-2.146-4.889-2.721l-5.866-.837c-3.673-.524-6.633-2.905-6.9-7.143-.37-5.992,4.942-9.079,11.1-9.5,3.964-.261,5.444.968,6.606.89,1.057-.079,1.269-.5,1.269-1.073l4.1-.288.661,9.419-4.545.314L821.681,21c-.211-3.087-2.854-4.422-6.236-4.213-2.88.21-4.756.707-4.65,2.355.079,1.178.766,1.884,3.937,2.355l6.077.968c3.911.6,7.135,2.486,7.425,7.091.45,7.352-5.205,10.177-10.86,10.57" class="cls-1"/></g></g><g id="g7140"><g id="g7142"><path id="path7144" d="M832.14,39.7l.713-3.951,2.563.471c1.242.235,1.559,0,1.771-1.282l2.748-14.888c.211-1.229-.159-2.223-1.4-2.459l-2.246-.419.74-3.95,17.255,3.113-.74,3.951-2.3-.419c-1.242-.235-1.559.314-1.8,1.544L846.7,36.324a1.6,1.6,0,0,0,1.454,2.171l1.929.34-.714,3.951Z" class="cls-1"/></g></g><g id="g7146"><g id="g7148"><path id="path7150" d="M877.379,32.376l-7.293,6.2,6,3.192Zm-8.455,18.5,1.929-3.532,2.536,1.36c1.031.55,1.771.079,1.9-.915l.291-1.884-8.72-4.6-1.3,1.151c-1.057.942-.872,1.675.343,2.329l1.982,1.046-1.929,3.532-11.1-5.886,1.929-3.533.661.34a2.719,2.719,0,0,0,3.144-.052l17.731-14.861,8.059,4.265-2.669,22.318a2.6,2.6,0,0,0,1.321,2.9l.872.471-1.928,3.532Z" class="cls-1"/></g></g><g id="g7152"><g id="g7154"><path id="path7156" d="M925.771,70.9a1.66,1.66,0,0,0-2.642-.21L906.957,84.324,901.17,77.6l5.153-20.487-8.641,7.274a1.639,1.639,0,0,0-.237,2.643l1.532,1.779-3.091,2.616L887.113,61.2l3.091-2.59,1.48,1.727a1.671,1.671,0,0,0,2.669.183l11.389-9.6c.978-.811,1.3-1.857.449-2.8l-1.48-1.727L907.8,43.8l8.614,10.047L911.344,73.78l8.35-7.038a1.59,1.59,0,0,0,.238-2.591L918.425,62.4l3.092-2.59,8.773,10.2L927.2,72.629Z" class="cls-1"/></g></g><g id="g7158"><g id="g7160"><path id="path7162" d="M934.254,95.063l-9.619-.209,2.326,6.332Zm-18.761,8.216,3.8-1.387,1,2.7a1.17,1.17,0,0,0,2.035.549l1.479-1.2-3.382-9.184H918.69c-1.427,0-1.77.68-1.3,1.963l.767,2.093-3.806,1.386L910.023,88.47l3.8-1.387.264.68A2.694,2.694,0,0,0,916.47,89.8l23.227.628,3.145,8.5-16.991,14.888a2.616,2.616,0,0,0-.978,3.035l.344.916-3.8,1.386Z" class="cls-1"/></g></g><g id="g7164"><g id="g7166"><path id="path7168" d="M717.953,205.78l3.382-2.2.872,1.308c.5.759,1.189,1.1,1.77.733a3.049,3.049,0,0,0,.978-1.335l2.273-5.677-4.466-1.2-2.3,1.492c-1.057.68-1.427,1.151-.74,2.2l.925,1.413-3.382,2.2-9.143-13.762,3.382-2.2,1.269,1.884a1.628,1.628,0,0,0,2.589.471l12.789-8.294a1.583,1.583,0,0,0,.555-2.538l-1.268-1.884,3.409-2.2,9.592,14.5-3.383,2.2-1.4-2.145c-.687-1.047-1.3-.864-2.352-.184l-6,3.9,9.724,2.59a1.781,1.781,0,0,0,1.638-.131.93.93,0,0,0,.185-1.308l-.872-1.308,3.382-2.2,8.192,12.349-3.409,2.2-1.48-2.25a4.933,4.933,0,0,0-3.038-1.831l-6.263-1.7-5.179,13.37c-.555,1.36-.581,1.805-.106,2.485l1,1.518-3.408,2.2Z" class="cls-1"/></g></g><g id="g7170"><g id="g7172"><path id="path7174" d="M734.8,226.515l2.643-3.062,1.981,1.675c.978.811,1.348.759,2.194-.236l9.909-11.512c.819-.942.977-2.014.026-2.825l-1.744-1.466,2.643-3.061L765.8,217.279l-2.643,3.061-1.77-1.491c-.951-.811-1.506-.5-2.325.444l-9.909,11.513a1.607,1.607,0,0,0,.158,2.616l1.506,1.282-2.642,3.061Z" class="cls-1"/></g></g><g id="g7176"><g id="g7178"><path id="path7180" d="M787.941,241.5l1.347-3.062c1.137-2.59.74-4.6-1.876-5.756l-1.162-.5-6.818,15.385a2.149,2.149,0,0,0,1.136,2.93l2.775,1.2-1.638,3.689-18.365-7.98,1.638-3.69,2.828,1.2a2.166,2.166,0,0,0,2.906-1.177l6.818-15.385-1.163-.5c-2.616-1.125-4.413-.078-5.549,2.512l-1.348,3.061-4.2-1.831L770,220.877l26.873,11.669-4.756,10.728Z" class="cls-1"/></g></g><g id="g7182"><g id="g7184"><path id="path7186" d="M812.309,261.847c-9.143-.811-13.926-6.986-13.16-15.227.82-8.818,7.161-13.4,15.617-12.638a15.838,15.838,0,0,1,5.761,1.675c.634.314.792,0,1.321-1.047l4.386.393-.978,10.753-4.809-.418.106-1.021c.291-3.166-.951-5.337-4.307-5.651-4.017-.367-5.866,2.59-6.448,8.712-.634,7.038.714,9.89,5.047,10.283,3.7.314,5.047-1.727,5.6-5.469l.185-1.308,4.7.419-.106,1.282c-.476,5.364-4.069,10.073-12.921,9.262" class="cls-1"/></g></g><g id="g7188"><g id="g7190"><path id="path7192" d="M856.97,257.19l-1.083-3.873,1.453-.392a1.621,1.621,0,0,0,1.269-2.3l-1.533-5.494-7.821,2.119,1.532,5.495a1.639,1.639,0,0,0,2.273,1.334l1.453-.392,1.083,3.872L839.266,262l-1.083-3.872,2.22-.6a1.64,1.64,0,0,0,1.268-2.3l-4.043-14.573a1.63,1.63,0,0,0-2.272-1.308l-2.22.6-1.084-3.873,16.331-4.448,1.057,3.873-1.454.392a1.6,1.6,0,0,0-1.268,2.276l1.4,5.024,7.822-2.119-1.4-5.024a1.618,1.618,0,0,0-2.272-1.308l-1.453.392-1.084-3.872,16.3-4.422,1.083,3.873-2.219.6a1.569,1.569,0,0,0-1.242,2.25l4.043,14.6c.343,1.2,1.03,1.675,2.246,1.334l2.219-.6,1.084,3.872Z" class="cls-1"/></g></g><g id="g7194"><g id="g7196"><path id="path7198" d="M885.569,246.231l-2.4-3.244,1.85-1.335c1.03-.758,1.321-1.308.555-2.354l-9.434-12.716c-.74-1.02-1.347-.89-2.378-.131l-1.85,1.334-2.4-3.244,22.8-16.588,6.527,8.791-3.673,2.669-1.084-1.439c-2.087-2.826-4.545-3.009-6.87-1.334l-2.96,2.145c-1.03.733-1.347,1.282-.607,2.3l3.435,4.631,1.585-1.151c.9-.654.872-1.491.159-2.433l-1.348-1.8,3.3-2.407,7.61,10.256-3.3,2.381-1.717-2.3a1.58,1.58,0,0,0-2.431-.444l-1.506,1.1,3.62,4.893c.766,1.047,1.294,1.021,2.3.288l2.721-1.989c2.748-2.014,3.726-4.186,1.11-7.744l-1.03-1.387,3.672-2.668,6.765,9.131Z" class="cls-1"/></g></g><g id="g7200"><g id="g7202"><path id="path7204" d="M917.474,179.628a1.619,1.619,0,0,0,.555,2.564L935.865,193.6l-4.836,7.431-21.3,1.02,9.539,6.1a1.674,1.674,0,0,0,2.616-.523l1.3-1.962,3.409,2.171-7.346,11.277-3.409-2.172,1.242-1.909a1.656,1.656,0,0,0-.581-2.591l-12.578-8.032c-1.057-.68-2.167-.68-2.854.392l-1.242,1.91-3.408-2.171,7.213-11.068,20.743-.968-9.222-5.913a1.623,1.623,0,0,0-2.563.523l-1.268,1.937-3.409-2.172,7.346-11.277,3.409,2.172Z" class="cls-1"/></g></g><g id="g7206"><g id="g7208"><path id="path7210" d="M835.3,159.6l-.4.261,2.669,7.274c12.049-5.154,35.567-17.425,40.587-36.237-12.921,18.838-42.86,28.7-42.86,28.7" class="cls-1"/></g></g><g id="g7212"><g id="g7214"><path id="path7216" d="M817.3,109.861l-.185.078,2.933,7.954c6.527-1.2,15.379-.915,18.761,8.373a11.284,11.284,0,0,1,.635,2.773c3.7-3.166,6.236-7.509,4.227-13.082-5.6-15.41-26.371-6.1-26.371-6.1" class="cls-1"/></g></g><g id="g7218"><g id="g7220"><path id="path7222" d="M783.306,121.849l-10.7,3.872-9.8-26.687-4.624,1.675-3.013,1.072,12.552,34.249,10.7-3.872L808.515,214l33.241-11.983-2.774-7.562-25.605,9.236Z" class="cls-1"/></g></g><g id="g7224"><g id="g7226"><path id="path7228" d="M829.406,129.927s21.905-6.3,17.017-19.806c-5.6-15.437-26.372-6.1-26.372-6.1l-.185.078,9.487,25.8Zm8.244,24.1,11.706,31.842-33.242,11.983-30.07-81.841-10.729,3.872L762.737,85.631l3.013-1.072L776,80.843c31.049-10.988,91.9-30.4,108.762,15.987,13.424,37.153-46.744,56.959-46.744,56.959Z" class="cls-1"/></g></g><g id="g7230"><g id="g7232"><path id="path7234" d="M711.666,165.608c-.053,0-.132-.157-.132-.209a3.646,3.646,0,0,0-.793-1.256c-.264-.261-.475-.523-.713-.785A4.853,4.853,0,0,1,709,158.832c.132-.5.264-.968.423-1.439a13.97,13.97,0,0,0,.476-2.015c.026-.314.053-.628.053-.942,0-.183-.476-.157-.529.027-.079.287-.132.6-.238.915a7.811,7.811,0,0,1-.793,2.015,5.253,5.253,0,0,1-1.136,1.413,3.007,3.007,0,0,1-3.382.549,2.291,2.291,0,0,1-.211-3.977.9.9,0,0,1,.4-.131v.131a1.438,1.438,0,0,0,.555,1.335,1.608,1.608,0,0,0,1.9-.157,3.1,3.1,0,0,0,.74-1.2,2.416,2.416,0,0,0,.212-.942c-.053-.235-.872-.026-1.242-.288a.777.777,0,0,1-.317-.785,1.791,1.791,0,0,1,.132-.34c.37-.575,1.347-.183,1.427-.5a2.34,2.34,0,0,0-.317-1.177,2.845,2.845,0,0,0-2.167-1.753,1.957,1.957,0,0,0-1.559.418,1.752,1.752,0,0,0-.714,1.335,3.156,3.156,0,0,0,.08.68,3.112,3.112,0,0,1-2.352-.706c-.027-.026.026.026,0,0a4.383,4.383,0,0,1-1.4-1.989,3.382,3.382,0,0,1-.158-.706,4.119,4.119,0,0,1,2.325-4.265,4.666,4.666,0,0,1,2.8-.392,5.008,5.008,0,0,1,2.669,1.412,9.422,9.422,0,0,1,2.193,3.82.366.366,0,0,1,.053.157,9.181,9.181,0,0,1,.449,2.015c.053.445.106.837.132,1.177.027.131.476.1.476-.052,0-.366-.026-.759-.053-1.125a10.453,10.453,0,0,0-.423-2.015,42.794,42.794,0,0,0-1.823-4.6,7.841,7.841,0,0,1-.687-3.088,5.942,5.942,0,0,1,.819-2.642c.581-1.1,1.638-1.7,2.4-2.669a6.641,6.641,0,0,0,1.215-2.983.219.219,0,0,1,.159-.1.215.215,0,0,1,.158.1,6.95,6.95,0,0,0,1.216,2.983c.793.968,1.823,1.6,2.4,2.669a5.62,5.62,0,0,1,.82,2.642,7.759,7.759,0,0,1-.687,3.088,42.8,42.8,0,0,0-1.824,4.6,12.972,12.972,0,0,0-.422,2.015c-.027.366-.053.759-.053,1.125,0,.157.449.183.475.052.027-.34.08-.732.132-1.177a11.053,11.053,0,0,1,.45-2.015c.026-.052.026-.1.053-.157a9.728,9.728,0,0,1,2.193-3.82,5.389,5.389,0,0,1,2.669-1.412,4.639,4.639,0,0,1,2.8.392A4.177,4.177,0,0,1,724.3,148.6a3.386,3.386,0,0,1-.159.706,4.292,4.292,0,0,1-1.427,1.989h0a3.227,3.227,0,0,1-2.351.706,3.216,3.216,0,0,0,.079-.68,1.708,1.708,0,0,0-.714-1.335,2.1,2.1,0,0,0-1.559-.418A2.849,2.849,0,0,0,716,151.323a2.648,2.648,0,0,0-.317,1.177c.079.314,1.057-.078,1.426.5a.771.771,0,0,1,.133.34.781.781,0,0,1-.317.785c-.4.262-1.216.053-1.242.288a2.39,2.39,0,0,0,.211.942,3.885,3.885,0,0,0,.74,1.2,1.608,1.608,0,0,0,1.9.157,1.438,1.438,0,0,0,.555-1.335v-.131a.658.658,0,0,1,.4.131,2.291,2.291,0,0,1-.212,3.977,3.052,3.052,0,0,1-3.382-.549,5.253,5.253,0,0,1-1.136-1.413,8.8,8.8,0,0,1-.767-2.015c-.079-.314-.158-.6-.237-.915-.027-.184-.529-.21-.529-.027,0,.314.027.628.053.942a13.839,13.839,0,0,0,.476,2.015c.132.471.29.968.422,1.439a4.922,4.922,0,0,1-1.03,4.526l-.714.785a3.18,3.18,0,0,0-.766,1.256.112.112,0,0,1,0,.209" class="cls-1"/></g></g><g id="g7236"><g id="g7238"><path id="path7240" d="M935.012,165.608c-.053,0-.132-.157-.132-.209a4.031,4.031,0,0,0-.766-1.256c-.265-.261-.476-.523-.714-.785a4.937,4.937,0,0,1-1.057-4.526c.132-.5.265-.968.423-1.439a11.211,11.211,0,0,0,.476-2.015,5.617,5.617,0,0,0,.053-.942c0-.183-.476-.157-.529.027-.079.287-.132.6-.238.915a7.844,7.844,0,0,1-.792,2.015,5.276,5.276,0,0,1-1.137,1.413,3.014,3.014,0,0,1-3.382.549,2.291,2.291,0,0,1-.211-3.977.9.9,0,0,1,.4-.131v.131a1.422,1.422,0,0,0,.528,1.335,1.61,1.61,0,0,0,1.9-.157,3.109,3.109,0,0,0,.74-1.2,2.409,2.409,0,0,0,.211-.942c-.053-.235-.872-.026-1.242-.288a.779.779,0,0,1-.317-.785,1.936,1.936,0,0,1,.132-.34c.37-.575,1.348-.183,1.454-.5a2.678,2.678,0,0,0-.317-1.177,2.889,2.889,0,0,0-2.167-1.753,1.985,1.985,0,0,0-1.559.418,1.752,1.752,0,0,0-.714,1.335,3.156,3.156,0,0,0,.08.68,3.112,3.112,0,0,1-2.352-.706c-.027-.026.026.026,0,0a4.383,4.383,0,0,1-1.4-1.989,6.881,6.881,0,0,1-.158-.706,4.157,4.157,0,0,1,2.325-4.265,4.666,4.666,0,0,1,2.8-.392,5.008,5.008,0,0,1,2.669,1.412,9.8,9.8,0,0,1,2.22,3.82l.079.157a9.181,9.181,0,0,1,.449,2.015c.053.445.106.837.132,1.177.027.131.476.1.476-.052,0-.366-.027-.759-.053-1.125a12.914,12.914,0,0,0-.4-2.015,48.988,48.988,0,0,0-1.824-4.6,7.859,7.859,0,0,1-.687-3.088A5.667,5.667,0,0,1,931.26,139c.581-1.1,1.638-1.7,2.4-2.669a6.631,6.631,0,0,0,1.216-2.983.173.173,0,0,1,.317,0,6.95,6.95,0,0,0,1.216,2.983c.792.968,1.823,1.6,2.4,2.669a5.63,5.63,0,0,1,.819,2.642,7.31,7.31,0,0,1-.687,3.088,49.254,49.254,0,0,0-1.823,4.6,12.975,12.975,0,0,0-.423,2.015,8,8,0,0,0-.053,1.125c0,.157.45.183.476.052.026-.34.079-.732.132-1.177a11.133,11.133,0,0,1,.449-2.015c.027-.052.027-.1.053-.157a10.083,10.083,0,0,1,2.193-3.82,5.394,5.394,0,0,1,2.669-1.412,4.754,4.754,0,0,1,2.828.392,4.14,4.14,0,0,1,2.325,4.265,3.323,3.323,0,0,1-.159.706,4.237,4.237,0,0,1-1.4,1.989c-.027.026.026-.026,0,0a3.229,3.229,0,0,1-2.352.706,3.152,3.152,0,0,0,.079-.68,1.707,1.707,0,0,0-.713-1.335,2.1,2.1,0,0,0-1.559-.418,2.9,2.9,0,0,0-2.167,1.753,2.678,2.678,0,0,0-.317,1.177c.079.314,1.057-.078,1.453.5a.771.771,0,0,1,.133.34.78.78,0,0,1-.318.785c-.4.262-1.215.053-1.242.288a2.416,2.416,0,0,0,.212.942,3.1,3.1,0,0,0,.74,1.2,1.605,1.605,0,0,0,1.9.157,1.366,1.366,0,0,0,.529-1.335v-.131a.721.721,0,0,1,.4.131,2.291,2.291,0,0,1-.211,3.977,3.054,3.054,0,0,1-3.383-.549,5.292,5.292,0,0,1-1.136-1.413,10.39,10.39,0,0,1-.793-2.015c-.079-.314-.158-.6-.237-.915-.027-.184-.529-.21-.529-.027,0,.314.027.628.053.942a11.043,11.043,0,0,0,.476,2.015c.132.471.29.968.422,1.439a4.852,4.852,0,0,1-1.03,4.526l-.714.785a3.18,3.18,0,0,0-.766,1.256c0,.052-.079.209-.132.209" class="cls-1"/></g></g><g id="g7242"><g id="g7244"><path id="path7246" d="M900.66,295.221c0,12.9-6.818,23.862-16.3,27.865v20.695h-15.8V323.269l-.026-.131c-9.539-3.977-16.383-14.966-16.383-27.917v-6.463h16.224V300.48c0,5.337,3.541,9.628,7.928,9.628s7.927-4.317,7.927-9.628V288.706H900.66Z" class="cls-1"/></g></g></g></g><g id="g7248"><g id="g7250"><g id="g7256"><g id="g7258"><path id="path7260" d="M734.945,326.956c5.152,0,9.275-4.788,9.275-10.622.026-5.861-4.175-10.571-9.3-10.571-5.179,0-9.275,4.788-9.275,10.623,0,5.861,4.175,10.6,9.3,10.57m-19.184-14.207c-.027-14.861,9.856-26.975,22.064-27,12.181-.026,22.143,12.035,22.2,26.9.027,14.861-9.83,26.948-22.064,26.975-12.208.026-22.143-12.036-22.2-26.871" class="cls-1"/></g></g><g id="g7262"><g id="g7264"><path id="path7266" d="M942.775,332.214c2.907,2.355,9.328,6.986,15.67,8.058,8.667,1.387,20.241-3.061,21.509-10.936,3.118-18.786-19.977-17.609-18.259-27.839,0,0,.66-5.416,6.949-4.369,4.968.785,11.521,6.044,11.521,6.044l.053-13.318c-1.77-1.02-5.02-2.381-10.6-3.3-9.988-1.6-23.57.837-25.209,10.858-2.325,14.1,17.308,14.6,15.881,23.233,0,0-.792,5.259-7.531,4.16-4.492-.732-9.882-4.631-9.882-4.631Z" class="cls-1"/></g></g></g></g><g id="g7268"><g id="g7270"><g id="g7276"><g id="g7278"><path id="path7280" d="M685.545,317.528s10.042.654,10.068-5.651c.026-7.221-9.988-6.463-9.988-6.463h-.08v12.114Zm-.237,11.225v14.939H669.717V305.31H664.7V289.245h6.262c14.533.078,42.7,1.125,42.622,22.867-.105,17.4-28.036,16.614-28.036,16.614Z" class="cls-1"/></g></g><g id="g7282"><g id="g7284"><path id="path7286" d="M782.088,317.528s10.042.654,10.068-5.651c.026-7.221-9.988-6.463-9.988-6.463h-.08v12.114Zm-.237,11.225v14.939H766.26V305.31h-5.02V289.245h6.209c14.534.078,42.7,1.125,42.623,22.867-.08,17.4-28.036,16.614-28.036,16.614Z" class="cls-1"/></g></g><g id="g7288"><g id="g7290"><path id="path7292" d="M851.9,339.828C847.75,345.793,840.431,351,833.508,351c-12.446,0-22.54-12.3-22.54-27.446s10.094-27.969,22.54-27.446c16.541.706,21.852,12.271,20.928,31.344l-29.067.027s.846,18.157,22.54,6.41Zm-7.452-22.475s-1.215-9.21-9.909-9.027c-7.24.131-8.456,9.053-8.456,9.053Z" class="cls-1"/></g></g><g id="g7294"><g id="g7296"><path id="path7298" d="M938.03,339.828C933.882,345.793,926.536,351,919.639,351c-12.446,0-22.54-12.3-22.54-27.446s10.094-27.969,22.54-27.446c16.542.706,21.853,12.271,20.928,31.344l-29.066.027s.845,18.157,22.539,6.41Zm-7.425-22.475s-1.215-9.21-9.909-9.027c-7.24.131-8.456,9.053-8.456,9.053Z" class="cls-1"/></g></g><g id="g7300"><g id="g7302"><path id="path7304" d="M976.909,345.8a3.009,3.009,0,1,1,3.039-3.009,3.024,3.024,0,0,1-3.039,3.009m0-5.625a2.637,2.637,0,0,0-2.642,2.616,2.643,2.643,0,0,0,5.285,0,2.637,2.637,0,0,0-2.643-2.616m.819,4.317-.872-1.413h-.528V344.5h-.555v-3.323h1.268c.846,0,1.216.314,1.216.968,0,.55-.264.811-.872.89l.951,1.465Zm-.739-2.852h-.661v.968h.608c.581,0,.792-.131.792-.523,0-.314-.211-.445-.739-.445" class="cls-1"/></g></g><g id="g7306"><g id="g7308"><path id="path7310" d="M889.058,267.754a3.009,3.009,0,1,1,3.039-3.009,3.008,3.008,0,0,1-3.039,3.009m0-5.6a2.617,2.617,0,1,0,2.643,2.617,2.638,2.638,0,0,0-2.643-2.617m.819,4.318-.872-1.413h-.528v1.413h-.555v-3.323h1.268c.846,0,1.216.287,1.216.968,0,.549-.264.811-.872.889l.951,1.466Zm-.74-2.879h-.66v.969h.608c.581,0,.792-.131.792-.5,0-.314-.211-.471-.74-.471" class="cls-1"/></g></g></g></g></g></g></svg>