<svg xmlns="http://www.w3.org/2000/svg" id="Layer_1" data-name="Layer 1" viewBox="0 0 1641.8 351"><defs><style>.cls-1{fill:#fff}</style></defs><title>Publix</title><g id="layer1"><g id="g7674"><path id="path7320" d="M1010.741,335.752h57.023V22.13h-57.023Z" class="cls-1"/><path id="path7322" d="M1181.808,335.752h57.022v-233h-57.022Z" class="cls-1"/><path id="path7326" d="M1433.491,271.848c-18.68,36.376-33.427,63.9-34.41,63.9h-58.988l59.971-117.977-69.8-115.027h60.954l36.376,59.971,30.477-59.971h60.954s-28.511,58-58,116.01L1531.8,336.735h-58.988l-39.323-64.887" class="cls-1"/><path id="path7330" d="M357.938,234.488V101.764H412.01c.983,43.259-.983,92.416,0,132.724,0,27.528,22.613,52.106,50.14,52.106s50.14-20.645,50.14-49.157V101.764h54.072c0,68.82-.983,82.584,0,134.69,0,58.006-48.174,104.213-105.195,104.213-58,0-103.229-48.174-103.229-106.179" class="cls-1"/><path id="path7334" d="M786.587,285.611A64.887,64.887,0,1,0,721.7,220.724a64.825,64.825,0,0,0,64.887,64.887m.983-189.745c67.836,0,123.875,55.055,123.875,123.875,0,67.837-55.056,123.875-123.875,123.875-67.837,0-123.876-58.988-123.876-127.808V21.147h57.023v98.314C739.4,105.7,762.008,95.866,787.57,95.866" class="cls-1"/><path id="path7338" d="M144.6,201.062a64.887,64.887,0,0,0,0-129.774c-35.393,0-64.887,29.494-64.887,64.887A64.824,64.824,0,0,0,144.6,201.062m0-188.763c67.837,0,123.875,55.056,123.875,123.875,0,67.837-55.055,123.875-123.875,123.875-24.578,0-47.191-5.9-66.854-18.68V335.75H20.721V133.224C20.722,65.389,75.777,12.3,144.6,12.3" class="cls-1"/><path id="path7342" d="M1599.641,311.173c2.95,0,5.9,0,5.9-3.933,0-2.949-2.95-3.932-5.9-3.932h-5.9v7.865Zm-4.915,15.73h-4.916V299.375h10.814c6.882,0,9.832,1.967,9.832,7.865,0,4.916-2.95,6.883-6.882,7.865l7.866,11.8h-4.916l-6.881-11.8h-3.933v11.8Zm-14.747-14.747c0,11.8,8.848,19.663,19.662,19.663s18.68-8.849,18.68-19.663-8.848-19.663-18.68-19.663a19.721,19.721,0,0,0-19.662,19.663m-4.916,0c0-13.764,11.8-23.6,24.578-23.6s24.579,9.831,24.579,23.6-11.8,24.579-24.579,24.579c-13.764,0-24.578-9.832-24.578-24.579" class="cls-1"/><path id="path7346" d="M1213.268,78.169a35.393,35.393,0,1,0-35.393-35.392,35.245,35.245,0,0,0,35.393,35.392" class="cls-1"/></g></g></svg>