<svg id="Layer_1" data-name="Layer 1" xmlns="http://www.w3.org/2000/svg" viewBox="0 0 1641.8 351"><defs><style>.cls-1{fill:#fff;}</style></defs><title>RBI</title><path class="cls-1" d="M1090.328,0Q822.47.068,554.612,0c-1.709,0-2.069.36-2.069,2.069q.067,174.209.045,348.373h539.764q0-174.21.045-348.373C1092.4.36,1092.037,0,1090.328,0ZM1075.35,331.55c0,2.429-.72,2.834-2.969,2.834q-124.956-.067-249.866-.045-125.022-.068-250.09.045c-2.2,0-2.789-.5-2.789-2.789q.135-156.06,0-312.164c0-2.339.675-2.743,2.834-2.743q249.978.068,499.956,0c2.339,0,2.924.584,2.924,2.923Q1075.215,175.6,1075.35,331.55Z"/><path class="cls-1" d="M552.588,350.442h539.764c-.09.135.225.449-.225.449h-1.8q-267.858,0-535.716-.045C553.938,350.846,553.083,351.386,552.588,350.442Z"/><path class="cls-1" d="M660.091,271.726c14.979,0,29.957.045,44.936-.045,1.709,0,2.339.36,2.249,2.2-.135,4.093-.135,8.232,0,12.37.045,1.664-.4,2.114-2.114,2.114q-24.155-.067-48.309-.045c-13.854,0-27.708-.045-41.607.045-1.754,0-2.339-.405-2.249-2.2.135-4.093.135-8.232,0-12.37-.045-1.709.45-2.114,2.114-2.114C630.089,271.771,645.068,271.726,660.091,271.726Z"/><path class="cls-1" d="M632.249,162.694c7.061,1.529,10.525,5.982,10.57,13.224s-3.913,12.55-10.57,13.944c-4.813,1.034-9.716.405-14.574.5-4.723.09-4.723.045-4.723-4.813,0-15.294.045-30.542-.045-45.835,0-1.709.36-2.339,2.2-2.294,4.858.18,9.716-.045,14.574.225,6.837.36,10.39,3.868,11.245,10.75.764,5.982-1.35,12.1-7.917,13.764A4.621,4.621,0,0,0,632.249,162.694ZM616.1,175.738v10.346c0,.944-.045,1.8,1.3,1.8,4.408-.09,8.861.27,13.224-.315,4.948-.675,7.962-3.554,8.726-8.052a19.617,19.617,0,0,0,.18-5.847c-.719-5.623-3.778-8.726-9.356-9.491-4.183-.54-8.366-.18-12.549-.315-1.17-.045-1.574.405-1.529,1.575C616.146,168.856,616.1,172.32,616.1,175.738Zm0-25.279c0,3.149.045,6.3,0,9.4,0,1.17.359,1.574,1.529,1.574,3.059-.09,6.117.09,9.221-.09,8.411-.4,12.414-5.487,10.885-13.809-.765-4.273-3.014-6.612-7.332-7.331-4.363-.72-8.816-.135-13.224-.27-1.169-.045-1.034.809-1.034,1.529C616.1,144.477,616.1,147.49,616.1,150.459Z"/><path class="cls-1" d="M632.2,99.721c7.331,2.519,8.906,4.723,9,12.46.045,2.564,0,5.083.09,7.647a13.546,13.546,0,0,0,1.484,5.577c-3.374.63-3.688.405-4.273-2.7-.675-3.643-.315-7.331-.45-10.975-.225-7.422-3.239-10.435-10.66-10.48-3.149,0-6.3.09-9.446-.045-1.485-.045-1.889.405-1.889,1.889.09,6.882.045,13.809.045,20.691,0,1.079.18,2.024-1.53,1.979-1.574,0-1.619-.72-1.619-1.934.045-16.328.045-32.7,0-49.029,0-1.529.36-2.069,1.979-2.024,4.363.09,8.681.09,13.044.045,11.066-.18,14.394,7.917,13.539,15.923C640.84,94.549,638.276,97.472,632.2,99.721ZM616.1,86.812c0,3.284.045,6.567-.045,9.851-.045,1.349.225,2.024,1.8,1.934,3.283-.135,6.567,0,9.851-.09,6.207-.225,9.895-3.554,10.615-9.671.765-6.657-1.529-13.9-11.74-13.584-2.7.09-5.4.135-8.1-.045-1.89-.09-2.654.315-2.519,2.429.27,3.014.135,6.117.135,9.176Z"/><path class="cls-1" d="M747.218,184.914c-3.643,5.623-7.646,7.467-13.179,5.893a10.058,10.058,0,0,1-6.387-5.623,21.265,21.265,0,0,1-2.069-7.737c-.585-6.3-.81-12.594,1.169-18.711,1.619-5.128,5.038-7.782,9.941-8.007a9.294,9.294,0,0,1,9.131,4.948c.27.45.5.9.809,1.349,0,.045.135.045.36.09.45-.584.27-1.349.27-2.024V139.349c0-.99-.18-1.889,1.395-1.889,1.529,0,1.439.809,1.439,1.844v49.209c0,.944.27,1.889-1.349,1.934-1.755.045-1.485-.99-1.485-2.024C747.218,187.208,747.218,186.039,747.218,184.914Zm0-13.674c.09-4.408-.585-9.356-1.754-12.145-1.619-3.958-4.318-5.847-8.186-5.757-3.779.09-6.343,1.934-7.512,6.162a41.593,41.593,0,0,0,.045,22.985c1.214,4.228,3.913,6.162,7.781,6.207,3.959.045,6.478-1.934,8.052-6.207,1.349-3.643,1.349-7.467,1.574-11.245Z"/><path class="cls-1" d="M815.273,120.277c-2.114,3.824-4.947,5.983-9.041,6.208-6.252.4-10.12-2.924-10.7-9.176-.63-6.882,1.934-10.616,8.546-12.46,2.744-.765,5.488-1.484,8.187-2.294a3.92,3.92,0,0,0,3.1-3.913c0-.585.09-1.215.09-1.8-.09-5.4-1.979-7.962-6.252-8.232-5.892-.405-8.681,1.8-9.581,7.287-.09.675.315,1.574-.584,2.024-1.215.585-2.249-.135-2.249-1.619a9.932,9.932,0,0,1,8.636-10.166,15.338,15.338,0,0,1,6.7.36,7.607,7.607,0,0,1,5.892,6.612,26.754,26.754,0,0,1,.315,4.228c.045,7.557,0,15.114,0,22.715,0,1.845-.135,3.869,2.789,3.329.675-.135.63.45.675.9a1.344,1.344,0,0,1-.99,1.529,3.72,3.72,0,0,1-5.128-2.834A22.01,22.01,0,0,1,815.273,120.277Zm.225-17a9.976,9.976,0,0,1-4.228,2.159c-2.519.675-5.083,1.3-7.557,2.159-5.487,1.934-7.106,10.975-2.743,14.843a6.04,6.04,0,0,0,2.564,1.3c5.172,1.259,9.76-1.529,11.2-7.062,1.169-4.228.629-8.591.764-13.4Z"/><path class="cls-1" d="M883.1,249.281c-3.284,5.622-7.872,7.692-13.224,6.252a7.484,7.484,0,0,1-2.654-1.214c-4.094-2.969-4.318-7.287-3.869-11.74a8.534,8.534,0,0,1,6.073-7.6c3.193-1.079,6.477-1.844,9.715-2.789s3.959-1.979,4-5.307v-.675c-.045-5.578-2.069-7.962-6.972-8.231-5.308-.27-8.367,2.294-8.771,7.646-.09,1.395-.54,1.755-1.89,1.71-1.619-.045-1.079-1.125-.989-1.89a11.282,11.282,0,0,1,17.767-8.366,8.23,8.23,0,0,1,3.554,7.152c.09,8.186.045,16.328.09,24.514,0,.675,0,1.35.044,2.024.135,1.35.63,2.339,2.249,2.114.585-.09,1.26-.225,1.215.765-.045.675,0,1.259-.855,1.574a3.849,3.849,0,0,1-5.4-3.058C883.149,251.17,883.1,250.225,883.1,249.281Zm.135-16.913c-1.44,1.755-3.014,2.069-4.5,2.519-2.519.72-5.083,1.305-7.512,2.2-5.263,1.979-6.7,11.065-2.474,14.754a5.948,5.948,0,0,0,3.464,1.439c5.487.585,9.355-2.429,10.525-8.141.81-4,.315-8.052.5-12.775Z"/><path class="cls-1" d="M766.515,249.236c-2.384,4.813-5.983,6.882-10.84,6.7a8.721,8.721,0,0,1-8.592-6.927,15.737,15.737,0,0,1-.045-7.782,8.587,8.587,0,0,1,6.118-6.342c3.193-.989,6.477-1.889,9.715-2.744a4.481,4.481,0,0,0,3.734-4.633,16.344,16.344,0,0,0-.45-4.9c-.675-2.7-2.384-4.094-5.263-4.5-6.117-.81-9.311,1.529-10.075,7.556-.18,1.4-.63,1.754-1.935,1.665-1.619-.09-1.034-1.215-.944-1.98a11.325,11.325,0,0,1,17.677-8.366c2.879,1.844,3.734,4.768,3.778,7.962.045,8.186.045,16.327.045,24.514,0,1.889-.045,3.778,2.789,3.373.63-.09.72.315.72.81a1.32,1.32,0,0,1-.945,1.529,3.753,3.753,0,0,1-5.262-2.923A22.415,22.415,0,0,1,766.515,249.236Zm.135-16.553c-1.844,1.619-3.824,2.024-5.713,2.609-2.069.63-4.228,1.08-6.252,1.8-5.353,2.024-6.882,10.93-2.609,14.754a5.759,5.759,0,0,0,3.419,1.484c5.037.585,8.771-1.844,10.255-6.747,1.35-4.453.765-9.041.9-13.9Z"/><path class="cls-1" d="M738.627,120.907c-2.879,4.183-6.657,6.027-11.65,5.578a7.957,7.957,0,0,1-4.543-1.71c-3.643-3.013-4.093-7.106-3.6-11.425a8.736,8.736,0,0,1,6.432-7.826c3.193-1.035,6.432-1.934,9.716-2.744a4.491,4.491,0,0,0,3.688-4.678,15.045,15.045,0,0,0-.5-4.9c-.9-3.373-3.193-4.723-7.691-4.543-3.959.135-6.568,2.114-7.332,5.668a15.059,15.059,0,0,0-.36,2.429c0,1.394-.9,1.214-1.844,1.259-1.215.045-1.035-.765-.99-1.529.09-5.623,3.419-9.491,8.951-10.346a15.145,15.145,0,0,1,6.657.54c3.914,1.26,5.848,4.093,5.893,9.041.09,8.1.045,16.193.045,24.289,0,1.935-.18,4,2.878,3.464.675-.135.585.45.63.9a1.344,1.344,0,0,1-.989,1.529,3.768,3.768,0,0,1-4.948-2.024,4.058,4.058,0,0,1-.27-.99A15.379,15.379,0,0,1,738.627,120.907Zm.045-17.767a7.993,7.993,0,0,1-4.228,2.249c-2.519.675-5.083,1.3-7.512,2.159-5.488,1.934-7.152,10.885-2.789,14.8a5.664,5.664,0,0,0,2.564,1.35c5.128,1.3,9.626-1.395,11.2-6.747C739.122,112.631,738.627,108.133,738.672,103.14Z"/><path class="cls-1" d="M682.716,235.517c-3.013,0-5.982.045-9,0-1.394-.045-2.024.27-1.934,1.844a53.711,53.711,0,0,0,.855,8.052c1.259,5.622,4.093,8.186,8.906,8.006,4.633-.18,7.871-3.463,8.681-8.726.045-.45.045-.9.135-1.35.225-1.3,1.26-.719,1.979-.809.855-.09.99.45.9,1.124-.855,9.176-7.2,13.494-14.664,12.1a9.318,9.318,0,0,1-7.646-6.207c-3.014-8.816-3.419-17.767-.135-26.629,2.114-5.667,6.972-8.186,12.954-7.331,4.228.629,6.792,3.193,8.276,7.062,1.395,3.688,1.62,7.6,1.8,11.47.09,1.349-.63,1.439-1.62,1.439C689.014,235.472,685.865,235.517,682.716,235.517ZM681.232,233c2.609,0,5.218-.045,7.827.045,1.3.045,1.664-.405,1.574-1.664a27.826,27.826,0,0,0-1.259-7.692c-1.215-3.418-3.509-5.488-7.242-5.667a8.221,8.221,0,0,0-8.142,4.5c-1.574,2.833-1.889,5.937-2.2,9.086-.135,1.259.45,1.484,1.53,1.484,2.653-.135,5.307-.09,7.916-.09Z"/><path class="cls-1" d="M685.1,184.6c-2.563,4.9-6.207,6.882-11.065,6.612a8.587,8.587,0,0,1-8.1-6.027,14.528,14.528,0,0,1-.225-8.861,8.656,8.656,0,0,1,6.252-6.207c3.194-.945,6.432-1.845,9.671-2.744a4.387,4.387,0,0,0,3.553-4.318,16.555,16.555,0,0,0-.494-5.353c-.945-3.239-3.239-4.543-7.6-4.408-4.138.18-6.657,2.159-7.422,5.847a9.331,9.331,0,0,0-.27,2.249c0,1.35-.9,1.26-1.8,1.3-1.169,0-1.124-.72-1.035-1.485.4-4,1.575-7.646,5.533-9.355,4.363-1.845,8.816-1.8,12.864.989,2.564,1.754,3.1,4.678,3.149,7.6.045,7.916,0,15.878.045,23.839,0,1.98-.5,4.408,2.924,3.914.674-.09.585.494.629.944a1.252,1.252,0,0,1-.854,1.4,3.779,3.779,0,0,1-5.038-1.8,3.62,3.62,0,0,1-.315-.989A10.812,10.812,0,0,1,685.1,184.6Zm.135-16.912c-1.574,1.844-3.283,2.159-4.9,2.653-2.294.675-4.632,1.17-6.882,2.025-5.487,1.979-7.151,10.84-2.833,14.8a6.152,6.152,0,0,0,3.193,1.484c5.758.9,10.031-2.473,11.021-8.771C685.415,176.008,685.1,172.185,685.235,167.687Z"/><path class="cls-1" d="M662.34,106.154c-3.058,0-6.162.045-9.221-.045-1.3-.045-1.664.359-1.619,1.619a33.587,33.587,0,0,0,1.35,10.165c1.394,4,4,6.073,7.646,6.118a8.648,8.648,0,0,0,8.5-5.848,11.659,11.659,0,0,0,.9-3.688c.045-1.529.765-1.664,1.979-1.574,1.485.09.9,1.124.855,1.8-.5,8.456-7.692,13.584-15.7,11.29a9.437,9.437,0,0,1-6.747-6.657,40.754,40.754,0,0,1-.315-24.739c2.069-6.7,7.511-9.671,14.124-8.322a9.479,9.479,0,0,1,6.837,5.308c2.114,4.183,2.294,8.771,2.518,13.359.045,1.305-.809,1.17-1.664,1.17C668.593,106.154,665.489,106.154,662.34,106.154Zm-1.709-2.609c2.744,0,5.533-.045,8.321,0,1.035,0,1.485-.27,1.395-1.395-.225-2.654-.27-5.4-1.26-7.916-1.169-3.1-3.193-5.218-6.657-5.578-3.778-.405-6.747.9-8.636,4.318a20.712,20.712,0,0,0-2.249,9.266c-.045,1.17.5,1.35,1.439,1.305,2.519-.045,5.083,0,7.647,0Z"/><path class="cls-1" d="M828.408,235.742a34.736,34.736,0,0,1-1.44,11.56c-1.889,5.757-5.8,8.681-11.65,8.681-5.757,0-9.625-2.789-11.29-8.726a41.091,41.091,0,0,1,0-23.075c2.069-7.107,8.187-10.256,15.339-8.321,3.643.989,5.847,3.463,7.2,6.837C828.183,226.926,828.453,231.289,828.408,235.742Zm-3.149-.315a40.97,40.97,0,0,0-.585-8.007c-.225-1.034-.494-2.024-.809-3.013-1.485-4.363-4.228-6.432-8.412-6.432s-7.062,2.024-8.321,6.477a40.012,40.012,0,0,0,0,22.535c1.259,4.453,4.138,6.387,8.366,6.387s6.882-2.024,8.412-6.387c1.259-3.688,1.349-7.512,1.349-11.56Z"/><path class="cls-1" d="M829.172,92.48c.63-.945.945-1.44,1.26-1.89,2.609-3.823,6.882-5.352,11.65-4.228,3.958.945,6.612,3.869,6.747,8.726.27,9.806.09,19.612.18,29.418,0,1.349-.9,1.034-1.665,1.124-1.259.135-1.214-.675-1.214-1.574V99.586c0-1.259-.045-2.563-.135-3.823-.315-3.868-1.844-5.982-4.768-6.837a8.458,8.458,0,0,0-9.446,3.014,14.183,14.183,0,0,0-2.564,8.681v23.12c0,1.079.135,2.024-1.529,1.979-1.619-.045-1.349-.99-1.349-1.934V88.746c0-.989-.18-1.889,1.394-1.889,1.484,0,1.529.72,1.484,1.8C829.172,89.691,829.172,90.815,829.172,92.48Z"/><path class="cls-1" d="M688.519,126.53c-7.467-.09-11.425-4.363-11.155-11.83.045-.9.225-1.44,1.259-1.35.81.045,1.754-.18,1.664,1.17a9.381,9.381,0,0,0,.045,1.124c.27,6.118,4.139,9.266,10.211,8.277,3.508-.585,5.443-2.384,6.207-5.893.81-3.688-.315-6.792-3.148-8.681-1.934-1.3-4.228-1.934-6.343-2.834-1.169-.494-2.339-.944-3.508-1.529-4.318-2.249-6.207-5.847-5.443-10.525s3.419-7.287,8.277-8.187c7.421-1.349,12.369,2.7,12.279,10.076,0,.9,0,1.574-1.259,1.574-1.08,0-1.529-.225-1.574-1.484-.36-5.8-2.609-7.962-7.872-7.737-3.463.135-5.757,1.8-6.522,4.813-.945,3.643.09,6.882,2.969,8.681,2.474,1.575,5.352,2.249,8.051,3.329,5.8,2.294,8.366,6.837,7.152,12.594C698.729,123.426,694.5,126.62,688.519,126.53Z"/><path class="cls-1" d="M766.74,191.211c-7.377-.09-11.47-4.5-11.155-11.919.045-.945.314-1.4,1.3-1.305.81.045,1.754-.135,1.619,1.17a6.024,6.024,0,0,0,.045.9c.315,6.612,4.678,9.941,11.11,8.367a6.737,6.737,0,0,0,5.353-5.938c.54-3.328-.09-6.252-3.014-8.366a28.48,28.48,0,0,0-5.307-2.474c-1.125-.45-2.249-.855-3.329-1.35-5.892-2.563-8.141-7.016-6.522-12.774,1.349-4.813,6.342-7.557,12.235-6.7,5.442.81,8.591,5.038,8.051,10.615-.09.945-.5,1.125-1.259,1.035-.675-.045-1.62.315-1.53-.945v-.9c-.359-5.848-4.273-8.592-9.895-7.017a6.221,6.221,0,0,0-4.768,5.622c-.36,3.149.45,5.938,3.463,7.647,2.609,1.529,5.533,2.249,8.277,3.373,5.262,2.205,7.736,6.613,6.792,12.01C777.175,187.928,772.857,191.3,766.74,191.211Z"/><path class="cls-1" d="M721.265,221.348c2.384-3.463,5.217-5.8,9.58-5.892,6.163-.135,10.031,3.283,10.166,9.446.18,9.58.045,19.161.09,28.787,0,1.035-.315,1.394-1.395,1.439-1.3.045-1.439-.539-1.439-1.619q.067-12.482,0-24.964a36.3,36.3,0,0,0-.225-3.823c-.315-2.969-1.394-5.488-4.5-6.343-3.283-.944-6.432-.584-8.906,2.07a13.37,13.37,0,0,0-3.328,9.49c-.045,7.737,0,15.429,0,23.165,0,1.035.269,2.069-1.485,2.024-1.664-.045-1.3-1.079-1.3-1.979V218.065c0-1.08,0-1.8,1.484-1.8,1.395.045,1.35.765,1.35,1.71A28.147,28.147,0,0,0,721.265,221.348Z"/><path class="cls-1" d="M627.256,221.978c.674-.99.989-1.529,1.349-2.069a10.579,10.579,0,0,1,11.92-4.048c4.048,1.169,6.432,4.318,6.477,9.176.09,9.49.045,19.026.045,28.562,0,.945-.135,1.484-1.3,1.484s-1.53-.359-1.53-1.529q.068-12.482,0-24.964c0-1.349-.09-2.7-.225-4.048-.314-2.879-1.439-5.308-4.408-6.163-3.148-.944-6.252-.629-8.771,1.845a12.9,12.9,0,0,0-3.553,9.4c-.045,7.782,0,15.609-.045,23.39,0,.945.45,2.114-1.395,2.069s-1.394-1.169-1.394-2.114V218.334c0-.944-.45-2.114,1.349-2.114s1.4,1.125,1.4,2.069S627.256,220.4,627.256,221.978Z"/><path class="cls-1" d="M698.774,156.666c2.474-3.688,5.623-5.937,10.121-5.937,5.623,0,9.491,3.419,9.626,9.086.18,9.716.045,19.477.09,29.237,0,1.17-.45,1.305-1.44,1.35-1.394.09-1.349-.675-1.349-1.665V163.548a32.177,32.177,0,0,0-.225-3.6c-.36-3.059-1.574-5.488-4.768-6.387a8.425,8.425,0,0,0-9.266,2.924,14.608,14.608,0,0,0-2.7,9.086v22.715c0,.9.54,2.114-1.349,2.114s-1.439-1.08-1.439-2.069V153.518c0-.9-.36-1.889,1.3-1.934,1.8-.045,1.439.989,1.439,2.024S698.774,155.632,698.774,156.666Z"/><path class="cls-1" d="M837.809,221.978c.764-1.125,1.124-1.709,1.574-2.294a10.659,10.659,0,0,1,12.055-3.733c3.868,1.214,6.117,4.408,6.162,9.175.09,9.446.045,18.892.045,28.293,0,.99,0,1.664-1.35,1.709-1.574.045-1.439-.809-1.439-1.844V227.915a28.237,28.237,0,0,0-.18-3.373c-.45-3.014-1.619-5.533-4.9-6.3-3.6-.81-6.882-.135-9.266,3.013a14.936,14.936,0,0,0-2.653,9.311c-.045,7.512,0,14.979,0,22.49,0,.99.4,2.069-1.4,2.069s-1.349-1.214-1.349-2.114q-.067-17.34,0-34.59c0-.9-.5-2.114,1.349-2.114s1.4,1.125,1.4,2.069C837.9,219.324,837.809,220.314,837.809,221.978Z"/><path class="cls-1" d="M769.3,120.457c-.99.45-1.125,1.26-1.53,1.844a10.681,10.681,0,0,1-12.055,3.734c-3.868-1.215-6.117-4.363-6.162-9.176-.09-9.446-.045-18.892-.045-28.338,0-.989,0-1.664,1.35-1.709,1.529-.045,1.439.81,1.439,1.844V114.07a18.448,18.448,0,0,0,.135,3.149c.45,3.058,1.574,5.712,4.948,6.522,3.643.854,6.882.09,9.221-3.014,2.114-2.744,2.654-5.982,2.7-9.311.045-7.511,0-14.978,0-22.49,0-.989-.36-2.069,1.439-2.069,1.844,0,1.349,1.214,1.349,2.114.045,11.56.045,23.075,0,34.635,0,.944.5,2.114-1.349,2.114s-1.394-1.08-1.394-2.069C769.3,122.661,769.3,121.582,769.3,120.457Z"/><path class="cls-1" d="M858.5,105.614c0-4.633-.045-9.266.044-13.944.045-1.664-.269-2.609-2.159-2.249a.764.764,0,0,1-.449,0c-.9-.36-2.654.944-2.654-1.26-.045-2.2,1.709-1.349,2.609-1.259,2.159.18,2.878-.45,2.7-2.654-.224-2.294-.045-4.633-.045-6.972,0-.944-.224-1.889,1.35-1.934,1.709-.045,1.484.945,1.484,2.024,0,2.609.045,5.218-.045,7.872-.045,1.3.405,1.709,1.665,1.619s2.383.045,3.6-.045c.99-.045,1.3.36,1.3,1.3s-.314,1.395-1.3,1.305h-.675c-4.543.09-4.543.09-4.543,4.543v24.244c0,4.678.9,5.488,5.578,5.128.675-.045,1.394-.315,1.394.81,0,.809-.045,1.394-1.034,1.664-5.218,1.529-8.682-.9-8.771-6.342C858.455,114.925,858.5,110.247,858.5,105.614Z"/><path class="cls-1" d="M656.583,234.842c0-4.723-.045-9.446.045-14.169,0-1.439-.315-2.114-1.844-1.889-.72.09-1.485-.045-2.249.045-.945.09-1.125-.405-1.125-1.214s.09-1.35,1.08-1.26h.225c3.913-.315,3.913-.315,3.913-4.273,0-1.574-.09-3.148.045-4.723.09-.989-.855-2.519,1.349-2.609s1.44,1.44,1.485,2.474a60.061,60.061,0,0,1,0,6.972c-.135,1.889.584,2.339,2.294,2.159.944-.09,1.934.045,2.923-.045.99-.045,1.26.315,1.3,1.26,0,1.079-.5,1.214-1.35,1.214-1.619.09-3.778-.719-4.723.36-1.079,1.26-.359,3.464-.359,5.218-.045,7.781-.045,15.563,0,23.39,0,4.633.719,5.262,5.217,5.082.585-.045,1.575-.764,1.665.675.09,1.035-.18,1.529-1.35,1.754-5.577,1.125-8.321-.989-8.411-6.7C656.538,244.018,656.583,239.43,656.583,234.842Z"/><path class="cls-1" d="M779.469,234.842c0-4.633-.09-9.266.045-13.944.045-1.664-.45-2.339-2.159-2.114-.675.09-1.349-.045-2.024,0-.99.09-1.08-.45-1.08-1.259s.045-1.35,1.08-1.26h.225c3.913-.27,3.913-.27,3.913-4.273,0-1.709-.045-3.463,0-5.173,0-.944-.405-2.114,1.395-2.159,1.709,0,1.484.99,1.484,2.025,0,2.563.09,5.082-.045,7.646-.09,1.664.54,2.114,2.069,1.934.945-.09,1.934,0,2.924-.045s1.529.09,1.484,1.305c-.045,1.034-.5,1.169-1.349,1.214-1.62.045-3.734-.719-4.723.36-.99,1.125-.315,3.284-.315,4.993-.045,7.961-.045,15.878,0,23.839,0,4.364.809,5.038,5.218,4.858.584-.045,1.529-.764,1.619.675.045,1.035-.18,1.529-1.35,1.754-5.487,1.08-8.231-.944-8.366-6.522C779.379,244.108,779.469,239.475,779.469,234.842Z"/><path class="cls-1" d="M707.636,105.659c0-4.633-.09-9.311.045-13.944.044-1.934-.585-2.519-2.384-2.294a15.2,15.2,0,0,1-2.025,0c-1.079,0-.9-.765-.9-1.4s0-1.259.9-1.169h.225c1.305-.135,3.059.585,3.869-.36.9-1.079.27-2.879.27-4.363.045-1.8.09-3.6,0-5.4-.045-1.169.494-1.349,1.484-1.349,1.124-.045,1.394.405,1.394,1.439-.045,2.834.045,5.713-.045,8.547-.045,1.214.36,1.574,1.53,1.484s2.384.045,3.6-.045c.945-.045,1.349.27,1.3,1.259,0,.9-.224,1.44-1.259,1.35h-.45c-4.723.135-4.723.135-4.723,4.813v24.289c0,4.408,1.035,5.308,5.353,4.9.585-.045,1.394-.585,1.484.63.045.854.09,1.529-1.079,1.844-5.308,1.349-8.412-.9-8.546-6.3v-.45Z"/><path class="cls-1" d="M612.952,228.77V204.3c0-1.035-.4-2.249,1.484-2.294s1.62.989,1.62,2.159V253.1c0,1.035.269,2.024-1.485,2.024s-1.664-.9-1.664-2.114C612.952,244.963,612.952,236.866,612.952,228.77Z"/><path class="cls-1" d="M702.688,221.888c2.294-4,5.217-6.522,9.895-6.432.72,0,1.53-.225,1.53,1.034,0,.99-.225,1.395-1.35,1.485-6.3.674-9.76,4.318-9.985,10.8-.225,8.141-.135,16.328-.09,24.514,0,1.305-.225,1.934-1.71,1.844-1.034-.09-1.259-.449-1.259-1.394V217.75c0-1.08.315-1.44,1.394-1.44,1.17,0,1.62.36,1.53,1.53C702.643,219.189,702.688,220.538,702.688,221.888Z"/><path class="cls-1" d="M897.138,228.77v24.469c0,.945.224,1.889-1.395,1.889s-1.439-.854-1.439-1.844V204.121c0-1.08-.18-2.069,1.529-2.024s1.26,1.124,1.26,2.024C897.138,212.307,897.138,220.538,897.138,228.77Z"/><path class="cls-1" d="M652.085,157.386c2.2-3.958,5.083-6.612,9.806-6.657.809,0,1.8-.36,1.8,1.17,0,1.394-.765,1.3-1.709,1.394-5.218.36-8.547,3.508-9.491,9.041a29.707,29.707,0,0,0-.36,4.453c-.045,7.2,0,14.394,0,21.546,0,.989.315,2.069-1.44,2.024-1.619-.045-1.349-.99-1.349-1.934v-35.04c0-.945-.27-1.889,1.349-1.889,1.53,0,1.485.809,1.44,1.844C652.085,154.732,652.085,156.037,652.085,157.386Z"/><path class="cls-1" d="M782.438,92.794c2.069-3.958,4.9-6.567,9.446-6.747.854-.045,2.024-.494,2.069,1.17.045,1.574-.945,1.349-1.889,1.394-5.713.27-9.491,4.9-9.581,11.92-.09,7.782-.045,15.563,0,23.39,0,1.349-.315,1.844-1.754,1.754-1.575-.09-1.035-1.214-1.035-1.934-.045-9,0-17.992,0-26.943,0-2.789.045-5.533,0-8.322,0-1.079.18-1.619,1.439-1.619,1.395,0,1.35.72,1.35,1.709C782.438,89.961,782.438,91.355,782.438,92.794Z"/><path class="cls-1" d="M792.783,235.517v-17.5c0-1.125.135-1.755,1.53-1.755s1.3.81,1.3,1.755v35.219c0,.99.135,1.844-1.394,1.844-1.575,0-1.395-.854-1.395-1.844C792.783,247.347,792.783,241.454,792.783,235.517Z"/><path class="cls-1" d="M795.617,206.01c0,.809-.045,1.619,0,2.429.09,1.214-.585,1.259-1.484,1.259s-1.395-.135-1.35-1.214a44.551,44.551,0,0,0,0-4.9c-.045-1.125.315-1.574,1.485-1.529,1.169,0,1.394.494,1.349,1.484C795.572,204.346,795.617,205.2,795.617,206.01Z"/></svg>