<svg id="Layer_1" data-name="Layer 1" xmlns="http://www.w3.org/2000/svg" viewBox="0 0 870.96 217.58"><defs><style>.cls-1{fill:#fff;}</style></defs><title>Royal Carribean Logo (SVG)</title><path class="cls-1" d="M-385.47,165.3V-51.58l.29-.31c.09-.08.19-.21.29-.22a15.07,15.07,0,0,1,1.9-.17q433.59,0,867.2,0a5.56,5.56,0,0,1,1.28.36V165.3Zm217.85-69.15h649V-48.06h-649Zm649,4.63H-167.5v60.5H481.4ZM-381.47-48.13V161c3.73.83,206.36.75,209.5-.07v-209Z" transform="translate(385.47 52.28)"/><path class="cls-1" d="M430.52,57.6c-1.93.19-3,.37-4,.37-5.85,0-11.71,0-17.57,0a28.52,28.52,0,0,0-3.81.19c-5.69.8-6.88.17-9.18-5.25-1.12.89-2.17,1.75-3.25,2.59a14.63,14.63,0,0,1-8,3.33c-5.49.38-9.08-2-10.56-7.28a24,24,0,0,1-.55-4.89c-.15-2.31.89-3.68,3.11-4.62,5.74-2.44,11.34-5.19,17.06-7.68,1.77-.77,2.65-1.8,2.49-3.73-.1-1.14-.09-2.29-.22-3.42-.82-7.06-4.34-9.88-11.34-9.12-3.12.34-4.18,1.36-4.57,4.56-.14,1.14-.15,2.29-.24,3.62-2.27.72-4.52,1.25-7,0a7.68,7.68,0,0,1,.85-2.12c4.16-5.19,9.18-9.19,15.77-10.78,6.32-1.52,11.59,1.45,13.28,7.69a37.53,37.53,0,0,1,1,8.67c.15,5.09,0,10.19,0,15.28.06,7.05,1.3,8.43,9.05,9.69.43-1.28,1.26-2.64,1.28-4,.15-8.53.12-17.06.15-25.59a6.16,6.16,0,0,0-2.19-4.69l-3-2.76,13.39-5c-.25,2.85-.43,4.93-.67,7.7l3.49-2.23c3.68-2.32,7.45-4.36,11.87-5,8.23-1.11,13.74,3.11,14.33,11.4.33,4.69.18,9.42.22,14.13,0,3.05,0,6.11,0,9.17.14,5.82.81,7.68,6.41,8.51.39.06.73.44,1.26.78-2.76,1-18.36,1.21-22.86.37.24-1.65,1.76-1.21,2.65-1.52,3.69-1.26,4.66-2.15,4.72-6,.12-7,.16-14-.08-21-.15-4.41-1.68-8.37-6.33-10-5.17-1.8-10.09-1.15-14.28,2.56a4.52,4.52,0,0,0-1.08,3c-.08,7.9-.11,15.79,0,23.69.08,5.93.46,6.26,6.43,8A12.84,12.84,0,0,1,430.52,57.6ZM396,35.35c-4.52,2.32-8.45,4.28-12.3,6.38a3.54,3.54,0,0,0-1.41,2.08,9,9,0,0,0,1.11,7.3A6.11,6.11,0,0,0,390,53.92c2.52-.47,5.54-1.45,5.88-4.08C396.41,45.3,396,40.63,396,35.35Z" transform="translate(385.47 52.28)"/><path class="cls-1" d="M-126.34,26.05v7.3c0,3.95,0,7.9,0,11.84.13,6.94,1.77,8.88,8.62,10.44,1.65.38,3.32.73,4.94,1.09a4.77,4.77,0,0,1-.14.8c0,.1-.15.24-.23.24q-16,.12-32,.21a2.56,2.56,0,0,1-1.92-.89,12.25,12.25,0,0,1,2-.88c8.44-2.14,9.72-3.18,9.88-11.86.27-13.87,0-27.74-.1-41.62a19.76,19.76,0,0,0-.23-2.66c-.6-4.33-2.42-6.26-6.7-7.15L-146.52-8l0-.79a9.4,9.4,0,0,1,2-.49c8.39-.27,16.79-.61,25.19-.7a35,35,0,0,1,14.89,2.82,15,15,0,0,1,4.13,25,74.73,74.73,0,0,1-7.1,5.1c5.92,10.27,11.46,20.91,21.27,28.31,2.89,2.18,6.42,3.52,9.68,5.21.86.45,1.79.77,3.42,1.47a10.35,10.35,0,0,1-2.61.77c-4.06-.24-8.14-.41-12.17-.94A17.4,17.4,0,0,1-98.65,51.9a90.28,90.28,0,0,1-12.41-17.82c-.48-.9-1-1.79-1.44-2.69a9,9,0,0,0-8.2-5.33C-122.44,26-124.19,26.05-126.34,26.05Zm.18-2.23A25,25,0,0,0-112,20a13,13,0,0,0,6.32-10.69c.51-10.62-9.76-19-20.49-16.52Z" transform="translate(385.47 52.28)"/><path class="cls-1" d="M44.82-9.24l12.31-4.57V-9q0,27.49,0,55c0,1,0,2,0,3,.16,4.93.9,5.84,5.67,7.15a2.91,2.91,0,0,1,1.8,1.4,21.39,21.39,0,0,1-2.74.35c-6.62,0-13.24,0-19.86,0a21.92,21.92,0,0,0-3,.19c-6,.9-6.88.48-9.67-5.13-1,.79-1.89,1.58-2.84,2.33a14.78,14.78,0,0,1-8.66,3.56c-5.47.24-9.3-2.68-10.4-8a15.74,15.74,0,0,1-.25-2.28c-.24-4.65,0-5,4.16-6.91l18.47-8.46c-.21-2.86-.07-5.82-.71-8.6-1.27-5.57-8-8.47-13.11-6a4.24,4.24,0,0,0-2.34,3.68c-.15,1.37-.18,2.75-.27,4.24-2.37.27-4.57,1.1-7-.28a10.23,10.23,0,0,1,1.08-2.44c4.16-5,9.08-8.93,15.55-10.46S34.79,15,36.43,21.44a32.45,32.45,0,0,1,.83,7.17c.11,5.85,0,11.71.06,17.56.07,5.39,3.48,8.8,8.86,8.8a3.1,3.1,0,0,0,2.3-1.57A11.31,11.31,0,0,0,49.39,49c.07-16.42,0-32.84.08-49.26a7.55,7.55,0,0,0-2.94-6.31c-.68-.54-1.42-1-2.13-1.51ZM29.62,35.32c-4.58,2.35-8.4,4.29-12.2,6.26-.43.23-1,.55-1.13,1a9.49,9.49,0,0,0,.36,8.08A6.25,6.25,0,0,0,22.58,54c3.11,0,6.92-2.47,7-4.73C29.73,44.88,29.62,40.47,29.62,35.32Z" transform="translate(385.47 52.28)"/><path class="cls-1" d="M159.36,33a65,65,0,0,0-.82-8.62c-1.23-5.42-8.35-8.42-13.21-5.63a5.46,5.46,0,0,0-2,3,27.55,27.55,0,0,0-.55,4.89h-7a10.63,10.63,0,0,1,1-2.65c4.21-5.13,9.24-9.14,15.85-10.67,6.13-1.42,11.37,1.52,13,7.56a39,39,0,0,1,1.09,9c.17,5.09,0,10.19.05,15.28.06,6.4.81,7.35,6.82,9.22.84.26,1.66.56,2.44.81a4.33,4.33,0,0,0,2.62-4.37c.06-8.65.18-17.31,0-26,0-1.56-1.34-3.16-2.27-4.6a18.81,18.81,0,0,0-2.8-2.73l12.73-4.68c1.37,3.55,0,6.88.72,10.55.74-.87,1.22-1.48,1.76-2.05,2-2.12,3.81-4.48,6.08-6.23a13,13,0,0,1,5.62-2.09,4.47,4.47,0,0,1,4.81,2.42,4.34,4.34,0,0,1-.75,5.29,35.27,35.27,0,0,1-3.43,3l-2.77-1.74c-4-2.48-7.82-1.59-9.7,2.79a26.54,26.54,0,0,0-2,8.84c-.29,5.2-.16,10.43,0,15.65.18,4.61,1.23,5.6,5.8,6.6,1.21.27,2.39.64,3.59,1,0,0,0,.22,0,.7a21.25,21.25,0,0,1-2.69.34c-7.25,0-14.51-.12-21.76-.12a23,23,0,0,0-3.77.46c-5,.83-6.88-.24-8.95-5.5l-2.86,2.36a14.77,14.77,0,0,1-9,3.71c-5,.16-8.27-2-9.8-6.77a23.12,23.12,0,0,1-.73-4.49c-.33-2.89.8-4.67,3.65-5.82,5.19-2.09,10.22-4.56,15.31-6.9C156.68,34.38,157.79,33.79,159.36,33ZM159,35.36c-4.5,2.31-8.44,4.27-12.29,6.37a3.54,3.54,0,0,0-1.42,2.08,9.09,9.09,0,0,0,.9,7,6.11,6.11,0,0,0,6.4,3.18c2.71-.35,5.85-1.37,6.24-4.12C159.45,45.32,159,40.63,159,35.36Z" transform="translate(385.47 52.28)"/><path class="cls-1" d="M235,54.9V4.49c0-1.52-.09-3.05-.07-4.58A7.88,7.88,0,0,0,231.51-7a23.58,23.58,0,0,1-1.85-1.72c4-2.13,8.05-3.31,12.54-4.92.78,3.69.34,7.08.41,10.41.08,3.57,0,7.13,0,10.69V18.19c2.94-1.23,5.45-2.36,8-3.35,3.46-1.34,7-2.3,10.8-1.68,7.91,1.29,14,7.31,15.84,15.6C280,41,273.34,52.56,260.94,57.09,252.57,60.14,244.46,59.53,235,54.9Zm8-34.8c0,8.51-.09,16.76.07,25a13.92,13.92,0,0,0,1.5,5.09,9.29,9.29,0,0,0,6.24,5.21A13.75,13.75,0,0,0,266.59,49,22.18,22.18,0,0,0,269,33.18c-1.28-6.75-4.86-11.72-11.39-14.15C252.72,17.2,247.86,17.85,243,20.1Z" transform="translate(385.47 52.28)"/><path class="cls-1" d="M277.55-9l12.25-4.6c.95,3.89.42,7.29.51,10.65.09,3.57,0,7.13,0,10.7V18.26c2.93-1.24,5.34-2.32,7.79-3.29,3.58-1.42,7.25-2.45,11.16-1.81a19.83,19.83,0,0,1,16.15,17.53c1.38,11.61-4.51,21.39-15.72,26-8.52,3.5-16.88,2.74-25.21-.83-1.87-.8-1.84-2.14-1.84-3.7,0-7.89,0-15.78,0-23.68,0-8.91-.11-17.82.05-26.73.07-3.84-.69-7-4-9.28C278.39-7.71,278.24-8.1,277.55-9Zm12.91,29.47c0,7.53-.13,14.91.07,22.27a23.37,23.37,0,0,0,1.6,7,9,9,0,0,0,6.69,5.73,13.93,13.93,0,0,0,15.91-7c2.27-4.06,2.69-8.45,2.36-13C316,20.37,301.67,14.25,290.46,20.42Z" transform="translate(385.47 52.28)"/><path class="cls-1" d="M132.91,37.25a27.72,27.72,0,0,1-.47,3.29c-.72,2.7-1.46,5.4-2.35,8.06-2.35,7.09-2.36,7.19-9.71,9-10.67,2.66-21.27,2.33-31.47-2-12.47-5.23-19.73-14.55-20.7-28.23C67.26,13.94,72.55,3.1,83.86-4.07c13.66-8.66,28.31-8.86,43.21-3a4.13,4.13,0,0,1,3,4.62c-.19,3.3,0,6.62-.06,9.93,0,1-.19,1.91-.38,3.8a18.09,18.09,0,0,1-1.45-2.4c-.43-1.2-.68-2.46-1.1-3.66C123.64-4.43,115.9-9.42,105.73-8.44s-17.68,6-22.35,15.13C75.34,22.37,80.2,42.56,94.29,52A25.67,25.67,0,0,0,112,56.62a17.69,17.69,0,0,0,12.85-7.41c2.13-3,3.75-6.33,5.59-9.52.53-.92,1-1.87,1.53-2.8Z" transform="translate(385.47 52.28)"/><path class="cls-1" d="M-59.27,59.16c-2.24-.36-4.54-.52-6.73-1.09-11.06-2.89-17.34-11-17.28-22.13a22.91,22.91,0,0,1,18.1-22.15A26.94,26.94,0,0,1-48,15.11c7.73,3.34,12.4,9.09,13.42,17.55,1.09,9-2,16.26-9.25,21.61C-48.48,57.68-53,58.94-59.27,59.16Zm15.65-22.6a27.45,27.45,0,0,0-3.7-14.22c-5.93-9.8-18.18-9.53-23.7.53a24,24,0,0,0-2.92,11.34c-.12,6.83,1.36,13.19,6.19,18.3,6,6.36,15.1,5.62,20-1.53A24,24,0,0,0-43.62,36.56Z" transform="translate(385.47 52.28)"/><path class="cls-1" d="M-29.14,72.59c.32.15.44.19.55.26,5.56,3.23,6.19,3,8.83-3.06.92-2.1,1.7-4.26,2.75-6.29a6.41,6.41,0,0,0,0-5.8q-7-17.54-13.79-35.16c-1.33-3.46-2.84-6.53-7-7.2-.14,0-.22-.41-.33-.64,2.65-1,16.8-1.07,20.66,0-1.12.5-1.82.85-2.55,1.13-2.87,1.07-3.53,2.26-2.83,5.26a18.41,18.41,0,0,0,.66,2.19q4.81,12.45,9.66,24.89a19.44,19.44,0,0,0,1.18,2.06C-9.06,43.81-7,37.85-5,31.86c1-2.89,1.88-5.81,2.6-8.77,1.12-4.65.5-5.66-4-7.46-.31-.13-.52-.47-.81-.74,2.4-1.2,13.61-1.33,16.93-.25-.08.23-.12.64-.25.67-4.29,1-6.41,4.15-7.94,8q-9,22.31-18,44.57c-1.15,2.83-2.35,5.64-3.76,8.35a16.08,16.08,0,0,1-3.15,4.26c-2.47,2.33-5.9,2.15-7.81-.16C-33.19,77.78-32.54,75-29.14,72.59Z" transform="translate(385.47 52.28)"/><path class="cls-1" d="M369.46,46.88c0,.62.24,1.41,0,1.84-8.55,13.12-23.77,12.9-32.08,4.18-6.68-7-7.95-15.52-4.92-24.51,2.94-8.69,9.13-14,18.33-15.23,9.81-1.3,17.63,4.59,17.68,14.3-9.31.28-18.65,0-27.89.18-3,7.61,0,17.27,6.19,21.71a17.24,17.24,0,0,0,11.91,3.18C362.9,52.15,366.07,49.66,369.46,46.88Zm-10.67-22c-.65-5.87-4.19-9.78-8.55-9.7-4.77.08-8.93,4.51-9.5,10.48Z" transform="translate(385.47 52.28)"/><path class="cls-1" d="M224.35,12.71c.06,1.9.12,3.11.12,4.32V46c0,1.14,0,2.29,0,3.43.16,4.5,1,5.52,5.21,6.69a21.45,21.45,0,0,1,2.08.75c.07,0,.07.21.11.32-2.48,1-19.08,1.14-23.33-.09a31.85,31.85,0,0,1,3.51-1.21c2.93-.6,4.31-2.47,4.55-5.32.1-1.27.16-2.54.16-3.81,0-6.22-.14-12.46.06-18.68.14-4-1.07-6.93-4.64-8.82a16.55,16.55,0,0,1-2-1.64Z" transform="translate(385.47 52.28)"/><path class="cls-1" d="M220.36-10.84a5.15,5.15,0,0,1,4.84,5.31,4.94,4.94,0,0,1-5.4,4.66,4.79,4.79,0,0,1-4.59-5A4.94,4.94,0,0,1,220.36-10.84Z" transform="translate(385.47 52.28)"/><path class="cls-1" d="M112.82,147.23c-3.81-6.87-7.66-13.83-11.52-20.78l-.79.14c-.54,6.83.13,13.72-.37,20.68H96.49V120h5.33l11.6,21c1.16-2.59.59-4.81.69-6.93.1-2.29,0-4.58,0-6.87v-7.12l3.74-.28v27.44Z" transform="translate(385.47 52.28)"/><path class="cls-1" d="M338.86,119.93h5.26l11.41,20.66.77-.11c.39-6.72,0-13.47.25-20.43h3.68v27c-4.72.89-4.72.89-6.74-2.76q-4-7.35-8.12-14.7a7.83,7.83,0,0,0-2.58-2.95v20.59l-3.93.28Z" transform="translate(385.47 52.28)"/><path class="cls-1" d="M-78.4,147.39h-4.91l-12.11-21.84c-.85,4.08-.36,7.54-.45,11s0,6.85,0,10.58l-3.86.52c-.19-9.37-.07-18.44-.08-27.67h5.41L-83,140.63l.79-.12c0-3.33.08-6.66.1-10s0-6.83,0-10.48h3.71Z" transform="translate(385.47 52.28)"/><path class="cls-1" d="M281.6,133.14c0-4.9,1.64-9.61,6.75-12.24a13.47,13.47,0,0,1,14.16.59c4.29,2.75,5.56,7.13,5.79,11.86.53,11.1-9.89,18.14-19.67,13.31C283.28,144,281.69,139.23,281.6,133.14Zm22.67,1.13c-.3-1.74-.42-3.14-.79-4.47-1.26-4.49-4.18-6.87-8.36-6.93-4.41-.07-7.46,2.3-8.84,6.85a13.67,13.67,0,0,0,.65,9.65,7.94,7.94,0,0,0,7.75,5.09c3.85.06,6.66-1.51,8.17-5A37.36,37.36,0,0,0,304.27,134.27Z" transform="translate(385.47 52.28)"/><path class="cls-1" d="M50.33,147.26H46.51V120c4.1-.2,8.2-.55,12.31.47a6.72,6.72,0,0,1,2,12.13c-.52.34-1.07.65-1.58.95,2.19,4.43,4.35,8.8,6.81,13.76l-4.46.21c-1.24-2.78-2.38-5.33-3.53-7.86-2-4.36-2.47-4.64-7.73-4.13Zm.17-15.44A49.37,49.37,0,0,0,57,131a3.46,3.46,0,0,0,2.51-3.83,3.38,3.38,0,0,0-3-3.45c-1.94-.31-3.93-.28-6.07-.41Z" transform="translate(385.47 52.28)"/><path class="cls-1" d="M417.59,147.31H413.4c-.94-2.09-1.91-4.26-2.95-6.56H396.94c-.91,2.07-1.82,4.15-2.83,6.47h-4.05C394,138,397.8,129.05,401.67,120l4.24-.19C409.72,128.76,413.53,137.73,417.59,147.31Zm-8.39-10.16-5.47-13.57c-2,5-4,9-5.21,13.57Z" transform="translate(385.47 52.28)"/><path class="cls-1" d="M166.5,140.7H153.07l-2.92,6.55h-4l11.65-27.32h4.31l11.54,27.3h-4.2Zm-1.21-3.53-5.12-12.71-.74-.09c-1.66,4.16-3.31,8.32-5.09,12.8Z" transform="translate(385.47 52.28)"/><path class="cls-1" d="M4,134.78v9.11H15.14v3.4H.05V120H15.18v3.28H4.09v8.1H14.16v3.4Z" transform="translate(385.47 52.28)"/><path class="cls-1" d="M218.29,120v3.26H210v23.82l-4,.52V123.52l-8.5-.4c-.11-1-.21-1.93-.33-3.11Z" transform="translate(385.47 52.28)"/><path class="cls-1" d="M-40.8,123.33h-8.38c-.07-1.32-.12-2.17-.17-3.29h20.71a7,7,0,0,1,.28,1.39,12.11,12.11,0,0,1-.33,1.92h-8.15V147.2l-4,.3Z" transform="translate(385.47 52.28)"/><path class="cls-1" d="M449.41,144h11.53c.06,1.23.11,2.14.17,3.26H445.83v-27.2l3.58-.35Z" transform="translate(385.47 52.28)"/><path class="cls-1" d="M247.51,120H251v27.24a16,16,0,0,1-1.78.27,12.57,12.57,0,0,1-1.68-.18Z" transform="translate(385.47 52.28)"/><path class="cls-1" d="M-134.2,119.81v27.41l-3.55.26V120Z" transform="translate(385.47 52.28)"/><path class="cls-1" d="M-290,108.43v-54h-49.05c-.57-5.3-1.1-10.27-1.66-15.52h131.61c-.23,2.64-.42,5.13-.68,7.61s-.57,4.79-.91,7.67c-4,.24-8.09.08-12.11.11s-8.16,0-12.23,0h-24.29v53.85a15,15,0,0,0,2.13.31c6.63,0,13.26.17,19.88-.07a17.63,17.63,0,0,0,6.91-1.81c4.88-2.37,6.22-7.3,3.26-11.88a26.7,26.7,0,0,0-4.72-4.91,35.86,35.86,0,0,0-3.9-2.61L-213.22,71l.77.45q-2.42,23.05-4.82,46.19l-16.32,6.21c-12.84,4.91-25.69,9.79-38.51,14.75a7,7,0,0,1-5.45.06q-26-10-52.1-19.86c-2.24-.84-3-2-3.25-4.38-1.32-13.56-2.82-27.1-4.25-40.65-.09-.86,0-1.73,0-3.33,8,5.66,15.6,11.15,23.25,16.62-2.42,1.9-4.82,3.4-6.67,5.4a13.14,13.14,0,0,0-3,5.57,6.78,6.78,0,0,0,3.34,7.87c1.93,1.14,4.18,2.34,6.33,2.41C-306.07,108.6-298.2,108.43-290,108.43Z" transform="translate(385.47 52.28)"/><path class="cls-1" d="M-346.45-15.44l27.14,19.23-9.17,10.3L-313.61,25l23.22-10.58-8.55-11.3,24-23.3,24.07,23.3-8.5,11.18c7.66,3.86,15.34,7,23.1,10.73l14.93-11-9.1-10.17c8.65-6.54,17.52-12.5,26.18-18.75l.77.43-4.63,44.23H-341.71C-343.26,15-344.8.26-346.45-15.44Z" transform="translate(385.47 52.28)"/></svg>