<?xml version="1.0" encoding="utf-8"?>
<!-- Generator: Adobe Illustrator 19.0.0, SVG Export Plug-In . SVG Version: 6.00 Build 0)  -->
<svg version="1.1" id="rccl-logo" xmlns="http://www.w3.org/2000/svg" xmlns:xlink="http://www.w3.org/1999/xlink" x="0px" y="0px"
	 viewBox="-226 376 155.5 38.4" style="enable-background:new -226 376 155.5 38.4;" xml:space="preserve">
<style type="text/css">
	.st0{fill:none;}
	.st1{fill:#FFFFFF;}
</style>
<polyline id="Clip-17_1_" class="st0" points="-226,413.8 -70.5,413.8 -70.5,375.5 "/>
<path class="st0" d="M-199.1,385.1l1.7,1.9l-2.8,1.9l-4.1-1.8V387l1.5-2c-1.3-1.4-2.8-2.8-4.2-4.1c-1.4,1.3-3,2.7-4.2,4.1l1.5,2v0.1
	l-4.1,1.8l-2.8-1.9l1.7-1.9V385c-1.7-1.2-3.1-2.4-4.8-3.5l0.8,8.4h23.8l0.8-8.4C-195.9,382.6-197.4,383.8-199.1,385.1L-199.1,385.1z
	"/>
<path class="st0" d="M-218.5,394.2h8.8v9.6h-4.3c-1,0-2-1-1.8-1.7c0.2-1,1.1-1.6,1.9-2.1c-0.2,0-3.1-2.2-4.5-3.1
	c0.1,0.6,1.1,8.5,1.1,8.6l10.1,3.9h0.2l10.3-3.9c0.1-0.1,1-8,1.1-8.6c-1.4,0.9-4.3,3.1-4.5,3.1c0.8,0.5,1.7,1.1,1.9,2.1
	c0.2,0.7-0.8,1.7-1.8,1.7h-4.3v-9.6h8.8l0.2-2.8h-23.4L-218.5,394.2z"/>
<path class="st1" d="M-226,376v38.4h37.9V376H-226z M-195.5,394.2h-8.8v9.6h4.3c1,0,2-1,1.8-1.7c-0.2-1-1.1-1.6-1.9-2.1
	c0.2,0,3.1-2.2,4.5-3.1c-0.1,0.6-1,8.5-1.1,8.6l-10.3,3.9h-0.2l-10.1-3.9c0-0.1-1-8-1.1-8.6c1.4,0.9,4.3,3.1,4.5,3.1
	c-0.8,0.5-1.7,1.1-1.9,2.1c-0.2,0.7,0.8,1.7,1.8,1.7h4.3v-9.6h-8.8l-0.2-2.8h23.4L-195.5,394.2z M-195.1,389.9h-23.8l-0.8-8.4
	c1.7,1.1,3.1,2.3,4.8,3.5v0.1l-1.7,1.9l2.8,1.9l4.1-1.8V387l-1.5-2c1.2-1.4,2.8-2.8,4.2-4.1c1.4,1.3,2.9,2.7,4.2,4.1l-1.5,2v0.1
	l4.1,1.8l2.8-1.9l-1.7-1.9V385c1.7-1.2,3.2-2.4,4.8-3.5L-195.1,389.9z"/>
<path class="st1" d="M-131.8,392.7c0,0.8,0.4,1.4,1.2,1.4c0.5,0,1-0.3,1.3-0.7v-2.7l-2.4,1.3C-131.8,392.2-131.8,392.5-131.8,392.7z
	"/>
<path class="st1" d="M-154.8,392.7c0,0.8,0.4,1.4,1.2,1.4c0.5,0,1-0.3,1.3-0.7v-2.7l-2.4,1.3C-154.8,392.2-154.8,392.5-154.8,392.7z
	"/>
<path class="st1" d="M-180,383v5.7c1.7,0,3.7-0.8,3.7-2.8C-176.3,383.8-178.1,383-180,383z"/>
<path class="st1" d="M-168.1,387.2c-1.9,0-2.7,2-2.7,3.7s0.9,3.8,2.8,3.8c1.8,0,2.6-2.1,2.6-3.6
	C-165.3,389.4-166.1,387.2-168.1,387.2z"/>
<path class="st1" d="M-112.6,387.7c-0.6,0-1.1,0.2-1.6,0.4l-0.1,3.1c0,1.7,0.2,3.3,2.2,3.3c1,0,2.6-0.8,2.6-3.3
	C-109.5,389-110.9,387.7-112.6,387.7z"/>
<path class="st1" d="M-95.3,387.1c-1,0-1.6,1-1.8,1.9l3.4-0.1C-93.9,388.1-94.4,387.1-95.3,387.1z"/>
<path class="st1" d="M-89.6,392.7c0,0.8,0.4,1.4,1.2,1.4c0.5,0,1-0.3,1.3-0.7v-2.7l-2.4,1.3C-89.6,392.2-89.6,392.5-89.6,392.7z"/>
<path class="st1" d="M-104.1,387.7c-0.6,0-1.1,0.2-1.6,0.4l-0.1,3.1c0,1.7,0.2,3.3,2.2,3.3c1,0,2.6-0.8,2.6-3.3
	C-101,389-102.4,387.7-104.1,387.7z"/>
<line class="st0" x1="-134.7" y1="386.4" x2="-134.5" y2="386.4"/>
<path class="st0" d="M-155.8,387.6v-0.3h-3.1v0.3c1.3,0.1,1.2,0.8,0.4,3.1l-1.1,3.2l-1.7-4.6c-0.4-0.9-0.7-1.7,0.6-1.8v-0.3h-3.7
	v0.3c0.9,0.1,1,0.3,1.3,1.1l2.7,7l-0.6,1.4c-0.1,0.2-0.4,1.2-0.8,1.2c-0.2,0-0.7-0.4-0.9-0.5c-0.4,0.1-0.6,0.4-0.6,0.8
	c0,0.5,0.4,0.9,0.9,0.9c0.7,0,1.1-0.5,1.8-2.2l2.7-6.9l0.7-1.6C-156.8,388-156.6,387.7-155.8,387.6z"/>
<path class="st0" d="M-138.3,394.7c-2.5,0-5.2-2.5-5.2-6c0-3.1,1.9-5.8,5.1-5.8c2.1,0,3.3,1.5,3.6,3.5h0.1v-2.9
	c-1.2-0.7-2.6-1-3.9-1c-4.6,0-7.1,3.2-7.1,6.4c0,4,3.3,6.2,7,6.2c1.2,0,2.5-0.2,3.6-0.8c0.5-1,0.8-2.1,1-3.2l-0.2-0.1
	C-135.1,393-136,394.7-138.3,394.7z"/>
<path class="st0" d="M-117.7,392.8v-5.9l-0.2-0.1l-2.3,0.8v0.2c1.1,0.6,1.1,0.8,1.1,1.6v3.4c0,1.4-0.1,1.6-1.4,1.8v0.3h4.2v-0.3
	C-117.6,394.4-117.7,394.3-117.7,392.8z"/>
<path class="st0" d="M-122.6,394.9v-0.3c-1.7-0.2-1.8-0.3-1.8-1.8v-1.9c0-0.2-0.1-2.7,1.4-2.8c0.4,0,0.8,0.4,1.1,0.6
	c0.4-0.2,0.9-0.6,0.9-1.1s-0.4-0.8-0.9-0.8c-1.1,0-2.1,1.3-2.5,2.2l0.1-2.1l-0.2-0.1l-2.1,0.8v0.2c0.9,0.6,0.9,0.8,0.9,1.6v3.3
	c0,1.1-0.1,1.5-0.7,1.7v-0.1c-1.7,0.4-1.5-0.7-1.5-2.3v-2.5c0-1.4-0.5-2.7-2.1-2.7c-1.5,0-3.4,1.8-3.4,2.3c0,0.2,0.3,0.2,0.4,0.2
	l0.8-0.1c0-1-0.1-1.6,1.1-1.6c1.4,0,1.9,0.8,1.8,2.8l-4,1.9c-0.1,0.3-0.1,0.5-0.1,0.8c0,1,0.7,2,1.8,2c1,0,1.7-0.6,2.3-1.2
	c0.1,0.7,0.4,1.1,1.1,1.1c0.3,0,0.8-0.1,1.2-0.2v0.1L-122.6,394.9L-122.6,394.9z"/>
<path class="st0" d="M-118.5,384.7c0.5,0,0.9-0.4,0.9-0.9s-0.4-0.9-0.9-0.9s-0.9,0.4-0.9,0.9S-119,384.7-118.5,384.7z"/>
<path class="st0" d="M-111.4,386.8c-1,0-2.1,0.5-3,1v-5.1l-0.2-0.1l-2,0.8v0.2c0.9,0.6,0.9,0.8,0.9,1.6v9.2c0.9,0.4,1.7,0.7,2.8,0.7
	c1.9,0,4.8-1.4,4.8-4.6C-108.1,388.6-109.4,386.8-111.4,386.8z"/>
<path class="st0" d="M-163.8,390.8c0-2.5-1.9-4.1-4.3-4.1c-2.4,0-4.4,1.7-4.4,4.2s2,4.1,4.4,4.1C-165.7,395-163.7,393.3-163.8,390.8
	z"/>
<path class="st0" d="M-176.7,388.6L-176.7,388.6c1.2-0.6,2.1-1.5,2.1-3c0-0.8-0.3-3-4.8-2.9l-4.3,0.1v0.3c2,0.1,2.1,0.6,2.1,3.3
	l-0.1,5.5c-0.1,1.9-0.1,2.4-2.2,2.7v0.3h6.2v-0.3c-2.5-0.4-2.5-0.7-2.5-2.7V389c1.3,0.2,1.9-0.2,2.6,1.3c0.4,0.8,1.3,2.4,2.5,3.6
	c1,1.1,2.4,1,4.3,1.1l0.1-0.3C-173.6,394.1-175.3,391-176.7,388.6z"/>
<path class="st0" d="M-146.1,394.9v-0.3c-1.3-0.2-1.4-0.3-1.4-1.8v-10.1l-0.2-0.1l-2,0.8v0.3c0.9,0.6,0.9,0.8,0.9,1.6v7.6
	c0,0.9-0.1,1.2-0.6,1.4l0,0c-1.6,0.3-1.5-0.7-1.5-2.3v-2.5c0-1.4-0.5-2.7-2.1-2.7c-1.4,0-3.4,1.8-3.4,2.3c0,0.2,0.3,0.2,0.4,0.2
	l0.8-0.1c0-1-0.1-1.6,1.1-1.6c1.4,0,1.9,0.8,1.8,2.8l-4,1.9c-0.1,0.3-0.1,0.5-0.1,0.8c0,1,0.7,2,1.8,2c1,0,1.7-0.6,2.3-1.2
	c0.1,0.7,0.4,1.1,1.1,1.1c0.3,0,0.6,0,1-0.1l0,0L-146.1,394.9L-146.1,394.9z"/>
<path class="st0" d="M-77,392.8v-3.2c0-1-0.1-2.8-2.2-2.8c-1.1,0-2.1,0.6-3.1,1.4l0.1-1.3l-0.2-0.1l-2.1,0.8v0.2
	c0.9,0.6,0.9,0.8,0.9,1.6v3.4c0,1.1-0.1,1.5-0.8,1.7l0,0c-1.7,0.1-1.4-0.9-1.4-2.5v-2.5c0-1.4-0.5-2.7-2.1-2.7
	c-1.4,0-3.4,1.8-3.4,2.3c0,0.2,0.3,0.2,0.4,0.2l0.9-0.1c0-1-0.1-1.6,1.1-1.6c1.4,0,1.9,0.8,1.8,2.8l-4,1.9c-0.1,0.3-0.1,0.5-0.1,0.8
	c0,1,0.7,2,1.8,2c1,0,1.7-0.6,2.3-1.2c0.1,0.7,0.4,1.1,1.1,1.1c0.4,0,0.7,0,1.2-0.1h4v-0.3c-1.3-0.2-1.4-0.3-1.4-1.8v-4.3
	c0.6-0.6,1.1-0.8,1.8-0.8c2.2,0,2.1,1.7,2.1,3v2.1c0,1.4-0.1,1.6-1.4,1.8v0.3h4.1v-0.3C-76.9,394.4-77,394.3-77,392.8z"/>
<path class="st0" d="M-94.1,393.9c-2,0-3.2-1.7-3.1-3.6l0.1-0.9h5.1c0-1.6-1.1-2.6-2.7-2.6c-2.4,0-4,2-4,4.3c0,2.2,1.5,4,3.7,4
	c1.4,0,2.6-0.9,3.3-2.1l-0.3-0.2C-92.5,393.5-93.2,393.9-94.1,393.9z"/>
<path class="st0" d="M-102.9,386.8c-1,0-2.1,0.5-3,1v-5.1l-0.2-0.1l-2,0.8v0.2c0.9,0.6,0.9,0.8,0.9,1.6v9.2c0.9,0.4,1.7,0.7,2.8,0.7
	c1.9,0,4.8-1.4,4.8-4.6C-99.6,388.6-100.9,386.8-102.9,386.8z"/>
<path class="st1" d="M-148.3,406.1h-0.7v1.6h0.6c0.7,0,1.1-0.3,1.1-0.8S-147.7,406.1-148.3,406.1z"/>
<polygon class="st1" points="-130.7,408.8 -128.6,408.8 -129.7,406.2 "/>
<path class="st1" d="M-106.3,405.9c-1.1,0-1.7,1-1.7,2.1s0.5,2.1,1.7,2.1s1.7-1,1.7-2.1C-104.6,406.9-105.2,405.9-106.3,405.9z"/>
<polygon class="st1" points="-88.3,408.8 -86.2,408.8 -87.3,406.2 "/>
<path class="st1" d="M-188.1,376v38.4h117.6V376H-188.1z M-118.5,382.9c0.5,0,0.9,0.4,0.9,0.9s-0.4,0.9-0.9,0.9s-0.9-0.4-0.9-0.9
	S-119,382.9-118.5,382.9z M-180.8,410.7h-0.7v-5.3h0.7V410.7z M-171.3,410.7h-1l-2.4-4.3v4.3h-0.7v-5.3h1l2.3,4.3v-4.3h0.8
	L-171.3,410.7L-171.3,410.7z M-170.8,395c-1.9-0.1-3.3,0-4.3-1.1c-1.2-1.2-2.1-2.8-2.5-3.6c-0.7-1.5-1.3-1.1-2.6-1.3v2.9
	c0,2,0,2.3,2.5,2.7v0.3h-6.2v-0.3c2.1-0.3,2.1-0.8,2.2-2.7l0.1-5.5c0-2.7-0.1-3.2-2.1-3.3v-0.3l4.3-0.1c4.5-0.1,4.8,2.1,4.8,2.9
	c0,1.5-0.9,2.4-2.2,2.9l0.1,0.1c1.4,2.4,3.1,5.5,6,6.1L-170.8,395z M-172.5,390.9c0-2.5,2-4.2,4.4-4.2s4.3,1.6,4.3,4.1
	c0.1,2.5-1.9,4.2-4.3,4.2C-170.5,395-172.5,393.4-172.5,390.9z M-162.6,406.1h-1.6v4.6h-0.8v-4.6h-1.6v-0.7h4L-162.6,406.1
	L-162.6,406.1z M-160.6,397.2c-0.7,1.7-1.1,2.2-1.8,2.2c-0.5,0-0.9-0.4-0.9-0.9c0-0.4,0.2-0.7,0.6-0.8c0.2,0.1,0.7,0.5,0.9,0.5
	c0.4,0,0.7-1,0.8-1.2l0.6-1.4l-2.7-7c-0.3-0.8-0.4-1-1.3-1.1v-0.3h3.7v0.3c-1.3,0.1-1,0.9-0.6,1.8l1.7,4.6l1.1-3.2
	c0.8-2.3,0.9-3-0.4-3.1v-0.3h3.1v0.3c-0.8,0.1-1,0.4-1.4,1.1l-0.7,1.6L-160.6,397.2z M-154.9,406.1h-2.2v1.5h2v0.7h-2v1.7h2.2v0.7
	h-2.9v-5.3h2.9V406.1z M-151.2,395c-0.7,0-1-0.4-1.1-1.1c-0.6,0.6-1.3,1.2-2.3,1.2c-1.1,0-1.8-1-1.8-2c0-0.3,0-0.5,0.1-0.8l4-1.9
	c0.1-2-0.4-2.8-1.8-2.8c-1.2,0-1.1,0.6-1.1,1.6l-0.8,0.1c-0.1,0-0.4,0-0.4-0.2c0-0.5,2-2.3,3.4-2.3c1.6,0,2.1,1.3,2.1,2.7v2.5
	c0,1.6-0.1,2.6,1.5,2.3l0,0c0.5-0.2,0.6-0.6,0.6-1.4v-7.6c0-0.8,0-1-0.9-1.6v-0.3l2-0.8l0.2,0.1v10.1c0,1.5,0.1,1.6,1.4,1.8v0.3
	h-4.1l0,0C-150.6,395-150.9,395-151.2,395z M-146.8,410.6l-0.8-1.8c-0.2-0.5-0.5-0.5-0.9-0.5h-0.5v2.3h-0.7v-5.2h1.3
	c1,0,2,0.2,2,1.4c0,0.6-0.5,1.1-1.1,1.2c0.2,0.1,0.3,0.2,0.5,0.5l1,2.1H-146.8z M-137,410.7h-1l-2.3-4.3h-0.1v4.3h-0.7v-5.3h1
	l2.3,4.3v-4.3h0.8V410.7z M-135.1,394.3c-1.1,0.6-2.4,0.8-3.6,0.8c-3.7,0-7-2.2-7-6.2c0-3.2,2.5-6.4,7.1-6.4c1.3,0,2.7,0.3,3.9,1
	v2.9h-0.1c-0.3-2-1.5-3.5-3.6-3.5c-3.2,0-5.1,2.7-5.1,5.8c0,3.5,2.7,6,5.2,6c2.3,0,3.2-1.7,4-3.7l0.2,0.1
	C-134.3,392.2-134.6,393.3-135.1,394.3z M-127.8,410.7l-0.5-1.3h-2.5l-0.5,1.3h-0.8l2.1-5.3h0.8l2.2,5.3H-127.8z M-128.2,395
	c-0.7,0-1-0.4-1.1-1.1c-0.6,0.6-1.3,1.2-2.3,1.2c-1.1,0-1.8-1-1.8-2c0-0.3,0-0.5,0.1-0.8l4-1.9c0.1-2-0.4-2.8-1.8-2.8
	c-1.2,0-1.1,0.6-1.1,1.6l-0.8,0.1c-0.1,0-0.4,0-0.4-0.2c0-0.5,1.9-2.3,3.4-2.3c1.6,0,2.1,1.3,2.1,2.7v2.5c0,1.6-0.2,2.7,1.5,2.3v0.1
	c0.6-0.2,0.7-0.6,0.7-1.7v-3.3c0-0.8,0-1-0.9-1.6v-0.2l2.1-0.8l0.2,0.1l-0.1,2.1c0.4-0.9,1.4-2.2,2.5-2.2c0.5,0,0.9,0.3,0.9,0.8
	s-0.5,0.9-0.9,1.1c-0.3-0.2-0.7-0.6-1.1-0.6c-1.5,0.1-1.4,2.6-1.4,2.8v1.9c0,1.5,0.1,1.6,1.8,1.8v0.3h-4.4v-0.1
	C-127.4,394.9-127.9,395-128.2,395z M-119.4,406.1h-1.6v4.6h-0.8v-4.6h-1.6v-0.7h4V406.1z M-116.3,394.9h-4.2v-0.3
	c1.3-0.2,1.4-0.4,1.4-1.8v-3.4c0-0.8,0-1-1.1-1.6v-0.2l2.3-0.8l0.2,0.1v5.9c0,1.5,0.1,1.6,1.4,1.8
	C-116.3,394.6-116.3,394.9-116.3,394.9z M-113.9,410.7h-0.8v-5.3h0.8V410.7z M-112.9,395.1c-1.1,0-1.9-0.3-2.8-0.7v-9.2
	c0-0.8,0-1-0.9-1.6v-0.2l2-0.8l0.2,0.1v5.1c0.9-0.5,2-1,3-1c2,0,3.3,1.8,3.3,3.7C-108.1,393.7-111,395.1-112.9,395.1z M-106.3,410.8
	c-1.6,0-2.5-1.1-2.5-2.7s0.9-2.7,2.5-2.7s2.5,1.2,2.5,2.7C-103.8,409.7-104.7,410.8-106.3,410.8z M-104.4,395.1
	c-1.1,0-1.9-0.3-2.8-0.7v-9.2c0-0.8,0-1-0.9-1.6v-0.2l2-0.8l0.2,0.1v5.1c0.9-0.5,2-1,3-1c2,0,3.3,1.8,3.3,3.7
	C-99.6,393.7-102.5,395.1-104.4,395.1z M-94.7,410.7h-0.9l-2.4-4.3v4.3h-0.7v-5.3h1l2.3,4.3v-4.3h0.7V410.7z M-95,395.1
	c-2.2,0-3.7-1.8-3.7-4c0-2.3,1.6-4.3,4-4.3c1.6,0,2.7,1,2.7,2.6h-5.1l-0.1,0.9c-0.1,1.9,1.1,3.6,3.1,3.6c0.9,0,1.6-0.4,2.1-1.1
	l0.3,0.2C-92.4,394.2-93.6,395.1-95,395.1z M-85.5,410.7l-0.5-1.3h-2.5l-0.5,1.3h-0.8l2.1-5.3h0.8l2.2,5.3H-85.5z M-77,410.7h-2.9
	v-5.3h0.7v4.6h2.2C-77,410-77,410.7-77,410.7z M-75.6,394.9h-4.1v-0.3c1.3-0.2,1.4-0.4,1.4-1.8v-2.1c0-1.3,0.1-3-2.1-3
	c-0.7,0-1.2,0.2-1.8,0.8v4.3c0,1.5,0.1,1.6,1.4,1.8v0.3h-4c-0.5,0.1-0.8,0.1-1.2,0.1c-0.7,0-1-0.4-1.1-1.1c-0.6,0.6-1.3,1.2-2.3,1.2
	c-1.1,0-1.8-1-1.8-2c0-0.3,0-0.5,0.1-0.8l4-1.9c0.1-2-0.4-2.8-1.8-2.8c-1.2,0-1.1,0.6-1.1,1.6l-0.9,0.1c-0.1,0-0.4,0-0.4-0.2
	c0-0.5,2-2.3,3.4-2.3c1.6,0,2.1,1.3,2.1,2.7v2.5c0,1.6-0.3,2.6,1.4,2.5l0,0c0.7-0.2,0.8-0.6,0.8-1.7v-3.4c0-0.8,0-1-0.9-1.6v-0.2
	l2.1-0.8l0.2,0.1l-0.1,1.3c1-0.8,2-1.4,3.1-1.4c2.1,0,2.2,1.8,2.2,2.8v3.2c0,1.5,0.1,1.6,1.4,1.8C-75.6,394.6-75.6,394.9-75.6,394.9
	z"/>
</svg>
