<?xml version="1.0" encoding="utf-8"?>
<!-- Generator: Adobe Illustrator 19.0.0, SVG Export Plug-In . SVG Version: 6.00 Build 0)  -->
<svg version="1.1" id="layer" xmlns="http://www.w3.org/2000/svg" xmlns:xlink="http://www.w3.org/1999/xlink" x="0px" y="0px"
	 viewBox="20 71 600 158.6" style="enable-background:new 20 71 600 158.6;" xml:space="preserve">
<style type="text/css">
	.st0{fill:#FFFFFF;}
</style>
<path class="st0" d="M329.8,102.2c-10.9-7.1-26.2-9.8-45.8-9.8h-37.6v124.9h38.7c13.6,0,25.6-1.6,35.5-5.5
	c9.8-3.8,17.5-10.4,22.9-19.6c5.5-9.3,8.2-21.3,8.2-36.5c0-13.1-1.6-24-4.9-32.7C341.8,113.6,336.9,106.5,329.8,102.2z M319.5,176.4
	c-1.6,6-4.9,10.9-9.3,14.2c-4.9,3.8-12.5,5.5-22.4,5.5h-13.6v-84h11.5c10.9,0,19.6,1.6,25.1,6c3.8,3.3,7.1,7.1,8.7,13.1
	s2.7,13.1,2.7,21.8C322.2,162.7,321.6,170.4,319.5,176.4z M368.5,216.7h28.4v-52.9h33.3v-20.7h-33.3v-30.5h50.7V91.9h-79.1
	C368.5,91.8,368.5,216.7,368.5,216.7z M466.2,216.7h28.4V91.8h-28.4L466.2,216.7L466.2,216.7z M620,91.8h-28.9v72l-52.9-72h-22.9
	v124.9h28.9v-73.6l52.4,73.6H620V91.8z M138.4,221.6c-2.2-1.1-4.9-2.7-11.5-13.6l-13.1-21.3l-15.3-25.1l-1.1-2.2
	c0.5,0,1.6-0.5,2.2-0.5c17.5-6,27.8-21.8,27.8-44.7c0-11.5-4.4-21.8-13.1-29.5c-1.1-1.1-2.7-2.2-3.8-3.3C98.5,73.8,82.7,71,62,71
	H22.2c-2.2,0-2.7,1.6-1.6,2.7c1.1,1.1,2.2,2.7,2.2,7.1v125.5c-0.5,4.9-1.6,6.5-2.2,7.6c-1.1,1.1-0.5,2.7,2.2,2.7h28.9v-52.9h13.1
	l9.3,15.8l11.5,19.6l5.5,9.8c6.5,10.9,12.5,18,22.9,19.6c1.1,0,6.5,1.1,8.7,1.1h2.2c4.4,0,8.7-1.6,11.5-2.7c0,0,0.5-0.5,1.1-0.5
	C141.1,224.4,140,222.2,138.4,221.6z M70.2,143.1H51.6V91.8h18.5c9.3,0,16.4,1.1,21.3,6c2.2,1.6,3.3,3.8,4.4,6.5
	c1.1,3.3,2.2,7.1,2.2,12C98,122.9,97.5,143.1,70.2,143.1z M175.5,163.8h33.3v-20.7h-33.3v-30.5h50.7V91.9h-79.1v124.9h79.1v-20.7
	h-50.7V163.8L175.5,163.8z"/>
</svg>
