<svg id="Layer_1" data-name="Layer 1" xmlns="http://www.w3.org/2000/svg" viewBox="0 0 1641.8 351"><defs><style>.cls-1,.cls-2{fill:#fff;}.cls-1{fill-rule:evenodd;}</style></defs><title>Ripplematch</title><g id="Homepage_ver1" data-name="Homepage ver1"><path class="cls-1" d="M332.134,75.675a5.221,5.221,0,0,0-5.222,3.134l-58.5,123.258L208.876,78.809a5.223,5.223,0,0,0-5.223-3.134H171.272a3.133,3.133,0,0,0-3.134,4.178l96.1,191.156a4.178,4.178,0,0,0,6.267,0l6.268-12.535,59.54-114.9V273.1a4.178,4.178,0,0,0,4.178,4.178h25.07a4.179,4.179,0,0,0,4.178-4.178h0V79.853a4.179,4.179,0,0,0-4.178-4.178H332.134Z"/><path class="cls-1" d="M160.826,140.438A66.853,66.853,0,0,0,95.018,73.586H14.587a3.133,3.133,0,0,0-3.134,4.178L22.943,99.7a6.271,6.271,0,0,0,5.223,3.134H95.018a36.559,36.559,0,0,1,36.56,36.56,36.56,36.56,0,0,1-34.411,38.589q-1.073.061-2.149.06H65.771a2.089,2.089,0,0,0-2.09,3.133L109.642,273.1a7.314,7.314,0,0,0,6.268,4.178h27.158a3.134,3.134,0,0,0,3.134-5.223L112.776,205.2A67.9,67.9,0,0,0,160.826,140.438Z"/><path class="cls-2" d="M552.537,178.043a30.3,30.3,0,0,0,18.8-4.179,17.755,17.755,0,0,0,5.222-13.579,14.624,14.624,0,0,0-5.222-13.579,34.461,34.461,0,0,0-18.8-3.134H528.513v79.387a3.134,3.134,0,0,1-3.134,3.133H514.933a3.133,3.133,0,0,1-3.133-3.133V131.037a3.134,3.134,0,0,1,3.133-3.134h36.56a52.237,52.237,0,0,1,31.337,7.312,28.206,28.206,0,0,1,9.4,24.025,28.2,28.2,0,0,1-20.891,30.293l22.98,32.381a2.089,2.089,0,0,1-2.089,3.134H578.652L575.518,224l-31.337-43.871a1.168,1.168,0,0,1,1.045-2.089h7.311Z"/><path class="cls-2" d="M629.835,128.948h10.446a3.134,3.134,0,0,1,3.134,3.134v90.877a3.134,3.134,0,0,1-3.134,3.133H629.835a3.133,3.133,0,0,1-3.133-3.133V131.037A3.133,3.133,0,0,1,629.835,128.948Z"/><path class="cls-2" d="M746.826,137.305a32.379,32.379,0,0,1,10.446,26.114,31.333,31.333,0,0,1-10.446,26.114,51.185,51.185,0,0,1-31.336,8.356h-18.8V224a3.134,3.134,0,0,1-3.133,3.134H683.108A3.134,3.134,0,0,1,679.974,224V131.037a3.134,3.134,0,0,1,3.134-3.134H713.4A50.142,50.142,0,0,1,746.826,137.305ZM734.292,177a21.939,21.939,0,0,0,5.222-15.669,15.665,15.665,0,0,0-6.267-14.623,35.511,35.511,0,0,0-19.847-4.179H696.687v38.649h18.8A25.067,25.067,0,0,0,734.292,177Z"/><path class="cls-2" d="M852.327,137.305a32.379,32.379,0,0,1,10.446,26.114,31.339,31.339,0,0,1-10.446,26.114,51.186,51.186,0,0,1-31.337,8.356h-18.8V224a3.134,3.134,0,0,1-3.133,3.134H788.609A3.134,3.134,0,0,1,785.475,224h0V131.037a3.134,3.134,0,0,1,3.134-3.134H818.9A50.142,50.142,0,0,1,852.327,137.305ZM839.793,177a21.939,21.939,0,0,0,5.222-15.669,15.665,15.665,0,0,0-6.267-14.623,35.511,35.511,0,0,0-19.847-4.179H802.188v38.649h18.8A25.068,25.068,0,0,0,839.793,177Z"/><path class="cls-2" d="M892.021,222.959V131.037a3.134,3.134,0,0,1,3.134-3.134H905.6a3.134,3.134,0,0,1,3.134,3.134h0v78.342h41.783a3.134,3.134,0,0,1,3.133,3.134h0v9.4a3.134,3.134,0,0,1-3.133,3.134H894.11A3.134,3.134,0,0,1,892.021,222.959Z"/><path class="cls-2" d="M1048.705,131.037v10.446a3.133,3.133,0,0,1-3.133,3.133h-48.05v26.115h43.871a3.134,3.134,0,0,1,3.134,3.133h0v8.357a3.134,3.134,0,0,1-3.134,3.133H997.522v26.115h50.139a3.134,3.134,0,0,1,3.134,3.133h0V224a3.134,3.134,0,0,1-3.134,3.134H983.942A3.134,3.134,0,0,1,980.809,224h0V131.037a3.134,3.134,0,0,1,3.133-3.134h62.674A3.134,3.134,0,0,1,1048.705,131.037Z"/><path class="cls-2" d="M1095.711,226.092h-10.446a3.133,3.133,0,0,1-3.133-3.133h0V131.037a3.134,3.134,0,0,1,3.133-3.134h20.892l2.089,3.134,28.2,58.5,28.2-58.5,3.134-2.089h19.846a3.134,3.134,0,0,1,3.134,3.134h0v90.877a3.134,3.134,0,0,1-3.134,3.133h-10.445a3.134,3.134,0,0,1-3.134-3.133h0v-73.12L1141.672,214.6l-3.134,2.089h-4.178l-3.134-2.089-32.382-64.763v73.12A3.133,3.133,0,0,1,1095.711,226.092Z"/><path class="cls-2" d="M1267.019,148.795,1233.593,224l-3.133,2.089h-11.491a2.089,2.089,0,0,1-2.089-3.133l40.738-91.922,3.134-2.089h13.579l3.134,2.089,40.738,91.922a2.088,2.088,0,0,1-2.089,3.133h-11.49L1301.49,224Z"/><path class="cls-2" d="M1378.788,143.572v79.387a3.134,3.134,0,0,1-3.134,3.133h-10.446a3.133,3.133,0,0,1-3.133-3.133h0V143.572H1335.96a3.134,3.134,0,0,1-3.133-3.134h0v-9.4a3.134,3.134,0,0,1,3.133-3.134h69.986a3.134,3.134,0,0,1,3.134,3.134h0v9.4a3.134,3.134,0,0,1-3.134,3.134h-27.158Z"/><path class="cls-2" d="M1481.155,210.424a34.465,34.465,0,0,0,14.624-3.134l10.445-7.312h4.179l6.267,7.312a3.135,3.135,0,0,1,0,4.179,48.05,48.05,0,0,1-35.515,14.623,50.139,50.139,0,0,1-36.56-14.623,48.053,48.053,0,0,1-14.624-35.516,48.053,48.053,0,0,1,14.624-36.559A51.185,51.185,0,0,1,1482.2,124.77a49.091,49.091,0,0,1,35.515,14.624,3.133,3.133,0,0,1,0,4.178l-6.268,7.312a3.133,3.133,0,0,1-4.178,0l-11.49-7.312-14.624-3.134a34.476,34.476,0,0,0-25.07,9.4,32.383,32.383,0,0,0-10.445,24.025,33.43,33.43,0,0,0,10.445,25.07A32.381,32.381,0,0,0,1481.155,210.424Z"/><path class="cls-2" d="M1549.052,222.959V131.037a3.134,3.134,0,0,1,3.133-3.134h10.446a3.134,3.134,0,0,1,3.134,3.134h0v39.694h48.05V131.037a3.134,3.134,0,0,1,3.133-3.134h10.446a3.134,3.134,0,0,1,3.134,3.134h0v90.877a3.134,3.134,0,0,1-3.134,3.134h-10.446a3.134,3.134,0,0,1-3.133-3.134h0V186.4h-48.05v36.56a3.134,3.134,0,0,1-3.134,3.133h-10.446a3.133,3.133,0,0,1-3.133-3.133Z"/></g></svg>