<svg id="Layer_1" data-name="Layer 1" xmlns="http://www.w3.org/2000/svg" viewBox="0 0 1641.8 351"><defs><style>.cls-1{fill:#fff;}</style></defs><title>Rockstar</title><g id="layer1"><g id="g2996"><path id="path2998" class="cls-1" d="M721.346,349.124a108.321,108.321,0,0,1-24.7-4.388H646.349c-1.01-.716-2.751-.119-4.05-.315H505.744c.009,1.353-2.393.294-3.4.629H403.721c-7.845-2.229-15.717-4.372-23.394-7.141-2.409-.85-4.994-1.362-6.894-3.193l-12.446-9.125q-.041-29.369-.08-58.736l-79.422-35.137L281.406,33.8c31.481.055,62.969.02,94.446.13A75.468,75.468,0,0,1,421.433,57.1c1.869,2.379,3.88,4.658,6.14,1.316a110.5,110.5,0,0,1,62.556-24.272c4.6-.364,9.242-.21,13.853-.151,26.884,2.1,52.324,14,73.2,30.725,1.383,1.118,2.739,2.269,4.105,3.407,14.262-13.86,31.291-25.457,50.737-30.491a113.322,113.322,0,0,1,31.921-3.723,102.981,102.981,0,0,1,41.4,9.57c2.335.992,4.524,2.29,6.792,3.423V33.809l62.661.08L787.634,60.51l24.029-26.7h81.694c-.079.75,2.3-.164,3.241.117a85.829,85.829,0,0,1,13.715.6,81.422,81.422,0,0,1,10.419,2.246c.26-1.1-.781-3.511,1.134-2.962h170.146q.042,6.072.083,12.143l35.4-44.259c10.758,25.066,21.2,50.3,31.826,75.437l41.868-43.311c25.683.051,51.372.018,77.051.122,19.119,2.343,36.94,12.349,49.85,26.5,10.591,12.535,14.949,29.179,15.808,45.276a79.626,79.626,0,0,1-5.741,34.317,73.755,73.755,0,0,1-16.884,24c-1.236.951-2.092,1.933-.57,3.115,7.72,10.842,15.179,21.884,23.29,32.437,5.529,6.628,11.177,13.154,16.782,19.716q-35.569,21.043-71.282,41.895c-2.712,1.351-5.217,3.546-8.388,3.537-11.014.208-22.046.119-33.068.213-3.849,4.445-7.79,8.814-11.532,13.35,9.813,12.524,19.907,24.881,29.546,37.508l-23.615,29.232-118.561.019c-1.143-.7-2.813-.13-4.17-.316l-246.276-.077L868.705,334.1c-2.586.651-5.376,1.177-6.068,4.231q-1.782,3.165-3.568,6.327l-88.526.079c.532-4-4.924.484-7.3.351a126.314,126.314,0,0,1-35.663,4.184c-2.078-.02-4.157.044-6.229-.147Zm16.687-12.337c14.716-1.025,29.608-4.447,42.3-12.2,1.385-.027,3.119-.4,2.484,1.588v6.284h69.035c2.955-5.146,4.99-10.985,9.077-15.388,1.481-1.361,3.623-.514,5.443-.744l8.531.008c2.057,2.009,2.511,5.155,3.6,7.729.953,2.81,1.556,5.744,2.931,8.4,23.959-.019,47.922.037,71.878-.028,5.33-.372,9.868-3.68,14.252-6.427.133,2.148.057,4.3.077,6.455h42.821v-4.483c1.594,1.442,3.013,3.308,4.718,4.483h112.083c.048-1.4-.171-3.592,1.092-1.365.742,1.222,1.659,2.079,3.175,1.677q35.892,0,71.785,0v-4.1l3.7,4.1,29.5,0c4.635-5.713,9.24-11.452,13.9-17.142-9.96-12.592-20-25.123-29.866-37.787,7.225-8.489,14.625-16.828,21.944-25.236l37.408-.045c20.346-11.613,40.332-23.855,60.71-35.41,3.668-.815-.824-3.441-1.6-5.219-12.407-15.829-24.15-32.172-35.932-48.469,1.5-1.59,3.8-2.884,5.477-4.494,12.3-10.086,21.018-24.784,22.607-40.735a75.677,75.677,0,0,0-5.336-38.67,43.355,43.355,0,0,0-10.523-14.683c-10.522-9.751-23.851-17.037-38.239-18.712H1206.4l-50.729,52.425c-1.312.181-1.2-2.17-1.92-3.046-9.821-23.29-19.553-46.618-29.484-69.861-1.191.96-2.242,2.728-3.379,4L1079.815,81.02q-.039-17.466-.08-34.93H933.169V57.453c-8.5-7.479-19.8-11.018-30.985-11.249a64.313,64.313,0,0,0-33.117,7.4c-1.019-.588,2.674-5.253,3.5-7.516H817.145L784.506,82.349c-5.863-12.068-11.651-24.173-17.476-36.259H724.575l-.081,24.246a123.519,123.519,0,0,0-12.434-9.115,99.672,99.672,0,0,0-10.85-6.065A94.436,94.436,0,0,0,688.6,50.225a99.08,99.08,0,0,0-11.27-2.733,100.375,100.375,0,0,0-41.014,1.739c-16.1,4-30.493,13.066-42.668,24.151-4.273,3.717-8.089,7.92-12.148,11.865C563.072,66.523,539.34,52.4,513.358,47.524a94.346,94.346,0,0,0-30.826-.21A99.056,99.056,0,0,0,430.909,71.7c-2.726,2.257-5.038,4.964-7.715,7.276a79.242,79.242,0,0,0-12.231-14.813,65.6,65.6,0,0,0-20.909-13.772,55.518,55.518,0,0,0-23.874-4.3H293.685l.079,177.605,69.558,30.833h9.866l0,64.782,18.337,13.457,101.937,0v-4.136c1.307,1.106,2.432,2.664,3.846,3.506H645.375c.308-.762-.518-3.835.638-2.868a45.576,45.576,0,0,0,4.558,3.169l40.942.014c.329-.926-.827-4.18.949-2.911,12.136,6.259,26.113,7.622,39.574,7.456a51.53,51.53,0,0,0,6-.214Zm-13.539-4.276c-11.278-.545-22.928-2.488-32.639-8.551-1.6-.066-5.055-5.631-4.75-2.459v6.389l-35.5-.015-10.548-7.637-.084,7.338-142.233-.017-9.6-9.27-.084,10.074H393.06l-15.385-11.284-.08-66.959c-4.492-.063-9.036.123-13.5-.092l-66.007-29.26V50.5c24.182.033,48.368-.063,72.546.051,13.965.673,27.263,7.307,37.285,16.873A82.159,82.159,0,0,1,422.4,86.206c6.021-6,11.886-12.221,18.869-17.149A92.265,92.265,0,0,1,480.4,52.208a102.075,102.075,0,0,1,19.545-1.581c19.752.494,38.749,8.181,55.227,18.714a131,131,0,0,1,24.448,20.406c.964.773,1.933,2.954,2.885,1.012,10.451-11.194,21.65-22,35.2-29.385a88.067,88.067,0,0,1,38.36-10.608A86.879,86.879,0,0,1,680.8,52.725c18,3.955,34.185,14.079,47.27,26.862,1.463,1.984.752-1.062.913-2.09v-27l35.286.08q9.037,18.735,18.076,37.469c1.266-.158,2.958.678,3.678-.757L819.11,50.517l45.925-.019c-2.358,4.656-5.054,9.142-7.43,13.793,1.056,1.582,2.323,3.322,3.574,1.023,7.575-8.02,18.377-12.435,29.158-14.022,12.5-1.793,26.04-.345,36.609,7.062A34.563,34.563,0,0,1,937.5,69.625l.081-19.127h137.749V93.661c15.9-19.844,31.737-39.735,47.7-59.524,9.777,22.914,19.372,45.907,29.05,68.864,1.828-.082,3.84.282,5.554-.077L1208.388,50.5c22.02.031,44.043-.055,66.061.05,11.649.371,22.591,5.776,31.838,12.557,6.253,4.608,11.99,10.3,15.158,17.5,3.954,8.3,5.586,17.6,5.787,26.745-.043,5.35-.1,10.722-1.439,15.947-3.1,15.477-13.687,28.445-26.5,37.19-4.348,1.465-.462,4.4.971,6.639,11.4,15.443,22.638,31.009,34.481,46.113,2.672,2.59-4.18,3.545-5.729,5.4q-25.084,14.79-50.2,29.515H1240.5L1214.671,277.7q15.031,18.942,30.051,37.894l-10.31,12.756-25.355.016-10.067-11.07q-.041,5.535-.082,11.07h-67.022l-9.092-11.1-.083,10.622H1016.687l-10.628-10.624V327.89h-34V316.858c-5.13,4.351-10.431,9.017-16.993,10.954l-70.775.067c-2.552-4.8-4.481-9.982-7.712-14.374a3.438,3.438,0,0,0-3.435-1.645c-3.837-.1-7.682.052-11.523.051-4.623,3.033-7.321,8.162-10.316,12.664-1.124,1.088-1.236,3.921-3.324,3.309l-60.588.006v-7.871c-2.812.086-5.727-.17-8.477.124-9.272,6.125-20.171,9.307-31.043,11.109a118.42,118.42,0,0,1-23.374,1.259Zm7.636-19.98c14.062-.952,27.429-9.966,33.071-22.96,2.41-5.316,3.173-11.164,3.454-16.939H716.544V284.6h36.212a26.574,26.574,0,0,1-14.3,13.773,34.512,34.512,0,0,1-10.257,2.153V312.9C729.507,312.783,730.818,312.655,732.13,312.531Zm-7.752-6-.041-6.246c-5.24-.854-10.441-2.744-14.432-6.336a25.244,25.244,0,0,1-9.37-19.251,24.662,24.662,0,0,1,5.4-16.411,27.989,27.989,0,0,1,16.406-9.894c2.124.215,2.221-1.212,2.01-2.908l.066-10.032c-7.448.9-14.887,3.063-20.981,7.6-8.19,5.955-14.471,14.937-15.919,25.084-.6,3.234-.224,6.568-.283,9.84a37.292,37.292,0,0,0,7.412,18.993,39.266,39.266,0,0,0,24.1,14.973c1.739-.226,6.372,2.514,5.659-.749Q724.394,308.861,724.378,306.531ZM401.525,274.049V236.738H388.3V311.36h13.224Zm31.014,31.171v-6.139H405.3V311.36h27.235Zm39.515-31.171V236.738H459.145V311.36h12.909Zm48.489,0V236.738H507.477q-.039,26.823-.08,53.645c-10.476-16.047-20.854-32.158-31.446-48.128a57.512,57.512,0,0,0-.118,5.89v16.164l31.407,47.049q6.651,0,13.3,0Zm38.413,0V236.738H545.732V311.36h13.224ZM589.97,305.22v-6.139H562.734V311.36H589.97Zm39.515-31.171V236.738H616.576V311.36h12.909Zm42.506,37.219c-6.017-9.243-12.335-18.3-18.283-27.583a21.83,21.83,0,0,0,13.8-12.309,24.589,24.589,0,0,0,2.048-10.295,24.214,24.214,0,0,0-14.036-21.543c-5.322-2.476-11.31-2.721-17.1-2.744l-5.156-.107v12.646c5.463.163,11.185-.453,16.372,1.546a11.788,11.788,0,0,1,6.177,8.9c.084,2.387.221,4.923-1.206,6.984-2.324,4.051-7.265,5.927-11.775,5.635l-12.235.152,25.731,38.8c5.22-.061,10.447.127,15.664-.09Zm138.7-13.521c.067-4.6-.134-9.258.1-13.818,1.125-1.21-.215-2.382-.7-3.567l-22.833-43.545-15.012-.082c8.414,15.755,17.028,31.412,25.538,47.12v27.5h12.91Zm105.006-23.7V236.738H902.785V311.36h12.909ZM931.358,311.2c8.25-.2,16.643-2.5,23.051-7.9A34.958,34.958,0,0,0,965.1,288.947a39.874,39.874,0,0,0,2.741-16.561,37.054,37.054,0,0,0-10.359-24.539c-5.685-6.23-13.867-9.781-22.21-10.559-5.238-.662-10.531-.413-15.8-.6v12.488c6.436.074,13.028-.329,19.29,1.384a23.154,23.154,0,0,1,6.812,3.62,23.758,23.758,0,0,1,6.607,9.046,30.6,30.6,0,0,1-.429,23.421c-3.2,7.249-10.817,11.35-18.416,12.229-4.6.557-9.241.31-13.864.362v12.122C923.433,311.3,927.406,311.5,931.358,311.2Zm63.366-37.153V236.738H981.815V311.36h12.909Zm42.419,36.878q-9.078-13.6-18.18-27.177a21.824,21.824,0,0,0,12.081-9.112,22.235,22.235,0,0,0,3.581-9.669,24.372,24.372,0,0,0-11.05-23.979,27.956,27.956,0,0,0-11.326-3.776c-4.506-.472-9.059-.447-13.589-.476v12.6c4.9.119,9.936-.266,14.72.946,5.172,1.473,8.316,7.062,7.816,12.282-.145,4.857-4.464,8.664-9.045,9.535-2.818.622-5.775.167-8.65.343-2.369.58-10.032-1.527-5.948,2.531q12.018,18.213,24.088,36.39h15.783Q1037.283,311.144,1037.143,310.927Zm33.62-36.878V236.738h-13.224V311.36h13.224Zm32.9,0V236.738h-12.909V311.36h12.909Zm48.489,0V236.738h-13.067v53.726c-10.5-16.075-20.9-32.218-31.526-48.214-.276,1.8-.039,4.122-.118,6.121v15.918l31.408,47.056,13.3.015Zm33.532,0V236.738h-12.909V311.36h12.909Zm45.32,37.051q-15.693-18.976-31.307-38.018c10.684-12.132,21.618-24.043,32.272-36.2-1.225-.334-3.072-.044-4.536-.139l-11.758.01-26.134,29.127c-.157,5.022.079,10.058.116,15.085l25.032,30.4h16.531l-.144-.174-.072-.086ZM432.539,274.049v-6.3H405.3v12.594h27.235Zm157.431,0v-6.3H562.734v12.594H589.97Zm235.019-16.34c3.718-6.992,7.674-13.914,11.2-20.974l-14.654.082c-5.01,9.47-10.135,18.882-15.01,28.422,1.322,3.153,3.182,6.186,4.711,9.293l2.2,4.225C817.439,271.841,821.132,264.716,824.989,257.709ZM766.45,259.72c-2.987-5.677-6.612-11.192-11.676-15.233a38.9,38.9,0,0,0-13.2-7.1c-4.313-1.411-8.878-1.753-13.382-2.052v12.4c3.814.39,7.655.892,11.169,2.5,4.755,2.041,8.559,5.765,11.895,9.639l15.192.007v-.16ZM432.539,243.035v-6.3H405.3v12.6h27.235Zm157.431,0v-6.3H562.734v12.6H589.97Zm302.267-38.472v-9.348a23.779,23.779,0,0,1-12.152-6.191c-6.164-5.777-8.134-14.571-8.236-22.736l-17.711-.081c.052,10.964,2.429,22.284,8.992,31.279,6.624,9.457,17.724,15.23,29.107,16.425Zm-221.481,8.956a71.885,71.885,0,0,0,51.312-30.24,84.149,84.149,0,0,0,6.913-11.56h-20.7c-2.813,3.5-5.5,7.109-8.879,10.095a53.457,53.457,0,0,1-11.32,8.344,55.045,55.045,0,0,1-20.023,6.178v17.417C668.959,213.758,669.857,213.593,670.756,213.519Zm426.381-17.713c8.3-5.99,16.575-12.021,24.922-17.947,16.626,11.875,33.133,23.916,49.7,35.88-4.042-13.377-8.588-26.707-12.888-40.052q-2.973-9.115-5.947-18.232c16.436-12.21,33.222-23.978,49.68-36.16h-61.544c-6.321-19.445-12.55-38.921-18.976-58.331a41.927,41.927,0,0,0-1.645,4.683q-8.73,26.824-17.461,53.649h-61.406c16.373,12.222,33.137,23.951,49.522,36.157-6.262,19.436-12.675,38.852-18.824,58.3,8.315-5.948,16.585-11.96,24.871-17.947Zm-442.973,9.175q-.021-4.308-.041-8.615a52.243,52.243,0,0,1-24.667-9.605,61.393,61.393,0,0,1-13.69-13.637,58.284,58.284,0,0,1-9.511-20.064,69.086,69.086,0,0,1-1.867-22.343,58.482,58.482,0,0,1,6-21.355,64.949,64.949,0,0,1,14.685-18.637A54.283,54.283,0,0,1,654.2,77.684V59.908c-8.923.957-17.872,2.938-25.886,7.095a75.156,75.156,0,0,0-14.709,9.574,91.6,91.6,0,0,0-9.547,9.431A80.4,80.4,0,0,0,595.6,97.866a73.059,73.059,0,0,0-4.875,10.09,74.863,74.863,0,0,0-3.907,13.416,84.042,84.042,0,0,0-1.295,13.1,107.279,107.279,0,0,0,.523,11.753A85.472,85.472,0,0,0,589,160.876a79.123,79.123,0,0,0,5.314,13.085,81.205,81.205,0,0,0,6.954,10.773A84.273,84.273,0,0,0,612.8,196.79a73.176,73.176,0,0,0,16.661,10.524A75.976,75.976,0,0,0,654.2,213.6l-.041-8.615Zm257.081,7.344a40.69,40.69,0,0,0,23.7-17.989c4.795-7.618,6.97-16.638,7.38-25.561.133-5.389.022-10.827-1.554-16.04a31.9,31.9,0,0,0-13.87-18.849,65.923,65.923,0,0,0-18.515-8.327c-2.82-1.934-2.57.3-2.449,2.387v16.821c6.068,3.136,12,7.211,15.472,13.245a19.971,19.971,0,0,1,2.6,10.215c.2,6.894-1.9,14.1-6.513,19.314a24.821,24.821,0,0,1-11.484,7.1l-.081,18.909C907.714,213.2,909.5,212.832,911.245,212.325Zm102.213-66.818V80.567h48.961V62.777h-66.75v147.67h17.789Zm-251.731-9.761V61.2H743.465V210.29h18.262ZM848.786,210.2q-30.126-37.617-60.441-75.08,30.792-36.882,61.541-73.8c-1.8-.276-4.121-.039-6.122-.118H827.887q-26.3,31.611-52.614,63.208l0,25.976c1.4-3,2.75.8,4.062,2.017,15.606,19.3,31.148,38.653,46.833,57.886h22.615V210.2ZM329.58,135.589V61.2h-18.1V209.975h18.1Zm81.266,72.772q-20.421-26.529-40.825-53.07c8.292-1.484,16.68-3.868,23.757-8.621,7.055-4.881,11.511-12.785,14.184-20.778a51.388,51.388,0,0,0,1.813-22.186,51.915,51.915,0,0,0-11.658-26.379,44.576,44.576,0,0,0-14.711-11.094c-11.274-5.188-23.925-4.876-36.065-5.028-1.213.149-3.078-.364-3.908.174V79.622c9.243.055,18.629-.352,27.711,1.641a24.289,24.289,0,0,1,11.4,7.019c6.07,6.05,8.731,14.819,8.346,23.252.314,10.9-7.266,21.244-17.494,24.8a36.9,36.9,0,0,1-14.545,2.076l-21.416.121c17.463,23.871,35.1,47.629,52.655,71.445h22Zm819.394-63.917c.052-24.338-.106-48.677.089-73.014l.12-10.227h-18.313V209.975h18.1V144.444Zm82.494,65.484c-13.951-18.263-28.052-36.412-41.951-54.713,10.588-1.8,21.736-5.2,29.21-13.352a48.386,48.386,0,0,0,10.974-30.008,52.249,52.249,0,0,0-8.726-30.052,46.026,46.026,0,0,0-7.96-8.99c-7.125-6.318-16.42-9.8-25.829-10.739-8.08-1.045-16.235-.711-24.358-.922v18.47c9.19.053,18.514-.342,27.545,1.617,9.372,2.381,16.4,10.607,18.846,19.749a37.536,37.536,0,0,1,1.178,11.611,25.936,25.936,0,0,1-9.221,18.874c-6.184,5.355-14.608,7.29-22.635,6.955l-21.684.152,52.649,71.378c7.321-.006,14.642.045,21.962-.03ZM490,199.584c-.065-2.8.131-5.862-.1-8.5a53.068,53.068,0,0,1-30.5-14.54A59,59,0,0,1,447.965,161.6a61.624,61.624,0,0,1-5.779-39.645,62.31,62.31,0,0,1,4.822-14.516,63.974,63.974,0,0,1,9.415-14.023A53.716,53.716,0,0,1,475.206,79.71,56.947,56.947,0,0,1,490,75.507v-17.3c-8.586.972-17.164,2.958-24.907,6.9a67.716,67.716,0,0,0-10.01,5.92A76.732,76.732,0,0,0,441.825,82.95a71.746,71.746,0,0,0-8.608,11.8,70.9,70.9,0,0,0-5.039,10.214,74.6,74.6,0,0,0-3.972,13.643,83.182,83.182,0,0,0-1.261,14.75,85.632,85.632,0,0,0,2.327,19.027,66.31,66.31,0,0,0,3.634,11.258,72.182,72.182,0,0,0,6.71,12.407,81.81,81.81,0,0,0,9.548,11.487,70.362,70.362,0,0,0,18.215,13.317A68.448,68.448,0,0,0,490,208.086Zm16.963,8.109a69.005,69.005,0,0,0,21.005-6.041A79.271,79.271,0,0,0,539,195.159a89.629,89.629,0,0,0,8.559-7.067,76.975,76.975,0,0,0,11.623-14.126,70.672,70.672,0,0,0,7.057-14.508,77.687,77.687,0,0,0,4.1-19.964,94.888,94.888,0,0,0,.011-13.468,74.946,74.946,0,0,0-2.443-14.238,67.178,67.178,0,0,0-5.2-13.4,71.391,71.391,0,0,0-7.674-11.867,77.554,77.554,0,0,0-7.6-8.359A80.014,80.014,0,0,0,532.493,67.1a67.536,67.536,0,0,0-17.1-6.838,73.58,73.58,0,0,0-11.7-1.9q.041,8.619.082,17.239a54.045,54.045,0,0,1,29.107,13.356,60.4,60.4,0,0,1,13.825,17.693,57.96,57.96,0,0,1,5.731,19.591c.206,3.928.123,7.9.056,11.837a63.89,63.89,0,0,1-5.292,20.47,57.667,57.667,0,0,1-11.622,16.858A52.117,52.117,0,0,1,504.957,191c-1.951-.3-.946,1.958-1.195,3.13q-.033,6.98-.067,13.96C504.788,208.006,505.875,207.818,506.964,207.693Zm385.273-78.059v-9.655c-4.872-1.883-9.768-4.466-12.735-8.928-3.8-5.741-3.7-13.288-1.547-19.622a22.206,22.206,0,0,1,13.77-13.071c.711-.853.364-2.532.479-3.708l.033-14.255c-10.552,1.619-20.54,7.259-26.686,16.1-5.524,7.51-7.693,17-7.333,26.206.017,9.458,3.792,19.143,11.218,25.209,6.529,5.56,14.638,8.927,22.753,11.379C892.3,136.174,892.205,132.826,892.237,129.634Zm-162.024-26.2c-6.044-12.045-14.576-23.065-25.792-30.7a72.788,72.788,0,0,0-36.366-12.793V77.677a53.168,53.168,0,0,1,20.577,6.477A54.685,54.685,0,0,1,697.4,90.37a76.049,76.049,0,0,1,7.343,7.373l4.483,5.787,21.043.022-.054-.118Zm209.094-1.811c-.621-9.835-2.757-20-8.891-27.975C924.7,65.827,915.4,61.4,905.933,60.266v17.6A19.181,19.181,0,0,1,918.58,88.5a35.89,35.89,0,0,1,3.254,13.325h17.474v-.2ZM982.13,71.672V62.777H949.384v17.79H982.13Z"/></g></g></svg>