<?xml version="1.0" encoding="utf-8"?>
<!-- Generator: Adobe Illustrator 19.0.0, SVG Export Plug-In . SVG Version: 6.00 Build 0)  -->
<svg version="1.1" id="Layer_1" xmlns="http://www.w3.org/2000/svg" xmlns:xlink="http://www.w3.org/1999/xlink" x="0px" y="0px"
	 viewBox="-63 306 377.9 86" style="enable-background:new -63 306 377.9 86;" xml:space="preserve">
<style type="text/css">
	.st0{fill:#FFFFFF;}
	.st1{fill:#FDB300;}
	.st2{fill:#D8D8D8;}
	.st3{fill:#E5E5E5;}
	.st4{fill:#F2F2F2;}
</style>
<g transform="translate(47.000000, 48.000000)">
	<path class="st0" d="M18.2,314.9l-0.1-1h-1h-6H10v1.1c0.5,12.2,8.7,20.2,23.3,20.2c13.9,0,23.4-7.2,23.4-18.2c0-5.9-2.1-10.1-6-13
		c-3-2.2-6.6-3.4-12.6-4.7c-0.4-0.1-0.8-0.2-1.3-0.3c-0.3-0.1-1.4-0.3-1.3-0.3c-10.8-2.3-14.3-4.2-14.3-10.1c0-6.1,5-10,13.3-10
		c8.1,0,13.2,5,13.5,12.8v1h1h6h1.1v-1.1c-0.3-12.2-8.4-20.3-21.6-20.3c-12.9,0-21.5,7.8-21.5,17.9c0,5.9,2.1,10,6,12.8
		c3,2.1,6.4,3.2,12.6,4.4c0.3,0.1,0.6,0.1,0.9,0.2c0.2,0,0.5,0.1,0.9,0.2c5.8,1.1,8.3,1.8,10.6,3.2c2.9,1.7,4.3,4.1,4.3,7.8
		c0,6.4-5.4,10.1-14.9,10.1C24.4,327.6,18.8,323,18.2,314.9z M73.8,270v-1h-1.1h-6h-1.1v1v63v1h1.1h6h1.1v-1v-11.2l8.5-8.3
		l15.2,20.1l0.3,0.4h0.5h7.4h2.1l-1.3-1.7L88,308l17.1-17l1.8-1.8h-2.5h-8H96l-0.3,0.3l-21.8,22V270H73.8z M149.1,314.4h1l0.1-1
		c0-0.2,0-0.5,0-0.8s0-0.5,0-0.8s0-0.5,0-0.7c0-13.2-8.7-22.9-21.6-22.9c-12.9,0-22,10.3-22,23.4c0,13.4,8.8,23.5,22.1,23.5
		c10.1,0,17.9-6,20.7-15.1l0.4-1.4h-1.4h-6.2h-0.7l-0.2,0.7c-1.8,5-6.6,8.3-12.5,8.3c-7.7,0-13.1-5.3-14-13.2H149.1z M115,307.4
		c1.4-7.1,6.6-11.8,13.6-11.8c7.3,0,12.3,4.5,13.4,11.8H115z M176.7,296.3h1v-1v-5v-1h-1h-8.8v-11.1v-1h-1h-6h-1.1v1v11.1h-7.1h-1.1
		v1v5v1h1.1h7.1v25.2c0,8.3,4.3,12.7,12.1,12.7c1.4,0,2.6-0.1,3.5-0.2c0.6-0.1,1-0.2,1.3-0.2l0.8-0.2v-0.8v-5.4v-1.3l-1.3,0.3
		c-0.1,0-0.2,0-0.3,0.1c-0.2,0-0.5,0.1-0.8,0.1c-0.8,0.1-1.5,0.2-2.2,0.2c-0.1,0-0.1,0-0.2,0c-3.4,0-4.8-1.6-4.8-5.7v-24.7h8.8
		V296.3z M201.8,335.1c11.2,0,19-7.1,21-17.1l0.2-1.3h-1.3h-6h-0.8l-0.2,0.8c-1.7,6.4-6.3,10.1-12.9,10.1c-8.3,0-14-6.5-14-15.9
		c0-9.5,5.7-16,14-16c6.6,0,11.2,3.7,12.9,10.1l0.2,0.8h0.8h6h1.3l-0.2-1.3c-2-10-9.9-17.1-21-17.1c-13,0-22.1,10.4-22.1,23.5
		C179.6,324.7,188.8,335.1,201.8,335.1z M237.9,270v-1h-1.1h-6h-1v1v63v1h1h6h1.1v-1v-25.3c0-7.7,4.7-12.2,11.8-12.2
		c6.8,0,10.2,3.9,10.2,11.4V333v1h1h6h1v-1v-27.3c0-10.5-6.5-17.5-17.3-17.5c-5.5,0-10,2-12.8,4.9L237.9,270L237.9,270z"/>
	<path class="st1" d="M-89.1,260.8l27-2.8l27,2.8l20.9,27.8L-62.1,344l-47.9-55.3L-89.1,260.8z"/>
	<g transform="translate(0.000000, 30.666295)">
		<polygon class="st2" points="-90.6,258 -62.1,313.3 -110,258 		"/>
		<polygon class="st2" points="-33.6,258 -62.1,313.3 -14.2,258 		"/>
		<polygon class="st3" points="-90.6,258 -33.6,258 -62.1,313.3 		"/>
	</g>
	<polygon class="st4" points="-62.1,258 -89.1,260.8 -90.6,288.7 	"/>
	<polygon class="st4" points="-62.1,258 -35.1,260.8 -33.6,288.7 	"/>
	<polygon class="st3" points="-14.2,288.7 -35.1,260.8 -33.6,288.7 	"/>
	<polygon class="st3" points="-110,288.7 -89.1,260.8 -90.6,288.7 	"/>
	<polygon class="st0" points="-62.1,258 -90.6,288.7 -33.6,288.7 	"/>
</g>
</svg>
