<svg xmlns="http://www.w3.org/2000/svg" xmlns:xlink="http://www.w3.org/1999/xlink" id="Layer_1" x="0" y="0" enable-background="new 0 0 1641.8 351" version="1.1" viewBox="0 0 1641.8 351" xml:space="preserve"><style type="text/css">.st0{display:none}.st1{fill:#fff}.st1,.st2{display:inline}.st3{fill-rule:evenodd;clip-rule:evenodd}.st3,.st4{fill:#fff}</style><g class="st0"><title>Chevron</title><path d="M978.1,177.2c-34.6,11.6-69.3,23.1-104,34.7c-11.3,3.8-22.6,7.6-33.9,11.3c-5.7,1.9-11.4,3.7-17,5.7 c-1.4,0.5-2.6,0.5-3.9,0c-25.4-8.5-50.8-17-76.1-25.4c-25.8-8.6-51.6-17.2-77.5-25.8c-1.2-0.4-1.7-0.9-1.7-2.3 c0-33.7,0.1-67.5,0-101.3c0-1.6,0.4-1.8,1.8-1.3c21.6,7.2,43.2,14.4,64.9,21.6c8.1,2.7,16.2,5.4,24.3,8.1c21.1,7,42.3,14,63.4,21.2 c2.2,0.8,3.9,0.6,6-0.1c19.2-6.5,38.3-12.8,57.5-19.2c17.5-5.8,34.9-11.7,52.4-17.5c14.4-4.8,28.7-9.5,43-14.3 c0.3-0.1,0.5-0.1,0.8-0.2C978.1,107.4,978.1,142.3,978.1,177.2z" class="st1"/><path d="M978.1,299.1c-5.5,1.5-10.8,3.5-16.3,5.3c-24.5,8.2-49,16.3-73.5,24.5c-13.3,4.4-26.5,8.8-39.7,13.3 c-8.4,2.8-16.9,5.6-25.3,8.5c-1.4,0.5-2.7,0.5-4.1,0c-24.5-8.2-49-16.3-73.5-24.5c-26.6-8.9-53.2-17.8-79.9-26.7 c-1.3-0.4-1.7-1.1-1.7-2.4c0-33.6,0-67.3,0-100.9c0-2,0-2,2-1.4c20.4,6.8,40.7,13.6,61.1,20.3c31.1,10.4,62.1,20.7,93.2,31.1 c0.8,0.2,1.4,0.2,2.1-0.1c30.5-10.2,61.1-20.4,91.6-30.6c20.8-6.9,41.5-13.9,62.3-20.8c0.6-0.2,1.2-0.5,1.8-0.4 C978.1,229.3,978.1,264.1,978.1,299.1z" class="st1"/><path d="M700.7,0c2.3,0.5,4.7,0.9,6.9,1.8c1.1,0.5,1.5,1.1,1.3,2.3c-0.6,3.2-1.2,6.4-1.7,9.6c-0.2,1.1-0.5,1.3-1.6,0.9 c-4.4-1.8-8.9-2.2-13.6-1.2c-7.9,1.8-12.3,7.8-12.8,15.8c-0.2,3.4,0,6.7,1.2,10c2.3,6.4,8.1,10.4,15.1,10.6 c3.6,0.1,7.1-0.3,10.3-1.8c1-0.5,1.3-0.1,1.5,0.8c0.6,3.3,1.2,6.6,1.8,9.9c0.1,0.8,0.2,1.4-0.8,1.8c-10.6,3.8-27.5,3.4-37.1-7.5 c-3.9-4.5-6.2-9.8-7.1-15.7c-0.1-0.3,0.1-0.7-0.3-0.9c0-3.1,0-6.2,0-9.3c0.1-0.3,0.2-0.5,0.3-0.8c1.7-12.6,8.7-20.9,20.8-24.8 c2.1-0.7,4.3-1,6.4-1.5C694.3,0,697.5,0,700.7,0z" class="st1"/><path d="M978.1,60.8c-3.9,0-7.8,0-11.7,0c-1.2,0-1.5-0.4-1.5-1.5c0-7,0-14.1,0-21.1c0-2,0-4-0.5-5.9 c-0.9-3.5-3-5.3-6.1-5.4c-3,0-6,2.2-6.9,5.3c-0.3,1-0.4,2-0.4,3.1c0,8,0,15.9,0,23.9c0,1.4-0.2,1.9-1.8,1.9c-3.3-0.1-6.6-0.1-10,0 c-1.5,0-2-0.3-1.9-1.9c0.1-7,0-14,0-20.9c0-6.7,0-13.4-0.5-20.1c-0.1-1.1,0.2-1.4,1.3-1.4c3.4,0,6.9,0,10.3,0 c0.9,0,1.2,0.3,1.2,1.2c0.1,1.6,0.2,3.2,0.3,5c1.5-1.9,2.9-3.5,4.7-4.7c7.6-5.2,20.4-3.9,23,9.2c0.1,0.3,0,0.7,0.3,0.9 C978.1,39.1,978.1,49.9,978.1,60.8z" class="st1"/><path d="M728.7,21.3c4.5-5,9.7-6.7,15.9-5.9c5.1,0.7,9.4,5,10.8,11.1c0.7,2.9,0.9,5.9,0.9,8.8c0.1,7.9,0,15.8,0.1,23.7 c0,1.4-0.4,1.9-1.9,1.8c-3.4-0.1-6.9-0.1-10.3,0c-1.3,0-1.6-0.4-1.6-1.6c0-7.8,0-15.7,0-23.5c0-1.2-0.2-2.4-0.5-3.5 c-0.9-3.5-3.4-5.5-6.6-5.3c-3.4,0.2-6.1,2.7-6.6,6.1c-0.1,1-0.2,2.1-0.2,3.1c0,7.6-0.1,15.2,0,22.8c0,1.6-0.5,2-2,2 c-3.4-0.1-6.8-0.1-10.1,0c-1.1,0-1.5-0.2-1.5-1.4c0-17.8,0-35.6,0-53.4c0-0.9,0.2-1.4,1.2-1.7c3.6-1.2,7.2-2.4,10.8-3.7 c1.4-0.5,1.6-0.1,1.6,1.2c0,5.8,0,11.7,0,17.5C728.7,19.9,728.7,20.4,728.7,21.3z" class="st1"/><path d="M801.6,48.6c0.6,3.3,1.2,6.4,1.8,9.5c0.2,0.9-0.2,1.1-0.8,1.4c-3.5,1.6-7.2,2.6-11,2.9 c-7.4,0.6-14.6,0.3-20.9-4.4c-4.9-3.6-7.3-8.7-8.2-14.5c-0.9-5.2-0.6-10.4,1.5-15.3c3.2-7.7,9.1-11.8,17.2-13.1 c4.2-0.6,8.3-0.4,12.3,1.2c6.6,2.7,9.9,8.1,11.5,14.7c0.8,3.4,0.8,6.9,0.7,10.4c0,1.4-0.5,1.9-2.1,1.9c-8.5-0.1-17,0-25.5-0.1 c-1.6,0-1.8,0.5-1.4,1.9c1.2,3.6,4.7,6.1,9.3,6.4C791.7,51.9,793.4,51.6,801.6,48.6z M784.3,33.4c2.3,0,4.6,0,6.9,0 c0.4,0,1.1,0.3,1.1-0.6c0.2-2.6-2.1-6.5-4.6-7.5c-5-2.2-11.4,2.1-11.4,7.5c0,0.8,0.5,0.6,0.9,0.6C779.6,33.4,782,33.4,784.3,33.4z" class="st1"/><path d="M908.7,62.5c-13.5,0.2-22.3-9.2-22.7-22.6c-0.1-4.1,0.3-8.1,1.8-11.9c3.5-8.5,10.2-12.6,19.1-13.2 c6.9-0.4,13.2,1.1,18.2,6.2c3.9,3.9,5.6,8.7,6.2,14.1c0.5,4.7,0.1,9.3-1.5,13.8C927.1,56.8,919.6,62.8,908.7,62.5z M900.2,38.7 c-0.1,2.8,0.2,5.6,1.4,8.2c1.3,3.1,3.5,4.9,7.1,5c3.6,0.1,6-1.6,7.3-4.8c2.3-5.6,2.3-11.3,0-16.8c-1.3-3.1-3.7-4.8-7.2-4.8 c-3.5,0-5.8,1.9-7.1,4.9C900.4,33,900.1,35.8,900.2,38.7z" class="st1"/><path d="M829.7,47.8c2.2-8.3,4.2-16.4,6.3-24.4c0.5-1.8,1-3.6,1.4-5.5c0.2-0.9,0.6-1.4,1.7-1.4c4.1,0.1,8.1,0.1,12.2,0 c1.3,0,1.4,0.4,1,1.5c-4.7,13.8-9.3,27.6-13.9,41.4c-0.3,0.9-0.7,1.3-1.8,1.3c-4.6-0.1-9.2-0.1-13.7,0c-1,0-1.5-0.3-1.9-1.3 c-4.6-13.9-9.3-27.7-14-41.5c-0.4-1.1-0.2-1.4,1-1.4c4.1,0,8.2,0.1,12.4,0c1.1,0,1.4,0.5,1.6,1.3c2.4,9.4,4.8,18.7,7.2,28.1 C829.3,46.5,829.4,47,829.7,47.8z" class="st1"/><path d="M869.1,24.7c0.6-1.2,1-2.1,1.5-3c2.9-5.3,8-6.8,13.2-6c0.7,0.1,0.9,0.4,0.9,1c0,3.7,0,7.4,0,11.2 c0,1.1-0.7,1-1.4,0.9c-1.8-0.3-3.6-0.4-5.4,0c-4.5,1-7.8,4.8-7.9,9.4c-0.1,6.9-0.1,13.8-0.1,20.7c0,1.5-0.4,2-1.9,1.9 c-3.3-0.1-6.5-0.1-9.8,0c-1.5,0-2-0.3-2-2c0.1-11.6,0-23.2,0-34.8c0-2.1-0.2-4.1-0.3-6.1c-0.1-0.9,0.1-1.4,1.2-1.3 c3.5,0.1,7,0,10.5,0c0.9,0,1.1,0.4,1.2,1.2C868.7,20,868.9,22.2,869.1,24.7z" class="st1"/></g><g class="st0"><path d="M641.2,98.8v-6.6l-2.8-1.9H524.8l-1.9,1.9v6.6l1.9,1.9H573l1.9,1.9v138.2l1.9,1.9h8.5l1.9-1.9V103.5l1.9-1.9 h49.2L641.2,98.8L641.2,98.8z M666.8,132c-30.3,0-48.3,21.8-48.3,53v4.8c0,30.3,15.2,56.8,50.2,56.8c30.3,0,41.7-19.9,43.6-33.1 l-1.9-1.9h-8.6l-1.9,1.9c-4.7,13.3-13.3,21.8-30.3,21.8c-28.4,0-36.9-26.5-36.9-39.8l1.9-1.9h78.6l1.9-1.9V185 C715.1,153.7,698,132,666.8,132L666.8,132z M666.8,143.3c13.3,0,22,5.4,27.4,12.8c5.4,7.3,7.6,16.6,7.6,24.1l-1.9,1.9h-66.3 l-1.9-1.9c0-7.6,2.1-16.8,7.6-24.1C644.8,148.8,653.5,143.3,666.8,143.3L666.8,143.3z M736.8,188.8c0-30.3,15.1-46.4,36.9-46.4 c21.8,0,30.3,13.3,33.1,26.5l1.9,1.9h9.5l1.9-1.9c-1.9-21.8-19.9-36.9-46.4-36.9c-28.4,0-50.2,18-50.2,56.8 c0,39.8,21.8,56.8,50.2,56.8c26.5,0,43.6-15.2,46.4-36.9l-1.9-1.9h-8.5l-1.9,1.9c-1.9,13.3-11.4,26.5-33.1,26.5 C752.9,235.2,736.8,220,736.8,188.8L736.8,188.8z M926.2,241.8v-66.3c0-28.4-15.1-43.6-39.8-43.6c-15.1,0-28.4,6.6-35,18h-1.9V93.1 l-2.8-2.8h-8.5l-1.9,1.9v149.6l1.9,1.9h8.5l1.9-1.9v-59.6c0-24.6,11.4-39.8,35-39.8c18,0,28.4,11.4,28.4,33.1v66.3l1.9,1.9h8.5 L926.2,241.8L926.2,241.8z M1037.9,241.8v-66.3c0-28.4-15.1-43.6-39.8-43.6c-15.1,0-28.4,6.6-35,18h-1.9l-1.9-13.3l-1.9-1.9h-6.6 l-1.9,1.9v105.1l1.9,1.9h8.5l1.9-1.9v-59.6c0-24.6,11.4-39.8,35-39.8c18,0,28.4,11.4,28.4,33.1v66.3l1.9,1.9h9.5L1037.9,241.8 L1037.9,241.8z M1101.4,132.9c-28.4,0-50.2,19.9-50.2,56.8c0,36.9,21.8,56.8,50.2,56.8c28.4,0,50.2-19.9,50.2-56.8 C1151.6,152.8,1129.8,132.9,1101.4,132.9z M1101.4,143.3c10.9,0,20.1,4.5,26.6,12.6c6.5,8,10.3,19.6,10.3,33.8 c0,14.2-3.8,25.8-10.3,33.8c-6.5,8-15.7,12.5-26.6,12.5c-10.9,0-20.1-4.5-26.6-12.5c-6.5-8-10.3-19.6-10.3-33.8 c0-14.7,3.8-26.3,10.3-34.2C1081.3,147.6,1090.5,143.3,1101.4,143.3L1101.4,143.3z M1180.9,241.8V92.2l-2.8-1.9h-8.5l-1.9,1.9 v149.6l1.9,1.9h8.5L1180.9,241.8z M1246.3,132.9c-28.4,0-50.2,19.9-50.2,56.8c0,36.9,21.8,56.8,50.2,56.8 c28.4,0,50.1-19.9,50.1-56.8C1296.4,152.8,1274.7,132.9,1246.3,132.9z M1246.3,143.3c10.9,0,20.1,4.5,26.6,12.6 c6.5,8,10.3,19.6,10.3,33.8c0,14.2-3.8,25.8-10.3,33.8c-6.5,8-15.7,12.5-26.6,12.5c-10.9,0-20.1-4.5-26.6-12.5 c-6.5-8-10.4-19.6-10.4-33.9c0-14.7,3.8-26.3,10.3-34.2C1226.1,147.6,1235.3,143.3,1246.3,143.3L1246.3,143.3z M1354.2,132 c-30.3,0-46.4,24.6-46.4,56.8c0,33.1,15.2,56.8,46.4,56.8c19.9,0,30.3-8.5,35-18v0.9c0,28.4-6.6,50.2-33.1,50.2 c-19.9,0-26.5-8.5-28.4-19.9l-1.9-1.9h-8.5l-1.9,1.9c1.9,18,15.2,30.3,41.7,30.3c28.4,0,46.4-18,46.4-61.5v-90.9l-1.9-1.9h-6.6 l-1.9,1.9l-1.9,13.3h-1.9C1384.5,141.4,1374.1,132,1354.2,132L1354.2,132z M1354.2,142.4c10.9,0,19.7,3.8,25.7,11.4 c6,7.7,9.4,19.3,9.4,34.9c0,15.6-3.3,27.2-9.4,34.9c-6,7.7-14.8,11.5-25.7,11.5c-10.9,0-19.7-3.8-25.7-11.5 c-6-7.7-9.3-19.3-9.3-34.9c0-15.1,3.3-26.7,9.3-34.6C1334.5,146.4,1343.3,142.4,1354.2,142.4L1354.2,142.4z M1437.5,114.9v-13.3 l-1.9-1.9h-8.5l-2.8,1.9v13.3l1.9,1.9h8.5C1434.7,116.8,1437.5,114.9,1437.5,114.9z M1437.5,241.8V136.7l-1.9-1.9h-8.5l-2.8,1.9 v105.1l1.9,1.9h8.5C1434.7,243.7,1437.5,241.8,1437.5,241.8z M1500.9,132c-30.3,0-48.3,21.8-48.3,53v4.8 c0,30.3,15.2,56.8,50.2,56.8c30.3,0,41.7-19.9,43.6-33.1l-1.9-1.9h-8.5l-1.9,1.9c-4.7,13.3-13.2,21.8-30.3,21.8 c-28.4,0-36.9-26.5-36.9-39.8l1.9-1.9h78.6l1.9-1.9V185C1549.2,154.7,1531.2,132,1500.9,132L1500.9,132z M1500.9,143.3 c13.3,0,22,5.4,27.5,12.8c5.4,7.3,7.6,16.6,7.6,24.1l-1.9,1.9h-66.3l-1.9-1.9c0-7.6,2.1-16.8,7.6-24.1 C1478.9,148.8,1487.7,143.3,1500.9,143.3L1500.9,143.3z M1642,215.3c0-19.9-11.4-28.4-33.1-33.1c-21.8-4.7-35-6.6-35-21.8 c0-11.4,8.5-18,24.6-18c19.9,0,26.5,8.5,26.5,19.9l1.9,1.9h8.5l1.9-1.9c0-21.8-18-30.3-39.8-30.3c-24.6,0-36.9,13.3-36.9,28.4 c0,18,13.3,26.5,35,30.3c21.8,4.7,33.1,6.6,33.1,24.6c0,11.4-6.6,19.9-28.4,19.9c-19.9,0-28.4-11.4-28.4-24.6l-1.9-1.9h-8.5 l-1.9,1.9c0,19.9,15.1,35,41.7,35C1628.7,246.5,1642,233.3,1642,215.3L1642,215.3z" class="st1"/><path d="M521.9,211.4v31.3h-98.5V88.2h35.8v123.1L521.9,211.4L521.9,211.4z M224.1,79.3l-87.3,67.2 c-9-33.6-38.1-58.3-73.9-58.3H0.2v154.5h62.7c35.8,0,67.2-24.6,73.9-58.2l87.3,67.2l87.3-67.2v58.2h98.5v-31.4H345V88.2h-35.9v58.2 l-82.8,67.2L208.5,198l40.3-31.4l42.5-33.6l-24.6-20.1l-82.8,64.9l-17.9-15.7l82.8-62.7L224.1,79.3L224.1,79.3L224.1,79.3z M33.8,119.6h26.9c5.6,0,11.1,1.3,16.1,3.6c5,2.3,9.7,5.7,13.6,9.9c3.9,4.2,7.1,9.2,9.4,14.9c2.2,5.7,3.5,12,3.5,18.7 c0,6.2-1.1,12.2-3.2,17.7c-2.1,5.6-5.1,10.7-8.9,15c-3.8,4.3-8.3,7.9-13.4,10.4c-5.1,2.5-10.9,3.9-17.1,3.9H33.8L33.8,119.6 L33.8,119.6z" class="st1"/></g><g class="st0"><title>google</title><path d="M488.9,124.8c20,0,39.9,0,59.9,0c1.7,0,2.4,0.4,2.6,2.2c3.6,33.6-0.9,65.4-20.4,93.9 c-12.5,18.3-29.6,30.9-49.5,40.1c-19.5,9-40,12.3-61.4,11.4c-63.3-2.7-117.4-49.1-128.1-111.6c-8.6-50.3,7.4-92.7,45.6-126.4 c20.7-18.2,45.2-28.7,72.6-31.7c40.3-4.5,76.2,6.4,107.2,32.6c2.2,1.9,2.2,1.9,0.1,4c-7.6,7.8-15.2,15.6-22.8,23.5 c-1.2,1.3-1.9,1.4-3.3,0.2c-20-17.1-43.2-25.1-69.5-23.8c-42.3,2.1-78,31.1-89.5,72.2c-11.8,42.3,7.1,88.4,45.1,110.4 c17.1,9.9,35.4,14.5,55.1,13.3c22.6-1.4,42.8-9,59.5-24.7c12.6-11.8,19.4-26.7,21.7-43.8c0.6-4.9,0.5-4.9-4.3-4.9 c-16.3,0-32.6-0.1-48.8-0.1c-10.8,0-21.5-0.2-32.3-0.2c-1.6,0-2-0.3-2-2c0.1-10.8,0.1-21.7,0-32.5c0-1.8,0.6-2.1,2.2-2.1 C448.7,124.8,468.8,124.8,488.9,124.8z" class="st1"/><path d="M1074.2,116.6c0.2-3.7,0.4-7.5,0.5-11.3c0-1.5,0.6-1.9,2-1.9c10.7,0.1,21.4,0.1,32.1,0c1.5,0,1.8,0.4,1.8,1.9 c0,53.4,0,106.7,0,160.1c0,19.9-5.1,38.2-16.9,54.3c-7.5,10.3-17.7,18.4-29.4,23.4c-6.2,2.7-13,3.7-19.7,4.9 c-14.3,2.4-28.5,1.9-42.4-2.2c-20.2-6-34.9-19-45.5-36.9c-1.5-2.6-2.8-5.4-4.3-8c-0.7-1.2-0.4-1.7,0.8-2.2 c10.1-4.3,20.1-8.7,30.1-13.1c1.3-0.6,1.5,0.2,1.9,1c4.7,9.1,10.7,17.1,19.3,23c7.3,5,15.4,7,24.3,6.3c5.9-0.5,11.8-1,17.5-3 c14.9-5.5,23.4-16.6,27-31.6c2.2-8.9,2.2-17.9,1.7-27c0-0.5,0.1-1.3-0.5-1.4c-0.6-0.1-1,0.5-1.4,0.8c-8.5,7.1-17.9,12.6-28.6,15.7 c-16.3,4.6-32.1,2.7-47.4-4.1c-30.8-13.6-47.2-38.3-52.9-70.6c-2.7-15.2,0.5-30,7.1-44c9.5-20.3,24.1-35.9,44.3-45.8 c25.4-12.5,49.3-9.1,71.9,7.1c2.2,1.6,4.3,3.2,6.4,4.9C1073.9,116.7,1074,116.6,1074.2,116.6z M983.1,183.7 c0.1,13.6,3.5,25,10.9,35.1c16.4,22.5,46.6,25.8,66.7,7.3c22.1-20.4,23.4-57.6,2.7-79.5c-17-18-42.9-19.7-61.5-3.8 C989.1,153.8,983.5,168.2,983.1,183.7z" class="st1"/><path d="M739.6,185.1c-0.1,48.5-39.6,87.6-88.3,87.4c-48.2-0.1-87.3-39.7-87.1-88.1c0.2-48.4,39.6-87.4,88-87.3 S739.8,136.7,739.6,185.1z M701.5,188.7c0-14.7-3.2-25.3-9.3-34.3c-17.8-26.5-53.7-29.6-75.2-6.5c-19.9,21.3-19.2,55.8,1.5,76.2 c16.7,16.5,41.7,18.8,60.7,5.2C694.4,218.5,701.1,203.4,701.5,188.7L701.5,188.7z" class="st1"/><path d="M753.9,184.9c0-48.4,39.4-87.8,87.8-87.8c48.4,0,87.7,39.3,87.7,87.7c0,48.4-39.3,87.7-87.8,87.7 C793.2,272.5,753.9,233.3,753.9,184.9z M792.3,181.6c0,14.9,3.2,25.4,9.4,34.6c17,25.3,51,29.2,72.9,8.5 c20.6-19.5,22.3-53.6,3.7-75.1c-16.1-18.7-41.8-22.9-61.9-9.8C800.2,150.5,792.9,166.1,792.3,181.6L792.3,181.6z" class="st1"/><path d="M1280.3,271.1c-44.8,0-80.5-30.5-87.6-72.5c-7.2-42.9,18.2-84.9,59.8-97.2c27.1-8.1,57.2-1.6,78.1,24 c8.8,10.8,14.9,23.1,19.7,36.1c0.5,1.5-0.5,1.5-1.2,1.8c-9.2,3.9-18.3,7.8-27.5,11.7c-28.1,11.8-56.3,23.6-84.5,35.4 c-1.6,0.7-1.7,1.2-1,2.7c8.7,17.6,25.8,26.7,45.2,24.2c13-1.6,24.4-6.5,33.3-16.4c1.8-1.9,3.3-4.1,4.6-6.3c0.5-0.8,0.8-1.3,1.8-0.6 c8.8,6,17.7,11.9,26.7,17.8c1.5,1,0.5,1.6,0,2.3c-10,14.2-23,24.6-39.2,31C1298.6,269.2,1288.2,271.1,1280.3,271.1z M1228.8,182.5 c0.9-0.4,1.6-0.6,2.3-0.9l15.1-6.3c19.7-8.3,39.4-16.5,59.1-24.7c1.6-0.7,1.7-1.2,0.8-2.5c-2.6-3.9-5.9-7.3-9.7-10 c-9.3-6.4-19.5-7.4-30.3-5.2c-15.9,3.2-27.8,11.4-33.5,27.2C1229.8,167.2,1228.6,174.8,1228.8,182.5z" class="st1"/><path d="M1136.7,138.3c0-41.8,0-83.5-0.1-125.3c0-2,0.4-2.6,2.5-2.5c11.3,0.1,22.5,0.1,33.8,0c1.5,0,2,0.3,2,2 c0,84,0,168,0,252c0,1.5-0.4,1.9-1.9,1.9c-11.4-0.1-22.8-0.1-34.2,0c-2.1,0-2.2-0.7-2.2-2.4C1136.8,222,1136.8,180.1,1136.7,138.3z" class="st1"/></g><g class="st0"><title>logo_standard</title><desc>Created with Sketch.</desc><g id="Page-1_1_" class="st2"><g id="logos_1_" transform="translate(-112.000000, -79.000000)"><path id="logo_standard_1_" d="M686.5,86.2h74.8V287c0,31.8,14.5,50.7,26,58.8c-12.2,10.8-49.4,20.3-77.1-2.7 c-16.3-13.6-23.8-35.8-23.8-56.8V86.2z M1154.2,253v-21.1h22.8v-74H1152c-9.6-44.5-49.2-77.8-96.5-77.8 c-54.5,0-98.7,44.2-98.7,98.7v172.9c15.5,2.2,34-0.3,49.8-13.3c16.3-13.6,23.8-35.8,23.8-56.8v-6.4h37.4v-74h-37.4v-22.4h0.1 c0-13.8,11.2-25.1,25.1-25.1c13.8,0,25.1,11.2,25.1,25.1V253c0,54.5,44.2,98.7,98.8,98.7v-73.7 C1165.5,278.1,1154.2,266.9,1154.2,253z M870.8,157.9v108.7c0,6.2-5.1,11.2-11.4,11.2s-11.4-5-11.4-11.2V157.9h-74.1v127.8 c0,23,7.8,52.1,43.3,61.5c35.5,9.5,56.1-10.1,56.1-10.1c-1.9,12.9-14.1,22.4-33.7,24.4c-14.8,1.5-33.8-3.4-43.3-7.4v67.7 c24.1,7.1,49.6,9.4,74.6,4.6c45.3-8.8,73.9-46.7,73.9-97V157.9H870.8z" class="st3"/></g></g></g><g class="st0"><title>twilio</title><path d="M239.8,157.7c3-4.8,2.4-10.4,3.5-15.6C261.7,55.1,335.1-2,423.9,1.8c81.2,3.4,152,68.5,162.1,149.1 c11.8,93.9-47.2,176.4-139.4,195.1c-5.9,1.2-12.2,0.7-17.9,3.4H397c-0.8-2.2-2.8-1.4-4.3-1.6c-74.4-10.9-130.6-61.3-147.8-132.6 c-2.1-9-3.3-18.2-5-27.2V157.7z M414.2,47.8c-70.5-0.2-127.8,56.7-128,127.2c0,0.1,0,0.2,0,0.3c0,69.7,57.7,127.5,127.6,127.7 c69.7,0.2,127.6-57.2,127.6-126.5C541.4,104.6,485.3,47.8,414.2,47.8z" class="st1"/><path d="M1394.7,211c-2.6,1.2-1.7,3.8-2.1,5.7c-8.1,36.6-39.2,63.6-76.6,66.3c-32.9,2.6-61.7-6.1-82.5-33 c-35.9-46.3-11.2-113.3,46.7-128.3c38.5-9.9,77.7,3,99.1,32.6c7.3,10.2,12.1,22,14,34.4c0.2,1.3-0.4,3,1.4,3.6V211z M1305.7,228.5 c14.4,0,25.4-11.8,25.3-27.3c-0.1-15.2-11.3-27.5-25.3-27.7c-14.4-0.2-25.5,11.4-25.7,27C1279.9,216.1,1291.3,228.5,1305.7,228.5z" class="st1"/><path d="M869.4,214.4c-6.7,20.7-13.1,39.8-18.9,59.1c-1.8,6.1-4.9,7.8-10.8,7.6c-12.7-0.3-25.5-0.5-38.2,0 c-6.6,0.3-9.2-2.4-10.9-8.4c-12.3-42.1-25-84.1-37.7-126c-0.8-2.7-1-5.7-3.9-8.9c0,10.1-0.2,19.3,0.1,28.4c0.2,5.3-1.6,7.4-7,7.2 c-7.7-0.3-15.4,0.2-23.1-0.2c-4.9-0.2-6.7,1-6.5,6.2c0.4,9.8,0.1,19.7,0.1,29.5c0,16.8,7.1,22.4,23.8,18.9c12-2.5,12-2.5,12,9.9 c0,10.3-0.2,20.7,0.1,31c0.1,4.2-1.1,6.6-5.2,8c-19.7,7-39.8,8.8-60.1,3.6c-21.5-5.6-33.6-20.4-35.5-42.7 c-1.7-18.9-0.6-37.9-0.6-56.9c0-5.8-1.1-8-7.4-7.7c-10.9,0.5-11,0.1-11-10.7c0-10.8,0.2-22.1-0.1-33.2c-0.2-5.4,1.7-7.6,7-7 c1.9,0.2,3.9-0.2,5.8,0c4.6,0.6,5.8-1.4,5.6-5.8c-0.3-7.2,0.1-14.4-0.2-21.6c-0.2-4.3,1.2-6.5,5.5-7.8 c17.9-5.4,35.7-10.9,53.5-16.7c5.3-1.7,6.9,0.2,6.8,5.4c-0.2,13,0.4,26-0.2,38.9c-0.3,6.7,2,7.8,8,7.7c26.4-0.3,52.9,0.1,79.3-0.3 c6.9-0.1,9.6,2.4,11.1,8.9c4,17.4,8.7,34.7,13.5,53.8c5.9-19.6,11.4-37.5,16.4-55.4c1.6-5.9,4.3-8.2,10.5-7.9 c12.2,0.5,24.5,0.3,36.7,0c5.4-0.1,8.2,1.5,9.7,7.1c4.3,15.7,9.2,31.3,14,46.8c0.7,2.4,0.7,5.2,3.6,7.5 c4.6-17.5,9.4-34.4,13.4-51.5c1.6-6.7,4.1-9.4,11.5-9.4c35.6,0.4,71.1,0.4,106.7,0c7,0,8.9,2.1,8.8,9c-0.3,47.3-0.3,94.6,0,142 c0,6.5-2,8.2-8.2,8.1c-16.6-0.4-33.1-0.4-49.7,0c-6.4,0.1-8.2-2-8.2-8.3c0.2-42,0.1-84.1,0.1-126.1v-7.7l-1.2-0.3 c-3.5,11-7.1,22-10.4,33.1c-10.3,33.9-20.5,67.9-30.6,101.9c-1.6,5.4-4.1,7.9-10.1,7.7c-13.4-0.4-26.9-0.3-40.4-0.1 c-5,0.1-7.7-1.4-9.2-6.7C882.3,254.9,876,235.5,869.4,214.4z" class="st1"/><path d="M1133.5,175.5c0,32.4-0.1,64.9,0.1,97.2c0,6.1-1.3,8.7-7.9,8.4c-16.8-0.4-33.6-0.3-50.5,0 c-6,0.1-7.8-2-7.8-7.9c0.2-65.3,0.2-130.6,0-195.9c0-5.8,1.4-8.1,7.7-8c17,0.4,34.1,0.3,51.1,0c5.8-0.1,7.3,1.8,7.3,7.5 C1133.4,109.7,1133.5,142.6,1133.5,175.5z" class="st1"/><path d="M1211.4,202.1c0,23.8-0.1,47.6,0.1,71.3c0,5.4-1.2,7.8-7.2,7.7c-17.3-0.3-34.6-0.3-51.9,0 c-5.3,0-7.1-1.6-7.1-7c0.2-48.3,0.2-96.5,0-144.8c0-5.4,1.9-7.2,7.1-7.1c17.3,0.2,34.6,0.2,51.9,0c5.3,0,7.1,1.8,7.1,7.2 C1211.2,153.6,1211.4,177.8,1211.4,202.1z" class="st1"/><path d="M1022.8,111.5c-9.4,0-18.7-0.2-28.1,0.1c-4.4,0.1-6-1.7-6-5.9c0.1-10.1,0.1-20.2,0-30.3c0-4.1,1.3-6.1,5.8-6 c19,0.2,37.9,0.1,56.9,0c4,0,5.7,1.5,5.7,5.5c-0.1,10.3-0.1,20.7,0,31c0,4.4-2,5.8-6.2,5.8C1041.5,111.4,1032.2,111.5,1022.8,111.5 z" class="st1"/><path d="M1178.4,111.5c-9.1,0-18.2-0.2-27.4,0.1c-5.1,0.2-6.7-1.8-6.6-6.7c0.2-9.8,0.2-19.7,0-29.5 c0-4.1,1.1-6.1,5.7-6.1c18.9,0.2,37.9,0.1,56.8,0c4,0,5.6,1.5,5.5,5.5c-0.1,10.3-0.1,20.6,0,30.9c0,4.3-1.7,5.9-6,5.8 C1197.1,111.4,1187.7,111.5,1178.4,111.5z" class="st1"/><path d="M457,254.5c-19.6,0.2-35.7-15.5-36-35.1c0-0.3,0-0.7,0-1c-0.2-19.8,15.7-36,35.5-36.2c0.2,0,0.3,0,0.5,0 c20-0.1,36.4,16.1,36.5,36.1c0,0.2,0,0.3,0,0.5c-0.1,19.8-16.3,35.8-36.1,35.7C457.3,254.5,457.2,254.5,457,254.5z" class="st1"/><path d="M457.3,168c-20.6,0-36.2-15.4-36.3-35.7c-0.3-19.9,15.6-36.3,35.5-36.6c0.3,0,0.7,0,1,0 c20,0.2,36,16.4,36,36.4c0.1,19.8-15.9,35.9-35.7,36C457.7,168,457.5,168,457.3,168z" class="st1"/><path d="M370.9,168c-20.6,0-36-15.3-36.2-35.7s15.5-36.4,35.6-36.6c20-0.3,36.5,15.7,36.8,35.8c0,0.2,0,0.4,0,0.6 c0.1,19.7-15.7,35.8-35.5,36C371.4,168,371.1,168,370.9,168z" class="st1"/><path d="M370.8,254.5c-20.5,0-36-15.5-36-35.9s15.6-36.3,35.7-36.4c20-0.3,36.4,15.7,36.6,35.7c0,0.3,0,0.5,0,0.8 c0.1,19.8-15.9,35.8-35.7,35.9C371.2,254.5,371,254.5,370.8,254.5z" class="st1"/></g><g><g><path d="M1289.5,197.1c-1.3-26.6,4.2-52.8,3.1-79.4c-0.9-22.5,2.9-44.7,3.3-67.1c0.3-18.5,8.4-25.8,26.6-25.8 c76.9,0,153.8,0,230.7,0c10.4,0,15.4,5.5,13.8,14.4c-0.7,3.6-3.4,5.6-5.7,8c-44.3,44.9-88.5,89.9-133,134.6 c-45.7,46-91.7,91.8-137.5,137.7c-1.8,1.8-3.7,3.4-5.6,5.2c0.3-14.2-0.1-28.4,1-42.6C1288.2,253.9,1288.5,225.5,1289.5,197.1z" class="st4"/><path d="M1289.5,197.1c-1,28.4-1.3,56.8-3.5,85.2c-1.1,14.3-0.7,28.4-1,42.6c-3.4,2.6-5.2-0.3-7-2.2 c-37.6-37.5-75.2-75.1-112.7-112.7c-5.3-5.3-6-11.6-3.4-18.3c2.5-6.4,7.9-7,13.9-6.8c10.7,0.3,21.5,0.2,32.2,0.2 c6,0,10.6,1.8,13.9,7.4c10.6,18.3,24.2,35,30.5,56.4c2.1-2.1,0.8-3.6,0.3-5.1c-14.6-40.8-29.1-81.6-43.7-122.4 c-1.9-5.2-3.1-10.2-0.4-15.5c2.5-4.8,6.3-7.3,11.7-7.2c17.6,0.1,35.3,0.6,52.9,0.3c5.9-0.1,6.1,4,6.5,7.4 c1.9,13.3,2.3,26.9,5.3,39.9c3.7,15.7,2.1,31.3,2.8,46.9C1287.8,194.8,1287.9,196.3,1289.5,197.1z" class="st4"/><path d="M314.4,263.2c-10,9-20.8,16.8-33.4,22.1c-28,11.6-54.5,8.2-79.5-8c-23.7-15.3-26.2-54.9-5.2-77.4 c13.9-14.9,31.8-21.6,51.5-24.4c21.9-3.1,43.3-0.2,64.5,4.9c7.6,1.8,8.5-1,8.7-7.3c0.8-30.1-20.7-50.7-56.4-47.6 c-15.6,1.4-30.7,5.2-45.1,11.3c-4.5,1.9-7.2,2.1-8.6-3.7c-4.8-19-8.3-15.6,11.4-22.5c23.7-8.3,48.1-11.7,73.1-7.3 c32.3,5.7,51.9,28.7,51.3,61.7c-0.6,28.6-2.8,57.1-4.3,85.6c-0.6,11-1.3,21.9-1.7,32.9c-0.1,3.8-1.2,5.9-5.3,5.4 c-0.3,0-0.5,0-0.8,0c-24.8-0.9-19.9,5.4-19.3-21C315,266.5,316.1,265,314.4,263.2z M275.2,194.1c-24.1,0-41,4.7-52.5,13.5 c-18.1,13.9-17.6,40.5,0.9,53.7c11.3,8.1,24.1,10.4,37.7,9.5c32.2-2.2,58.4-29.9,57.9-61c-0.1-5-1.4-7.9-6.6-9.2 C299,196.9,285.3,194.3,275.2,194.1z" class="st4"/><path d="M359.3,288.9c15-18,28.6-34.4,42.3-50.9c10.8-12.9,21.4-26,32.5-38.7c3.2-3.7,2.9-6.1,0.2-9.8 c-18.8-26.4-37.3-53-55.9-79.6c-1.2-1.6-2.2-3.3-4.3-6.4c10.8,0,20.6-0.1,30.3,0.1c2.6,0.1,3.4,2.9,4.7,4.7 c13.9,19.9,28,39.6,41.6,59.7c3.8,5.7,6,4.9,9.8,0.2c16.3-20.3,33.1-40.3,49.4-60.5c2.5-3.1,5.1-4.5,9-4.3 c7.8,0.3,15.6,0.1,25.4,0.1c-8.9,10.9-16.6,20.3-24.3,29.6c-15.3,18.5-30.5,37.1-46,55.4c-3.6,4.2-3.2,7-0.2,11.2 c19.4,27.2,38.6,54.6,57.8,82c1.4,1.9,4.4,3.9,2.8,6.5c-1.2,1.9-4.3,0.4-6.5,0.8c-17.3,3.4-28-3.8-36.5-19.1 c-9.9-17.8-22.8-33.8-34-51c-3.6-5.6-5.4-4.6-9-0.1c-17.6,21.9-35.6,43.5-53.2,65.3c-2.8,3.5-5.7,5.2-10.3,4.9 C377.1,288.6,369.2,288.9,359.3,288.9z" class="st4"/><path d="M150.5,100.3c-7.2,0-14.3,0.2-21.5-0.1c-4-0.1-5.9,0.8-6.1,5.4c-1.4,28.5-3,57.1-4.7,85.6 c-0.8,14.3-1.6,28.5-2.7,42.8c-1.6,21.8,14,35.1,35.1,29.6c1.2-0.3,2.5-0.7,3.7-1c13.3-4.2,13.3-4.2,12.8,10.3 c-0.6,15-0.8,15.2-15,18.8c-8.5,2.2-17.2,2.6-25.8,1.9c-20.5-1.7-34-18.1-35.5-42.9c-1.2-19.9,1.2-39.8,2-59.7 c0.9-23.4,2.7-46.9,4.2-70.3c0.1-2,0.1-4.1,0.3-6.1c1.2-14.3,1.2-14.3-13.4-14.3c-9.6,0-9.7,0-8.7-9.9c0.6-6-2.1-13.7,1.9-17.7 c4-4,11.7-1.2,17.7-1.2c4.4,0,5.7-1.7,5.9-5.7c0.8-16.3,1.9-32.6,2.8-48.9c0.6-11.4,0.6-11.4,12.1-11.4c14.6,0,14.6,0,13.9,14.5 c-0.8,15.5-1.5,31.1-2.7,46.6c-0.4,4.9,2,4.8,5.3,4.8c13.8,0,27.6,0.2,41.4-0.1c5-0.1,7.1,1.3,6.3,6.4c-0.5,2.8-0.4,5.6-0.7,8.4 c-1.8,14.3-1.8,14.3-16.8,14.3C158.1,100.3,154.3,100.3,150.5,100.3z" class="st4"/><path d="M1011.3,204.5c-22.2,0-44.4,0.4-66.6-0.2c-7.4-0.2-8.4,2.5-7.8,8.8c4.8,52,56.2,79.3,102,53.9 c8.5-4.7,16.7-10,23.7-16.8c4-3.9,6.5-1.8,8.5,1.4c1.9,3.1,8.4,5,3.1,10.5c-33.5,34.3-89.2,42.3-126.5,11.5 c-16.1-13.3-25.2-30.7-28.2-51.1c-5.3-37,3-70,30.7-96.6c25-24,61.4-30.6,93.1-16.5c26.8,11.9,38.1,34.8,42.2,62.3 c1.3,8.6,1.6,17.2,1.4,26c-0.1,5.2-2,7-7.3,6.9C1056.8,204.3,1034.1,204.5,1011.3,204.5z M1003.5,187.9c16.3,0,32.7,0,49,0 c17.5,0,17.5,0,14.7-17.1c-6.1-38-37.3-59.3-73.8-50.6c-32.8,7.8-49.3,35.8-55,62.4c-1,4.9,1.4,5.5,5.4,5.5 C963.7,187.8,983.6,187.9,1003.5,187.9z" class="st4"/><path d="M747.5,267.9c7.4-16.1,14.5-31.3,21.5-46.5c16.9-36.9,33.8-73.8,50.5-110.8c1.8-4.1,4.1-5.9,8.7-5.5 c4.3,0.4,8.6,0.1,14,0.1c-2.9,6.3-5.3,11.9-7.9,17.3c-28,58.2-56,116.4-84.2,174.5c-5.1,10.6-10.9,20.8-18.7,29.7 c-16.8,19.2-38.1,21.9-61.6,17c-2.5-0.5-4.9-1.3-7.4-2c-10.7-3.2-10.6-3.1-6-13.1c1.8-4,3.8-5.3,8.2-3.8c5,1.8,10.2,3.3,15.5,4.1 c22.1,3.4,37-7.1,48.2-25.2c6.7-10.7,8.1-20.1,2.6-32.5c-23-52.6-44.6-105.8-67-158.7c-2.4-5.7-2.5-7.8,4.7-7.5 c15.5,0.8,11.5-2.6,17.3,11.6c19.5,48,38.8,96,58.3,144.1C745,262.8,746.1,264.8,747.5,267.9z" class="st4"/><path d="M633.1,97.8c-6.1,0-13.6-2.2-18,0.6c-4.9,3.1-2.1,11.4-2.6,17.3c-2.1,29.3-3.7,58.6-5.3,87.9 c-1.7,28.8-3.3,57.6-4.8,86.4c-0.2,4.6-1.9,6.5-6.5,6.1c-2.5-0.2-5.1-0.3-7.7-0.2c-4.7,0.1-5.9-2-5.6-6.6 c2.5-40.5,4.9-81,7.2-121.5c1.2-21.4,2.3-42.8,3.7-64.2c0.3-4.6-1-6.7-5.8-6.2c-2.3,0.3-4.6,0-6.9,0c-10.6,0-12.4-2.7-9.4-13.3 c0.7-2.4,1.8-3.5,4.2-3.4c0.8,0,1.5,0,2.3,0c17.2-0.5,17.4-0.5,18.3-17.8c0.6-11,1.8-21.9,6.5-32c8.7-18.8,34.1-30,53.8-24.1 c4.7,1.4,2.4,4.9,2.7,7.6c1,6.9-1.1,9.7-9.1,9.1c-21.8-1.7-32.2,8.5-35.2,33.7c-0.7,6.1-0.3,12.2-0.7,18.4c-0.2,4,1.4,5.4,5.4,5.3 c9.2-0.2,18.4,0.1,27.6-0.1c4.2-0.1,6.6,1.2,5.5,5.6c-1,4,3,10.7-5.3,11c-4.8,0.2-9.7,0-14.6,0C633.1,97.5,633.1,97.6,633.1,97.8z" class="st4"/><path d="M894.1,33.9c-3.5,55.5-7.1,111.1-10.5,166.6c-1.7,26.7-3.6,53.5-4.7,80.3c-0.5,11.4-8.3,5.7-13.1,6.8 c-6.1,1.4-5.7-3.1-5.4-7c2.9-46.6,5.8-93.2,8.7-139.9c1.7-28,3.4-56.1,5.1-84.1c0.6-10.4,1.4-20.9,1.6-31.4c0.1-5.1,2-6.9,6.8-6.3 c2,0.2,4.1,0.2,6.1,0c5.4-0.7,6.8,1.5,5.6,6.6c-0.6,2.7-0.1,5.6-0.1,8.4C894.2,33.9,894.1,33.9,894.1,33.9z" class="st4"/></g></g></svg>