<svg xmlns="http://www.w3.org/2000/svg" id="Layer_1" data-name="Layer 1" viewBox="0 0 1641.8 351"><defs><style>.cls-1{fill:#fff}</style></defs><title>Taylor</title><path d="M589.042,119.354a14.318,14.318,0,0,1,1.843.4,6.56,6.56,0,0,1,1.214.741l0-.056a7.142,7.142,0,0,0,.462,1.24,29.875,29.875,0,0,1,4.072,17.383,27.641,27.641,0,0,1-2.952,10.951,35.393,35.393,0,0,1-4.407,6.991c-.376.448-.611,1.013-.963,1.485-.288.389-.653.72-1.142,1.247.58.133.922.222,1.268.289a7.915,7.915,0,0,1,6.586,6.221,23.678,23.678,0,0,1,.7,7.767c-.252,3.344-.639,6.679-.567,10.043a3.312,3.312,0,0,1-.316,1,6.156,6.156,0,0,1-2.947-.246,29.336,29.336,0,0,0-13.934.837c-1.852.575-3.71,1.134-5.582,1.639a22.57,22.57,0,0,1-9.537.824l2.989-.432a4.049,4.049,0,0,0,.4-4.448,4.051,4.051,0,0,0-2.686-.015,6.417,6.417,0,0,1-3.6-.118c-1.242-1.032-.517-2.563-1.314-3.725-1.778-.841-3.51.039-5.534.16.288.608.42.936.592,1.242,1.018,1.82,2.123,3.6,3.05,5.46a8.6,8.6,0,0,1,.2,7.97,10.887,10.887,0,0,0-.486,1.552l1.5,1.122.7,1.421,7.19-.314a6.888,6.888,0,0,1,4.292-1.175,14.053,14.053,0,0,1,2.622.5,10.429,10.429,0,0,0,3.077.468c4.7.117,9.4.194,14.092.426,3.049.151,6.088.538,9.129.838a7.4,7.4,0,0,1,1.182.333c.132.8.262,1.583.413,2.492a5.847,5.847,0,0,1-1.158.169c-4.016-.287-8.026-.669-12.046-.874-3.053-.156-6.117-.1-9.177-.118a2.871,2.871,0,0,0-.724.226c.033.434.066.863.084,1.1l5.6,5.717c1.816,1.854,3.345,3.984,5.3,5.748a13.707,13.707,0,0,1,13.77,3.733,8.6,8.6,0,0,0-2.548,4.185,9.932,9.932,0,0,0,.162,4.856c.5,1.626,1.181,3.075,2.8,3.789l1.344,3.581c1.53,1.158,1.53,1.158,5.391,1.775a5.516,5.516,0,0,1,.41,1.142c.388,2.8.741,5.6,1.105,8.4-.512,2.879-.077,5.807-.451,8.693a5.053,5.053,0,0,1-.1.663,36.8,36.8,0,0,1-4.718,10.439c-.48-.168-.876-.338-1.289-.444a14.393,14.393,0,0,0-2.6-.587,15.033,15.033,0,0,1-5.764-1.659,49.813,49.813,0,0,1-11.225-7.7,70.931,70.931,0,0,1-7.334-8.135,21.67,21.67,0,0,1-4.431-10.354c-.187-1.094-.213-2.216-.308-3.272-.909-.84-1.905-.405-2.778-.515a7.1,7.1,0,0,0-2.778,3.527c-.65,1.423-1.2,2.9-1.774,4.351a15.218,15.218,0,0,1-2.372,4.537,7.835,7.835,0,0,0-.767,1.321c-3.163,2.3-3.163,2.3-6.178,2.971l.13.9-2.673.8.5.917c-.105.081-.226.245-.315.229-1.435-.254-2.629.522-3.83,1.028a11.5,11.5,0,0,1-3.385,1.026c-.713.363-.38,1.409-1.321,1.253-.1-.067-.284-.122-.326-.231-.24-.626-.409-1.279-.67-1.9-1.167-2.755-2.2-3.956-4.844-4.633l-1.527.433a3.8,3.8,0,0,1,2.044-2.151c.78-.435,1.622-.758,2.422-1.159a6.83,6.83,0,0,0,.915-.618c.039-.029.021-.137.029-.208-.057-.042-.139-.135-.168-.12a144,144,0,0,1-13.682,6.051c-.118.043-.187.221-.317.384l.169,1.209c-1.167.34-2.029-.5-2.987-.626-1.307.187-2.557.389-3.812.541-3.642.44-6.988-.177-9.758-2.8a2.289,2.289,0,0,0-.443-.246,2.743,2.743,0,0,0-2.125.744,4.158,4.158,0,0,0,.75.771,18.588,18.588,0,0,0,10.647,2.814c.185-.013.38.139.7.267a22.862,22.862,0,0,0-1.676,2.351,4.122,4.122,0,0,0-.407,3.046,28.417,28.417,0,0,0,1.02,2.734c-.8,1.2-2.271,1.339-3.528,2.263a14.665,14.665,0,0,1-6.608,5.136c-1.291.582-2.626,1.065-3.933,1.61-.466.194-.91.437-1.618.782.451.249.668.467.895.478a23.582,23.582,0,0,0,2.685.015c3.57-.234,7.138-.5,10.708-.754a3.949,3.949,0,0,1,.675.076l.071.741a12.256,12.256,0,0,1-3.5.625c-4.023.192-8.037.644-12.073.48a5.461,5.461,0,0,0-2.576.633c-.167.078-.251.332-.475.651,4.659,1.814,9.446,2.939,14.163,4.467l.81,1.575.043-.041c-2.164-.5-4.34-.946-6.488-1.507-2.724-.711-5.429-1.5-8.132-2.286a21.968,21.968,0,0,1-2.044-.823c.015.009.026.014.038.02a1.785,1.785,0,0,1-1.381-.463l.039.021a1.707,1.707,0,0,1-1.372-.455l.039.023c-.457-.155-.915-.31-1.369-.462.008.02.065-.03.039.029-1.43-.4-2.858-.8-4.291-1.188-.619-.168-1.209-.561-1.89-.358-.013.139-.053.236-.021.278,2.257,3.035,4.26,6.22,7.31,8.657a120.021,120.021,0,0,0,20.341,12.988,6.583,6.583,0,0,1,2.325,1.434l-.193.784c-.3,0-.553.074-.722-.011q-4.09-2.075-8.161-4.187c-.727-.377-1.435-.793-2.2-1.217l-1.445.275c-.038.238-.128.423-.071.507,1.426,2.091,2.867,4.172,4.354,6.323,2.034-.5,3.928-.575,5.376,1.4-.084.4-.167.907-.3,1.4a4.053,4.053,0,0,0,1.537,4.754,13.025,13.025,0,0,1,1.148,1.057l.094,1.82,1.659,3.772c.758.479.95-.831,1.627-.347a74.094,74.094,0,0,1-2.484,12.75c-.8-.6-.391-1.966-1.457-2.341-.375,3.026-.375,3.026-2.017,5.83v1.407l-2.719,1.025c-1.83-1.15-2.181-1.91-1.705-3.566.185-.644.454-1.264.682-1.9a6.025,6.025,0,0,0-.466-5.588,9.433,9.433,0,0,1-1.441-5.3,37.253,37.253,0,0,0-.488-4.436c-.294-2.291-.656-4.575-.9-6.871a5.125,5.125,0,0,1,.819-3.775c-.74-2.34-3.306-6.367-5.884-9.281a1.345,1.345,0,0,0-1.855.939v-3.041a6.269,6.269,0,0,0-1.072-1.287,30.734,30.734,0,0,0-4.817-3.274c.129.665.175,1.085.3,1.483.324,1.07.709,2.121,1.015,3.2a7.023,7.023,0,0,1-.119,4.181,20.425,20.425,0,0,1-8.006,10.355c-1.868-1.715-4.3-2.468-6.664-3.347a14.58,14.58,0,0,1-4.4-2.612,34.429,34.429,0,0,1-7.124-8.285,17.527,17.527,0,0,1-2.036-4.708,8.127,8.127,0,0,1,.148-4.839,26.96,26.96,0,0,1,3.147-6.41c.248-.365.5-.729.721-1.055-.177-.578-.6-.453-.94-.453a63.978,63.978,0,0,1-8.933-.412,18.317,18.317,0,0,0-3.557.031,14.648,14.648,0,0,1-5.5-.778,27.988,27.988,0,0,0-2.791-.76,16.889,16.889,0,0,1-8.918-5.244,29.375,29.375,0,0,0-5.031-4.362h-1.418c-2.021-.9-2.237-3.21-3.582-4.83l-1.255.372a1.847,1.847,0,0,1-.382-.471,26.466,26.466,0,0,1-1.382-6.554,29.294,29.294,0,0,1,.847-10.877c1.137-4.091,3.206-7.543,7.179-9.728-.641-1.88-.491-3.994-1.934-5.4a6.04,6.04,0,0,0-3.272-.237c-2.3.24-4.6.479-6.9.757-1.849.225-3.692.5-5.535.771a13.67,13.67,0,0,0-1.386.363,23.676,23.676,0,0,1-.2,2.421,30.825,30.825,0,0,1-3.507,9.394,6.989,6.989,0,0,1-3.883,3.216c-.56.2-1.141.35-1.7.554-1.819.661-3.633,1.338-5.642,2.079a13.337,13.337,0,0,1-1.334-.232,8.158,8.158,0,0,0-5.468.472c-1.026.445-2.067.858-3.106,1.272-.34.135-.7.231-.965.319-.773-.317-.286-1-.579-1.4-.134-.038-.282-.134-.4-.1-1.231.3-2.449.661-3.687.93a7.505,7.505,0,0,1-3.525.1l-.786-1.038c-1.909.09-3.667,1.063-5.672.539l-.13-1.448c-5.729-.5-5.979-.576-7.388-2.479l.427-2.016a2.792,2.792,0,0,0-2.059-.755c-2.067-.288-4.138-.548-6.205-.838-.725-.1-1.442-.26-2.023-.366-.471-.737-.051-1.157.134-1.62.161-.4.312-.809.521-1.354-.809-.245-1.507-.475-2.216-.668a55.35,55.35,0,0,1-8.065-2.665,15.429,15.429,0,0,1-4.869-3.126c-.4-.407-.9-.786-.877-1.44.174-.1.3-.234.407-.227a13.57,13.57,0,0,0,6.636-1.735,62.194,62.194,0,0,0,8.278-4.893c.678-.462,1.354-.927,2.127-1.457.584,0,1.252-.038,1.914.007,2.457.165,4.922.277,7.366.561a17.757,17.757,0,0,0,8.137-1.036,40.343,40.343,0,0,0,14.2-8.728c.539-.506,1.088-1,1.672-1.537,1.059.213,2.075.422,3.093.62a16.306,16.306,0,0,0,1.982.344,13.1,13.1,0,0,1,4.27,1.113,12.3,12.3,0,0,1,4.539,3.145c1.994,2.221,4.062,4.383,5.961,6.683a9.529,9.529,0,0,0,5.665,3.3,25.633,25.633,0,0,0,8.023.235c1.48-.156,2.944-.471,4.411-.738a3.626,3.626,0,0,0,.745-.306.645.645,0,0,0-.581-.857,11.191,11.191,0,0,1-4.4-2.08,10.545,10.545,0,0,0-3.1-1.218c-1.289-.368-2.628-.553-3.927-.891q-2.487-.648-4.939-1.424a17.061,17.061,0,0,1-1.973-.9l.156-1.208c-1.267-.811-2.895-.888-4.013-2.158a3.653,3.653,0,0,1,.5-.668,5.439,5.439,0,0,1,.879-.5c-2.308-1.928-4.718-3.171-6.721-5.449.793-.147,1.2-.246,1.61-.294a20.709,20.709,0,0,0,8.228-2.7,13.009,13.009,0,0,0,6.585-10.1c.148-1.18.108-2.384.16-3.576a3.64,3.64,0,0,0-1.337-2.947c-.816-.752-1.559-1.582-2.313-2.356l.46-3.707L419.141,178c-.472-.331-1.264-.028-1.616-.765q.614-.729,1.232-1.453c.117-.04.232-.082.241-.085l-.2.129a1.466,1.466,0,0,0-1.23,1.457l-.717.227-1-.71q1.455-1.2,2.908-2.388c.378,0,.753,0,1.129,0-.4-.3-.782-.343-1.1.038l-1.328.061,1.411-1.356c.55-.122,1.1-.244,1.655-.371.1.01.2.024.315.039h-.359l.162-.693c-1.567-.171-3.018-1.03-4.667-.1,1,.288,2-.107,2.8.444.054.288.095.505.135.721a2.739,2.739,0,0,0-2.288,1.314l-.989.376-.1.061c-.069.125-.006.01.06-.1l1.033.072c-.112.68-.982,1.07-.725,1.891l-.4.3.339,1.722c-.391.2-.7.5-1.027.509a3.342,3.342,0,0,0-2.779,1.6c-.071.1-.262.123-.552.249l-1.732-.808a19.805,19.805,0,0,0-5.32,1.991c1.3-2.444,3.567-2.907,5.536-3.752l.1-1.137c.787-1.091,1.241.416,1.944.2.666-.614-.515-1.222-.044-1.815.29-.849,1.165-.85,1.747-1.227.23-.632-.4-.725-.626-1.058a2.33,2.33,0,0,0-.767-.763,3.8,3.8,0,0,1-1.527-1.866c-.1-.2-.174-.411-.262-.617-1.562-3.658-1.562-3.658-4.145-6.169.079-.1.187-.29.235-.276a53.845,53.845,0,0,0,6.814,1.138,8.041,8.041,0,0,1,3.217,1.466,6.9,6.9,0,0,1,1.654,2.243c.535.227,1.057.483,1.6.68.569.207,1.014.755,1.852.788-1.354-1.465-1.595-1.556-3.492-1.428l.363-.951.858-.447,1.231-2.335V163.77l1.072-.095a13.325,13.325,0,0,1-.316,4.394l.729,1.487a3.216,3.216,0,0,0,.74.163,16.958,16.958,0,0,1,3.852-.066,3.956,3.956,0,0,1-.667,3,3.031,3.031,0,0,1-2.062,1.213c-.7.182-1.516.1-2.082.925.427.379.856.768,1.294,1.146a4.928,4.928,0,0,1,1.823,4.145,31.566,31.566,0,0,1-.238,3.345,36.311,36.311,0,0,0-.229,7.592,7.648,7.648,0,0,0,.255,1.538c1.074,4.019,4.019,5.242,7.768,3.995a36.7,36.7,0,0,0,4.319-2.084c1.152,1.1,1.349,2.86,2.322,4.1.563.013.657-.383.775-.722a4.163,4.163,0,0,0-.1-2.634c-.762-2.575-1.481-5.162-2.255-7.734a11.778,11.778,0,0,1-.52-3.748,3.77,3.77,0,0,1,2.113-3.441,11.519,11.519,0,0,1,5.513-1.466,3.975,3.975,0,0,1,1,2.261,93.32,93.32,0,0,0,4.171,12.511,38.14,38.14,0,0,0,4.2,7.632,15.178,15.178,0,0,0,3.473,3.569c.735-.314.622-.837.574-1.237-.177-1.479-.4-2.953-.646-4.423-.607-3.679-1.235-7.355-1.847-11.033-.083-.5-.253-1.034.369-1.551,1.842.821,3.18,2.551,5.181,3.377l2.2-.509c.1-.814.191-1.614.282-2.414.465-4.073,2.076-7.755,3.835-11.4a32.3,32.3,0,0,1,9.984-11.575,30.959,30.959,0,0,1,14.408-5.71,4.308,4.308,0,0,1,.862.036c.072.691-.456.749-.812.924a28.363,28.363,0,0,0-5.968,3.926,19.428,19.428,0,0,0-3.58,3.983,7.171,7.171,0,0,0-1.373,3.494,15.657,15.657,0,0,1-.581,2.616,6.628,6.628,0,0,0-.091,3.014,2.722,2.722,0,0,0,.841-.213c.792-.554,1.553-1.154,2.443-1.826.445-.68.969-1.48,1.511-2.31,1.339.225,1.928,1.108,2.558,2.18-.5.342-.914.622-1.323.907a22.6,22.6,0,0,0-2.182,1.55,5.061,5.061,0,0,0-1.912,4.116c.031.743-.047,1.49-.081,2.236a21.071,21.071,0,0,1-.941,5.72,19.546,19.546,0,0,0-.48,2.373l1.5,1.277c0,.252.023.544,0,.832-.156,1.628-.379,3.252-.467,4.884-.055,1.028.034,1.033.778,2.382l1.59-.575.688-1.985c1.626,1.279,2.593,3.118,4.457,3.671a1.036,1.036,0,0,0,.958-1.174,15.15,15.15,0,0,0-.416-2.182,2.991,2.991,0,0,1-.148-2l1.408.384c.059-.852.113-1.636.2-2.966.288.695.4.9.458,1.117a5.6,5.6,0,0,0,3.253,3.76,13.578,13.578,0,0,0,4.294,1.349l-2.022-1.858-.1-1.312,1.288-.837c-.1-.2-.15-.419-.235-.436-.726-.143-1.46-.25-2.256-.378-.638-.507-1.563-.836-1.443-1.977,1.449-3.492,3.253-6.852,3.667-10.69a6.1,6.1,0,0,0,2.686-3.185c.059-.691.139-1.357.165-2.025.014-.372-.054-.754-.622-.839a6.408,6.408,0,0,0-1.883,2.083,18.664,18.664,0,0,0-2.681,7.272c-.363,1.822-.761,3.638-1.106,5.464-.122.646-.134,1.312-.2,1.969l-1.9-1.264-.9.305c-1.322-3.652-1.732-9.884-.79-12.583,2.024-1.449,4.737-2.092,6.381-4.658l.362-3.318c.981-1.03,2.181-.945,3.363-1.321l1.526-1.263,1.976-.55c1.068-.8.805-2.094,1.338-3.153l.907-.835c0-.089.032-.193,0-.23a69.9,69.9,0,0,1-5.248-6.907c1.278.266,1.278.266,1.878-.647.194-.342.7-.581.312-1.152l-.635.154.371,1.037a2.03,2.03,0,0,0-1.872.686,2.416,2.416,0,0,0-2.446-.716c-1.087.218-2.181.394-3.085.555a1.2,1.2,0,0,1-.645-1.5c.2-.871.469-1.728.712-2.589a6.1,6.1,0,0,0,.167-3.524,4.377,4.377,0,0,1,.055-1.337c1.792.114,2.555,1.624,3.724,2.343.482-.177.383-.485.31-.756-.29-1.081-.634-2.149-.884-3.238a5.482,5.482,0,0,1,.222-3.414l3-1.306a2.34,2.34,0,0,0-.2-2.1c-.533-1.232-1.026-2.49-1.669-3.664a19.625,19.625,0,0,0-1.829-2.349c.159-3.256,1.616-6.464,2.719-10.011-.305-2.659-.641-5.544-.961-8.431-.074-.666-.086-1.339-.139-2.008-.17-2.153-.329-4.308-.538-6.457-.029-.309-.305-.595-.5-.961-1.347.765-1.62,2.263-2.556,3.05-.637-.011-.742-.391-.786-.757a9.562,9.562,0,0,1,.149-3.5l2.267-2.27v-1.957c.64-1.42,2.068-1.776,3.1-2.65a4.723,4.723,0,0,0,.569-2.337,27.588,27.588,0,0,0-.3-6.691A29.518,29.518,0,0,0,499.8,80.7c-.474-.919-.786-1.922-1.2-2.951.507-1.17,1.033-2.317,1.5-3.487s.923-2.362,1.321-3.564a4.847,4.847,0,0,0,.076-3.233,4.58,4.58,0,0,0-.983.494,16.619,16.619,0,0,0-3.8,4.939c-.287.566-.426,1.272-1.128,1.607-.072-1.143-.072-1.143.758-3.142,1.758-4.231,5.418-10.02,7.479-11.828.51.072.452.5.507.843a36.66,36.66,0,0,0,2.068,6.841,13.584,13.584,0,0,0,4.217,5.963c3.194,2.57,5.783,3.129,9.8,2.1.407.365.046.679-.109.962a3.492,3.492,0,0,0,.4,3.986,11.825,11.825,0,0,0,1.937,2.159,23.5,23.5,0,0,0,15.212,5.628,6.812,6.812,0,0,0,1.976-.305,3.727,3.727,0,0,0,2.762-2.671c.11-.408.306-.792.548-1.4.84,1.123,1.5,2.1,2.266,3a20.618,20.618,0,0,0,2.492,2.564,14.678,14.678,0,0,0,2.824,1.788c1.047.519,2.182.863,3.339,1.307-.439,1.765-2.023,2.5-2.834,3.721.181.483.477.474.706.257.919-.872,1.84-1.746,2.7-2.676a5.452,5.452,0,0,1,2.828-1.654c1.948-.484,3.84-1.192,5.9-1.851.236.22.567.5.863.814s.572.675.952,1.13a4.641,4.641,0,0,1-.975.872q-2.535,1.173-5.12,2.241c-.962.4-1.961.712-3.126,1.129a7.791,7.791,0,0,0-3.18.556c-.823,1.2.447,2.06.254,3.068-.086.138-.133.316-.245.38-3.613,2.047-6.356,5.142-9.448,7.817a24.486,24.486,0,0,0-3.793,4.1,12.547,12.547,0,0,0-2.049,3.954c-.611,2.15-1.183,4.313-1.689,6.49a7.781,7.781,0,0,0,.274,4.367c.171-.627.369-1.248.509-1.881a34.4,34.4,0,0,1,7.259-14.468,12.192,12.192,0,0,1,6.891-4.282,5.456,5.456,0,0,1,2.651-.036c.867.223,1.749.382,2.621.588a9.875,9.875,0,0,0,6.35-.343,9.055,9.055,0,0,1,4.635-.4c1.4.151,2.808.317,4.212.469.045,0,.1-.081.151-.124a6.92,6.92,0,0,0-4.562-2.445,2.734,2.734,0,0,1-2-1.03,4.938,4.938,0,0,1-.231-2.6c.744.03.85.571,1.059,1.007a4.124,4.124,0,0,0,1.877,2.25l2.825.147a18.11,18.11,0,0,1,2.056,1.715c1.717,1.865,3.35,3.808,5.031,5.706a7.349,7.349,0,0,0,1.716,1.731,7.427,7.427,0,0,1,2.884,3.03,12.981,12.981,0,0,0,.959,1.229c.526-2,.2-3.854,1.114-5.6l2.686,1.1,1.024-1.926c1.081-.719,1.948-.374,2.886.254l1.092,1.853c.284,1.738.028,3.263-1.528,4.362a2.8,2.8,0,0,0-1.162,2.084c-.655-.052-1.35.038-1.7-.338-.859-1.015-.161-2.233-.945-3.19a11.106,11.106,0,0,0-.925.677c-.757.695-1.494,1.411-2.156,2.04a3.2,3.2,0,0,0,1.332,2.721l1.785-.242,3.763,2.905.778-1.518C590.526,121.18,589.239,120.617,589.042,119.354Zm-102.2,151.979.286.06-.336-.021-.125-.141A1.312,1.312,0,0,0,486.844,271.333Zm17.661-.893,1.3-.965c.3-.093.7-.034.76-.807-.345.409-.531.629-.719.848a1.411,1.411,0,0,0-1.3.954h-.218Zm-24.8-1.817c.509.239.893.909,1.676.468a2.141,2.141,0,0,0-1.721-.424,2.3,2.3,0,0,0-2.235-.9,2.256,2.256,0,0,0-2.234-.9,3.8,3.8,0,0,0-3.133-1.346c-.2-.207-.359-.49-.6-.609-2.425-1.2-4.864-2.368-7.3-3.542l-1.071-.316a3.877,3.877,0,0,0-3.1-1.835,8.238,8.238,0,0,0-4.266-2.36,11.319,11.319,0,0,0,4.311,2.314,6.9,6.9,0,0,0,3.1,1.838l1.074.313a6.168,6.168,0,0,0,1.071,1.044,31.974,31.974,0,0,0,3.142,1.64c1.205.541,2.455.984,3.689,1.466a6.368,6.368,0,0,0,3.134,1.346,3.863,3.863,0,0,0,2.231.905A4.126,4.126,0,0,0,479.7,268.623ZM529.173,110.53l.873.082a4.814,4.814,0,0,1,.112,2.675l-1.8,1.367c.4.746.784,1.384,1.088,2.059.284.634.482,1.307.807,2.207a10.894,10.894,0,0,0,.656-1.157,22,22,0,0,1,9.56-11.185,15.21,15.21,0,0,0,1.409-1.06c.131-1.86,1.18-3.452,1.058-5.3-.12-1.833.291-3.71-.363-5.541a2.867,2.867,0,0,0-.9-.232,10.226,10.226,0,0,0-1.97.364,31.578,31.578,0,0,0-6.814,3.359,8.388,8.388,0,0,0-1.662,3.855c-.116.96-.315,1.909-.451,2.867-.219,1.545-.417,3.094-.61,4.539-.373.443-.661.785-.957,1.119h-.334v-.017Zm-46.1,148.778.042.021a3.729,3.729,0,0,1,.516-.709c1.578-1.359,1.978-3.205,2.36-5.336a8.9,8.9,0,0,0-1.232.3c-1.583.66-3.15,1.358-4.733,2.02a33.984,33.984,0,0,0-3.7,1.522c-1.525.863-3.235,1.442-4.493,2.761a5.525,5.525,0,0,1-1.188.726c-.713-.222-1.409-.47-2.123-.649-.346-.086-.745-.074-.776.583l2.087,1a18.309,18.309,0,0,0,2.441,2.323,5.69,5.69,0,0,0,4.548.522c.8-.194,1.573-.458,2.305-.675l5.978.465c.378.658.643,1.193.977,1.681a2.314,2.314,0,0,0,1.758,1.26c1-.012,1.595.8,2.695.951,1.611-.234,3.392.825,5.374.208-1.155-2.2-3.482-3.015-4.97-4.632.13-.194.157-.283.209-.3a3.423,3.423,0,0,1,.629-.19,21.391,21.391,0,0,0,10.835-4.975,5.665,5.665,0,0,1,1.467-1,5.525,5.525,0,0,0,2.869-2.989c.443-.944.886-1.888,1.3-2.843a1.829,1.829,0,0,0,.037-.616c-.967-.655-1.711.266-2.592.285l-.5-1.472-1.247.127c-1.159,1.907-.828,4.091-1.7,6.333a9.789,9.789,0,0,1-.108-3.036,4.942,4.942,0,0,0-.371-2.631,2.066,2.066,0,0,0-2.115.47l.363,1.523-1.3-.315c.173,2.255,1.812,3.66,2.733,5.649-.326.232-.637.439-.934.665a18.575,18.575,0,0,1-6.176,3.08,36.9,36.9,0,0,1-12.4,1.2c-.11-.006-.211-.172-.411-.346.191-.278.384-.572.59-.857.393-.541.808-1.068,1.173-1.628C483.347,259.7,483.155,259.468,483.074,259.308Zm48.074-118.365c.691,1.165,1.368,2.323,2.06,3.472a34.444,34.444,0,0,0,5.87,7.309,15.882,15.882,0,0,0,5.9,3.317,40.661,40.661,0,0,0,3.433-3.3c.638-1.192-.027-2.527,1.231-3.4,1.468.554,2.976,1.178,4.52,1.691,1.622.538,3.28.971,4.9,1.442l2.545-1.312c.664.264,1.351.53,2.033.807a2.678,2.678,0,0,0,2.375-.111q1.971-1.056,3.925-2.142a1.947,1.947,0,0,0,1.039-1.627,1.586,1.586,0,0,0-1.028-1.595l-3.407-.173c.254-.206.35-.345.472-.373,3.338-.79,6.617-1.822,10.022-2.338a34.142,34.142,0,0,0,3.913-.95,3.637,3.637,0,0,0,2.021-1.06,4.14,4.14,0,0,0,.038-3.107c-.882-.088-1.311.5-1.855.856a22.3,22.3,0,0,1-11.3,3.867c-3,.125-6.022-.021-9.034-.046,3.37-.74,6.75-1.276,10.035-2.254.628-.187,1.225-.477,1.71-.67.333-.879.592-1.565.875-2.315,1.044-.437,2.077-.852,3.092-1.305.254-.114.511-.33.195-.763a7.615,7.615,0,0,0-2.287.593,48.617,48.617,0,0,1-5.191,1.343,67.965,67.965,0,0,1-12.7,1,8.757,8.757,0,0,0-1.562.061,5.389,5.389,0,0,0-1.044.381c.124.3.153.561.3.692,2.314,2.1,4.643,4.186,7.068,6.365l2.794-.17c.12.825-.957.663-1.042,1.308l.263.961c-1.192.285-2.269.564-3.357.8-3.3.71-6.526.684-9.541-1.093a6.1,6.1,0,0,0-2.521-.843,36.207,36.207,0,0,1-9.869-2.8,13.394,13.394,0,0,1-1.569-.9,31.49,31.49,0,0,1-.171-6.739,2.771,2.771,0,0,1,.378-.853,3.82,3.82,0,0,1,.866.4c.563.488,1.088,1.02,1.623,1.54,1.821,1.767,3.631,3.547,5.467,5.3.409.39.783.941,1.478.77.081-.06.179-.094.191-.148.63-2.861-.121-5.8.517-8.668a3.822,3.822,0,0,0-.031-.926l-1.467-1.81c-.041-.818-.055-1.709-.139-2.594a7.722,7.722,0,0,0-.349-1.966c-.355-.954-.855-1.855-1.356-2.911l-1.675,1.519a4.658,4.658,0,0,1,.837-2.8c.765-1.189,1.636-2.309,2.453-3.465.171-.243.343-.515,0-.773a1.2,1.2,0,0,0-.428.081,12.72,12.72,0,0,0-1.283.894,22.769,22.769,0,0,0-5.8,7.034c-.372.716-.77,1.419-1.107,2.037-2.161.161-2.737-.248-2.885-1.966-.057-.667-.03-1.342-.034-2.014-.01-1.642,0-3.284-.032-4.926-.008-.424.008-.928-.749-1.065a7.308,7.308,0,0,0-.913,1.1c-.8,1.429-1.536,2.9-2.322,4.335-.231.422-.288,1.05-.975,1.042-.138-.093-.311-.146-.368-.259-.337-.664-.669-1.333-.963-2.017a15.168,15.168,0,0,0-3.273-5.036,10.2,10.2,0,0,0-4-2.653,2.923,2.923,0,0,0-1.1,2.654,13.763,13.763,0,0,0,2.64,8.385,5.1,5.1,0,0,0,2.227,1.821,5.165,5.165,0,0,0,1.124.211c1.082-.942.2-2.317,1.081-3.3l3.318,2.307c-.818,1.169-2.328.857-3.146,1.808-.068,2.674.179,5.365-.55,7.968C526.812,139.025,529.126,139.589,531.148,140.943Zm-49.094,66.089a5.486,5.486,0,0,1-2.7-2.32,20.123,20.123,0,0,1-1.849-3.554,20.5,20.5,0,0,1-1.218-6.793,78.409,78.409,0,0,1,.678-12.72c.084-.654.07-1.321.1-1.877-2.167-2.627-4.242-5.081-7.771-4.853-1.686.769-1.541,2.053-1.331,3.289l-1.251,2.2a11.005,11.005,0,0,0,.2,1.346,4.538,4.538,0,0,1-.475,3.455c-.209.4-.422.79-.648,1.175a7.926,7.926,0,0,0-.643,6.267c.43,1.659.973,3.3,1.274,4.98a28.236,28.236,0,0,1,.341,4.44,6.165,6.165,0,0,1-1.525,4.109c-.327.4-.623.816-.927,1.218a4.338,4.338,0,0,0,1.828,2.824,15.157,15.157,0,0,0,2.151.444,6.713,6.713,0,0,1,6.255,4.6c1.088,2.726,3.344,4.1,6.111,4.73a21.863,21.863,0,0,0,2.391.515c1.392.158,2.825.39,4.13-.757.192-1.551.4-3.166.587-4.782a6.394,6.394,0,0,0,.035-1.115,6.009,6.009,0,0,0-.167-.861c-1.088-1.407-2.9-2.049-3.96-3.817a4.284,4.284,0,0,1,.831.209,44.772,44.772,0,0,0,15.408,5.118c1.837.284,3.7.414,5.553.575.5.044,1.071.088,1.362-.6l-2.12-3.493a34.269,34.269,0,0,0-4.231-.637,15.1,15.1,0,0,1-4.56-.974c-2.458-.873-4.9-1.786-7.365-2.646a7.266,7.266,0,0,0-5.663.069A5.4,5.4,0,0,1,482.054,207.032Zm103.44,8.584a1.319,1.319,0,0,0-.089-.466,19.8,19.8,0,0,0-1.32-1.8,42.881,42.881,0,0,0-9.2-8.12,4.831,4.831,0,0,0-4.2-.86,3.747,3.747,0,0,1-4-1.389c-.387-.44-.743-.906-1.133-1.385a37.347,37.347,0,0,0-4.487.493c-1.431.326-3-.042-4.171.677l-2.591,7.9c.453.595.885,1.193,1.347,1.766a15.165,15.165,0,0,1,3.148,7.54,19.644,19.644,0,0,1-.318,6,8.23,8.23,0,0,0,.014,1.44c1.215.571,2.552.139,3.521,1.023l-.508.983,5.677,1.224,5.847-.494a18.763,18.763,0,0,0,1.153-2.466,16.7,16.7,0,0,1,6.226-8.521c1.065-.811,2.24-1.476,3.35-2.229C584.371,216.516,585.13,216.3,585.494,215.616Zm-129.336-4.672a8.967,8.967,0,0,0-1.308.586,6.549,6.549,0,0,0-2.8,4.887c-.1,1.037-.086,2.086-.133,3.129a12.009,12.009,0,0,0,2.11,7.405,29.065,29.065,0,0,0,3.058,3.844c1.855,1.937,3.86,3.73,5.761,5.625,1.423,1.42,2.858,2.84,4.146,4.379a11.564,11.564,0,0,1,2.6,5.856,21.646,21.646,0,0,0,.534,2.167,7.862,7.862,0,0,0,1.58.933,16.891,16.891,0,0,0,3.259.718c2.224.214,4.461.311,6.695.422a8.409,8.409,0,0,0,1.441-.2l-.087-1.506-6.254-1.433-1.777-2.321a4.577,4.577,0,0,1-.105-1.1c.89-6.188,1.8-12.374,2.735-18.749-.481-.6-.992-1.33-1.6-1.967-1.291-1.344-2.589-2.688-3.966-3.944a35.085,35.085,0,0,0-10.944-6.841c-.609-.238-1.253-.386-1.863-.57l-1.468,1.224c-.287.239-.569.494-1.078.218C456.544,212.928,456.379,212.078,456.158,210.944Zm67.326,6.854-1.621-1.516c-.674.135-1.329.247-1.974.4a28.74,28.74,0,0,1-7.308.807c-2.77-.061-4.941,1.112-6.88,3.6a5.969,5.969,0,0,0,4.054.768c1.181-.153,2.352-.382,3.527-.583a13.447,13.447,0,0,1,5.109.017c.946.2,1.9.366,2.862.493a5.864,5.864,0,0,0,5.391-2.2,11.893,11.893,0,0,0-.2-1.231,4.672,4.672,0,0,0-.411-.836Zm-26.721,6.211c-.71.058-1.29.074-1.86.157a20.075,20.075,0,0,1-8.195-.018c-.646-.173-1.29-.355-1.941-.509-.333-.079-.708-.289-.973.143a10.744,10.744,0,0,0,6.021,5.575,6.882,6.882,0,0,0,1.546.184c2.169.085,4.244-.521,6.4-.771C498.4,227.005,497.474,225.692,496.763,224.009Zm-54.137-6.241a30.98,30.98,0,0,0-.619-9.181c-.049-.229-.307-.415-.432-.575-1.626,1.613-3.159,3.119-4.673,4.643a19.412,19.412,0,0,0-1.493,1.662,2.66,2.66,0,0,0-.718,2.258C436.666,219.107,439.075,219.507,442.626,217.768Zm80.11-20.947a22.59,22.59,0,0,1-7.221,4.9,1.652,1.652,0,0,0-.562.358,4.581,4.581,0,0,0-.45.724,3.367,3.367,0,0,0,.755.275,16.25,16.25,0,0,0,10.165-2.732,8.738,8.738,0,0,0,1.182-1.013c.964-.924,1.9-1.875,2.868-2.8,1.346-1.285,2.724-2.538,4.052-3.841a5.869,5.869,0,0,0,1.059-1.421c.215-.4.208-.883-.528-1.112a13.629,13.629,0,0,0-2.133,2.124c-.748.726-1.5,1.455-2.214,2.21s-1.39,1.526-2.08,2.289l-1.306-.559-2,.87Zm-13.517,5.718c-2.84-.7-5.213-1.3-7.593-1.868a4.573,4.573,0,0,0-1.75-.224,9.047,9.047,0,0,1-5.4-.966,4.976,4.976,0,0,0-.766-.22c-.19.17-.362.247-.393.363a3.286,3.286,0,0,0,.685,3.129,7.983,7.983,0,0,0,3.866,2.538c1.276.394,2.587.679,3.85,1.108a7.844,7.844,0,0,0,4.613.048c.27-.07.734.01.718-.543-1.926-.27-3.887.15-5.77-.468a3.257,3.257,0,0,1,.1-3.365C503.813,202.11,506.259,202.8,509.219,202.539Zm32.716-13.568c-.155-1-.295-1.572-.319-2.151-.025-.6-.479-1.225-.049-1.934a9.271,9.271,0,0,1,3.722,4.156c.2.443.274,1.048,1.081,1.074a6.014,6.014,0,0,0,.8-3.947c-1.276-1.109-3.048-1.253-4.438-2.463l1.725-.612c.4-1.194-.159-2.117-.469-3.1a5.351,5.351,0,0,0-2.041-1.4c-.737,1.248-.7,2.614-1,3.937a5.948,5.948,0,0,0-1.5,4.012A6.282,6.282,0,0,0,541.935,188.971ZM478.7,226.544c.07,1.281.075,2.02.156,2.751a22.22,22.22,0,0,0,3.132,9.48,3.825,3.825,0,0,0,.823.7c.748-.9.531-1.822.565-2.684.037-.969-.01-1.941.031-2.91.037-.883.141-1.763.221-2.708ZM493.777,291.6l-1.256.532a10.564,10.564,0,0,0,.452,1.316,7.689,7.689,0,0,1,.879,4.287c-.006.065.207.152.389.279a7.444,7.444,0,0,0,1.917-3.161,6.16,6.16,0,0,0-2.388-7.414c-.148-.1-.4-.053-.608-.075-.429.731.061,1.336.155,1.967C493.424,290.054,493.605,290.767,493.777,291.6Zm-51.265-70.864a3.938,3.938,0,0,0-3.177,2.509,2.992,2.992,0,0,0,1.1,3.712,3.573,3.573,0,0,0,4.124-.32C443.285,224.965,443.18,222.839,442.512,220.735ZM504.844,100.01a16.039,16.039,0,0,1,2.282,1.8,19.159,19.159,0,0,1,1.676,2.751l.256-5.584a2.329,2.329,0,0,0-2-.942A6.733,6.733,0,0,0,504.844,100.01Zm-2.819,88.132a4.111,4.111,0,0,0,.84-3.618,4.2,4.2,0,0,1,.89-3.972,2.962,2.962,0,0,0,.534-.962c.113-.343.153-.744-.336-.9a8.793,8.793,0,0,0-2.646,5.678C501.25,185.555,500.839,186.873,502.025,188.142Zm9.724-72.951c1.059-1.605.787-3.046.529-4.475-.035-.195-.24-.359-.284-.422a1.351,1.351,0,0,0-1.561,1.033A7.122,7.122,0,0,0,511.749,115.191Zm-20.94,132.573-.255-1.2c-2.511.369-2.8.476-3.755,1.407ZM553.588,112a9.451,9.451,0,0,0-3.99,2.941,36.951,36.951,0,0,0,3.956-2.2c.1-.067.126-.248.161-.383C553.729,112.309,553.673,112.235,553.588,112ZM527.037,93.994a3.608,3.608,0,0,0,2.187-2.884c.067-.243.225-.615-.352-.594Zm21.643,31.457c.638-1.4.648-1.694.272-3.7A6.022,6.022,0,0,0,548.68,125.451Zm35.391,18.009a3.055,3.055,0,0,0,2.528-.342l-.1-.941A3.392,3.392,0,0,0,584.071,143.46Zm-45.284,71.407c-.346.644-.626,1.135-.373,1.776,1.589-1.178,2.07-1.8,1.753-2.4Zm40.692-57.811c.9,1.36,1.012,1.437,1.544,1.222.329-1.042.286-1.32-.381-1.71Zm-78.638,38.186a3.906,3.906,0,0,0,2.359,1.026c.262.048.637.079.594-.509A5.213,5.213,0,0,0,500.841,195.242Zm26.974-98.034c-1.568,1.086-1.568,1.086-2.146,2.217A9.852,9.852,0,0,0,527.815,97.208Zm-26.241,47.02c.106.849-.062,1.551.978,1.24a3.177,3.177,0,0,0-.224-.776C502.241,144.542,502,144.48,501.574,144.228Zm13.289-43.308.192-.051V98.406l-.192.006Zm7.272,1.3a4.95,4.95,0,0,0,2.2-2A4.878,4.878,0,0,0,522.135,102.224Zm-9.629,161.515c.277-.487.756-.71.392-1.514C512.641,262.72,512.15,262.937,512.506,263.739Zm8.477-160.4-.134-.175a1.717,1.717,0,0,0-.506.218c-.184.167-.48.335-.187.781ZM500.5,270.667l.061.321.892-.225-.056-.251Zm36.4-80.823-.173-.229a4.681,4.681,0,0,0-.446.408c-.016.017.123.172.212.291ZM556.613,156.5l-.049.348c.069,0,.19.009.2-.016a1.847,1.847,0,0,0,.057-.343ZM495.289,271.4c.434.428.647.343.8-.281ZM514.414,95.5c.107.217.053.109,0,0ZM502.307,218.9c-.022-.058-.029-.147-.069-.166s-.113.034-.171.055c.022.058.029.147.069.166S502.249,218.924,502.307,218.9ZM413.6,171.568l.156.086.026-.129Zm124.2,16.739-.078.11.117.019ZM416.479,168.95l.179-.081-.174-.086Z" class="cls-1"/><path d="M1270.494,232.026a11.377,11.377,0,0,1-1.571.347c-.893.049-1.791.033-2.687.033q-208.19,0-416.379,0a14.535,14.535,0,0,1-3.873-.227l-.5-1.31c.2-.2.285-.377.4-.4a8.955,8.955,0,0,1,1.325-.148c.821-.023,1.643-.009,2.464-.009q207.407,0,414.812-.01a7.98,7.98,0,0,0,3.388-.293,11.117,11.117,0,0,0,.235-1.283c.042-.595.018-1.194.018-1.791q0-68.091-.005-136.181a9.969,9.969,0,0,0-.238-3.234,7.126,7.126,0,0,0-1.418-.386c-.966-.067-1.94-.035-2.91-.035H756.012c-1.194,0-2.389,0-3.583-.018a9.018,9.018,0,0,1-4.669-1.347c-.158-.1-.23-.333-.383-.566.249-.123.431-.291.613-.291q260.6-.013,521.2.01a4.283,4.283,0,0,1,1.112.334,9.155,9.155,0,0,1,.291,1.3c.052.668.03,1.342.03,2.014q0,70.105-.005,140.212C1270.618,229.781,1270.542,230.813,1270.494,232.026Z" class="cls-1"/><path d="M794.85,154.759a44.854,44.854,0,0,1,6.417-.1,2.962,2.962,0,0,1,.81.258,4.441,4.441,0,0,1-.366,2.671,91.034,91.034,0,0,1-6.8,15.568,69.683,69.683,0,0,1-7,10.92,45.018,45.018,0,0,1-4.328,4.517,6.365,6.365,0,0,1-4.689,1.783,5.73,5.73,0,0,1-4.01-1.7,9.714,9.714,0,0,1-2.67-5.791c-.232-1.694-.278-3.414-.4-5.123-.026-.356-.04-.713-.064-1.158-.767.217-.96.825-1.274,1.284a74.956,74.956,0,0,1-9.614,11.486,54.875,54.875,0,0,1-11.788,8.844,32.208,32.208,0,0,1-15.125,4.364c-6.529.089-12.381-1.745-16.879-6.8a18.486,18.486,0,0,1-4.494-9.595c-.186-1.167-.292-2.352-.58-3.516l-1.362-.452c-.92-.305-1.873-.536-2.754-.929-5.294-2.363-7.984-6.539-8.3-12.258-.388-7,2.426-12.778,6.975-17.853,5.054-5.638,11.453-9,18.706-10.824a46.126,46.126,0,0,1,11.294-1.388c.809,0,1.619-.056,2.452-.088.3-.56.569-1,.769-1.467,3.6-8.42,10.2-13.182,18.837-15.418a24.025,24.025,0,0,1,4.635-.71,17.318,17.318,0,0,1,7.9,1.175,7.235,7.235,0,0,1,4.726,5.79,8.222,8.222,0,0,1-.58,4.167,14.114,14.114,0,0,1-7.584,8.129,22.555,22.555,0,0,1-4.011,1.375,41.654,41.654,0,0,1-13.354.713,3.5,3.5,0,0,0-2.34.117,3.877,3.877,0,0,0-.184,1.151,6.217,6.217,0,0,0,3.161,4.875,11.6,11.6,0,0,0,4.455,1.385c.571.071,1.131.227,1.649.335.1,1.308-.1,1.811-.935,2.087a16.876,16.876,0,0,1-2.4.547,46.957,46.957,0,0,0-13.572,4.39,32.107,32.107,0,0,0-12.837,11.528,27.028,27.028,0,0,0-3.059,7.183,1.4,1.4,0,0,0,.224,1.558c1.578.5,3.127-.244,4.718-.483,1.559-.234,2.7-1.559,4.214-1.7a1.469,1.469,0,0,1,.851,1.557,1.761,1.761,0,0,1-.961,1.425,10.448,10.448,0,0,1-1.615.765c-1.9.672-3.808,1.311-5.716,1.953-.7.235-1.4.446-2.121.672a3.879,3.879,0,0,0-.233.941c.159,4.265,1.443,8.085,4.707,10.995a12.4,12.4,0,0,0,10.148,3.055,27.1,27.1,0,0,0,11.578-4.478,55.71,55.71,0,0,0,8.419-6.658,117.925,117.925,0,0,0,13.185-15.212,11.245,11.245,0,0,0,1.808-4.045c.7-2.744,1.484-5.469,2.306-8.18a11.33,11.33,0,0,1,1.522-3.42,33.585,33.585,0,0,1,9.39-.1c.356.647.043,1.262-.174,1.879-.743,2.111-1.529,4.208-2.23,6.333a90.1,90.1,0,0,0-3.563,13.858c-.261,1.618-.41,3.255-.578,4.887a1.736,1.736,0,0,0,.641,1.714,3.2,3.2,0,0,0,.836-.593c.872-1.207,1.769-2.407,2.523-3.689a106.958,106.958,0,0,0,5.545-11.236,101.61,101.61,0,0,0,4.519-11.924A10.506,10.506,0,0,1,794.85,154.759Zm-56.314-12.6a3.591,3.591,0,0,0-2.229-.4,36.817,36.817,0,0,0-7.118.642,28.5,28.5,0,0,0-15.605,8.611c-3.867,4.267-6.016,9.233-5.62,15.081a12.169,12.169,0,0,0,4.246,8.826,6.655,6.655,0,0,0,1.171.631c.305-.592.546-1.044.774-1.5.43-.867.8-1.767,1.287-2.6a35.111,35.111,0,0,1,10.568-11.394,48.423,48.423,0,0,1,20.618-8.15,7.229,7.229,0,0,0,1-.3c-1.488-.622-2.958-1.157-4.354-1.841a6.55,6.55,0,0,1-3.154-3.078C739.478,145.282,739.088,143.764,738.536,142.155Zm9.667-3.061a8.427,8.427,0,0,0,1.53.369c1.341.027,2.685.009,4.027-.028a23.381,23.381,0,0,0,9.674-2.459,15.01,15.01,0,0,0,5.094-4.285,8.678,8.678,0,0,0,1.772-4.528,3.952,3.952,0,0,0-3.871-4.687,12.44,12.44,0,0,0-7.677,1.927,24.3,24.3,0,0,0-9.887,11.525A22.158,22.158,0,0,0,748.2,139.094Z" class="cls-1"/><path d="M835.551,154.9a32.227,32.227,0,0,1,9.527.1c-.041,2.041-1.348,3.723-1.726,5.689.593.105.714-.437.974-.716a20.271,20.271,0,0,1,5.24-4.157,9.932,9.932,0,0,1,8.014-.718A5.236,5.236,0,0,1,861.22,159a10.186,10.186,0,0,1,.17,4.213,33.729,33.729,0,0,1-1.941,6.88c-1.143,3-2.3,5.99-3.4,9.005A25.791,25.791,0,0,0,855,182.751c-.173.846-.349,1.805.616,2.455a3.091,3.091,0,0,0,2.439-.86,22.355,22.355,0,0,0,2.807-2.552,94.786,94.786,0,0,0,8.928-12.316,8.661,8.661,0,0,0,.759-1.618q1.979-5.115,3.925-10.243c.23-.609.38-1.249.576-1.907-1.5-.975-3.245.037-4.589-.875a5.832,5.832,0,0,1,1.266-3.764c1.628-.805,3.528.037,5.384-.723,1.2-2.614,2.164-5.43,3.237-8.2s2.161-5.554,3.163-8.128a3.243,3.243,0,0,1,2.536-.677c2.358.085,4.751-.311,7.115.34a3.581,3.581,0,0,1-.435,2.457c-1.288,3.423-2.6,6.834-3.915,10.248-.348.906-.733,1.8-1.054,2.712a9.4,9.4,0,0,0-.262,1.353c2.352.615,4.715-.129,7.031.559a4.834,4.834,0,0,1-.021,1.334c-.265.843-.641,1.652-.991,2.524-2.61.806-5.276.03-7.655.52a3.764,3.764,0,0,0-1.346,2.209q-2.706,6.994-5.366,14.007c-.958,2.509-1.9,5.024-2.865,7.532a12.467,12.467,0,0,0-.931,4.356,1.76,1.76,0,0,0,.534,1.648,1.7,1.7,0,0,0,1.666-.293,21.1,21.1,0,0,0,2.625-2.074,46.865,46.865,0,0,0,5.915-7.295c1.977-2.9,3.886-5.843,5.831-8.763a15.978,15.978,0,0,1,1.181-1.629,4.648,4.648,0,0,1,1.059-.642c.14.5.351.852.3,1.152a8.154,8.154,0,0,1-.58,1.918,65.3,65.3,0,0,1-11.1,17.515,38.312,38.312,0,0,1-3.62,3.329,9.564,9.564,0,0,1-2.107,1.258c-5.469,2.552-11.077-1.03-11.1-7.073,0-.487.042-.974.081-1.814-.716.91-1.173,1.583-1.724,2.17-1.53,1.631-3.058,3.268-4.665,4.821a10.033,10.033,0,0,1-4.03,2.349,7.544,7.544,0,0,1-4.626.035,7.236,7.236,0,0,1-5.3-6.988,16.369,16.369,0,0,1,1.229-6.557c.959-2.589,1.985-5.153,2.963-7.735.607-1.605,1.237-3.2,1.743-4.841a10.518,10.518,0,0,0,.369-2.64,3.553,3.553,0,0,0-.4-1.189,3.066,3.066,0,0,0-2.792.776,22.831,22.831,0,0,0-2.869,2.8,45.694,45.694,0,0,0-5.7,9.091c-2.23,4.475-4.309,9.024-6.455,13.54a16.852,16.852,0,0,1-2.091,3.858,31.325,31.325,0,0,1-9.373.026,8.71,8.71,0,0,1,.228-1.628c.62-1.75,1.3-3.48,1.962-5.236-.592-.247-.675.25-.889.462-.745.732-1.444,1.51-2.189,2.243a14.274,14.274,0,0,1-7.405,3.918,20.738,20.738,0,0,1-7.127.19c-4.664-.689-7.506-3.975-7.813-8.719a25.815,25.815,0,0,1,.528-6.455,38.994,38.994,0,0,1,4.747-12.734,17.685,17.685,0,0,1,5.548-6.059,11.9,11.9,0,0,1,11.757-.767,7.437,7.437,0,0,1,3.945,8.46,11.653,11.653,0,0,1-1.66,3.891,14.43,14.43,0,0,1-6.516,5.621c-2.453,1.045-4.9,1.383-7.2-.751a5.257,5.257,0,0,0-.59.97,24.548,24.548,0,0,0-1.379,7.218,4.977,4.977,0,0,0,6.374,4.937,10.426,10.426,0,0,0,4.453-2.462,42.565,42.565,0,0,0,6.061-7.168c.087-.121.168-.246.252-.37,4.718-6.957,4.717-6.957,7.688-14.825.553-1.466,1.1-2.935,1.675-4.393C835.006,155.979,835.317,155.4,835.551,154.9Zm-15.133,4.228a2.959,2.959,0,0,0-2.664.608,10.442,10.442,0,0,0-1.96,1.8,30.468,30.468,0,0,0-4.09,6.886,2.385,2.385,0,0,0,.02,2.418,2.686,2.686,0,0,0,2.391.739,7.238,7.238,0,0,0,3.29-1.288,12.947,12.947,0,0,0,3.763-4.635,7.881,7.881,0,0,0,.757-3.9A2.968,2.968,0,0,0,820.418,159.123Z" class="cls-1"/><path d="M1066.995,184.826a1.6,1.6,0,0,0,1.962-.041,13.216,13.216,0,0,0,2.446-1.931c1.829-2.063,3.6-4.183,5.29-6.362a56.863,56.863,0,0,0,3.269-4.814,16.587,16.587,0,0,0,1.324-2.822,30.028,30.028,0,0,1,4.413-8.257,17.424,17.424,0,0,1,5.74-4.9,11.409,11.409,0,0,1,7.638-.851,8.79,8.79,0,0,1,7.141,8.6,28.516,28.516,0,0,1-.684,7.331,21.348,21.348,0,0,0-.772,3.859,10.9,10.9,0,0,0,4.92-2.3,14.1,14.1,0,0,0,4.762-6.612c.956-2.979,2.193-5.868,3.325-8.79.267-.69.6-1.353.87-1.949a32.535,32.535,0,0,1,9.515-.081c.229,2-1.289,3.545-1.5,5.466.6-.1.767-.648,1.1-1a17.732,17.732,0,0,1,4.38-3.441,11.483,11.483,0,0,1,7.152-1.245,5.76,5.76,0,0,1,5.205,4.809,12.812,12.812,0,0,1-.932,7.295c-.178.127-.4.4-.662.455q-4.8,1.083-9.608,2.1a2.745,2.745,0,0,1-.805-.063c-.233-.819.337-1.2.661-1.659a11.77,11.77,0,0,0,2.152-4.631,7.916,7.916,0,0,0,.119-1.772,1.376,1.376,0,0,0-.929-1.187,4.439,4.439,0,0,0-3.195,1.363,23.275,23.275,0,0,0-2.443,2.608,47.742,47.742,0,0,0-5.53,8.931c-2.127,4.273-4.108,8.62-6.152,12.934a19.11,19.11,0,0,1-2.324,4.337,30.922,30.922,0,0,1-9.014.089,1.308,1.308,0,0,1-.189-1.586c.733-1.956,1.482-3.906,2.226-5.858.845-2.217,1.692-4.434,2.633-6.9a8.772,8.772,0,0,0-2.506,1.263c-.813.373-1.593.82-2.411,1.181s-1.662.655-2.685,1.052c-.267.424-.613.989-.975,1.544-.9,1.374-1.74,2.787-2.714,4.1a14.373,14.373,0,0,1-4.539,3.928,10.843,10.843,0,0,1-7.368,1.18,8.076,8.076,0,0,1-6.065-4.5,17.857,17.857,0,0,1-1.244-3.574c-.281-1.074-.376-2.2-.551-3.288-.549-.176-.649.291-.854.551-1.386,1.757-2.669,3.6-4.159,5.264a37.007,37.007,0,0,1-4.1,3.79,8.841,8.841,0,0,1-4.242,1.907,7.369,7.369,0,0,1-8.569-6.007c-.527-2.679.163-5.195,1.024-7.664.958-2.746,2.048-5.446,3.087-8.164q6.235-16.305,12.479-32.608c.289-.755.63-1.491.9-2.118a26.538,26.538,0,0,1,9.477-.112c.39.5.121.982-.064,1.467q-2.033,5.333-4.062,10.666-6.112,15.993-12.224,31.987a29.569,29.569,0,0,0-1.146,3.39A4.95,4.95,0,0,0,1066.995,184.826Zm31.831-25.357a5.191,5.191,0,0,0-1.369.193,3.245,3.245,0,0,0-1.025.837,20.914,20.914,0,0,0-3.708,6.054,3.692,3.692,0,0,0-.3,1.512,5.056,5.056,0,0,0,1.22,3.053,5.553,5.553,0,0,0,2.919,2.195c1.023-1.532,2.213-5.412,2.587-8.754A9.273,9.273,0,0,0,1098.826,159.469Zm-9.443,16.135a16.98,16.98,0,0,0-1.151,8.316,1.44,1.44,0,0,0,.985,1.36c1.5-.35,1.82-.45,2.6-1.493,1.046-1.4,2.25-2.736,2.51-4.419Z" class="cls-1"/><path d="M1207.945,133.6a4.141,4.141,0,0,1-.419,2.451q-5.16,13.482-10.319,26.965c-2.027,5.3-4.064,10.587-6.067,15.891a33.429,33.429,0,0,0-.972,3.209,4.039,4.039,0,0,0,.024,2.511,1.631,1.631,0,0,0,2.162.182,10.725,10.725,0,0,0,3.41-2.86c1.907-2.391,3.84-4.767,5.614-7.255,1.862-2.611,3.542-5.351,5.32-8.022.523-.785.935-1.7,1.869-2a.7.7,0,0,1,.634.866,10.262,10.262,0,0,1-.636,2.124,73.235,73.235,0,0,1-8.236,14.076,32.218,32.218,0,0,1-6.383,6.554,13.479,13.479,0,0,1-2.916,1.615,7.52,7.52,0,0,1-7.605-1.163c-1.746-1.273-2.356-3.207-2.625-5.257-.086-.652-.074-1.317-.106-1.947-.6-.177-.724.278-.931.539a34,34,0,0,1-5.9,6.094,11.163,11.163,0,0,1-3.526,1.907,7.768,7.768,0,0,1-7.371-1.448,6.046,6.046,0,0,1-1.918-2.711c-.231-.612-.426-1.238-.71-2.07-.507.553-.914.95-1.267,1.391a23.306,23.306,0,0,1-3.985,3.9,6.593,6.593,0,0,1-9.381-1.9,11.031,11.031,0,0,1-1.6-5.752,32.959,32.959,0,0,1,.461-5.786,37.78,37.78,0,0,1,5.111-13.761,18.655,18.655,0,0,1,4.956-5.413c3.391-2.4,7.056-2.59,10.873-1.331a10.98,10.98,0,0,1,2.123,1.215c.365.222.705.485,1.164.8.514-.865.96-1.616,1.377-2.316a34.443,34.443,0,0,1,9.366.024c.362.784-.094,1.456-.343,2.131-.9,2.449-1.858,4.88-2.79,7.32q-2.835,7.422-5.658,14.849a16.929,16.929,0,0,0-.792,2.562,4.563,4.563,0,0,0,.063,2.979,1.583,1.583,0,0,0,1.966.081,9.666,9.666,0,0,0,1.982-1.438c1.261-1.268,2.488-2.579,3.632-3.953,1.049-1.26,2-2.6,2.943-3.948,4.084-5.84,4.069-5.848,6.643-12.594q5.068-13.278,10.16-26.547c.319-.833.681-1.651.965-2.335a2.563,2.563,0,0,1,2-.68C1202.823,133.391,1205.358,133.09,1207.945,133.6Zm-42.831,25.978a2.458,2.458,0,0,0-2.76.571,23.261,23.261,0,0,0-2.771,3.2,44.089,44.089,0,0,0-6.646,17.192,9.937,9.937,0,0,0-.047,2.229,1.175,1.175,0,0,0,.885,1.154,2.594,2.594,0,0,0,1.732-.948,32.683,32.683,0,0,0,2.4-2.647,55.278,55.278,0,0,0,5.768-9.306,30.942,30.942,0,0,0,2.483-6.937A4.627,4.627,0,0,0,1165.114,159.578Z" class="cls-1"/><path d="M456.673,49.623l1.481.128c.776-2.244.982-4.9,3.791-5.988l2.062.878c.948-.473,1.148-1.459,1.5-2.342.767-1.941,1.526-3.886,2.3-5.824.051-.128.188-.222.4-.463.4.168.861.336,1.3.553.391.194.756.441,1.26.741.379-.523.745-.97,1.049-1.456,1.028-1.645,2-3.326,3.058-4.95a18.715,18.715,0,0,1,3.692-4.185A6.857,6.857,0,0,1,481.789,25a4.465,4.465,0,0,1,.066,1.142,7.293,7.293,0,0,0,.329,3.969,60.63,60.63,0,0,0,2.211,5.855,54.874,54.874,0,0,0,6.57,11.168,10.51,10.51,0,0,1,1.757,3.836,10.115,10.115,0,0,0,2.537,5.132c.707,1.518-.5,2.719-.7,4.14l1.139.93c-.173,1.267-1.069,2.028-1.725,3.114l.768.981c-.07,1.168-.929,1.955-1.577,2.919a8.618,8.618,0,0,1-1.644,4.308,17.848,17.848,0,0,1-6.231-4.146c-.887-.121-1.34.423-1.811.881a29.616,29.616,0,0,0-5.124,6.756c-.433.767-.875,1.529-1.439,2.514-1.189-1.794-2.165-3.436-3.311-4.95a41.436,41.436,0,0,0-3.788-4.406,36.626,36.626,0,0,0-4.594-3.909,37.527,37.527,0,0,0-5.036-2.9c-1.727-.857-3.546-1.531-5.32-2.284a6.877,6.877,0,0,1-.029-4.931l1.325-.649C456.481,52.856,455.711,51.148,456.673,49.623Z" class="cls-1"/><path d="M1068.726,130.839a6.333,6.333,0,0,1-.964.774c-7,3.451-11.966,9.052-16.143,15.436a121.925,121.925,0,0,0-10.176,20.151,14.238,14.238,0,0,0-.438,1.461c1.622.307,2.856.037,9.619-1.9a29.167,29.167,0,0,0,8.5-4.059c.759.166.836.6.77,1.07a9.7,9.7,0,0,1-3.335,6.158,16.313,16.313,0,0,1-4.175,2.574,31.852,31.852,0,0,1-7.743,2.128l-6.458,1.062c-.354.8-.675,1.551-1.007,2.291-1.468,3.266-2.848,6.575-4.439,9.779a60.572,60.572,0,0,1-3.745,6.357c-3.554,5.392-8.767,8.153-15.01,9.156a22.993,22.993,0,0,1-7.794.034,9.931,9.931,0,0,1-8.451-8.382,11.958,11.958,0,0,1,.5-4.639,14.3,14.3,0,0,1,3.73-6.534,26.629,26.629,0,0,1,6.782-5.074,71.375,71.375,0,0,1,14.561-5.677c1.79-.507,3.59-.98,5.243-1.43a5.048,5.048,0,0,0,1.294-2.238c2.092-4.946,4.1-9.93,6.314-14.823a66.511,66.511,0,0,1,7.414-12.746,35.582,35.582,0,0,1,6.829-7.054,22.619,22.619,0,0,1,15.938-4.686A3.887,3.887,0,0,1,1068.726,130.839Zm-42.579,47.186a4.792,4.792,0,0,0-1.21-.089,67.6,67.6,0,0,0-11.316,3.5,34.255,34.255,0,0,0-7.7,4.527,12.61,12.61,0,0,0-3.432,3.8,6.979,6.979,0,0,0-.957,4.944,6.013,6.013,0,0,0,5.561,4.734,10.271,10.271,0,0,0,7.826-2.671,27.32,27.32,0,0,0,5.759-7.1,89.01,89.01,0,0,0,4.782-9.618C1025.719,179.46,1025.881,178.821,1026.147,178.025Z" class="cls-1"/><path d="M959.135,180.626l-.918,1.078a2.894,2.894,0,0,1-.738-.243c-5.445-4.022-5.192-10.747-.827-14.962,3.562-3.438,7.831-4.122,12.461-2.661a12.744,12.744,0,0,1,8.672,14.206c-1.141,6.98-5.31,11.438-11.881,13.512a23.238,23.238,0,0,1-20.391-2.6c-.313-.2-.632-.395-.958-.576a4.625,4.625,0,0,0-.61-.209c-.441.306-.991.663-1.515,1.055a25.7,25.7,0,0,1-9.2,4.455,18.084,18.084,0,0,1-11.63-.819,14.925,14.925,0,0,1-9.425-11.15,15.991,15.991,0,0,1,1.307-10.049,25.241,25.241,0,0,1,4.4-6.451,34.479,34.479,0,0,1,6.744-5.861c1.874-1.222,3.811-2.347,5.728-3.5.635-.383,1.292-.729,2.023-1.138q.34-1.281.685-2.57a25.963,25.963,0,0,1,4.561-9.4,21.5,21.5,0,0,1,13.962-8.139,9.662,9.662,0,0,1,5.886.9,4.878,4.878,0,0,1,2.794,5.538,11.087,11.087,0,0,1-3.921,6.356,26.464,26.464,0,0,1-5.934,3.985c-2.757,1.325-5.552,2.57-8.329,3.853-.67.309-1.335.63-1.758.83a3.393,3.393,0,0,0-.709,2.582,52.807,52.807,0,0,0,3.639,18.788,25.508,25.508,0,0,0,3.308,5.828,15.347,15.347,0,0,0,9.11,6.084,14.432,14.432,0,0,0,9.2-.85,11.213,11.213,0,0,0,6.409-7.886,15.31,15.31,0,0,0-.223-8.4,10.212,10.212,0,0,0-2.5-4.193,5.949,5.949,0,0,0-3.76-1.805,8.305,8.305,0,0,0-8.708,5.612,7.161,7.161,0,0,0,1.407,6.917C957.954,179.319,958.463,179.857,959.135,180.626ZM931.4,161.385a3.172,3.172,0,0,0-.737.271,34.724,34.724,0,0,0-9.169,9.68,15.915,15.915,0,0,0-1.624,12.513,9.157,9.157,0,0,0,8.952,7.073,18.268,18.268,0,0,0,11.96-4.241,4.648,4.648,0,0,0,.628-.8c-.462-.61-.879-1.211-1.346-1.769a34.983,34.983,0,0,1-7.982-20.246A4.174,4.174,0,0,0,931.4,161.385Zm9.222-10.312c.667-.2,1.021-.275,1.353-.407a82.8,82.8,0,0,0,11.184-5.578,14.377,14.377,0,0,0,2.336-1.715,9.756,9.756,0,0,0,1.744-2.015,2.919,2.919,0,0,0-2.888-4.714,2.629,2.629,0,0,0-.443.054,14.372,14.372,0,0,0-4.409,1.539,18.306,18.306,0,0,0-8.76,11.63A9.859,9.859,0,0,0,940.619,151.073Z" class="cls-1"/><path d="M1029,148.558a2.147,2.147,0,0,1,1.951-1.818,2.179,2.179,0,0,1,1.824,1.827,12.132,12.132,0,0,1-.429,7.686,15.12,15.12,0,0,1-3.166,5.1,21.794,21.794,0,0,1-15.25,7.027,18.909,18.909,0,0,1-5.114-.279c-5.737-1.332-8.96-5.171-9.939-11.05a21.5,21.5,0,0,1,.768-9.5,33.547,33.547,0,0,1,10.621-16.262,45.969,45.969,0,0,1,21.107-10.247,65.842,65.842,0,0,1,17.8-1.247c3.565.216,7.114.717,10.667,1.115,3.035.339,6.062.755,9.1,1.062,4.448.45,8.895,1,13.356,1.2a101.619,101.619,0,0,0,14.087-.165,87.176,87.176,0,0,0,9.944-1.442,36.651,36.651,0,0,0,10.026-3.728,9.516,9.516,0,0,1,1.219-.548c.107-.04.268.061.434.105.379.615-.036,1.145-.275,1.65a19.663,19.663,0,0,1-10.007,9.813,30.116,30.116,0,0,1-10.662,2.28,56.739,56.739,0,0,1-10.927-.659c-7.257-.968-14.346-2.735-21.463-4.38-4.211-.973-8.418-2-12.674-2.734-8.3-1.427-16.507-1.134-24.413,2.121a29.685,29.685,0,0,0-17.571,19.126,31.735,31.735,0,0,0-1.544,12.575,11.255,11.255,0,0,0,.963,3.889,6.325,6.325,0,0,0,5.95,3.965c5.313.184,12.133-3.994,13.723-10.538a12.813,12.813,0,0,0,.094-4.669C1029.145,149.387,1029.062,148.949,1029,148.558Z" class="cls-1"/><path d="M406.076,134.735l2.837-.094.026.19,1.416-.5.746-1.24,1.266-.067c-.139-.879-1.218-1.254-1.014-2.193l-.023.044,3.4,1.139c.274-.514.6-1.047.848-1.616a8.142,8.142,0,0,0,.542-1.672c.123-.649.129-1.32.222-2.407.554,2.175-.132,4,.24,5.784a2.761,2.761,0,0,0,.747.026,5.027,5.027,0,0,0,.816-.385,17.157,17.157,0,0,0,.649-4.423,5.437,5.437,0,0,0-1.411-3.685,7.435,7.435,0,0,0-2.895-2.39,5.923,5.923,0,0,1-3.042-2.968c.188-.575.41-1.2.593-1.839a5.228,5.228,0,0,0,.393-1.73c-.156-1.925.777-3.443,1.672-4.992.521-.9,1.085-1.778,1.567-2.7a14.157,14.157,0,0,1,6.533-6.2,44.4,44.4,0,0,0,5.625-3.507l.466-1.487c1.53-1.437,3.585-1.187,5.351-2,.1-.365.207-.776.317-1.188,6.237-1.577,18.72,1.395,22.921,5.557a5.4,5.4,0,0,1-.9-.007c-2.852-.544-5.7-1.107-8.554-1.648a4.622,4.622,0,0,0-1.333-.1c-3.186.343-6.386.611-9.547,1.115A24.38,24.38,0,0,0,429.374,100a18.831,18.831,0,0,0-4.677,3.424,11.541,11.541,0,0,0-3.4,8.013,3.6,3.6,0,0,0,.818-.4c.692-.656,1.176-1.558,2.15-1.819,2.54.746,5.024,1.491,7.517,2.2,1.5.43,3.043.745,4.529,1.225a47.586,47.586,0,0,0,10.408,2.427,18.065,18.065,0,0,1,2.835.614,4.558,4.558,0,0,1,.955.628,4.25,4.25,0,0,1-1.052.244c-.877-.1-1.747-.257-2.3-.342a3.245,3.245,0,0,0-2.087,2.2c-1.307.961-2.431,1.695-3.443,2.559a8.742,8.742,0,0,0-2.391,3.475c-.486,1.227-.866,2.5-1.334,3.867-1.634-.72-3.061-1.628-4.835-1.43a6.685,6.685,0,0,0-3.469,2.543c-1.161.2-2.268.335-3.349.584a9.1,9.1,0,0,0-5.335,3.45,8.357,8.357,0,0,1-.84,1.042c-.538.508-1.126.962-1.683,1.431l-1.207-.324a13.887,13.887,0,0,1-2.984,5.112c-.611-.186-.42-.716-.357-1.085.189-1.095.46-2.175.732-3.406-.424-.173-.811-.479-1.173-.452a13.952,13.952,0,0,0-2.856.471,3.652,3.652,0,0,1-3.529-.85c-.29-.234-.583-.463-.875-.694Z" class="cls-1"/><path d="M550.128,39.257l-.432,1.229a3.693,3.693,0,0,0,2.216,1.965c.451-.075.965-.137,1.469-.248,2.325-.513,4.656-1.009,6.969-1.573.986-.241,1.936-.634,2.908-.96a6.371,6.371,0,0,0,2.106-.039,18.091,18.091,0,0,1,4.4-.7c2.073-.226,4.156-.347,6.236-.506a18.7,18.7,0,0,1,5.319.547,67.4,67.4,0,0,1,11.809,3.316c1.025.423,2.039.874,3.161,1.357a7.093,7.093,0,0,1-.315,1.334,8.429,8.429,0,0,0-.7,4.14,12.7,12.7,0,0,1-.392,4.651c-.088.275-.218.536-.366.893-2.734.138-5.569-.147-7.839,1.8a5.741,5.741,0,0,0-.445,2.856c-.013.731.165,1.5-.4,2.137l.034.045a17.71,17.71,0,0,1-.115-2.45c.107-1.246.357-2.479.621-4.209a4.8,4.8,0,0,0-2.042-2.534c-1.307-1-2.825-.776-4.279-.325a22.542,22.542,0,0,0-2.288.988c-.336-.213-.632-.428-.952-.6a4.615,4.615,0,0,0-3.24-.461,8.612,8.612,0,0,0-4.5,2.331,5.7,5.7,0,0,0-1.743,5.089c.257,1.529.707,3.025,1.107,4.686l-1.778.238c-.462-.644-.893-1.238-1.318-1.837a22.454,22.454,0,0,0-5.593-5.723,8.677,8.677,0,0,0-5.6-1.886,5.548,5.548,0,0,1-1.152-.172A8.158,8.158,0,0,1,553,53.27a7.526,7.526,0,0,0-3.6-8.231c-1.479-.987-2.8-2.214-4.179-3.324L544,39.672,540.324,38.2l-1.34,1.121c.412-1.835.614-2.112,2.235-3.163l-.043-.041-.07,1.269,2.489.728,2.123-.148,1.492,1.187a5.048,5.048,0,0,0,2.959.155Z" class="cls-1"/><path d="M1019.884,105.873c-.331-5.815,4.081-12.035,11.341-13.118a19.661,19.661,0,0,1,9.462.784c5.725,1.96,8.361,6.994,8.041,12.547a14.013,14.013,0,0,1-.63,3.283c-1.491,4.827-4.829,7.753-9.626,9.081a16.888,16.888,0,0,1-9.056-.038A12.664,12.664,0,0,1,1019.884,105.873Zm23.461.647c-.212-1.391-.318-2.809-.657-4.169-.932-3.732-4.068-8.015-10.167-7.513a6.845,6.845,0,0,0-6.33,4.52,15.892,15.892,0,0,0-.806,3.685,13.56,13.56,0,0,0,1.489,8.422,9.11,9.11,0,0,0,8.488,5.152,6.737,6.737,0,0,0,6.968-4.827A16.376,16.376,0,0,0,1043.345,106.52Z" class="cls-1"/><path d="M475.52,81.1c-.934,1.95-1.771,3.781-2.682,5.576a19.878,19.878,0,0,0-1.746,4.828,38.056,38.056,0,0,0-1.246,9.515c.023.568-.088,1.224.747,1.623L472,101.248l.7.57c-.526.542-.959,1.025-1.431,1.468a4.081,4.081,0,0,0-1.289,3.647q.518,4.558,1,9.121c.117,1.11.182,2.225.261,3.216l-1.879,3.433c-.552-.147-.433-.59-.462-.9-.1-1.112-.163-2.229-.231-3.345-.2-3.277-.389-6.555-.593-9.832a4.419,4.419,0,0,0-2.789-4.22,2.224,2.224,0,0,1-.684-.546c-.088-.09-.084-.27-.159-.551l2.045-.613a2.884,2.884,0,0,0,1.268-2.5c.217-3.722.446-7.443.635-11.166a10.434,10.434,0,0,0-.2-1.737,16.433,16.433,0,0,1-6.867-2.687c.615-.874,1.227-1.615,1.69-2.44a27.1,27.1,0,0,0,1.142-2.655V76.959a5.4,5.4,0,0,0,.6-5.063,5.478,5.478,0,0,1-.214-2.426,11.228,11.228,0,0,0,.013-1.546c-1.173-1.791-2.854-2.074-4.732-1.706-.865.169-1.7.485-2.592.747-.944-1.4-1.842-2.733-2.819-4.181l.63-.7c2.544.331,6.993,2.591,10.036,4.874A32.468,32.468,0,0,1,475.52,81.1Z" class="cls-1"/><path d="M1090.968,108.435H1088.3c-.6,1.467-.646,2.021-.469,6.033a2.88,2.88,0,0,0,.783,2.424l2.4.8c-.2.314-.277.57-.429.631a2.98,2.98,0,0,1-1.07.242q-3.919.029-7.837,0c-.5,0-1.076.018-1.273-.791l1.992-1.026a11.852,11.852,0,0,0,.338-1.687c.128-2.084.259-4.171.286-6.258.045-3.433.017-6.867,0-10.3a7.976,7.976,0,0,0-.681-3.765l-2.374-.884c-.093-.624.242-.806.612-.861a10.963,10.963,0,0,1,1.56-.092c2.537-.011,5.077-.065,7.612.009a23.267,23.267,0,0,1,4.435.482,6.027,6.027,0,0,1,4.689,7.986,11.806,11.806,0,0,1-1.485,2.732,12.208,12.208,0,0,1-1.36,1.48c-.3.324-.591.656-.882.98a2.043,2.043,0,0,0,.2.686c2.023,2.393,4.047,4.785,6.1,7.15a8.049,8.049,0,0,0,4.683,2.867,3.713,3.713,0,0,1,.774.323c.184.528-.076.822-.467.864a15.907,15.907,0,0,1-6.432-.331,7.537,7.537,0,0,1-3.521-2.671c-1.326-1.614-2.573-3.293-3.859-4.939C1092.088,109.82,1091.526,109.133,1090.968,108.435Zm1.547-2.813a6.345,6.345,0,0,0,1.3-7.715,4.219,4.219,0,0,0-5.726-2.2,39.645,39.645,0,0,0-.281,8.636,6.676,6.676,0,0,0,.318,1.23A7.031,7.031,0,0,0,1092.515,105.622Z" class="cls-1"/><path d="M880.113,92.452c.938.292,1.181,1.038,1.481,1.7.583,1.29,1.116,2.6,1.665,3.909q3.075,7.32,6.151,14.64c.289.686.619,1.356.94,2.029a4.28,4.28,0,0,0,3.125,2.622,5.6,5.6,0,0,1,.788.268c.194.562-.145.736-.5.843a3.082,3.082,0,0,1-.882.118c-1.939,0-3.878,0-5.816-.049a7.576,7.576,0,0,1-1.454-.316,21.069,21.069,0,0,0-.374-2.674,23.437,23.437,0,0,0-1.036-2.714c-.337-.824-.7-1.636-1.023-2.375a19.055,19.055,0,0,0-7.8-.123,17.156,17.156,0,0,0-.821,1.646c-.478,1.25-.922,2.514-1.318,3.792a3.448,3.448,0,0,0,.061,1.134l1.894.994c-.408.279-.636.569-.866.571q-3.795.042-7.59-.017c-.208,0-.412-.316-.722-.57.812-.714,1.806-.632,2.627-1.168a6.468,6.468,0,0,0,1.8-2.926q3.087-7.314,6.143-14.642c.693-1.65,1.385-3.3,2.1-4.939C878.981,93.536,879.2,92.782,880.113,92.452Zm-1.137,8.321c-.726,1.861-1.463,3.718-2.165,5.588a4.749,4.749,0,0,0-.116,1.119,14.007,14.007,0,0,0,5.07-.157A18.525,18.525,0,0,0,878.976,100.773Z" class="cls-1"/><path d="M789.521,223.77l1.671-1.093c.439-2.405.431-15.471.032-17.363-.4-.927-1.643-.421-2.059-1.484.284-.127.521-.327.759-.327,4.1-.011,8.2-.067,12.3.051a14.045,14.045,0,0,1,3.908.865,9.553,9.553,0,0,1,6.331,10.183,10.464,10.464,0,0,1-8.6,9.606,20.128,20.128,0,0,1-6,.479c-2.152-.155-4.313-.2-6.469-.315A2.058,2.058,0,0,1,789.521,223.77Zm6.675-2.023c.364.269.534.416.725.529a1.832,1.832,0,0,0,.608.278c2.637.394,5.21.327,7.558-1.161a5.832,5.832,0,0,0,2.417-3.122,11.378,11.378,0,0,0,.491-4.642,8.168,8.168,0,0,0-4.865-7.231,10.966,10.966,0,0,0-6.552-.832c-.2.03-.37.229-.6.379a3.849,3.849,0,0,0-.184.836c-.01,4.4-.021,8.806.018,13.209A7.93,7.93,0,0,0,796.2,221.747Z" class="cls-1"/><path d="M926.686,93.272l-.926,1.49a12.361,12.361,0,0,0,1.7,3.313c.6,1.034,1.186,2.073,1.833,3.075a15.878,15.878,0,0,0,2.191,3.225,8.309,8.309,0,0,0,.915-1.105c1.468-2.662,3.314-5.128,4.319-8.024l-.746-1.737c.148-.139.3-.29.461-.428a.356.356,0,0,1,.208-.072c2.159-.019,4.32-.053,6.479-.027.3,0,.6.308,1.125.6a4.777,4.777,0,0,1-1.1.65,4.994,4.994,0,0,0-3.214,2.265c-2.027,3.128-4.021,6.28-5.949,9.47a5.033,5.033,0,0,0-.672,2.332c-.083,2.309-.045,4.624,0,6.935a6.756,6.756,0,0,0,.386,1.507l2.721.925c.093.591-.248.724-.608.83a1.6,1.6,0,0,1-.44.065c-2.835,0-5.67.019-8.5-.019a5.81,5.81,0,0,1-1.477-.533l2.12-1.239a2.863,2.863,0,0,0,.57-2.058c.02-1.716,0-3.432.032-5.148a6.728,6.728,0,0,0-1.073-3.82c-1.888-2.954-3.773-5.91-5.708-8.833a6.1,6.1,0,0,0-3.416-2.744,1.827,1.827,0,0,1-.513-.366c-.1-.52.223-.7.6-.789a3.821,3.821,0,0,1,.886-.1c2.014-.01,4.028-.028,6.042,0A11.1,11.1,0,0,1,926.686,93.272Z" class="cls-1"/><path d="M1118.011,210.267c-.289,3.6.061,10.5.61,12.526l2.107.931c-.367.282-.565.567-.769.571-2.086.036-4.174.033-6.261.018-.188,0-.375-.169-.619-.287.12-1,1.322-.668,1.757-1.362.063-.807.164-1.614.184-2.422.12-4.923.213-9.846.336-14.769.02-.788-.191-1.678.676-2.23.88-.058,1.311.627,1.827,1.134q5.429,5.339,10.833,10.7c.743.735,1.47,1.486,2.22,2.213a4.854,4.854,0,0,0,.687.469c.13-.215.265-.333.265-.452,0-1.417.025-2.837-.036-4.252-.113-2.6-.277-5.2-.421-7.833l-2.663-1.309a3.858,3.858,0,0,1,.912-.352q3.24-.029,6.479-.006c.107,0,.212.171.327.271.084.486-.294.607-.621.775-.261.134-.514.282-.725.4a2.812,2.812,0,0,0-.305.676,28.783,28.783,0,0,0-.324,3.1c-.068,4.18-.081,8.36-.121,12.539a14,14,0,0,1-.1,2.009,6.238,6.238,0,0,1-.564,1.323,7.579,7.579,0,0,1-1.429-.73c-.973-.812-1.913-1.667-2.821-2.552q-5.13-5-10.232-10.033C1118.913,211.032,1118.575,210.763,1118.011,210.267Z" class="cls-1"/><path d="M841.945,92.935c.469,1.886.651,3.507-.155,5.09-1.146-.065-.9-1.2-1.477-1.738a10.474,10.474,0,0,0-1.893-.526,21.663,21.663,0,0,0-5.19-.091,10.3,10.3,0,0,0-.245,1.555c-.012,5.073-.025,10.146.024,15.219a12.32,12.32,0,0,0,.655,4.308l2.651.882c.2.508-.086.751-.466.823a8.584,8.584,0,0,1-1.554.125q-3.468.015-6.937,0a5.445,5.445,0,0,1-1.327-.129c-.221-.058-.384-.335-.67-.6l2.177-1.148a35.051,35.051,0,0,0,.545-7.069c.27-8.411.132-12.216-.289-13.8a21.443,21.443,0,0,0-6.983.129l-1.7,1.782-.62-.226a8.357,8.357,0,0,1,.869-4.75C826.846,93.127,834.283,92.913,841.945,92.935Z" class="cls-1"/><path d="M1063.057,204.119a12.778,12.778,0,0,1-.161,4.808c-.046.155-.31.247-.6.462a9.9,9.9,0,0,1-.677-1.161,4.3,4.3,0,0,0-2.343-2.274,10.922,10.922,0,0,0-7-.647,6.463,6.463,0,0,0-5.111,5.815,11.194,11.194,0,0,0,.728,6.14,8.652,8.652,0,0,0,7.789,5.454,4.644,4.644,0,0,0,2.968-.392,5.383,5.383,0,0,0,.353-1.375c0-1.845.268-3.712-.283-5.566l-1.92-.977c.125-.241.17-.453.252-.469a30.514,30.514,0,0,1,7.921.134c.121.476-.232.636-.542.838-.245.159-.472.346-.706.52-.588,2.522.13,5.1-.486,7.433a3.18,3.18,0,0,1-2.172,1.335,20.187,20.187,0,0,1-11.456-.392c-.07-.023-.138-.055-.208-.082-4.534-1.734-7.022-4.993-6.954-9.882a10.287,10.287,0,0,1,7.246-9.984,20.247,20.247,0,0,1,7.95-.757c1.26.088,2.516.286,3.764.489A12.1,12.1,0,0,1,1063.057,204.119Z" class="cls-1"/><path d="M989.675,113.2l.7.147a6.962,6.962,0,0,1-.415,4.358,2.478,2.478,0,0,1-2.321.934c-1.716,0-3.432-.016-5.147-.025-2.611-.014-5.222-.023-7.833-.047a8.094,8.094,0,0,1-1.55-.124c-.224-.046-.4-.325-.74-.622l2.035-.947a3.94,3.94,0,0,0,.69-2.441c0-5.968.016-11.937,0-17.9a9.633,9.633,0,0,0-.307-1.7l-2.351-.949c-.2-.52.087-.755.467-.841a6.22,6.22,0,0,1,1.329-.128q3.468-.018,6.937,0a5.386,5.386,0,0,1,1.326.134c.227.059.4.328.787.671l-2.489.982a2.784,2.784,0,0,0-.535,2.033q-.009,8.169.022,16.338a14.7,14.7,0,0,0,.186,1.752,2.443,2.443,0,0,0,2.236,1.269c1.193.013,2.387.025,3.58.007a2.883,2.883,0,0,0,2.812-1.839C989.235,113.914,989.446,113.6,989.675,113.2Z" class="cls-1"/><path d="M567.951,292.631c-1.935-.441-2.951-2.6-5.105-2.093l.237-.969a32.269,32.269,0,0,0-2.936-2.372c-.524-1.747-1.383-3.519-.672-5.74-1.388.479-1.646,1.877-2.784,2.173a10.415,10.415,0,0,1-4.485-.239c-.258-.38-.537-.808-.833-1.224-.254-.357-.527-.7-.824-1.092a12.306,12.306,0,0,0,1.555-1.243,9.89,9.89,0,0,0,.971-1.56c1.326-.208,2.711-.451,4.1-.629a6.893,6.893,0,0,1,1.55.051c2.042.206,2.792-.222,3.629-2.13a7.885,7.885,0,0,0,.239-.89c-.3-1.149-.665-2.506-1.065-4.011a12.062,12.062,0,0,1,2.973-1.132,8.567,8.567,0,0,1,1.736,4.589c.24,3.263.464,6.528.77,9.786.224,2.368.576,4.725.856,7.089C567.928,291.5,567.921,292.005,567.951,292.631Z" class="cls-1"/><path d="M528.8,61.56h1.4l1.122.954,1.171-.8,2.321.648,1.044-1.143.678.055c.094.151.217.265.236.394.058.411-.214.784.1,1.26a1.863,1.863,0,0,1-.252,2.475l-1.829-.341-1.546.518c-.866,1.673.368,3.029.533,4.684l-2.037-.917c-.123,1.8,1.083,3.095,1.614,4.84a10.837,10.837,0,0,1-6.963-3.234c-.663.666-1.228,1.33-1.891,1.874-.683.559-1.46,1-2.575,1.749a9.547,9.547,0,0,0,.755-1.712,5.738,5.738,0,0,0,.03-1.76,8.983,8.983,0,0,0-.467-1.488c-.484-1.522-.481-1.549.279-3.4-.053-.135-.066-.333-.165-.4a6.712,6.712,0,0,1-2.883-4.348c-.2-.857-.522-1.686-.78-2.5.443-.452.747-.076,1.021.087.9.531,1.755,1.127,2.653,1.655a10.783,10.783,0,0,0,1.416.555c-.067-.713-.1-1.193-.159-1.669a3.99,3.99,0,0,1,1.032-3.5c.755-.8,1.415-1.681,2.261-2.7a5.607,5.607,0,0,1,.408,2.552c.109.732.24,1.461.373,2.261l-.839,1.557h1.157Zm-2.323,6.861.49-.359c-.211-.086-.37-.072-.419.008-.059.1-.025.251-.038.374h-.674l.007.132Zm-1.836-4.957c.436-.176.955-.249,1.081-1.006-.66.135-1.086.334-1.048,1.048l-.116-.006Zm7.818,1.026c-1.157.618-1.566,1.835-2.246,2.832-.043.063.09.246.145.383.643.119.937-.344,1.139-.794.357-.8.627-1.629.918-2.458l-.054-.89C531.9,64.018,532.323,64.227,532.463,64.49Zm-2.28,5.087.022-.235-.947.1Z" class="cls-1"/><path d="M595.5,156.692l2.2-1.783a14.665,14.665,0,0,0,1.27-6.956,54.682,54.682,0,0,1,.3-7.138,71.447,71.447,0,0,0,.114-8.268,5.9,5.9,0,0,0-.638-2.342c-1.021-2.139-.711-4.323-.524-6.729a5.349,5.349,0,0,1,1.157.389,9.355,9.355,0,0,1,4.575,7.767,44.262,44.262,0,0,1-.23,6.473,21.627,21.627,0,0,0,1.086,9.9c.173.487.314.986.45,1.417-1.662,3.426-5.51,6.251-9.794,7.237Z" class="cls-1"/><path d="M860.658,224l1.767-1.225a1.959,1.959,0,0,0,.238-.552,30.1,30.1,0,0,0,.352-3.336q.067-5.6,0-11.194a17.025,17.025,0,0,0-.4-2.567l-2.329-1.133c.5-.261.722-.464.959-.484.667-.057,1.341-.045,2.012-.048q4.926-.016,9.852-.024c.287,0,.575.051,1.017.093.032,1.4.4,2.767-.684,4.133l-1.384-1.8a8.356,8.356,0,0,0-4.148-.15,2.249,2.249,0,0,0-.593,1.943c-.022.671-.029,1.345,0,2.015s.114,1.31.176,1.984c2.074.911,4.053.284,6.1.12a9.68,9.68,0,0,1-.1,3.99c-.034.166-.3.284-.552.5l-1.113-1.628a6.7,6.7,0,0,0-4.061,0c-.828,1.535-.371,3.2-.442,4.806a3.013,3.013,0,0,0,.572,2.52,8.2,8.2,0,0,0,5.144-.061c.4-.562.863-1.2,1.44-2,.235.374.474.586.5.821a5.037,5.037,0,0,1-.794,3.513,14.053,14.053,0,0,1-1.7.257A72.851,72.851,0,0,1,860.658,224Z" class="cls-1"/><path d="M388.085,148.6c.974-1.191,1.628-2.545,3.209-2.8l3,1.289a4.17,4.17,0,0,1-.65.791,14.317,14.317,0,0,1-1.445.835c1.207.746,2.465.569,3.461.943.228.834-.417.984-.666,1.329-1.4.5-2.9-.536-4.258.517.058,1.191,1.244,1.791,1.643,3.157a3.785,3.785,0,0,1-.53,2.376c-1.238-.221-2.057-1.144-3.015-1.767a10.805,10.805,0,0,1-2.818-1.892c.636-.92,2.252-.712,2.4-2.244a20.05,20.05,0,0,0-4.4-.585,71.526,71.526,0,0,0-13.118,1.282c-5.519.954-10.87,2.614-16.294,3.968q-3.036.757-6.079,1.492a6.4,6.4,0,0,1-1.035.006c.932-.541,1.547-.931,2.191-1.266a63.8,63.8,0,0,1,16.444-5.666,89.262,89.262,0,0,1,18.231-1.766C385.618,148.6,386.882,148.6,388.085,148.6Z" class="cls-1"/><path d="M495.529,125.464a10.183,10.183,0,0,1-6.169-.964,15.65,15.65,0,0,1-4.745-3.858l-1.682,2.126-2.128-1.137c-.4-2.13.231-4.1.437-6.075a37.458,37.458,0,0,1,.593-5.669c1.763-.571,1.914-.575,3.951-.125a14.458,14.458,0,0,1,.193,1.44,5.883,5.883,0,0,0,3.248,5.254c.262.143.518.3.784.433,3.768,1.911,3.059,2.215,4.446,4.737a16.641,16.641,0,0,1,1.06,2.943A3.246,3.246,0,0,1,495.529,125.464Z" class="cls-1"/><path d="M924.194,223.348a9.039,9.039,0,0,1,.163-4.267c.053-.159.317-.247.632-.474.246.526.49.956.653,1.414a3.831,3.831,0,0,0,5.134,2.594,2.929,2.929,0,0,0,1.469-4.415,7.947,7.947,0,0,0-1.63-1.811c-.722-.643-1.584-1.131-2.291-1.788a17.1,17.1,0,0,1-2.6-2.746c-2.3-3.383-.968-7.157,2.916-8.371a9.76,9.76,0,0,1,6.959.27,6.849,6.849,0,0,1,.155,3.826c-.041.229-.329.413-.615.748-.894-1.123-1.047-2.746-2.541-3.074a9.618,9.618,0,0,0-2.43-.128,2.357,2.357,0,0,0-1.779,1.194v2.146a9.7,9.7,0,0,0,2.771,2.7,35.9,35.9,0,0,1,3.693,3.23,5.983,5.983,0,0,1,1.32,6.048,5.1,5.1,0,0,1-2.6,3.221,10.165,10.165,0,0,1-8.442.5,2.046,2.046,0,0,1-.557-.365A3.6,3.6,0,0,1,924.194,223.348Z" class="cls-1"/><path d="M597.82,49.235l2.032-1.59,1.264-1.961,4.091-.707.092.281-1.975.837c-.14.681.368.767.755.942q6.411,2.889,12.823,5.776c.523.236,1.021.527,1.7.879-1.549.806-3.083.574-4.382,1.024a12.727,12.727,0,0,0-5.329-1.022c-.051.583-.094,1.084-.119,1.374-.635,1.232-1.992.528-2.7,1.508a2.23,2.23,0,0,0,1.585,2.282,9.241,9.241,0,0,1,2.834,1.613,4.564,4.564,0,0,1-2.721.088c-.879-.934-1.732-1.843-2.724-2.9a5.122,5.122,0,0,0-2.12.613c-.753.283-1.511.552-2.335.852l-1.069-1.447c.115-.233.143-.416.244-.475,1.154-.672,2.319-1.325,3.347-1.908,1.136-2.022,1.262-2.572,1.033-4.461-.4-.03-.827-.081-1.253-.091-.892-.02-1.792.056-2.673-.048A3,3,0,0,1,597.82,49.235Z" class="cls-1"/><path d="M729.131,232.2v-1.042l-1.254-.335c.069-.122.124-.319.188-.322,1.562-.077,3.124-.184,4.687-.185q27.969-.019,55.938,0c.807,0,1.613.054,2.418.083a1.4,1.4,0,0,1-.715,1.765C788.64,232.465,731.681,232.526,729.131,232.2Z" class="cls-1"/><path d="M446.021,143.466a6.482,6.482,0,0,1-.219-1.06,11.213,11.213,0,0,1,.1-1.354h2.62c.837.787.142,1.772.562,2.682l.417-.865c.918-.675,1.462.1,2.206.617l1.892-.744,1.076.766-.038-.062.461,3.569a13.473,13.473,0,0,1-4.294,5.656,6.528,6.528,0,0,1-4.194,1.514l-.207-2.334a36.637,36.637,0,0,1-3.649-.481,8.134,8.134,0,0,1-3.561-1.711l5.264-2.17c.061.34-.042.759.715.976l-.755-.928c.307-.951,1.175-.641,1.853-.754l1.424-3.923c-.651,0-.954,1.019-1.71.575Zm1.633,5.346-.8-.191c.263.42.559.255.854.147.2.4.163,1.016.924,1.013V148.59C448.3,148.661,447.983,148.73,447.654,148.812Zm5.887-.919c.563-1.142.563-1.142-.425-1.837A2.09,2.09,0,0,0,453.541,147.893Z" class="cls-1"/><path d="M987.444,205.141l-1.583-.971c.069-.217.086-.451.158-.469a27.9,27.9,0,0,1,7.858.073,2.707,2.707,0,0,1-.463.682,10.658,10.658,0,0,1-1.154.673,7.572,7.572,0,0,0-.249,1.341q-.027,7.258-.011,14.518a2.379,2.379,0,0,0,.645,1.956c.452.486,1.562,0,1.944.843-.183.591-.594.553-.942.575-3.512.216-6.409.075-7.723-.377.037-.983,1.307-.634,1.543-1.478A130.541,130.541,0,0,0,987.444,205.141Z" class="cls-1"/><path d="M621.79,214.856c.954-.379,1.606-1.34,2.81-1.465a3.683,3.683,0,0,1,.5,2.408l-1.328,1.85a9.962,9.962,0,0,0,1.068.689,4.717,4.717,0,0,1,2.377,2.552c.172.412.353.822.494,1.244a28.929,28.929,0,0,0,2.308,5.071c.469.829.425.854-.02,2.213-.225-.278-.465-.457-.542-.689-.37-1.129-.64-2.3-1.059-3.4a17.266,17.266,0,0,0-1.116-2.1l-3.1-1.443-.881-1.645-2.143,1.394,1.044.761c-.442.754-1.439.416-2.114,1.376l-.462,1.158-1.476.347-1.97,1.988c-.308-1.651.924-2.293,1.453-3.284l.09-1.093.655-.4a5.564,5.564,0,0,1-.226-1.143,5.265,5.265,0,0,1,.281-1.168l-1.249-.484-1.29.7c-.615-.4-.124-.879-.286-1.366-.661-1.241-2.192-1.835-2.936-3.13a5.648,5.648,0,0,1,6.422-.94l-.03-.052c.921.467,1.843.76,2.762-.006Zm-.708,3.6c.2-.373.414-.741.59-1.125.046-.1-.029-.259-.065-.507l-1.09.372.616,1.274c-.594.076-.857.446-.915,1.108l.459.485A1.176,1.176,0,0,0,621.082,218.458Z" class="cls-1"/><path d="M835.042,231.384l-1.964,1.025c-12.019-.013-24.482.024-36.945-.037a5.66,5.66,0,0,1-1.107-.232,5.5,5.5,0,0,1-.392-.813,2.164,2.164,0,0,1-.012-.621c.167-.12.28-.271.405-.28.742-.057,1.487-.111,2.23-.111q17.247-.009,34.494,0c.888,0,1.776.055,2.687.086l.591,1Z" class="cls-1"/><path d="M608.84,187.566c.377-.678,1.1-.685,1.815-.936.831.11,1.759.659,2.7,0l.094-1.168,1.2.522a2.381,2.381,0,0,1,1.271-2.338c.849.563.858.557,1.406,1.767-.222.634-.487,1.394-.793,2.268,1.08.368,1.931-.719,2.943-.463-.246,1.7-.894,2.546-3.078,3.993a8.648,8.648,0,0,1-.307,1.691c-.237.617-.7,1.145-.965,1.754a14.115,14.115,0,0,0-.509,1.865l-1.715-2.378c-1.309.2-2.632.965-4.194.323.133-.335.242-.66.389-.966.128-.266.3-.51.436-.737l-.492-2.148-1-.785,1.32-1.233-.552-1.084Zm2,.874h-.194a14.556,14.556,0,0,0,.019,1.659c.03.265.242.558.6.236C611.119,189.7,610.977,189.069,610.835,188.44Zm1.686,3.3.089.261.819-.381Zm3.015-2.833c.058-.025.158-.041.166-.076.011-.055-.041-.123-.066-.185l-.25.132Z" class="cls-1"/><path d="M372.95,165.481a5.647,5.647,0,0,0-3.012-2.1l-.824-1.711a1.813,1.813,0,0,0-.113-1.911c2.341.349,4.382.739,6.01,2.467a10.519,10.519,0,0,0,4.645,2.6c.925.29,1.86.552,2.773.874a6.051,6.051,0,0,1,1.03.635l-.766,1.677a31.89,31.89,0,0,0-4.429-.984,27.3,27.3,0,0,0-4.24.278c-2.328,1.144-2.616,1.362-3.9,3.007l-2.042-.118-1.762.6-2.148-1.021c-1.107-.332-2.3.1-3.348-.774,2.009,0,3.856.024,5.7,0C369.577,168.948,371,168.168,372.95,165.481Z" class="cls-1"/><path d="M621.006,85.4l-.58,1.426c-.908.092-1.785.257-2.661.259q-11.745.031-23.489.01a4.547,4.547,0,0,1-2.54-.478,3.946,3.946,0,0,1,.693-.811,6.594,6.594,0,0,1,3.621-.974c1.64.007,3.281,0,4.921,0q8.613,0,17.225.006A4.362,4.362,0,0,1,621.006,85.4Z" class="cls-1"/><path d="M628.856,86.817c-.179-.61-.295-1.007-.39-1.332.229-.213.324-.382.441-.4a15.886,15.886,0,0,1,2.2-.249q11.281-.027,22.563-.006c.736,0,1.472.076,2.289.121l1.012,1.55a7.97,7.97,0,0,1-3.176.59q-11.171,0-22.34-.01C630.648,87.08,629.843,86.922,628.856,86.817Z" class="cls-1"/><path d="M717.327,86.342l-.309-1.172a6.539,6.539,0,0,1,1.351-.318c5.3-.019,10.6-.031,15.9.01a10.187,10.187,0,0,1,2.64.44,8.249,8.249,0,0,0,4.627.09c1.787-.509,3.274.326,4.8,1.076a1.115,1.115,0,0,1-1.228.609q-12.651.007-25.3-.011a3.759,3.759,0,0,1-2.517-.769Z" class="cls-1"/><path d="M557.332,20.9c.034.817.028,1.639.117,2.45a17.294,17.294,0,0,0,.421,1.872l1.157-.127c1.561,1.268,4.1,1.29,4.978,3.616.323.308.943.05,1.106.738a3.555,3.555,0,0,1-2.352.209c-2.472-.426-5.072-.388-7.291-1.88l-1.344-1.658a6.028,6.028,0,0,0-3.375-.06c-1.525.333-3.063.608-4.6.876-.914.159-.918.131-2.219-.3.342-.665,1.007-.828,1.638-1.182,2.951.178,5.776-.834,8.659-1.5l.935-1.044.976.479c.087-.093.217-.175.262-.29.283-.738.138-1.666.976-2.153Z" class="cls-1"/><path d="M518.669,31.8a7.347,7.347,0,0,1,3.042,1.777c-1.087,1-2.187,1.869-3.112,2.9a25.012,25.012,0,0,0-2.7,3.556,41.669,41.669,0,0,0-1.894,3.881c-.158-.153-.387-.268-.411-.415a38.348,38.348,0,0,1-.632-4.423C512.794,35.1,514.567,32.848,518.669,31.8Z" class="cls-1"/><path d="M383.886,187.521l1.8-1.125a2.871,2.871,0,0,1,.567.8c.217.777.339,1.581.518,2.469a3.579,3.579,0,0,0,2.039.519c1.772.186,3.544.378,5.311.6a8.558,8.558,0,0,1,1.238.335,1.642,1.642,0,0,1-.178,1.892c-.154.087-.282.224-.409.223-2.59-.02-5.153.628-7.761.281a12.712,12.712,0,0,0-1.993.119,2.369,2.369,0,0,1-2.158-.572l1.078-5.585Zm1.536.816a20.2,20.2,0,0,0-1.106,3.644A3.692,3.692,0,0,0,385.422,188.337Z" class="cls-1"/><path d="M496.693,129.623c.144.19.362.347.39.532a19.553,19.553,0,0,1,.474,5.96,11.908,11.908,0,0,0,.622,6.125,6.8,6.8,0,0,1,.214,1.006c-.75.209-.956-.276-1.108-.639a28.267,28.267,0,0,1-.961-2.718,4.682,4.682,0,0,0-3.29-3.33,14.2,14.2,0,0,0-2.3-.283,3.3,3.3,0,0,1,.918-2.04c1.427-1.5,2.922-2.946,4.407-4.395C496.2,129.707,496.458,129.7,496.693,129.623Z" class="cls-1"/><path d="M632.771,230.56a5.08,5.08,0,0,1,.971-.222c6.693-.039,13.386-.04,19.861-.01a5.3,5.3,0,0,1,2.227,1.723,4.418,4.418,0,0,1-.833.317,7.785,7.785,0,0,1-1.113.037q-8.706,0-17.411,0c-1.2,0-2.41,0-3.285-1.019A4.261,4.261,0,0,1,632.771,230.56Z" class="cls-1"/><path d="M682.372,85.338l-.157,1.071a2.414,2.414,0,0,1-1.958.662q-5.582.025-11.163,0a2.73,2.73,0,0,1-1.99-.582V85.387a2.841,2.841,0,0,1,2.186-.555C677.87,84.607,680.465,84.7,682.372,85.338Z" class="cls-1"/><path d="M691.729,231.9l-.229-1.218a2.206,2.206,0,0,1,.658-.3q1.668-.066,3.338-.067c3.267-.006,6.534.007,9.8,0a6.678,6.678,0,0,1,4.443,1.628,4.133,4.133,0,0,1-.866.416,6.42,6.42,0,0,1-1.111.046q-6.793,0-13.588,0A3.867,3.867,0,0,1,691.729,231.9Z" class="cls-1"/><path d="M606.462,30.177c-.021.071-.019.175-.067.209a19.581,19.581,0,0,1-6.7,3.375,4.134,4.134,0,0,1,.463-.927c.517-.515,1.075-.987,1.558-1.422-.151-.892-.828-.954-1.333-1.218-.46-.241-.93-.462-1.571-.778l-.989-2.331c-.88-.905-1.913-.2-2.96-.12,1.169-1.314,1.519-1.356,3.479-.477.367.538.721,1.1,1.123,1.619.123.159.378.217.667.372l2.209-.342-.636-1.39c1.328.211,1.621,1.363,2.35,2.034,1.186-.026,1.945-.88,2.941-1.425l-1.57,2.077c.147.773.651.713,1.077.785Z" class="cls-1"/><path d="M479.48,143.9c1.06.664,2.132,1.311,3.177,2a5.654,5.654,0,0,1,2.031,1.626,13.764,13.764,0,0,1-5.4,1.7c-.541-.471-.337-1.069-.261-1.641.164-1.241.339-2.481.5-3.717Z" class="cls-1"/><path d="M638.1,207.345l.771-.552,1.511.54c-.025.458-.049.882-.076,1.376l-1.636,1.522a10.751,10.751,0,0,1-3.749-1.207,10.743,10.743,0,0,1-1.728-3.046C635.14,206.079,636.518,207.1,638.1,207.345Z" class="cls-1"/><path d="M526.8,279.7l.888-1.54L526.4,275.8a3.584,3.584,0,0,1,2.389-.1c.271-.171.578-.373.895-.561.047-.028.134.009.343.031l.891,1.429a17.6,17.6,0,0,0-.632,1.929,18.457,18.457,0,0,0-.193,2.076Z" class="cls-1"/><path d="M529.3,304.5l-1.916-1.764a13.024,13.024,0,0,1-.991-2.517c.641-.925,1.355-.387,2.05-.244l1.352-.6c.595.674.029,1.823,1.374,2.162l.952-.078.26,1.026-1.824.4Z" class="cls-1"/><path d="M637.311,199.452v1.609l-1.24.855c.234.392.437.733.636,1.081,0,.007.014-.037.014-.037-.315.659-.629,1.317-.945,1.98-2.924.274-3.323.192-4.438-.915.157-.471.577-.355.919-.408.364-.057.728-.1,1.09-.157.762-.839.63-2.009,1.224-2.942h1.023l1.759-1.033Zm-2.394,4.118.144-.25c-.048,0-.131-.01-.137.006A.879.879,0,0,0,634.917,203.57Z" class="cls-1"/><path d="M646.306,206.209a2.243,2.243,0,0,0-2.542-.3l-1.292-1.234,1.237-2.952c-.06-.645-.12-1.283-.189-2.017,1.206.779,1.323,1.166,1.43,4.368a3.365,3.365,0,0,0,2.293-.256l.545.867c-.15.949-.81,1.251-1.531,1.488Z" class="cls-1"/><path d="M454.674,143.508l.3-1.814,2.772-1.182c.209.52.387.894.511,1.285.132.418.213.853.323,1.309a3.779,3.779,0,0,1-3.206,2.66l-.74-2.318Z" class="cls-1"/><path d="M419.9,142.2c-.268,2.209-.469,3.868-.683,5.624a20.92,20.92,0,0,1-4-1.169A15.324,15.324,0,0,1,419.9,142.2Z" class="cls-1"/><path d="M478.341,143.635c-1.02-.44-2.036-.888-3.06-1.319a13.933,13.933,0,0,0-9.141-.636c-.287.075-.578.131-.868.188a1.4,1.4,0,0,1-.285-.017l-.453-.526a6.649,6.649,0,0,1,3.792-1.15,12.508,12.508,0,0,1,6.477,1.25c1.247.6,2.615,1.052,3.5,2.241Z" class="cls-1"/><path d="M695.8,86.631a18.645,18.645,0,0,1,8.53-1.361,2.37,2.37,0,0,1,.319.527,2.631,2.631,0,0,1,.048.642c-.113.132-.187.3-.306.343a3.582,3.582,0,0,1-1.079.264c-2.165.025-4.329.02-6.494.011A1.359,1.359,0,0,1,695.8,86.631Z" class="cls-1"/><path d="M615.7,200.9l1.272-2.241,1.531.176c.053.305.175.547.113.724-.216.622-.5,1.223-.809,1.97l2.448.869a1.7,1.7,0,0,1-1.355.509c-.882.042-1.768.012-3.084.012l-2.45-.865C613.857,201.034,614.91,201.469,615.7,200.9Z" class="cls-1"/><path d="M370.21,192.546c-1.246-1.447-.258-3.043-.625-4.414.2-.124.278-.2.306-.186a1.368,1.368,0,0,1,.327.244c.715.743,1.424,1.491,2.165,2.269C372.388,191.939,371.286,192.172,370.21,192.546Z" class="cls-1"/><path d="M540.724,306.132l-.2-.833c.186-.107.336-.262.427-.234,1.764.56,3.522,1.14,5.292,1.72l.37,1.074c-.2.11-.338.252-.429.226A31.206,31.206,0,0,1,540.724,306.132Z" class="cls-1"/><path d="M552.787,35.563l1.234-2.4c1.1-.4,2.172-.719,3.179-1.188.98-.456,1.888-1.069,2.888-1.648-.4,2.073-1.046,2.476-4.842,3.092l-2.5,2.1Z" class="cls-1"/><path d="M570.871,298.794l-1.887,1.094a5.377,5.377,0,0,1-3.606-2.095l3.888-.463c.655.614,1.128,1.06,1.6,1.5Z" class="cls-1"/><path d="M665.456,230.513a12.4,12.4,0,0,1,4.592,0L670.4,232a7.866,7.866,0,0,1-4.766.117Z" class="cls-1"/><path d="M597.919,71.2c1.93-.2,3.406-.336,4.791.71a2.878,2.878,0,0,1-2.126,1.43A6.313,6.313,0,0,1,597.919,71.2Z" class="cls-1"/><path d="M649.376,201.538a.607.607,0,0,1,.209.071,9.283,9.283,0,0,0,5.919,2.083,1.507,1.507,0,0,1,.408.15c-.045.127-.061.339-.141.367-.758.267-1.526.5-2.247.733l-2.937-1.013c-.415-.856-.794-1.64-1.173-2.424Z" class="cls-1"/><path d="M574.819,313.712c-.224-.265-.547-.5-.647-.8a5.237,5.237,0,0,1-.113-1.26l-.961-.627c.079-.135.118-.3.216-.35a9.047,9.047,0,0,1,2.73-.783l.629.828c-.064.443-.136.94-.223,1.545l-1.344.734c-.091.216-.205.484-.321.755Z" class="cls-1"/><path d="M649.414,201.505l-.614-1.856a2.256,2.256,0,0,1,1.411-1.667,2.206,2.206,0,0,1,2,.01l.209.723a1.981,1.981,0,0,1-1.383,1.423,2.584,2.584,0,0,0-1.659,1.4Z" class="cls-1"/><path d="M561.407,316.459,560.23,318c-1.644-1.756-3.519-3.07-5.026-4.855.277-.116.468-.25.518-.21C557.389,314.285,558.97,315.749,561.407,316.459Z" class="cls-1"/><path d="M406.138,134.7c-.989-.468-1.712.1-2.352.7a14.372,14.372,0,0,0-1.349,1.668,1.855,1.855,0,0,1,.452-2.469,4.139,4.139,0,0,1,2.331-1.174,1.965,1.965,0,0,1,1.91.564l-1.049.745Z" class="cls-1"/><path d="M419.232,182c.216,1.094.216,1.094-.341,1.727l-3.019.147c-.651-.251-.836-.74-.645-1.553l.98-.74A4.235,4.235,0,0,0,419.232,182Z" class="cls-1"/><path d="M379.972,179.343a4.746,4.746,0,0,0-.445.513,4.675,4.675,0,0,0-.276.6c-.1-.148-.215-.245-.219-.347a3.753,3.753,0,0,1,.435-2.33c1.827,1.066,2.181,2,1.638,4.484C380.45,181.337,380.657,180.19,379.972,179.343Z" class="cls-1"/><path d="M632.978,231.994a4.55,4.55,0,0,1-3.584.042l.207-1.461C631.111,230.077,631.813,230.967,632.978,231.994Z" class="cls-1"/><path d="M619.094,214.854a4.858,4.858,0,0,0,.376-3.34c.441-.241.623-.065.765.22q.775,1.563,1.555,3.122l.036-.06-2.762.006Z" class="cls-1"/><path d="M514.528,53.7l-2.093-.825c-.073-.989.52-1.594.782-2.411.747.271.576.9.75,1.312C514.164,52.245,514.26,52.756,514.528,53.7Z" class="cls-1"/><path d="M406.662,173.723l-1.158.857-1.265-.743c.033-.314-.023-.59.089-.721C405.185,172.117,405.866,172.244,406.662,173.723Z" class="cls-1"/><path d="M639.71,197.145l-.831-.737c-.288.47-.563.916-.9,1.464-.275-2.041.02-2.582,1.609-3.013a4.313,4.313,0,0,1,.2.829C639.8,196.114,639.745,196.542,639.71,197.145Z" class="cls-1"/><path d="M717.284,86.3c-.244.157-.479.431-.736.453a17.553,17.553,0,0,1-4.142-.213c.019-.635.393-.7.761-.758a9.734,9.734,0,0,1,4.158.561Z" class="cls-1"/><path d="M624.176,223.36c.127.318.178.447.23.576a2.766,2.766,0,0,1-1.859,1.327c-.6-.28-.684-.695-.229-1.363Z" class="cls-1"/><path d="M488.377,139.178c-.477.54-.943,1.091-1.434,1.618-.293.313-.626.589-1.014.95l-.592-.715A3.815,3.815,0,0,1,488.377,139.178Z" class="cls-1"/><path d="M636.939,204.188a20.212,20.212,0,0,0,2.073,1.276,23.191,23.191,0,0,0,2.56.841,2.942,2.942,0,0,1-2.591-.21,3.058,3.058,0,0,1-2.008-1.95Z" class="cls-1"/><path d="M606.505,30.218l1.164-1.331a3.035,3.035,0,0,1,2.1.492c-.219.5-.64.239-.942.331-.419.127-.847.227-1.276.313-.358.071-.723.105-1.086.155Z" class="cls-1"/><path d="M368.332,194.3l-2.334.673c-.259-.927.363-1.213.906-1.7l1.511.582Z" class="cls-1"/><path d="M534.8,273.116h-3.908v-.735c.218-.082.36-.191.485-.174,1.14.155,2.277.332,3.414.5Z" class="cls-1"/><path d="M579.885,73.316l1.928.392,2.315-.415A3.534,3.534,0,0,1,579.885,73.316Z" class="cls-1"/><path d="M375.913,195.219l3.046-.562-2.195,2C375.927,196.467,375.816,196.014,375.913,195.219Z" class="cls-1"/><path d="M690.829,86.092c.277-1.233.6-1.341,2.953-1.043-.246.258-.388.544-.588.594C692.434,85.831,691.654,85.942,690.829,86.092Z" class="cls-1"/><path d="M412.84,182.589l.089-1.306,1.54-.255.085,1.285Z" class="cls-1"/><path d="M376.009,180.526l-.7-1.482-.83-.321.513-1.153A3.358,3.358,0,0,1,376.009,180.526Z" class="cls-1"/><path d="M534.49,58.4l-1.112-.461c-.319-.712-.179-1.128.565-1.41l.9.806-.41,1.118Z" class="cls-1"/><path d="M708.555,86.577c-1.651.065-1.883-.05-2.868-1.288C706.97,85.35,706.97,85.35,708.555,86.577Z" class="cls-1"/><path d="M407.948,174.891l.633.7-.368.644a1.826,1.826,0,0,1-.63.049,2.837,2.837,0,0,1-.619-.336C406.845,175.319,406.911,175.255,407.948,174.891Z" class="cls-1"/><path d="M682.225,232.087c-1.152.178-1.455-.473-1.656-1.22.08-.143.1-.236.148-.253.256-.092.519-.165.708-.223A1.393,1.393,0,0,1,682.225,232.087Z" class="cls-1"/><path d="M383.935,187.476a8.212,8.212,0,0,1-1.064-.65c-.224-.184-.165-.333.2-1.16.732.442.745,1.161.812,1.855Z" class="cls-1"/><path d="M641.021,196.809a4.708,4.708,0,0,1,.291-.9,7.546,7.546,0,0,1,.674-.859,2.43,2.43,0,0,1,.58.4,3.085,3.085,0,0,1,.264.727Z" class="cls-1"/><path d="M450.33,137.662l.086-.827,1.37-.394-.124,1.365Z" class="cls-1"/><path d="M711.53,230.49h2.782C712.781,231.292,712.615,231.3,711.53,230.49Z" class="cls-1"/><path d="M646.257,206.169c.21.444.69.819.342,1.458a1.347,1.347,0,0,1-1.68-.672c.5-.266.949-.5,1.391-.743Z" class="cls-1"/><path d="M614.362,222.394h-1.613l.585-1.159C614.123,221.125,614.416,221.4,614.362,222.394Z" class="cls-1"/><path d="M534.436,58.451c.543.121,1.207.013,1.43.747-.564.707-.564.707-1.512.226.043-.326.089-.675.136-1.025Z" class="cls-1"/><path d="M532.91,55.285l-.365,1.373-1.218-.093-.131-1.174Z" class="cls-1"/><path d="M674.65,231.975l.561-1.538.716.437-.261,1.1Z" class="cls-1"/><path d="M586.371,109.032l-1.015-1.813c.363-.4.642-.261.845-.057C586.56,107.524,586.54,107.544,586.371,109.032Z" class="cls-1"/><path d="M453.755,138.27l-.915-.782.652-.968,1.053.913Z" class="cls-1"/><path d="M490.849,147.551h-1.925l-.031-.147c.327-.048.653-.116.982-.139.346-.024.695,0,1.043,0Z" class="cls-1"/><path d="M534.321,67.941c.177-1.036.177-1.036.771-1.419l.646.707Z" class="cls-1"/><path d="M561.666,293.289c-1.7-.249-1.7-.249-2.633-1.091a3.642,3.642,0,0,1,2.594,1.125Z" class="cls-1"/><path d="M409.238,172.677l.393-.9,1.076.264-.482,1.068Z" class="cls-1"/><path d="M561.91,317.1c.269-.928.385-1.326.539-1.859l.735.442C563.275,316.45,562.813,316.616,561.91,317.1Z" class="cls-1"/><path d="M448.263,137.506c.744-.4,1.132-.258,1.311.4C448.776,138.543,448.776,138.543,448.263,137.506Z" class="cls-1"/><path d="M443.685,145.572l.559.867c-.254.559-.57.7-1.126.136Z" class="cls-1"/><path d="M528.6,60.116l.256-1.2,1.17.9Z" class="cls-1"/><path d="M661.466,86.632l-.291-1.105.8-.3V86.6Z" class="cls-1"/><path d="M686.4,85.144c-.475,1.049-.856,1.617-2.012,1.527A2.658,2.658,0,0,1,686.4,85.144Z" class="cls-1"/><path d="M443.366,140.578l.994-.3-.066,1.216C443.561,141.653,443.323,141.4,443.366,140.578Z" class="cls-1"/><path d="M446.932,139.079c-.45.646-.779.595-1.16.095l.244-.663C446.592,138.344,446.677,138.75,446.932,139.079Z" class="cls-1"/><path d="M411.353,130.828l-1.265,1.127c-.536-.411-.225-.684.016-.915a1.109,1.109,0,0,1,1.223-.162Z" class="cls-1"/><path d="M610.491,62.275l-.66-.181.039-.254h.691Z" class="cls-1"/><path d="M416.279,179.878l-.091-.786.836-.191.317.573C417.2,179.989,416.878,180.051,416.279,179.878Z" class="cls-1"/><path d="M561.627,293.323h2.306a2.813,2.813,0,0,1-2.264-.037Z" class="cls-1"/><path d="M615.079,222.941l.37-.73c.414-.139.658.047.64.365C616.06,223.065,615.7,223.047,615.079,222.941Z" class="cls-1"/><path d="M608.8,187.514l-.422.838c-.668-.129-.679-.443-.5-.842.339-.338.652-.138.966.055Z" class="cls-1"/><path d="M376.885,193.888c.6-.9,1.587-.874,2.493-1.041l-.043-.044c-.577.948-1.591.866-2.489,1.057Z" class="cls-1"/><path d="M417.861,164.422c-.442.535-.442.535-.944.047C417.353,164.136,417.353,164.136,417.861,164.422Z" class="cls-1"/><path d="M612.036,182.941c.345-.853.69-.589,1.144-.207l-.51.632Z" class="cls-1"/><path d="M551.473,37.466q-.673.894-1.347,1.789l.043.049a2.1,2.1,0,0,1,1.346-1.791Z" class="cls-1"/><path d="M552.747,35.517a3.924,3.924,0,0,1-1.275,1.947l.043.049a2.767,2.767,0,0,1,1.273-1.949Z" class="cls-1"/><path d="M442.787,144.469v-1.53l.929.792Z" class="cls-1"/><path d="M839.29,230.6c.574.4.864.775.346,1.452C839.025,231.62,838.9,231.208,839.29,230.6Z" class="cls-1"/><path d="M637.353,199.485l1.4-.312a1.448,1.448,0,0,1-1.441.282Z" class="cls-1"/><path d="M410,174.327h-.582c.146-.052.289-.112.438-.149C409.881,174.171,409.931,174.257,410,174.327Z" class="cls-1"/><path d="M607.314,44.744l.631-.036.019.148-.591.059Z" class="cls-1"/><path d="M610.613,183.911a.658.658,0,0,1,.529-.849l.331.406c-.179.509-.537.465-.9.4Z" class="cls-1"/><path d="M602.939,67.517l1.04.078-1.01.154Z" class="cls-1"/><path d="M570.253,78.961l.225-1.162C571,78.4,570.809,78.653,570.253,78.961Z" class="cls-1"/><path d="M608.929,186.634a7.294,7.294,0,0,1-.224-.875.473.473,0,0,1,.334-.122C609.357,185.758,609.4,185.991,608.929,186.634Z" class="cls-1"/><path d="M551.551,301.133c.271-.372.507-.264.738-.072.008.007-.062.152-.09.15C552,301.2,551.8,301.166,551.551,301.133Z" class="cls-1"/><path d="M445.983,143.435c.144.35.615.709-.015,1.06-.383-.39.048-.688.059-1.025Z" class="cls-1"/><path d="M541.219,36.154l.186-.906.287.136q-.26.363-.517.728Z" class="cls-1"/><path d="M452.626,141.591l.642-.209c-.032.276.009.563-.083.615C452.853,142.183,452.672,142,452.626,141.591Z" class="cls-1"/><path d="M610.57,183.867l-.18.883-.59-.258c.053-.582.5-.487.813-.581Z" class="cls-1"/><path d="M575.947,16.023Z" class="cls-1"/><path d="M379.378,192.847l.848-.779c-.069.8-.519.706-.89.736Z" class="cls-1"/><path d="M558.019,311.217l.372.078a.789.789,0,0,1-.042.126c-.123-.022-.245-.055-.367-.085Z" class="cls-1"/><polygon points="584.072 64.941 584.253 64.85 584.189 65.003 584.072 64.941" class="cls-1"/><path d="M432.005,161.851l-.339-.125.09-.164Z" class="cls-1"/><path d="M366.47,190.606c.061.107.121.214.181.321-.1.049-.238.164-.286.134-.091-.058-.129-.2-.189-.3Z" class="cls-1"/><path d="M620.525,224.386h.93C621.007,225.016,620.778,225.092,620.525,224.386Z" class="cls-1"/><path d="M382.705,189.875c-.073.1-.1.176-.158.209-.028.016-.1-.04-.151-.064Z" class="cls-1"/><path d="M585.432,62.851c.147-.449.294-.9.438-1.35l-.038-.048a1.288,1.288,0,0,1-.438,1.357Z" class="cls-1"/><polygon points="656.014 205.682 656.052 205.567 656.155 205.645 656.014 205.682" class="cls-1"/><path d="M570.867,298.835l.177.916c-.414-.3-.088-.664-.176-.95C570.871,298.794,570.867,298.835,570.867,298.835Z" class="cls-1"/><path d="M617.869,212.834l-.258.245a2.155,2.155,0,0,1-.2-.287c-.01-.018.1-.138.127-.129A2.195,2.195,0,0,1,617.869,212.834Z" class="cls-1"/><polygon points="534.321 41.697 534.424 41.782 534.292 41.838 534.321 41.697" class="cls-1"/><path d="M841.6,231.045l-.169.1a2.039,2.039,0,0,1-.09-.345c0-.029.107-.068.165-.1C841.541,230.811,841.572,230.928,841.6,231.045Z" class="cls-1"/><polygon points="527.727 281.871 527.901 281.874 527.834 282.021 527.727 281.871" class="cls-1"/><polygon points="560.404 187.986 560.326 188.083 560.276 187.966 560.404 187.986" class="cls-1"/><path d="M835.029,231.4c.39-.163.443.109.675.338-.552.166-.72.043-.662-.353Z" class="cls-1"/><path d="M551.665,267.963l.305.362L552,268.3l-.3-.317Z" class="cls-1"/><path d="M592.1,120.442l0,.056a1.125,1.125,0,0,1,1.272.4l.041-.018Z" class="cls-1"/><path d="M574.981,315.372q-.082-.828-.163-1.658l-.033.037a1.772,1.772,0,0,1,.161,1.608Z" class="cls-1"/><path d="M593.856,156.886c-.124.139-.247.279-.1.109-.2.106-.028.015.138-.076Z" class="cls-1"/><path d="M593.9,156.919c.532-.077,1.064-.155,1.6-.23l-.035-.027a1.98,1.98,0,0,1-1.6.227Z" class="cls-1"/><path d="M636.973,204.145c-.086-.392-.172-.783-.255-1.18,0,0-.016.039-.011.032.082.391.159.788.234,1.188Z" class="cls-1"/><path d="M376.846,193.86h-.193c.006,0,.115.011.228.025Z" class="cls-1"/><path d="M478.3,143.666c.39.08.78.16,1.176.235.006-.005.05-.031.056-.035-.39-.081-.787-.159-1.186-.233Z" class="cls-1"/><path d="M593.371,120.9l.355-.048c-.07,0-.186.011-.308.024A.351.351,0,0,1,593.371,120.9Z" class="cls-1"/><path d="M551.694,267.981l-.223.022.189-.038S551.694,267.981,551.694,267.981Z" class="cls-1"/><path d="M575.067,98.137l.159.07a1.422,1.422,0,0,1-.166-.1C575.062,98.1,575.067,98.137,575.067,98.137Z" class="cls-1"/><path d="M574.643,97.2c.142.309.284.618.425.933,0,.006-.006-.034-.008-.026-.147-.311-.291-.63-.435-.949Z" class="cls-1"/><path d="M574.625,97.156a.335.335,0,0,1,.018.038Z" class="cls-1"/><path d="M516.85,280.733l.255.073c-.035-.02-.122-.069-.21-.116Z" class="cls-1"/><path d="M585.394,62.81l-.03.316c.013-.045.044-.157.071-.271Z" class="cls-1"/><path d="M557.374,20.938V20.8c.06-.12.006-.012-.045.1Z" class="cls-1"/><path d="M553.442,301.908c-.006.047,0,.115-.022.135a.382.382,0,0,1-.157.033l.028-.23Z" class="cls-1"/><path d="M577.632,309.51c-.02.046-.037.129-.061.131a.451.451,0,0,1-.167-.048c.02-.047.037-.132.061-.134A.478.478,0,0,1,577.632,309.51Z" class="cls-1"/><path d="M574.946,315.359c-.156-.012-.312-.024,0,0-.3-.068-.141-.032.023.008C574.981,315.372,574.946,315.359,574.946,315.359Z" class="cls-1"/><path d="M416.58,174.972l0-.5.953.006Z" class="cls-1"/><path d="M475.08,260.8a2.316,2.316,0,0,1-2.549.34l2.59-.329Z" class="cls-1"/><path d="M489.985,265.851c.494-.22.663-.046.791.464Z" class="cls-1"/><path d="M483.074,259.308l-.767.107,0-.183c.265.029.529.059.8.093C483.116,259.329,483.074,259.308,483.074,259.308Z" class="cls-1"/><path d="M475.121,260.815l.738-.069-.006.138c-.254-.025-.507-.049-.767-.077A.266.266,0,0,1,475.121,260.815Z" class="cls-1"/><path d="M478.161,260.187c.094-.262-.046.024-.046-.019Z" class="cls-1"/><path d="M478.115,260.168l-.345.033c.127-.006.254-.013.386-.017C478.161,260.187,478.115,260.168,478.115,260.168Z" class="cls-1"/></svg>