<svg id="Layer_1" data-name="Layer 1" xmlns="http://www.w3.org/2000/svg" viewBox="0 0 1641.8 351"><defs><style>.cls-1{fill:#fff;}</style></defs><title>Twilio</title><path class="cls-1" d="M239.822,157.651c3.027-4.787,2.436-10.41,3.532-15.63C261.708,55.081,335.081-1.971,423.9,1.763c81.216,3.417,151.994,68.5,162.087,149.125,11.765,93.876-47.248,176.376-139.422,195.09-5.94,1.211-12.212.707-17.864,3.432H396.978c-.779-2.235-2.8-1.442-4.326-1.6C318.3,336.866,262.011,286.461,244.825,215.164c-2.12-9-3.345-18.167-5-27.236ZM414.178,47.843a127.584,127.584,0,0,0-127.973,127.2c0,.111,0,.221,0,.332,0,69.74,57.672,127.484,127.585,127.657,69.653.187,127.57-57.239,127.6-126.518C541.417,104.607,485.3,47.843,414.178,47.843Z"/><path class="cls-1" d="M1394.7,211c-2.552,1.168-1.658,3.778-2.09,5.652a84.881,84.881,0,0,1-76.6,66.323c-32.873,2.58-61.695-6.142-82.457-32.989-35.857-46.339-11.231-113.325,46.671-128.32,38.482-9.934,77.7,2.956,99.081,32.556a79.036,79.036,0,0,1,13.956,34.416c.217,1.312-.418,2.984,1.442,3.619Zm-88.973,17.532c14.418,0,25.376-11.75,25.289-27.307-.072-15.226-11.289-27.539-25.275-27.712-14.418-.173-25.5,11.448-25.693,27S1291.34,228.472,1305.729,228.529Z"/><path class="cls-1" d="M869.354,214.429c-6.675,20.718-13.149,39.822-18.859,59.084-1.816,6.143-4.873,7.757-10.784,7.6-12.717-.346-25.462-.462-38.179,0-6.618.288-9.17-2.35-10.943-8.363-12.342-42.071-25.016-84.057-37.66-126.042-.793-2.667-1-5.652-3.907-8.9,0,10.093-.246,19.263.086,28.375.2,5.306-1.571,7.4-6.964,7.209-7.67-.3-15.384.216-23.069-.187-4.887-.246-6.733.951-6.488,6.2.433,9.833.1,19.695.13,29.543,0,16.8,7.065,22.391,23.8,18.945,12.01-2.48,12.01-2.48,12.01,9.92,0,10.337-.216,20.675.087,30.984.13,4.239-1.1,6.589-5.176,8.045-19.724,7.036-39.823,8.809-60.123,3.561-21.541-5.594-33.551-20.387-35.468-42.706-1.659-18.945-.649-37.934-.635-56.893,0-5.767-1.1-7.973-7.382-7.671-10.929.5-10.958.1-10.958-10.741s.246-22.1-.1-33.161c-.173-5.393,1.7-7.555,6.992-7.022,1.9.188,3.864-.173,5.767,0,4.571.591,5.768-1.442,5.623-5.767-.288-7.209.13-14.418-.158-21.627-.159-4.325,1.225-6.546,5.464-7.829Q679.3,78.9,706,70.321c5.335-1.7,6.906.173,6.834,5.378-.187,12.976.39,25.952-.245,38.928-.331,6.719,2.033,7.757,8.031,7.685,26.428-.317,52.856.1,79.3-.288,6.95-.1,9.588,2.393,11.087,8.939,3.98,17.417,8.651,34.689,13.539,53.779,5.854-19.623,11.419-37.487,16.393-55.423,1.629-5.911,4.326-8.16,10.525-7.93,12.227.462,24.511.346,36.737,0,5.422-.13,8.19,1.529,9.7,7.051,4.325,15.7,9.2,31.258,13.956,46.829.736,2.394.707,5.2,3.648,7.512,4.585-17.46,9.357-34.387,13.366-51.472,1.571-6.733,4.123-9.444,11.534-9.357q53.346.6,106.693,0c7.007,0,8.881,2.076,8.838,8.982q-.432,70.98,0,141.974c0,6.474-2,8.218-8.218,8.074q-24.857-.562-49.728,0c-6.372.144-8.218-2.019-8.189-8.29.231-42.043.13-84.086.13-126.129v-7.742l-1.183-.274c-3.518,11.015-7.05,21.987-10.395,33.06q-15.42,50.91-30.609,101.863c-1.6,5.421-4.052,7.858-10.093,7.671-13.437-.433-26.9-.274-40.37-.073-5.032.073-7.685-1.441-9.242-6.689C882.316,254.871,875.986,235.508,869.354,214.429Z"/><path class="cls-1" d="M1133.506,175.486c0,32.411-.13,64.88.13,97.234,0,6.056-1.283,8.651-7.916,8.421-16.8-.419-33.608-.346-50.463,0-6,.1-7.785-1.961-7.771-7.916q.259-97.97,0-195.912c0-5.767,1.442-8.088,7.656-7.958,17.042.375,34.1.331,51.141,0,5.767-.1,7.338,1.816,7.309,7.468C1133.391,109.7,1133.506,142.6,1133.506,175.486Z"/><path class="cls-1" d="M1211.363,202.116c0,23.775-.13,47.579.1,71.311,0,5.407-1.182,7.8-7.209,7.685-17.3-.317-34.6-.26-51.905,0-5.277,0-7.079-1.615-7.064-7.036q.273-72.378,0-144.8c0-5.436,1.874-7.209,7.093-7.079q25.953.273,51.905,0c5.291,0,7.137,1.845,7.094,7.209C1211.248,153.6,1211.363,177.836,1211.363,202.116Z"/><path class="cls-1" d="M1022.805,111.513c-9.372,0-18.744-.159-28.1.072-4.412.115-6.027-1.687-5.983-5.926q.173-15.125,0-30.278c0-4.137,1.283-6.055,5.767-6.012q28.461.26,56.922,0c3.994,0,5.695,1.528,5.666,5.479-.072,10.323-.1,20.661,0,30.984,0,4.412-2.033,5.767-6.228,5.767C1041.534,111.383,1032.176,111.513,1022.805,111.513Z"/><path class="cls-1" d="M1178.432,111.513c-9.112,0-18.238-.231-27.394.1-5.118.187-6.747-1.759-6.618-6.676.246-9.833.173-19.666,0-29.484,0-4.124,1.082-6.114,5.667-6.07q28.418.26,56.821,0c4.037,0,5.565,1.513,5.522,5.478q-.2,15.464,0,30.941c0,4.326-1.73,5.869-6.041,5.768C1197.061,111.369,1187.7,111.513,1178.432,111.513Z"/><path class="cls-1" d="M457.028,254.5a35.539,35.539,0,0,1-35.96-35.115q-.006-.5,0-1a35.872,35.872,0,0,1,35.524-36.217c.174,0,.347,0,.521,0a36.29,36.29,0,0,1,36.464,36.115c0,.174,0,.347,0,.521a35.9,35.9,0,0,1-36.1,35.7C457.331,254.5,457.18,254.5,457.028,254.5Z"/><path class="cls-1" d="M457.331,167.988c-20.56,0-36.218-15.4-36.29-35.728a36.045,36.045,0,0,1,35.476-36.6c.338-.006.677-.006,1.016,0a36.421,36.421,0,0,1,36.045,36.377,35.829,35.829,0,0,1-35.7,35.96C457.7,167.991,457.515,167.99,457.331,167.988Z"/><path class="cls-1" d="M370.91,167.988c-20.56,0-36.045-15.283-36.175-35.728S350.249,95.841,370.3,95.653a36.276,36.276,0,0,1,36.763,35.782c0,.194,0,.387,0,.58a35.728,35.728,0,0,1-35.479,35.975Q371.251,167.993,370.91,167.988Z"/><path class="cls-1" d="M370.8,254.5c-20.46,0-36.045-15.514-36.045-35.93s15.6-36.333,35.684-36.4a36.16,36.16,0,0,1,36.634,35.68q0,.378,0,.754a35.8,35.8,0,0,1-35.695,35.9C371.181,254.5,370.988,254.5,370.8,254.5Z"/></svg>