<svg xmlns="http://www.w3.org/2000/svg" id="Layer_1" data-name="Layer 1" viewBox="0 0 1641.8 351"><defs><style>.cls-1{fill:#fff}</style></defs><title>Twitter</title><path d="M746.7,338c150.95,0,233.49-125,233.49-233.49,0-3.56-.07-7.1-.23-10.61a167.11,167.11,0,0,0,40.94-42.5,163.45,163.45,0,0,1-47.13,12.92A82.39,82.39,0,0,0,1009.86,19a164.7,164.7,0,0,1-52.11,19.92A82.13,82.13,0,0,0,817.9,113.73,233,233,0,0,1,648.74,28a82.14,82.14,0,0,0,25.41,109.56A81.58,81.58,0,0,1,637,127.28c0,.34,0,.69,0,1.05a82.09,82.09,0,0,0,65.84,80.45,81.88,81.88,0,0,1-37.06,1.41,82.16,82.16,0,0,0,76.66,57,164.67,164.67,0,0,1-101.92,35.13,166.47,166.47,0,0,1-19.58-1.14A232.28,232.28,0,0,0,746.7,338" class="cls-1"/></svg>