<svg id="Layer_1" data-name="Layer 1" xmlns="http://www.w3.org/2000/svg" viewBox="0 0 1641.8 351"><defs><style>.cls-1,.cls-2{fill:#fff;}.cls-1{fill-rule:evenodd;}</style></defs><title>Vanguard</title><path class="cls-1" d="M821.206,247.838c6.179-1.685,11.8-3.37,17.695-4.775a17.929,17.929,0,0,1,14.605,2.247c4.213,2.809,4.213,7.584,0,10.392a46.569,46.569,0,0,1-8.707,3.371c-7.583,2.247-15.728,3.651-23.031,6.46a19.422,19.422,0,0,0-12.92,18.537c-.281,8.707,5.337,16.29,15.167,19.941,8.707,3.37,17.975,3.09,26.963,2.809a2,2,0,0,0,1.685-.843c1.966-3.651,3.652-7.3,5.337-10.673a73.791,73.791,0,0,1-10.954-1.685,9.948,9.948,0,0,1-6.46-12.077,10.834,10.834,0,0,1,3.09-4.775,28.752,28.752,0,0,1,14.043-5.336V282.1c0,13.2,6.741,21.345,19.38,23.873a38.393,38.393,0,0,0,8.145.562h55.049c-5.336-2.809-6.46-7.864-6.46-12.92v-35.67a13.665,13.665,0,0,1,.281-3.37,11.07,11.07,0,0,1,12.077-10.111h.281c5.9.561,8.707,3.932,8.707,11.234v50.556h35.389a12.784,12.784,0,0,1-7.022-12.077v-42.13c-.28-13.482-7.583-22.188-20.784-24.716a30.98,30.98,0,0,0-25.558,5.9c-.843.562-1.685,1.4-3.09,2.247-.281-3.09-.281-5.9-.281-8.707l-35.108,1.4c5.9,2.528,6.179,7.865,6.179,12.92v50.837c0,1.123-.281,1.966-.281,2.809-12.077,2.246-18.537-3.371-18.537-15.167,0-7.864,0-15.729-.281-23.593-.281-14.886-6.74-23.593-21.065-27.525a70.9,70.9,0,0,0-35.95.281,4.485,4.485,0,0,0-2.528,1.966C824.577,236.6,822.892,241.94,821.206,247.838Z"/><path class="cls-1" d="M1263.85,228.177c4.494,2.247,5.617,6.18,6.179,10.392v52.8a13.673,13.673,0,0,1-.281,3.371c-12.358,2.246-18.818-3.09-19.1-15.448,0-8.426,0-16.852-.561-25.278-.562-10.954-5.056-19.38-15.729-23.593-13.762-5.336-27.525-4.493-41.568-1.4a2.973,2.973,0,0,0-1.966,1.685c-1.966,5.618-3.651,11.516-5.617,17.133,5.9-1.685,11.8-3.37,17.694-4.775a20.18,20.18,0,0,1,14.044,1.686c5.055,3.089,5.336,8.145.28,11.234a40.619,40.619,0,0,1-8.145,3.09c-6.459,1.685-13.2,2.808-19.66,4.774-10.673,3.371-16.571,11.235-16.571,21.065,0,8.988,6.179,16.01,16.852,19.661,8.145,2.808,16.852,2.528,25.278,2.247a2.55,2.55,0,0,0,1.966-.843c1.966-3.651,3.651-7.021,5.336-10.673a73.831,73.831,0,0,1-10.954-1.685,9.021,9.021,0,0,1-6.46-8.426,8.71,8.71,0,0,1,4.213-8.988c4.213-1.966,8.707-3.932,13.2-5.617,0,5.337-.281,9.83,0,14.043a19.992,19.992,0,0,0,13.482,19.38,48.109,48.109,0,0,0,12.639,2.528c17.975.281,35.95,0,53.926,0a9.546,9.546,0,0,0,2.808-.281c-5.617-2.528-6.179-7.3-6.179-12.077-.281-11.516-.281-22.75,0-34.266a13.8,13.8,0,0,1,13.2-14.324h.281a57.418,57.418,0,0,1,9.83,0V229.02c0-2.528-.842-3.37-3.089-3.37a19.271,19.271,0,0,0-17.976,7.864,15.409,15.409,0,0,0-2.247,2.809v-9.831Z"/><path class="cls-1" d="M1378.443,231.548h-.842c-1.124-.562-1.967-1.124-3.09-1.685a31.568,31.568,0,0,0-34.827,2.808c-19.1,13.482-21.908,46.343-5.618,63.476a34.06,34.06,0,0,0,29.21,11.515c1.686-.281,4.213-.561,5.056-1.685,2.809-3.932,4.775-8.426,7.3-12.92-12.077,0-17.694-4.493-20.784-15.728a42.472,42.472,0,0,1,0-22.188,21.374,21.374,0,0,1,4.213-7.865,10.335,10.335,0,0,1,14.6-1.685,8.375,8.375,0,0,1,3.371,4.775,21.354,21.354,0,0,1,1.4,9.268c.281,14.6,0,28.93,0,43.535a16.01,16.01,0,0,0,.281,3.651h35.67a9.84,9.84,0,0,1-6.179-8.145,41.88,41.88,0,0,1-.562-5.9V191.946l-35.67,1.4a9.862,9.862,0,0,1,5.9,9.55C1378.724,212.168,1378.443,221.718,1378.443,231.548Z"/><path class="cls-1" d="M715.039,191.665l-.281.843c5.618,2.808,7.584,7.864,9.55,13.2,8.707,24.155,17.694,48.59,26.12,72.744,6.179,17.414,19.942,24.436,36.513,28.649l39.04-115.436H795.086c8.145,5.617,9.268,8.988,6.46,18.256-3.09,10.111-6.46,20.223-9.55,30.334-3.37,10.673-6.74,21.626-10.392,33.423a33.714,33.714,0,0,1-1.685-4.775c-8.426-24.716-16.852-49.432-25-74.148a3.7,3.7,0,0,0-4.494-3.09c-8.145.281-16.29,0-24.435,0Z"/><path class="cls-1" d="M1084.658,241.1h-19.1a7.9,7.9,0,0,0-2.247.281,19.7,19.7,0,0,0,1.686,2.528,23.111,23.111,0,0,1-3.371,32.3,11.776,11.776,0,0,1-3.932,2.528,74.115,74.115,0,0,1-27.525,8.145c-2.528.281-6.179-.281-5.9,3.652.281,3.651,3.932,3.651,6.46,3.651,8.145.281,16.29,0,24.435.842a35.917,35.917,0,0,1,12.077,3.933,23.6,23.6,0,0,1,9.55,32.018,24.184,24.184,0,0,1-7.584,8.426,45.537,45.537,0,0,1-24.716,8.145c-12.358,1.124-25,1.685-37.074-2.247a46.284,46.284,0,0,1-12.358-6.179c-9.269-6.46-7.864-18.256,2.247-23.312,7.022-3.37,14.324-3.089,22.188-1.966-4.494,2.247-6.179,5.618-5.336,9.831a12.272,12.272,0,0,0,8.426,8.145,27.232,27.232,0,0,0,19.941-.843,10.647,10.647,0,0,0,7.022-11.234,10.3,10.3,0,0,0-7.3-10.392,103.351,103.351,0,0,0-16.29-2.247,53.957,53.957,0,0,0-6.741,0,16.98,16.98,0,0,1-16.851-16.291,4.772,4.772,0,0,1,3.651-5.617c2.527-.842,5.336-1.685,7.583-2.247a130.027,130.027,0,0,1-11.8-8.987,25.606,25.606,0,0,1-1.124-35.951,24.47,24.47,0,0,1,5.9-4.775,49.133,49.133,0,0,1,25.84-6.46h77.519a17.266,17.266,0,0,1,3.651.281v50.837c0,7.583,4.213,11.8,10.954,11.234a8.766,8.766,0,0,0,8.426-6.179,26.11,26.11,0,0,0,1.4-8.145c.281-11.515.281-22.75,0-34.265,0-4.775-.842-9.55-6.179-12.078l34.827-1.4c0,1.685.281,2.809.281,4.213v60.667a25.694,25.694,0,0,0,.281,4.775c0,4.213,2.247,8.426,6.179,10.111h-35.108v-8.988c-1.685,1.124-2.528,1.966-3.37,2.528a31.327,31.327,0,0,1-27.525,5.617c-12.358-3.089-19.1-11.515-19.38-24.154-.281-12.077,0-24.155,0-36.513A19.884,19.884,0,0,0,1084.658,241.1Zm-42.411,14.324a53.79,53.79,0,0,0-2.527-8.987,8.8,8.8,0,0,0-11.8-3.652,11.01,11.01,0,0,0-2.808,2.247c-3.932,4.775-4.494,15.729-.843,20.784a8.92,8.92,0,0,0,8.988,4.213,8.388,8.388,0,0,0,7.3-6.179,74.207,74.207,0,0,0,1.685-8.426Z"/><path class="cls-1" d="M821.206,247.838c1.686-5.617,3.371-11.235,5.337-16.571a3.574,3.574,0,0,1,2.528-1.966,74.142,74.142,0,0,1,35.95-.281c14.324,3.932,20.784,12.639,21.065,27.525,0,7.864.281,15.728.281,23.593,0,11.8,6.741,17.132,18.537,15.166,0-.842.281-1.966.281-2.808V241.659c0-5.056-.281-10.111-6.179-12.92l34.827-1.4c0,3.089.281,5.617.281,8.707,1.4-1.124,2.247-1.685,3.09-2.247a32.005,32.005,0,0,1,25.559-5.9c12.919,2.808,20.5,11.515,20.784,24.716.28,12.92,0,25.839,0,38.759v3.371a12.334,12.334,0,0,0,7.021,12.077H955.179V256.264c0-7.3-2.808-10.954-8.707-11.235A11.051,11.051,0,0,0,934.4,254.86v.281a13.665,13.665,0,0,0-.281,3.37v35.67c0,5.336,1.124,10.111,6.46,12.92H885.525a79.331,79.331,0,0,1-8.146-.562C864.46,304.011,858,295.866,858,282.665V271.992a28.753,28.753,0,0,0-14.043,5.337,9.486,9.486,0,0,0,3.37,16.571,73.791,73.791,0,0,0,10.954,1.685c-1.686,3.371-3.371,7.022-5.337,10.673a2.427,2.427,0,0,1-1.685.843c-8.988,0-18.256.561-26.963-2.809-9.83-3.932-15.448-11.235-15.167-19.941a19.691,19.691,0,0,1,12.92-18.538c7.3-2.808,15.448-4.212,23.031-6.459a46.569,46.569,0,0,0,8.707-3.371c4.213-2.528,4.213-7.3,0-10.392a17.765,17.765,0,0,0-14.605-2.247C833,244.187,827.105,246.153,821.206,247.838Z"/><path class="cls-1" d="M1263.85,228.177l35.108-1.4v9.83c1.124-1.4,1.966-1.966,2.247-2.808a19.536,19.536,0,0,1,17.976-7.864c2.246.28,3.37,1.123,3.089,3.37-.281,5.336,0,10.954,0,16.571-3.37-.281-6.46,0-9.83,0a13.973,13.973,0,0,0-13.482,14.043v.281c-.281,11.516-.281,22.75,0,34.266,0,4.774.843,9.549,6.179,12.077-.842,0-1.685.281-2.808.281-17.976,0-35.951.281-53.926,0a33.814,33.814,0,0,1-12.639-2.528,19.99,19.99,0,0,1-13.482-19.38c-.281-4.213,0-8.707,0-14.043a109.509,109.509,0,0,0-13.2,5.617,8.709,8.709,0,0,0-4.213,8.988,9.394,9.394,0,0,0,6.46,8.426,73.811,73.811,0,0,0,10.954,1.685c-1.685,3.37-3.37,7.022-5.336,10.673a2.551,2.551,0,0,1-1.967.843c-8.425,0-17.132.561-25.277-2.247-10.392-3.652-16.571-10.673-16.852-19.661-.281-9.83,5.617-17.414,16.571-21.065,6.46-1.966,13.2-3.089,19.66-4.774a28.676,28.676,0,0,0,8.145-3.09c5.056-2.809,4.775-8.145-.281-11.235a18.753,18.753,0,0,0-14.043-1.685c-5.9,1.124-11.515,3.09-17.694,4.775,1.685-5.617,3.651-11.516,5.617-17.133a2.97,2.97,0,0,1,1.966-1.685c14.043-3.09,28.087-3.932,41.568,1.4,10.673,4.213,15.167,12.639,15.729,23.593.561,8.426.281,16.852.561,25.278,0,12.358,6.46,17.694,19.1,15.447,0-1.123.281-2.247.281-3.37v-52.8C1269.748,234.076,1268.625,230.144,1263.85,228.177Z"/><path class="cls-1" d="M1378.443,231.548c0-9.83.281-19.38,0-29.21a10.3,10.3,0,0,0-5.9-9.55l35.67-1.4V292.215a41.88,41.88,0,0,0,.562,5.9,9.37,9.37,0,0,0,6.179,8.145h-35.67c0-1.123-.281-2.528-.281-3.651V259.073a35.342,35.342,0,0,0-1.4-9.269,10.706,10.706,0,0,0-13.2-6.46,9.394,9.394,0,0,0-4.775,3.371,21.362,21.362,0,0,0-4.213,7.864,42.472,42.472,0,0,0,0,22.188C1358.5,288,1364.119,292.5,1376.2,292.5c-2.528,4.493-4.494,8.706-7.3,12.919-.843,1.124-3.371,1.686-5.056,1.686a33.309,33.309,0,0,1-29.21-11.516c-16.29-17.414-13.762-49.994,5.617-63.475a32.618,32.618,0,0,1,34.828-2.809c1.123.562,1.966,1.123,3.089,1.685C1377.881,231.548,1378.162,231.548,1378.443,231.548Z"/><path class="cls-1" d="M715.039,191.665h35.108a4.239,4.239,0,0,1,4.494,3.09c8.426,24.716,16.571,49.432,25,74.148.562,1.4.843,2.528,1.686,4.775,3.651-11.8,7.021-22.47,10.392-33.423,3.089-10.111,6.459-20.223,9.549-30.334,2.809-9.268,1.685-12.358-6.46-18.256h30.9L786.66,307.1c-16.571-4.213-30.334-11.235-36.513-28.649-8.425-24.435-17.413-48.589-26.12-72.744-1.966-5.336-4.213-10.392-9.549-13.2Z"/><path class="cls-1" d="M1430.4,189.98a12.92,12.92,0,1,0,12.92,12.92h0a12.885,12.885,0,0,0-12.92-12.92Zm0,23.873a11.095,11.095,0,1,1,11.235-11.234c-.281,6.46-5.056,11.234-11.235,11.234Z"/><path class="cls-2" d="M1425.348,208.517V197h5.055a5.473,5.473,0,0,1,2.247.281,2.8,2.8,0,0,1,1.4,1.124,3.985,3.985,0,0,1,.562,1.685,2.551,2.551,0,0,1-.842,1.966,3.561,3.561,0,0,1-2.528,1.123c.281.281.562.281.842.562l1.4,1.405,1.966,3.089h-1.966l-1.4-2.528a5.877,5.877,0,0,1-1.123-1.685l-.843-.843a.978.978,0,0,1-.561-.28h-2.528v5.617Zm1.4-6.179h3.37a3.564,3.564,0,0,0,1.686-.281c.28,0,.561-.281.842-.562s.281-.561.281-1.123a2.141,2.141,0,0,0-.562-1.4,4.054,4.054,0,0,0-1.966-.562h-3.651Z"/><path class="cls-1" d="M436.421,289.687h10.954a11.933,11.933,0,0,0,.561-3.09h4.213c.281,1.124.281,1.967.562,3.09h11.235a12.341,12.341,0,0,0,.561-2.809c1.967-1.4,4.213,0,4.775,2.809h11.235l.842-3.09c2.528-.28,4.775-1.123,4.494,3.09h11.516c.281-.843.281-1.966.561-3.09h4.213l.843,3.09c9.549.281,19.1,1.4,27.244-6.741-12.639,2.809-25,1.4-37.355,1.4q-117.543,0-235.084.28c-3.933,0-6.179-.561-7.022-4.774a6.314,6.314,0,0,0-5.9-5.618c-.843,0-1.405-1.4-2.809-2.808H267.34l.281-1.124c-1.124-.281-1.966-.561-3.09-.842H249.365a3.643,3.643,0,0,1-3.932-2.528,8.253,8.253,0,0,0-5.056-5.9c-.843-.281-1.4-1.685-2.247-2.809h9.83c-2.527-3.37-4.774-6.46-7.021-9.549a4.224,4.224,0,0,0-3.09-1.124c-10.954-1.4-21.626-2.808-32.58-4.494a16.435,16.435,0,0,0-3.651-.561v-1.124h3.37c5.055.562,10.111,1.124,14.886,1.966a7.872,7.872,0,0,0,8.145-2.247c.562-.561,1.123-.842,1.685-1.4,4.494-3.37,4.213-3.37,2.247-8.707-9.269-25.559-8.707-51.117,3.37-75.833.843-1.405,1.686-3.09,2.809-4.775,6.741,4.494,13.2,8.987,19.661,13.2a9.527,9.527,0,0,0,5.336,1.405,144.926,144.926,0,0,0,22.188-2.247l-5.055-2.809a24.24,24.24,0,0,0,3.932-3.651c9.269-10.392,10.111-23.593,13.2-36.232.561-2.247.842-4.213,1.4-5.9l-10.954-5.055c6.46-6.46,14.043-12.078,17.414-20.784l-11.235-4.494A18,18,0,0,0,297.673,81c4.494-6.179,8.988-12.077,13.2-17.975a62.358,62.358,0,0,1,10.392,2.527c4.494,1.686,7.584.281,10.673-3.089,16.571-18.256,33.423-36.232,49.994-54.488a31.778,31.778,0,0,0,2.809-3.651c1.966,1.123,4.213,2.247,6.46,3.37,32.018,13.763,63.756,27.525,95.775,41.568,2.247.843,3.37.843,4.774-1.123,3.652-5.337,7.584-10.673,12.078-16.852,11.234,11.515,22.188,23.593,33.7,35.108,41.849,41.006,83.417,82.294,125.547,123.019,2.809,2.528,4.775,4.494,8.426,1.685.281-.281.562,0,.843,0h0c-16.01,13.482-29.491,29.491-44.1,44.377-14.886,14.886-29.21,30.333-43.815,45.219-.843.843-1.685,1.966-2.528,2.809a30.413,30.413,0,0,0-3.089-1.685c-8.707-2.247-17.7-4.213-26.4-6.46a6.2,6.2,0,0,0-6.74,3.089c-3.371,4.775-6.46,9.55-10.112,14.044a25.928,25.928,0,0,0-7.021,12.358c0,.561-1.124,1.4-1.966,1.685a3.9,3.9,0,0,1-2.528,0H256.105c-1.4-7.022,3.371-13.763-1.4-20.5H270.71a18.812,18.812,0,0,1-1.966,3.089H280.26l-.281-.562c1.123-.842,2.528-2.246,3.932-2.246.843,0,1.966,1.4,2.247,3.089h10.954l.842-3.089h4.213c.281.842.281,1.966.562,3.089h11.235a22.817,22.817,0,0,0,.842-3.089h4.213c.281.842.281,1.966.562,3.089H331.1a11.936,11.936,0,0,1,.562-3.089c2.528-.281,5.056-1.124,4.775,3.089h11.515c.281-.843.281-1.966.562-2.809,1.966-1.4,4.213,0,4.775,2.809h10.954l-.281-.562c1.123-.842,2.247-2.247,3.37-2.247s1.966,1.405,3.09,2.247l-.562.843H380.81a22.945,22.945,0,0,0,.842-3.09h4.213c.281,1.124.562,1.966.843,3.09h11.234c-.28-3.37,1.966-3.651,4.775-3.09l.843,3.09h11.234c.281-.843.281-1.966.562-3.09h4.213c.281.843.281,1.966.562,3.09h10.954c-.281-.281-.281-.562-.562-.843a12.879,12.879,0,0,1,3.651-2.247c.843,0,1.966,1.405,2.809,2.247C436.421,289.125,436.421,289.406,436.421,289.687Zm147.735-58.982c1.685.281,3.651,1.405,4.775.843,6.46-2.809,12.639-5.9,18.818-8.988,0-.281-.281-.562-.281-.842-7.583,2.808-15.448,5.9-23.312,8.987l-9.268,3.652,1.685,3.089c7.021-2.528,7.583-2.809,7.583-6.741ZM539.5,267.218l8.145-1.685v6.179c4.493-1.4,5.9-5.337,8.706-7.865a45.693,45.693,0,0,0-8.706.843,45.235,45.235,0,0,0-8.145,2.528l-18.538,9.549C529.106,277.61,533.6,275.363,539.5,267.218ZM365.081,29.044c-.562.281-.842.281-1.123.562-11.235,12.358-22.75,24.435-33.985,36.793a1.032,1.032,0,0,1-.281.843c5.337,1.123,10.673,2.527,16.009,3.651,8.146,1.685,8.146,1.685,12.359-5.337a9.027,9.027,0,0,0,.28-3.932c5.618-.561,16.852-16.852,18.257-28.086-5.056,1.685-8.145-1.966-11.516-4.494,3.651-.281,7.3-.281,10.954-.281.843,0,2.528-.842,2.528-1.4,1.685-5.9,3.37-12.077,4.774-17.976a95.775,95.775,0,0,0-10.672,10.673c-2.528,2.809-5.056,5.9-7.584,8.988ZM448.5,270.307c.562-10.953,1.4-21.345,1.966-31.738a5.209,5.209,0,0,0-1.966-3.37c-6.46-5.617-13.2-10.673-19.1-16.852a22.291,22.291,0,0,0-18.818-6.741c-10.392.562-20.5.562-29.21,6.741a.275.275,0,0,0-.281.281c-1.966.562-2.527,1.685-2.246,3.651v44.377c1.4.562,2.527,1.123,3.651,1.685s1.966,1.685,3.089,2.528a5.888,5.888,0,0,0,3.09,1.123C408.334,271.15,428.276,273.4,448.5,270.307Zm82.294-114.874c5.9,10.673,12.077,20.784,17.413,31.457,2.247,4.494,4.775,6.741,9.831,5.9a6.185,6.185,0,0,1,2.247.281c0,.281,0,.562.28.562l-5.055,2.528a18.533,18.533,0,0,0,.281,3.932c6.179,10.954,12.358,21.907,18.537,33.142l46.623-18.256c-38.2-35.951-76.114-71.34-113.75-106.729,7.864,10.954,16.009,21.627,24.154,32.3,3.371,4.493,6.46,7.864,12.358,6.74l.281.281Zm-5.056-67.688q1.686,2.106,3.37,4.213l96.9,112.627c5.056,5.9,5.056,6.179,12.358,2.528,6.741-3.371,13.762-6.741,20.784-10.112a21.226,21.226,0,0,1-2.528-2.527q-61.931-53.5-124.142-107.01a4.436,4.436,0,0,0-6.179-.843A2.13,2.13,0,0,1,525.736,87.745Zm104.2,123.3L525.174,89.149c-6.46,1.966-12.358,3.651-18.256,5.617-1.123.281-2.528,1.124-2.809,1.967-.28,1.123.843,2.246,1.405,3.37v1.123l-1.966,1.405,1.966,1.966c37.355,35.108,74.991,70.216,112.346,105.324,5.336,5.056,5.336,5.056,12.077,1.124Zm-133.13,59.262a37.871,37.871,0,0,0,9.83-.561,80.564,80.564,0,0,0,16.01-6.741c12.639-7.3,25.277-15.167,38.2-23.031a25.3,25.3,0,0,1-2.808-2.528c-8.707-7.864-17.695-15.448-26.4-23.593-3.37-3.37-6.741-4.774-11.515-3.089a21.369,21.369,0,0,1-5.9.842c-5.9.843-11.8,1.405-17.695,1.966ZM508.042,64.714l1.685,1.685,148.3,128.075c3.089,2.527,4.774.842,7.021-.843L512.816,44.492l-.561.561c3.651,3.932,5.617,8.988,10.953,12.639ZM393.168,83.532c.281.281.561.281.842.562a173.077,173.077,0,0,0,78.643,2.247,15.231,15.231,0,0,0,6.74-2.528c4.775-4.494,9.269-9.269,13.763-14.044a15.093,15.093,0,0,0,1.4-3.089,25.933,25.933,0,0,1-6.46.281c-10.111-.281-20.5,0-30.614-1.405A154.807,154.807,0,0,1,398.5,43.649a5.658,5.658,0,0,0-3.089-.843,10.355,10.355,0,0,0,1.4,3.09c3.651,4.494,7.583,9.268,11.515,13.762a18.029,18.029,0,0,0,3.652,2.809ZM461.7,147.007c0-.28.281-.561.281-.842L388.674,88.026a5.893,5.893,0,0,0,1.123,3.089c8.426,12.639,16.852,25.278,25,37.917,2.809,4.213,5.337,7.864,11.235,6.46a.275.275,0,0,1,.281.281l-30.895,19.941c6.74,6.179,13.2,12.077,19.941,17.976a2.867,2.867,0,0,0,2.528.561,114.726,114.726,0,0,0,43.253-21.907,12.468,12.468,0,0,0-2.247-3.09,13.934,13.934,0,0,0-3.651-1.123l.281-.843ZM398.223,39.155a8.423,8.423,0,0,0,2.247,1.124A162.012,162.012,0,0,0,445.97,54.6a318.143,318.143,0,0,0,32.581,2.528c4.213.28,8.426-.843,9.83-6.18L388.674,7.979A76.116,76.116,0,0,0,396.538,19.5c2.809,3.37,4.494,7.864,8.707,9.83-.562.281-1.124.842-1.685,1.123C401.875,33.257,400.189,36.346,398.223,39.155ZM238.692,152.344c-15.729,25.559-14.324,60.386-2.809,82.574,3.371-2.528,6.46-5.336,9.83-7.864a4.924,4.924,0,0,0,2.247-5.336c-.842-19.1-1.685-38.479-2.247-57.578C245.994,158.242,244.028,154.591,238.692,152.344Zm155.6-62.633-.562.842,71.34,56.454,13.2-17.975Zm3.09,0,82.574,38.478c2.247-9.83,4.775-19.379,7.022-29.49A190.484,190.484,0,0,1,397.381,89.711ZM249.365,159.646c1.966,20.5,3.651,40.164,5.336,60.386l21.908-17.413L260.88,195.6c0-.281.281-.562.281-.842h3.651c1.685,0,3.932.28,5.056-.562,3.932-3.932,7.583-8.145,11.515-12.077ZM508.6,275.082H269.025l2.809,4.775,2.528-3.09h3.651c.281,1.124.281,2.247.562,3.09h11.234c.281-1.124.562-2.247.843-3.09h3.932a14.491,14.491,0,0,1,.562,3.09H306.38a14.491,14.491,0,0,0,.562-3.09h3.932c.281,1.124.562,2.247.843,3.09h11.234c.281-1.124.562-2.247.843-3.09h4.213a11.519,11.519,0,0,1,.281,3.09h11.234c.281-1.124.281-2.247.562-3.09H344.3c.281,1.124.281,2.247.562,3.09h11.234c.281-1.124.562-2.247.843-3.09h4.213c.281,1.124.281,1.966.562,3.09h11.234a14.491,14.491,0,0,0,.562-3.09h3.932l.843,3.09h11.234c.281-1.124.562-2.247.843-3.09h3.932a14.491,14.491,0,0,1,.562,3.09h11.235a14.546,14.546,0,0,0,.561-3.09h4.213a14.491,14.491,0,0,1,.562,3.09h11.235a14.546,14.546,0,0,0,.561-3.09h4.213c.281,1.124.562,2.247.843,3.09H439.51c.281-1.124.281-1.966.562-3.09h4.494a12.594,12.594,0,0,1,.281,3.09h11.515a14.491,14.491,0,0,0,.562-3.09h4.213a11.943,11.943,0,0,1,.562,3.09h11.234l.562-3.09h3.932c.281,1.124.562,2.247.843,3.09h10.954c.28-1.124.561-2.247.842-3.09h4.213c.281,1.124.562,2.247.843,3.09h14.324Zm-90.719-139.59-30.9-46.343h-1.124a13.485,13.485,0,0,0-1.4,4.775c0,7.3.281,14.6.281,21.907v21.627h14.043c.562,0,1.4,0,1.685-.281,1.4-2.809,3.932-1.685,6.179-1.685,3.371-.281,6.741,0,11.235,0Zm55.33,21.065L463.1,152.063a119.775,119.775,0,0,1-45.219,23.312c3.932,4.213,7.3,8.145,13.762,7.3,5.056-.842,10.111-.561,15.448-.842,2.528-.281,5.055-.562,8.426-1.124l-7.864-6.741.842-.842,8.707,6.741c3.932-2.809,7.864-5.618,11.515-8.426a4.372,4.372,0,0,0,1.686-2.247C471.248,164.983,472.372,160.77,473.214,156.557Zm189.865,40.725a2.1,2.1,0,0,0-1.4.281c-9.269,4.775-18.537,9.83-27.806,14.605a6.636,6.636,0,0,0-2.528,2.247c-15.728,19.38-31.176,38.759-46.9,58.139a8.706,8.706,0,0,0-1.4,7.864C610,252.332,636.4,225.088,663.079,197.282ZM528.545,209.64c10.954,9.55,21.346,19.1,32.3,28.368a2.735,2.735,0,0,0,2.528.281c3.09-1.686,6.179-3.371,9.549-5.337L556.912,204.3c-3.651-6.46-3.651-6.46-9.549-2.528a59.406,59.406,0,0,1-5.9,3.09C537.252,206.551,533.039,207.955,528.545,209.64Zm-26.121-24.154a1.685,1.685,0,0,0,.281,1.123c4.494,4.213,8.707,9.55,16.29,8.146a29.351,29.351,0,0,1,7.022,0c.562,0,1.685.28,1.966-.281,1.966-3.09,5.336-1.686,7.864-1.686,3.652-.28,7.584,0,11.235,0-10.954-9.268-21.627-17.694-32.58-26.12a3.922,3.922,0,0,0-2.528-.843l-8.426,3.371a1.866,1.866,0,0,0-1.124,1.4v10.111l4.213.843c0,.281.281.562.281.842ZM488.381,91.677a26.983,26.983,0,0,1-7.864-3.09,7.13,7.13,0,0,0-6.179-1.4,174.074,174.074,0,0,1-61.51,1.685c-6.46-.842-12.92-2.247-20.5-3.651A36.786,36.786,0,0,1,395.7,86.9,178.589,178.589,0,0,0,482.2,98.137C487.819,97.294,487.819,97.294,488.381,91.677ZM495.4,62.748c-2.809-.843-5.337-1.685-8.145-2.528a16.948,16.948,0,0,0-5.337-1.685c-5.055,0-10.111.562-14.886.281A187.654,187.654,0,0,1,400.47,41.964a13.683,13.683,0,0,0-3.089-1.124,5.507,5.507,0,0,0,2.527,2.528c7.022,3.651,14.044,7.583,21.065,10.673a139.5,139.5,0,0,0,70.778,11.8c2.247-.561,3.933-.842,3.652-3.089ZM325.479,209.64A111.776,111.776,0,0,1,313.4,220.594a14.332,14.332,0,0,0-7.022,15.729,47.983,47.983,0,0,1,0,8.987c4.213-1.4,7.584-2.528,11.235-3.37a5.465,5.465,0,0,0,4.213-3.932c1.966-7.022,3.932-14.043,6.46-21.065a5.77,5.77,0,0,0-2.809-7.3Zm-47.185-6.74c-4.494,3.651-8.988,7.021-13.482,10.672-3.37,2.528-7.864,4.775-9.268,8.146s0,8.145.561,12.358c.281,3.932.843,7.583,1.124,12.639C266.5,232.39,278.575,220.594,278.294,202.9Zm172.451,32.58c.843-9.269,1.4-17.695,2.247-26.4a36.778,36.778,0,0,0-7.583-1.686c-7.3.843-14.605,2.528-22.189,3.933C432.208,219.752,441.2,227.335,450.745,235.48Zm51.4-128.636v29.491a4.053,4.053,0,0,0,1.966,3.089c4.494,2.247,8.988,4.494,13.763,6.46a51.732,51.732,0,0,0,7.022,1.4C517.029,133.245,509.727,120.325,502.143,106.844ZM514.5,164.7l34.265,26.682.562-.562-19.38-34.546Zm-203.628-6.179,19.38-4.775-19.38-29.772Zm76.4,16.571a69.893,69.893,0,0,0,27.524-.562L404.4,165.264l-9.549-8.707c-10.111,6.179-10.111,6.179-8.988,14.043l5.056.562Zm-8.707,33.7c12.077,4.774,21.626-.281,30.333-7.022A11.2,11.2,0,0,0,398.223,197c-3.932.281-7.864,0-11.8,0h-7.864ZM335.59,237.446c-4.774,1.685-8.707,2.809-12.639,4.213a3.279,3.279,0,0,0-1.685,1.685q-2.949,9.269-5.9,19.38l13.482.843ZM315.368,88.307c4.213,3.932,8.988,8.145,13.482,12.358a3.328,3.328,0,0,0,2.808.281c7.3-1.967,7.584-9.269,12.358-13.763-6.179-.842-11.234-1.685-16.29-2.528h-1.685C322.671,85.779,319.3,87.183,315.368,88.307ZM583.033,271.15l.842.281,40.164-49.994c-13.482,12.077-26.4,24.716-39.321,37.355a3.188,3.188,0,0,0-.843,2.247c-.561,3.089-.561,6.74-.842,10.111ZM352.723,124.257a31.916,31.916,0,0,1-4.494-4.213c-1.685-1.966-3.089-1.685-5.336-.842-4.775,2.247-9.55,3.932-14.6,5.9-2.247.843-4.494,1.4-7.3,2.247,8.145,2.247,15.448,4.494,22.75,6.46a3.394,3.394,0,0,0,2.809-.843C348.51,130.436,350.476,127.347,352.723,124.257ZM554.946,271.992l26.4,2.247v-13.2C570.394,259.634,562.249,263.847,554.946,271.992ZM368.171,136.615,376.6,98.7l-.843-.843c-2.528,2.528-6.46,4.775-7.583,7.864a211.987,211.987,0,0,0-5.618,23.031,3.462,3.462,0,0,0,.562,2.809C364.239,133.245,366.205,134.649,368.171,136.615Zm-16.01-62.633c-8.145-1.966-15.447-3.651-23.031-5.055a6.614,6.614,0,0,0-2.247.562c-1.966,1.966-3.932,4.213-5.9,6.459,1.4,1.967,2.809,3.933,4.213,5.618a3.189,3.189,0,0,0,2.247.842A82.972,82.972,0,0,0,352.161,73.982ZM394.01,45.053c-5.336,4.775-10.111,8.988-7.3,16.852h21.346ZM341.769,146.446l-27.524-20.784a265.2,265.2,0,0,0,14.885,24.154c2.528,4.213,3.933,4.775,8.146,2.528,1.966-1.4,2.808-3.651,4.493-5.9ZM564.5,243.906c-1.686-2.528-3.09-2.809-5.618-1.4-6.46,4.213-13.2,7.864-19.66,12.077-5.9,3.651-11.8,7.021-17.695,10.673,0,.281.281.561.281.842a34.174,34.174,0,0,0,10.673-1.966c8.426-3.932,16.571-8.987,25-13.481-.281-1.124-.281-1.966-.562-3.09Zm-101.112,3.37,1.123-.281,14.044-33.142c-5.337.562-2.528,6.179-5.9,8.707.561-3.37,1.123-6.179,1.685-9.268L469,212.73a2.126,2.126,0,0,0-.561,1.123c-2.247,9.831-4.494,19.661-6.46,29.21C461.7,244.187,462.822,245.872,463.384,247.276Zm-2.809-3.651,7.022-31.176-5.617-.843c-1.124,5.056-2.247,10.112-3.371,14.886l-1.123-.281c1.123-4.774,1.966-9.83,3.089-15.166l-4.213-.562c0,8.707.281,17.133,0,25.559A6.535,6.535,0,0,0,460.575,243.625Zm-130.6-29.21-7.864,26.4a12.679,12.679,0,0,1,2.247-.561c11.8-3.652,11.8-3.652,12.077-16.01a5.658,5.658,0,0,0-.843-3.089A59.466,59.466,0,0,0,329.973,214.415Zm17.133,17.133q2.106-9.269,4.213-18.537c1.685-7.864,1.685-7.864-6.46-10.392a133.655,133.655,0,0,0-2.809,14.6C340.927,222.56,340.927,227.9,347.106,231.548ZM345.14,117.236a103.942,103.942,0,0,1-7.864-7.3,3.507,3.507,0,0,0-4.775-.562l-.281.281c-5.9,3.932-8.145,10.392-12.358,15.448.281.281.562.843.842,1.123Zm66.565,84.821c2.808,2.528,5.617,5.056,8.426,7.3a3.187,3.187,0,0,0,2.247.843c6.46-.843,12.919-1.685,19.66-2.809a217.882,217.882,0,0,0-22.188-9.268,2.983,2.983,0,0,0-2.247.281c-1.966.842-3.651,2.247-5.9,3.651ZM306.661,225.088l18.256-16.571-4.493-5.337c-14.044,6.46-14.6,7.584-14.044,20.5A7.869,7.869,0,0,0,306.661,225.088Zm-.281,36.793c7.584,1.405,7.584,1.405,9.55-5.336a34.066,34.066,0,0,0,1.4-5.056c.843-2.808,1.685-5.617,2.528-8.987-4.494,1.4-8.145,2.247-11.8,3.651-.843.281-1.967,1.123-1.967,1.966.281,4.775.281,9.268.281,13.762Zm99.146-193.8h-19.38c-.281,3.371,0,6.741,0,10.111a8.956,8.956,0,0,0,2.528,4.494c.281.562,2.528.281,3.089-.281,4.775-4.774,8.988-9.549,13.763-14.324ZM521.242,84.655c-5.9-6.74-11.234-13.2-17.133-19.941V84.655Zm13.2,61.51L505.8,109.091a6.407,6.407,0,0,0,.842,3.089c5.337,9.55,10.954,18.818,15.729,28.368,2.528,5.336,5.9,7.864,12.077,5.617ZM337.556,98.979c.281.281.281.562.562.843,6.46-1.966,12.639-4.213,19.1-5.9a6.715,6.715,0,0,0,5.617-7.022H346.825a2,2,0,0,0-1.685.843C342.331,91.677,340.084,95.328,337.556,98.979ZM269.587,249.523c3.37-1.123,6.179-1.685,6.741-5.336,1.123-5.9,2.528-11.8,3.651-17.7,1.123-4.774,1.966-9.549,3.09-14.324a26.264,26.264,0,0,0-7.022,10.392C273.519,230.986,271.834,239.974,269.587,249.523Zm14.043-8.145a7.768,7.768,0,0,0,5.9-7.021c.562-3.933,1.686-7.584,2.247-11.235,1.405-7.022,2.809-13.763,4.213-20.784l-.842-.843c-1.405.843-3.652,1.405-3.932,2.528-2.247,12.077-4.775,24.435-7.584,37.355ZM504.109,35.5v20.5h15.729ZM386.146,28.482h15.448L386.146,7.7Zm-48.59,80.047c2.528,2.247,5.056,4.775,7.584,6.741a2.309,2.309,0,0,0,1.966.281A15.4,15.4,0,0,0,358.9,100.1ZM620.107,222.56c0-.281-.281-.281-.281-.562-10.392,7.865-20.784,16.01-31.457,23.593-4.213,3.09-5.056,6.741-4.494,11.8ZM290.371,202.338c-.281-.281-.843-.562-1.123-.843-.281.562-.562,1.405-.843,1.966-3.37,3.652-3.651,8.426-4.775,12.92-1.966,9.55-4.213,19.38-6.179,28.929a6.869,6.869,0,0,0,5.337-5.9c1.966-10.673,4.213-21.346,6.46-32.3A38.5,38.5,0,0,0,290.371,202.338Zm-41.849,24.435-12.358,9.83c4.213,9.55,5.056,10.392,12.358,9.831Zm87.63-60.948.562-.842,4.774,3.089c.843-3.37,1.4-6.179,2.247-9.268a28.833,28.833,0,0,0-4.493,1.4c-1.686.562-3.933.843-4.775,2.247-3.09,4.775-5.9,10.111-8.707,15.167l2.809,2.247c4.213-3.371,8.145-6.46,12.639-9.55Zm-24.716,16.852c1.4.281,2.247.562,3.37.843,1.685.281,4.494,1.4,5.337.562a22.185,22.185,0,0,0,3.932-6.46,2.13,2.13,0,0,0-.562-1.124c-3.651-3.651-7.583-7.021-11.8-10.953v17.132ZM524.613,209.36c0-.281.281-.843.281-1.124-1.4-.843-2.528-2.247-3.933-2.247-7.864-.281-16.009,0-24.154,0v7.3ZM346.263,86.06c5.9-.281,10.673-.562,15.448-.843a3.589,3.589,0,0,0,1.966-1.4,43.5,43.5,0,0,0,1.685-6.46c-3.651-.843-6.741-1.685-10.111-2.247A2.555,2.555,0,0,0,353,76.229,65.193,65.193,0,0,0,346.263,86.06Zm10.673,72.463c-1.123,1.966-1.966,3.932-3.089,5.9-.843,1.966-.843,4.213-1.686,6.179-1.685,3.651-.28,5.617,2.809,7.583,2.528,1.686,3.651,1.124,4.213-1.4a100.744,100.744,0,0,1,2.247-9.83c1.685-4.213.281-6.46-4.494-8.426Zm262.89,61.79-.562-.561L592.3,233.8c-5.336,2.808-5.617,3.651-4.213,10.392ZM394.572,154.872l14.605-9.831H385.023c0,.281-.281.562-.281.843ZM273.8,225.931l-.562-.281-15.167,22.188,10.393,1.4C270.149,241.1,272.115,233.514,273.8,225.931Zm59.543-121.9c0,.562.281,1.123.281,1.966,1.685.281,3.371,1.124,4.775.562,6.46-2.247,12.639-4.775,18.818-7.022a4.186,4.186,0,0,0,3.089-5.055c-7.3,2.247-14.324,4.213-21.626,6.46A17.476,17.476,0,0,0,333.343,104.035ZM247.96,158.523h-1.123c1.123,21.346,2.247,42.972,3.37,64.318l1.405.281a9.166,9.166,0,0,0,1.123-3.651c-1.4-19.38-2.809-38.76-4.494-58.139C248.241,160.208,247.96,159.365,247.96,158.523Zm83.417,5.9H313.121c0,.281-.281.562-.281.843l11.8,10.953Zm117.4,41.006c-3.651-1.4-6.179-2.247-8.988-3.37a52.3,52.3,0,0,1-7.021-3.932l-6.46-4.775c4.775-1.4,9.83,1.124,14.043-1.966-7.022-.281-14.605-2.247-19.941,5.9,8.145,2.809,16.009,5.9,24.154,8.707A16.99,16.99,0,0,0,448.779,205.427Zm-135.658-84.54L312,122.01l5.617,4.213,8.707-13.2H311.717A77.171,77.171,0,0,1,313.121,120.887Zm-7.022,5.9c-8.145,9.269-7.021,21.346-10.672,32.019,2.527.842,3.932.842,4.493-1.966C301.886,146.727,304.133,136.9,306.1,126.785Zm40.445,107.291-.843-.843c-1.4,1.124-3.932,2.247-4.213,3.37-.28,8.426-.28,16.571-.28,25.278,2.808-8.145,5.617-16.009,8.145-23.873.281-.562-.843-1.685-1.685-3.371l-3.933,16.291-1.123-.281c1.4-5.337,2.809-10.954,3.932-16.571ZM496.807,106.844c-3.37,3.651-7.022,7.3-7.583,12.639a39.351,39.351,0,0,1-1.686,7.864c-.842,4.494-1.123,4.494,3.933,5.617,1.685-8.707,3.651-17.413,5.336-26.12ZM348.791,230.424l.843.562c.842-.842,2.527-1.123,2.808-2.247,2.528-7.021,4.775-14.043,7.3-21.065l-5.618-1.685C352.161,214.415,350.476,222.56,348.791,230.424ZM312.278,104.6l12.639-2.247L312.278,88.026Zm58.7-42.13c3.371-1.685,6.179-2.528,7.022-5.9,1.685-6.179,3.089-12.639,4.775-19.1-8.426,6.179-9.55,15.167-11.8,25ZM551.857,272.835a2.528,2.528,0,0,1-.281,1.4l29.491,7.022v-5.9ZM424.625,184.643V183.8c-6.46-.562-12.92-1.124-19.1-2.247s-12.639-2.528-19.1-3.651a107.491,107.491,0,0,0,13.481,8.145c1.686.842,5.337,1.123,5.9.281,1.685-2.809,3.932-1.686,5.9-1.686C415.918,184.363,420.131,184.643,424.625,184.643Zm-79.766-44.376L337,135.492l3.932-.281v-.562l-17.695-5.055-.281.842,19.1,14.6Zm-81.451,25.839v.843c2.528,1.685,4.775,3.37,7.3,4.775a3.326,3.326,0,0,0,2.809.28l12.639-5.055a6.608,6.608,0,0,1,2.247-.562l-1.124-1.685Zm241.263-9.83c0,.281-.281.562-.281.843l7.584,5.9c.561.281,1.4.842,1.966.561l13.481-6.74-.281-.562ZM380.81,95.047c-2.528,1.405-10.673,32.862-10.673,42.411a5,5,0,0,0,1.966-2.247c1.966-10.111,3.651-20.222,5.617-30.333l.843-3.371.842.281c-.561,3.37-1.123,6.46-1.4,9.83a1.459,1.459,0,0,0,1.123.562c.562-.842,1.686-1.4,1.686-2.247Zm41.287,87.63c-3.09-5.336-6.741-8.145-12.358-5.9a3.562,3.562,0,0,1-1.685.281H390.921v1.123Zm-3.651,27.806.28-.843c-2.527-1.966-4.774-4.213-7.3-6.179a1.859,1.859,0,0,0-1.685-.281c-3.932,2.247-8.145,4.775-12.358,7.3Zm40.444,45.781-1.123-.281a34.267,34.267,0,0,1,1.685-7.3c1.123-3.09-.281-5.056-3.651-6.46v25.558c2.527-6.459,5.055-12.077,7.3-17.694.281-.843-.562-2.247-1.123-3.37l-1.124.28ZM337,219.471c.561-6.179,1.123-12.358,1.685-18.818-2.528.281-4.494.561-5.337,3.089C330.816,209.921,329.692,215.539,337,219.471Zm155.6-121.053a3.879,3.879,0,0,1-.843-1.124c-1.4.843-3.651,1.685-3.932,2.809-1.966,7.022-3.37,14.324-5.336,21.907,8.145-6.179,8.145-15.166,10.111-23.592Zm-190.988,102.8c-1.686.843-3.652,1.405-3.933,2.247-1.4,5.337-2.246,10.673-3.37,16.01l1.124.561c3.932-1.4,1.123-6.179,3.932-8.987-.281,3.37-.562,6.179-.562,8.707l1.123.561c.562-.842,1.686-1.685,1.686-2.528Zm66.284,11.235c.562-5.336,1.123-10.111,1.966-16.009-2.528.842-5.056.842-5.337,1.966a133.3,133.3,0,0,0-4.774,13.762c2.528.843,3.651,0,3.932-2.247.562-2.528,1.123-4.774,1.685-7.3l1.124.281c-.562,3.089-1.124,6.179-1.967,9.549Zm5.617-67.689c-5.9.281-6.46.562-6.46,5.056,1.966-1.4,3.651-2.528,5.337-3.651l.561.842a12.168,12.168,0,0,1-1.966,1.686,13.528,13.528,0,0,0-6.46,10.392,3.794,3.794,0,0,0,1.967,4.493c.28,0,.561,0,.561.281.843-4.213,1.685-8.145,2.809-12.077l.842.281c-.28,1.4-.28,2.809-.561,4.494h3.37Zm-69.374-31.176-.842-.842c-.843.562-2.528,1.123-2.809,1.685-1.966,8.426-3.932,16.852-6.179,25.84C302.167,132.683,301.325,122.572,304.133,113.584Zm61.51-4.774-.562-.281c-3.651,5.055-7.021,10.392-10.673,15.447l6.179,5.618Zm62.633,75.272c0,.281,0,.281-.281.561h10.111l.281.843-5.9,3.37a18.633,18.633,0,0,0,19.941-6.179Zm60.1-35.389c.843-4.775,1.966-9.269,2.809-14.044l-4.775-2.247-3.651,16.01h5.617Zm30.053,0,.28-1.124-16.29-7.583v8.707ZM287,168.072l-13.482,5.618,10.673,7.021C285.035,176.5,285.877,172.847,287,168.072Zm193.8-37.636c-1.124,5.337-2.528,10.673-3.932,16.291l4.774.561c.843-3.651,1.405-7.583,2.528-11.515C485.572,132.4,484.168,131,480.8,130.436Zm92.4,116.84L560.563,261.32c7.3.561,10.673-4.775,15.729-7.865A62.936,62.936,0,0,0,573.2,247.276ZM371.26,173.69c-5.617.561-8.707,4.493-12.92,6.74,3.09,2.247,5.618,4.213,8.707,6.179Zm-81.17-13.763c1.966-.842,4.213-1.4,4.213-2.247,1.685-6.46,2.809-13.2,4.494-20.5C292.618,143.637,292.056,151.5,290.09,159.927Zm14.886-16.29h.843a57.906,57.906,0,0,1-.562,5.9c1.4-1.123,2.528-1.685,2.528-2.247V127.909h-.843c-1.966,10.392-4.213,20.5-6.179,30.895l1.4.281C303.291,154.029,304.133,148.693,304.976,143.637Zm174.136-12.358-.561-.562c-3.932,5.056-7.584,10.392-11.516,16.01h8.426C476.866,141.39,477.989,136.335,479.112,131.279ZM337.556,264.69l1.405-.562V236.042c-.562.842-1.685,1.685-1.685,2.247-.562,8.145-1.124,16.009-1.405,24.154C335.59,263.005,337,263.847,337.556,264.69Zm-6.74-181.158v.562c4.493.561,8.987.842,13.2,1.4a1.545,1.545,0,0,0,1.4-.843c1.685-2.527,3.37-5.055,5.336-7.864ZM499.9,65.276c-7.584,5.336-5.9,12.919-8.146,19.379,1.686,0,3.652-.281,3.933-1.123,1.685-5.617,2.808-11.516,4.213-18.256ZM342.612,168.915c3.651-2.809,7.022-5.056,9.83-7.864,1.966-1.686,1.966-5.9.843-5.618a17.023,17.023,0,0,0-8.145,3.932C343.455,161.612,343.455,165.264,342.612,168.915ZM492.594,73.982q-5.055,4.635-11.8,10.954h7.3a3.047,3.047,0,0,0,2.247-2.247A57.009,57.009,0,0,0,492.594,73.982ZM319.581,75.948c-2.528-3.37-4.775-6.179-7.3-9.549V83.813Zm165.711,85.664c-7.584,2.528-7.584,8.707-8.426,14.325,3.932,0,6.179-1.405,6.74-5.618C484.168,167.511,484.73,164.7,485.292,161.612Zm-124.424,104.2c.562-3.089,1.124-5.617,1.405-8.145h-8.426c-.562,2.528-.843,4.775-1.4,7.584ZM254.7,246.715c-.562-7.865-1.123-15.448-1.685-23.031l-1.124-.281a19.558,19.558,0,0,0-1.4,3.651c.281,5.9.562,11.516.843,17.414C251.612,247,252.454,247.557,254.7,246.715Zm274.4-162.341L508.322,66.4c3.933,5.617,8.426,10.392,12.359,15.729a6.965,6.965,0,0,0,8.425,2.246ZM358.9,108.529c6.46-2.528,10.111-6.741,9.83-13.482C361.149,97.856,360.306,99.26,358.9,108.529ZM297.954,82.97h5.9A3.57,3.57,0,0,0,306.38,81c1.124-4.213,1.966-8.426,3.09-12.92-.843,0-1.124.562-1.4,1.124C304.976,73.421,301.886,77.915,297.954,82.97Zm54.488,174.7c-9.268-.561-8.145-1.685-9.83,6.46C352.723,265.813,350.476,265.813,352.442,257.668ZM493.156,134.649h1.123c.843-4.774,1.405-9.549,2.247-14.605l.843.281c-.281,2.528-.281,4.775-.562,7.584,2.247-1.686,2.809-20.5,1.123-23.312,0,1.4-.28,3.089-.28,4.494-1.4,7.583-3.09,15.166-4.494,22.469Zm-2.247-83.7,6.46,2.809c1.4-5.336,2.528-10.392,3.651-15.447l-.562-.281ZM453.554,239.412l-1.124.281q-.841,14.323-1.685,28.648c0,.562.562,1.124.843,1.966a25.971,25.971,0,0,0,1.4-2.247c.281-8.426.562-16.852.843-25A7.452,7.452,0,0,0,453.554,239.412Zm-113.47-66-.562-.281-10.111,7.583a43.193,43.193,0,0,0,3.652,3.371c1.685.842,3.651,1.685,4.493-.843C338.4,179.869,339.242,176.5,340.084,173.409Zm3.371-1.124v11.8l3.651,1.966C350.476,177.06,350.2,175.656,343.455,172.285Zm20.222,85.383c-.281,2.809-.562,5.337-.843,8.145,2.528.281,4.494.281,6.741.562h1.685a7.129,7.129,0,0,0-5.9-8.426A3.56,3.56,0,0,0,363.677,257.668Zm183.686,4.775c9.268,1.685,14.886-3.089,19.379-10.673Zm-82.575-63.476c.843,1.686,1.124,3.933,1.966,3.933a51.245,51.245,0,0,0,9.269,0c.562,0,1.123-2.247,1.685-3.933Zm14.6-42.691h-4.774c-.843,4.213-1.966,8.145-2.809,12.358C477.989,166.668,479.112,161.893,479.393,156.276Zm2.809,20.5c-6.46.843-7.022,1.4-7.583,10.392,5.055.281,5.336.281,6.179-4.213.561-1.966.842-3.932,1.4-6.179Zm39.883,22.188h-12.92c.843,1.686,1.4,3.933,2.247,3.933a36.344,36.344,0,0,0,9.549-.281C521.242,202.619,521.523,200.653,522.085,198.967Zm.281-.28c.842,1.966,1.4,3.932,1.966,4.213a54.381,54.381,0,0,0,9.549,0c.562,0,1.124-1.686,1.124-2.528,0-.562-1.124-1.405-1.686-1.405C529.668,198.687,526.579,198.687,522.366,198.687Zm-159.251-1.405h-7.022l-1.685,7.584,5.618,1.685C361.149,203.18,362.273,200.372,363.115,197.282Zm132.849,1.405c1.124,1.966,1.405,4.213,2.247,4.213a34.257,34.257,0,0,0,9.269-.281c.562,0,1.123-1.966,1.123-2.809,0-.281-1.4-1.123-1.966-1.123ZM351.319,135.773c3.089-1.405,6.46,1.685,8.426-2.247,1.123-2.528-.843-4.775-5.9-7.583C353,129.032,352.442,131.841,351.319,135.773Zm-37.074-70.5-.562.561,6.741,8.988,6.179-6.741Zm58.7,12.077c.843-3.371,1.405-6.179,1.966-8.988-5.9-1.4-6.459-.842-7.583,7.583Zm-89.6,106.729-.561-.281L272.4,194.474h6.74a2.967,2.967,0,0,0,1.966-1.686C281.945,189.98,282.507,186.89,283.349,184.082Zm97.18-116c-4.213-.281-5.337,1.405-5.9,9.831l5.9,1.123Zm6.179,122.738c.842,1.686,1.4,3.933,1.966,3.933a57.59,57.59,0,0,0,9.83-.281c.562,0,.843-2.247,1.4-3.932H389.236A10.9,10.9,0,0,0,386.708,190.822Zm-89.6-20.5c-4.494,3.09-4.494,3.371-6.46,12.077-.562,2.528,0,3.933,2.809,4.494C294.865,181.273,295.988,175.937,297.112,170.319Zm92.685,16.29.281-.842c-3.932-1.124-5.617-7.584-11.515-5.056v5.9Zm-50.275,4.213c.843,1.686,1.124,3.652,1.686,3.652a57.392,57.392,0,0,0,9.83,0c.562,0,.842-2.247,1.4-3.652Zm13.2,0c.843,1.686,1.4,3.933,1.966,3.933a36.353,36.353,0,0,0,9.55-.281c.561,0,.842-2.247,1.4-3.652Zm158.97-26.4-9.269-7.022v10.954ZM392.887,43.649l-6.46-7.583v14.6Zm.842,111.784-8.145-7.3V160.77ZM277.451,216.1c3.09-4.213,7.864-7.864,7.864-14.6-1.966.562-4.493.843-4.774,1.685A107.719,107.719,0,0,0,277.451,216.1Zm196.887-37.355c-5.9.562-7.022,1.966-6.741,9.269C473.5,188.3,474.057,187.452,474.338,178.745ZM354.408,249.8c-7.583-1.123-8.145-.843-9.268,6.179H353A39.838,39.838,0,0,0,354.408,249.8Zm124.7-55.049h11.8v-7.584Zm11.235,17.694c.281-2.528-2.528-6.741-5.056-6.741-4.212,0-2.808,4.213-4.774,6.741Zm-111.784,5.9,11.8-5.9c0-.281,0-.562-.281-.562l-11.515-1.123ZM501.582,66.68l-.562-.281c-1.4,5.9-2.528,12.077-3.932,18.537l4.494-.281Zm79.765,184.528-11.234,8.426.281.562,10.953-1.4Zm-79.765-63.475c-1.4,2.809-6.741,1.966-4.775,6.741h12.077Zm-11.235-24.155h1.124c0-1.966.28-4.213.28-6.74-7.864,4.213-5.336,11.515-7.021,17.413,3.651-3.089,2.247-8.145,4.213-12.077ZM362.273,61.905h5.055c.843-.281,2.247-.842,2.528-1.685,1.123-3.37,1.966-6.741,3.089-10.954L370.7,51.513C368.171,54.6,365.643,57.973,362.273,61.905Zm-7.584,135.377c-1.4,0-2.247-.281-3.089-.281h-5.056c-1.685,4.494-1.123,5.056,6.741,7.022C353.566,202.057,354.127,199.81,354.689,197.282Zm-24.716-89.877c-1.966-1.685-3.37-3.651-4.775-3.651-4.213.562-8.426,1.124-12.639,1.966-.281,0-.281.843-.842,1.685ZM455.52,209.921h-1.685c-.281,9.269-.843,18.537-1.124,27.806H454.4ZM235.041,237.446l-8.146,6.46,12.359,1.4Zm234.8-59.543c5.9-.562,6.741-1.686,7.022-10.112A9.538,9.538,0,0,0,469.844,177.9Zm-167.4-72.745,1.124.843c.842-.843,2.247-1.4,2.527-2.247,1.124-4.494,1.967-8.988,3.09-14.324C303.291,93.643,304.414,99.822,302.448,105.158Zm63.476-29.49c.842-2.809,1.4-5.337,1.966-7.865l-.843-.561c-3.37,1.966-6.741,3.932-10.673,6.179Zm-49.433,82.855c0,.281,0,.281.281.562h16.571l.562-.843c-1.4-1.123-2.809-3.09-3.932-2.809-4.494.562-8.988,1.966-13.482,3.09Zm36.232,5.336-.562-.561-8.145,6.46,6.46,4.774Zm1.685,92.405h6.179c2.247,0,2.809-1.685,2.247-2.809a10.5,10.5,0,0,0-4.213-3.651c-2.528-.843-3.089,1.124-3.37,3.09a29.112,29.112,0,0,0-.843,3.37Zm9.269-92.686-3.09,13.763,4.494-2.809a40.887,40.887,0,0,1,1.124-4.774c.561-2.528,1.4-4.775-2.528-6.18ZM303.01,96.452l-.562-.281-9.83,10.673a39.88,39.88,0,0,0,6.741-.843,2.535,2.535,0,0,0,1.685-1.685A64.545,64.545,0,0,0,303.01,96.452Zm69.655,100.83L371.26,197a72.963,72.963,0,0,0-1.685,15.729c1.123-.281,2.809-1.124,2.809-1.966C372.665,206.27,372.665,201.776,372.665,197.282Zm-88.192-13.2c-.843,3.651-1.4,6.74-2.247,10.392,2.247-.281,4.213,1.123,5.055-1.966C288.967,186.609,289.248,186.609,284.473,184.082Zm172.451,85.664c7.022.842,7.583.28,8.145-5.618C458.89,263.286,458.328,263.567,456.924,269.746Zm-85.1-14.044v-6.179H364.8C364.239,254.3,366.766,256.545,371.822,255.7ZM499.335,97.856l-1.4-1.685c-1.4,1.123-3.37,1.685-3.932,3.089a77.053,77.053,0,0,0-2.527,10.954c5.055-5.056,6.179-7.022,5.336-9.83Zm-207,163.744c.281-2.527.281-4.493.562-6.74L287,254.3c-.281,2.528-.843,4.494-1.124,6.741Zm64.037-149.42-8.987,5.337,6.179,5.617c.842-3.932,1.685-7.022,2.808-10.954Zm23.593,32.58c-1.685,1.124-2.528,12.639-1.123,19.942,1.966-1.124,2.808-14.6,1.123-19.942Zm21.346,45.22c-.281.562-.843.842-1.124,1.4.562,1.124.843,3.09,1.686,3.371a9.023,9.023,0,0,0,9.83-1.124Zm78.923,80.046c.281-2.247.562-4.213.843-6.179-6.741-.561-6.741-.561-7.022,5.9a10.57,10.57,0,0,1,2.809.28ZM365.081,84.655c6.46-.561,6.46-.561,7.3-5.9l-5.618-1.4c-.561,2.247-1.123,3.932-1.685,5.617ZM336.433,158.8c6.741,0,8.707-1.685,8.707-7.022-6.179.843-6.741,1.4-8.707,7.022Zm-50.275,19.1c5.617-4.213,6.179-5.337,6.46-11.8-7.022,1.124-4.494,7.584-6.46,11.8Zm32.3,9.83c-2.809-.843-5.337-4.213-7.584-.562-1.966,3.371,2.247,4.494,3.932,7.022Zm.561,1.4-2.808,5.056h12.358l.281-.843Zm-37.074,62.352c1.966-.842,3.932-1.123,4.494-1.966.842-2.808,1.4-5.617,1.966-8.426C283.069,242.221,282.507,245.872,281.945,251.489Zm11.8,10.111h6.741v-5.617l-5.9-.842c-.281,2.246-.562,4.213-.843,6.459Zm179.192,2.528c-6.179-.842-6.459-.561-7.021,5.618,6.179.842,6.46.842,7.021-5.618ZM371.822,248.119v-5.337h-6.46c0,1.967-.281,3.371-.281,5.337Zm-24.154-.281c6.179,1.124,7.3.843,7.583-2.247a3.453,3.453,0,0,0-1.966-3.089c-3.651-.843-4.494,0-5.617,5.336ZM307.5,164.7h-.843v18.256h.843Zm58.981,70.778a34.669,34.669,0,0,0-.561,5.617H372.1V235.48Zm-2.246,5.617c.28-1.966.561-3.651.842-5.336-5.9-1.124-6.46-.562-6.741,5.336Zm171.327-42.13c.843,1.405.843,3.09,1.686,3.652,2.527,1.4,7.583-.843,9.268-3.652ZM288.124,250.085c6.179-1.4,6.741-1.966,5.617-7.3C288.686,242.221,288.124,243.063,288.124,250.085Zm14.043-121.9c1.124-2.808,5.9-4.213,3.932-7.3l1.686-5.056c0-.842-.843-1.685-1.124-2.808-.562.842-1.4,1.4-1.685,2.247C304.133,119.483,303.291,123.976,302.167,128.189ZM488.1,118.921l-.562-.281c-1.4,1.966-3.089,3.932-4.493,6.179-2.809,3.932-2.528,4.494,2.527,5.617C486.415,126.5,487.258,122.853,488.1,118.921ZM349.353,143.075c-.562,2.247-1.124,4.213-1.405,5.9,3.09-1.4,7.584.562,9.269-4.213Zm102.235,55.892H440.353a9.278,9.278,0,0,0,8.988,3.652c.842-.281,1.123-1.966,2.247-3.652Zm4.213-16.851-8.988,6.459.281.843,8.707-.562Zm33.7,80.327v-5.336h-5.9c-.281,1.966-.561,3.651-.842,5.336ZM465.069,189.7a27.229,27.229,0,0,0-4.774.281,9.489,9.489,0,0,0-3.371,1.685c.843,1.4.843,3.09,3.651,3.37,4.213.281,4.494-1.966,4.494-5.336Zm-116-3.09h13.481l-6.179-5.055C354.127,183.239,351.881,184.643,349.072,186.609Zm108.133,12.358v4.775c5.336.843,7.3-.562,6.46-4.775Zm10.392,58.14c-6.46-.562-6.741-.281-7.583,5.336,6.179.843,6.46.562,7.583-5.336ZM383.618,28.482V14.72h-.281l-3.651,13.762Zm86.507,177.226L469,211.045l5.618.842c.28-2.247.842-4.213,1.123-6.179ZM365.081,234.076a38.37,38.37,0,0,0,.562-5.337c-5.617-.842-5.9-.562-5.9,5.337Zm-24.716-33.7c-1.966,5.617-2.247,21.346,0,22.75Zm149.42,48.87-5.055.281c-.281,2.247-.281,3.932-.562,5.9h5.617Zm-103.92-58.42h-7.021v4.494C384.461,195.878,385.865,195.035,385.865,190.822Zm96.618,64.319c.281-1.405.281-2.247.562-3.09,0-.843.28-1.685.28-2.528-5.336-.842-5.336-.561-6.179,5.618ZM372.945,186.609V174.532h-.561c-1.405,3.932-2.528,7.864-3.932,12.358h4.493Zm7.584-53.364c-6.46-1.123-7.3-.562-6.46,4.213h6.46Zm61.509,58.7c0,.281.281.562.281.842h10.954c.842,0,1.685-.842,2.528-1.123a9.951,9.951,0,0,0-2.528-1.123,68.638,68.638,0,0,0-7.583.28A13.9,13.9,0,0,0,442.038,191.946Zm-70.216,42.13v-5.618h-4.775c-.281,1.966-.562,3.652-.842,5.618Zm-90.439,19.379a67.1,67.1,0,0,0-1.4,7.3l4.494.281L285.6,254.3ZM467.6,262.724c2.809-.562,5.9,1.966,7.022-2.528.28-1.685.28-3.089-1.966-3.37-4.494-.843-3.933,2.808-5.056,5.9Zm-128.075-71.9H328.007c2.528,2.809,7.3,4.494,9.549,3.371C338.4,193.912,338.68,192.508,339.522,190.822Zm150.263-42.41.843.842c.843-.561,1.966-.842,2.247-1.685,1.685-4.213,1.4-10.673-.281-11.8C491.471,139.986,490.628,144.2,489.785,148.412Zm-187.337,19.1h-.281c-.842,5.055-1.685,10.111-2.808,15.166l.842.843c.843-.843,1.966-1.4,1.966-2.247.281-4.494.281-9.269.281-13.762Zm-2.247-.562a44.4,44.4,0,0,0-3.651,16.009c3.09-4.775,3.09-10.392,3.651-16.009Zm74.991-40.726c-.281,1.966-.561,3.371-.842,5.056h5.9v-5.056ZM383.618,41.4h-.561c-1.124,5.056-2.247,9.83-3.371,14.886l.843.562c1.123-1.405,2.808-2.528,3.089-3.932ZM488.1,151.22h-7.021c-.562,0-1.124,1.124-1.686,1.966a16.625,16.625,0,0,0,5.337,1.405c1.685.281,3.932,0,3.37-3.371Zm-2.808,62.914c-5.618-1.123-5.618-1.123-7.022,4.213,6.179,1.124,6.46,1.124,7.022-4.213Zm.842-38.2-1.123-.562c-2.528,3.089-2.247,7.021-3.371,11.234l7.3-1.685c-3.09-.842-6.179-.842-3.652-4.774a11.269,11.269,0,0,0,.843-4.213ZM301.044,235.48H296.55c-.281,1.966-.281,3.651-.562,5.617h5.056Zm180.315-36.513,4.213,3.371a6.181,6.181,0,0,0,3.932.562c.843-.562.843-2.247,1.4-3.652h-9.55Zm34.828-48.308c0,.281-.281.281-.281.561h-1.685a8.784,8.784,0,0,0-2.809,1.405,10.105,10.105,0,0,0,2.809,1.966,3.558,3.558,0,0,0,1.685.281,33.7,33.7,0,0,0,4.494-2.247ZM324.637,82.97l-4.494-5.9-5.056,5.9Zm165.71,137.624c-5.336-.842-5.336-.562-5.9,4.775h5.9Zm-65.722-29.772H413.109c1.124,1.686,1.4,2.809,2.247,3.371C417.884,195.316,422.1,193.912,424.625,190.822ZM258.071,256.264l8.426-4.213a1.035,1.035,0,0,0-.28-.843l-8.707-.842c.281,1.966.281,3.37.561,5.9Zm-8.706-7.022-7.022-1.123,7.022,9.268ZM389.8,34.38a.981.981,0,0,1-.281.562l7.3,3.651c1.123-1.966,2.247-3.37,3.37-5.055Zm83.417,154.757a13.861,13.861,0,0,0,1.405,4.494c.28.562,2.247.843,2.527.562a31.59,31.59,0,0,0,3.371-5.9Zm7.022-25.559c2.247-2.527,6.179-2.808,6.179-7.021C480.517,156,480.236,156.276,480.236,163.578ZM394.01,139.986c-.561,3.651,2.247,3.37,4.213,3.37s4.775.562,4.775-3.37Zm82.856,109.256c-2.809-.28-5.618-1.123-5.9,2.528,0,2.247,1.966,3.371,4.494,3.371Zm-8.146-43.253c-6.179-.562-6.459-.562-6.179,4.213l5.056.562A29.266,29.266,0,0,0,468.72,205.989ZM295.707,242.782a38.2,38.2,0,0,0-.561,5.618c6.179-1.124,6.179-1.124,5.617-5.618Zm201.1-72.744,1.123.281c1.967-3.37.562-7.021.843-10.673a14.088,14.088,0,0,0-.562-3.37l-1.123.281Zm19.661,111.5c1.685-4.213-2.528-5.337-3.09-8.426-3.37,3.37-2.247,6.179,3.09,8.426Zm-152.229-38.76H357.5c1.123,4.213,3.089,5.618,6.179,4.775A35.864,35.864,0,0,1,364.239,242.782Zm94.932-61.228,7.022,5.336c.561-2.527.842-4.494,1.4-7.021Zm25.84,66h5.055V241.94h-4.213ZM357.779,235.2h-4.494c-.562.281-1.685,1.685-1.4,1.966a34.221,34.221,0,0,0,4.493,5.056A44.261,44.261,0,0,1,357.779,235.2Zm-73.025-38.478c-.562,3.37,1.966,3.37,3.651,3.37,1.966,0,4.775.281,4.213-3.37Zm187.9,45.5c-4.775-.562-5.337-.281-6.179,5.336C471.529,248.119,471.529,248.119,472.653,242.221ZM302.448,197.563l-.562-1.123h-6.459c-.562,0-.843,1.4-1.405,1.966a43.734,43.734,0,0,0,5.9,1.123C300.763,199.81,301.606,198.406,302.448,197.563Zm12.077-.842H306.38c0,3.651,2.528,3.37,4.494,3.37s4.494,0,3.651-3.37Zm51.118-45.781-.843-1.124a59.2,59.2,0,0,0-7.3,3.651c-.562.281-.843,1.686-.843,2.528,0,.281,1.685,1.124,1.966.843,2.247-1.966,4.494-3.932,7.022-5.9Zm215.424,93.247-5.337,3.089,2.247,4.494c3.932-1.4,3.932-4.213,3.09-7.583Zm-210.93-104.2H361.43c-.281,3.932,2.528,3.37,4.494,3.37S370.418,143.637,370.137,139.986Zm-.562-40.445,9.269-12.92C374.911,90.273,369.013,91.958,369.575,99.541ZM334.467,250.085h-.562c-1.123,4.494-2.247,8.988-3.37,13.2l.842.842c.843-.561,2.247-1.123,2.247-1.966C333.905,258.23,333.905,254.017,334.467,250.085ZM487.258,56.007h9.83c0-.281.281-.562.281-.843l-6.741-3.089ZM364.239,107.686c-6.179,1.685-7.584,5.9-8.146,11.516C358.9,114.989,361.43,111.618,364.239,107.686Zm-44.1,88.192-4.213,1.966c1.4.843,2.808,1.966,3.932,1.966,1.4,0,2.809-1.4,4.213-2.247Zm152.79,51.679c4.775,1.124,5.056.843,5.618-5.055C474.057,241.378,473.776,241.659,472.933,247.557ZM251.612,249.8c.28,2.809.28,5.337.561,7.864,3.09.281,3.652-1.123,3.09-3.37C254.982,252.332,256.386,248.962,251.612,249.8Zm28.367-53.926-4.213,1.966c1.4.843,2.528,1.966,3.932,2.247,1.4,0,2.528-1.124,3.932-1.966ZM468.72,240.255c5.056.561,5.337.281,6.179-5.618C469.844,232.952,470.406,237.727,468.72,240.255Zm-98.3-154.476c-6.46.281-6.46.281-7.022,5.336C368.732,89.711,370.418,88.307,370.418,85.779ZM501.863,55.164V42.526c-1.124,3.089-1.966,6.459-2.809,9.549-.562,2.247.281,2.809,2.809,3.089ZM494,91.115c-4.213-.562-4.774.281-4.774,5.618,4.213,0,4.213,0,4.774-5.618ZM354.97,226.492c5.056.562,5.056.562,5.617-5.055C356.374,220.594,356.374,220.594,354.97,226.492Zm143.522-77.8v-5.337c-4.213-.562-4.775,0-4.213,5.337ZM469,172.847l-9.549,6.741C467.878,179.588,468.159,179.307,469,172.847Zm47.467,100.269,11.234-6.179C520.681,266.937,517.029,268.06,516.468,273.116ZM376.316,119.483c-.281,1.966-.281,3.651-.562,5.055h4.775v-5.055Zm-91.562,39.04.561,1.123c1.405-.842,3.371-1.123,3.933-2.247a30.8,30.8,0,0,0,1.685-7.3l-.843-.562c0,.562-.281.843-.562,1.405C288.124,153.467,286.439,156,284.754,158.523Zm195.763,76.4c-4.213-.561-4.494-.281-5.337,5.618h3.932C479.674,238.569,479.955,236.884,480.517,234.918ZM325.2,196.721c-.281,4.213,2.528,3.37,4.775,3.37,1.966,0,3.651-.843,2.809-3.37ZM352.442,233.8c5.618,1.123,6.46.281,5.9-5.056C356.374,230.144,352.723,229.863,352.442,233.8Zm32.581-93.809c.842,3.651,3.37,3.932,5.9,3.089.842-.281,1.685-1.685,3.089-3.089Zm99.145,102.235c-4.494-.281-4.775,0-4.775,5.617C484.168,248.119,484.168,248.119,484.168,242.221Zm-210.087,13.2c-5.617,0-6.179.281-6.179,4.213l5.055.281Zm215.985-14.885v-5.618c-3.651-.281-4.213.562-3.651,5.618ZM342.05,172.285h-.281c-1.123,3.932-1.966,7.865-3.089,12.358l3.651-.28Zm74.991,23.874-10.392,1.123C410.581,201.776,411.424,201.776,417.041,196.159ZM274.923,259.915c3.933.843,4.775-.281,4.494-5.9C275.2,254.579,274.923,254.579,274.923,259.915Zm33.985-51.4,10.111-6.179C311.717,201.5,311.436,201.5,308.908,208.517ZM457.486,182.4v6.46l7.583-.281ZM291.494,233.8c4.494.562,5.056-.562,3.933-5.618C292.056,228.177,292.056,228.177,291.494,233.8Zm184.529-21.627c5.056,0,3.932-3.932,5.9-6.179h-4.494C477.146,207.955,476.585,209.64,476.023,212.168Zm26.4-60.948c1.685,3.09,3.932,4.213,6.741,3.09a2.311,2.311,0,0,0,1.124-1.685,2.194,2.194,0,0,0-1.124-1.124A54.1,54.1,0,0,0,502.424,151.22ZM355.813,71.455l.561.561,7.865-4.493-4.213-2.809ZM480.8,240.255h3.932c.281-1.124.281-1.966.562-2.809,0-.843.28-1.685.28-2.528C481.64,234.357,481.64,234.357,480.8,240.255Zm48.308-89.035h-6.179a1.867,1.867,0,0,0-1.4,1.124,2,2,0,0,0,.843,1.685c1.685,1.4,5.055.281,6.74-2.809ZM330.254,202.057h-8.988l4.494,5.056Zm66.565-16.009-12.358-7.3-.562.843c4.494,2.247,6.741,7.583,12.92,6.46Zm73.868-34.828c1.685,3.09,5.336,4.213,7.021,2.809a2.427,2.427,0,0,0,.843-1.685,2.805,2.805,0,0,0-1.4-1.124ZM397.662,31.01h-11.8C388.112,33.257,394.853,33.538,397.662,31.01ZM504.39,94.205,514.5,91.4v-.562H504.39ZM462.822,254.86l.562.842,5.336-1.4-3.651-5.336Zm-90.438-35.389v-5.337h-3.652a35.923,35.923,0,0,0-.28,5.337ZM552.7,270.307l.562.843,10.954-8.145C557.474,262.162,556.07,267.5,552.7,270.307ZM363.958,214.134l-1.124,5.618,4.213-.281c.281-1.966.281-3.652.562-5.337Zm5.617-123.861c-2.809,1.685-7.583,1.123-7.864,6.74,3.089-2.247,6.741-3.089,7.864-6.74Zm34.266,49.713c-.843,2.528.842,3.089,2.527,3.089,1.966,0,4.494.281,5.056-3.089ZM289.528,187.733a56.414,56.414,0,0,0-1.123,6.741h3.37C292.9,191.665,294.3,189.137,289.528,187.733ZM377.72,61.063l1.124.842h4.213V55.164Zm-20.5,158.408c4.494.561,4.775.281,4.775-5.337C357.5,213.011,358.34,216.943,357.217,219.471Zm19.1-176.945,6.46-8.146C378,33.819,378,33.819,376.316,42.526ZM568.147,237.165l-4.775,3.09c2.247,3.932,4.494,2.527,6.741.561Zm-212.9-56.454-4.494-3.37c-.562,2.809-1.123,4.775-1.685,7.583Zm-45.5-87.349c-.843,3.932-1.685,7.584-2.528,11.516C310.312,104.6,310.312,104.6,309.751,93.362Zm27.805,141.556.843.281c.562-.842,1.4-1.685,1.123-2.247-.28-2.808,1.124-5.617-1.685-7.864,0,3.089-.281,6.46-.281,9.83Zm35.67-76.676c-4.774-1.4-3.932,1.966-4.494,4.494h4.494Zm-16.009-6.179,8.707-4.494C358.621,147.288,357.779,147.85,357.217,152.063Zm-3.932-12.077a3.766,3.766,0,0,0,4.213,3.089,1.029,1.029,0,0,0,.842-.281c.843-.28,1.686-1.4,2.528-2.246l-.842-.562ZM289.248,240.255l.561.842h4.775c.281-1.685.281-3.37.562-5.055l-.843-.281Zm53.926-94.371,3.37,2.528c1.966-5.9,1.966-5.9-.562-7.3Zm193.235,59.263-11.8.561C527.14,208.8,531.353,208.517,536.409,205.147Zm-64.318,27.524c5.336,1.124,4.494-2.808,5.617-5.336C472.933,226.492,473.5,230.424,472.091,232.671Zm18.256-18.537c-4.494-1.123-3.932,1.966-4.213,4.494h4.213Zm7.022-32.861a12.557,12.557,0,0,0,.561-9.549c-1.966,2.808-1.123,6.179-.561,9.549ZM331.939,202.9h-.562l-5.055,5.336,2.808,3.37A44.23,44.23,0,0,0,331.939,202.9Zm35.108-12.92c-.562,4.775,1.124,6.179,6.741,5.055Zm-67.969-25c-5.056-.281-5.617.562-5.337,6.46Zm199.414-12.358v-.843h-9.268v.843ZM289.248,184.363q.842-4.214,1.685-7.584l-.562-.281-4.775,5.337Zm11.515,63.194-5.9,3.651,5.9,1.966Zm176.664-14.886c3.932.843,4.213.281,4.494-5.336C477.427,226.773,478.832,230.705,477.427,232.671ZM499.616,95.047c-.843-1.685-1.686-4.213-2.247-4.213-3.09.281-1.966,3.09-2.528,5.337ZM301.325,226.773v-5.9c-1.4.562-2.809.562-3.09,1.123a27.672,27.672,0,0,0-.561,4.775ZM481.64,262.162c.281-2.247.281-3.651.562-5.336h-6.46ZM297.112,221.156c-5.056,0-3.651,3.37-4.213,5.617C298.235,227.616,295.707,223.4,297.112,221.156Zm65.161,0c-.281,1.685-.562,3.089-.843,4.775,5.336-1.686,5.336-1.686,4.775-4.775Zm9.268-122.177c3.932-1.685,7.022-3.932,6.46-9.268ZM307.5,82.689c3.089-.281,3.651-2.808,2.528-10.673Zm159.25,107.572a20.987,20.987,0,0,1-1.123,4.494h6.46c-1.4-1.124-2.247-1.967-3.09-2.528A5.189,5.189,0,0,0,466.754,190.261Zm22.189-3.371c-8.145.562-8.426.843-7.864,5.056Zm28.648-99.707h-7.583C511.974,89.992,514.5,90.273,517.591,87.183Zm-25.278,88.754c-1.123-2.247-1.685-3.652-2.528-5.337l-3.37,5.337ZM258.633,258.23c5.337,2.247,7.3,1.685,7.864-1.4Zm223.85-25.559c3.651.562,4.213-.561,3.37-5.617-3.932.281-2.528,3.651-3.37,5.617Zm-2.247-12.358c-4.494-.281-3.651,3.371-5.056,5.337,4.775.842,3.652-3.09,5.056-5.337ZM487.819,86.9a12.17,12.17,0,0,1-.281,1.405,24.19,24.19,0,0,0,4.775.842c.843,0,1.4-1.123,2.247-1.685l-.281-.843h-6.46ZM356.374,149.535l-.561-.562a41.055,41.055,0,0,1-5.618,1.4l-.281.842c1.405.562,2.809,1.966,4.213,1.686C354.97,152.906,355.532,150.659,356.374,149.535ZM481.921,269.746h6.46l-5.617-4.775ZM312.278,194.474l.562-.843a15.4,15.4,0,0,0-4.213-2.247c-.561,0-1.685,1.685-2.528,2.528l.562.843Zm0-109.538v.843h8.988v-.843Zm177.788,142.4c-3.932.281-1.966,3.651-3.089,5.336,3.651.562,3.932.281,3.089-5.336Zm-6.179,36.512c1.966,1.966,3.651,3.371,5.617,5.056v-5.056Zm-189.865,5.337v-2.809c-4.494-.562-4.494-.562-3.932,2.809Zm163.183-63.476c-.843,3.932,1.4,3.652,3.651,3.652a19.329,19.329,0,0,0,.562-3.652Zm-76.676-92.4c-4.213-.562-3.09,2.527-3.651,4.493h3.651ZM499.9,141.671l-3.371-4.775c-.281.281-.562.281-.842.562-.281,1.4-.562,2.809-.843,4.494Zm-218.233,102.8c-2.247,2.247-5.336,2.247-4.775,5.617l3.652.281C280.822,248.4,281.383,247,281.664,244.468Zm29.491,24.716c-.281-1.405-.562-2.809-1.123-3.09a6.845,6.845,0,0,0-3.371,0c-.562.281-.281,1.685-.562,2.809h5.056Zm-34.266.842c.843-3.089.281-4.493-1.966-3.932-.842.281-1.4,1.124-2.247,1.966ZM572.36,240.255l3.089-1.966c-.561-1.124-1.4-2.247-1.966-3.371l-3.37,1.405ZM323.232,269.184h4.213a1.46,1.46,0,0,0,.562-1.124,7.754,7.754,0,0,0-2.528-1.966C323.232,265.533,322.671,266.937,323.232,269.184ZM454.4,204.023l1.124-.843v-3.932h-4.494C452.43,201.214,453.273,202.619,454.4,204.023Zm25.278,21.908c4.775,0,3.371-3.371,4.494-5.9C480.236,220.594,480.8,223.4,479.674,225.931Zm-176.383-67.97.562.843h3.932l.842-.843c-.842-.842-1.685-2.528-2.247-2.247C304.976,156,304.133,157.119,303.291,157.961ZM269.025,196.44l-.281,1.123a24.644,24.644,0,0,0,4.213,1.4c.562,0,1.405-.842,1.966-1.123-.561-.562-1.123-1.4-1.685-1.4Zm29.772-6.179c.281-1.124.562-2.528.843-3.652l-4.213-1.123c-.562,3.089-.562,3.089,3.37,4.775ZM369.575,30.729c5.617,2.809,7.583,2.809,8.707,0Zm-17.694,123.3-4.494-3.37c-.562,1.966-.843,3.651-1.4,5.617Zm7.021,3.932,3.932,2.809c.562-2.247.843-4.213,1.4-7.022Zm15.167-78.923c-.281,1.685-.562,2.809-.843,4.775l5.337-1.966V80.723ZM306.661,202.057v7.022c1.4-2.809,2.528-4.775,3.651-7.022Zm39.883-66.565c5.9,0,3.651-4.494,4.775-7.022Zm20.5,1.685-5.336-4.775c-.843,3.09,1.123,5.056,5.336,4.775Zm124.143,44.1V177.9h-3.932c-.281,1.123-.281,2.247-.562,3.37ZM301.606,162.455l-.281-1.685-6.179.842c0,.562.281,1.405.281,1.966Zm193.8-28.929c3.932,1.123,3.37-.843,3.37-2.528a8.433,8.433,0,0,0-1.123-2.247A36.679,36.679,0,0,1,495.4,133.526ZM340.084,197.844c0-.562-.281-.843-.281-1.4h-4.494c-.561,0-.842.842-1.4,1.4.562.281,1.124,1.123,1.4,1.123A14.752,14.752,0,0,0,340.084,197.844Zm-23.031-36.512c3.09,2.808,4.775,2.808,7.022,0Zm-12.92-8.146,1.686,1.405c.842-.843,1.966-1.405,2.247-2.528.28-.562-.843-1.4-1.4-2.247Zm68.812,15.448v-4.213h-5.336Zm-27.524,64.037c-1.4-1.4-2.247-2.808-3.933-4.774v5.9Zm146.05-67.126-1.124-.843a34.144,34.144,0,0,1-2.247,4.775C492.594,169.757,491.19,167.23,491.471,165.545ZM373.226,170.6l-5.336-3.932c-.281,1.685-.562,2.809-.843,3.932ZM249.365,262.443c-.281.281-.843.562-1.124.843.562,1.4-.281,4.213,3.932,3.37ZM394.01,64.152l-.561.843c.842.561,1.966,1.4,2.808,1.4,1.4-.281,2.809-.562,3.932-.843l-.281-1.123Zm-13.481,76.957v-.842h-8.988v.842Zm-87.068,53.084h6.179l-5.337-3.651C294.022,191.946,293.741,193.069,293.461,194.193ZM372.1,222.56c-1.966,1.124-3.371,2.247-5.056,3.09.281.281.281.561.562.842H372.1ZM369.575,64.152c0,.562-.281.843-.281,1.4,1.4.281,3.09.562,4.494.843.843,0,1.4-.843,2.247-1.4l-.281-.843ZM521.242,283.508c1.124-4.494,1.124-4.494-3.37-4.213,1.123,1.4,1.966,2.528,3.37,4.213Zm-267.1-21.065-1.123,1.124c.843,1.4,0,4.212,4.213,3.089Zm5.056,0-1.124,1.124c.843,1.123,0,4.212,4.213,3.089Zm15.167-8.988c-5.056-1.966-5.056-1.966-5.618,1.405Zm111.222-189.3c4.775,3.09,5.618,3.09,7.022,0Z"/></svg>