<svg xmlns="http://www.w3.org/2000/svg" id="Layer_1" data-name="Layer 1" viewBox="0 0 1641.8 351"><defs><style>.cls-1{fill:#fff}</style></defs><title>WFS</title><path d="M1180.371,189.979c-1.56,3.38-1.17,7.021-1.69,10.531-9.491,58.638-39.915,102.323-92.962,129.367-22.1,11.311-45.766,16.122-70.6,16.122a162.787,162.787,0,0,1-89.711-26.524,80.442,80.442,0,0,1-14.822-11.7l5.721,3.9a153.789,153.789,0,0,0,96.862,27.174c31.854-1.56,60.458-12.612,86.2-31.464,30.424-22.233,51.877-50.967,61.238-87.5,15.472-59.418,2.47-112.6-40.3-156.93-30.944-31.985-69.689-46.806-114.415-45.116a147.564,147.564,0,0,0-68,20.022,5.654,5.654,0,0,0-.91.78l-1.17.781-.78.39c-.39.39-1.17.13-1.3.78.65.26,1.3.39,1.82-.39l.78-.26,1.3-.65a149.359,149.359,0,0,1,45.246-14.3c36.925-5.2,71.249,2.08,102.193,22.623,39.525,26.263,62.148,63.448,68.779,110.254a157.42,157.42,0,0,1-8.711,77.49c-.78,2.08-1.69,2.99-4.031,2.73a22.035,22.035,0,0,0-5.85,0c-2.341.26-2.991-.65-2.6-2.86.52-2.731-.78-3.251-3.25-3.121-5.2.13-5.2,0-5.2-5.2q0-44.854.13-89.451c0-2.86-.78-3.51-3.51-3.38-4.811.26-9.231,2.21-13.912,3.25-1.95.39-3.9,1.3-5.981,1.56s-2.6,1.43-2.47,3.381c.13,2.6,2.08,1.56,3.25,1.56,6.111.13,6.111,0,6.111,6.111v78.92c0,2.6-.65,3.64-3.25,3.25a15.68,15.68,0,0,0-2.471,0c-2.08-.26-2.99.52-2.6,2.6.52,2.731-.65,3.511-3.38,3.381-6.891-.13-13.782,0-21.453,0,4.55-2.34,8.451-4.421,12.351-6.241s.52-3.77.13-5.591c-.65-2.6-2.08-.91-3.25-.26-2.86,1.431-5.591,3.121-8.581,4.421-10.011,4.29-20.413.39-25.223-9.361a41.208,41.208,0,0,1-3.511-14.692c-.13-2.08.26-2.861,2.6-2.731,12.221.13,24.313,0,36.534.13,2.731,0,3.121-.78,3.121-3.25.13-10.531-3.121-19.242-13-24.443a31.666,31.666,0,0,0-42.645,13.522,29.566,29.566,0,0,0-2.991,8.841c-1.56,8.841-.91,17.422,3.121,25.483a30.768,30.768,0,0,0,14.821,14.172h-40.565c4.031-1.69,8.061-2.21,11.832-3.251,1.3-.39,2.21-.52,2.34-2.21.13-2.08-.39-2.86-2.73-2.86-7.151,0-7.151,0-7.151-7.281V176.067c0-2.47-.65-3.25-3.121-2.99-6.76.65-13,3.25-19.632,4.68-.65.13-.78.65-.91,1.43-.52,3.251,0,4.031,3.12,3.771s4.161.52,4.161,4.03c-.26,10.142-.13,20.413,0,30.554A6.838,6.838,0,0,1,993.147,223c-3.64,3.38-7.02,7.151-12.351,7.8-6.111.78-9.361-1.69-10.141-7.671-.651-5.331-.261-10.531-.261-15.862,0-10.4-.13-20.8,0-31.2,0-2.34-.65-2.86-2.99-2.86-4.68,0-8.971,1.82-13.392,2.86-2.6.65-5.2,1.69-7.8,2.08-2.34.39-2.47,1.69-2.34,3.511.13,2.34,1.82,1.43,2.991,1.56,7.02.13,7.02.13,7.02,7.151v29.9c0,9.231,1.041,11.831,7.8,18.2H912.147c-2.47,0-3.77-.39-3.25-3.12.39-2.211-.52-2.861-2.731-2.731-6.761,0-6.761,0-6.761-6.631V198.3c0-2.21.39-3.121,2.861-2.991,5.721.26,11.441.13,17.162,0,2.47-.13,3.12.781,2.86,2.991v2.21c0,4.681,1.691,5.981,6.241,4.811,1.17-.26,1.17-1.04,1.17-1.821V179.447c0-1.56-.65-1.82-2.08-1.82-5.331.13-5.331,0-5.331,5.461,0,4.16,0,4.16-4.03,4.16H901.746c-1.821,0-2.211-.52-2.211-2.21.13-9.621.13-19.372,0-28.994,0-1.69.52-2.34,2.211-2.34q12.481.195,24.963,0c1.82,0,2.73.39,2.47,2.47-.13,1.3.13,2.731,0,4.031-.52,3.25.91,4.03,3.9,3.9,2.47-.13,3.38-.52,3.25-3.25-.26-5.591-.13-11.181,0-16.9,0-1.82-.39-2.73-2.34-2.47a14.692,14.692,0,0,1-3.381,0c-1.17,0-1.82.39-1.56,1.56.39,2.6-1.17,2.47-2.99,2.47H874.312c-3.25,0-4.29,1.69-3.38,4.811a1,1,0,0,0,1.04.91h1.56c2.6,0,5.981-.78,7.541.39,1.82,1.56.52,5.07.52,7.671,0,23.273,0,46.546.13,69.819,0,2.86-.78,3.64-3.51,3.25-1.04-.13-2.081.13-3.121,0-3.25-.52-4.94.39-4.29,4.031.13.52,0,1.43-.26,1.43-2.6.78-5.331.26-8.061.39-1.691.13-1.691-1.3-2.081-2.34A169.84,169.84,0,0,1,850,181.918c-1.3-41.086,10.011-78.4,35.105-111.034,27.953-36.4,64.748-57.988,110.384-63.969,2.08-.26,4.29.13,6.24-1.04h26.784c.26.78,1.04.52,1.56.65a154.73,154.73,0,0,1,60.068,17.943c50.056,27.693,79.05,70.339,88.151,126.766.65,3.9.39,7.931,1.69,11.831Z" class="cls-1"/><path d="M464.37,143.823c10.141.52,20.413.13,30.554.26,3.64,0,4.81,1.69,3.77,5.2-.52,1.56-1.69.91-2.6.91-5.2.13-5.2.13-3.25,4.94l23.013,58.9c1.43-.91,1.43-2.6,1.95-3.771,4.55-11.441,8.971-23.013,13.521-34.454a5.248,5.248,0,0,0,0-4.421c-2.21-5.59-4.68-11.051-6.5-16.772-1.17-3.51-2.861-4.94-6.5-4.29-2.6.52-3.381-.52-3.381-3.251,0-2.34.781-2.99,3.121-2.99q14.042.195,28.083,0c2.6,0,2.861,1.04,2.861,3.12s-.39,3.121-2.861,3.121c-5.98-.13-5.98,0-3.77,5.46,7.541,18.853,14.952,37.835,22.493,56.688.26.78.65,1.43,1.3,2.86l25.353-65.138c-2.99,0-5.591-.13-8.061,0-2.6.13-2.08-1.431-1.95-2.861s-.78-3.25,1.95-3.25h24.053c2.731,0,1.82,1.95,1.95,3.25s.26,3.121-2.08,2.861c-.78-.13-1.43.13-2.21,0-2.08-.26-2.99.52-3.771,2.6-10.791,27.954-21.842,55.907-32.634,83.861-1.04,2.73-2.34,3.64-5.07,3.51-5.461-.26-5.461-.13-7.411-5.071-6.111-15.732-12.222-31.594-18.463-47.326-1.3.391-1.3,1.561-1.56,2.341-6.111,15.6-12.221,31.074-18.2,46.676-.91,2.47-2.08,3.38-4.681,3.25-5.851-.26-5.721,0-7.931-5.591-10.531-26.913-20.932-53.7-31.334-80.61-1.04-2.73-2.34-4.03-5.33-3.64a23.655,23.655,0,0,1-4.291,0Z" class="cls-1"/><path d="M1180.371,287.881c-2.34,6.891-7.281,10.532-14.562,10.532a14.682,14.682,0,0,1-14.691-11.962,14.365,14.365,0,0,1,9.751-16.122,14.976,14.976,0,0,1,18.2,7.021c.39.78-.91-.52,0,0A21.111,21.111,0,0,1,1180.371,287.881Zm-3.64-3.64a11.01,11.01,0,1,0-21.973-1.43v1.04a11.3,11.3,0,0,0,10.921,11.571h.13a11.044,11.044,0,0,0,10.922-11.181Z" class="cls-1"/><path d="M809.174,174.377V146.293c0-1.56-.65-1.95-2.08-1.82a31.348,31.348,0,0,1-4.941,0c-1.04-.13-2.73.91-2.86-1.3,0-1.69-.65-3.381,2.08-3.9,7.151-1.43,13.782-4.42,21.193-4.94,2.99-.13,3.51.91,3.51,3.64-.13,29.254,0,58.638-.13,87.891,0,2.991.52,4.551,3.9,3.9a20.87,20.87,0,0,1,4.03,0c.91,0,2.08-.13,1.95,1.3s.91,3.25-1.17,3.64c-7.411,1.691-14.432,4.681-22.1,5.071-2.73.13-3.9-.52-3.38-3.38a17.045,17.045,0,0,0,0-3.641c-1.04-.52-1.43.26-1.82.78-9.882,11.052-26.784,7.281-34.2-1.82-9.751-12.091-10.921-25.743-4.81-39.525,5.85-13.392,17.032-19.5,31.594-19.762A44.889,44.889,0,0,1,809.174,174.377Zm0,31.074V203.24c-.26-5.85.52-11.831-.52-17.682-.78-4.29-3.251-6.241-7.671-6.111a15.446,15.446,0,0,0-11.312,5.851c-8.061,9.491-9.231,26.784-2.6,37.835,4.941,8.451,12.222,9.491,19.763,3.25a5.933,5.933,0,0,0,2.34-5.07C809.044,215.982,809.174,210.781,809.174,205.451Z" class="cls-1"/><path d="M662.645,212.212c-.26,8.321-5.72,19.372-18.852,25.093-12.872,5.59-25.483,4.16-36.015-5.331-10.531-9.621-12.741-22.1-9.231-35.494,3.12-12.222,11.181-20.283,23.663-23.013C643.793,168.786,663.165,183.608,662.645,212.212Zm-18.072-5.851c-.13-7.021-.91-13.912-4.681-20.023-2.47-4.16-5.85-7.021-11.181-6.371-3.9.391-6.5,2.991-8.581,6.111-3.381,5.331-4.551,11.312-4.811,17.552-.39,8.972.39,17.683,6.111,25.094,4.681,5.98,12.352,5.85,17.032-.13a21.051,21.051,0,0,0,3.511-6.5A40.855,40.855,0,0,0,644.573,206.361Z" class="cls-1"/><path d="M750.406,183.478v44.856c0,4.68-.52,4.03,3.9,4.03h.91a3.611,3.611,0,0,1,3.771,3.381,3.815,3.815,0,0,1-.521,2.08c-.39.91-1.17.65-1.82.65H727.394c-2.731,0-2.081-1.69-2.081-3.12s-.52-2.991,2.081-3.121c6.24-.13,6.24-.26,6.24-6.631v-77.88c0-2.6-.52-3.9-3.38-3.38-1.3.13-2.73.13-4.031.13-.91,0-2.08.26-1.95-1.17s-.91-3.251,1.17-3.641c7.411-1.69,14.3-4.81,22.1-5.2,2.47-.13,2.86.78,2.86,2.99Z" class="cls-1"/><path d="M696.84,183.348c2.73-2.73,4.94-5.071,7.281-7.151,5.59-4.941,10.921-4.681,16.122.65.91.91,1.04,1.56.26,2.6-2.341,3.121-4.681,6.371-6.891,9.622-.78,1.04-1.43,1.04-2.6.39-6.37-3.771-8.191-3.381-12.871,2.21a6,6,0,0,0-1.43,3.9c0,11.442.13,22.883,0,34.325,0,1.95.52,2.86,2.6,2.6,1.3-.13,2.73.13,4.03,0,2.991-.52,3.381.91,3.251,3.511-.13,1.95-.39,2.73-2.6,2.73-10.012-.13-19.893-.13-29.9,0-2.731,0-2.6-1.43-2.6-3.25s.13-2.991,2.6-2.991c5.85.13,5.85,0,5.85-5.721V186.208c0-2.34-.52-3.25-2.86-2.99a20.87,20.87,0,0,1-4.03,0c-1.041-.13-2.991.91-2.991-1.43,0-1.821-.26-3.381,2.34-3.771,7.151-1.3,13.912-4.68,21.453-4.81,2.21,0,3.251.39,2.991,2.86C696.71,178.147,696.84,180.488,696.84,183.348Z" class="cls-1"/><path d="M909.027,290.352v-3.381c0-1.17.52-1.43,1.56-1.43s1.43.26,1.69,1.3a6.679,6.679,0,0,0,7.541,5.331,11.44,11.44,0,0,0,1.95-.65c2.861-1.431,3.381-4.681,1.04-7.281s-5.46-4.031-8.321-5.981c-2.21-1.56-4.29-3.25-5.2-5.981-2.6-7.931,4.03-14.432,13-12.871a3.881,3.881,0,0,0,3.381-.39c1.17-.911,2.86-.521,2.73,1.69-.13,1.82,0,3.51,0,5.33,0,1.171-.13,1.951-1.69,1.951-1.3,0-1.69-.52-1.56-1.691.26-3.38-2.471-3.38-4.551-3.9a4.4,4.4,0,0,0-5.07,2.6c-1.171,2.341.13,4.031,1.82,5.331,2.47,1.82,4.94,3.38,7.411,5.071,5.33,3.64,7.151,8.971,4.81,14.171-2.21,4.811-7.931,6.891-13.911,5.2-1.431-.39-2.6-1.3-4.161.13-.78.78-2.47.26-2.34-1.56A21.09,21.09,0,0,1,909.027,290.352Z" class="cls-1"/><path d="M1058.936,196.74h-10.272c-.91,0-1.69,0-1.82-1.431-.26-5.85,5.461-14.3,11.052-15.992,4.68-1.43,8.711,0,11.181,4.291,2.08,3.64,2.34,7.671,2.21,11.831,0,1.691-1.17,1.431-2.21,1.431Z" class="cls-1"/><path d="M1069.337,281.77h-4.03c-4.421,0-4.421.13-3.381,4.291,1.43,5.461,5.981,7.541,11.052,5.071.78-.39,1.43-.78,2.21-1.171a1.029,1.029,0,0,1,1.43.131c.13.13.13.13.13.26.26.65.91,1.3,0,1.95-5.981,4.16-15.6,4.94-20.022-1.95a14.7,14.7,0,0,1,.52-15.6c2.6-3.771,7.8-5.461,12.871-4.161a9.391,9.391,0,0,1,7.281,9.621c0,1.43-.78,1.69-1.95,1.69C1073.368,281.77,1071.417,281.77,1069.337,281.77Zm-3.25-2.6c1.3-.39,3.38,1.04,4.16-.78.65-1.43-.13-3.25-1.3-4.551a3.074,3.074,0,0,0-4.16-.65,5.44,5.44,0,0,0-3.121,5.331c.13,1.43,2.21.39,3.511.65Z" class="cls-1"/><path d="M949.2,281.77h-3.381c-4.68,0-4.94.39-3.51,4.811,1.56,5.071,5.981,6.891,10.791,4.551.78-.39,1.43-.78,2.211-1.171s1.3,0,1.69.651.52,1.3-.39,1.82c-4.161,2.6-8.581,3.9-13.392,2.6a10.523,10.523,0,0,1-8.061-8.971c-.91-5.2-.13-10.011,4.161-13.522a11.9,11.9,0,0,1,12.871-1.3,7.88,7.88,0,0,1,4.031,4.161c2.08,4.42.91,6.37-3.9,6.37Zm-3.511-2.6c4.941,0,4.941,0,5.071-1.56,0-2.73-1.82-5.2-4.031-5.071-2.08.13-5.07,3.121-4.68,5.331C942.311,280.6,944.651,278.39,945.691,279.17Z" class="cls-1"/><path d="M1082.729,291.522v-2.211c0-.78.13-1.69,1.3-1.69s1.69.13,1.95,1.3a5.99,5.99,0,0,0,7.281,4.031,2.9,2.9,0,0,0,2.6-2.34,2.783,2.783,0,0,0-1.69-2.991c-2.34-1.17-4.94-2.21-7.281-3.38a6.769,6.769,0,0,1-4.29-6.631c0-4.681,4.16-7.8,9.491-7.411,2.08.13,4.161,1.95,6.241-.13a2.1,2.1,0,0,1,1.43.26c.65.52-.52,7.021-1.43,7.411-.78.26-1.82.65-2.211-1.04-.52-3.121-3.12-4.421-6.24-3.771a2.76,2.76,0,0,0-2.341,2.211,2.465,2.465,0,0,0,1.431,2.86c1.69.91,3.38,1.56,5.07,2.34,5.851,2.471,7.8,5.591,6.371,10.4-1.17,3.9-5.721,5.85-11.181,4.68-1.561-.26-2.731-1.43-4.551-.13C1083.379,296.2,1082.729,295.162,1082.729,291.522Z" class="cls-1"/><path d="M998.218,285.671c1.69-4.161,2.99-7.541,4.291-11.051.52-1.3-.13-1.691-1.3-1.691a1.012,1.012,0,0,1-1.17-.78v-.26c-.13-.52.39-1.04.91-1.17h6.111a.921.921,0,0,1,1.04.91c0,.65.13,1.43-.65,1.43-1.82,0-1.95,1.561-2.47,2.731-2.21,5.85-4.551,11.831-6.761,17.682-.39.91-.39,2.08-1.82,2.08s-1.56-1.17-1.95-2.08c-2.341-5.591-4.551-11.311-6.891-17.032A13.07,13.07,0,0,0,986,273.449c-.52-.65-1.69-.91-1.17-2.08.52-.91,1.431-.65,2.211-.65h6.5c.651,0,1.3,0,1.431.91.13.65.13,1.3-.65,1.43s-1.3.52-.911,1.431C994.968,278,996.528,281.38,998.218,285.671Z" class="cls-1"/><path d="M1041.9,295.552c-7.671,0-12.612-5.33-12.352-12.741a12.763,12.763,0,0,1,12.742-12.742h1.17a16.872,16.872,0,0,1,4.29.91c1.04.26,2.731.65,2.6,1.69s-1.431,1.951-2.341,2.731c-1.3,1.04-1.82-.52-2.47-1.041-2.99-2.08-4.03-2.08-6.631.651-4.03,4.29-2.99,13.131,2.08,16.252,2.211,1.43,4.291.91,6.5-.13,1.04-.52,1.951-1.3,2.731.26,1.04,1.82-.78,1.82-1.561,2.21A14.433,14.433,0,0,1,1041.9,295.552Z" class="cls-1"/><path d="M971.565,273.709c2.08-1.17,2.86-2.73,4.55-3.38a3.464,3.464,0,0,1,4.161,1.17c1.3,1.56-.78,2.21-1.3,3.381s-1.3,2.21-3.121,1.04-4.16.91-4.29,3.25c-.13,3.9,0,7.671,0,11.572,0,1.56.78,1.69,1.95,1.69.78,0,1.69,0,1.69,1.17s-.91,1.17-1.69,1.17h-9.621c-.78,0-1.691.13-1.691-1.17,0-.91.521-1.3,1.431-1.17,1.69.13,1.69-.91,1.69-2.21V276.57c0-1.69-.26-2.6-2.21-2.341-.52.13-1.3.13-1.431-.65-.13-.91.39-1.3,1.171-1.56,1.69-.52,3.38-.91,5.07-1.43C970,270.069,972.215,269.809,971.565,273.709Z" class="cls-1"/><path d="M1022.011,281.38v7.541c0,1.561-.78,3.771,2.21,3.641.78,0,.78.78.78,1.43s-.39.91-1.04.91H1013.69c-.65,0-1.17-.13-1.17-1.04s.26-1.43,1.3-1.3c1.95.26,1.82-1.04,1.82-2.34V276.57c0-1.43-.26-2.471-1.95-2.211-.52.131-1.3.131-1.43-.78s.52-1.3,1.3-1.56a.974.974,0,0,1,.65-.13c7.931-2.6,7.931-2.6,7.931,5.591Z" class="cls-1"/><path d="M983.4,238.345a105.585,105.585,0,0,0,12.092-10.791v9.491c0,1.43-.91,1.3-1.951,1.3Z" class="cls-1"/><path d="M1022.531,261.618a3.876,3.876,0,0,1-4.68,2.86,4.045,4.045,0,0,1-2.991-3.25,3.773,3.773,0,0,1,3.641-3.9h0a4,4,0,0,1,4.03,3.771Z" class="cls-1"/><path d="M1165.289,276.7a10.765,10.765,0,0,1,4.551.65c2.73,1.3,3.25,3.9,1.3,5.981-.78.91-1.04,1.3-.26,2.34a10.027,10.027,0,0,1,1.3,3.77c.13.781.91,1.951-.65,2.211-1.04.13-2.34.39-2.86-1.17a3.8,3.8,0,0,1-.26-1.171c-.39-1.82-1.04-3.51-3.381-3.12s-1.04,2.34-1.17,3.51-.26,2.081-1.82,2.081-1.82-.91-1.82-2.211v-7.8C1160.089,276.83,1160.089,276.83,1165.289,276.7Zm-1.56,4.68c0,1.041-.13,2.211,1.56,1.951,1.3-.26,3.251-.13,3.121-2.211,0-1.69-1.56-1.95-2.991-1.95C1163.6,279.17,1163.6,280.21,1163.729,281.38Z" class="cls-1"/></svg>