<svg id="Layer_1" data-name="Layer 1" xmlns="http://www.w3.org/2000/svg" viewBox="0 0 870.96 217.58"><defs><style>.cls-1{fill:#fff;}</style></defs><title>Wolfram</title><path class="cls-1" d="M259.64,112.63c-5,1.38-5.49,1.63-10.47,3-5.23-3-9.95-4.72-14.32-4.12a51.48,51.48,0,0,1,2.23-7.12C246.43,103,253.29,107.92,259.64,112.63Z"/><path class="cls-1" d="M259.64,112.63c-5,1.38-5.49,1.63-10.47,3-5.23-3-9.95-4.72-14.32-4.12a51.48,51.48,0,0,1,2.23-7.12C246.43,103,253.29,107.92,259.64,112.63Z"/><path class="cls-1" d="M259.64,112.63c-5,1.38-5.49,1.63-10.47,3-5.23-3-9.95-4.72-14.32-4.12a51.48,51.48,0,0,1,2.23-7.12C246.43,103,253.29,107.92,259.64,112.63Z"/><path class="cls-1" d="M259.64,112.63c-5,1.38-5.49,1.63-10.47,3-5.23-3-9.95-4.72-14.32-4.12a51.48,51.48,0,0,1,2.23-7.12C246.43,103,253.29,107.92,259.64,112.63Z"/><path class="cls-1" d="M151.37,151.07c0,.09.08.17.08.26,6.35-17.33,13.73-36.64,22.65-53.45C165.18,114.61,157.8,133.83,151.37,151.07Zm105.52-1.54L290.18,191h.09Z"/><path class="cls-1" d="M314.89,32.59a107.71,107.71,0,1,0,31.57,76.18A107.81,107.81,0,0,0,314.89,32.59ZM273.11,200c-59.46,21.45-102.35-18-111.53-31.91,0-.09.08-.26.08-.35,8.24-34.91,18.45-76.61,34.84-89,8.58-14.93,11-36.9,26.42-48.48,3.86,11.58,10,35.52,14.07,47.1,18.19,18.19,45.73,40.76,64.17,50.19,1.89,1.12,4.38,8.84,4.38,8.84l-7.38,9.35-79.36-8c-1.8-.17-3.52-.26-5.32-.26A108,108,0,0,0,197,139.06c3.86-9.61,12.1-17.33,12.1-17.33s-7.72-4.72-13.56-5.49c1.72-3.86,6.09-8.84,7.21-10.21-2.23.86-18.19,8-19.82,14.07a87.73,87.73,0,0,1,13.21,4.37,42.34,42.34,0,0,0-10.21,23.43s25.31-3.86,44.36-1.38a2.36,2.36,0,0,0,1.11.26l10,.26,31.48,52.42.26.43Zm-34.4-138.9c7.46-7.2,8.58-8.23,15.7-15.18.51,13.72.25,20.93-.52,37.75-4.12-4.12-12.35-9.36-12.35-9.36S239.82,64.68,238.71,61.07Zm68.63,116.25A96.72,96.72,0,0,1,290.27,191h-.09l-33.29-41.43,27.54,3s13.22,1.37,16.22,0c2.74-1.12,17.67-22,17.67-22S275.6,103.54,261,88.7c1.63-25.05-1.88-58.43-1.88-58.17C248.4,41.25,247,43,236.22,52.84c-4.63-15.19-6.87-20.42-11.58-35.52-14.07,11.58-24.8,31.14-32.52,54.05q-2.58,2.84-4.89,5.92c-1,1.37-2.06,2.83-3.09,4.29-2.06,2.91-4,5.92-6,9.18-1.38,2.31-2.66,4.63-3.95,7-.6,1-1.12,2.15-1.63,3.18-8.24,16-15.1,34.06-21,50.36a.31.31,0,0,1-.09-.26,96.93,96.93,0,1,1,155.89,26.25Z"/><polygon class="cls-1" points="398.71 19.38 411.15 19.38 422.56 72.23 431.31 19.38 441.95 19.38 429.34 87.24 417.07 87.24 404.98 31.39 392.79 87.24 380.52 87.24 367.91 19.38 378.55 19.38 387.3 72.23 398.71 19.38"/><path class="cls-1" d="M474.12,64.08c0-9.53-1.2-15-9.69-15s-9.78,5.41-9.78,15,1.29,15,9.78,15,9.69-5.41,9.69-15m-29.59,0c0-13.73,3.94-23.43,19.81-23.43s19.82,9.7,19.82,23.43S480.22,87.5,464.34,87.5s-19.81-9.61-19.81-23.42"/><path class="cls-1" d="M492,75.4V19.29h10V75.23c0,2.49.86,3.43,3.77,3.43v8.15a14.41,14.41,0,0,1-2,.17c-8.24.09-11.93-3.86-11.84-11.58"/><path class="cls-1" d="M543.27,27.87a19.19,19.19,0,0,0-6.6-.86c-4.46,0-8.07,1.72-8.07,6.78v8h12.62v8.49H528.6V86.47h-10V50.26h-8.15V44.09l8.15-2.32V32.93c0-9.61,5.4-14.58,17.33-14.58a20.9,20.9,0,0,1,7.29,1.11v8.41Z"/><path class="cls-1" d="M572.79,49.75a16,16,0,0,0-4.89-.52c-5.32,0-9.18,1.29-11.41,2.66V86.38h-10V41.68h5.92L554,45.29a23.15,23.15,0,0,1,18.87-4.12v8.58Z"/><path class="cls-1" d="M592.69,65.79c-4.46.52-7,2.23-7,6.86,0,3.44,1.46,6.61,6.86,6.61a17.33,17.33,0,0,0,9.61-2.92V64.68Zm.6-16.56a39,39,0,0,0-14,2.66V43.23c3.52-1.55,9.35-2.58,14.67-2.58,14.67,0,18,6.44,18,16V86.47h-5.92l-1.63-3.61A21.88,21.88,0,0,1,591,87.5c-11.5,0-15.36-7.12-15.36-14.33,0-9.7,6.26-13.73,16.39-14.59l10-.77V55.58c.09-4.55-2.06-6.35-8.75-6.35"/><path class="cls-1" d="M673.17,54.9c0-4.21-2.41-5.75-6.35-5.75a17.67,17.67,0,0,0-9.7,2.74,47.12,47.12,0,0,1,.26,4.89v29.6h-10V54.81c0-4.2-2.32-5.75-6.35-5.75a18.11,18.11,0,0,0-9.44,2.58V86.38h-9.95V41.68h5.92l1.63,3.61a23.25,23.25,0,0,1,13.47-4.64c6,0,9.61,1.72,11.41,4.46a25.1,25.1,0,0,1,14.33-4.46c10.55,0,14.75,5.75,14.75,14.25V86.47h-10V54.9Z"/><polygon class="cls-1" points="377.86 166.69 407.03 166.69 407.03 175.87 367.91 175.87 367.91 108.77 377.86 108.77 377.86 166.69"/><path class="cls-1" d="M426,155.19c-4.46.51-7,2.23-7,6.86,0,3.43,1.46,6.61,6.86,6.61a16.14,16.14,0,0,0,9.61-2.92V154.07Zm.61-16.56a38.84,38.84,0,0,0-14,2.66v-8.67c3.52-1.54,9.35-2.57,14.67-2.57,14.67,0,18.1,6.44,18.1,16v29.85h-5.92l-1.63-3.6a22.14,22.14,0,0,1-13.55,4.63c-11.5,0-15.36-7.12-15.36-14.32,0-9.7,6.26-13.82,16.39-14.59l10-.77V145c0-4.55-2.15-6.35-8.75-6.35"/><path class="cls-1" d="M482.36,175.86V145.15c0-4.55-2.32-6.61-7-6.61a20.66,20.66,0,0,0-10.3,2.58v34.66H455v-44.7h5.92l1.63,3.6a25.16,25.16,0,0,1,14.5-4.63c11.33,0,15.36,5.66,15.36,14.24v31.57Z"/><path class="cls-1" d="M518.82,156.13c7.55,0,9.18-3.94,9.18-9s-1.71-9-9.18-9-9.18,3.94-9.18,9,1.63,9,9.18,9m-3.17,21.11c-4.55.77-8.67,2.83-8.67,7.12,0,5,3.61,6.95,11.84,6.95,7.9,0,14.76-2.32,14.76-7.72,0-3-1.54-4.38-5.15-4.81ZM518.82,164a34.16,34.16,0,0,1-5.14-.35,4.31,4.31,0,0,0-1.29,2.58c0,1.54.77,2.31,2.66,2.57l16.21,2c8.84,1.12,12,5.06,12,12.53,0,11.5-12.18,16-25.13,16-12,0-20.68-3.86-20.68-13,0-6.1,4.55-9.7,9.27-11.07v-.09a7.18,7.18,0,0,1-3.52-6.17,9,9,0,0,1,4-7.21c-5.06-2.83-7.12-8.07-7.12-14.59,0-10.21,5-17,18.7-17a26.82,26.82,0,0,1,8.24,1.11H542.5v6.35l-6.35,1.8a21.91,21.91,0,0,1,1.38,7.81c0,10-5,16.82-18.71,16.82"/><path class="cls-1" d="M558.37,131.17v30.71c0,4.55,2.32,6.61,7,6.61a20.62,20.62,0,0,0,10.29-2.58V131.17h10v44.69h-5.92l-1.63-3.6a25.5,25.5,0,0,1-14.42,4.63c-11.32,0-15.35-5.66-15.35-14.24V131.08h10Z"/><path class="cls-1" d="M609.08,155.19c-4.46.51-7,2.23-7,6.86,0,3.43,1.46,6.61,6.87,6.61a16.16,16.16,0,0,0,9.61-2.92V154.07Zm.68-16.56a38.83,38.83,0,0,0-14,2.66v-8.67c3.52-1.54,9.35-2.57,14.67-2.57,14.67,0,18.1,6.44,18.1,16v29.85h-5.92l-1.63-3.6a21.92,21.92,0,0,1-13.47,4.63c-11.49,0-15.35-7.12-15.35-14.32,0-9.7,6.26-13.82,16.38-14.59l10-.77V145c-.08-4.55-2.23-6.35-8.84-6.35"/><path class="cls-1" d="M655.06,156.13c7.55,0,9.18-3.94,9.18-9s-1.71-9-9.18-9-9.18,3.94-9.18,9,1.72,9,9.18,9M652,177.24c-4.55.77-8.67,2.83-8.67,7.12,0,5,3.6,6.95,11.84,6.95,7.89,0,14.76-2.32,14.76-7.72,0-3-1.55-4.38-5.15-4.81ZM655.06,164a34.16,34.16,0,0,1-5.14-.35,4.37,4.37,0,0,0-1.29,2.58c0,1.54.77,2.31,2.66,2.57l16.21,2c8.84,1.12,12,5.06,12,12.53,0,11.5-12.19,16-25.14,16-12,0-20.68-3.86-20.68-13,0-6.1,4.55-9.7,9.27-11.07v-.09a7.18,7.18,0,0,1-3.52-6.17,9,9,0,0,1,4-7.21c-5.06-2.83-7.12-8.07-7.12-14.59,0-10.21,5-17,18.7-17a26.82,26.82,0,0,1,8.24,1.11h15.44v6.35l-6.35,1.8a21.91,21.91,0,0,1,1.38,7.81c0,10-5,16.82-18.71,16.82"/><path class="cls-1" d="M693.76,150.21H711.6c0-6.09-.34-11.41-8.15-11.41-7.29-.08-9.35,4.72-9.69,11.41m9.78-20.16c15.7,0,18.27,10.38,18.27,22.74,0,1.54-.08,2.91-.17,4.37H693.76c.17,6.69,2.57,11.07,11.75,11.07a35.34,35.34,0,0,0,14.24-2.66v8.58a41.35,41.35,0,0,1-15.7,2.74c-14.93,0-20.33-8.92-20.33-23.42s5.23-23.42,19.82-23.42"/><path class="cls-1" d="M722.07,123.1h-3v-1.63H727v1.63h-3v8.24h-1.89Zm7.12-1.71H732l2.57,6.69,2.58-6.69H740v9.86h-1.8V123.7h0l-2.75,7.55H734l-2.83-7.55h0v7.55h-1.8Z"/></svg>