<svg xmlns="http://www.w3.org/2000/svg" id="Layer_1" data-name="Layer 1" viewBox="0 0 1641.8 351"><defs><style>.cls-1{fill:#fff}</style></defs><title>Wolfram</title><path d="M534.326,181.749c-8.147,2.249-8.946,2.656-17.06,4.888-8.522-4.888-16.212-7.69-23.333-6.713a83.9,83.9,0,0,1,3.634-11.6C512.8,166.058,523.979,174.075,534.326,181.749Z" class="cls-1"/><path d="M534.326,181.749c-8.147,2.249-8.946,2.656-17.06,4.888-8.522-4.888-16.212-7.69-23.333-6.713a83.9,83.9,0,0,1,3.634-11.6C512.8,166.058,523.979,174.075,534.326,181.749Z" class="cls-1"/><path d="M534.326,181.749c-8.147,2.249-8.946,2.656-17.06,4.888-8.522-4.888-16.212-7.69-23.333-6.713a83.9,83.9,0,0,1,3.634-11.6C512.8,166.058,523.979,174.075,534.326,181.749Z" class="cls-1"/><path d="M534.326,181.749c-8.147,2.249-8.946,2.656-17.06,4.888-8.522-4.888-16.212-7.69-23.333-6.713a83.9,83.9,0,0,1,3.634-11.6C512.8,166.058,523.979,174.075,534.326,181.749Z" class="cls-1"/><path d="M357.913,244.382c0,.147.13.277.13.424,10.347-28.237,22.372-59.7,36.906-87.09C380.415,184.975,368.39,216.292,357.913,244.382Zm171.932-2.509,54.242,67.57h.146Z" class="cls-1"/><path d="M624.349,51.334A175.5,175.5,0,1,0,675.788,175.46,175.5,175.5,0,0,0,624.349,51.334ZM556.273,324.108c-96.882,34.95-166.766-29.329-181.724-51.994,0-.146.13-.423.13-.57,13.426-56.882,30.062-124.827,56.768-145.014C445.427,102.2,449.37,66.406,474.5,47.537c6.289,18.869,16.294,57.876,22.925,76.744,29.638,29.638,74.511,66.413,104.557,81.778,3.08,1.825,7.137,14.4,7.137,14.4L597.089,235.7,467.782,222.663c-2.933-.277-5.736-.424-8.669-.424a176.118,176.118,0,0,0-26.852,2.574c6.29-15.658,19.716-28.237,19.716-28.237s-12.579-7.69-22.094-8.945c2.8-6.289,9.922-14.4,11.747-16.636-3.633,1.4-29.638,13.035-32.294,22.926a142.8,142.8,0,0,1,21.524,7.12,68.994,68.994,0,0,0-16.636,38.176s41.24-6.289,72.279-2.248a3.857,3.857,0,0,0,1.809.423l16.294.424L555.9,323.228l.424.7ZM500.223,97.787C512.378,86.056,514.2,84.378,525.8,73.053c.831,22.355.407,34.1-.847,61.509-6.713-6.713-20.123-15.251-20.123-15.251s-2.8-15.69-4.611-21.573ZM612.047,287.2a157.577,157.577,0,0,1-27.814,22.241h-.146l-54.242-67.5,44.873,4.888s21.54,2.233,26.428,0c4.465-1.825,28.791-35.846,28.791-35.846s-69.607-44.042-93.4-68.222c2.656-40.816-3.063-95.2-3.063-94.781C516.011,65.444,513.73,68.3,496.166,84.329c-7.544-24.75-11.194-33.272-18.869-57.876-22.925,18.868-40.408,50.739-52.987,88.068q-4.2,4.627-7.968,9.646c-1.629,2.232-3.356,4.611-5.034,6.99-3.357,4.741-6.518,9.646-9.777,14.958-2.248,3.763-4.334,7.544-6.436,11.405-.977,1.63-1.824,3.5-2.655,5.182-13.427,26.07-24.6,55.5-34.217,82.055a.5.5,0,0,1-.147-.424,157.935,157.935,0,1,1,254,42.771Z" class="cls-1"/><polygon points="760.923 29.81 781.192 29.81 799.783 115.922 814.04 29.81 831.377 29.81 810.83 140.379 790.838 140.379 771.139 49.379 751.277 140.379 731.284 140.379 710.738 29.81 728.074 29.81 742.332 115.922 760.923 29.81" class="cls-1"/><path d="M883.794,102.643c0-15.528-1.955-24.441-15.789-24.441s-15.935,8.815-15.935,24.441,2.1,24.441,15.935,24.441,15.789-8.815,15.789-24.441m-48.213,0c0-22.371,6.419-38.176,32.278-38.176s32.294,15.805,32.294,38.176-6.42,38.16-32.294,38.16-32.278-15.658-32.278-38.16" class="cls-1"/><path d="M912.927,121.087V29.663h16.294V120.81c0,4.058,1.4,5.589,6.143,5.589v13.28a23.57,23.57,0,0,1-3.259.277c-13.426.146-19.439-6.29-19.292-18.869" class="cls-1"/><path d="M996.465,43.643a31.26,31.26,0,0,0-10.754-1.4c-7.267,0-13.149,2.8-13.149,11.047V66.324h20.563V80.158H972.562v58.967H956.268v-59H942.989V70.072l13.279-3.78v-14.4c0-15.658,8.8-23.756,28.238-23.756a34.054,34.054,0,0,1,11.878,1.808v13.7Z" class="cls-1"/><path d="M1044.564,79.294a26.072,26.072,0,0,0-7.967-.847c-8.669,0-14.958,2.1-18.591,4.334v56.2h-16.294V66.145h9.646l2.59,5.882a37.722,37.722,0,0,1,30.747-6.713v13.98Z" class="cls-1"/><path d="M1076.989,105.429c-7.267.847-11.406,3.634-11.406,11.178,0,5.605,2.379,10.77,11.178,10.77a28.24,28.24,0,0,0,15.658-4.758v-19Zm.977-26.982a63.523,63.523,0,0,0-22.811,4.334V68.67c5.736-2.525,15.235-4.2,23.9-4.2,23.9,0,29.329,10.493,29.329,26.07v48.588h-9.646l-2.656-5.882a35.654,35.654,0,0,1-21.85,7.56c-18.738,0-25.027-11.6-25.027-23.349,0-15.8,10.2-22.371,26.706-23.773l16.293-1.254V88.793c.147-7.413-3.356-10.346-14.257-10.346" class="cls-1"/><path d="M1208.121,87.685c0-6.859-3.927-9.369-10.347-9.369a28.788,28.788,0,0,0-15.8,4.465,76.828,76.828,0,0,1,.423,7.967v48.23H1166.1V87.539c0-6.844-3.78-9.369-10.346-9.369a29.506,29.506,0,0,0-15.381,4.2v56.605h-16.213V66.145h9.646l2.656,5.882a37.88,37.88,0,0,1,21.948-7.56c9.776,0,15.658,2.8,18.591,7.267a40.9,40.9,0,0,1,23.349-7.267c17.19,0,24.033,9.369,24.033,23.218v51.44h-16.294V87.685Z" class="cls-1"/><polygon points="726.95 269.833 774.479 269.833 774.479 284.791 710.738 284.791 710.738 175.46 726.95 175.46 726.95 269.833" class="cls-1"/><path d="M805.388,251.1c-7.267.831-11.405,3.634-11.405,11.178,0,5.589,2.379,10.77,11.177,10.77a26.293,26.293,0,0,0,15.658-4.758V249.27Zm.994-26.982a63.276,63.276,0,0,0-22.811,4.334V214.32c5.735-2.509,15.235-4.187,23.9-4.187,23.9,0,29.492,10.493,29.492,26.07V284.84H827.32l-2.656-5.866a36.076,36.076,0,0,1-22.078,7.544c-18.738,0-25.027-11.6-25.027-23.333,0-15.805,10.2-22.518,26.705-23.772l16.294-1.255v-3.666c0-7.414-3.5-10.347-14.257-10.347" class="cls-1"/><path d="M897.22,284.774V234.736c0-7.413-3.78-10.77-11.406-10.77a33.662,33.662,0,0,0-16.782,4.2v56.474H852.64V211.811h9.646l2.656,5.866a41,41,0,0,1,23.626-7.544c18.461,0,25.027,9.222,25.027,23.2v51.439Z" class="cls-1"/><path d="M956.627,252.627c12.3,0,14.958-6.42,14.958-14.664S968.8,223.3,956.627,223.3s-14.958,6.42-14.958,14.665,2.656,14.664,14.958,14.664m-5.165,34.4c-7.414,1.255-14.127,4.611-14.127,11.6,0,8.147,5.882,11.324,19.292,11.324,12.872,0,24.05-3.78,24.05-12.578,0-4.889-2.51-7.137-8.392-7.838Zm5.165-21.573a55.739,55.739,0,0,1-8.375-.57,7.018,7.018,0,0,0-2.1,4.2c0,2.509,1.255,3.763,4.334,4.187L976.9,276.53c14.4,1.825,19.553,8.244,19.553,20.416,0,18.738-19.846,26.07-40.946,26.07-19.553,0-33.7-6.289-33.7-21.182,0-9.939,7.414-15.805,15.105-18.037v-.147a11.7,11.7,0,0,1-5.736-10.053,14.667,14.667,0,0,1,6.518-11.748c-8.245-4.611-11.6-13.149-11.6-23.772,0-16.636,8.147-27.7,30.47-27.7a43.725,43.725,0,0,1,13.426,1.809h25.223v10.346l-10.347,2.933a35.729,35.729,0,0,1,2.249,12.726c0,16.293-8.147,27.406-30.486,27.406" class="cls-1"/><path d="M1021.069,211.958V262c0,7.413,3.78,10.77,11.4,10.77a33.6,33.6,0,0,0,16.767-4.2v-56.6h16.293v72.816h-9.646l-2.655-5.865a41.552,41.552,0,0,1-23.5,7.544c-18.445,0-25.011-9.223-25.011-23.2V211.811h16.294Z" class="cls-1"/><path d="M1103.694,251.1c-7.267.831-11.4,3.634-11.4,11.178,0,5.589,2.379,10.77,11.194,10.77a26.334,26.334,0,0,0,15.658-4.758V249.27Zm1.108-26.982a63.254,63.254,0,0,0-22.811,4.334V214.32c5.736-2.509,15.235-4.187,23.9-4.187,23.9,0,29.492,10.493,29.492,26.07V284.84h-9.646l-2.656-5.866a35.712,35.712,0,0,1-21.948,7.544c-18.721,0-25.011-11.6-25.011-23.333,0-15.805,10.2-22.518,26.69-23.772l16.293-1.255v-3.666c-.13-7.414-3.633-10.347-14.4-10.347" class="cls-1"/><path d="M1178.613,252.627c12.3,0,14.958-6.42,14.958-14.664s-2.787-14.665-14.958-14.665-14.958,6.42-14.958,14.665,2.8,14.664,14.958,14.664m-4.986,34.4c-7.413,1.255-14.127,4.611-14.127,11.6,0,8.147,5.866,11.324,19.292,11.324,12.856,0,24.05-3.78,24.05-12.578,0-4.889-2.526-7.137-8.391-7.838Zm4.986-21.573a55.739,55.739,0,0,1-8.375-.57,7.124,7.124,0,0,0-2.1,4.2c0,2.509,1.255,3.763,4.334,4.187l26.412,3.259c14.4,1.825,19.553,8.244,19.553,20.416,0,18.738-19.862,26.07-40.963,26.07-19.552,0-33.695-6.289-33.695-21.182,0-9.939,7.414-15.805,15.1-18.037v-.147a11.7,11.7,0,0,1-5.735-10.053,14.663,14.663,0,0,1,6.517-11.748c-8.244-4.611-11.6-13.149-11.6-23.772,0-16.636,8.147-27.7,30.47-27.7a43.725,43.725,0,0,1,13.426,1.809h25.157v10.346l-10.346,2.933a35.706,35.706,0,0,1,2.248,12.726c0,16.293-8.147,27.406-30.485,27.406" class="cls-1"/><path d="M1241.67,242.981h29.068c0-9.923-.554-18.591-13.28-18.591-11.878-.131-15.234,7.69-15.788,18.591m15.935-32.848c25.581,0,29.769,16.913,29.769,37.052,0,2.509-.131,4.741-.277,7.12H1241.67c.277,10.9,4.187,18.037,19.145,18.037a57.571,57.571,0,0,0,23.2-4.334v13.98a67.386,67.386,0,0,1-25.581,4.465c-24.326,0-33.125-14.534-33.125-38.16s8.521-38.16,32.294-38.16" class="cls-1"/><path d="M1287.8,198.809h-4.888v-2.656h12.921v2.656h-4.888v13.426h-3.079Zm11.6-2.787h4.578l4.188,10.9,4.2-10.9h4.644v16.066h-2.933v-12.3h0l-4.48,12.3h-2.363l-4.611-12.3h0v12.3h-2.933Z" class="cls-1"/></svg>