<?xml version="1.0" encoding="utf-8"?>
<!-- Generator: Adobe Illustrator 19.0.0, SVG Export Plug-In . SVG Version: 6.00 Build 0)  -->
<svg version="1.1" id="Layer_1" xmlns="http://www.w3.org/2000/svg" xmlns:xlink="http://www.w3.org/1999/xlink" x="0px" y="0px"
	 viewBox="49 271.8 709.8 251.2" style="enable-background:new 49 271.8 709.8 251.2;" xml:space="preserve">
<style type="text/css">
	.st0{fill:#FFFFFF;}
</style>
<title>Hackathon Logo Wolfram 2018 Vector</title>
<path class="st0" d="M198.9,401.9c-5.8,1.6-6.4,1.9-12.2,3.5c-6.1-3.5-11.6-5.5-16.7-4.8c0.7-2.8,1.5-5.6,2.6-8.3
	C183.5,390.7,191.5,396.4,198.9,401.9z"/>
<path class="st0" d="M198.9,401.9c-5.8,1.6-6.4,1.9-12.2,3.5c-6.1-3.5-11.6-5.5-16.7-4.8c0.7-2.8,1.5-5.6,2.6-8.3
	C183.5,390.7,191.5,396.4,198.9,401.9z"/>
<path class="st0" d="M198.9,401.9c-5.8,1.6-6.4,1.9-12.2,3.5c-6.1-3.5-11.6-5.5-16.7-4.8c0.7-2.8,1.5-5.6,2.6-8.3
	C183.5,390.7,191.5,396.4,198.9,401.9z"/>
<path class="st0" d="M198.9,401.9c-5.8,1.6-6.4,1.9-12.2,3.5c-6.1-3.5-11.6-5.5-16.7-4.8c0.7-2.8,1.5-5.6,2.6-8.3
	C183.5,390.7,191.5,396.4,198.9,401.9z"/>
<path class="st0" d="M72.7,446.7c0,0.1,0.1,0.2,0.1,0.3c7.4-20.2,16-42.7,26.4-62.3C88.8,404.2,80.2,426.6,72.7,446.7z M195.7,444.9
	l38.8,48.3c0,0,0,0,0.1,0L195.7,444.9z"/>
<path class="st0" d="M263.3,308.6c-49-49-128.5-49-177.6,0s-49,128.5,0,177.6s128.5,49,177.6,0c23.5-23.5,36.8-55.5,36.8-88.8
	C300.1,364.1,286.8,332.2,263.3,308.6z M214.6,503.7c-69.3,25-119.3-21-130-37.2c0-0.1,0.1-0.3,0.1-0.4
	c9.6-40.7,21.5-89.3,40.6-103.7c10-17.4,12.8-43,30.8-56.5c4.5,13.5,11.6,41.4,16.4,54.9c21.2,21.2,53.3,47.5,74.8,58.5
	c2.2,1.3,5.1,10.3,5.1,10.3l-8.6,10.9l-92.5-9.3c-2.1-0.2-4.1-0.3-6.2-0.3c-6.4,0.1-12.8,0.7-19.2,1.8c4.5-11.2,14.1-20.2,14.1-20.2
	s-9-5.5-15.8-6.4c2-4.5,7.1-10.3,8.4-11.9c-2.6,1-21.2,9.3-23.1,16.4c5.3,1.3,10.4,3,15.4,5.1c0,0-9.9,10-11.9,27.3
	c0,0,29.5-4.5,51.7-1.6c0.4,0.2,0.8,0.3,1.3,0.3l11.6,0.3l36.7,61.1l0.3,0.5L214.6,503.7z M174.5,341.8c8.7-8.4,10-9.6,18.3-17.7
	c0.6,16,0.3,24.4-0.6,44c-4.8-4.8-14.4-10.9-14.4-10.9S175.8,346,174.5,341.8z M254.5,477.3c-6,6-12.7,11.4-19.9,15.9c0,0,0,0-0.1,0
	l-38.8-48.3l32.1,3.5c0,0,15.4,1.6,18.9,0c3.2-1.3,20.6-25.6,20.6-25.6s-49.8-31.5-66.8-48.8c1.9-29.2-2.2-68.1-2.2-67.8
	c-12.5,12.5-14.1,14.5-26.7,26c-5.4-17.7-8-23.8-13.5-41.4c-16.4,13.5-28.9,36.3-37.9,63c-2,2.2-3.9,4.5-5.7,6.9
	c-1.2,1.6-2.4,3.3-3.6,5c-2.4,3.4-4.7,6.9-7,10.7c-1.6,2.7-3.1,5.4-4.6,8.2c-0.7,1.2-1.3,2.5-1.9,3.7C87.8,407,79.8,428,72.9,447
	c-0.1-0.1-0.1-0.2-0.1-0.3c-27.2-56.2-3.6-123.8,52.5-150.9s123.8-3.6,150.9,52.5C297.2,391.6,288.4,443.3,254.5,477.3L254.5,477.3z
	"/>
<polygon class="st0" points="361,293.2 375.5,293.2 388.8,354.8 399,293.2 411.4,293.2 396.7,372.3 382.4,372.3 368.3,307.2 
	354.1,372.3 339.8,372.3 325.1,293.2 337.5,293.2 347.7,354.8 "/>
<path class="st0" d="M448.9,345.3c0-11.1-1.4-17.5-11.3-17.5s-11.4,6.3-11.4,17.5s1.5,17.5,11.4,17.5S448.9,356.5,448.9,345.3
	 M414.4,345.3c0-16,4.6-27.3,23.1-27.3s23.1,11.3,23.1,27.3s-4.6,27.3-23.1,27.3S414.4,361.4,414.4,345.3"/>
<path class="st0" d="M469.7,358.5v-65.4h11.7v65.2c0,2.9,1,4,4.4,4v9.5c-0.8,0.1-1.5,0.2-2.3,0.2
	C473.9,372.1,469.6,367.5,469.7,358.5"/>
<path class="st0" d="M529.5,303.1c-2.5-0.8-5.1-1.1-7.7-1c-5.2,0-9.4,2-9.4,7.9v9.3h14.7v9.9h-14.7v42.2h-11.7v-42.2h-9.5V322
	l9.5-2.7V309c0-11.2,6.3-17,20.2-17c2.9-0.1,5.8,0.4,8.5,1.3v9.8H529.5z"/>
<path class="st0" d="M563.9,328.6c-1.9-0.5-3.8-0.7-5.7-0.6c-6.2,0-10.7,1.5-13.3,3.1v40.2h-11.7v-52.1h6.9l1.9,4.2
	c6.3-4.7,14.3-6.5,22-4.8v10H563.9z"/>
<path class="st0" d="M587.1,347.3c-5.2,0.6-8.2,2.6-8.2,8c0,4,1.7,7.7,8,7.7c4,0,7.9-1.2,11.2-3.4V346L587.1,347.3z M587.8,328
	c-5.6,0-11.1,1.1-16.3,3.1V321c4.1-1.8,10.9-3,17.1-3c17.1,0,21,7.5,21,18.6v34.8h-6.9l-1.9-4.2c-4.5,3.5-10,5.4-15.7,5.4
	c-13.4,0-17.9-8.3-17.9-16.7c0-11.3,7.3-16,19.1-17L598,338v-2.6C598.1,330.1,595.6,328,587.8,328"/>
<path class="st0" d="M680.9,334.6c0-4.9-2.8-6.7-7.4-6.7c-4-0.1-7.9,1.1-11.3,3.2c0.2,1.9,0.3,3.8,0.3,5.7v34.5h-11.6v-36.8
	c0-4.9-2.7-6.7-7.4-6.7c-3.9,0-7.7,1-11,3v40.5h-11.6v-52.1h6.9l1.9,4.2c4.5-3.4,10.1-5.3,15.7-5.4c7,0,11.2,2,13.3,5.2
	c4.9-3.4,10.7-5.2,16.7-5.2c12.3,0,17.2,6.7,17.2,16.6v36.8h-11.7V334.6z"/>
<polygon class="st0" points="336.7,464.9 370.7,464.9 370.7,475.6 325.1,475.6 325.1,397.4 336.7,397.4 "/>
<path class="st0" d="M392.8,451.5c-5.2,0.6-8.2,2.6-8.2,8c0,4,1.7,7.7,8,7.7c4,0.1,7.9-1.1,11.2-3.4v-13.6L392.8,451.5z
	 M393.5,432.2c-5.6,0-11.1,1.1-16.3,3.1v-10.1c4.1-1.8,10.9-3,17.1-3c17.1,0,21.1,7.5,21.1,18.6v34.8h-6.9l-1.9-4.2
	c-4.5,3.5-10.1,5.4-15.8,5.4c-13.4,0-17.9-8.3-17.9-16.7c0-11.3,7.3-16.1,19.1-17l11.7-0.9v-2.6
	C403.7,434.3,401.2,432.2,393.5,432.2"/>
<path class="st0" d="M458.5,475.6v-35.8c0-5.3-2.7-7.7-8.2-7.7c-4.2-0.1-8.3,1-12,3v40.4h-11.7v-52.1h6.9l1.9,4.2
	c5-3.5,10.8-5.4,16.9-5.4c13.2,0,17.9,6.6,17.9,16.6v36.8H458.5z"/>
<path class="st0" d="M501,452.6c8.8,0,10.7-4.6,10.7-10.5s-2-10.5-10.7-10.5s-10.7,4.6-10.7,10.5S492.2,452.6,501,452.6
	 M497.3,477.2c-5.3,0.9-10.1,3.3-10.1,8.3c0,5.8,4.2,8.1,13.8,8.1c9.2,0,17.2-2.7,17.2-9c0-3.5-1.8-5.1-6-5.6L497.3,477.2z
	 M501,461.8c-2,0-4-0.1-6-0.4c-0.8,0.8-1.4,1.9-1.5,3c0,1.8,0.9,2.7,3.1,3l18.9,2.3c10.3,1.3,14,5.9,14,14.6
	c0,13.4-14.2,18.6-29.3,18.6c-14,0-24.1-4.5-24.1-15.2c0-7.1,5.3-11.3,10.8-12.9v-0.1c-2.5-1.5-4.1-4.2-4.1-7.2
	c0-3.9,2.3-6.6,4.7-8.4c-5.9-3.3-8.3-9.4-8.3-17c0-11.9,5.8-19.8,21.8-19.8c3.2-0.1,6.5,0.4,9.6,1.3h18v7.4l-7.4,2.1
	c1.1,2.9,1.6,6,1.6,9.1C522.8,453.9,517,461.8,501,461.8"/>
<path class="st0" d="M547.1,423.5v35.8c0,5.3,2.7,7.7,8.2,7.7c4.2,0.1,8.3-1,12-3v-40.5h11.6v52.1H572l-1.9-4.2
	c-4.9,3.5-10.8,5.3-16.8,5.4c-13.2,0-17.9-6.6-17.9-16.6v-36.8h11.7V423.5z"/>
<path class="st0" d="M606.2,451.5c-5.2,0.6-8.2,2.6-8.2,8c0,4,1.7,7.7,8,7.7c4,0.1,7.9-1.1,11.2-3.4v-13.6L606.2,451.5z M607,432.2
	c-5.6,0-11.1,1.1-16.3,3.1v-10.1c4.1-1.8,10.9-3,17.1-3c17.1,0,21.1,7.5,21.1,18.6v34.8H622l-1.9-4.2c-4.5,3.5-10,5.4-15.7,5.4
	c-13.4,0-17.9-8.3-17.9-16.7c0-11.3,7.3-16.1,19.1-17l11.7-0.9v-2.6C617.2,434.3,614.7,432.2,607,432.2"/>
<path class="st0" d="M659.8,452.6c8.8,0,10.7-4.6,10.7-10.5s-2-10.5-10.7-10.5s-10.7,4.6-10.7,10.5S651.1,452.6,659.8,452.6
	 M656.2,477.2c-5.3,0.9-10.1,3.3-10.1,8.3c0,5.8,4.2,8.1,13.8,8.1c9.2,0,17.2-2.7,17.2-9c0-3.5-1.8-5.1-6-5.6L656.2,477.2z
	 M659.8,461.8c-2,0-4-0.1-6-0.4c-0.8,0.8-1.4,1.9-1.5,3c0,1.8,0.9,2.7,3.1,3l18.9,2.3c10.3,1.3,14,5.9,14,14.6
	c0,13.4-14.2,18.6-29.3,18.6c-14,0-24.1-4.5-24.1-15.2c0-7.1,5.3-11.3,10.8-12.9v-0.1c-2.5-1.5-4.1-4.2-4.1-7.2
	c0-3.9,2.3-6.6,4.7-8.4c-5.9-3.3-8.3-9.4-8.3-17c0-11.9,5.8-19.8,21.8-19.8c3.2-0.1,6.5,0.4,9.6,1.3h18v7.4l-7.4,2.1
	c1.1,2.9,1.6,6,1.6,9.1C681.6,453.9,675.8,461.8,659.8,461.8"/>
<path class="st0" d="M704.9,445.7h20.8c0-7.1-0.4-13.3-9.5-13.3C707.7,432.3,705.3,437.9,704.9,445.7 M716.3,422.2
	c18.3,0,21.3,12.1,21.3,26.5c0,1.8-0.1,3.4-0.2,5.1h-32.5c0.2,7.8,3,12.9,13.7,12.9c5.7,0.1,11.3-0.9,16.6-3.1v10
	c-5.9,2.5-12.7,3.2-18.3,3.2c-17.4,0-23.7-10.4-23.7-27.3S699.3,422.2,716.3,422.2"/>
<path class="st0" d="M737.9,414.1h-3.5v-1.9h9.2v1.9h-3.5v9.6h-2.2V414.1z M746.2,412.1h3.3l3,7.8l3-7.8h3.3v11.5h-2.1v-8.8l0,0
	l-3.2,8.8h-1.7l-3.3-8.8l0,0v8.8h-2.1L746.2,412.1z"/>
</svg>
