<svg xmlns="http://www.w3.org/2000/svg" id="Layer_1" data-name="Layer 1" viewBox="0 0 1641.8 351"><defs><style>.cls-1{fill:#fff}</style></defs><title>Xbox</title><path id="path6965" d="M1398.872,283.585l-79.717-107.4,72.837-97.506h-27.355l-59.243,79.548-59.241-79.549h-27.188l72.668,97.67L1212.09,283.754h27.356l65.955-88.948,66.122,88.948h27.355" class="cls-1"/><path id="path6967" d="M855.794,283.585l-79.547-107.4,72.668-97.506H821.727l-59.241,79.548L703.243,78.673H675.888l72.837,97.67L669.008,283.754h27.355l66.123-88.948,65.953,88.948h27.355" class="cls-1"/><path id="path6969" d="M951.287,262.1h-60.92V187.59h60.92c23.16,0,50.682,6.21,50.682,35.578C1001.977,257.069,970.084,262.1,951.287,262.1ZM890.367,99.986h60.92c16.447,0,44.137,4.028,44.137,32.558,0,21.482-16.111,34.4-44.137,34.4h-60.92ZM1007.173,183.9a54.005,54.005,0,0,0-13.594-8.559,46.439,46.439,0,0,0,24.844-40.949c0-13.089-4.872-55.717-67.3-55.717H867.044v88.444H839.018c-3.693,4.7-11.915,15.941-15.1,20.473h43.127v95.995h84.079c45.648,0,74.011-22.991,74.011-59.917.162-16.11-6.042-29.877-17.958-39.781" class="cls-1"/><path id="path6971" d="M1134.55,266.461c-44.473,0-75.521-35.073-75.521-85.422s31.048-85.423,75.521-85.423c44.305,0,75.179,35.073,75.179,85.423C1209.734,231.225,1178.855,266.461,1134.55,266.461Zm0-192.494c-58.4,0-99.016,43.969-99.016,107.072s40.613,107.071,99.016,107.071c58.067,0,98.68-43.969,98.68-107.072s-40.613-107.071-98.68-107.071" class="cls-1"/><g id="g4146"><path id="path4148" d="M399.861,349.4a173.572,173.572,0,0,1-77.4-27.493c-19.584-12.795-24-18.024-24-28.539,0-21.057,23.15-57.968,62.7-100.007,22.491-23.887,53.785-51.885,57.156-51.148,6.593,1.473,59.213,52.892,78.914,77.05,31.176,38.321,45.525,69.644,38.235,83.6-5.545,10.625-39.863,31.371-65.069,39.32A190.182,190.182,0,0,1,399.861,349.4Zm-127.811-77.9c-16.248-24.973-24.468-49.6-28.462-85.156-1.319-11.749-.854-18.458,2.986-42.578,4.769-30.052,21.831-64.8,42.38-86.2,8.768-9.113,9.539-9.346,20.2-5.74,12.953,4.384,26.756,13.922,48.2,33.349l12.526,11.324-6.82,8.414c-31.757,39.01-65.223,94.307-77.826,128.508-6.864,18.574-9.616,37.265-6.669,45.02C280.546,283.672,278.719,281.724,272.05,271.494Zm285.4,4.222c1.589-7.833-.427-22.258-5.2-36.8-10.277-31.486-44.749-90.118-76.393-129.942L465.9,96.454l10.78-9.927c14.077-12.951,23.848-20.706,34.4-27.26,8.337-5.2,20.2-9.772,25.321-9.772,3.142,0,14.232,11.516,23.189,24.12a182.416,182.416,0,0,1,29.239,67.71c3.335,15.9,3.606,49.906.542,65.728A208.847,208.847,0,0,1,576.3,248.388c-3.916,8.57-13.61,25.206-17.876,30.636-2.171,2.713-2.171,2.713-.974-3.3ZM402.73,43.52c-14.614-7.445-37.148-15.4-49.6-17.567a92.972,92.972,0,0,0-16.562-.931c-10.275.505-9.811,0,6.67-7.794A169.152,169.152,0,0,1,383.881,3.7c17.452-3.684,50.22-3.723,67.4-.078,18.535,3.917,40.366,12.06,52.66,19.621l3.643,2.249-8.375-.427c-16.674-.852-40.949,5.894-67.046,18.613-7.872,3.84-14.7,6.9-15.2,6.788-.466-.078-6.9-3.22-14.232-6.942Z" class="cls-1"/></g></svg>