<svg id="Layer_1" data-name="Layer 1" xmlns="http://www.w3.org/2000/svg" viewBox="0 0 870.96 217.58"><defs><style>.cls-1{fill:#fff;}</style></defs><title>xbox</title><path id="path6965" class="cls-1" d="M791.431,175.346,742.337,109.2l44.857-60.05H770.347L733.862,98.14,697.378,49.149H680.634L725.387,109.3,676.4,175.45h16.847l40.619-54.779,40.722,54.779h16.847"/><path id="path6967" class="cls-1" d="M456.972,175.346,407.982,109.2l44.753-60.05H435.991L399.507,98.14,363.022,49.149H346.175L391.032,109.3,341.938,175.45h16.847l40.722-54.779,40.618,54.779h16.847"/><path id="path6969" class="cls-1" d="M515.782,162.117H478.264v-45.89h37.518c14.263,0,31.213,3.824,31.213,21.911C547,159.016,527.358,162.117,515.782,162.117ZM478.264,62.275h37.518c10.129,0,27.182,2.481,27.182,20.051,0,13.23-9.922,21.188-27.182,21.188H478.264ZM550.2,113.953a33.269,33.269,0,0,0-8.372-5.271,28.6,28.6,0,0,0,15.3-25.219c0-8.061-3-34.314-41.446-34.314H463.9v54.469h-17.26c-2.274,2.894-7.338,9.818-9.3,12.609H463.9v59.119h51.781c28.113,0,45.58-14.159,45.58-36.9.1-9.922-3.721-18.4-11.059-24.5"/><path id="path6971" class="cls-1" d="M628.646,164.8c-27.389,0-46.51-21.6-46.51-52.608s19.121-52.608,46.51-52.608c27.286,0,46.3,21.6,46.3,52.608C674.949,143.1,655.932,164.8,628.646,164.8Zm0-118.549c-35.968,0-60.98,27.079-60.98,65.941s25.012,65.941,60.98,65.941c35.761,0,60.773-27.079,60.773-65.941s-25.012-65.941-60.773-65.941"/><g id="g4146"><path id="path4148" class="cls-1" d="M176.181,215.876a106.892,106.892,0,0,1-47.667-16.932c-12.061-7.88-14.783-11.1-14.783-17.576,0-12.968,14.257-35.7,38.616-61.59,13.851-14.711,33.124-31.954,35.2-31.5,4.06.907,36.467,32.574,48.6,47.452,19.2,23.6,28.037,42.891,23.547,51.489-3.415,6.543-24.55,19.32-40.073,24.215A117.119,117.119,0,0,1,176.181,215.876ZM97.468,167.9c-10.007-15.38-15.069-30.545-17.529-52.444-.812-7.236-.526-11.368,1.839-26.222,2.937-18.508,13.445-39.906,26.1-53.088,5.4-5.612,5.875-5.756,12.442-3.535,7.977,2.7,16.478,8.574,29.685,20.538l7.714,6.974-4.2,5.182c-19.558,24.025-40.168,58.08-47.93,79.143-4.227,11.439-5.922,22.95-4.107,27.726C102.7,175.4,101.575,174.2,97.468,167.9Zm175.767,2.6c.979-4.824-.263-13.708-3.2-22.664-6.329-19.391-27.559-55.5-47.047-80.026L216.851,60.1l6.639-6.114c8.669-7.976,14.687-12.752,21.183-16.788,5.134-3.2,12.442-6.018,15.594-6.018,1.935,0,8.765,7.092,14.281,14.854a112.343,112.343,0,0,1,18.007,41.7c2.054,9.791,2.221,30.735.334,40.479a128.632,128.632,0,0,1-8.048,25.457c-2.412,5.278-8.382,15.523-11.009,18.867-1.337,1.671-1.337,1.671-.6-2.03Zm-95.287-143c-9-4.585-22.878-9.481-30.544-10.819a57.254,57.254,0,0,0-10.2-.573c-6.328.311-6.042,0,4.108-4.8a104.172,104.172,0,0,1,25.028-8.334C177.088.705,197.268.681,207.848,2.926c11.415,2.412,24.86,7.427,32.431,12.084l2.244,1.385-5.158-.263c-10.269-.525-25.219,3.63-41.291,11.463-4.848,2.365-9.051,4.251-9.361,4.18C186.426,31.727,182.462,29.792,177.948,27.5Z"/></g></svg>