<svg xmlns="http://www.w3.org/2000/svg" id="Layer_1" data-name="Layer 1" viewBox="0 0 322 138"><defs><style>.cls-1{fill:#fff}</style></defs><title>upe_named_white</title><polyline id="Upsilon" points="46.256 121.675 67.464 121.675 71.538 121.675 71.538 94.048 61.939 94.048 61.939 92.038 61.939 79.527 83.318 43.952 92.512 43.952 92.512 16.325 52.73 16.325 52.73 39.953 55.565 42.465 46.413 58.588 46.099 58.588 36.947 42.465 39.783 39.953 39.783 16.325 0 16.325 0 43.952 9.195 43.952 30.574 79.527 30.574 92.038 30.574 94.048 20.974 94.048 20.974 121.675 25.048 121.675 46.256 121.675" class="cls-1"/><polygon id="Pi" points="162.278 43.952 167.658 43.952 167.658 121.675 208.914 121.675 208.914 94.048 200.073 94.048 200.073 43.952 208.914 43.952 208.914 16.325 162.278 16.325 112.772 16.325 112.772 43.952 122.349 43.952 122.349 94.048 112.772 94.048 112.772 121.675 154.765 121.675 154.765 43.952 162.278 43.952" class="cls-1"/><polygon id="Epsilon" points="295.847 68.212 295.847 82.629 274.85 82.629 274.85 94.048 295.847 94.048 295.847 87.418 322 87.418 322 121.675 229.174 121.675 229.174 94.048 238.014 94.048 238.014 68.212 238.014 43.952 229.174 43.952 229.174 16.325 322 16.325 322 49.845 295.847 49.845 295.847 43.952 274.85 43.952 274.85 55.371 295.847 55.371 295.847 68.212" class="cls-1"/></svg>