<svg xmlns="http://www.w3.org/2000/svg" xmlns:xlink="http://www.w3.org/1999/xlink" id="Layer_1" x="0" y="0" enable-background="new 0 0 960 560" version="1.1" viewBox="0 0 960 560" xml:space="preserve"><style type="text/css">.st0{opacity:.5;fill:#d4fff4;enable-background:new}.st1{fill:#8eedd4}.st2{fill:#ff0096}.st3{fill:#cea174}.st4{fill:#449983}.st5{fill:#ddd}.st6{fill:#75ccb7}.st7{fill:#be0078}.st8{fill:#820057}.st9{fill:#eaeaea}.st10{fill:#fff}</style><circle id="XMLID_148_" cx="258.7" cy="116.7" r="101.3" class="st0"/><path id="XMLID_137_" d="M286.7,84.9c0,0-68,22.9-44.2,47.1C266.3,156.2,286.7,84.9,286.7,84.9z" class="st1"/><g id="XMLID_138_"><path id="XMLID_308_" d="M267.9,103.2c0,0,1-1.2,2.9-3.6c1.9-2.3,4.7-5.7,8.6-9.8c1.9-2.1,4-4.4,6.4-6.8s5-5,7.9-7.7 c1.4-1.4,2.9-2.7,4.5-4.2c1.6-1.4,3.2-2.8,4.9-4.2c0.8-0.7,1.7-1.4,2.6-2.2c0.9-0.7,1.8-1.4,2.7-2.1c1.8-1.4,3.7-3,5.7-4.4 c7.9-5.9,16.9-11.6,27.2-16.7c2.6-1.3,5.2-2.4,7.9-3.6c1.4-0.5,2.8-1.1,4.2-1.6s2.8-1.1,4.3-1.5c1.5-0.5,2.9-0.9,4.4-1.4 s3-0.8,4.5-1.2c3-0.8,6.2-1.3,9.3-1.9c6.4-0.9,12.9-1.3,19.6-0.8c6.7,0.4,13.4,1.7,19.8,3.8c6.5,2,12.8,4.8,18.6,8.3 s11.3,7.5,16.3,12s9.6,9.4,13.8,14.5c4.2,5.1,7.9,10.6,11.3,16.1s6.4,11.1,9.1,16.8s5.1,11.4,7.2,17.1c1.1,2.8,2,5.7,3,8.5 c0.9,2.8,1.8,5.6,2.6,8.5c1.7,5.6,3.1,11.1,4.3,16.5c2.4,10.8,4.2,21.2,5.3,30.8c1.1,9.6,1.7,18.4,1.9,26.3 c0.2,7.8,0,14.7-0.4,20.3c-0.2,2.8-0.4,5.3-0.6,7.5c-0.3,2.2-0.5,4-0.7,5.5c-0.5,3-0.7,4.6-0.7,4.6l-1.4-0.2c0,0,0.1-1.6,0.4-4.5 c0.1-1.5,0.2-3.3,0.3-5.5c0.1-2.2,0.2-4.6,0.2-7.4c0-5.6-0.1-12.3-0.7-20s-1.6-16.4-3.2-25.7c-1.6-9.4-3.8-19.4-6.7-29.9 c-1.5-5.2-3.1-10.5-5-15.9c-0.9-2.7-1.9-5.4-2.9-8.1c-1.1-2.7-2.1-5.4-3.3-8.1c-2.3-5.4-4.9-10.8-7.7-16.1 c-1.4-2.7-2.9-5.3-4.4-7.9c-1.6-2.6-3.1-5.2-4.9-7.7c-3.4-5.1-7-10-11-14.6s-8.4-8.9-13-12.7c-4.7-3.8-9.6-7.3-14.9-10 s-10.8-4.8-16.4-6.2s-11.3-2.1-16.9-2.3c-5.7-0.1-11.2,0.3-16.7,1.2c-11,1.8-21.5,5.1-31.1,9.2c-1.2,0.5-2.4,1.1-3.6,1.6 s-2.4,1-3.5,1.6c-2.3,1.2-4.6,2.2-6.8,3.4s-4.4,2.4-6.5,3.5c-2.1,1.2-4.2,2.4-6.2,3.6s-3.9,2.5-5.8,3.6c-1,0.6-1.9,1.2-2.8,1.8 c-0.9,0.6-1.8,1.2-2.7,1.8c-1.8,1.2-3.5,2.3-5.2,3.5s-3.3,2.3-4.9,3.4c-3.2,2.2-6.1,4.3-8.8,6.3c-1.3,1-2.7,1.9-3.9,2.8 c-1.2,0.9-2.4,1.8-3.5,2.7c-2.2,1.7-4.2,3.1-5.9,4.5s-3.2,2.5-4.4,3.4c-2.4,1.8-3.7,2.8-3.7,2.8L267.9,103.2z" class="st2"/></g><path id="XMLID_145_" d="M801.5,384.5v0.1C801.5,384.6,801.5,384.6,801.5,384.5z" class="st3"/><path id="XMLID_115_" d="M613,507.5c2.5-28.3,27.1-37.1,29.4-42.1c0,0-31.6-1.3-48.3-9.7c-6.1,10.2-16.9,21.5-36.1,27.9	c1.7,3.3,2.8,6.8,3.2,10.8c4.6,47.7,5.7,39.5,4.8,39.6C584,508.6,612,507.6,613,507.5z" class="st4"/><g id="XMLID_147_"><path id="XMLID_310_" d="M308.8,371.4c0,0-0.3-0.4-0.8-1.3c-0.5-0.8-1.2-2.1-2-3.7c-1.6-3.2-3.7-7.9-5.5-13.7 c-0.9-2.9-1.9-6-2.7-9.4s-1.6-6.9-2-10.6c-0.2-1.9-0.4-3.8-0.5-5.7s-0.2-3.9-0.2-5.9c-0.1-2-0.1-4-0.2-6c0-2-0.1-4-0.2-6 c-0.2-4-0.2-8-0.4-12c-0.1-3.9,0-7.8,0-11.6c0-1.9,0.1-3.7,0.2-5.5s0.2-3.6,0.2-5.3c0.2-3.4,0.6-6.7,0.8-9.7 c0.1-1.5,0.3-2.9,0.5-4.3s0.4-2.7,0.5-3.9c0.2-1.2,0.3-2.3,0.5-3.4c0.2-1,0.4-2,0.6-2.9c0.7-3.4,1.1-5.4,1.1-5.4l1.4,0.2 c0,0,0,2-0.1,5.4c0,0.9,0,1.8,0,2.8s0.1,2.2,0.1,3.4c0.1,2.4,0.1,5.1,0.4,8c0.2,2.9,0.4,6.1,0.8,9.5s0.7,6.9,1.2,10.6 c0.2,1.8,0.5,3.7,0.7,5.6c0.3,1.9,0.5,3.8,0.8,5.7c0.6,3.8,1.1,7.7,1.7,11.6s1.4,7.7,2.2,11.5s1.6,7.5,2.2,11.2 c0.5,3.6,0.9,7.2,1,10.6c0.1,1.7,0.2,3.3,0.2,4.9s0.1,3.2,0.1,4.6c0.1,3,0,5.7-0.1,8.2s-0.3,4.6-0.5,6.4s-0.4,3.2-0.5,4.2 s-0.2,1.5-0.2,1.5L308.8,371.4z" class="st5"/></g><g id="XMLID_140_"><path id="XMLID_300_" d="M313.2,394.6c0,0-0.3-0.5-0.7-1.3c-0.4-0.9-1-2.2-1.7-3.9c-1.4-3.3-3.1-8.2-4.6-14.1 c-0.7-2.9-1.4-6.1-2-9.5s-1.1-7-1.3-10.7c-0.1-1.9-0.1-3.8-0.1-5.7s0.1-3.9,0.2-5.9s0.2-4,0.3-6s0.2-4,0.2-6c0.1-4,0.3-8,0.5-12 c0.1-3.9,0.6-7.8,0.9-11.6c0.1-1.9,0.4-3.7,0.6-5.5s0.4-3.6,0.6-5.3c0.5-3.4,1-6.7,1.5-9.6c0.2-1.5,0.5-2.9,0.8-4.2 s0.6-2.6,0.8-3.8c0.3-1.2,0.5-2.3,0.7-3.3c0.3-1,0.6-2,0.8-2.8c1-3.4,1.5-5.3,1.5-5.3l1.4,0.3c0,0-0.2,2-0.4,5.4 c-0.1,0.9-0.1,1.8-0.2,2.8s-0.1,2.2-0.1,3.4c-0.1,2.4-0.2,5.1-0.2,8c0,3,0,6.1,0.1,9.5c0.2,3.4,0.2,6.9,0.4,10.6 c0.1,1.8,0.2,3.7,0.3,5.6c0.1,1.9,0.2,3.8,0.4,5.7c0.3,3.9,0.5,7.8,0.9,11.7c0.3,3.9,0.8,7.8,1.4,11.7c0.5,3.8,1.1,7.6,1.4,11.3 c0.2,3.7,0.4,7.2,0.3,10.6c0,1.7-0.1,3.3-0.1,4.9c-0.1,1.6-0.1,3.1-0.3,4.6c-0.2,3-0.5,5.7-0.7,8.2c-0.3,2.4-0.6,4.6-0.9,6.4 s-0.6,3.2-0.8,4.1c-0.2,1-0.4,1.5-0.4,1.5L313.2,394.6z" class="st5"/></g><g id="XMLID_151_"><path id="XMLID_294_" d="M305.8,391.6c0,0-0.1-0.5-0.3-1.5s-0.3-2.4-0.5-4.2c-0.3-3.6-0.5-8.7-0.2-14.8 c0.2-3,0.5-6.3,0.9-9.7c0.5-3.4,1-7,2-10.6c0.5-1.8,1-3.7,1.6-5.5s1.3-3.7,1.9-5.6c0.7-1.9,1.3-3.7,2-5.6s1.4-3.8,2-5.7 c1.3-3.8,2.7-7.6,4-11.3s2.9-7.3,4.3-10.8c0.7-1.7,1.5-3.4,2.2-5.1s1.5-3.3,2.2-4.8c1.5-3.1,3-6,4.3-8.7c0.6-1.4,1.4-2.6,2.1-3.8 c0.7-1.2,1.3-2.3,1.9-3.4s1.1-2.1,1.7-3s1.1-1.7,1.6-2.4c1.9-2.9,3-4.6,3-4.6l1.2,0.7c0,0-0.7,1.8-2,5c-0.3,0.8-0.7,1.7-1.1,2.6 c-0.4,1-0.7,2-1.1,3.2c-0.8,2.3-1.7,4.8-2.6,7.6c-0.8,2.8-1.8,5.9-2.8,9.1c-0.8,3.3-1.9,6.7-2.8,10.3c-0.4,1.8-0.9,3.6-1.3,5.4 s-0.9,3.7-1.4,5.6c-0.9,3.8-1.8,7.6-2.6,11.4c-0.8,3.8-1.5,7.7-2.1,11.6c-0.6,3.8-1.2,7.6-2.1,11.2s-1.8,7-2.9,10.2 c-0.5,1.6-1.1,3.2-1.6,4.7c-0.6,1.5-1.1,3-1.6,4.4c-1,2.8-2.1,5.3-3.1,7.6c-1,2.2-1.9,4.2-2.8,5.8c-0.8,1.6-1.5,2.8-2,3.7 s-0.8,1.3-0.8,1.3L305.8,391.6z" class="st5"/></g><g id="XMLID_236_"><path id="XMLID_291_" d="M344.1,393.4c0,0-0.3-0.4-0.8-1.3c-0.5-0.8-1.2-2.1-2-3.7c-1.6-3.2-3.7-7.9-5.5-13.7 c-0.9-2.9-1.9-6-2.7-9.4s-1.6-6.9-2-10.6c-0.2-1.9-0.4-3.8-0.5-5.7s-0.2-3.9-0.2-5.9c-0.1-2-0.1-4-0.2-6c0-2-0.1-4-0.2-6 c-0.2-4-0.2-8-0.4-12c-0.1-3.9,0-7.8,0-11.6c0-1.9,0.1-3.7,0.2-5.5s0.2-3.6,0.2-5.3c0.2-3.4,0.6-6.7,0.8-9.7 c0.1-1.5,0.3-2.9,0.5-4.3s0.4-2.7,0.5-3.9c0.2-1.2,0.3-2.3,0.5-3.4c0.2-1,0.4-2,0.6-2.9c0.7-3.4,1.1-5.4,1.1-5.4l1.4,0.2 c0,0,0,2-0.1,5.4c0,0.9,0,1.8,0,2.8s0.1,2.2,0.1,3.4c0.1,2.4,0.1,5.1,0.4,8c0.2,2.9,0.4,6.1,0.8,9.5s0.7,6.9,1.2,10.6 c0.2,1.8,0.5,3.7,0.7,5.6c0.3,1.9,0.5,3.8,0.8,5.7c0.6,3.8,1.1,7.7,1.7,11.6s1.4,7.7,2.2,11.5s1.6,7.5,2.2,11.2 c0.5,3.6,0.9,7.2,1,10.6c0.1,1.7,0.2,3.3,0.2,4.9s0.1,3.2,0.1,4.6c0.1,3,0,5.7-0.1,8.2s-0.3,4.6-0.5,6.4s-0.4,3.2-0.5,4.2 s-0.2,1.5-0.2,1.5L344.1,393.4z" class="st5"/></g><g id="XMLID_229_"><path id="XMLID_288_" d="M348.8,396.8c0,0-0.2-0.3-0.6-0.9s-0.8-1.5-1.4-2.6c-1.1-2.2-2.3-5.5-3.2-9.4 c-0.5-2-0.8-4.1-1.1-6.4c-0.3-2.3-0.4-4.7-0.3-7.1c0.1-2.5,0.6-5,1.1-7.6c0.6-2.6,1.1-5.2,1.6-7.8s1-5.2,1.6-7.7s1.3-5,2-7.4 s1.4-4.7,2.2-6.8s1.6-4.2,2.4-6c0.4-0.9,0.8-1.8,1.2-2.6s0.8-1.6,1.2-2.3s0.7-1.4,1.1-2s0.7-1.2,1-1.7c0.6-1,1.1-1.7,1.5-2.2 s0.5-0.8,0.5-0.8l1.2,0.6c0,0-0.1,0.3-0.3,0.9c-0.2,0.6-0.5,1.4-0.7,2.5c-0.3,1.1-0.6,2.4-0.9,3.9c-0.2,0.7-0.3,1.6-0.5,2.4 c-0.1,0.9-0.3,1.7-0.4,2.7c-0.3,1.9-0.6,3.9-0.8,6.1c-0.2,2.2-0.4,4.4-0.6,6.8c-0.1,2.4-0.2,4.8-0.3,7.3s-0.2,5-0.2,7.5 s0.1,5.1,0.3,7.5c0.2,2.5,0.4,4.9,0.3,7.3s-0.3,4.6-0.7,6.8c-0.3,2.2-0.8,4.2-1.2,6.1c-0.9,3.8-2,7-3,9.2c-0.5,1.1-0.9,2-1.2,2.6 s-0.5,0.9-0.5,0.9L348.8,396.8z" class="st5"/></g><g id="XMLID_159_"><path id="XMLID_350_" d="M368.2,396.8c0,0-0.2-0.3-0.6-0.9s-0.8-1.5-1.4-2.6c-1.1-2.2-2.3-5.5-3.2-9.4 c-0.5-2-0.8-4.1-1.1-6.4c-0.3-2.3-0.4-4.7-0.3-7.1c0.1-2.5,0.6-5,1.1-7.6c0.6-2.6,1.1-5.2,1.6-7.8s1-5.2,1.6-7.7s1.3-5,2-7.4 s1.4-4.7,2.2-6.8s1.6-4.2,2.4-6c0.4-0.9,0.8-1.8,1.2-2.6s0.8-1.6,1.2-2.3s0.7-1.4,1.1-2s0.7-1.2,1-1.7c0.6-1,1.1-1.7,1.5-2.2 s0.5-0.8,0.5-0.8l1.2,0.6c0,0-0.1,0.3-0.3,0.9c-0.2,0.6-0.5,1.4-0.7,2.5c-0.3,1.1-0.6,2.4-0.9,3.9c-0.2,0.7-0.3,1.6-0.5,2.4 c-0.1,0.9-0.3,1.7-0.4,2.7c-0.3,1.9-0.6,3.9-0.8,6.1c-0.2,2.2-0.4,4.4-0.6,6.8c-0.1,2.4-0.2,4.8-0.3,7.3s-0.2,5-0.2,7.5 s0.1,5.1,0.3,7.5c0.2,2.5,0.4,4.9,0.3,7.3s-0.3,4.6-0.7,6.8c-0.3,2.2-0.8,4.2-1.2,6.1c-0.9,3.8-2,7-3,9.2c-0.5,1.1-0.9,2-1.2,2.6 s-0.5,0.9-0.5,0.9L368.2,396.8z" class="st5"/></g><g id="XMLID_259_"><path id="XMLID_286_" d="M383.9,451.9c0,0-0.3-0.5-0.7-1.3c-0.4-0.9-1-2.2-1.7-3.9c-1.4-3.3-3.1-8.2-4.6-14.1 c-0.7-2.9-1.4-6.1-2-9.5s-1.1-7-1.3-10.7c-0.1-1.9-0.1-3.8-0.1-5.7s0.1-3.9,0.2-5.9s0.2-4,0.3-6s0.2-4,0.2-6c0.1-4,0.3-8,0.5-12 c0.1-3.9,0.6-7.8,0.9-11.6c0.1-1.9,0.4-3.7,0.6-5.5s0.4-3.6,0.6-5.3c0.5-3.4,1-6.7,1.5-9.6c0.2-1.5,0.5-2.9,0.8-4.2 s0.6-2.6,0.8-3.8c0.3-1.2,0.5-2.3,0.7-3.3c0.3-1,0.6-2,0.8-2.8c1-3.4,1.5-5.3,1.5-5.3l1.4,0.3c0,0-0.2,2-0.4,5.4 c-0.1,0.9-0.1,1.8-0.2,2.8s-0.1,2.2-0.1,3.4c-0.1,2.4-0.2,5.1-0.2,8c0,3,0,6.1,0.1,9.5c0.2,3.4,0.2,6.9,0.4,10.6 c0.1,1.8,0.2,3.7,0.3,5.6c0.1,1.9,0.2,3.8,0.4,5.7c0.3,3.9,0.5,7.8,0.9,11.7c0.3,3.9,0.8,7.8,1.4,11.7c0.5,3.8,1.1,7.6,1.4,11.3 c0.2,3.7,0.4,7.2,0.3,10.6c0,1.7-0.1,3.3-0.1,4.9c-0.1,1.6-0.1,3.1-0.3,4.6c-0.2,3-0.5,5.7-0.7,8.2c-0.3,2.4-0.6,4.6-0.9,6.4 s-0.6,3.2-0.8,4.1c-0.2,1-0.4,1.5-0.4,1.5L383.9,451.9z" class="st5"/></g><g id="XMLID_251_"><path id="XMLID_283_" d="M393.6,458c0,0-0.2-0.5-0.6-1.4s-0.9-2.3-1.4-4c-1.1-3.4-2.4-8.4-3.4-14.4 c-0.5-3-0.9-6.2-1.2-9.7c-0.3-3.4-0.5-7.1-0.4-10.8c0.1-1.9,0.2-3.8,0.3-5.7c0.2-1.9,0.4-3.9,0.7-5.8c0.2-2,0.5-3.9,0.7-5.9 c0.3-2,0.5-4,0.7-6c0.4-4,1-8,1.5-11.9s1.2-7.8,1.8-11.5c0.3-1.9,0.7-3.7,1-5.5c0.4-1.8,0.7-3.5,1-5.2c0.7-3.4,1.6-6.5,2.3-9.5 c0.3-1.5,0.8-2.9,1.2-4.2s0.8-2.6,1.1-3.7c0.4-1.2,0.6-2.3,1-3.3s0.7-1.9,1-2.7c1.2-3.3,1.9-5.2,1.9-5.2l1.3,0.4c0,0-0.3,2-0.9,5.4 c-0.1,0.8-0.3,1.8-0.5,2.8s-0.3,2.2-0.4,3.3c-0.2,2.4-0.6,5.1-0.8,8c-0.2,3-0.5,6.1-0.7,9.5c-0.1,3.4-0.4,6.9-0.4,10.6 c0,1.8-0.1,3.7-0.1,5.6s-0.1,3.8-0.1,5.7c0,3.9-0.1,7.8,0,11.7c0,3.9,0.2,7.9,0.5,11.7c0.2,3.9,0.5,7.7,0.5,11.3 c-0.1,3.7-0.2,7.2-0.6,10.6c-0.1,1.7-0.3,3.3-0.5,4.9s-0.4,3.1-0.6,4.6c-0.4,3-0.9,5.7-1.4,8.1s-1,4.5-1.4,6.3 c-0.5,1.7-0.8,3.1-1.1,4.1c-0.3,0.9-0.5,1.4-0.5,1.4L393.6,458z" class="st5"/></g><g id="XMLID_225_"><path id="XMLID_281_" d="M403.6,420.6c0,0-0.2-0.3-0.6-0.9s-0.8-1.5-1.4-2.6c-1.1-2.2-2.3-5.5-3.2-9.4 c-0.5-2-0.8-4.1-1.1-6.4c-0.3-2.3-0.4-4.7-0.3-7.1c0.1-2.5,0.6-5,1.1-7.6c0.6-2.6,1.1-5.2,1.6-7.8s1-5.2,1.6-7.7s1.3-5,2-7.4 s1.4-4.7,2.2-6.8s1.6-4.2,2.4-6c0.4-0.9,0.8-1.8,1.2-2.6s0.8-1.6,1.2-2.3s0.7-1.4,1.1-2s0.7-1.2,1-1.7c0.6-1,1.1-1.7,1.5-2.2 s0.5-0.8,0.5-0.8l1.2,0.6c0,0-0.1,0.3-0.3,0.9c-0.2,0.6-0.5,1.4-0.7,2.5c-0.3,1.1-0.6,2.4-0.9,3.9c-0.2,0.7-0.3,1.6-0.5,2.4 c-0.1,0.9-0.3,1.7-0.4,2.7c-0.3,1.9-0.6,3.9-0.8,6.1c-0.2,2.2-0.4,4.4-0.6,6.8c-0.1,2.4-0.2,4.8-0.3,7.3s-0.2,5-0.2,7.5 s0.1,5.1,0.3,7.5c0.2,2.5,0.4,4.9,0.3,7.3s-0.3,4.6-0.7,6.8c-0.3,2.2-0.8,4.2-1.2,6.1c-0.9,3.8-2,7-3,9.2c-0.5,1.1-0.9,2-1.2,2.6 s-0.5,0.9-0.5,0.9L403.6,420.6z" class="st5"/></g><g id="XMLID_275_"><path id="XMLID_279_" d="M452.3,406.4c0,0-0.3-0.2-0.8-0.7s-1.2-1.2-2-2.1c-1.6-1.9-3.7-4.7-5.6-8.2 c-1-1.8-1.9-3.7-2.8-5.8c-0.9-2.1-1.6-4.4-2.2-6.8c-0.5-2.4-0.7-5-0.9-7.6c-0.1-2.6-0.3-5.3-0.5-7.9s-0.4-5.3-0.5-7.9 s-0.1-5.2-0.1-7.7s0.1-4.9,0.3-7.2s0.4-4.4,0.7-6.4c0.1-1,0.3-1.9,0.5-2.8s0.3-1.7,0.5-2.5s0.3-1.5,0.5-2.2s0.4-1.3,0.5-1.9 c0.3-1.1,0.6-2,0.8-2.6s0.3-0.9,0.3-0.9l1.4,0.3c0,0,0,0.3,0,0.9s-0.1,1.5,0,2.6c0,1.1,0,2.5,0.1,4c0,0.8,0.1,1.6,0.2,2.4 c0.1,0.9,0.2,1.8,0.3,2.7c0.2,1.9,0.5,3.9,0.9,6s0.8,4.4,1.3,6.7s1,4.7,1.6,7.1s1.2,4.9,1.8,7.3c0.6,2.4,1.5,4.8,2.3,7.2 c0.9,2.3,1.7,4.7,2.3,6.9c0.6,2.3,0.9,4.5,1.1,6.7s0.4,4.3,0.4,6.2c0.1,3.9-0.1,7.3-0.4,9.7c-0.2,1.2-0.3,2.2-0.5,2.9 c-0.1,0.7-0.2,1-0.2,1L452.3,406.4z" class="st5"/></g><g id="XMLID_272_"><path id="XMLID_277_" d="M482.1,455.4c0,0-0.4-0.4-1-1.1c-0.7-0.7-1.6-1.8-2.7-3.3c-2.2-2.9-5.1-7.1-8.1-12.3 c-1.5-2.6-3-5.5-4.5-8.7c-1.5-3.1-2.9-6.5-4.1-10c-0.6-1.8-1.1-3.6-1.6-5.5s-0.9-3.8-1.4-5.7c-0.4-1.9-0.9-3.9-1.3-5.8 c-0.4-2-0.9-3.9-1.4-5.9c-1-3.9-1.8-7.8-2.7-11.7c-0.9-3.8-1.5-7.7-2.2-11.4c-0.4-1.8-0.6-3.7-0.9-5.5s-0.5-3.5-0.8-5.2 c-0.5-3.4-0.8-6.7-1.1-9.7c-0.2-1.5-0.2-2.9-0.3-4.3c-0.1-1.4-0.2-2.7-0.2-3.9c-0.1-1.2-0.2-2.4-0.2-3.4c0-1.1,0-2,0-2.9 c0-3.5,0.1-5.5,0.1-5.5l1.4-0.1c0,0,0.4,1.9,1,5.3c0.2,0.8,0.3,1.8,0.5,2.8s0.5,2.1,0.8,3.3c0.6,2.3,1.1,5,1.9,7.8s1.6,5.9,2.6,9.2 c1.1,3.2,2,6.6,3.2,10.1c0.6,1.7,1.2,3.5,1.8,5.3c0.6,1.8,1.2,3.6,1.9,5.4c1.3,3.6,2.6,7.4,4,11c1.4,3.7,2.9,7.3,4.5,10.9 c1.5,3.6,3.1,7,4.3,10.5c1.2,3.5,2.3,6.9,3.1,10.2c0.4,1.6,0.8,3.2,1.2,4.8c0.3,1.6,0.7,3.1,1,4.5c0.6,2.9,1.1,5.6,1.5,8.1 c0.4,2.4,0.6,4.6,0.8,6.4c0.2,1.8,0.3,3.2,0.3,4.2s0.1,1.5,0.1,1.5L482.1,455.4z" class="st5"/></g><g id="XMLID_267_"><path id="XMLID_274_" d="M474.1,425.1c0,0-0.3-0.2-0.8-0.7s-1.2-1.2-2-2.1c-1.6-1.9-3.7-4.7-5.6-8.2 c-1-1.8-1.9-3.7-2.8-5.8s-1.6-4.4-2.2-6.8c-0.5-2.4-0.7-5-0.9-7.6c-0.1-2.6-0.3-5.3-0.5-7.9s-0.4-5.3-0.5-7.9s-0.1-5.2-0.1-7.7 s0.1-4.9,0.3-7.2c0.2-2.3,0.4-4.4,0.7-6.4c0.1-1,0.3-1.9,0.5-2.8s0.3-1.7,0.5-2.5s0.3-1.5,0.5-2.2s0.4-1.3,0.5-1.9 c0.3-1.1,0.6-2,0.8-2.6c0.2-0.6,0.3-0.9,0.3-0.9l1.4,0.3c0,0,0,0.3,0,0.9s-0.1,1.5,0,2.6c0,1.1,0,2.5,0.1,4c0,0.8,0.1,1.6,0.2,2.4 c0.1,0.9,0.2,1.8,0.3,2.7c0.2,1.9,0.5,3.9,0.9,6s0.8,4.4,1.3,6.7s1,4.7,1.6,7.1s1.2,4.9,1.8,7.3c0.6,2.4,1.5,4.8,2.3,7.2 c0.9,2.3,1.7,4.7,2.3,6.9c0.6,2.3,0.9,4.5,1.1,6.7s0.4,4.3,0.4,6.2c0.1,3.9-0.1,7.3-0.4,9.7c-0.2,1.2-0.3,2.2-0.5,2.9 c-0.1,0.7-0.2,1-0.2,1L474.1,425.1z" class="st5"/></g><g id="XMLID_264_"><path id="XMLID_270_" d="M493.1,458.7c0,0-0.4-0.4-0.9-1.2c-0.6-0.8-1.4-2-2.4-3.5c-2-3-4.6-7.5-7.1-13 c-1.3-2.7-2.5-5.8-3.8-9c-1.2-3.2-2.4-6.7-3.3-10.3c-0.4-1.8-0.8-3.7-1.2-5.6c-0.4-1.9-0.6-3.9-0.9-5.8c-0.3-2-0.6-3.9-0.9-5.9 s-0.6-4-0.9-5.9c-0.7-3.9-1.2-7.9-1.8-11.8c-0.6-3.9-0.9-7.8-1.3-11.5c-0.2-1.9-0.3-3.7-0.5-5.5c-0.1-1.8-0.3-3.6-0.4-5.3 c-0.2-3.4-0.2-6.7-0.3-9.7c-0.1-1.5,0-3,0-4.3c0-1.4,0.1-2.7,0.1-3.9s0-2.4,0.1-3.4c0.1-1.1,0.2-2,0.3-2.9c0.3-3.5,0.5-5.5,0.5-5.5 h1.4c0,0,0.2,2,0.6,5.4c0.1,0.9,0.2,1.8,0.3,2.8c0.1,1,0.3,2.1,0.5,3.3c0.4,2.4,0.7,5,1.3,7.9c0.6,2.9,1.1,6,1.9,9.3 s1.5,6.8,2.4,10.3c0.5,1.8,0.9,3.6,1.4,5.4s0.9,3.7,1.4,5.6c1,3.7,2,7.5,3.1,11.3s2.3,7.5,3.6,11.2c1.2,3.7,2.5,7.3,3.5,10.8 c0.9,3.6,1.7,7,2.2,10.4c0.3,1.7,0.6,3.3,0.8,4.9c0.2,1.6,0.5,3.1,0.6,4.6c0.4,3,0.6,5.7,0.8,8.2c0.2,2.5,0.3,4.6,0.3,6.4 s0,3.2,0,4.2s-0.1,1.5-0.1,1.5L493.1,458.7z" class="st5"/></g><g id="XMLID_261_"><path id="XMLID_268_" d="M492.8,420c0,0-0.3-0.2-0.8-0.7s-1.2-1.2-2-2.1c-1.6-1.9-3.7-4.7-5.6-8.2 c-1-1.8-1.9-3.7-2.8-5.8s-1.6-4.4-2.2-6.8c-0.5-2.4-0.7-5-0.9-7.6c-0.1-2.6-0.3-5.3-0.5-7.9s-0.4-5.3-0.5-7.9s-0.1-5.2-0.1-7.7 s0.1-4.9,0.3-7.2c0.2-2.3,0.4-4.4,0.7-6.4c0.1-1,0.3-1.9,0.5-2.8s0.3-1.7,0.5-2.5s0.3-1.5,0.5-2.2s0.4-1.3,0.5-1.9 c0.3-1.1,0.6-2,0.8-2.6c0.2-0.6,0.3-0.9,0.3-0.9l1.4,0.3c0,0,0,0.3,0,0.9s-0.1,1.5,0,2.6c0,1.1,0,2.5,0.1,4c0,0.8,0.1,1.6,0.2,2.4 c0.1,0.9,0.2,1.8,0.3,2.7c0.2,1.9,0.5,3.9,0.9,6s0.8,4.4,1.3,6.7s1,4.7,1.6,7.1s1.2,4.9,1.8,7.3c0.6,2.4,1.5,4.8,2.3,7.2 c0.9,2.3,1.7,4.7,2.3,6.9c0.6,2.3,0.9,4.5,1.1,6.7s0.4,4.3,0.4,6.2c0.1,3.9-0.1,7.3-0.4,9.7c-0.2,1.2-0.3,2.2-0.5,2.9 c-0.1,0.7-0.2,1-0.2,1L492.8,420z" class="st5"/></g><g id="XMLID_263_"><path id="XMLID_262_" d="M427.4,453c0,0-0.3-0.5-0.7-1.4s-1-2.2-1.7-3.9c-1.4-3.4-3.1-8.2-4.5-14.1 c-0.7-2.9-1.4-6.1-2-9.5s-1.1-7-1.2-10.8c-0.1-1.9-0.1-3.8-0.1-5.7s0.1-3.9,0.2-5.9s0.2-4,0.3-6s0.2-4,0.3-6c0.1-4,0.3-8,0.5-12 c0.2-3.9,0.6-7.8,0.9-11.6c0.1-1.9,0.4-3.7,0.6-5.5s0.4-3.6,0.6-5.3c0.5-3.4,1.1-6.6,1.5-9.6c0.2-1.5,0.6-2.9,0.8-4.2 c0.3-1.3,0.6-2.6,0.8-3.8c0.3-1.2,0.5-2.3,0.8-3.3s0.6-2,0.8-2.8c1-3.4,1.5-5.3,1.5-5.3l1.4,0.3c0,0-0.2,2-0.5,5.4 c-0.1,0.9-0.2,1.8-0.2,2.8c-0.1,1-0.1,2.2-0.2,3.4c-0.1,2.4-0.2,5.1-0.2,8c0,3,0,6.1,0.1,9.5c0.2,3.4,0.2,6.9,0.4,10.6 c0.1,1.8,0.2,3.7,0.3,5.6c0.1,1.9,0.2,3.8,0.3,5.7c0.3,3.9,0.5,7.8,0.9,11.7c0.3,3.9,0.8,7.8,1.4,11.7c0.5,3.8,1.1,7.6,1.3,11.3 s0.3,7.2,0.2,10.6c0,1.7-0.1,3.3-0.1,4.9c-0.1,1.6-0.2,3.1-0.3,4.6c-0.2,3-0.5,5.7-0.8,8.2c-0.3,2.4-0.6,4.6-0.9,6.4 s-0.6,3.2-0.8,4.1c-0.2,1-0.4,1.5-0.4,1.5L427.4,453z" class="st5"/></g><g id="XMLID_152_"><path id="XMLID_257_" d="M432.8,218.4c0,0-0.2,0.3-0.6,0.9c-0.4,0.6-1,1.3-1.7,2.3c-1.5,1.9-3.8,4.4-6.7,7 c-0.7,0.7-1.5,1.3-2.3,2c-0.8,0.6-1.6,1.3-2.5,2c-1.7,1.4-3.6,2.7-5.7,3.9s-4.3,2.2-6.6,3.2s-4.6,2.1-6.9,3.2 c-2.2,1.2-4.5,2.4-6.7,3.6c-2.1,1.3-4.3,2.4-6.4,3.6c-2.1,1.2-4,2.4-5.9,3.5c-1.9,1.2-3.6,2.3-5.2,3.3c-1.6,1.1-3,2.1-4.3,2.9 c-0.7,0.4-1.3,0.9-1.8,1.3s-1,0.8-1.5,1.1c-1.8,1.3-2.9,2.1-2.9,2.1l-1-1c0,0,0.8-1.1,2.1-2.9c0.7-0.9,1.5-2.1,2.6-3.3 c1-1.2,2.2-2.6,3.5-4.1c1.4-1.4,2.8-3,4.4-4.6s3.4-3.2,5.1-5c1.8-1.7,3.7-3.4,5.7-5.1c2-1.7,4.1-3.3,6.1-5c2.1-1.6,4.1-3.4,6.1-5 c1-0.8,2-1.7,3-2.4c1-0.8,2.1-1.5,3.1-2.1c2.1-1.3,4.3-2.3,6.4-3.1c2.1-0.9,4.2-1.5,6.1-2.1c3.9-1.1,7.3-1.5,9.8-1.7 c1.2-0.1,2.2-0.1,2.9,0c0.7,0,1.1,0.1,1.1,0.1L432.8,218.4z" class="st5"/></g><g id="XMLID_149_"><path id="XMLID_253_" d="M457.6,218.4c0,0-0.2,0.3-0.6,0.9c-0.4,0.6-1,1.3-1.7,2.3c-1.5,1.9-3.8,4.4-6.7,7 c-0.7,0.7-1.5,1.3-2.3,2c-0.8,0.6-1.6,1.3-2.5,2c-1.7,1.4-3.6,2.7-5.7,3.9s-4.3,2.2-6.6,3.2s-4.6,2.1-6.9,3.2 c-2.2,1.2-4.5,2.4-6.7,3.6c-2.1,1.3-4.3,2.4-6.4,3.6c-2.1,1.2-4,2.4-5.9,3.5c-1.9,1.2-3.6,2.3-5.2,3.3c-1.6,1.1-3,2.1-4.3,2.9 c-0.7,0.4-1.3,0.9-1.8,1.3s-1,0.8-1.5,1.1c-1.8,1.3-2.9,2.1-2.9,2.1l-1-1c0,0,0.8-1.1,2.1-2.9c0.7-0.9,1.5-2.1,2.6-3.3 c1-1.2,2.2-2.6,3.5-4.1c1.4-1.4,2.8-3,4.4-4.6s3.4-3.2,5.1-5c1.8-1.7,3.7-3.4,5.7-5.1c2-1.7,4.1-3.3,6.1-5c2.1-1.6,4.1-3.4,6.1-5 c1-0.8,2-1.7,3-2.4c1-0.8,2.1-1.5,3.1-2.1c2.1-1.3,4.3-2.3,6.4-3.1c2.1-0.9,4.2-1.5,6.1-2.1c3.9-1.1,7.3-1.5,9.8-1.7 c1.2-0.1,2.2-0.1,2.9,0c0.7,0,1.1,0.1,1.1,0.1L457.6,218.4z" class="st5"/></g><g id="XMLID_155_"><path id="XMLID_244_" d="M456.2,228.4c0,0-0.2,0.3-0.6,0.9c-0.4,0.6-1,1.3-1.7,2.3c-1.5,1.9-3.8,4.4-6.7,7 c-0.7,0.7-1.5,1.3-2.3,2c-0.8,0.6-1.6,1.3-2.5,2c-1.7,1.4-3.6,2.7-5.7,3.9s-4.3,2.2-6.6,3.2s-4.6,2.1-6.9,3.2 c-2.2,1.2-4.5,2.4-6.7,3.6c-2.1,1.3-4.3,2.4-6.4,3.6s-4,2.4-5.9,3.5c-1.9,1.2-3.6,2.3-5.2,3.3c-1.6,1.1-3,2.1-4.3,2.9 c-0.7,0.4-1.3,0.9-1.8,1.3s-1,0.8-1.5,1.1c-1.8,1.3-2.9,2.1-2.9,2.1l-1-1c0,0,0.8-1.1,2.1-2.9c0.7-0.9,1.5-2.1,2.6-3.3 c1-1.2,2.2-2.6,3.5-4.1c1.4-1.4,2.8-3,4.4-4.6s3.4-3.2,5.1-5c1.8-1.7,3.7-3.4,5.7-5.1c2-1.7,4.1-3.3,6.1-5c2.1-1.6,4.1-3.4,6.1-5 c1-0.8,2-1.7,3-2.4c1-0.8,2.1-1.5,3.1-2.1c2.1-1.3,4.3-2.3,6.4-3.1c2.1-0.9,4.2-1.5,6.1-2.1c3.9-1.1,7.3-1.5,9.8-1.7 c1.2-0.1,2.2-0.1,2.9,0c0.7,0,1.1,0.1,1.1,0.1L456.2,228.4z" class="st5"/></g><g id="XMLID_222_"><path id="XMLID_242_" d="M471.7,236.5c0,0-0.2,0.3-0.6,0.9c-0.4,0.6-1,1.3-1.7,2.3c-1.5,1.9-3.8,4.4-6.7,7 c-0.7,0.7-1.5,1.3-2.3,2c-0.8,0.6-1.6,1.3-2.5,2c-1.7,1.4-3.6,2.7-5.7,3.9s-4.3,2.2-6.6,3.2s-4.6,2.1-6.9,3.2 c-2.2,1.2-4.5,2.4-6.7,3.6c-2.1,1.3-4.3,2.4-6.4,3.6s-4,2.4-5.9,3.5c-1.9,1.2-3.6,2.3-5.2,3.3c-1.6,1.1-3,2.1-4.3,2.9 c-0.7,0.4-1.3,0.9-1.8,1.3s-1,0.8-1.5,1.1c-1.8,1.3-2.9,2.1-2.9,2.1l-1-1c0,0,0.8-1.1,2.1-2.9c0.7-0.9,1.5-2.1,2.6-3.3 c1-1.2,2.2-2.6,3.5-4.1c1.4-1.4,2.8-3,4.4-4.6s3.4-3.2,5.1-5c1.8-1.7,3.7-3.4,5.7-5.1c2-1.7,4.1-3.3,6.1-5c2.1-1.6,4.1-3.4,6.1-5 c1-0.8,2-1.7,3-2.4c1-0.8,2.1-1.5,3.1-2.1c2.1-1.3,4.3-2.3,6.4-3.1c2.1-0.9,4.2-1.5,6.1-2.1c3.9-1.1,7.3-1.5,9.8-1.7 c1.2-0.1,2.2-0.1,2.9,0c0.7,0,1.1,0.1,1.1,0.1L471.7,236.5z" class="st5"/></g><g id="XMLID_254_"><path id="XMLID_238_" d="M496.6,235.4c0,0-0.2,0.3-0.6,0.9c-0.4,0.6-1,1.3-1.7,2.3c-1.5,1.9-3.8,4.4-6.7,7 c-0.7,0.7-1.5,1.3-2.3,2c-0.8,0.6-1.6,1.3-2.5,2c-1.7,1.4-3.6,2.7-5.7,3.9s-4.3,2.2-6.6,3.2c-2.3,1-4.6,2.1-6.9,3.2 c-2.2,1.2-4.5,2.4-6.7,3.6c-2.1,1.3-4.3,2.4-6.4,3.6s-4,2.4-5.9,3.5c-1.9,1.2-3.6,2.3-5.2,3.3c-1.6,1.1-3,2.1-4.3,2.9 c-0.7,0.4-1.3,0.9-1.8,1.3s-1,0.8-1.5,1.1c-1.8,1.3-2.9,2.1-2.9,2.1l-1-1c0,0,0.8-1.1,2.1-2.9c0.7-0.9,1.5-2.1,2.6-3.3 c1-1.2,2.2-2.6,3.5-4.1c1.4-1.4,2.8-3,4.4-4.6s3.4-3.2,5.1-5c1.8-1.7,3.7-3.4,5.7-5.1c2-1.7,4.1-3.3,6.1-5c2.1-1.6,4.1-3.4,6.1-5 c1-0.8,2-1.7,3-2.4c1-0.8,2.1-1.5,3.1-2.1c2.1-1.3,4.3-2.3,6.4-3.1c2.1-0.9,4.2-1.5,6.1-2.1c3.9-1.1,7.3-1.5,9.8-1.7 c1.2-0.1,2.2-0.1,2.9,0c0.7,0,1.1,0.1,1.1,0.1L496.6,235.4z" class="st5"/></g><g id="XMLID_255_"><path id="XMLID_235_" d="M505.7,245.7c0,0-0.2,0.3-0.6,0.9c-0.4,0.6-1,1.3-1.7,2.3c-1.5,1.9-3.8,4.4-6.7,7 c-0.7,0.7-1.5,1.3-2.3,2c-0.8,0.6-1.6,1.3-2.5,2c-1.7,1.4-3.6,2.7-5.7,3.9s-4.3,2.2-6.6,3.2c-2.3,1-4.6,2.1-6.9,3.2 c-2.2,1.2-4.5,2.4-6.7,3.6c-2.1,1.3-4.3,2.4-6.4,3.6s-4,2.4-5.9,3.5c-1.9,1.2-3.6,2.3-5.2,3.3c-1.6,1.1-3,2.1-4.3,2.9 c-0.7,0.4-1.3,0.9-1.8,1.3s-1,0.8-1.5,1.1c-1.8,1.3-2.9,2.1-2.9,2.1l-1-1c0,0,0.8-1.1,2.1-2.9c0.7-0.9,1.5-2.1,2.6-3.3 c1-1.2,2.2-2.6,3.5-4.1c1.4-1.4,2.8-3,4.4-4.6s3.4-3.2,5.1-5c1.8-1.7,3.7-3.4,5.7-5.1s4.1-3.3,6.1-5c2.1-1.6,4.1-3.4,6.1-5 c1-0.8,2-1.7,3-2.4c1-0.8,2.1-1.5,3.1-2.1c2.1-1.3,4.3-2.3,6.4-3.1c2.1-0.9,4.2-1.5,6.1-2.1c3.9-1.1,7.3-1.5,9.8-1.7 c1.2-0.1,2.2-0.1,2.9,0c0.7,0,1.1,0.1,1.1,0.1L505.7,245.7z" class="st5"/></g><g id="XMLID_265_"><path id="XMLID_232_" d="M521.5,241.5c0,0-0.2,0.3-0.6,0.9c-0.4,0.6-1,1.3-1.7,2.3c-1.5,1.9-3.8,4.4-6.7,7 c-0.7,0.7-1.5,1.3-2.3,2c-0.8,0.6-1.6,1.3-2.5,2c-1.7,1.4-3.6,2.7-5.7,3.9s-4.3,2.2-6.6,3.2c-2.3,1-4.6,2.1-6.9,3.2 c-2.2,1.2-4.5,2.4-6.7,3.6c-2.1,1.3-4.3,2.4-6.4,3.6s-4,2.4-5.9,3.5c-1.9,1.2-3.6,2.3-5.2,3.3c-1.6,1.1-3,2.1-4.3,2.9 c-0.7,0.4-1.3,0.9-1.8,1.3s-1,0.8-1.5,1.1c-1.8,1.3-2.9,2.1-2.9,2.1l-1-1c0,0,0.8-1.1,2.1-2.9c0.7-0.9,1.5-2.1,2.6-3.3 c1-1.2,2.2-2.6,3.5-4.1c1.4-1.4,2.8-3,4.4-4.6s3.4-3.2,5.1-5c1.8-1.7,3.7-3.4,5.7-5.1s4.1-3.3,6.1-5c2.1-1.6,4.1-3.4,6.1-5 c1-0.8,2-1.7,3-2.4c1-0.8,2.1-1.5,3.1-2.1c2.1-1.3,4.3-2.3,6.4-3.1c2.1-0.9,4.2-1.5,6.1-2.1c3.9-1.1,7.3-1.5,9.8-1.7 c1.2-0.1,2.2-0.1,2.9,0c0.7,0,1.1,0.1,1.1,0.1L521.5,241.5z" class="st5"/></g><g id="XMLID_271_"><path id="XMLID_230_" d="M517.1,254.6c0,0-0.2,0.3-0.6,0.9c-0.4,0.6-1,1.3-1.7,2.3c-1.5,1.9-3.8,4.4-6.7,7 c-0.7,0.7-1.5,1.3-2.3,2c-0.8,0.6-1.6,1.3-2.5,2c-1.7,1.4-3.6,2.7-5.7,3.9s-4.3,2.2-6.6,3.2c-2.3,1-4.6,2.1-6.9,3.2 c-2.2,1.2-4.5,2.4-6.7,3.6c-2.1,1.3-4.3,2.4-6.4,3.6s-4,2.4-5.9,3.5c-1.9,1.2-3.6,2.3-5.2,3.3c-1.6,1.1-3,2.1-4.3,2.9 c-0.7,0.4-1.3,0.9-1.8,1.3s-1,0.8-1.5,1.1c-1.8,1.3-2.9,2.1-2.9,2.1l-1-1c0,0,0.8-1.1,2.1-2.9c0.7-0.9,1.5-2.1,2.6-3.3 c1-1.2,2.2-2.6,3.5-4.1c1.4-1.4,2.8-3,4.4-4.6s3.4-3.2,5.1-5c1.8-1.7,3.7-3.4,5.7-5.1s4.1-3.3,6.1-5c2.1-1.6,4.1-3.4,6.1-5 c1-0.8,2-1.7,3-2.4c1-0.8,2.1-1.5,3.1-2.1c2.1-1.3,4.3-2.3,6.4-3.1c2.1-0.9,4.2-1.5,6.1-2.1c3.9-1.1,7.3-1.5,9.8-1.7 c1.2-0.1,2.2-0.1,2.9,0c0.7,0,1.1,0.1,1.1,0.1L517.1,254.6z" class="st5"/></g><g id="XMLID_284_"><path id="XMLID_227_" d="M527.6,268.8c0,0-0.2,0.3-0.6,0.9c-0.4,0.6-1,1.3-1.7,2.3c-1.5,1.9-3.8,4.4-6.7,7 c-0.7,0.7-1.5,1.3-2.3,2c-0.8,0.6-1.6,1.3-2.5,2c-1.7,1.4-3.6,2.7-5.7,3.9s-4.3,2.2-6.6,3.2c-2.3,1-4.6,2.1-6.9,3.2 c-2.2,1.2-4.5,2.4-6.7,3.6c-2.1,1.3-4.3,2.4-6.4,3.6s-4,2.4-5.9,3.5c-1.9,1.2-3.6,2.3-5.2,3.3c-1.6,1.1-3,2.1-4.3,2.9 c-0.7,0.4-1.3,0.9-1.8,1.3s-1,0.8-1.5,1.1c-1.8,1.3-2.9,2.1-2.9,2.1l-1-1c0,0,0.8-1.1,2.1-2.9c0.7-0.9,1.5-2.1,2.6-3.3 c1-1.2,2.2-2.6,3.5-4.1c1.4-1.4,2.8-3,4.4-4.6s3.4-3.2,5.1-5c1.8-1.7,3.7-3.4,5.7-5.1s4.1-3.3,6.1-5c2.1-1.6,4.1-3.4,6.1-5 c1-0.8,2-1.7,3-2.4c1-0.8,2.1-1.5,3.1-2.1c2.1-1.3,4.3-2.3,6.4-3.1c2.1-0.9,4.2-1.5,6.1-2.1c3.9-1.1,7.3-1.5,9.8-1.7 c1.2-0.1,2.2-0.1,2.9,0c0.7,0,1.1,0.1,1.1,0.1L527.6,268.8z" class="st5"/></g><g id="XMLID_289_"><path id="XMLID_224_" d="M541.6,277.7c0,0-0.2,0.3-0.6,0.9c-0.4,0.6-1,1.3-1.7,2.3c-1.5,1.9-3.8,4.4-6.7,7 c-0.7,0.7-1.5,1.3-2.3,2c-0.8,0.6-1.6,1.3-2.5,2c-1.7,1.4-3.6,2.7-5.7,3.9s-4.3,2.2-6.6,3.2s-4.6,2.1-6.9,3.2 c-2.2,1.2-4.5,2.4-6.7,3.6c-2.1,1.3-4.3,2.4-6.4,3.6s-4,2.4-5.9,3.5c-1.9,1.2-3.6,2.3-5.2,3.3c-1.6,1.1-3,2.1-4.3,2.9 c-0.7,0.4-1.3,0.9-1.8,1.3s-1,0.8-1.5,1.1c-1.8,1.3-2.9,2.1-2.9,2.1l-1-1c0,0,0.8-1.1,2.1-2.9c0.7-0.9,1.5-2.1,2.6-3.3 c1-1.2,2.2-2.6,3.5-4.1c1.4-1.4,2.8-3,4.4-4.6s3.4-3.2,5.1-5c1.8-1.7,3.7-3.4,5.7-5.1s4.1-3.3,6.1-5c2.1-1.6,4.1-3.4,6.1-5 c1-0.8,2-1.7,3-2.4c1-0.8,2.1-1.5,3.1-2.1c2.1-1.3,4.3-2.3,6.4-3.1c2.1-0.9,4.2-1.5,6.1-2.1c3.9-1.1,7.3-1.5,9.8-1.7 c1.2-0.1,2.2-0.1,2.9,0c0.7,0,1.1,0.1,1.1,0.1L541.6,277.7z" class="st5"/></g><path d="M598.3,191.3c0,0-27.7,42.7-35,72.2c6.9,2.2,14.4,5.5,21.9,10.3c6.3-14.2,13.9-29.7,22.5-44.5	C601.5,213.2,599.1,198.8,598.3,191.3z" class="st6"/><path d="M620.3,310.6c4.5-3.9,10.1-6.2,15.9-9c11.3-5.4,20.1-11.5,21.8-11.3c-27-15-42.1-39.5-50.4-61.1	c-8.6,14.8-16.1,30.3-22.5,44.5C597.4,281.5,609.7,293.2,620.3,310.6z" class="st4"/><path d="M440.4,509.9C621.5,543.8,643.5,384,707.8,364.3c-4.1-31.6-18.3-51.6-32.3-63.9c-6.4,8.3-15.1,12.1-26.9,7.1	c-35.5-15.3-41.1-55.1-79.3-83.1C582.7,418.1,435.2,453,341.7,455.9C363.4,480.6,394.8,501.4,440.4,509.9z" class="st7"/><path d="M693.2,218c0,0,0.2,59-17.7,82.4c3.8,3.4,7.6,7.3,11.2,11.8c10-11.2,20.9-27.9,29.7-52.7	C700.4,242.3,695.4,223.7,693.2,218z" class="st6"/><path d="M725.4,362.5c40.8-3,67.1,8.4,73.2,12.3c-42.3-37.2-43.5-67.7-37.7-88.4c-20.4-6.1-34.6-16.2-44.5-26.9	c-8.8,24.8-19.7,41.5-29.7,52.7c9.7,12.3,18.1,29.1,21.1,52.1C713.3,362.6,719.1,363,725.4,362.5z" class="st4"/><path d="M798.6,374.8c0.5,0.4,0.9,0.8,1.4,1.2C800,375.8,799.5,375.4,798.6,374.8z" class="st6"/><path d="M293.8,325.6c0,0-0.2,10.8,2,27.4c19.9,18.3,39.8,30.5,59.1,38.3c9.8-2.9,20.3-6.7,31-11.4	C356.7,376.1,324.7,361.3,293.8,325.6z" class="st7"/><path d="M413.9,217.7c-7.5,5-11.5,8.9-11.5,8.9c45.6,27.6,67.5,57.2,78.9,80.3c5.4-6.8,10.5-14.1,15.4-21.9	C472.2,257.7,440,235.6,413.9,217.7z" class="st7"/><path d="M533.4,356.4c-3.9-27.1-18.1-50.7-36.7-71.4c-4.9,7.8-10.1,15.1-15.4,21.9c10.7,21.8,12,37.6,14.9,40.2	c-4.8,3.6-51.9,40.3-110.3,32.8c-10.7,4.7-21.2,8.4-31,11.4C451.3,430,533.4,356.4,533.4,356.4z" class="st8"/><path d="M658,290.3c0.1,0.1,0.2,0.1,0.3,0.2C658.3,290.4,658.2,290.3,658,290.3z" class="st8"/><path d="M569.3,224.4c-10.1-7.4-22.5-14-38.3-19c-57.3-18.3-98.4,0.3-117.1,12.3c45.8,30.6,91.3,75.6,100.3,136.7	c0,0-99.1,100.8-218.4-5.4c3.8,27.5,14.8,71.3,45.9,106.9C435.2,453,582.7,418.1,569.3,224.4z" class="st2"/><ellipse id="XMLID_260_" cx="489.6" cy="238.8" class="st7" rx="22" ry="14.8" transform="matrix(-5.878981e-002 0.9983 -0.9983 -5.878981e-002 756.7947 -235.8638)"/><ellipse id="XMLID_126_" cx="487.6" cy="235.8" class="st9" rx="18.1" ry="12.1" transform="matrix(-5.878981e-002 0.9983 -0.9983 -5.878981e-002 751.6826 -237.0431)"/><circle id="XMLID_125_" cx="488.8" cy="227.3" r="4.6" class="st10"/></svg>