<svg xmlns="http://www.w3.org/2000/svg" id="Layer_1" data-name="Layer 1" viewBox="0 0 778.68 334.62"><defs><style>.cls-1{fill:#504a40}.cls-2{fill:#898277}.cls-3{fill:#b8ae9c}.cls-4{fill:#988e84}.cls-5{fill:#c1b6a5}.cls-6{fill:#ab9f91}.cls-7{fill:#706966}.cls-8{fill:#5a534a}.cls-9{fill:#c6bdb1}.cls-10{fill:#676058}.cls-11{fill:#a19690}.cls-12{fill:#635c52}.cls-13{fill:#484139}.cls-14{fill:#817b71}</style></defs><title>Untitled-1</title><path d="M139.62,301.62q-21.43,4.45-42.86,8.94a12.71,12.71,0,0,0-2.21.91h-27l11-19.51c1.52-1.83,3-3.68,3.25-6.18l1.74-1.31,2-1c10.35-5.4,20.73-10.74,31-16.27a13.46,13.46,0,0,1,7-1.91l9,.05c1.27,3.74-.34,6.36-2.92,8.67-1.68-.84-.62-4.41-3.12-3.1-2.09,1.09-.72,3.35.37,4.71,1.53,1.9,3.08,3.82,5.54,4.78s4.58,2.44,1.78,5.41c-1,1.07-.52,2.24.48,3C138.87,292.15,138.48,297.18,139.62,301.62Z" class="cls-1"/><path d="M78.56,292l-11,19.51h-1c-.25-2-1.89-3-3.25-4.18-14-12.22-28-24.55-42.2-36.56-3.12-2.63-4.28-5.21-3.26-9,.94-3.51.94-7.24,2.51-10.6l3.1.42,0,0c.75,2.57,2.83,2.89,5,3h0a1.49,1.49,0,0,0,2,1h0c0,2,1.81,2.18,3,2.92,13.42,8.22,26.82,16.49,40.33,24.57C77.41,285.14,79.16,287.83,78.56,292Z" class="cls-2"/><path d="M125.53,153.07c4.57-3.43,10.21-3.29,15.41-4.41,23.16-4.95,46.38-9.64,69.57-14.45.43-.09.78-.57,1.17-.86l14.81-2.9c7.57,1.14,15.28.39,22.82,1.18,17.94,1.9,36,2.51,53.95,3.5,16.36.9,32.75,1.91,49.15,2.56,6.94.28,13.9.8,20.85.68,2.47-.05,5,2.74,7.43-.1,6.37,3.4,8.6,10,11.94,15.67-.43,1.5-1.81,1.8-3,2.39Q383,159.64,376.38,163c-17.18,8.63-34.38,17.22-51.53,25.9-8.52,4.3-17.21,8.3-25.28,13.45-12,1.15-24,2.13-36,3.57-2.89.34-4.85-.13-6.38-2.38-3.13-4.6-6.8-6.41-11.79-2.62a5.39,5.39,0,0,1-1.86.55c-1.58-1.93-3-.26-4.43.23q-7.74,2.59-15.45,5.27a4.09,4.09,0,0,1-3.8-.11c-4.44-2.75-9.88-3.92-13.29-8.34l-.06-.06c-3-.82-5.6-3.05-9-2-6-4.41-12.78-5.61-20.07-4.85a56,56,0,0,1-5.94,0c-7.27-6-14.62-11.95-21.78-18.09C141.73,166.65,132.93,160.68,125.53,153.07Z" class="cls-3"/><path d="M299.57,202.33c8.07-5.15,16.76-9.15,25.28-13.45C342,180.2,359.2,171.61,376.38,163q6.63-3.33,13.27-6.65c1.17-.59,2.55-.89,3-2.39,2.3.92,3,3.48,5,4.78a3,3,0,0,0,1.31,2.55c5.57,3.76,6.88,9.51,7.82,15.65.46,3,.49,6.31,2.94,8.7a21.57,21.57,0,0,0,.42,6.3c1.07,6.43,3.84,12.53,3.62,19.19l-89.13,8.4c-3.79-1.84-6.41-5.84-11.11-6l0,0c.05-2.19-1.48-2.1-3-2.08l0,0c-.13-.46-.25-.92-.38-1.37l-.77.52-9.72-7.4C299.64,202.94,299.6,202.64,299.57,202.33Z" class="cls-4"/><path d="M26.26,244.32C35.07,236.47,43.42,228,52.86,221c5.86-4.36,13.39-6.44,20.48-8.81,1,1.8,2.33.73,3.46.32q12.54-4.51,24.73-9.93c3.75-1.67,7.48-4.22,11.65-3.9,3.15.24,3.5,4.62,6.21,6.21,3.28,1.92,5,5.54,6.26,8.69,1.49,3.68,3.57,8.27,0,12.12a101,101,0,0,1-11.11,10.69c-12.8,10.19-26.66,18.88-40.15,28.1-3.1,2.12-6.85,3.1-10,1.61a117.83,117.83,0,0,0-17.56-6.6c-6.6-2-12.11-6.9-19.34-7l-4.08-.93,0,0c.15-1.83,1.71-2.67,2.79-3.78C27.46,246.52,28,245.5,26.26,244.32Z" class="cls-5"/><path d="M380.69,138.27c-2.4,2.84-5,0-7.43.1-6.95.12-13.91-.4-20.85-.68-16.4-.65-32.79-1.66-49.15-2.56-18-1-36-1.6-53.95-3.5-7.54-.79-15.25,0-22.82-1.18-1-1.5-2.84-1.41-4.21-2.18-3.49-2-7.73-2.32-10.76-5.19,7.4-6.22,15.73-11,23.86-16.19,1.22-.78,2.57-.59,3.89-.54,15.27.61,30.55,1.58,45.83,1.8,13.37.19,25.63,5.27,38.47,7.72,2.93.56,5.78,1.56,8.71,2C350.1,120.73,365.28,129.76,380.69,138.27Z" class="cls-6"/><path d="M27.56,252.47c7.23.12,12.74,5,19.34,7a117.83,117.83,0,0,1,17.56,6.6c3.1,1.49,6.85.51,10-1.61,13.49-9.22,27.35-17.91,40.15-28.1a101,101,0,0,0,11.11-10.69c3.55-3.85,1.47-8.44,0-12.12-1.27-3.15-3-6.77-6.26-8.69-2.71-1.59-3.06-6-6.21-6.21-4.17-.32-7.9,2.23-11.65,3.9Q89.34,208,76.8,212.5c-1.13.41-2.47,1.48-3.46-.32,11.23-4.65,22.56-9.08,33.64-14.06,4.46-2,8.23-2.7,12.4.26a44.45,44.45,0,0,0,6.21,3.11c1.6,1.77,4,2.09,5.94,3.17,4.48,2.45,9.89,3.32,13.23,7.71l-.12,2.18a270.29,270.29,0,0,0-3.18,31.75c-.07,2.24-.55,4.6-2.52,6.2-1.14.22-1.35,1.05-1.34,2l.11,0c-3.85,4.38-7.55,9-13.88,9.86-.12,0-.17.59-.25.91a13.46,13.46,0,0,0-7,1.91c-10.28,5.53-20.66,10.87-31,16.27-1.56-1.57-1.81-.36-2,1l-1.74,1.31a4.52,4.52,0,0,0-1-1.11c-12.24-7.48-24.41-15.07-36.79-22.31-4.35-2.54-8.28-6.09-13.56-6.84h0c-.38-.9-1.15-1-2-1h0Z" class="cls-3"/><path d="M528.55,19.42c.67.68,1.34,1.36,2,2-1.7,1-.18,2,0,3.06-.92,5.32,1.06,9.79,4.08,14l0-.06a2.75,2.75,0,0,0,1.1,2.35l1.87,2.69c-3.84,7.44-8.83,14.23-12.18,21.94-3.07-.87-5.36-3-7.82-4.87.92-1.57-.64-.77-1-1.08l.07.06a19.4,19.4,0,0,0-11.71-8.37c-4-1-9.22-.52-12.94,3l-2.63.2c-1.83-1.3-3.7-.94-5.58-.12-3.76,2.06-7.89,2.14-12,2.3-3.46-7.16-6-14.81-11.14-21.08l0,0c0-1.18,0-2.34-1-3.17.53-2.49-1.47-3.43-2.92-4.71,6-3.78,13.25-4.32,19.34-7.59,13.86-7.46,27.92-6.25,42.3-2.15C521.58,18.81,525,19.82,528.55,19.42Z" class="cls-4"/><path d="M456.63,27.6c1.45,1.28,3.45,2.22,2.92,4.72.06,1.15-.22,2.4,1,3.16l0,0a7.37,7.37,0,0,0,1.11,4.25c5.55,10.5,8.34,21,3.63,33-1.57,4-3.58,8.81-1.88,13.66q-3,10.56-5.92,21.12-7,22-14.05,44c-1.58,1.38-.26,4.39-2.9,5.17l-2-3c.79-.61.94-1.21.13-2-3.57-3.39-6.94-7-10.73-10.15-5-4.13-9.51-8.93-15.4-11.92h0c-2-2.1-2.94-5.79-7-5a23.93,23.93,0,0,1-6-6,2,2,0,0,0-.84-2c6.7-15.2,14.49-30,19.8-45.7C424.26,53.7,437.31,43.64,450,32.86,452.19,31,454.43,29.35,456.63,27.6Zm-.07,38c0-4.87.17-8.21,0-11.53-.39-6.11-6.63-11.14-10.5-8.53-5.54,3.74-10.81,8.28-14.14,13.8-9.74,16.09-18.57,32.74-27.69,49.2-1,1.85-1.14,3.67.92,5.26a256.77,256.77,0,0,0,25.55,18c2.41,1.43,4.9,1.09,6.15-1.94,1.31-3.21,2.62-6.44,3.76-9.72,3.28-9.47,6.31-19.06,9.72-28.47C453.56,82.66,458.13,74.12,456.56,65.6Z" class="cls-6"/><path d="M438.51,153.55l2,3a154.6,154.6,0,0,1-18.22,18.15c-4.18,3.65-7.3,8.62-12.65,10.92-2.45-2.39-2.48-5.73-2.94-8.7-.94-6.14-2.25-11.89-7.82-15.65a3,3,0,0,1-1.31-2.55c1-9.6.13-19.24.49-28.85.15-3.82.17-7.64.25-11.47l1.14.12a23.93,23.93,0,0,0,6,6c2.09,2,3.37,5.18,7,5h0C419.25,139.59,429.54,145.85,438.51,153.55Z" class="cls-2"/><path d="M125.53,153.07c7.4,7.61,16.2,13.58,24.23,20.47,7.16,6.14,14.51,12.07,21.78,18.09,0,1,0,1.89,0,2.83-2.72,4.2-7.46,7.17-7.8,12.81l-28.86-4.76c-8.24-2.93-8-9.95-8.43-16.89-.62-9.75-1.73-19.47-2.48-29.22C123.84,155.27,122,152.69,125.53,153.07Z" class="cls-7"/><path d="M134.83,202.51l28.86,4.76c8.94-1,13.8,5.17,19,10.82-1.5,1.82-3.5,2.76-5.63,1.72-6.8-3.31-14.35-3.39-21.46-5.33-3.16-3-7.05-2.17-10.8-2.11-3.34-4.39-8.75-5.26-13.23-7.71-2-1.08-4.34-1.4-5.94-3.17Z" class="cls-2"/><path d="M211.52,123.08c3,2.87,7.27,3.24,10.76,5.19,1.37.77,3.19.68,4.21,2.18l-14.81,2.9C212,129.92,208.75,126.54,211.52,123.08Z" class="cls-8"/><path d="M26.26,244.32c1.77,1.18,1.2,2.2,0,3.47-1.08,1.11-2.64,2-2.79,3.78l-3.1-.42C20.8,247.56,23.46,245.88,26.26,244.32Z" class="cls-9"/><path d="M399.49,118.52l-1.14-.12.3-1.89A2,2,0,0,1,399.49,118.52Z" class="cls-4"/><path d="M409.68,185.62c5.35-2.3,8.47-7.27,12.65-10.92a154.6,154.6,0,0,0,18.22-18.15c2.64-.78,1.32-3.79,2.9-5.17,0,4.74,2.22,8.27,5.62,11.49,1.49,1.42,3.32,2,4.82,3.32,9.48,8.24,19.17,16.23,28.69,24.43,2.49,2.14,5.41,3.9,7,6.95l-4,6c-2.92,4.54-3.85,9.81-5.39,14.85l-1.32,3.16c-.1.66-.19,1.32-.29,2-2,2.32-1.42,4.51.26,6.72,2.6,3.44,5.12,6.92,7.68,10.39-9.23,1-18.45,2.43-27.7,2.8-7.35.29-14-3.6-21-5.41-8-2.08-15.77-5.16-23.81-7.05-5.34-1.26-7.44-4.18-7.57-9.22.32-3.74,5-5.08,5-9,.8-.47,2.32.06,2.24-1.63.22-6.66-2.55-12.76-3.62-19.19A21.57,21.57,0,0,1,409.68,185.62Z" class="cls-10"/><path d="M299.57,202.33c0,.31.07.61.1.92a45,45,0,0,0,.5,7.84c1.27,8.42,4.24,16.54,4.42,25.15.06,3,1.82,4.41,4.71,4.58-4.79,4.08-10.81,6.58-14.79,11.69.26,3.49,2,6.32,4.06,9,1.19,2.8,4.85,2.86,6.1,5.62-1,.68-3.1,0-3.1,2.2l-11,.09c-1.47-3.92-4.16-5.87-8.63-5.57.59,3,5.48,1.9,4.64,5.62l-7.91.2c-5.2-2.53-10.66-.83-16-.9-.34,0-.7,1-1.05,1.5a68.24,68.24,0,0,0-8.36.41c-5.8,1-9.73-1.36-12.47-6.27.63-.9-.13-.76-.61-.82a2.69,2.69,0,0,1-1.69-1.83c-.4-3.81-3.16-6.61-4.34-10.26-3.53-10.92-5.24-22.56-11.26-32.65-.45-.75-.19-1.93-.26-2.91-1.4-3.78.65-5.62,3.79-7,5.74-2.47,11.45-5,17.17-7.53a5.39,5.39,0,0,0,1.86-.55c5-3.79,8.66-2,11.79,2.62,1.53,2.25,3.49,2.72,6.38,2.38C275.55,204.46,287.57,203.48,299.57,202.33Z" class="cls-8"/><path d="M231.16,259.29c.39,8.09,4.87,14.69,8.08,21.7,1.27,2.78.85,3.87-1.55,5.44-6.11,4-12,8.26-18,12.48a8.21,8.21,0,0,1-4.53,1.69q-27.33,1.39-54.66,3a24.76,24.76,0,0,1-10.25-1.46c6.46-1.27,7.18-2.57,6-9.1a212.81,212.81,0,0,1-2.75-25.57c12.45-5.57,24.16-13,38.08-14.82l1.93-.14c9.45.53,18.79-1.27,28.23-1.3,1.92,0,4.36.21,5.9-1.75C231.31,251.85,229,256.37,231.16,259.29Z" class="cls-8"/><path d="M611.5,105.6c7.92,1.88,16.09,2.71,23.8,5.54,3.39,4.57,9.13,6.37,12.65,10.87a16.49,16.49,0,0,0,5.46,4.23c8.84,4.55,16.09,11.07,23.25,17.81,7,6.6,10.54,15.27,14.94,23.47,1.22,2.27.89,3.6-1.49,4.71C682,176,673.86,180,665.74,183.84c-1.74.83-4.58,1.35-5.15.2-2-4.12-6.28-5.65-9.05-8.86-4.24-4.9-8.32-10.16-15.61-11.17-3.44-.48-7.44-.07-9.9-3.7-5-7.39-10.17-14.7-15.23-22.07a12.58,12.58,0,0,1-2.16-8c.49-7.12,1.24-14.22.89-21.36C609.45,107.24,610.7,106.6,611.5,105.6Z" class="cls-11"/><path d="M654.55,254.7l-2-.14c-.41-3.14-3.4-2.28-5.13-3-11-4.53-21.56-10.26-32.87-14.14-.52-4.33,1.52-8.31,3.35-11.63,3.32-6,1.76-11.56.62-17.37a2.47,2.47,0,0,0-1-2.21l0-.29c-1.94-7.65,1.32-12.93,7.63-16.88a16.18,16.18,0,0,0,2.44-2.39c2.06-1.57,4.49-1.17,6.82-1.29,1.78,1.14,3.82,1.12,5.79,1a11.62,11.62,0,0,1,8.28,2.62q13.53,10.91,27.11,21.71c-.11,8.06-2.51,15.82-3,23.82l-3,1.82c-2,0-2.48,1.65-3.08,3.1C661.61,243.84,658.26,249.41,654.55,254.7Z" class="cls-12"/><path d="M675.62,210.71Q662.06,199.86,648.51,189a11.62,11.62,0,0,0-8.28-2.62c-2,.11-4,.13-5.79-1-2.7-1.08-5.86-1.33-7.17-4.72a4.69,4.69,0,0,0-2.75-3.17l0,0-1-1,0,0a1.72,1.72,0,0,0-1-2l0,0-1-1.05,0,.07c-.24-1.34.53-3.4-2.13-3-5.22-6.09-8-13.74-12.89-20.06q0-16.95,0-33.9,0-6,.11-12c1.78-.39,3.24.78,4.9,1-.8,1-2,1.64-2,3.27.35,7.14-.4,14.24-.89,21.36a12.58,12.58,0,0,0,2.16,8c5.06,7.37,10.2,14.68,15.23,22.07,2.46,3.63,6.46,3.22,9.9,3.7,7.29,1,11.37,6.27,15.61,11.17,2.77,3.21,7,4.74,9.05,8.86.57,1.15,3.41.63,5.15-.2,8.12-3.87,16.22-7.8,24.37-11.61,2.38-1.11,2.71-2.44,1.49-4.71-4.4-8.2-7.94-16.87-14.94-23.47-7.16-6.74-14.41-13.26-23.25-17.81A16.49,16.49,0,0,1,648,122c-3.52-4.5-9.26-6.3-12.65-10.87,6.85-.3,11.8,3.43,16.72,7.57,10.4,8.76,20.31,18.21,32.5,24.62a7.47,7.47,0,0,1,2.79,2.76c8.71,13.55,17.26,27.2,24.78,41.46a8.39,8.39,0,0,1,.48,2.33c0,.89,0,1.78,0,2.67h0c-2.25-.89-3.75.84-5.42,1.68C696.59,199.54,686.52,205.92,675.62,210.71Z" class="cls-4"/><path d="M411.48,212.74c0,3.91-4.68,5.25-5,9-1.93-.46-2.56,1.2-3.5,2.24q-13.83,15.27-27.6,30.6c-1.1,1.22-2.07,2.49-3.82,3-10.29,2.95-20.57,6-30.84,9a12.13,12.13,0,0,1-1.49-.15c-1.17-.25-1-.64,0-.95,1.18-.4,2.47-1.07,1.93-2.4-1.3-3.23.15-6.2.39-9.29.18-2.35.12-4.7-2.08-6.3,0-3.4-2.8-3.23-4.94-3.91a1.66,1.66,0,0,0-.93-.18l.12,0-6.26-3.67c-.05-1.57-.09-3.14-.14-4.71-.05-.63,0-1.32-.76-1.59l.06.09c.58-3.65-1.68-7.11-.73-10.78a14.26,14.26,0,0,1,5.23-1.45Q371.29,217.07,411.48,212.74Z" class="cls-1"/><path d="M586.74,109.34h2.74c.79,1.25,1.88,1.19,3,.64,3.2-1.55,4.69-.58,4,3-1.6,8.22-.52,16.53-1.09,24.77-.26,3.74-.37,7.68-4.69,10.15-7,4-13.6,8.58-20.17,13.2-2.37,1.66-3.39,1.18-5.34-.67-2.13-2-2.6-6.12-6.68-5.92a20,20,0,0,1-1-3.29c-1.13-9-2.19-17.93-3.28-26.9,1-4.82,3.86-7.32,8.76-7.86a31.79,31.79,0,0,0,5.63-1.69C574.73,113.07,581.05,112.27,586.74,109.34Z" class="cls-5"/><path d="M669.55,236.35l3-1.82a245.15,245.15,0,0,0,25-7.06,59.35,59.35,0,0,1,21-.58c.17,1.2.93,1.61,2.06,1.54v-.09l-.21,20-1.86,1.2L685,263.84a44.86,44.86,0,0,0-12.41-8.38C671.63,249.08,669.64,242.86,669.55,236.35Z" class="cls-4"/><path d="M231.16,259.29c-2.19-2.92.15-7.44-3.48-9.85-4.54-2.21-7.94-6.21-12.67-8.13-1.36-1.17-2.67-2.42-4.11-3.49-6.43-4.79-13.33-8.94-19.39-14.24a18.88,18.88,0,0,0,1-3.8c.39-8-2.52-15.65-2.09-23.65.09-1.72-1-2.52-3-2.12-5.25,1.05-10.59.22-15.88.45,0-.94,0-1.88,0-2.83a56,56,0,0,0,5.94,0c7.29-.76,14.06.44,20.07,4.85,5.49,3.41,11,6.77,16.46,10.23,3.64,2.33,7.27,4.73,8.58,9.25.07,1-.19,2.16.26,2.91,6,10.09,7.73,21.73,11.26,32.65,1.18,3.65,3.94,6.45,4.34,10.26C236.58,259.31,233.9,259.22,231.16,259.29Z" class="cls-1"/><path d="M586.74,109.34c-5.69,2.93-12,3.73-18.07,5.39,1.29-3.51.34-6.7-.94-10-3-7.68-5.42-15.54-8.37-23.21-3.4-8.83-5.46-18.32-12.14-25.58-3.57-3.89-7.19-7.72-9.68-12.43l-1.87-2.69c-.08-.92,0-1.91-1.1-2.35l0,.06c-.14-5-2.7-9.32-4.08-14-.14-1-1.66-2.06,0-3.06l4,3c3.58,3.18,7,6.52,10.76,9.49a33.48,33.48,0,0,1,9.52,11.84C565.28,67.07,576.94,87.74,586.74,109.34Z" class="cls-7"/><path d="M558.56,154.47c4.08-.2,4.55,3.88,6.68,5.92,2,1.85,3,2.33,5.34.67,6.57-4.62,13.21-9.21,20.17-13.2,4.32-2.47,4.43-6.41,4.69-10.15.57-8.24-.51-16.55,1.09-24.77.68-3.53-.81-4.5-4-3-1.16.55-2.25.61-3-.64a114.06,114.06,0,0,1,17.12-4.77q-.06,6-.11,12a47.31,47.31,0,0,0-1.9,13.42,106.63,106.63,0,0,0,0,11.86c.63,6.83-4,10.57-8,14.7h0a1.72,1.72,0,0,0-2,2l0-.05c-1.52-.06-3-.1-3,2.06l0-.07-1.06,1,.06,0c-2.23-.16-4,.33-4,3l0,0c-1.43-.05-2,.69-2,2.06-.92,1.7-2.65,2.39-4.1,3.46-4.47,3.29-9.56,5.85-12.92,10.51l-2,0Q562.07,167.54,558.56,154.47Z" class="cls-3"/><path d="M532.63,252.72c2.34,8.2-3.39,11.5-9,14.87.14-2.81-3.72-3.83-3.06-6.86a25.76,25.76,0,0,0,3.73-3.13c2.37-2.89,5.39-5.89,5-9.72-.2-2.2-3.75-1.78-5.89-2.26-5.32-1.85-10.26-2.07-14,3.12-.32.43-1.18.47-1.79.7-5.52-2-11.74-.95-17-4l4.89-21c1-5.32,4.74-1.3,7.08-2.05l1.82.37c2,1.23,4.31.54,6.44.95l19.73,3.66C531.13,235.82,529,244.51,532.63,252.72Z" class="cls-12"/><path d="M614.58,237.43c11.31,3.88,21.84,9.61,32.87,14.14,1.73.71,4.72-.15,5.13,3-10.33,0-20.65.24-31,.06-6.05-.1-11.53-3-17.27-4.55-10.37-2.88-20.67-6.07-30.92-9.37-5.24-1.68-9.16,2.24-13.86,2.64.08-1.14,0-2.26,1.48-2.78,7.7-2.68,7.69-2.71,6.51-10.11,5.85-.2,11.52,1.2,17.23,2.06C594.73,234,604.65,235.77,614.58,237.43Z" class="cls-13"/><path d="M567.55,230.45c1.18,7.4,1.19,7.43-6.51,10.11-1.51.52-1.4,1.64-1.48,2.78l-26.93,9.38c-3.64-8.21-1.5-16.9-2.11-25.36l23.19-8.68a10.83,10.83,0,0,0,4.71-2l2.2-.24c2.52.3,2.21,2.61,2.77,4.15C564.6,224,565.59,227.43,567.55,230.45Z" class="cls-1"/><path d="M697.56,227.47a245.15,245.15,0,0,1-25,7.06c.54-8,2.94-15.76,3-23.82,10.9-4.79,21-11.17,31.6-16.48,1.67-.84,3.17-2.57,5.42-1.68-3.63,10.47-9,20.16-13.21,30.39Q698.5,225.21,697.56,227.47Z" class="cls-1"/><path d="M153.55,267.45A212.81,212.81,0,0,0,156.3,293c1.15,6.53.43,7.83-6,9.1l-1.67-.51c-.3-.67-.65-.88-1.06-.08l-7.92.09c-1.14-4.44-.75-9.47-5-12.74-1-.78-1.48-1.95-.48-3,2.8-3,.81-4.4-1.78-5.41s-4-2.88-5.54-4.78c-1.09-1.36-2.46-3.62-.37-4.71,2.5-1.31,1.44,2.26,3.12,3.1,2.58-2.31,4.19-4.93,2.92-8.67l1-.93a49.9,49.9,0,0,0,16.81,2.27Z" class="cls-12"/><path d="M685,263.84l33.61-14.31c1.11,6.12-.68,11.89-2.11,17.72-.82,3.35-4.67,1.08-5.86,3.49-.08.15-.13.3-.2.45l-31.82,3.38C679.41,270.22,683.53,267.83,685,263.84Z" class="cls-8"/><path d="M685,263.84c-1.43,4-5.55,6.38-6.38,10.73l0-.08-1.2,0a190.42,190.42,0,0,1-22.88-19.77c3.71-5.29,7.06-10.86,11.92-15.25,3.61,1.68,2,5.35,3.06,8s-.59,6.32,3,8A44.86,44.86,0,0,1,685,263.84Z" class="cls-6"/><path d="M755.62,244c3.28,3.65,3,8.47,4.16,12.81,2.6,10.1,2.51,10.07-7.92,8.31-4.06-.68-8.17-1-12.26-1.53.43-4.54-4.83-7.09-4.08-11.74,1.86-.69,3.75-1.3,5.57-2.1C745.86,247.66,751.36,247.39,755.62,244Z" class="cls-8"/><path d="M755.62,244c-4.26,3.37-9.76,3.64-14.53,5.75-1.82.8-3.71,1.41-5.57,2.1l-1.89-.47c-.88-6.65-4.85-12.29-6.16-18.8l12.47-.1C748.13,232.45,752.49,235.66,755.62,244Z" class="cls-6"/><path d="M733.63,251.4l1.89.47c-.75,4.65,4.51,7.2,4.08,11.74-9.59,3.08-19,6.84-29.2,7.58.07-.15.12-.3.2-.45,1.19-2.41,5-.14,5.86-3.49,1.43-5.83,3.22-11.6,2.11-17.72l1.86-1.2C724.87,249.21,729,251.47,733.63,251.4Z" class="cls-1"/><path d="M339.44,247.46c2.2,1.6,2.26,3.95,2.08,6.3-.24,3.09-1.69,6.06-.39,9.29.54,1.33-.75,2-1.93,2.4-.93.31-1.14.7,0,.95a12.13,12.13,0,0,0,1.49.15l-16,7.21c-3-3.07-2.08-8.46-6.43-10.69a3.07,3.07,0,0,0,.25-.72c6-.65,11-3.11,14.54-8.11A27.67,27.67,0,0,1,339.44,247.46Z" class="cls-12"/><path d="M733.63,251.4c-4.65.07-8.76-2.19-13.2-3.07l.21-20,6.83,4.26C728.78,239.11,732.75,244.75,733.63,251.4Z" class="cls-7"/><path d="M318.3,263.07c4.35,2.23,3.46,7.62,6.43,10.69-2.19,2.06-4.21.09-5.76-.75a31.11,31.11,0,0,0-17.4-3.67c0-2.22,2.11-1.52,3.1-2.2-1.25-2.76-4.91-2.82-6.1-5.62C305.12,262.28,311.57,264.4,318.3,263.07Z" class="cls-13"/><path d="M495.45,224.43l-4.89,21-4-4.85c-2.56-3.47-5.08-7-7.68-10.39-1.68-2.21-2.25-4.4-.26-6.72,3.64,4.05,5.11,9.67,9.23,13.19,3.6-5.37,3.71-11.44,3.95-18C494.22,220.49,492.91,223.65,495.45,224.43Z" class="cls-6"/><path d="M507.58,249.44c.61-.23,1.47-.27,1.79-.7,3.79-5.19,8.73-5,14-3.12-5.58,1.27-9.39,4.72-12,9.69-2.77-.39-5.33,1.57-8.14.75C503.82,253.27,507.39,252.44,507.58,249.44Z" class="cls-3"/><path d="M503.31,256.06c2.81.82,5.37-1.14,8.14-.75,2.05,1.88,5.16,2.57,6.2,5.57-3.59,2.65-7.77,1.11-11.66,1.62C504.4,260.65,500.51,259.75,503.31,256.06Z" class="cls-14"/><path d="M506,262.5c3.89-.51,8.07,1,11.65-1.63l2.91-.14c-.66,3,3.2,4,3.06,6.86C517.3,267.4,511.32,266.09,506,262.5Z" class="cls-13"/><path d="M261.58,270.28c.35-.52.71-1.5,1.05-1.5,5.35.07,10.81-1.63,16,.9A99.22,99.22,0,0,1,261.58,270.28Z" class="cls-13"/><path d="M286.55,269.48c.84-3.72-4.05-2.65-4.64-5.62,4.47-.3,7.16,1.65,8.63,5.57Z" class="cls-13"/><path d="M712.61,192.55c0-.89,0-1.78,0-2.67C713.79,190.75,714,191.64,712.61,192.55Z" class="cls-1"/><path d="M720.63,228.43c-1.13.07-1.89-.34-2.06-1.54C719.35,227.28,720.3,227.43,720.63,228.43Z" class="cls-7"/><path d="M240.14,263.6c.48.06,1.24-.08.61.82Z" class="cls-1"/><path d="M677.43,274.47l1.2,0C678.22,275.59,677.82,275.29,677.43,274.47Z" class="cls-8"/><path d="M147.54,301.53c.41-.8.76-.59,1.06.08Z" class="cls-1"/><path d="M30.5,255.52c5.28.75,9.21,4.3,13.56,6.84,12.38,7.24,24.55,14.83,36.79,22.31a4.52,4.52,0,0,1,1,1.11c-.23,2.5-1.73,4.35-3.25,6.18.6-4.13-1.15-6.82-4.72-8.95-13.51-8.08-26.91-16.35-40.33-24.57C32.31,257.7,30.54,257.48,30.5,255.52Z" class="cls-9"/><path d="M133.54,264.46l-1,.93-9-.05c.08-.32.13-.89.25-.91,6.33-.89,10-5.48,13.88-9.86C137.58,258.4,134.23,260.87,133.54,264.46Z" class="cls-9"/><path d="M83.55,284.47c.22-1.31.47-2.52,2-1Z" class="cls-9"/><path d="M27.56,252.47l1,2.06c-2.2-.1-4.28-.42-5-3Z" class="cls-9"/><path d="M28.51,254.52c.86,0,1.63.11,2,1A1.49,1.49,0,0,1,28.51,254.52Z" class="cls-9"/><path d="M222.59,216c-1.31-4.52-4.94-6.92-8.58-9.25-5.45-3.46-11-6.82-16.46-10.23,3.37-1.08,6,1.15,9,2l-.4.45.46-.39c3.41,4.42,8.85,5.59,13.29,8.34a4.09,4.09,0,0,0,3.8.11q7.71-2.69,15.45-5.27c1.44-.49,2.85-2.16,4.43-.23-5.72,2.52-11.43,5.06-17.17,7.53C223.24,210.33,221.19,212.17,222.59,216Z" class="cls-9"/><path d="M327.29,235c0,1.57.09,3.14.14,4.71a9.51,9.51,0,0,1-2.84-.76c-5-3.3-9.58-2.35-13.91,1.34a4.45,4.45,0,0,1-1.38.52c-2.89-.17-4.65-1.55-4.71-4.58-.18-8.61-3.15-16.73-4.42-25.15a45,45,0,0,1-.5-7.84l9.72,7.4,1.15.85,0,0a4.19,4.19,0,0,0,3,2.08l0,0a30.55,30.55,0,0,1,12.2,18.88c.09.42.6.74.91,1.11l-.06-.09Z" class="cls-12"/><path d="M411.48,212.74q-40.2,4.29-80.39,8.54a14.26,14.26,0,0,0-5.23,1.45c-1.42-.68-1.38-1.94-1.27-3.22l89.13-8.4C413.8,212.8,412.28,212.27,411.48,212.74Z" class="cls-9"/><path d="M324.59,219.51c-.11,1.28-.15,2.54,1.27,3.22-.95,3.67,1.31,7.13.73,10.78-.31-.37-.82-.69-.91-1.11a30.55,30.55,0,0,0-12.2-18.88C318.18,213.67,320.8,217.67,324.59,219.51Z" class="cls-6"/><path d="M313.5,213.56a4.19,4.19,0,0,1-3-2.08C312,211.46,313.55,211.37,313.5,213.56Z" class="cls-6"/><path d="M310.54,211.5l-1.15-.85.77-.52C310.29,210.58,310.41,211,310.54,211.5Z" class="cls-6"/><path d="M153.55,267.45l-3.19-.73c.89-1.48.84-2.91.66-4.69-.91-8.88-3.06-17.57-3.59-26.53-.41-7-1.83-14-2.79-20.95l.12-2.18c3.75-.06,7.64-.89,10.8,2.11-1.36,9.4,5,15.39,10.67,20.71,7.45,7,14.77,14.82,25.4,17.44C177.71,254.42,166,261.88,153.55,267.45Z" class="cls-4"/><path d="M144.64,214.55c1,7,2.38,13.94,2.79,20.95.53,9,2.68,17.65,3.59,26.53.18,1.78.23,3.21-.66,4.69a49.66,49.66,0,0,1-16.82-2.26c.69-3.59,4-6.06,4.17-9.89l-.11,0c.94-.34,1.08-1.22,1.34-2,2-1.6,2.45-4,2.52-6.2A270.29,270.29,0,0,1,144.64,214.55Z" class="cls-2"/><path d="M138.94,252.5c-.26.8-.4,1.68-1.34,2C137.59,253.55,137.8,252.72,138.94,252.5Z" class="cls-9"/><path d="M457.5,107.42q3-10.56,5.92-21.12l8.28-29.79c4.12-.16,8.25-.24,12-2.3l5.59.12,2.62-.19c7.57-1.72,14.9-2.25,21.14,3.77.87.85,2.33,1.08,3.52,1.6l-.06-.06,1,1.08c2.46,1.85,4.75,4,7.82,4.87.34,2.76.67,5.52,1,8.28-2,6.53-.09,12.81,1.24,19.12l.06.35c-6.23,2.61-12.12,6.27-19.19,6.31l-.84.74c-4.1.43-8.32.29-12.1,2.36C483.07,105.83,470.25,106.39,457.5,107.42Z" class="cls-2"/><path d="M527.67,93.14l-.06-.34c1.21-1.43.79-3,.58-4.66q-.93-7.23-1.82-14.46c-.34-2.76-.67-5.52-1-8.28,3.35-7.71,8.34-14.5,12.18-21.94,2.49,4.71,6.11,8.54,9.68,12.43,6.68,7.26,8.74,16.75,12.14,25.58,2.95,7.67,5.42,15.53,8.37,23.21,1.28,3.35,2.23,6.54.94,10a31.79,31.79,0,0,1-5.63,1.69c-4.9.54-7.81,3-8.75,7.86l-1.73,1.29a6.35,6.35,0,0,0-1.72-4.89c-5.45-6.33-10.49-13-16.08-19.24-2-2.27-3.27-6-7.28-6C527.54,94.67,527.61,93.91,527.67,93.14Z" class="cls-10"/><path d="M471.7,56.51,463.42,86.3c-1.7-4.85.31-9.68,1.88-13.66,4.71-11.93,1.92-22.46-3.63-33a7.37,7.37,0,0,1-1.11-4.25C465.7,41.7,468.24,49.35,471.7,56.51Z" class="cls-9"/><path d="M516.57,59.51c-1.19-.52-2.65-.75-3.52-1.6-6.24-6-13.57-5.49-21.14-3.77,3.73-3.52,8.95-4,12.95-3A19.4,19.4,0,0,1,516.57,59.51Z" class="cls-9"/><path d="M530.53,24.51c1.38,4.65,3.94,9,4.08,14C531.59,34.3,529.61,29.83,530.53,24.51Z" class="cls-5"/><path d="M489.29,54.33l-5.59-.12C485.59,53.39,487.46,53,489.29,54.33Z" class="cls-9"/><path d="M460.59,35.48c-1.26-.76-1-2-1-3.16C460.62,33.14,460.62,34.3,460.59,35.48Z" class="cls-9"/><path d="M534.57,38.42c1.1.44,1,1.43,1.1,2.35A2.75,2.75,0,0,1,534.57,38.42Z" class="cls-5"/><path d="M517.54,60.53l-1-1.08C516.9,59.76,518.46,59,517.54,60.53Z" class="cls-9"/><path d="M527.48,95.44c4,0,5.23,3.73,7.28,6,5.59,6.21,10.63,12.91,16.08,19.24a6.35,6.35,0,0,1,1.72,4.89c-.61,1.7-.92,3.59-1.87,5.08-5.65,8.83-8.69,18.06-8.36,28.92.23,7.9,3.17,14.44,6,21.22,1.45,3.4,1.29,4.68-2.83,4.73-7.44.09-15,.09-22.29,1.19-5.56.84-11.25-.2-16.67,1.56-7.25-1.34-12.08,1.95-15.52,8-.31.54-1,.86-1.46,1.29-1.62-3-4.54-4.81-7-6.95-9.52-8.2-19.21-16.19-28.69-24.43-1.5-1.31-3.33-1.9-4.82-3.32-3.4-3.22-5.59-6.75-5.62-11.49q7-22,14.05-44c12.75-1,25.57-1.59,38-4.86,4.11-.4,8.54.86,12.1-2.36l.84-.74c1.78,2,4.13,1.2,6,.66C518.88,98.84,523.15,97,527.48,95.44Z" class="cls-7"/><path d="M456.56,65.6c1.57,8.52-3,17.06-6.27,26.1-3.41,9.41-6.44,19-9.72,28.47-1.14,3.28-2.45,6.51-3.76,9.72-1.25,3-3.74,3.37-6.15,1.94a256.77,256.77,0,0,1-25.55-18c-2.06-1.59-1.95-3.41-.92-5.26,9.12-16.46,17.95-33.11,27.69-49.2,3.33-5.52,8.6-10.06,14.14-13.8,3.87-2.61,10.11,2.42,10.5,8.53C456.73,57.39,456.56,60.73,456.56,65.6Z" class="cls-3"/><path d="M438.51,153.55c-9-7.7-19.26-14-26-24.05,5.89,3,10.4,7.79,15.4,11.92,3.79,3.12,7.16,6.76,10.73,10.15C439.45,152.34,439.3,152.94,438.51,153.55Z" class="cls-9"/><path d="M412.54,129.51c-3.66.17-4.94-3-7-5C409.6,123.72,410.5,127.41,412.54,129.51Z" class="cls-9"/><path d="M171.49,194.46c5.29-.23,10.63.6,15.88-.45,2-.4,3.14.4,3,2.12-.43,8,2.48,15.68,2.09,23.65a18.88,18.88,0,0,1-1,3.8l-8.86-5.49c-5.16-5.65-10-11.82-19-10.82C164,201.63,168.77,198.66,171.49,194.46Z" class="cls-8"/><path d="M182.65,218.09l8.86,5.49c6.06,5.3,13,9.45,19.39,14.24,1.44,1.07,2.75,2.32,4.11,3.49-3.32.76-1.78,2.14-.22,3s2.67,1.68,2.18,3.32c-.41,1.36-2,.68-3.06.86-5.82,1-11.63,2-17.55,2-1.47,0-2.64.29-2.8,2l-1.93.14C181,250,173.68,242.2,166.23,235.19c-5.67-5.32-12-11.31-10.67-20.71,7.11,1.94,14.66,2,21.46,5.33C179.15,220.85,181.15,219.91,182.65,218.09Z" class="cls-11"/><path d="M489.61,197.57c.49-.43,1.15-.75,1.46-1.29,3.44-6.06,8.27-9.35,15.52-8a37.45,37.45,0,0,1-5,6.76c-5,5.37-4.94,7.68-.08,12.87a17.68,17.68,0,0,0,7.34,4.87c4.18,1.44,8.07,3.69,12.17,5.38s7.78,3.7,12.58,3.67c5.63,0,10.43-2.59,15.71-3.43,1.51-.24,3.07-1.82,4.41.29l-23.19,8.68-19.73-3.66c-1.94-1.73-3.86-3.58-6.44-.95l-1.82-.37c-.24-2.22-1.93-1.85-3.39-1.93-1.29-.07-2.76.29-3.56-1.17-3-5.45-8.09-9.59-9.95-15.76Z" class="cls-6"/><path d="M485.63,203.52c1.86,6.17,6.94,10.31,9.95,15.76.8,1.46,2.27,1.1,3.56,1.17,1.46.08,3.15-.29,3.39,1.93-2.34.75-6.06-3.27-7.08,2.05-2.54-.78-1.23-3.94-3.64-5.77-.24,6.59-.35,12.66-3.95,18-4.12-3.52-5.59-9.14-9.23-13.19.1-.65.19-1.31.29-2,2.47-.2,3.7-.93,1.32-3.16C481.78,213.33,482.71,208.06,485.63,203.52Z" class="cls-3"/><path d="M480.24,218.37c2.38,2.23,1.15,3-1.32,3.16Z" class="cls-6"/><path d="M309.3,240.82a4.45,4.45,0,0,0,1.38-.52c4.33-3.69,8.88-4.64,13.91-1.34a9.51,9.51,0,0,0,2.84.76l6.26,3.67c-3.69,1.16-6.59-3.3-10.46-1.36-5,2.51-9.91,5.12-13.67,9.41l-15.05,1.07C298.49,247.4,304.51,244.9,309.3,240.82Z" class="cls-3"/><path d="M294.51,252.51l15.05-1.07c-.08,2.09,1.72,3,2.77,4.34,1.84,2.42,4.92,3.65,6.22,6.57a3.07,3.07,0,0,1-.25.72c-6.73,1.33-13.18-.79-19.73-1.55C296.52,258.83,294.77,256,294.51,252.51Z" class="cls-14"/><path d="M193.56,252.49c.16-1.73,1.33-2,2.8-2,5.92,0,11.73-1,17.55-2,1.07-.18,2.65.5,3.06-.86.49-1.64-.74-2.52-2.18-3.32s-3.1-2.24.22-3c4.73,1.92,8.13,5.92,12.67,8.13-1.53,2-4,1.75-5.89,1.75C212.35,251.22,203,253,193.56,252.49Z" class="cls-4"/><path d="M567.55,230.45c-2-3-2.95-6.45-4.16-9.81-.56-1.54-.25-3.85-2.77-4.15,0-.68,0-1.36,0-2a139.55,139.55,0,0,0-7.24-21.58c-1-2.23-.34-2.63,1.34-3.68a52.61,52.61,0,0,0,10.85-8.6l2,0c1.23,1.49,3,2,4.71,2.63,9.13,3.44,18.37,6.61,27.44,10.21,6.89,2.74,15.61,3.1,17.84,12.54l0,.3c.09.85.11,1.74,1,2.2,1.14,5.81,2.7,11.35-.62,17.37-1.83,3.32-3.87,7.3-3.35,11.63-9.93-1.66-19.85-3.41-29.8-4.92C579.07,231.65,573.4,230.25,567.55,230.45Z" class="cls-8"/><path d="M617.55,205.93c-2.23-9.44-10.95-9.8-17.84-12.54-9.07-3.6-18.31-6.77-27.44-10.21-1.67-.63-3.48-1.14-4.71-2.63,3.36-4.66,8.45-7.22,12.92-10.51,1.45-1.07,3.18-1.76,4.1-3.46,1-.33,2-.71,2-2.06l0,0c2.12,0,2.93-1.7,4-3l-.06,0,1.06-1,0,.07c1.52.06,2.36-.87,3-2.06l0,.05c1.06-.28,2.24-.46,2-2h0c4.34-.35,6.49-4.28,9.94-6.08,4.88,6.32,7.67,14,12.89,20.06a4.34,4.34,0,0,0,2.13,3l0-.07,1,1.05,0,0a1.64,1.64,0,0,0,1,2l0,0c.08.6.3,1.07,1,1l0,0q1.54,4.59,3.1,9.18a16.18,16.18,0,0,1-2.44,2.39C618.87,193,615.61,198.28,617.55,205.93Z" class="cls-14"/><path d="M672.55,255.46c-3.61-1.69-1.95-5.36-3-8s.55-6.32-3.06-8c.6-1.45,1-3.08,3.08-3.1C669.64,242.86,671.63,249.08,672.55,255.46Z" class="cls-9"/><path d="M627.62,186.66q-1.56-4.59-3.1-9.18a4.69,4.69,0,0,1,2.75,3.17c1.31,3.39,4.47,3.64,7.17,4.72C632.11,185.49,629.68,185.09,627.62,186.66Z" class="cls-9"/><path d="M618.55,208.43c-.93-.46-.95-1.35-1-2.2A2.46,2.46,0,0,1,618.55,208.43Z" class="cls-14"/><path d="M606.53,150.45c-3.45,1.8-5.6,5.73-9.94,6.08,4.07-4.13,8.66-7.87,8-14.7a106.63,106.63,0,0,1,0-11.86,47.31,47.31,0,0,1,1.9-13.42Q606.51,133.5,606.53,150.45Z" class="cls-9"/><path d="M621.55,173.52a4.34,4.34,0,0,1-2.13-3C622.08,170.12,621.31,172.18,621.55,173.52Z" class="cls-9"/><path d="M623.54,176.5a1.64,1.64,0,0,1-1-2A1.72,1.72,0,0,1,623.54,176.5Z" class="cls-9"/><path d="M624.54,177.5c-.72,0-.94-.43-1-1Z" class="cls-9"/><path d="M622.55,174.5l-1-1.05Z" class="cls-9"/><path d="M318.55,262.35c-1.3-2.92-4.38-4.15-6.22-6.57-1.05-1.38-2.85-2.25-2.77-4.34,3.76-4.29,8.66-6.9,13.67-9.41,3.87-1.94,6.77,2.52,10.46,1.36l-.12,0c.21.53.48.81.93.18,2.14.68,4.95.51,4.94,3.91a27.67,27.67,0,0,0-6.35,6.78C329.54,259.24,324.54,261.7,318.55,262.35Z" class="cls-4"/><path d="M327.29,235l-.76-1.59C327.32,233.69,327.24,234.38,327.29,235Z" class="cls-6"/><path d="M334.5,243.55c-.45.63-.72.35-.93-.18A1.66,1.66,0,0,1,334.5,243.55Z" class="cls-3"/><path d="M565.56,180.59a52.61,52.61,0,0,1-10.85,8.6c-1.68,1.05-2.32,1.45-1.34,3.68a139.55,139.55,0,0,1,7.24,21.58c-1.49,0-2.06.94-2.19,2.28a10.83,10.83,0,0,1-4.71,2c-1.34-2.11-2.9-.53-4.41-.29-5.28.84-10.08,3.4-15.71,3.43-4.8,0-8.54-2-12.58-3.67s-8-3.94-12.17-5.38a17.68,17.68,0,0,1-7.34-4.87c-4.86-5.19-4.92-7.5.08-12.87a37.45,37.45,0,0,0,5-6.76c5.42-1.76,11.11-.72,16.67-1.56,7.33-1.1,14.85-1.1,22.29-1.19,4.12-.05,4.28-1.33,2.83-4.73-2.88-6.78-5.82-13.32-6-21.22-.33-10.86,2.71-20.09,8.36-28.92.95-1.49,1.26-3.38,1.87-5.08l1.73-1.29c1.08,9,2.14,17.94,3.27,26.9a20,20,0,0,0,1,3.29Q562.06,167.54,565.56,180.59Z" class="cls-4"/><path d="M590.63,161.51c-1.09,1.34-1.9,3.05-4,3C586.67,161.84,588.4,161.35,590.63,161.51Z" class="cls-9"/><path d="M594.63,158.5c-.68,1.19-1.52,2.12-3,2.06C591.61,158.4,593.11,158.44,594.63,158.5Z" class="cls-9"/><path d="M586.63,164.52c0,1.35-1,1.73-2,2.06C584.58,165.21,585.2,164.47,586.63,164.52Z" class="cls-9"/><path d="M596.62,156.53c.21,1.56-1,1.74-2,2A1.72,1.72,0,0,1,596.62,156.53Z" class="cls-9"/><path d="M591.63,160.49l-1.06,1Z" class="cls-9"/><path d="M520.55,260.73l-2.91.14c-1-3-4.14-3.68-6.19-5.56,2.58-5,6.39-8.42,12-9.69,2.14.48,5.69.06,5.89,2.26.36,3.83-2.66,6.83-5,9.72A25.76,25.76,0,0,1,520.55,260.73Z" class="cls-4"/><path d="M504.35,222.75c2.58-2.63,4.5-.78,6.44.95C508.66,223.29,506.36,224,504.35,222.75Z" class="cls-3"/><path d="M558.42,216.73c.13-1.34.7-2.25,2.19-2.28,0,.68,0,1.36,0,2Z" class="cls-6"/><path d="M206.58,198.5l-.46.39.4-.45Z" class="cls-3"/><path d="M527.48,95.44c-4.33,1.59-8.6,3.4-13,4.68-1.86.54-4.21,1.38-6-.66,7.07,0,13-3.7,19.19-6.31C527.61,93.91,527.54,94.67,527.48,95.44Z" class="cls-5"/><path d="M526.37,73.68q.9,7.23,1.82,14.46c.21,1.62.63,3.23-.58,4.66C526.28,86.49,524.4,80.21,526.37,73.68Z" class="cls-11"/><path d="M507.64,100.2c-3.56,3.22-8,2-12.1,2.36C499.32,100.49,503.54,100.63,507.64,100.2Z" class="cls-11"/></svg>