<svg xmlns="http://www.w3.org/2000/svg" viewBox="0 0 94.14 86.91"><defs><style>.cls-1{fill:#f04c46}.cls-2{fill:#ba3936;fill-rule:evenodd}.cls-3{fill:#fff}</style></defs><title>Starfish</title><g id="Layer_2" data-name="Layer 2"><g id="Layer_1-2" data-name="Layer 1"><path d="M40.05,86.76c4,1,6.63-3.55,7.92-6.48,2.27-5.14,4.48-10.3,6.72-15.45A11.66,11.66,0,0,1,57.85,60c2.21-1.69,5.29-1.53,8-.92,6.9,1.56,13.64,2,20.51,4.1a11.86,11.86,0,0,0,4.14.77,3.86,3.86,0,0,0,3.42-2.13A4,4,0,0,0,93,57.9a12.1,12.1,0,0,0-3.4-2.42c-5.36-3-16-7.91-17.95-14.45a10.89,10.89,0,0,1,.51-6.29,33.13,33.13,0,0,1,5-10.39c2.16-2.74,4.69-4.94,6.32-8.15.76-1.51,1.29-3.45.28-4.8s-3.28-1.35-5-.85A36,36,0,0,0,67.9,15.77c-2.68,1.89-5.29,3.93-8.3,5.19s-6.54,1.68-9.47.25A16.61,16.61,0,0,1,45,16.63C41.73,12.69,38,8.71,35.28,4.32c-1.51-2.48-5.82-6.14-8.69-3.27-2.58,2.58-.36,8.27.5,11.16a62.89,62.89,0,0,1,2.51,14c.16,2.46.27,5.91-1.2,8.06-1.36,2-5.34,3.09-7.49,4A111.14,111.14,0,0,1,8.78,42.86c-2.4.74-5.71,1-7.52,3C-.93,48.28-.15,50.8,2.72,51.58c8,2.2,16.76.25,24.74,2.94a13.14,13.14,0,0,1,6.2,4c2.25,2.82,1.27,5.48,1.53,8.69.32,4,.58,7.93.87,11.89.23,3.1,1,6.92,4,7.69" class="cls-1"/><path d="M67.55,39.4c-.19-1.33-1.9-1.7-3.23-1.74-2.55-.08-6.47.61-8.58-1s-2.2-9.72-3-11.88A3.32,3.32,0,0,0,51.62,23c-1-.61-2.34.06-3,1s-1.29,6.73-1.8,7.79c-1.32,2.74-2.34,3.14-5.21,3-1.79-.09-7.87-2.13-9-1.15a2.12,2.12,0,0,0-.29,2.74c1.14,1.67,4.22,2.45,6,4,2.24,1.89,3.07,2.93,1.9,5.64-1.05,2.42-1.76,3.61-2.81,6-.2.45-.72,2.27-.39,2.62a1.09,1.09,0,0,0,1,.19c2.34-.39,4-2.46,5.61-4.2C46.08,48,47.49,47,50.1,50.54c1.6,2.18,2.38,3.55,3.58,5.47.53.83,1,1.81,2.13,2.08,1.18,0,1.42-.86,1.44-1.62.06-3.25-2.19-8-1.46-11.21.78-3.36,6.82-2.11,9.53-3.3C66.43,41.46,67.71,40.61,67.55,39.4Z" class="cls-2"/><path d="M5.35,46A1.82,1.82,0,0,0,4,46.35,1.83,1.83,0,0,0,3.6,48.9a1.89,1.89,0,0,0,1.18.72A1.81,1.81,0,0,0,6.84,48.1a1.8,1.8,0,0,0-.32-1.35A1.85,1.85,0,0,0,5.35,46Z" class="cls-3"/><path d="M10.36,45.45A1.81,1.81,0,0,0,8.3,47a1.8,1.8,0,0,0,.32,1.35,1.85,1.85,0,0,0,1.17.73,1.82,1.82,0,0,0,1.34-.33,1.85,1.85,0,0,0,.73-1.19,1.92,1.92,0,0,0-.32-1.36A1.89,1.89,0,0,0,10.36,45.45Z" class="cls-3"/><path d="M15.28,45.47a1.22,1.22,0,0,0-1.17,1.92,1.19,1.19,0,0,0,1.68.27,1.3,1.3,0,0,0,.49-.8,1.23,1.23,0,0,0-1-1.39Z" class="cls-3"/><path d="M20.23,45.26a.86.86,0,0,0-.62.16.87.87,0,0,0-.34.55.88.88,0,0,0,.15.63.83.83,0,0,0,1.17.19.86.86,0,0,0,.19-1.19A.91.91,0,0,0,20.23,45.26Z" class="cls-3"/><path d="M25.4,43.73a1.82,1.82,0,0,0-1.34.33,1.87,1.87,0,0,0-.73,1.19,1.82,1.82,0,0,0,1.5,2.08A1.82,1.82,0,0,0,26.17,47a1.9,1.9,0,0,0,.73-1.19,1.92,1.92,0,0,0-.32-1.36A1.89,1.89,0,0,0,25.4,43.73Z" class="cls-3"/><path d="M30.35,43.54a1.43,1.43,0,0,0-1.62,1.19A1.45,1.45,0,0,0,29,45.8a1.4,1.4,0,0,0,2,.31,1.45,1.45,0,0,0,.57-.93,1.5,1.5,0,0,0-.25-1.07A1.48,1.48,0,0,0,30.35,43.54Z" class="cls-3"/><path d="M35.43,42.58a1.86,1.86,0,0,0-1.35.33,1.84,1.84,0,0,0-.4,2.55,1.8,1.8,0,0,0,2.52.39,1.82,1.82,0,0,0,.72-1.19,1.84,1.84,0,0,0-.32-1.35A1.88,1.88,0,0,0,35.43,42.58Z" class="cls-3"/><path d="M31.34,3.39a1.84,1.84,0,0,0-.74-1.17,1.82,1.82,0,0,0-1.36-.31,1.85,1.85,0,0,0-1.18.73A1.83,1.83,0,0,0,27.74,4a1.84,1.84,0,0,0,.74,1.17,1.82,1.82,0,0,0,2.86-1.76Z" class="cls-3"/><path d="M32.67,8.09a1,1,0,0,0-.41-.65,1.05,1.05,0,0,0-.75-.17,1.07,1.07,0,0,0-.66.41,1,1,0,0,0-.18.74,1.05,1.05,0,0,0,.41.65,1,1,0,0,0,.76.17,1,1,0,0,0,.65-.4A1,1,0,0,0,32.67,8.09Z" class="cls-3"/><path d="M35.07,12.62a1.29,1.29,0,0,0-2.31-.53,1.35,1.35,0,0,0-.23.95,1.31,1.31,0,0,0,.52.83,1.37,1.37,0,0,0,1,.22,1.34,1.34,0,0,0,.84-.52A1.28,1.28,0,0,0,35.07,12.62Z" class="cls-3"/><path d="M37.73,17.11A1.79,1.79,0,0,0,37,15.94a1.84,1.84,0,0,0-1.36-.31,1.9,1.9,0,0,0-1.19.73,1.87,1.87,0,0,0-.31,1.34,1.79,1.79,0,0,0,.73,1.17,1.85,1.85,0,0,0,2.55-.42A1.87,1.87,0,0,0,37.73,17.11Z" class="cls-3"/><path d="M39.23,21.79a1.17,1.17,0,0,0-.48-.76,1.18,1.18,0,0,0-1.64.27,1.17,1.17,0,0,0,.27,1.63,1.18,1.18,0,0,0,1.85-1.14Z" class="cls-3"/><path d="M42,26.25a1.82,1.82,0,0,0-2.1-1.48,1.83,1.83,0,0,0-1.5,2.08,1.83,1.83,0,0,0,3.28.75A1.9,1.9,0,0,0,42,26.25Z" class="cls-3"/><path d="M44.13,30.83a1.84,1.84,0,0,0-.74-1.17A1.82,1.82,0,0,0,42,29.35a1.85,1.85,0,0,0-1.18.73,1.8,1.8,0,0,0,1.78,2.82,1.87,1.87,0,0,0,1.18-.73A1.83,1.83,0,0,0,44.13,30.83Z" class="cls-3"/><path d="M56.86,32.1a1.83,1.83,0,0,0-.92,1A1.83,1.83,0,0,0,57,35.46a1.93,1.93,0,0,0,1.38-.06,1.88,1.88,0,0,0,.93-1A1.91,1.91,0,0,0,59.27,33a1.82,1.82,0,0,0-2.41-.88Z" class="cls-3"/><path d="M60.91,29.29a1.28,1.28,0,0,0-.65.72,1.33,1.33,0,0,0,.05,1,1.35,1.35,0,0,0,.73.66,1.3,1.3,0,0,0,1,0,1.26,1.26,0,0,0,.64-.72,1.28,1.28,0,0,0,0-1,1.26,1.26,0,0,0-1.69-.61Z" class="cls-3"/><path d="M64.49,25.49a1.83,1.83,0,0,0-.92,1,1.86,1.86,0,0,0,.07,1.39A1.79,1.79,0,0,0,67,27.76a1.86,1.86,0,0,0-.07-1.39,1.82,1.82,0,0,0-2.41-.88Z" class="cls-3"/><path d="M68.7,23a.89.89,0,0,0-.46.51.92.92,0,0,0,0,.69.94.94,0,0,0,.51.47.9.9,0,0,0,1.14-.55A.91.91,0,0,0,69.38,23,.94.94,0,0,0,68.7,23Z" class="cls-3"/><path d="M72.12,18.89a1.86,1.86,0,0,0-.93,1,1.94,1.94,0,0,0,.08,1.4,1.8,1.8,0,1,0,2.23-2.49A1.88,1.88,0,0,0,72.12,18.89Z" class="cls-3"/><path d="M76.3,16.35a1,1,0,0,0-.5.55,1,1,0,0,0,0,.74,1,1,0,0,0,.54.5,1,1,0,0,0,.74,0,1,1,0,0,0,.49-.55A1,1,0,0,0,77,16.32,1,1,0,0,0,76.3,16.35Z" class="cls-3"/><path d="M79.74,12.28a1.86,1.86,0,0,0-.92,1,1.81,1.81,0,0,0,.08,1.39,1.86,1.86,0,0,0,1,.94,1.88,1.88,0,0,0,1.38-.07,1.81,1.81,0,0,0,.84-2.42,1.8,1.8,0,0,0-2.41-.87Z" class="cls-3"/><path d="M61,48.26a.91.91,0,0,0-.64-.16.87.87,0,0,0-.58.34.85.85,0,0,0-.17.65.85.85,0,0,0,1,.74.92.92,0,0,0,.58-.34A.88.88,0,0,0,61,48.26Z" class="cls-3"/><path d="M66.23,49.36A1.79,1.79,0,0,0,64.9,49a1.83,1.83,0,0,0-1.2.71A1.8,1.8,0,0,0,64,52.27a1.83,1.83,0,0,0,1.34.34,1.83,1.83,0,0,0,1.55-2.06A1.84,1.84,0,0,0,66.23,49.36Z" class="cls-3"/><path d="M70.6,51.64a1.35,1.35,0,0,0-.94-.24,1.34,1.34,0,0,0-.84.5,1.29,1.29,0,0,0-.25,1,1.35,1.35,0,0,0,.49.84,1.36,1.36,0,0,0,.94.24,1.34,1.34,0,0,0,.84-.5,1.28,1.28,0,0,0-.24-1.79Z" class="cls-3"/><path d="M75.62,53.06a1.82,1.82,0,0,0-1.34-.34,1.79,1.79,0,0,0-1.19.71,1.86,1.86,0,0,0-.36,1.34,1.9,1.9,0,0,0,.7,1.2,1.83,1.83,0,0,0,1.34.34,1.83,1.83,0,0,0,1.55-2.06A1.84,1.84,0,0,0,75.62,53.06Z" class="cls-3"/><path d="M80.32,54.91a1.8,1.8,0,0,0-2.54.37,1.8,1.8,0,0,0-.35,1.34,1.78,1.78,0,0,0,2,1.54,1.92,1.92,0,0,0,1.2-.71,1.8,1.8,0,0,0-.34-2.54Z" class="cls-3"/><path d="M84.6,57.3a1.14,1.14,0,0,0-1.58.23,1.12,1.12,0,0,0-.22.84,1.15,1.15,0,0,0,.43.75,1.19,1.19,0,0,0,.84.21,1.17,1.17,0,0,0,.74-.44,1.11,1.11,0,0,0,.22-.84A1.18,1.18,0,0,0,84.6,57.3Z" class="cls-3"/><path d="M89.71,58.6a1.82,1.82,0,0,0-2.54.37,1.83,1.83,0,0,0-.35,1.35,1.85,1.85,0,0,0,.69,1.2,1.82,1.82,0,0,0,2.54-.37,1.83,1.83,0,0,0,.35-1.35A1.85,1.85,0,0,0,89.71,58.6Z" class="cls-3"/><path d="M40.34,81.64a1.47,1.47,0,0,0-.06,1.09,1.44,1.44,0,0,0,1.84.89,1.42,1.42,0,0,0,.82-.72A1.47,1.47,0,0,0,43,81.81a1.44,1.44,0,0,0-1.84-.89A1.42,1.42,0,0,0,40.34,81.64Z" class="cls-3"/><path d="M41.64,76.87a1,1,0,0,0,0,.76,1,1,0,0,0,.51.57,1.06,1.06,0,0,0,.76,0,1,1,0,0,0,.57-.51,1,1,0,0,0,.05-.76,1.07,1.07,0,0,0-.52-.57,1,1,0,0,0-1.33.46Z" class="cls-3"/><path d="M41.8,71.55a1.83,1.83,0,0,0,2.25,2.5,1.77,1.77,0,0,0,1.11-2.29,1.84,1.84,0,0,0-2.32-1.13A1.92,1.92,0,0,0,41.8,71.55Z" class="cls-3"/><path d="M43.21,66.83a1.25,1.25,0,0,0-.05,1,1.33,1.33,0,0,0,.64.72,1.25,1.25,0,0,0,1.68-.58,1.24,1.24,0,0,0-.59-1.66,1.28,1.28,0,0,0-1-.06A1.31,1.31,0,0,0,43.21,66.83Z" class="cls-3"/><path d="M43.61,61.62A1.83,1.83,0,0,0,43.53,63a1.82,1.82,0,0,0,2.32,1.12A1.77,1.77,0,0,0,47,61.83a1.81,1.81,0,0,0-3.35-.21Z" class="cls-3"/><path d="M44.51,56.65a1.81,1.81,0,0,0,.85,2.42,1.81,1.81,0,0,0,2.43-.83,1.83,1.83,0,0,0,.07-1.38,1.78,1.78,0,0,0-.93-1,1.81,1.81,0,0,0-1.39-.09A1.84,1.84,0,0,0,44.51,56.65Z" class="cls-3"/><path d="M46.06,52a1.16,1.16,0,0,0-.05.84,1.13,1.13,0,0,0,.57.63,1.16,1.16,0,0,0,.84.05A1.1,1.1,0,0,0,48,53a1.09,1.09,0,0,0,.05-.83,1.15,1.15,0,0,0-.56-.63,1.14,1.14,0,0,0-.85,0A1.15,1.15,0,0,0,46.06,52Z" class="cls-3"/></g></g></svg>