<svg xmlns="http://www.w3.org/2000/svg" viewBox="0 0 275.81 391.99"><defs><style>.cls-1,.cls-2{fill:#ffd576;fill-rule:evenodd}.cls-2{fill:#f2ca6d}.cls-3{fill:#cea95f}.cls-4{fill:#e59600}</style></defs><title>Surfboard_New</title><g id="Layer_2" data-name="Layer 2"><g id="Layer_1-2" data-name="Layer 1"><path d="M11.84,15.72C16.59-5.09,14.9-2.42,32.7,7.59c81.74,46,167.77,132.87,243.11,247.68V392H40.51C-1.2,247.52-10.6,113.87,11.84,15.72Z" class="cls-1"/><path d="M28,20.09c-9.09-5.13-13.1-8.31-15.48-7.45C16.47-4.8,15.83-1.91,32.7,7.59c81.74,46,167.77,132.87,243.11,247.68v17.92l-4.68-5.42C195.78,153,109.75,66.09,28,20.09Z" class="cls-2"/><path d="M101.35,345.1a1.61,1.61,0,1,0,2,.79A1.55,1.55,0,0,0,101.35,345.1Z" class="cls-3"/><path d="M106.1,342.78a1.61,1.61,0,1,0,2,.79A1.55,1.55,0,0,0,106.1,342.78Z" class="cls-3"/><path d="M100.75,165.47,96.51,199.7l2.44.15h.29a.94.94,0,0,1,.22,0l.27,0c.36,0,.75.08,1.17.16l.66.11.69.16c.49.08,1,.26,1.53.39a23.72,23.72,0,0,1,7.27,3.69,24.57,24.57,0,0,1,7.09,8.43,26.59,26.59,0,0,1,1.29,2.92c.08.26.17.52.26.78l.13.39.11.4c.08.27.16.54.23.81s.13.56.19.84l.1.42.07.42.15.86c0,.29.07.59.11.88l0,.45,0,.44c0,.3,0,.61.07.91s0,.61,0,.92v.35c0-.13,0,.37,0-.27v.08l0,.7-.06,1.05a2.44,2.44,0,0,0,0,.27v.14l0,.2c0,.27-.06.55-.11.83s-.09.55-.14.83-.13.55-.18.83a19.49,19.49,0,0,1-1.15,3.29,19.75,19.75,0,0,1-4.31,6,20.52,20.52,0,0,1-6.72,4.25,21.27,21.27,0,0,1-4,1.1c-.35.07-.7.1-1,.15s-.72.06-1.08.09a9.84,9.84,0,0,1-1.09,0h-.41c-.25,0,.27,0,.18,0h-.1l-.8,0-.54,0H99c-.3,0-.64-.07-1-.12s-.65-.11-1-.19-.64-.16-1-.25A15.61,15.61,0,0,1,92.44,242a16.45,16.45,0,0,1-5.78-6A16.81,16.81,0,0,1,85,231.91a17.43,17.43,0,0,1-.39-2.18,10.36,10.36,0,0,1-.1-1.12,5.33,5.33,0,0,1,0-.56v-.5c0,.06,0-.24,0,.12l.08-1.29v-.18c0-.07,0-.16,0-.24s0-.34.07-.51a11.46,11.46,0,0,1,.49-2,11.26,11.26,0,0,1,.8-1.9,12.67,12.67,0,0,1,1.12-1.78A13.81,13.81,0,0,1,94,214.91a15.1,15.1,0,0,1,2.14-.48,16.29,16.29,0,0,1,2.21-.14l-.2,0h.3l.38,0,.78.06a1.24,1.24,0,0,1,.24,0l.18,0,.36.05h.1l.12,0,.24.07.49.12a2.7,2.7,0,0,1,.48.16l.47.18a11.17,11.17,0,0,1,5.87,5.58,11.71,11.71,0,0,1,1.09,4c0,.35,0,.7,0,1.06v.07c0,.06.05-.35,0-.13l0,.17,0,.36-.06.71c-.06.27-.08.48-.12.76s-.16.63-.27.93a9.4,9.4,0,0,1-5.21,5.56,9.53,9.53,0,0,1-3.83.77h-.13s-.18,0,.09,0h-.08l-.31,0-.63-.05-.38-.07a1.47,1.47,0,0,1-.38-.07,8.7,8.7,0,0,1-.87-.26l-.42-.16-.41-.21a7.91,7.91,0,0,1-1.51-1,9.11,9.11,0,0,1-1.23-1.33,8.22,8.22,0,0,1-1.43-3.26c-.06-.29-.08-.58-.13-.88l0-.88s0,.14,0,0v-.2l0-.27,0-.27V226l0-.08.06-.35a2,2,0,0,1,.1-.39,6.86,6.86,0,0,1,.62-1.51,7.92,7.92,0,0,1,.46-.67l.25-.32.28-.29a5.12,5.12,0,0,1,.59-.55c.2-.17.43-.31.64-.47a6.86,6.86,0,0,1,1.42-.68,7.06,7.06,0,0,1,3-.36h.11l.08,0,.16,0,.32.06.55.16A5.41,5.41,0,1,0,102,230.89l.14-.07.26-.1a5.67,5.67,0,0,0,2.75-2.76,6.16,6.16,0,0,0,.55-2.51,7.27,7.27,0,0,0-.53-2.9,7.56,7.56,0,0,0-5.31-4.5,9.63,9.63,0,0,0-8.12,1.9l-.46.38c-.15.14-.29.28-.43.43a9,9,0,0,0-.81.92,9.8,9.8,0,0,0-1.27,2.18c-.08.21-.17.39-.24.61l-.21.69-.05.18c0,.06,0,.11,0,.15l0,.27-.06.26,0,.13v.07c0-.07,0,.16,0,.17,0,.43-.09.86-.12,1.3s0,.88,0,1.33a12.59,12.59,0,0,0,1.56,5.3,12.55,12.55,0,0,0,4,4.38l.64.43.69.38a13.26,13.26,0,0,0,1.43.65,7.13,7.13,0,0,0,.82.28l.85.24.62.13.31.06.08,0,.24,0,.2,0a16,16,0,0,0,6.39-.44,16.41,16.41,0,0,0,6-3.11,16.65,16.65,0,0,0,4.45-5.55c.29-.54.5-1.12.74-1.69s.42-1.34.59-2l.15-.7.07-.35,0-.18,0-.31v-.11c.07-.59.12-1.2.18-1.8a21.08,21.08,0,0,0-4.6-14.14,21.33,21.33,0,0,0-6.06-5.21l-.9-.49a7.83,7.83,0,0,0-.92-.45l-1-.4-.48-.2-.24-.1-.28-.08-1.13-.34-.57-.16-.51-.13-.76-.16-.38-.08-.19,0-.1,0c-.16,0,.23,0-.39-.06a26.15,26.15,0,0,0-8.09.07,27.14,27.14,0,0,0-14.75,7.64,29.79,29.79,0,0,0-2.8,3.32,26,26,0,0,0-2.27,3.77A28.37,28.37,0,0,0,70,221.58c-.12.35-.21.71-.31,1.07l-.14.55-.14.62-.13.62-.1.51-.15.8L68.83,227c0,.35-.09.7-.11,1.06,0,.71-.1,1.42-.1,2.13a34.37,34.37,0,0,0,.19,4.3,33.85,33.85,0,0,0,2.06,8.43A34.7,34.7,0,0,0,81.1,257.08a35.38,35.38,0,0,0,7.58,4.75c.68.31,1.36.62,2.07.88s1.41.51,2.12.74,1.43.42,2.18.62l1.25.27.63.12.42.08.79.15.1,0,.38.05.26,0,.52.06c.7.09,1.41.18,2.11.21s1.41.11,2.12.11,1.42,0,2.13,0a42.67,42.67,0,0,0,8.43-1.08,43.12,43.12,0,0,0,15.3-6.9,44,44,0,0,0,11.41-11.95,44.49,44.49,0,0,0,3.79-7.23c.24-.63.48-1.26.73-1.89l.63-1.91c.19-.64.36-1.29.54-1.93l.13-.48.12-.56.24-1.11.2-1,.13-.68.13-.69.15-1.22c.07-.61.14-1.22.22-1.83s.09-1.21.13-1.82l.06-.91c0-.31,0-.61,0-.91l0-1.82-.06-1.8,0-.9c0-.29-.05-.59-.07-.89s0-.31,0-.47C148,215.16,148.58,170.06,100.75,165.47Z" class="cls-4"/></g></g></svg>