<svg xmlns="http://www.w3.org/2000/svg" xmlns:xlink="http://www.w3.org/1999/xlink" width="200" height="200" viewBox="0 0 200 200">
  <defs>
    <linearGradient id="linear-gradient" x1="0.769" y1="0.835" x2="0.177" y2="0.205" gradientUnits="objectBoundingBox">
      <stop offset="0" stop-color="#004683" stop-opacity="0.82"/>
      <stop offset="1" stop-color="#fff" stop-opacity="0"/>
    </linearGradient>
  </defs>
  <g id="Group_3" data-name="Group 3" transform="translate(-47.436 -293.639)">
    <path id="Path_21" data-name="Path 21" d="M100,0A100,100,0,1,1,0,100,100,100,0,0,1,100,0Z" transform="translate(47.436 293.639)" fill="url(#linear-gradient)"/>
    <path id="Path_4" data-name="Path 4" d="M75.263,372.521c0-11.488,14.774-49.189,65.318-54.748" transform="translate(-4 4)" fill="none" stroke="#fff" stroke-linecap="round" stroke-miterlimit="10" stroke-width="9" opacity="0.9"/>
    <path id="Path_6" data-name="Path 6" d="M193.719,388.54a4.144,4.144,0,0,0-4.139-4.139,4.087,4.087,0,0,0-1.349.245l-6.181-7.727a4.1,4.1,0,0,0,.633-2.174,4.133,4.133,0,0,0-7.1-2.886l-10.874-5.018c.011-.124.037-.244.037-.373a4.128,4.128,0,0,0-8.023-1.379H141.045a4.128,4.128,0,0,0-8.023,1.379,3.989,3.989,0,0,0,.051.5l-6.842,3.421a4.125,4.125,0,0,0-6.371,5.149l-6.181,7.726a4.087,4.087,0,0,0-1.349-.244,4.128,4.128,0,0,0-1.38,8.023v8.786a4.127,4.127,0,1,0,4.953,5.934l7.53,1.369a4.134,4.134,0,0,0,4.071,3.477c.055,0,.108-.013.163-.016l2.632,6.581a4.126,4.126,0,1,0,6.085,5.488l11.838,3.382a4.122,4.122,0,0,0,2.733,3.624h2.759a4.1,4.1,0,0,0,1.157-7.13l1.648-4.943,12.378,4.126a4.127,4.127,0,0,0,2.75,3.807l2.759,0a4.133,4.133,0,0,0,2.759-3.885,4.089,4.089,0,0,0-.269-1.428l10.585-8.82a4.089,4.089,0,0,0,2.1.592,4.128,4.128,0,0,0,1.38-8.023V392.423A4.131,4.131,0,0,0,193.719,388.54Zm-15.174-15.174a1.38,1.38,0,1,1-1.38,1.379A1.38,1.38,0,0,1,178.545,373.366Zm-1.962,5a3.924,3.924,0,0,0,3.309.273l6.182,7.728a3.841,3.841,0,0,0-.566,2.823l-9.772,5.33-7.117-5.931a4.021,4.021,0,0,0-.048-3.011Zm-17.351,22.589a4.08,4.08,0,0,0-1.773.415l-5.845-5.845,10.319-5.351a4.059,4.059,0,0,0,4.916.533l6.281,5.234-11.15,6.082A4.1,4.1,0,0,0,159.232,400.955Zm1.379,4.138a1.379,1.379,0,1,1-1.379-1.379A1.381,1.381,0,0,1,160.611,405.093ZM139.755,389.9l2.316,7.463-11.75,6.093a4.14,4.14,0,0,0-1.766-.971l-1.912-14.661,9.452-.473A4.136,4.136,0,0,0,139.755,389.9Zm-1.215-4.12a1.38,1.38,0,1,1,1.379,1.379A1.381,1.381,0,0,1,138.54,385.781Zm4.36,14.262,3.5,11.275L131.634,406.4a4.085,4.085,0,0,0-.049-.486Zm-.009-9.339L147,394.811l-2.441,1.265Zm.753-3.151a4.043,4.043,0,0,0,.066-3.423l6.55-6.114,10.558,7.918a4.1,4.1,0,0,0-.207,1.226,4.179,4.179,0,0,0,.057.563l-11.1,5.755Zm19.726-.393a1.38,1.38,0,1,1,1.38,1.38A1.381,1.381,0,0,1,163.37,387.16Zm12.04,10.68,9.884,8.237-21.416-1.946Zm-14.8-32.751a1.38,1.38,0,1,1-1.379,1.379A1.381,1.381,0,0,1,160.611,365.089Zm-1.895,5.036a4.061,4.061,0,0,0,4.854-.772l10.873,5.018c-.011.126-.037.246-.037.374a4.134,4.134,0,0,0,.317,1.584l-8.012,7.21a4.051,4.051,0,0,0-4.252.18l-10.151-7.614Zm-1.989-2.277c.033.089.056.183.094.27l-6.756,6.3-8.766-6.574Zm-19.567-2.759a1.38,1.38,0,1,1-1.379,1.379A1.381,1.381,0,0,1,137.16,365.089Zm-9.656,8.277a3.937,3.937,0,0,0-.051-.5l6.842-3.421a4.113,4.113,0,0,0,5.157.466l8.565,6.424-6.2,5.788a4.079,4.079,0,0,0-5.841,2.474l-9.689.484-1.049-8.044A4.125,4.125,0,0,0,127.5,373.366Zm-4.138-1.38a1.38,1.38,0,1,1-1.38,1.38A1.381,1.381,0,0,1,123.366,371.986Zm-1.35,5.274a4.319,4.319,0,0,0,.485.15l1.018,7.809-7.365.369a4.123,4.123,0,0,0-.319-.6Zm-9.686,8.521a1.38,1.38,0,1,1-1.38,1.379A1.38,1.38,0,0,1,112.33,385.781Zm0,19.312a1.379,1.379,0,1,1,1.379-1.379A1.381,1.381,0,0,1,112.33,405.093Zm11.6-.671-7.529-1.369a4.132,4.132,0,0,0-2.693-3.224v-8.785a4.135,4.135,0,0,0,2.566-2.7l7.6-.381L125.8,402.71A4.144,4.144,0,0,0,123.931,404.422Zm3.573,3.43a1.38,1.38,0,1,1,1.38-1.379A1.38,1.38,0,0,1,127.5,407.852Zm5.518,13.8a1.38,1.38,0,1,1,1.379-1.379A1.381,1.381,0,0,1,133.022,421.647Zm15.952,1.742-11.838-3.382a4.135,4.135,0,0,0-4.114-3.878c-.055,0-.108.014-.163.017l-2.632-6.582a4.117,4.117,0,0,0,.524-.556l16.656,5.553,2.46,7.924A4.183,4.183,0,0,0,148.974,423.389Zm3.361,3.776a1.38,1.38,0,1,1,1.379-1.379A1.381,1.381,0,0,1,152.335,427.165Zm.046-5.882-1.753-5.648,3.272,1.092Zm2.392-7.175-5.15-1.717-4.233-13.638,3.656-1.895,6.463,6.463a4.058,4.058,0,0,0-.415,1.772,4.115,4.115,0,0,0,1.6,3.246Zm18.254,8.919a1.38,1.38,0,1,1,1.379-1.38A1.381,1.381,0,0,1,173.027,423.027Zm2.1-4.928a4.067,4.067,0,0,0-5.345,1.013l-12.391-4.13,1.919-5.758a4.129,4.129,0,0,0,3.671-2.4l22.6,2.054a4.061,4.061,0,0,0,.127.406Zm2.89-21.681,8.816-4.809a4.093,4.093,0,0,0,1.37.814v11.545a4.129,4.129,0,0,0-.721.338Zm11.564,12.814a1.38,1.38,0,1,1,1.38-1.38A1.381,1.381,0,0,1,189.58,409.232Zm0-19.313a1.38,1.38,0,1,1,1.38-1.379A1.38,1.38,0,0,1,189.58,389.919Z" transform="translate(-3 3)" fill="#fff"/>
  </g>
</svg>
