<svg xmlns="http://www.w3.org/2000/svg" xmlns:xlink="http://www.w3.org/1999/xlink" width="200" height="200" viewBox="0 0 200 200">
  <defs>
    <linearGradient id="linear-gradient" x1="0.769" y1="0.835" x2="0.177" y2="0.205" gradientUnits="objectBoundingBox">
      <stop offset="0" stop-color="#004683" stop-opacity="0.82"/>
      <stop offset="1" stop-color="#fff" stop-opacity="0"/>
    </linearGradient>
  </defs>
  <g id="Layer_4" data-name="Layer 4" transform="translate(-320.436 -52.639)" opacity="0.9">
    <g id="Group_6" data-name="Group 6">
      <path id="Path_7" data-name="Path 7" d="M347.006,131.277c0-11.488,14.774-49.189,65.318-54.747" fill="none" stroke="#fff" stroke-linecap="round" stroke-miterlimit="10" stroke-width="9"/>
      <path id="Path_20" data-name="Path 20" d="M100,0A100,100,0,1,1,0,100,100,100,0,0,1,100,0Z" transform="translate(320.436 52.639)" fill="url(#linear-gradient)"/>
      <rect id="Rectangle_3" data-name="Rectangle 3" width="90.289" height="55.758" transform="translate(375.044 129.76)" fill="none" stroke="#fff" stroke-miterlimit="10" stroke-width="5"/>
      <g id="Group_5" data-name="Group 5" transform="translate(0 5)">
        <g id="Settings">
          <g id="Group_4" data-name="Group 4">
            <path id="Path_8" data-name="Path 8" d="M437.512,150.723a1.122,1.122,0,0,0-1.109-.849,3.809,3.809,0,0,1-2.607-6.629.958.958,0,0,0,.105-1.3,17.035,17.035,0,0,0-2.733-2.76.959.959,0,0,0-1.311.106,3.974,3.974,0,0,1-4.3.966,3.83,3.83,0,0,1-2.33-3.745.957.957,0,0,0-.847-1.007,17.24,17.24,0,0,0-3.88-.011.961.961,0,0,0-.855.987,3.836,3.836,0,0,1-2.362,3.681,3.987,3.987,0,0,1-4.27-.972.962.962,0,0,0-1.3-.11,17.135,17.135,0,0,0-2.79,2.759.959.959,0,0,0,.1,1.311,3.823,3.823,0,0,1,.964,4.3,3.988,3.988,0,0,1-3.753,2.332.937.937,0,0,0-1,.847,17.269,17.269,0,0,0-.008,3.923,1.141,1.141,0,0,0,1.131.848,3.783,3.783,0,0,1,3.549,2.364,3.833,3.833,0,0,1-.964,4.265.959.959,0,0,0-.105,1.3,17.135,17.135,0,0,0,2.729,2.761.958.958,0,0,0,1.313-.1,3.97,3.97,0,0,1,4.3-.967,3.825,3.825,0,0,1,2.334,3.744.958.958,0,0,0,.847,1.007,17.094,17.094,0,0,0,3.88.011.959.959,0,0,0,.854-.988,3.836,3.836,0,0,1,2.361-3.679,3.983,3.983,0,0,1,4.272.972.964.964,0,0,0,1.3.109,17.173,17.173,0,0,0,2.79-2.759.957.957,0,0,0-.1-1.311,3.822,3.822,0,0,1-.966-4.3,3.862,3.862,0,0,1,3.529-2.339l.213.006a.96.96,0,0,0,1.009-.846A17.269,17.269,0,0,0,437.512,150.723ZM420.4,158.429a5.754,5.754,0,1,1,5.754-5.754A5.76,5.76,0,0,1,420.4,158.429Z" fill="#fff"/>
          </g>
        </g>
      </g>
    </g>
  </g>
</svg>
