<svg id="Layer_1" data-name="Layer 1" xmlns="http://www.w3.org/2000/svg" viewBox="0 0 1641.8 351"><defs><style>.cls-1{fill:#fff;}</style></defs><title>Chevron</title><path class="cls-1" d="M978.109,177.174Q926.147,194.529,874.15,211.85l-33.886,11.329c-5.665,1.889-11.364,3.743-17,5.734a5.773,5.773,0,0,1-3.948.034q-38.058-12.72-76.15-25.406-38.727-12.925-77.489-25.818A2.008,2.008,0,0,1,664,175.457q.051-50.623.034-101.281c0-1.614.378-1.751,1.785-1.271q32.394,10.815,64.855,21.6c8.1,2.678,16.17,5.39,24.273,8.1,21.149,7.038,42.3,14.008,63.412,21.183a8.608,8.608,0,0,0,6.009-.068c19.157-6.455,38.349-12.806,57.541-19.227q26.214-8.754,52.392-17.475Q955.828,79.858,977.32,72.7a7.243,7.243,0,0,1,.824-.206Q978.092,124.816,978.109,177.174Z"/><path class="cls-1" d="M978.109,299.055c-5.493,1.51-10.849,3.5-16.273,5.321L888.3,328.89q-19.878,6.644-39.723,13.252c-8.446,2.815-16.857,5.6-25.269,8.48a5.962,5.962,0,0,1-4.085,0q-36.771-12.308-73.541-24.513-39.963-13.39-79.926-26.677a2.085,2.085,0,0,1-1.683-2.4q.053-50.469,0-100.938c0-2.026,0-2.026,1.957-1.373q30.54,10.145,61.078,20.325,46.606,15.552,93.179,31.1a3.229,3.229,0,0,0,2.129-.069q45.782-15.294,91.6-30.556,31.156-10.4,62.314-20.771a3.384,3.384,0,0,1,1.82-.412Q978.092,246.714,978.109,299.055Z"/><path class="cls-1" d="M700.7.017A44.237,44.237,0,0,1,707.6,1.8a1.783,1.783,0,0,1,1.305,2.3c-.618,3.193-1.167,6.386-1.717,9.579-.171,1.1-.515,1.3-1.648.858a22.358,22.358,0,0,0-13.561-1.167c-7.9,1.785-12.257,7.827-12.841,15.827a23.945,23.945,0,0,0,1.168,9.956c2.266,6.421,8.068,10.4,15.106,10.609a23.031,23.031,0,0,0,10.334-1.819c1.03-.481,1.3-.1,1.477.789.583,3.3,1.167,6.626,1.751,9.922.137.756.171,1.408-.79,1.786-10.609,3.811-27.535,3.4-37.079-7.485A30.306,30.306,0,0,1,664,37.3c-.069-.309.068-.686-.344-.892V27.14a3.59,3.59,0,0,0,.275-.79c1.717-12.634,8.686-20.943,20.806-24.822C686.8.875,688.994.5,691.123.017Z"/><path class="cls-1" d="M978.109,60.786c-3.879,0-7.793-.034-11.673.034-1.236.035-1.545-.377-1.51-1.545q.051-10.557.034-21.114a24.515,24.515,0,0,0-.515-5.94c-.893-3.536-2.953-5.321-6.146-5.356a7.317,7.317,0,0,0-6.866,5.253,11.307,11.307,0,0,0-.412,3.056c.034,7.965-.035,15.9.034,23.861,0,1.373-.24,1.888-1.751,1.854-3.33-.1-6.626-.1-9.956,0-1.477.034-1.957-.309-1.923-1.854.1-6.97.034-13.973.034-20.943,0-6.695.035-13.39-.515-20.05-.1-1.064.241-1.408,1.305-1.408q5.149.053,10.3,0c.892,0,1.236.309,1.236,1.167.068,1.58.171,3.159.309,4.979a21.794,21.794,0,0,1,4.7-4.7c7.622-5.184,20.36-3.914,23,9.2.069.344,0,.687.344.927Q978.092,44.477,978.109,60.786Z"/><path class="cls-1" d="M728.682,21.338a17.055,17.055,0,0,1,15.862-5.905c5.15.652,9.373,5.012,10.781,11.055a38.344,38.344,0,0,1,.892,8.823c.069,7.9,0,15.793.069,23.69,0,1.442-.412,1.854-1.854,1.819q-5.149-.155-10.3,0c-1.339.035-1.613-.412-1.579-1.648.034-7.827,0-15.69.034-23.518a15.176,15.176,0,0,0-.48-3.536c-.859-3.5-3.4-5.459-6.627-5.253a7.1,7.1,0,0,0-6.592,6.146,23.41,23.41,0,0,0-.205,3.09c0,7.622-.069,15.209.034,22.831.034,1.614-.481,1.991-2.026,1.957-3.364-.1-6.763-.069-10.128,0-1.064,0-1.511-.206-1.511-1.373q.052-26.677,0-53.353a1.446,1.446,0,0,1,1.2-1.683c3.639-1.167,7.244-2.4,10.815-3.742,1.442-.549,1.614-.069,1.614,1.236-.035,5.837-.035,11.673-.035,17.51C728.682,19.9,728.682,20.445,728.682,21.338Z"/><path class="cls-1" d="M801.639,48.564c.618,3.261,1.168,6.42,1.82,9.51.172.858-.172,1.064-.79,1.373a31.565,31.565,0,0,1-10.986,2.884c-7.382.584-14.626.275-20.909-4.429-4.875-3.639-7.278-8.686-8.205-14.488A27.436,27.436,0,0,1,764.045,28.1c3.193-7.69,9.1-11.844,17.235-13.08a23.723,23.723,0,0,1,12.291,1.167c6.592,2.712,9.922,8.068,11.5,14.729a39.145,39.145,0,0,1,.686,10.4c-.034,1.374-.515,1.923-2.06,1.923-8.514-.1-17.029,0-25.543-.069-1.614,0-1.82.515-1.373,1.889,1.167,3.57,4.737,6.111,9.269,6.42C791.717,51.894,793.4,51.585,801.639,48.564ZM784.3,33.354h6.867c.412,0,1.064.309,1.133-.583.24-2.575-2.06-6.455-4.566-7.519-5.047-2.2-11.433,2.06-11.364,7.519,0,.824.549.583.927.583C779.6,33.389,781.967,33.354,784.3,33.354Z"/><path class="cls-1" d="M908.723,62.537c-13.527.24-22.316-9.236-22.66-22.557a29.293,29.293,0,0,1,1.82-11.913c3.5-8.515,10.163-12.634,19.089-13.218,6.867-.446,13.184,1.133,18.2,6.18,3.88,3.879,5.631,8.72,6.249,14.076a29.884,29.884,0,0,1-1.511,13.8C927.057,56.838,919.641,62.812,908.723,62.537Zm-8.549-23.793a17.676,17.676,0,0,0,1.408,8.172c1.339,3.055,3.536,4.943,7.072,5.012A7.215,7.215,0,0,0,916,47.087a21.517,21.517,0,0,0-.034-16.823,7.2,7.2,0,0,0-7.21-4.806c-3.5.034-5.768,1.854-7.141,4.909A18.323,18.323,0,0,0,900.174,38.744Z"/><path class="cls-1" d="M829.655,47.843c2.163-8.343,4.223-16.377,6.317-24.411.481-1.82.961-3.639,1.373-5.459a1.527,1.527,0,0,1,1.717-1.442c4.051.069,8.137.069,12.188,0,1.3,0,1.373.378,1,1.511q-7,20.7-13.9,41.405a1.613,1.613,0,0,1-1.785,1.339c-4.567-.069-9.167-.069-13.733,0a1.647,1.647,0,0,1-1.854-1.27Q814.017,38.71,807,17.973c-.377-1.1-.24-1.442.962-1.407,4.12.034,8.239.068,12.359,0,1.065,0,1.374.515,1.58,1.338,2.4,9.373,4.806,18.712,7.244,28.085C829.277,46.469,829.415,46.984,829.655,47.843Z"/><path class="cls-1" d="M869.069,24.737c.583-1.2,1.03-2.129,1.51-3.022,2.919-5.321,8-6.763,13.218-5.973a.892.892,0,0,1,.859,1.03c0,3.707-.035,7.415,0,11.158,0,1.133-.721.961-1.374.858a13.131,13.131,0,0,0-5.424.034A9.91,9.91,0,0,0,870,38.2c-.138,6.9-.138,13.836-.1,20.737,0,1.511-.412,1.957-1.923,1.888q-4.892-.155-9.785,0c-1.51.035-2.025-.309-2.025-1.957.068-11.6.034-23.209,0-34.813,0-2.06-.172-4.12-.344-6.146-.068-.892.1-1.373,1.168-1.338,3.5.068,6.969.034,10.471,0,.927,0,1.133.377,1.167,1.235C868.725,20,868.9,22.2,869.069,24.737Z"/></svg>