<svg id="Layer_1" data-name="Layer 1" xmlns="http://www.w3.org/2000/svg" viewBox="0 0 1641.8 351"><defs><style>.cls-1{fill:#fff;}</style></defs><title>Citrix</title><g id="g38907"><path class="cls-1" d="M1242.984,83.794a22.05,22.05,0,1,1-22.12,22.049A22.078,22.078,0,0,1,1242.984,83.794Zm19.142,22.049a19.137,19.137,0,1,0-19.142,19.142A19.183,19.183,0,0,0,1262.126,105.843Z"/><path class="cls-1" d="M1252.919,117.878h-4.039a11.2,11.2,0,0,1-.323-3.069c0-5.17-1.605-6.543-6.057-6.543h-4.27v9.612h-3.877V93.648h8.157c5.18,0,10.419,1.13,10.419,7.026,0,4.119-3.16,5.492-5.967,5.9,3.625.808,5.5,2.989,5.5,7.269A11.926,11.926,0,0,0,1252.919,117.878Zm-4.281-17.2c0-2.827-2.342-4.119-6.149-4.119h-4.27v8.8h4.27C1246.468,105.359,1248.638,103.824,1248.638,100.674Z"/><polygon class="cls-1" points="1150.516 168.196 1213.838 266.489 1148.325 266.489 1117.967 212.86 1079.522 266.489 1013.363 266.489 1086.306 167.953 1030.415 84.44 1097.199 84.44 1118.764 123.047 1143.732 84.44 1210.768 84.44 1150.516 168.196"/><path class="cls-1" d="M976.624,281.835A34.2,34.2,0,1,1,942.379,316,34.185,34.185,0,0,1,976.624,281.835Z"/><path class="cls-1" d="M881.551,193.96l55.659,72.529H868.4l-34.73-54.356v54.356h-54.6V84.44h71.56c21.241,0,38.445,5.977,49.742,17.284,10.1,10.1,15.194,23.746,15.194,40.707C915.564,167.469,902.389,186.853,881.551,193.96ZM866.69,145.177c0-6.138-1.605-10.661-4.846-13.973-6.462-6.461-18.9-7.35-28.178-7.43v42.887C857.008,166.419,866.69,160.2,866.69,145.177Z"/><polygon class="cls-1" points="764.277 84.44 764.277 132.012 722.763 132.012 722.763 266.489 668.407 266.489 668.407 132.012 626.902 132.012 626.902 84.44 764.277 84.44"/><polygon class="cls-1" points="612.193 84.44 612.193 266.489 557.604 266.489 557.604 241.532 557.604 109.559 557.604 84.44 612.193 84.44"/><path class="cls-1" d="M584.9.765A34.246,34.246,0,1,1,550.658,34.93,34.238,34.238,0,0,1,584.9.765Z"/><path class="cls-1" d="M540.966,109.559,512.213,156c-8.077-13.408-24-22.05-40.06-22.05-22.949,0-39.738,18.658-39.738,41.6S449.2,217.07,472.153,217.07c16.062,0,31.983-8.642,40.06-22.05l28.753,46.522a95.462,95.462,0,1,1,0-131.983Z"/></g><polygon class="cls-1" points="1003.91 84.435 1003.91 266.485 949.32 266.485 949.32 241.536 949.32 109.562 949.32 84.435 1003.91 84.435"/></svg>