<svg id="Layer_1" data-name="Layer 1" xmlns="http://www.w3.org/2000/svg" viewBox="0 0 1641.8 351"><defs><style>.cls-1{fill:#fff;}</style></defs><title>CNB</title><path class="cls-1" d="M677.177,171.561c0,18.02.081,36.042-.046,54.062-.039,5.485,1.3,12.154-5.8,14.409-6.469,2.054-10.5-2.951-14.28-7.061q-26-28.272-51.765-56.764-11.485-12.63-22.876-25.346c-2.554-2.843-5.718-6.85-9.19-4.639-2.03,1.293-1.9,6.727-1.921,10.3-.182,24.659-.113,49.319-.225,73.978-.017,3.76-.658,8.527-4.788,8.987-6.328.7-7.267-4.665-7.279-9.567q-.148-56.908-.065-113.815c.014-5.406-1.247-11.892,5.888-14.363,6.562-2.272,10.641,2.039,14.493,6.321q31.395,34.9,62.735,69.856c4.434,4.94,8.719,10.021,13.3,14.822,1.9,1.991,4.543,4.01,7.3,1.77,1.185-.965,1.648-3.378,1.661-5.139.14-19.916.121-39.834.164-59.751.013-5.69-.061-11.387.182-17.068.194-4.563.016-10.416,5.98-10.857,6.649-.492,6.442,5.564,6.475,10.109C677.26,131.725,677.176,151.643,677.177,171.561Z"/><path class="cls-1" d="M87.181,84.153c-2.558,8.982-5.761,18.873-8.16,28.955-3.948,16.6-2.7,31.979,11.514,44.068,6.877,5.847,12.933,6.649,19.759-.152,8.881-8.847,15.291-19.228,20.546-30.436,2.808-5.986,5.03-12.279,8.216-18.048,3.052-5.528,8.455-7.555,14.566-6.13,7.92,1.846,10,7.919,9.647,15.165-.644,13.187-7.916,23.022-16.725,31.917-10.115,10.214-22.67,17.112-35.089,23.82C77.8,191.5,45.861,211.4,27.227,246.715c-1.809,3.429-4.077,6.9-8.434,5.452-5.217-1.729-6.687-6.6-6.337-11.515,1.025-14.415,9.476-24.616,20.6-32.446,13.926-9.8,28.63-18.5,42.709-28.092,12.1-8.245,12.006-10.55.989-20.983C50.9,134.653,44.616,109.488,57.826,83.324c5.1-10.1,14-13.511,23.219-8.934C84.7,76.2,86.924,78.974,87.181,84.153Z"/><path class="cls-1" d="M410.488,194.9c0,3.805.2,7.621-.038,11.411-.932,15.028,1.6,27.052,20.884,25.784,1.619-.106,3.349,1.465,5.027,2.256-1.633,2.092-2.84,5.281-4.966,6.107-25.8,10.036-42.684-1.276-43.544-29.094-.322-10.452.066-20.924-.133-31.382-.105-5.5,1.649-12.439-4.087-15.554-9.082-4.934-9.126-8.071.009-12.76,4.794-2.461,4.1-8.085,4.18-12.731.123-6.67,2.628-10.871,9.968-10.678,5.906.155,12.644.8,12.158,8.363-1.2,18.655,11.812,17.019,22.81,15.773,16.347-1.852,24.326,5.061,28.829,20.162,3.445,11.554,9.447,22.345,14.311,33.476,10.868-8.183,9.72-22.093,15.619-32.568,3.882-6.894,3.44-22,13.16-18.649,11.092,3.817.338,14.164-2.154,20.847-9.955,26.687-20.761,53.063-31.612,79.406-2.851,6.923-4.708,14.685-11.029,19.65-4.8,3.772-11.152,5.819-15.554,1.362-4.805-4.863,1.476-8.159,4.715-10.691,15.983-12.5,18.529-26.406,8.475-44.59-7.754-14.023-12.877-29.6-18.21-44.826-3.431-9.795-9.334-13.412-19.3-12.469-11.877,1.125-8.956,10.074-9.455,17.134C410.22,185.367,410.491,190.141,410.488,194.9Z"/><path class="cls-1" d="M287,99.9c13.407-.356,26.6.954,38.325,8.181,9.363,5.772,12.208,14.018,7.9,24.389-1.449,3.485-3.146,7.449-7.389,7.2-2.275-.134-4.729-2.691-6.481-4.7-1.833-2.1-2.962-4.825-4.327-7.316-17.929-32.71-56.805-19.949-68.82,3.717-12.3,24.231-12.467,49.533-1.778,74.123,8.367,19.248,28.288,27.837,52.813,23.963,11.126-1.758,21.873-5.846,32.871-8.558,1.28-.315,3.742,1.045,4.422,2.3.666,1.228.2,3.567-.584,4.951a9.726,9.726,0,0,1-4.108,3.729c-30.853,14.488-61.988,16.264-92.925.69a42.209,42.209,0,0,1-14.825-12.9c-18.037-25.493-17.753-53.665-7.408-81.29,9.663-25.8,31.621-36.424,58.118-38.429C277.506,99.6,282.263,99.9,287,99.9Z"/><path class="cls-1" d="M1550.136,169.29q0-28.511.007-57.023c.008-7.4,1.778-12.963,11.1-12.492,8.616.435,11.406,5.207,11.416,12.95.027,22.809.042,45.618.334,68.424.032,2.525,1.822,5.028,2.8,7.541,2.356-1.411,5.16-2.392,6.993-4.3,9.194-9.59,17.865-19.7,27.3-29.03,3.43-3.391,9.557-4.577,12.933-.8,2.494,2.79-1.9,6.183-4.329,8.772-8.3,8.833-24.5,15.22-23.481,26.362.945,10.349,13.7,19.624,21.281,29.358,1.167,1.5,2.705,2.774,3.6,4.412,2.909,5.344,13.374,10.148,7.587,15.722-5.88,5.665-16.86,4.261-23.185-2.738-8.244-9.123-14.959-19.616-22.584-29.322-1.554-1.977-4.228-3.075-6.385-4.578-.915,2.6-2.439,5.153-2.63,7.8-.545,7.564,0,15.234-.922,22.736-.868,7.077-6.59,8.506-12.743,8.123-5.641-.352-8.607-3.969-8.817-9.2-.417-10.44-.317-20.9-.363-31.354s-.01-20.909-.01-31.364Z"/><path class="cls-1" d="M1450.029,194.176c0-9.495-.084-18.99.032-28.483.069-5.632-.382-12.208,7.259-13.139,5.374-.655,12.437-1.387,13.927,6.006,1.848,9.171,5.409,8.022,10.6,3.029a36.778,36.778,0,0,1,25.631-10.61c16.951-.384,25.569,5.691,26.734,22.4,1.317,18.9.506,37.951.548,56.936.015,6.549-2.711,10.739-9.886,11.04-7.929.332-12.673-2.538-12.626-11.251.081-15.19-.124-30.382-.057-45.572.036-8.08-1.31-16.029-9.934-18.5-9.391-2.691-16.472,3.015-21.731,10.181-5.765,7.857-8.128,16.951-7.923,26.8.2,9.488.075,18.991-.221,28.477-.215,6.86-4.012,10.244-10.984,9.76-6.352-.441-11.2-3.048-11.364-10.038-.3-12.336-.084-24.684-.084-37.027Z"/><path class="cls-1" d="M975.324,196.411c0-10.417-.058-20.834.026-31.25.037-4.611-.579-10.178,4.758-12.042,5.409-1.889,13.568-2.121,15.223,3.325,3.949,13,8.28,8.326,14.629,2.419,6.529-6.074,14.867-7.946,23.682-7.882,15.59.114,24.164,5.734,25.362,20.8,1.571,19.763.724,39.727.68,59.6-.016,7.155-4.878,9.557-11.24,9.868-6.931.338-10.7-2.986-10.775-9.9-.173-15.15-.152-30.3-.2-45.454-.028-9.013-1.546-17.833-11.744-20.126-9.529-2.142-15.893,4.231-21.078,11.385-9.1,12.555-6.106,27.172-7.189,41.188-.694,8.988,5.79,23.541-12.026,22.707-15.218-.714-9.11-13.65-9.993-21.925-.8-7.491-.169-15.134-.169-22.71Z"/><path class="cls-1" d="M809.464,243.009c-20.8-.321-27.536-6.264-28.677-25.248-.738-12.281-.107-24.64-.3-36.961-.088-5.542,1.809-12.654-3.462-15.868-7.668-4.674-10.792-7.676-1.034-13.191,5.99-3.385,4.127-9.9,4.759-15.275.653-5.56,3.471-8.487,9.122-8.222,5.7.268,11.472.489,13.026,7.869.943,4.483-.213,9.177,2.835,13.515,5.058,7.2,20.281-4.33,19.361,9.047-.59,8.59-13.782,1.442-19.221,7.405-2.939,3.222-2.434,7.047-2.483,10.71-.164,12.321.04,24.647-.1,36.969-.13,11.263,4.1,18.129,16.477,18.071,3.134-.014,8.477-1.184,7.92,4.312-.409,4.036-4.948,5.356-8.758,5.953C815.193,242.68,811.392,242.833,809.464,243.009Z"/><path class="cls-1" d="M1181.281,169.264q-.009,29.748,0,59.495c0,7.487-2,13.121-11.138,12.482-8.211-.574-11.27-5.136-11.238-13.087.157-38.719.114-77.439.091-116.158,0-7.7,2.38-12.6,11.367-12.288,8.793.31,10.993,5.331,10.957,12.894C1181.227,131.489,1181.287,150.376,1181.281,169.264Z"/><path class="cls-1" d="M368.981,198.525c0,10.39-.052,20.78.016,31.169.055,8.483-4.649,11.614-12.487,11.6-7.47-.01-9.626-4.659-9.651-11q-.13-34-.073-68c.011-6.686,2.867-10.452,10.247-9.928,6.253.443,11.492,2.294,11.731,9.339.414,12.259.115,24.543.115,36.817Z"/><path class="cls-1" d="M859.479,197.133c0,11.3.112,22.6-.041,33.9-.1,6.986-4.5,9.767-10.916,10.209-6.931.477-10.829-2.879-10.871-9.684q-.216-35.307.083-70.616c.037-5.3,2.66-8.786,8.519-8.6,5.826.185,12.218.9,12.632,8.107.7,12.19.192,24.45.192,36.68Z"/><path class="cls-1" d="M163.456,221.5c-1.234,3.222-2.258,6.777-3.967,9.967a7.878,7.878,0,0,1-4.469,3.247c-3.15.912-5.55-1.11-6.312-3.818-1.531-5.434-2.51-11.032-3.542-16.594-1.961-10.569-5.674-19.836-15.81-25.507-2.664-1.491-8.206-2.809-5.518-7.817,2.6-4.852,8.043-5.128,12.475-3.529a31.189,31.189,0,0,1,11.714,7.453C157.541,194.906,159.943,208.078,163.456,221.5Z"/><path class="cls-1" d="M359.673,139.652c-7.856-.2-11.642-3.722-12.22-10.08-.581-6.4,2.626-10.917,9.091-11.532,6.589-.627,10.493,3.836,11.186,9.778C368.461,134.088,364.218,137.746,359.673,139.652Z"/><path class="cls-1" d="M848.853,139.61c-6.379-.024-10.1-3.559-10.724-9.88-.62-6.3,2.329-10.988,8.809-11.7,6.578-.725,10.563,3.7,11.175,9.632C858.728,133.624,855.612,138.225,848.853,139.61Z"/><path class="cls-1" d="M1337.286,168.5c-6.6-4-10.849-6.947-1.837-13.451,11.467-8.276,13.659-20.526,9.606-33.227-4.658-14.6-17.02-20.093-31.05-20.9-17.067-.985-34.232-.176-51.316-.97-12.89-.6-16.283,5.725-15.981,17.243.475,18.057.127,36.136.127,54.206h-.16c0,19.021.153,38.043-.074,57.06-.094,7.832,2.159,13.155,10.959,13,20.871-.357,41.754,1.75,62.605-2.077,17.494-3.211,30.113-10.768,34.048-29.364C1357.983,192.205,1353.079,178.068,1337.286,168.5ZM1272.8,119.856a10.153,10.153,0,0,1,5.5-9.211c11.337-5.925,22.332-2.713,32.557,2.609,9.357,4.87,12.557,13.921,11.549,24.063-1.153,11.613-7.846,18.323-19.185,21.75-24.159,7.3-30.643,2.9-30.461-22.181C1272.769,131.209,1272.664,125.53,1272.8,119.856Zm56.554,88.322c-2.641,16.973-15.163,25.481-35.513,24.13-17.114-1.136-20.707-5.5-21.406-26.068-.1-2.83-.013-5.666-.013-8.5h.052c0-4.721.253-9.46-.051-14.162-.735-11.391,5.366-14.191,15.619-14.549C1318.4,167.972,1333.451,181.873,1329.358,208.178Z"/><path class="cls-1" d="M917.164,150.959c-29.642.188-46.648,18.056-46.191,48.536.405,27.083,17.012,43.2,45,43.673,29,.489,47.862-18.285,47.854-47.626C963.818,167.11,946.718,150.771,917.164,150.959ZM915.786,235.4c-13.1-1.176-21.124-15.914-21.012-38.729.047-9.508.574-18.937,5.7-27.4,9.044-14.93,25.26-15.121,33.559.074,4.558,8.347,6.682,17.68,6.046,25.135C940.227,220.114,929.823,236.66,915.786,235.4Z"/><path class="cls-1" d="M760.193,227.233a163.356,163.356,0,0,1-1.324-16.877c-.227-11.379-.167-22.765-.146-34.148.015-7.988-2.2-14.947-8.768-20.019-14.479-11.184-49.558-4.584-59.148,11.194-2.14,3.52-2.221,7.113,1.113,10.107,3.223,2.894,7.687,3.31,10.308.748,4.65-4.546,7.788-10.6,12.228-15.41,5.159-5.586,11.651-6.718,17.485-1.177,9.362,8.891,5.21,27.184-6.9,31.439-9.781,3.438-20.455,4.645-28.9,11.4-14.415,11.537-13.414,31.419,2.423,36.487,11.5,3.681,23.606,4.738,30.914-8.281,6.8-.729,11.761,2.766,17.105,6.6,6.431,4.614,15.5,6.845,20.848.611C772.368,234.157,760.86,232.6,760.193,227.233Zm-30.914,4.527c.246,0,.493.012.739.012l-1.072.96c.088-.332.229-.646.333-.972-2.521-.027-5.051-.166-7.549.057-5.846.522-11.442.169-13.843-6.213-2.582-6.866-.211-13.041,5.038-17.564,3.413-2.941,7.824-4.785,11.922-6.856,9.191-4.644,10.947.729,11.961,8.448C737.967,218.461,731.638,224.369,729.279,231.76Z"/><path class="cls-1" d="M1143.137,229.655c-3.358-5-2.494-10.916-2.546-16.542-.112-12.3-.184-24.6-.066-36.9.088-9.218-3.078-16.729-11.074-21.6-15.166-9.231-46.33-2.374-56.96,12.34-2.461,3.408-3.3,6.866.078,10.072a9,9,0,0,0,10.359,1.879c6.764-2.855,8.228-10.054,12.323-15.095,3.231-3.978,7.1-6.241,12.226-5.324,6.381,1.143,9.276,5.6,10.649,11.627,3.075,13.487-.454,19.27-14.86,23.937-6.288,2.037-12.828,3.595-18.735,6.445-13.713,6.617-19.693,18.509-15.627,29.511,4.012,10.853,16.12,15.723,31.318,11.762,4.952-1.29,10.585-2.93,12.091-9.117,9.427-2.027,13.813,8.019,21.7,9.507,5.537,1.045,12.535,2.805,15.833-2.382C1153.179,234.543,1145.465,233.118,1143.137,229.655Zm-31.418,2.114c.275.01.552.031.826.037l-1.036.956c.038-.342.149-.659.21-.993a57.635,57.635,0,0,0-7.487-.1c-5.79.536-11.68.808-14.186-5.692-2.582-6.7-1.079-13.2,4.5-17.826,3.522-2.919,7.9-4.862,12.018-6.994,8.836-4.573,11.078-.134,12.27,8.1C1120.138,218.226,1113.119,224.024,1111.719,231.769Z"/><path class="cls-1" d="M1434.422,229.593c-1.817-5.174-2.292-10.981-2.456-16.543-.362-12.289-.228-24.595-.185-36.894.032-9.2-3.281-16.693-11.251-21.54-15.13-9.2-46.441-2.336-56.975,12.3-2.446,3.4-3.275,6.86.062,10.089a9.047,9.047,0,0,0,10.352,1.92c6.863-2.77,8.2-10.061,12.3-15.085,3.247-3.975,7.1-6.22,12.226-5.344,6.4,1.1,9.329,5.519,10.7,11.549,3.06,13.432-.561,19.406-14.781,24-6.289,2.03-12.845,3.549-18.746,6.4-13.5,6.533-19.662,18.776-15.678,29.579,4,10.84,16.143,15.7,31.337,11.7,4.933-1.3,10.593-2.9,12.127-9.074,9.41-1.961,13.835,8.008,21.723,9.512,5.529,1.053,12.546,2.809,15.819-2.407S1435.731,233.32,1434.422,229.593Zm-31.551,2.173c.276.012.552.033.828.04l-1.034.956c.037-.343.147-.661.206-1a55.7,55.7,0,0,0-7.493-.117c-5.786.541-11.68.871-14.248-5.61a15.007,15.007,0,0,1,4.476-17.855c3.482-2.952,7.889-4.868,12-7.009,8.785-4.571,11.079-.282,12.269,8.03C1411.162,218.165,1404.238,224.014,1402.871,231.766Z"/></svg>