<svg id="Layer_1" data-name="Layer 1" xmlns="http://www.w3.org/2000/svg" viewBox="0 0 1641.8 351"><defs><style>.cls-1,.cls-2{fill:#fff;}.cls-2{fill-rule:evenodd;}</style></defs><title>DigitalOcean</title><path class="cls-1" d="M139.32,313.773V260.21c56.846,0,100.562-56.286,78.974-115.855a80.341,80.341,0,0,0-47.828-47.847C110.9,74.92,54.611,118.655,54.611,175.5H1.029c0-90.463,87.451-160.979,182.3-131.456a133.039,133.039,0,0,1,87.181,87.18C300.01,226.322,229.783,313.773,139.32,313.773Z"/><polygon class="cls-2" points="139.32 260.21 86.027 260.21 86.027 206.917 86.027 206.917 139.32 206.917 139.32 206.917 139.32 260.21"/><polygon class="cls-2" points="86.027 301.203 45.034 301.203 45.034 301.203 45.034 260.21 86.027 260.21 86.027 301.203"/><polygon class="cls-2" points="45.034 260.21 10.606 260.21 10.606 260.21 10.606 226.052 10.606 226.052 45.034 226.052 45.034 226.052 45.034 260.21"/><path class="cls-1" d="M492.965,117.284c-15.853-10.89-35.529-16.683-58.487-16.683h-50.01V259.4h50.01c22.958,0,42.634-5.793,58.487-17.494a58.843,58.843,0,0,0,20.217-25.45,93.222,93.222,0,0,0,7.105-37.44,92.806,92.806,0,0,0-7.105-37.17A56.37,56.37,0,0,0,492.965,117.284ZM413.8,127.672h15.853c17.494,0,31.976,3.553,42.9,10.1,12.03,7.4,18.305,21.24,18.305,41.283,0,20.757-6.275,35.239-18.305,43.175h0c-10.388,6.835-24.87,10.388-42.634,10.388H414.068V127.634Z"/><path class="cls-1" d="M555.275,98.67a17.282,17.282,0,0,0-17.494,16.954,15.932,15.932,0,0,0,5.194,12.3,16.919,16.919,0,0,0,12.3,5.195,15.95,15.95,0,0,0,12.3-5.195,17.375,17.375,0,0,0,5.252-12.28,14.983,14.983,0,0,0-5.194-12.03A17.151,17.151,0,0,0,555.275,98.67Z"/><rect class="cls-1" x="540.794" y="147.619" width="28.153" height="112.05"/><path class="cls-1" d="M671.419,156.906c-8.477-7.723-18.035-12.029-28.152-12.029a51.633,51.633,0,0,0-38.619,15.853c-10.117,10.388-15.041,24.059-15.041,40.182s4.924,29.233,15.041,40.162a51.633,51.633,0,0,0,38.619,15.853,43.676,43.676,0,0,0,27.882-9.017v2.742c0,9.287-2.472,16.393-7.376,21.587s-11.759,7.376-20.236,7.376c-13.111,0-21.028-5.194-31.146-18.575l-19.135,18.305.541.811a68.489,68.489,0,0,0,18.865,16.953c8.438,5.465,18.865,8.168,31.435,8.168,16.664,0,30.334-5.194,40.163-15.312,10.117-10.118,15.041-23.77,15.041-40.723V147.619H671.689v9.287Zm-7.376,66.134a24.6,24.6,0,0,1-19.406,8.206c-8.206,0-14.481-2.742-19.135-8.206s-7.376-12.841-7.376-21.858,2.452-16.664,7.376-22.128a24.582,24.582,0,0,1,19.135-8.477,23.923,23.923,0,0,1,19.406,8.477c4.924,5.464,7.376,13.111,7.376,22.128A33.018,33.018,0,0,1,664.043,223.04Z"/><rect class="cls-1" x="723.071" y="147.619" width="28.153" height="112.05"/><path class="cls-1" d="M737.552,98.67a17.281,17.281,0,0,0-17.493,16.954,15.925,15.925,0,0,0,5.194,12.3,16.915,16.915,0,0,0,12.3,5.195,15.93,15.93,0,0,0,12.3-5.195,17.373,17.373,0,0,0,5.194-12.3,14.982,14.982,0,0,0-5.194-12.03A17.108,17.108,0,0,0,737.552,98.67Z"/><path class="cls-1" d="M812.993,117.555H785.381v30.334H769.258V173.57h16.123v46.477c0,14.482,3.012,24.87,8.747,30.894s15.853,9.018,30.334,9.018c4.654,0,9.288-.271,13.671-.541h1.352V233.7l-9.655.56c-6.835,0-11.2-1.1-13.381-3.553s-3.282-7.4-3.282-14.771V173.3h26.318V147.619H813.263V117.555Z"/><rect class="cls-1" x="971.211" y="100.601" width="28.153" height="158.778"/><path class="cls-1" d="M1283.863,219.487a67.1,67.1,0,0,1-14.212,13.13h0a26.608,26.608,0,0,1-14.481,3.862,25.913,25.913,0,0,1-20.487-9.288,34.875,34.875,0,0,1-8.207-23.788,34.9,34.9,0,0,1,7.917-23.5,25.354,25.354,0,0,1,20.236-9.287c9.017,0,18.575,5.792,26.782,15.293l18.575-17.765h0c-12.03-15.833-27.593-23.171-46.187-23.171a54.721,54.721,0,0,0-39.912,16.587c-10.929,10.929-16.393,25.1-16.393,41.8s5.464,30.6,16.393,41.823a53.68,53.68,0,0,0,39.892,16.664c20.506,0,36.9-8.747,47.829-24.87Z"/><path class="cls-1" d="M1399.466,163.2a45.569,45.569,0,0,0-16.123-13.4,52.683,52.683,0,0,0-23.171-4.924c-15.853,0-28.693,5.793-38.251,17.223s-14.211,25.411-14.211,42.094,5.174,30.9,15.563,41.8,24.059,16.123,40.722,16.123a55.341,55.341,0,0,0,46.188-22.958l.54-.811-18.305-17.764h0a72.993,72.993,0,0,1-6.275,6.565,31.725,31.725,0,0,1-8.206,6,30.186,30.186,0,0,1-14.212,3.012c-7.917,0-14.211-2.2-19.135-6.836a24.311,24.311,0,0,1-7.917-16.953h74.552l.271-10.388a73.374,73.374,0,0,0-3.013-20.757A61.919,61.919,0,0,0,1399.466,163.2Zm-61.48,26.511a27.781,27.781,0,0,1,7.376-13.4,19.983,19.983,0,0,1,14.752-5.793q10.254,0,15.583,5.793a22.128,22.128,0,0,1,5.792,13.111h-43.445Z"/><path class="cls-1" d="M1507.693,156.1h0c-8.477-7.376-20.216-10.929-34.988-10.929a59.372,59.372,0,0,0-25.951,6.006,46.468,46.468,0,0,0-19.135,18.034l.27.271,18.035,17.223c7.376-11.759,15.582-15.853,26.511-15.853a22.385,22.385,0,0,1,14.482,4.654,14.387,14.387,0,0,1,5.464,12.01v5.465a69.988,69.988,0,0,0-20.757-3.264c-13.941,0-25.43,3.264-33.887,9.829s-12.86,16.123-12.86,27.882c0,10.388,3.553,19.116,10.948,25.411a41.652,41.652,0,0,0,27.033,9.287c10.658,0,20.757-4.364,29.793-11.74v9.288h27.593V187.492C1520.9,174.13,1516.44,163.471,1507.693,156.1Zm-50.01,60.669a23.691,23.691,0,0,1,13.381-3.282,61.473,61.473,0,0,1,21.24,4.093V228.5c-6.005,5.793-14.212,8.477-24.31,8.477-4.924,0-8.748-1.1-11.219-3.283a10.234,10.234,0,0,1-3.862-8.187,10.525,10.525,0,0,1,4.77-8.747Z"/><path class="cls-1" d="M1629.031,158.277q-11.875-13.129-32.825-13.111c-11.219,0-20.236,3.264-27.033,9.655v-6.932h-27.612V259.881h28.153V197.9c0-8.476,1.931-15.292,6.005-19.946s9.287-7.106,16.683-7.106a18.616,18.616,0,0,1,14.752,6.276,26.8,26.8,0,0,1,5.464,17.494V259.4h28.153V194.617C1640.79,179.324,1636.967,167.024,1629.031,158.277Z"/><path class="cls-1" d="M935.972,156.1h0c-8.477-7.376-20.236-10.929-34.988-10.929a59.537,59.537,0,0,0-25.971,6.006A46.343,46.343,0,0,0,855.9,169.206l.27.271L874.2,186.7c7.376-11.759,15.582-15.853,26.511-15.853A22.417,22.417,0,0,1,915.2,175.5a14.387,14.387,0,0,1,5.464,12.01v5.465a70.15,70.15,0,0,0-20.776-3.264c-13.922,0-25.411,3.264-33.888,9.829s-12.84,16.123-12.84,27.882c0,10.388,3.553,19.116,10.929,25.411a41.651,41.651,0,0,0,27.032,9.287c10.659,0,20.777-4.364,29.794-11.74v9.288h27.612V187.492C948.813,174.13,944.429,163.471,935.972,156.1Zm-50.01,60.669a23.631,23.631,0,0,1,13.381-3.282,61.473,61.473,0,0,1,21.24,4.093V228.5c-6,5.793-14.212,8.477-24.33,8.477-4.9,0-8.747-1.1-11.2-3.283a10.234,10.234,0,0,1-3.862-8.187A9.908,9.908,0,0,1,885.962,216.764Z"/><path class="cls-1" d="M1101.586,261.851a81.986,81.986,0,1,1,81.986-81.986A81.986,81.986,0,0,1,1101.586,261.851Zm0-134.738a53.023,53.023,0,1,0,53.022,53.022A53.023,53.023,0,0,0,1101.586,127.113Z"/></svg>