<svg xmlns="http://www.w3.org/2000/svg" xmlns:xlink="http://www.w3.org/1999/xlink" width="200" height="200" viewBox="0 0 200 200">
  <defs>
    <linearGradient id="linear-gradient" x1="0.769" y1="0.835" x2="0.177" y2="0.205" gradientUnits="objectBoundingBox">
      <stop offset="0" stop-color="#004683" stop-opacity="0.82"/>
      <stop offset="1" stop-color="#fff" stop-opacity="0"/>
    </linearGradient>
  </defs>
  <g id="Layer_5" data-name="Layer 5" transform="translate(-347.436 -284.639)">
    <g id="Group_9" data-name="Group 9">
      <path id="Path_12" data-name="Path 12" d="M374.994,363.946c0-11.488,14.774-49.189,65.318-54.748" fill="none" stroke="#fff" stroke-linecap="round" stroke-miterlimit="10" stroke-width="9"/>
      <g id="Group_8" data-name="Group 8">
        <path id="Path_22" data-name="Path 22" d="M100,0A100,100,0,1,1,0,100,100,100,0,0,1,100,0Z" transform="translate(347.436 284.639)" fill="url(#linear-gradient)"/>
        <g id="Group_7" data-name="Group 7">
          <path id="Path_13" data-name="Path 13" d="M435.07,401.326h23.872V386.955H435.07Zm11.936-9.581a2.4,2.4,0,1,1-2.387,2.4A2.392,2.392,0,0,1,447.006,391.745Z" fill="#fff"/>
          <path id="Path_14" data-name="Path 14" d="M480.06,353.424c-12.573,0-20.184-2.35-24.355-4.322-4.248-2.007-5.85-4.027-5.994-4.217a2.311,2.311,0,0,0-3.8-.183c-.139.156-2.071,2.251-6.742,4.328-4.509,2-12.543,4.394-25.215,4.394a2.39,2.39,0,0,0-2.387,2.395v38.322c0,9.746,6.147,18.239,17.777,24.559,7.9,4.295,16.724,6.577,17.664,6.577.838,0,9.57-2.178,17.664-6.577,11.63-6.32,17.777-14.813,17.777-24.56V355.819A2.39,2.39,0,0,0,480.06,353.424Zm-16.343,50.3a2.392,2.392,0,0,1-2.387,2.395H432.683a2.392,2.392,0,0,1-2.388-2.395V384.56a2.391,2.391,0,0,1,2.388-2.395h2.394V374.9a11.929,11.929,0,0,1,23.858,0,2.388,2.388,0,1,1-4.775,0,7.154,7.154,0,0,0-14.308,0v7.265H461.33a2.391,2.391,0,0,1,2.387,2.395Z" fill="#fff"/>
        </g>
      </g>
    </g>
  </g>
</svg>
