<svg id="Layer_1" data-name="Layer 1" xmlns="http://www.w3.org/2000/svg" viewBox="0 0 1641.8 351"><defs><style>.cls-1{fill:#fff;}</style></defs><title>Jetbrains</title><path class="cls-1" d="M1131.495,39.538a23.671,23.671,0,0,0,1.613-2l.387-.532a22.9,22.9,0,0,0,1.307-2.081.71.71,0,0,0,0-.113,23.764,23.764,0,0,0,1.1-2.323l.242-.6a23.5,23.5,0,0,0,.807-2.484h0a22.992,22.992,0,0,0,.484-2.549l.1-.662A23.521,23.521,0,0,0,1116.848.145h0A25.243,25.243,0,0,0,1114.153,0h-1.322l-1.21.113h-.92L689.348,60.138a3.143,3.143,0,0,1-.419.1l-1.065.258c-.758.177-1.5.339-2.226.564l-.6.21c-.887.291-1.774.6-2.629.952l-.21.1c-.968.419-1.92.871-2.855,1.371h0l-.323.193a33.624,33.624,0,0,0-5.662,3.969c-.42.371-.839.726-1.242,1.113s-.533.548-.791.823-.919.935-1.339,1.435l-.661.823c-.435.532-.855,1.065-1.242,1.613l-.581.855c-.387.565-.742,1.162-1.1,1.742l-.484.888c-.338.613-.645,1.258-.951,1.887l-.387.871c-.307.71-.581,1.436-.839,2.178l-.242.661a34.75,34.75,0,0,0-1.371,6.146,1.223,1.223,0,0,1,0,.242c-.113.984-.178,1.968-.21,2.968v.4c0,.968,0,1.952.08,2.936v.306c.1,1.065.226,2.129.42,3.226h0a31.723,31.723,0,0,0,3.42,9.841s21.406,40.893,45.41,86.706L525.743,93.062a14.744,14.744,0,0,0-15.825,24.762L683.041,252.005,552.957,329.194a11.439,11.439,0,1,0,9.679,20.729h0l.435-.21.436-.242,144.231-78.366,80.512,62.429c.21.161.435.29.661.451.758.549,1.517,1.081,2.307,1.613l1.355.807c.694.4,1.42.79,2.146,1.161s1.129.565,1.709.823,1.259.549,1.9.791,1.339.516,2.033.742,1.161.371,1.742.532,1.452.4,2.194.565,1.177.258,1.774.354,1.436.259,2.162.355,1.306.146,1.968.194,1.306.113,1.968.129,1.484,0,2.226,0h1.726c.807,0,1.613-.129,2.42-.21l1.613-.209c.823-.13,1.613-.291,2.452-.468.532-.1,1.048-.226,1.613-.355.758-.194,1.613-.42,2.291-.662s1.161-.387,1.726-.58,1.322-.516,1.968-.791,1.355-.6,2.016-.919l1.613-.807c.742-.419,1.484-.855,2.21-1.306.275-.162.549-.291.807-.468l.823-.565,1.016-.726c.919-.661,1.807-1.371,2.645-2.1l.678-.613c.758-.693,1.5-1.419,2.21-2.161l.532-.549c.839-.919,1.613-1.871,2.4-2.871a2.192,2.192,0,0,0,.21-.242l.306-.436q.726-1,1.4-2.032c.145-.226.306-.452.451-.694.565-.9,1.1-1.823,1.613-2.775l.194-.371c.419-.822.806-1.613,1.178-2.516l.354-.871c.307-.742.581-1.5.839-2.259.081-.258.178-.532.274-.806.307-1.016.6-2.033.839-3.081a1.749,1.749,0,0,0,0-.307c.21-.935.387-1.871.533-2.823,0-.306.1-.629.129-.952.113-.774.193-1.613.242-2.339v-.951c0-1.065.1-2.13,0-3.227s0-1.887-.162-2.807c0-.338-.08-.677-.113-1.032s-.145-1.178-.242-1.758-.129-.775-.209-1.162-.21-1.1-.339-1.613-.177-.758-.258-1.129-.323-1.178-.5-1.742l-.291-.952c-.29-.871-.6-1.726-.935-2.565l-.258-.581c-.291-.677-.581-1.355-.9-2.016l-.4-.791c-.306-.613-.629-1.193-.968-1.79l-.419-.71c-.4-.677-.823-1.339-1.275-1.984,0-.1-.113-.194-.177-.274l-37.8-60.864L1123.945,44.926l.161-.081a22.224,22.224,0,0,0,2.549-1.29h.226a19.825,19.825,0,0,0,2.21-1.613l.387-.323a22.45,22.45,0,0,0,1.807-1.71ZM749.18,116.517,987.3,71.446,792.847,186.834Z"/><rect x="670.394" y="122.341" width="170.203" height="170.203"/><rect class="cls-1" x="685.073" y="260.636" width="63.832" height="10.631"/><path class="cls-1" d="M684.364,167.154l4.952-4.678a5.549,5.549,0,0,0,4.355,2.581,3.227,3.227,0,0,0,3.227-3.226,2.732,2.732,0,0,0,0-.613V143.57h7.646v17.648a10.323,10.323,0,0,1-2.726,7.807,10.485,10.485,0,0,1-7.614,2.807A11.292,11.292,0,0,1,684.364,167.154Z"/><path class="cls-1" d="M706.238,143.57h22.309v6.452H713.836v4.243H727.16v6.065H713.836v4.388h14.9v6.549h-22.5Z"/><path class="cls-1" d="M738.6,150.361h-8.291V143.57H754.6v6.743h-8.324v20.971H738.6Z"/><path class="cls-1" d="M685.073,177.849H699.3a10.356,10.356,0,0,1,7.566,2.452,6.3,6.3,0,0,1,1.79,4.517v.081a6.452,6.452,0,0,1-4.291,6.178,6.725,6.725,0,0,1,5.517,6.775h0c0,4.839-3.887,7.646-10.5,7.646H685.073Zm16,8.55c0-1.613-1.226-2.372-3.485-2.372h-5.033v4.84h4.84c2.339,0,3.678-.791,3.678-2.42h0Zm-2.646,7.888h-5.872V199.4h5.953c2.371,0,3.678-.9,3.678-2.533V196.8C702.189,195.287,701,194.287,698.43,194.287Z"/><path class="cls-1" d="M711.029,177.849h13.115a12.228,12.228,0,0,1,9.033,2.968,8.662,8.662,0,0,1,2.468,6.453h0a8.808,8.808,0,0,1-5.71,8.566l6.614,9.678h-8.84l-5.582-8.388h-3.4v8.388h-7.694Zm12.792,13.309a3.469,3.469,0,0,0,4.058-2.755l.007-.036a2.457,2.457,0,0,0,0-.5h0c0-2.21-1.613-3.323-4.162-3.323h-5.065v6.694Z"/><path class="cls-1" d="M744.631,177.639h7.42l11.808,27.94h-8.227l-1.984-4.985h-10.76l-1.984,4.985h-8.066Zm6.742,16.971-3.1-7.856-3.129,7.856Z"/><path class="cls-1" d="M764.763,177.849h7.694v27.73h-7.694Z"/><path class="cls-1" d="M774.361,177.849h7.162l11.421,14.664V177.849h7.614v27.73h-6.711l-11.888-15.228v15.212h-7.6V177.849Z"/><path class="cls-1" d="M801.026,201.465l4.291-5.113a14.3,14.3,0,0,0,8.985,3.323c2.113,0,3.227-.71,3.227-1.9h0c0-1.177-.9-1.774-4.711-2.694-5.9-1.338-10.469-3-10.469-8.678h0c0-5.146,4.081-8.873,10.743-8.873a17.408,17.408,0,0,1,11.421,3.695l-3.855,5.42a13.514,13.514,0,0,0-7.759-2.727c-1.871,0-2.775.743-2.775,1.775h0c0,1.274.952,1.823,4.84,2.694,6.339,1.387,10.291,3.452,10.291,8.646h0c0,5.662-4.468,9.034-11.211,9.034A19.536,19.536,0,0,1,801.026,201.465Z"/></svg>