<svg id="Layer_1" data-name="Layer 1" xmlns="http://www.w3.org/2000/svg" viewBox="0 0 1641.8 351"><defs><style>.cls-1{fill:#fff;}</style></defs><title>MuscleMilk</title><path class="cls-1" d="M517.971,3.528h48.78c5.075,28.945,10.129,57.77,15.041,85.783C586.511,61.434,591.387,32.627,596.3,3.6h48.056V163.016h-35.37V61.285l-.67-.065c-1.393,8.437-2.731,16.882-4.188,25.308q-6.38,36.9-12.81,73.786c-.377,2.188-1.243,3.1-3.63,3.02-5.417-.189-10.856-.263-16.265.018-3.3.171-4.2-1.184-4.664-4.177q-7.4-47.975-15.022-95.914a1.72,1.72,0,0,0-.877-1.413V163.014h-32.89Z"/><path class="cls-1" d="M685.106,347.027c-5.415-34.2-10.756-67.927-16.1-101.656l-.506.05V346.75H636.013v-159.4H684.44c5.049,28.623,10.106,57.288,15.342,86.973.977-6.913,1.687-12.951,2.7-18.938q5.567-32.832,11.372-65.624c.174-.982,1.414-2.535,2.17-2.542,15.311-.15,30.624-.112,46.232-.112V346.851H726.9V245.788l-.935-.1c-.879,5.194-1.741,10.391-2.64,15.582q-7.172,41.408-14.45,82.8c-.2,1.108-1.706,2.794-2.652,2.828C699.373,347.14,692.51,347.027,685.106,347.027Z"/><path class="cls-1" d="M657.819,3.457H695.25V8.571q0,58.517-.036,117.032c-.006,3.742.8,6.848,4.411,8.547,5.838,2.743,11.822-.947,12.034-7.429.107-3.3.026-6.611.026-9.917V3.569h35.769V8.5q0,58.119,0,116.238c0,21.4-11.9,36.5-33,40.841-17.515,3.6-33.419-.059-46.392-13-7.174-7.154-10.409-16.15-10.422-26.218q-.073-60.1-.011-120.206C657.624,5.383,657.733,4.608,657.819,3.457Z"/><path class="cls-1" d="M914.987,346.734V187.351h36.827v64.775l.745.18c.353-.864.777-1.707,1.05-2.6,6-19.574,12.074-39.129,17.893-58.758.941-3.175,2.345-4.03,5.513-3.952,9.119.225,18.248.072,27.372.087,1.28,0,2.561.111,4.333.193-3.117,9-6.082,17.569-9.045,26.135-4.187,12.105-8.489,24.173-12.456,36.35a14.673,14.673,0,0,0-.3,7.927c7.642,28.3,15.5,56.545,23.291,84.807.378,1.37.634,2.774,1.029,4.527-12.059,0-23.814.069-35.564-.135-.9-.016-2.288-1.833-2.58-3.026-4.332-17.706-8.516-35.449-12.747-53.181a7.322,7.322,0,0,0-1.174-2.628c-2.68,8.465-7.791,16.031-7.421,25.5.428,10.945.1,21.919.1,33.175Z"/><path class="cls-1" d="M948.41,62.5H915.789c0-7.037.075-13.992-.023-20.945-.09-6.434-4.294-10.272-10.7-9.984-6.481.292-9.593,3.9-9.608,11.478q-.067,34.713-.015,69.427c0,4.231-.161,8.474.092,12.691.461,7.669,6.142,11.455,13.539,9.24,4.453-1.333,6.651-4.372,6.7-9.547.061-6.859.015-13.719.015-20.85h33.087c-.55,10.8-.067,21.478-1.85,31.767-2.936,16.939-15.708,28.069-32.824,30.319-17.572,2.31-33.462-1.144-46.018-14.58a38.407,38.407,0,0,1-10.373-26.763c-.151-27.638-.2-55.278-.006-82.915.156-21.812,17.325-39.4,40.178-41.671,8.1-.807,16.082-.561,23.887,2.088,12.73,4.32,20.991,12.966,24.7,25.8C949.815,39.312,947.9,50.849,948.41,62.5Z"/><path class="cls-1" d="M758.134,113.882h32.44c0,4.532-.335,8.893.076,13.183.668,6.967,5.808,10.757,12.711,9.884,4.452-.564,7.207-2.978,8.205-7.39,1.4-6.21.159-12.168-3.871-16.822-5.945-6.867-12.624-13.1-18.992-19.6-6.554-6.691-13.692-12.911-19.533-20.174-9.59-11.924-12.4-25.737-8.593-40.743A41.811,41.811,0,0,1,798.928.168c17.385-1.23,31.889,3.758,41.348,19.358,6,9.891,6.065,20.809,5.3,32H813.419c0-4.011.06-7.812-.014-11.611-.118-6.125-3.609-9.991-8.917-10-5.468-.01-9.486,4-9.705,9.941-.267,7.244,2.973,13.092,7.988,17.938,7.223,6.979,14.687,13.708,22.007,20.588,7.46,7.012,14.182,14.61,18.641,23.967,10.685,22.422,1.766,50.333-19.816,60.085-15.76,7.121-31.727,5.965-47-1.961-8.352-4.335-13.608-11.548-16.433-20.52C757.5,131.473,757.953,122.792,758.134,113.882Z"/><path class="cls-1" d="M1046.911,3.525h77.915V34.271h-40.812V67.415h26.223V94.963H1083.99v35.3h40.861V163h-77.94Z"/><path class="cls-1" d="M997.488,131.075h38.879v31.968H960.7V3.661h36.791Z"/><path class="cls-1" d="M865.545,315h39v31.745H828.762v-159.3h36.783Z"/><path class="cls-1" d="M777.2,187.29h36.556V346.719H777.2Z"/><path class="cls-1" d="M1021.173,218.643v-31c5.346.7,11.4-2.492,15.216,2.853,2.609,3.657,1.961,8.3-.735,12.3,3.3,3.529,2.885,7.851,1.656,11.84-.514,1.667-2.991,3.513-4.822,3.822C1028.927,219.068,1025.192,218.643,1021.173,218.643Zm5.327-13.313v8.717c5.612.547,6.133.208,6.192-3.845C1032.761,205.51,1032.022,204.9,1026.5,205.33Zm-.055-3.7c2.237-.886,4.7-1.116,5.569-2.413a5.935,5.935,0,0,0,.048-5.484c-.872-1.239-3.414-1.3-5.617-2.007Z"/><path class="cls-1" d="M1102.289,218.335c-2.616,1.2-3.981.2-5.074-2.092a96.843,96.843,0,0,0-7.72-13.643v15.961h-4.939V188.093c2.988-1.326,4.366-.024,5.509,2.556a83.918,83.918,0,0,0,7.56,13.8v-16.6h4.664Z"/><path class="cls-1" d="M1060.819,219.08c-5.635,0-6.6-.926-6.678-5.672-.013-.791,0-1.583,0-2.374-.026-5.312-.582-5.779-6.321-5.04v12.6l-5.078.243V187.544c5.358.925,11.533-2.445,15.253,3.017a10.8,10.8,0,0,1-.06,12.039C1058.971,208.532,1059.863,213.622,1060.819,219.08Zm-12.961-17.106c2.26-.749,5.069-.9,5.519-2a9.435,9.435,0,0,0-.112-6.7c-.424-.984-3.34-.892-5.407-1.348Z"/><path class="cls-1" d="M1107.872,218.756v-31.11c3.57,0,6.859-.184,10.118.046,4.188.3,6.828,2.965,6.981,7.2.2,5.536.2,11.089.011,16.626-.145,4.281-2.66,6.856-6.941,7.192C1114.785,218.961,1111.493,218.756,1107.872,218.756Zm5.249-26.222v21.341c6.06.295,6.843-.407,6.855-5.909q.01-4.745,0-9.49C1119.961,192.958,1119.167,192.241,1113.121,192.534Z"/><path class="cls-1" d="M1081.25,218.32c-4.821.868-4.821.868-6.923-6.617h-5.362c-1.991,2.4.275,9.146-6.916,6.615,2.157-9.615,4.257-19.246,6.575-28.825.195-.806,1.824-1.7,2.83-1.755,1.037-.055,2.9.677,3.077,1.39C1076.905,198.822,1079.047,208.571,1081.25,218.32Zm-10.217-18.588c-.407,2.222-.815,4.443-1.229,6.7C1073.747,206.762,1073.747,206.762,1071.033,199.732Z"/><path class="cls-1" d="M1038.248,338.159a8.729,8.729,0,0,1-9.134,8.87,9.061,9.061,0,1,1,.355-18.119A8.786,8.786,0,0,1,1038.248,338.159Zm-2.214-.24a6.636,6.636,0,0,0-6.686-6.8,6.731,6.731,0,0,0-6.773,7.123,6.731,6.731,0,0,0,13.459-.325Z"/><path class="cls-1" d="M1029.424,339.331l-2.036,3.109-.844-.407v-7.727c5.468-1.438,5.521-1.374,5.637,8.168Z"/></svg>