<svg xmlns="http://www.w3.org/2000/svg" viewBox="0 0 123.17 194.95"><defs><style>.cls-1{fill:#f6a8ca;}.cls-2{fill:#f282b3;}.cls-3{fill:none;stroke:#000;stroke-linecap:round;stroke-miterlimit:10;stroke-width:0.75px;}.cls-4{fill:#231f20;}.cls-5{fill:#fff;}.cls-6{fill:#f6d0e3;}</style></defs><title>Creature</title><g id="Layer_4" data-name="Layer 4"><path class="cls-1" d="M75.78,192c-6.18-9.41-6.47-20.87-.75-28.54,6-8,17.29-10.25,27.73-5.4,0,0-4.78-10.74-15.2-15.2a23.74,23.74,0,0,0-18.12-.47c-.56.21-10.24,4.12-12.68,14.09C54,167.81,61.47,183,75.78,192Z"/><path class="cls-2" d="M62.9,51.21c14.74-8.7,35-6.93,44.63-5.68,0,0,8.34.93,9.61-1.55.43-.83-.32-1.69,1.21-1.82,2.55-.21,3.27-2.1-.25-3.21a35.68,35.68,0,0,1-6-2.35c-4.88-2.56-9.54-9-10.75-11.57-5.08-10.68-41.15-17-56.91-6-95.84,67.14,36.69,141.31,34.06,137C42.06,96.82,36.68,66.71,62.9,51.21Z"/><path class="cls-2" d="M82.09,95.48S70.29,60.7,44.49,55l-22,23.74C46.37,65.91,82.09,95.48,82.09,95.48Z"/><path class="cls-2" d="M53.47,14.91A46.12,46.12,0,0,0,8.79,16.14S21,19.18,27.3,40.37Z"/><path class="cls-3" d="M100.72,41.26s8.68,3.22,16.56,1.14"/><ellipse class="cls-4" cx="95.77" cy="29.91" rx="2.48" ry="3.7" transform="translate(-2.66 10.45) rotate(-6.16)"/><circle class="cls-5" cx="95.11" cy="28.26" r="0.93"/><path class="cls-1" d="M63.76,43.61c-20.25,6.34-32.2,24.33-22.1,55,3.39,10.28,7.92,18.8,22.63,32.88-23.13-43.37-23.74-67.18-1.4-80.37,10.47-6.19,23.72-7.09,34-6.64C87.18,41.93,74.79,40.15,63.76,43.61Z"/><path class="cls-2" d="M86.77,63.25s-10.84-19.84-38.86-16L31.13,73C52.51,55,86.77,63.25,86.77,63.25Z"/><path class="cls-6" d="M72.89,17.16c.37.44.26.89-.13,1.42a2.31,2.31,0,0,1-1.73,1,53.59,53.59,0,0,1-5.46.24c-3.22-.1-6.68.82-10.22,1.94-.87.28-1.86.66-1.88-.25s.78-1.49,1.69-1.89C61.28,16.92,67,15.65,72,16.8A5.84,5.84,0,0,1,72.89,17.16Z"/><path class="cls-6" d="M79.51,18.17a1.76,1.76,0,0,1-1,1.62c-1,.49-3.35-.21-2-1.75C77.17,17.16,79.3,16.93,79.51,18.17Z"/></g></svg>