<svg id="Layer_1" data-name="Layer 1" xmlns="http://www.w3.org/2000/svg" viewBox="0 0 1641.8 351"><defs><style>.cls-1{fill:#fff;}</style></defs><title>RCCL</title><path class="cls-1" d="M145.71,345.3V4.12l.46-.49c.14-.13.3-.33.45-.35a23.05,23.05,0,0,1,3-.26H1513.83a8.22,8.22,0,0,1,2,.56V345.3ZM488.42,236.52h1021V9.66h-1021Zm1021,7.28H488.61V339h1020.8ZM152,9.55v329c5.87,1.31,324.63,1.18,329.57-.11V9.64Z"/><path class="cls-1" d="M1429.37,179.8c-3,.3-4.72.58-6.29.58h-27.64a46.2,46.2,0,0,0-6,.3c-9,1.26-10.82.27-14.44-8.26-1.76,1.4-3.41,2.76-5.11,4.08a23.11,23.11,0,0,1-12.59,5.24c-8.63.59-14.28-3.15-16.61-11.46a37.44,37.44,0,0,1-.86-7.69c-.24-3.63,1.4-5.79,4.89-7.27,9-3.84,17.84-8.16,26.84-12.08,2.78-1.21,4.16-2.83,3.91-5.87-.15-1.79-.14-3.6-.34-5.38-1.29-11.1-6.83-15.54-17.84-14.34-4.91.53-6.58,2.14-7.19,7.17-.22,1.79-.24,3.6-.38,5.69-3.57,1.14-7.11,2-11,0a12.18,12.18,0,0,1,1.34-3.33c6.54-8.16,14.44-14.46,24.8-17,10-2.39,18.24,2.28,20.9,12.1a59.11,59.11,0,0,1,1.57,13.64c.23,8,0,16,0,24,.09,11.09,2,13.26,14.24,15.24.67-2,2-4.15,2-6.29.23-13.42.19-26.84.23-40.26a9.65,9.65,0,0,0-3.44-7.38l-4.72-4.34,21.06-7.87c-.39,4.49-.67,7.76-1,12.12l5.49-3.51c5.79-3.65,11.72-6.86,18.67-7.87,13-1.74,21.62,4.9,22.55,17.94.52,7.38.28,14.82.34,22.23v14.42c.22,9.16,1.28,12.08,10.09,13.39.61.09,1.14.69,2,1.23-4.34,1.57-28.88,1.9-36,.58.37-2.6,2.77-1.91,4.17-2.39,5.8-2,7.33-3.39,7.42-9.44.19-11,.25-22-.12-33-.24-6.94-2.65-13.16-10-15.73-8.14-2.83-15.88-1.81-22.47,4a7.13,7.13,0,0,0-1.7,4.72c-.12,12.43-.17,24.84,0,37.27.13,9.32.73,9.84,10.12,12.58A20.27,20.27,0,0,1,1429.37,179.8Zm-54.31-35c-7.11,3.65-13.29,6.73-19.35,10a5.53,5.53,0,0,0-2.21,3.27,14.13,14.13,0,0,0,1.74,11.48,9.6,9.6,0,0,0,10.39,4.42c4-.74,8.71-2.28,9.25-6.42C1375.71,160.45,1375.06,153.11,1375.06,144.8Z"/><path class="cls-1" d="M553.36,130.17v30.11c.2,10.92,2.78,14,13.56,16.42,2.59.6,5.22,1.15,7.77,1.72a7.92,7.92,0,0,1-.22,1.26.5.5,0,0,1-.36.37q-25.17.19-50.34.33a4,4,0,0,1-3-1.4,19.55,19.55,0,0,1,3.14-1.38c13.28-3.37,15.29-5,15.54-18.66.43-21.82,0-43.64-.15-65.47a31.05,31.05,0,0,0-.37-4.19c-.94-6.81-3.8-9.84-10.54-11.24l-6.76-1.44V75.36a14.79,14.79,0,0,1,3.15-.77c13.2-.42,26.41-1,39.62-1.1a55,55,0,0,1,23.43,4.44,23.58,23.58,0,0,1,6.49,39.32,119,119,0,0,1-11.16,8c9.31,16.15,18,32.89,33.46,44.53,4.54,3.43,10.1,5.54,15.22,8.2,1.36.71,2.82,1.21,5.38,2.31a16.38,16.38,0,0,1-4.1,1.21c-6.39-.38-12.81-.64-19.15-1.48a27.32,27.32,0,0,1-17-9.22,141.6,141.6,0,0,1-19.53-28c-.75-1.41-1.57-2.81-2.26-4.23a14.19,14.19,0,0,0-12.9-8.39C559.49,130.09,556.74,130.17,553.36,130.17Zm.28-3.51a39.25,39.25,0,0,0,22.27-6,20.44,20.44,0,0,0,10-16.82c.8-16.7-15.36-29.88-32.24-26Z"/><path class="cls-1" d="M822.61,74.65,842,67.46v98.81c.25,7.76,1.41,9.19,8.92,11.25a4.6,4.6,0,0,1,2.83,2.2,32.77,32.77,0,0,1-4.31.55H818.18a33.81,33.81,0,0,0-4.72.3c-9.44,1.42-10.83.76-15.21-8.07-1.58,1.24-3,2.49-4.47,3.67a23.3,23.3,0,0,1-13.63,5.6c-8.6.37-14.63-4.22-16.36-12.59a25.29,25.29,0,0,1-.39-3.58c-.38-7.32,0-7.87,6.54-10.87L799,141.42c-.33-4.5-.11-9.16-1.12-13.53-2-8.76-12.58-13.33-20.62-9.44a6.66,6.66,0,0,0-3.68,5.79c-.24,2.15-.28,4.32-.43,6.67-3.72.42-7.19,1.73-11-.44a16.29,16.29,0,0,1,1.7-3.84c6.54-7.87,14.28-14,24.46-16.46s18.53,2.62,21.11,12.75a50.38,50.38,0,0,1,1.31,11.28c.17,9.2,0,18.42.09,27.62.11,8.48,5.48,13.84,13.94,13.84a4.87,4.87,0,0,0,3.62-2.47,17.68,17.68,0,0,0,1.43-6.92c.11-25.83,0-51.66.13-77.49a11.9,11.9,0,0,0-4.63-9.93c-1.07-.85-2.23-1.57-3.35-2.37Zm-23.91,70.1c-7.2,3.7-13.21,6.75-19.19,9.85-.68.36-1.57.86-1.78,1.57a14.9,14.9,0,0,0,.57,12.71,9.84,9.84,0,0,0,9.33,5.26c4.89,0,10.88-3.89,11-7.44C798.87,159.79,798.7,152.85,798.7,144.75Z"/><path class="cls-1" d="M1002.8,141.1a102.84,102.84,0,0,0-1.29-13.56c-1.94-8.52-13.14-13.24-20.78-8.86a8.69,8.69,0,0,0-3.15,4.72,42.42,42.42,0,0,0-.86,7.7h-11a16.68,16.68,0,0,1,1.58-4.17c6.62-8.07,14.53-14.38,24.93-16.79,9.65-2.23,17.89,2.39,20.45,11.9a61.29,61.29,0,0,1,1.72,14.15c.26,8,0,16,.08,24,.09,10.07,1.27,11.56,10.72,14.51,1.33.4,2.62.88,3.84,1.27a6.8,6.8,0,0,0,4.12-6.87c.1-13.61.29-27.24,0-40.91,0-2.45-2.1-5-3.57-7.23a29.82,29.82,0,0,0-4.4-4.3l20-7.36c2.16,5.59,0,10.82,1.14,16.6,1.16-1.37,1.92-2.33,2.77-3.23,3.14-3.33,6-7,9.56-9.8a20.56,20.56,0,0,1,8.84-3.29,7,7,0,0,1,7.57,3.81,6.82,6.82,0,0,1-1.18,8.32,55,55,0,0,1-5.4,4.72l-4.35-2.74c-6.3-3.9-12.31-2.5-15.26,4.39a41.65,41.65,0,0,0-3.15,13.91c-.46,8.18-.25,16.41,0,24.62.28,7.25,1.93,8.81,9.12,10.38,1.91.43,3.76,1,5.65,1.58v1.1a35.42,35.42,0,0,1-4.23.53c-11.41,0-22.83-.19-34.23-.19a35.73,35.73,0,0,0-5.93.73c-7.87,1.3-10.83-.38-14.08-8.66l-4.5,3.72a23.25,23.25,0,0,1-14.16,5.83c-7.86.25-13-3.14-15.42-10.65a36.6,36.6,0,0,1-1.14-7.06c-.52-4.55,1.25-7.35,5.74-9.16,8.16-3.28,16.08-7.17,24.08-10.85A52.77,52.77,0,0,0,1002.8,141.1Zm-.57,3.71c-7.08,3.64-13.27,6.72-19.33,10a5.52,5.52,0,0,0-2.23,3.27,14.28,14.28,0,0,0,1.41,11,9.61,9.61,0,0,0,10.07,5c4.26-.55,9.2-2.15,9.82-6.48C1002.94,160.48,1002.23,153.11,1002.23,144.81Z"/><path class="cls-1" d="M1121.79,175.55V96.25c0-2.39-.14-4.8-.11-7.2a12.41,12.41,0,0,0-5.38-10.87,37.32,37.32,0,0,1-2.91-2.71c6.29-3.35,12.66-5.21,19.73-7.74,1.22,5.81.53,11.14.64,16.38.13,5.61,0,11.21,0,16.81V117.8c4.63-1.93,8.58-3.71,12.59-5.27,5.44-2.1,11-3.61,17-2.64,12.44,2,22,11.5,24.91,24.54,4.33,19.26-6.15,37.44-25.65,44.57C1149.43,183.8,1136.67,182.84,1121.79,175.55Zm12.59-54.74c0,13.39-.15,26.36.11,39.33a21.63,21.63,0,0,0,2.36,8,14.57,14.57,0,0,0,9.81,8.2,21.64,21.64,0,0,0,24.83-10.07,35,35,0,0,0,3.79-24.88c-2-10.62-7.65-18.44-17.92-22.26C1149.67,116.25,1142,117.27,1134.38,120.81Z"/><path class="cls-1" d="M1188.73,75,1208,67.79c1.49,6.12.66,11.47.8,16.76.14,5.61,0,11.21,0,16.83v16.53c4.61-2,8.4-3.65,12.25-5.17,5.64-2.24,11.41-3.86,17.56-2.85A31.2,31.2,0,0,1,1264,137.47c2.17,18.26-7.1,33.65-24.73,40.9-13.41,5.51-26.56,4.31-39.66-1.31-2.94-1.25-2.9-3.36-2.9-5.82V134c0-14-.17-28,.08-42.05.11-6-1.08-11-6.29-14.6C1190.05,77.06,1189.81,76.45,1188.73,75ZM1209,121.39c0,11.85-.21,23.46.11,35a36.64,36.64,0,0,0,2.51,11,14.18,14.18,0,0,0,10.53,9,21.92,21.92,0,0,0,25-11c3.57-6.39,4.23-13.29,3.71-20.45-1.72-23.76-24.26-33.38-41.89-23.68Z"/><path class="cls-1" d="M961.19,147.79a42.9,42.9,0,0,1-.74,5.17c-1.13,4.25-2.3,8.5-3.7,12.68C953.06,176.8,953,177,941.48,179.8,924.69,184,908,183.47,892,176.65c-19.61-8.22-31-22.88-32.56-44.4-1.5-21.13,6.83-38.18,24.62-49.46,21.49-13.63,44.53-13.94,68-4.72a6.48,6.48,0,0,1,4.72,7.26c-.3,5.2,0,10.42-.09,15.63,0,1.57-.3,3-.6,6a27.79,27.79,0,0,1-2.28-3.77c-.68-1.89-1.07-3.87-1.73-5.76-5.41-15.18-17.59-23-33.59-21.49s-27.81,9.44-35.16,23.8c-12.65,24.67-5,56.43,17.17,71.28a40.4,40.4,0,0,0,27.86,7.27,27.82,27.82,0,0,0,20.21-11.66c3.35-4.72,5.9-10,8.79-15,.84-1.45,1.58-2.95,2.41-4.41Z"/><path class="cls-1" d="M658.87,182.26c-3.53-.57-7.15-.82-10.59-1.72-17.4-4.55-27.28-17.3-27.18-34.81a36,36,0,0,1,28.47-34.85,42.44,42.44,0,0,1,27,2.08c12.16,5.25,19.5,14.3,21.11,27.61,1.71,14.16-3.15,25.58-14.55,34C675.84,179.93,668.73,181.91,658.87,182.26Zm24.62-35.56a43.26,43.26,0,0,0-5.83-22.37c-9.32-15.41-28.59-15-37.28.84A37.67,37.67,0,0,0,635.79,143c-.19,10.74,2.14,20.75,9.74,28.78,9.43,10,23.75,8.84,31.46-2.4A37.84,37.84,0,0,0,683.49,146.7Z"/><path class="cls-1" d="M706.26,203.38c.51.24.7.3.87.41,8.75,5.08,9.74,4.72,13.89-4.81,1.45-3.31,2.67-6.7,4.33-9.9a10.1,10.1,0,0,0,0-9.12q-11-27.6-21.7-55.31c-2.09-5.45-4.46-10.28-11-11.33-.22,0-.35-.64-.52-1,4.17-1.57,26.43-1.68,32.5,0-1.76.79-2.86,1.34-4,1.78-4.51,1.68-5.55,3.56-4.45,8.28a27.78,27.78,0,0,0,1,3.44q7.56,19.59,15.19,39.16a33.52,33.52,0,0,0,1.86,3.24c3.6-10.1,6.84-19.48,10-28.9,1.57-4.55,3-9.14,4.09-13.8,1.76-7.31.79-8.9-6.29-11.73-.49-.21-.82-.74-1.28-1.17,3.78-1.89,21.41-2.09,26.64-.39-.13.36-.19,1-.4,1-6.75,1.58-10.08,6.53-12.49,12.59Q740.35,161,726.2,196c-1.81,4.45-3.7,8.88-5.92,13.14a25.26,25.26,0,0,1-4.95,6.7c-3.89,3.67-9.29,3.38-12.29-.25C699.89,211.55,700.92,207.17,706.26,203.38Z"/><path class="cls-1" d="M1333.31,162.94c0,1,.38,2.22,0,2.89-13.45,20.64-37.39,20.29-50.46,6.58-10.51-11-12.51-24.42-7.74-38.56,4.62-13.67,14.36-22,28.83-24,15.44-2,27.74,7.22,27.82,22.5-14.65.44-29.34,0-43.88.28-4.72,12,0,27.17,9.74,34.15a27.16,27.16,0,0,0,18.73,5C1323,171.23,1328,167.31,1333.31,162.94Zm-16.78-34.61c-1-9.24-6.59-15.39-13.45-15.26-7.51.12-14,7.09-14.95,16.49Z"/><path class="cls-1" d="M1105,109.18c.09,3,.19,4.9.19,6.8v51c.25,7.08,1.57,8.68,8.19,10.52a34.44,34.44,0,0,1,3.27,1.18c.11,0,.11.33.18.51-3.9,1.57-30,1.79-36.7-.15a50.62,50.62,0,0,1,5.52-1.9c4.61-.94,6.78-3.88,7.15-8.37.16-2,.26-4,.26-6,0-9.79-.22-19.6.09-29.39.22-6.29-1.68-10.9-7.3-13.87a26.74,26.74,0,0,1-3.14-2.58Z"/><path class="cls-1" d="M1098.76,72.14a8.09,8.09,0,0,1,7.61,8.35,7.76,7.76,0,0,1-8.16,7.35l-.33,0a7.53,7.53,0,0,1-7.22-7.84v0a7.76,7.76,0,0,1,7.71-7.82Z"/><path class="cls-1" d="M929.59,320.8c-6-10.81-12.05-21.76-18.13-32.69l-1.24.22c-.85,10.75.2,21.58-.58,32.53H903.9V278h8.38l18.25,33c1.82-4.07.93-7.57,1.08-10.9.16-3.6,0-7.21,0-10.81v-11.2l5.89-.44v43.17Z"/><path class="cls-1" d="M1285.18,277.85h8.27l18,32.5,1.21-.17c.61-10.57,0-21.19.39-32.14h5.79v42.48c-7.42,1.4-7.42,1.4-10.6-4.34q-6.29-11.56-12.77-23.13a12.36,12.36,0,0,0-4.06-4.64V320.8l-6.18.44Z"/><path class="cls-1" d="M628.77,321.05h-7.72L602,286.7c-1.34,6.41-.57,11.86-.71,17.3s0,10.78,0,16.64l-6.07.82c-.3-14.74-.11-29-.13-43.53h8.51l17.94,32.49,1.24-.19c0-5.24.12-10.48.16-15.73s0-10.75,0-16.49h5.83Z"/><path class="cls-1" d="M1195.1,298.64c0-7.71,2.58-15.12,10.62-19.26a21.17,21.17,0,0,1,22.27.93c6.75,4.32,8.75,11.21,9.11,18.66.83,17.46-15.56,28.53-30.94,20.93C1197.74,315.72,1195.24,308.22,1195.1,298.64Zm35.66,1.77c-.47-2.73-.66-4.94-1.24-7-2-7.06-6.58-10.81-13.15-10.9-6.94-.11-11.74,3.62-13.91,10.77a21.53,21.53,0,0,0,1,15.19,12.48,12.48,0,0,0,12.19,8c6.06.1,10.48-2.37,12.86-7.86a59.46,59.46,0,0,0,2.23-8.17Z"/><path class="cls-1" d="M831.28,320.85h-6V278c6.45-.31,12.9-.86,19.37.74a10.58,10.58,0,0,1,3.14,19.09c-.82.53-1.68,1-2.48,1.49,3.44,7,6.84,13.84,10.71,21.65l-7,.33c-2-4.38-3.74-8.39-5.55-12.37-3.15-6.86-3.88-7.3-12.16-6.5Zm.27-24.29a78,78,0,0,0,10.22-1.29,5.45,5.45,0,0,0,4-6,5.3,5.3,0,0,0-4.72-5.42c-3-.49-6.18-.44-9.55-.65Z"/><path class="cls-1" d="M1409,320.93h-6.59c-1.48-3.29-3-6.71-4.64-10.32h-21.26c-1.43,3.25-2.86,6.53-4.45,10.17h-6.37c6.2-14.5,12.18-28.58,18.26-42.82l6.67-.29C1396.65,291.74,1402.64,305.86,1409,320.93Zm-13.2-16-8.61-21.34c-3.14,7.86-6.29,14.15-8.19,21.34Z"/><path class="cls-1" d="M1014,310.53H992.9l-4.59,10.3H982l18.32-43h6.79l18.15,42.95h-6.61Zm-1.9-5.56-8.06-20-1.16-.14c-2.61,6.54-5.21,13.09-8,20.13Z"/><path class="cls-1" d="M758.4,301.22v14.33h17.52v5.34H752.18V278H776v5.16H758.54v12.75h15.84v5.35Z"/><path class="cls-1" d="M1095.5,278v5.13h-13v37.47l-6.29.82V283.5l-13.37-.63c-.18-1.57-.33-3-.52-4.89Z"/><path class="cls-1" d="M687.92,283.2H674.74c-.11-2.07-.19-3.41-.27-5.17h32.58a10.81,10.81,0,0,1,.44,2.18,18.17,18.17,0,0,1-.52,3H694.15v37.52l-6.29.48Z"/><path class="cls-1" d="M1459.08,315.72h18.14c.1,1.93.18,3.37.27,5.13h-24V278.06l5.63-.55Z"/><path class="cls-1" d="M1141.47,278H1147v42.86a26.25,26.25,0,0,1-2.8.42,19.37,19.37,0,0,1-2.64-.28Z"/><path class="cls-1" d="M541,277.67v43.11l-5.58.41V278Z"/><path class="cls-1" d="M295.9,259.76V174.81H218.74c-.9-8.33-1.73-16.15-2.62-24.41h207c-.36,4.15-.66,8.07-1.07,12s-.89,7.54-1.43,12.07c-6.29.37-12.72.12-19.05.17s-12.83,0-19.24,0H344.16v84.71a22.55,22.55,0,0,0,3.35.49c10.43,0,20.86.27,31.28-.11a27.79,27.79,0,0,0,10.87-2.85c7.67-3.73,9.78-11.48,5.12-18.69a42.06,42.06,0,0,0-7.42-7.72,56.62,56.62,0,0,0-6.14-4.11l35.46-25.45,1.21.71q-3.79,36.25-7.58,72.66L384.64,284c-20.2,7.72-40.42,15.4-60.58,23.2a11,11,0,0,1-8.58.1q-40.89-15.74-82-31.24c-3.52-1.32-4.72-3.15-5.11-6.89-2.08-21.34-4.44-42.64-6.68-63.95-.15-1.35,0-2.72,0-5.24,12.58,8.9,24.54,17.54,36.57,26.15-3.81,3-7.58,5.34-10.49,8.49a20.52,20.52,0,0,0-4.72,8.76,10.66,10.66,0,0,0,5.25,12.38c3,1.8,6.58,3.68,10,3.79C270.62,260,283,259.76,295.9,259.76Z"/><path class="cls-1" d="M207.1,64.9l42.69,30.25-14.43,16.2,23.4,17.17,36.52-16.65L281.83,94.1l37.76-36.66L357.45,94.1l-13.37,17.58c12.05,6.08,24.13,11,36.34,16.88l23.49-17.3-14.32-16C403.2,85,417.15,75.6,430.78,65.76l1.21.68L424.71,136H214.55C212.11,112.79,209.69,89.6,207.1,64.9Z"/></svg>