<svg id="Layer_1" data-name="Layer 1" xmlns="http://www.w3.org/2000/svg" viewBox="0 0 1641.8 351"><defs><style>.cls-1{fill:#fff;}</style></defs><title>Redfin</title><path class="cls-1" d="M842.34,70.072c-23.891-15.562-57.427-21.48-100.387-21.48H659.539V322.354h84.825c29.809,0,56.111-3.507,77.811-12.055,21.48-8.329,38.357-22.795,50.193-42.96,12.055-20.385,17.973-46.687,17.973-80,0-28.713-3.507-52.6-10.74-71.674C868.642,95.059,857.9,79.5,842.34,70.072ZM819.764,232.707c-3.507,13.151-10.74,23.891-20.384,31.125-10.741,8.329-27.4,12.055-49.1,12.055H720.473V91.771h25.206c23.891,0,42.96,3.507,55.016,13.151,8.329,7.233,15.562,15.562,19.069,28.714a183.118,183.118,0,0,1,5.918,47.782C825.682,202.679,824.367,219.556,819.764,232.707Zm107.4,88.332h62.248V205.09H1062.4V159.719H989.413V92.867H1100.54V47.5H927.165Zm214.143,0h62.249V47.277h-62.249V321.039ZM1478.415,47.277h-63.344V205.09L1299.122,47.277h-50.194V321.039h63.345V159.719l114.853,161.32h51.289Zm-1055.6,284.5c-4.822-2.411-10.74-5.918-25.206-29.809L368.9,255.283l-33.536-55.015-2.411-4.822c1.1,0,3.507-1.1,4.822-1.1,38.358-13.151,60.934-47.782,60.934-97.976,0-25.206-9.644-47.782-28.713-64.66-2.411-2.411-5.918-4.822-8.329-7.233-26.3-16.658-60.934-22.795-106.3-22.795H168.126c-4.822,0-5.918,3.507-3.507,5.918s4.822,5.918,4.822,15.562V298.244c-1.1,10.74-3.507,14.247-4.822,16.658-2.411,2.411-1.1,5.918,4.822,5.918h63.345V204.871H261.5L281.883,239.5l25.207,42.96,12.055,21.481c14.247,23.891,27.4,39.453,50.193,42.96,2.411,0,14.247,2.411,19.069,2.411h4.822c9.644,0,19.069-3.507,25.207-5.918a3.93,3.93,0,0,1,2.411-1.1C428.737,337.916,426.326,333.094,422.819,331.779ZM273.335,159.719H232.567V47.277h40.549c20.384,0,35.946,2.411,46.686,13.151,4.822,3.507,7.233,8.329,9.644,14.247,2.411,7.233,4.823,15.562,4.823,26.3C334.269,115.443,333.173,159.719,273.335,159.719Zm230.8,45.371h72.989V159.719H504.137V92.867H615.264V47.5H441.888V321.258H615.264V275.887H504.137v-70.8Z"/></svg>