<svg id="Layer_1" data-name="Layer 1" xmlns="http://www.w3.org/2000/svg" viewBox="0 0 1641.8 351"><defs><style>.cls-1{fill:#fff;}</style></defs><title>StateFarm</title><path class="cls-1" d="M959.462,132l.467-.744-.5.744c-8.448-5.8-20.667-8.489-32.631-8.489-27.119.024-46.5,13.437-59.251,32.279-12.676,18.9-18.646,43.246-18.646,64.918,0,15.662,2.355,30.268,11.9,43.451,4.7,6.436,16.1,21.9,52.954,21.95,25.589-.016,37.709-6.649,44.276-10.484l1.1-1.48c1.284-5.611,5.6-31.086,7.361-37.473l-1.325-1.014C952.225,245.912,938.117,253.4,922.1,253.4c-10.746,0-18.916-2.552-24.428-7.475-5.5-4.882-8.186-12.1-8.186-21.051,0-3.3.27-6.305.523-9.6l.082-.777.752-.024c25.05-.638,37.816-.982,58.793-.982,6.854,0,14.582.033,23.913.107l1.62-1.129c2.085-9.724,4.342-20.846,4.342-34.528,0-12.145-1.292-33.735-20.045-45.945m-16.593,53.207-.139.712-24.551.31-24.273.319.221-.818.114-.359c.491-1.7,1.023-3.574,1.636-5.48a49.956,49.956,0,0,1,8.285-16.512c.744-.907,1.521-1.84,2.347-2.707,7.524-8.227,14.647-9.5,19.259-9.5,6.5,0,11.262,2.6,14.32,6.469a17.468,17.468,0,0,1,1.374,2.1,21.52,21.52,0,0,1,2.773,8.571,23.1,23.1,0,0,1,.22,3.353,77.655,77.655,0,0,1-1.586,13.543m-95.325-27.642-1.668,1.652-24.175-.622-11.2,52.717c-1.546,6.608-4.964,23.1-4.964,28.419-.033,4.964,1.84,8.35,4.457,10.362a14.071,14.071,0,0,0,8.718,2.715c6.722,0,9.07-1.873,13.551-3.582l.793.736-5.945,30.365-2.045,1.988c-8.276,1.75-14.434,3.189-23.144,3.189-22.49-.131-38.724-7.679-38.813-33.89,0-12.267,4.956-34.6,8.644-51.2l8.922-41.848-18.981.647-1.145-1.652,5.553-29.491,1.725-.949h19.285l7.712-38.838,1.5-1.7c19.309-4.939,24.878-7.319,42.47-13.109l.932,1.046L833.9,99.53,827.859,127.7l24.764-.76.646,1.292Zm298.127-49.748-1.333,1.48-63.8-.155-10.378,53.232,55.833-1.685.826,1.325c-4.6,15.3-5.66,19.627-8.751,32.974l-1.415,1.35-53.093-.115-6.976,36.933-8.832,47.965-1.178,1.1-45.724,1.177-.556-1.177,7.925-40.834,12.128-57.648c9.143-44.792,11.76-59.1,20.4-107.9l1.374-1.341h66.808l42.428-1.112.818,1.112Zm90.124,25.908c-8.874-6.256-23.038-9.47-42.469-9.47a155.59,155.59,0,0,0-28.984,2.764c-8.685,1.652-14.075,3.051-18.663,4.367l-1.259,1.276-6.305,32.3,2.036,1.227c4.048-1.865,9.985-4.155,17.82-6.927a67.029,67.029,0,0,1,22.049-4.237c9.74,0,17.166,1.333,22.211,4.089a17.9,17.9,0,0,1,8.907,15.694,25.951,25.951,0,0,1-.368,4.457c-.254,1.244-.409,2.159-.475,2.683l-.106.687s-3.149.221-6.494.507c-2.208.213-5.021.531-8.276.908-5.324.572-11.449,1.325-16.8,2.224-12.823,2.135-48.905,7.753-59.733,31.92-11.352,19.8-9.413,46.067,1.734,58.85a32.2,32.2,0,0,0,18.032,10.411l-.016.024c.352.123,1.6.278,1.873.344,31.2,4.825,53.583-22.36,53.583-22.36l-3.344,16.758,1.373,1.177,35.052-1.177,1.456-1.268,20.633-103.634a76.258,76.258,0,0,0,1.039-7.7c.229-2.977.376-5.389.376-7.164-.024-13.265-6.027-22.473-14.884-28.722m-36.09,103.618s-8.383,13.167-20.454,17.886c-12.112,4.686-20.855.989-24.273-3.7-2.764-3.664-8.505-15.228,2.4-28.239,11.057-13.143,47.6-13.985,47.6-13.985Zm170.179-115.2-8.587,44.571-1.8,1.824a52.38,52.38,0,0,0-9.274-.8c-11.572,0-28.027,3.713-40.9,20.773l-.139.139-17.731,92.487-1.251,1.1-38.5,1.17-1-1.015,30.284-155.262,1.643-1.628,38.111-3.688,1.505,1.627-4.392,22.49,1.873-1.7a124.479,124.479,0,0,1,22.923-16.708q11.727-6.747,23.545-6.73c.761,0,1.538,0,2.355.032Zm206.131,39.067c0,9.381-2.118,19.121-4.2,28.6l-17.886,91.318-1.374,1.1-40.3,1.423-1-1.423s20.65-100.87,20.65-105.883c0-4.572-2.412-16.822-15.236-16.822-10.1,0-20.543,10.2-20.543,10.2l-21.762,111.411-1.342,1.1-17.346.605-15.53.524-7.671.253-.466-.63-.5-.76s3.116-15.351,6.976-34.365h-.107c6.02-29.736,13.715-68.459,13.715-71.518,0-4.572-2.4-16.822-15.244-16.822-10.067,0-20.511,10.2-20.511,10.2l-21.77,111.411-1.374,1.1-6.224.213-34.3,1.153-.875-1.366,30.21-155.107,1.522-1.53,40.195-3.786,1.628,1.627-4.261,21.836s19.4-21.263,44.129-21.754c23.079-.433,27.9,21.754,27.9,21.754s22.965-22.261,47.458-21.754c12.39.1,35.363,5.561,35.428,37.685M734.473,133.723c-8.857-6.256-23.006-9.47-42.429-9.47a154.883,154.883,0,0,0-28.967,2.764c-8.7,1.652-14.091,3.051-18.7,4.367l-1.252,1.276-6.3,32.3,2.036,1.227c4.049-1.865,9.994-4.155,17.812-6.927a67.066,67.066,0,0,1,22.049-4.237c9.748,0,17.125,1.333,22.228,4.089,5.177,2.8,8.882,8.939,8.882,15.694a26.1,26.1,0,0,1-.344,4.457c-.27,1.244-.417,2.159-.482,2.683l-.1.687s-3.141.221-6.486.507c-2.2.213-5.046.531-8.276.908-5.332.572-11.466,1.325-16.79,2.224-12.848,2.135-48.914,7.753-59.75,31.92-11.351,19.8-9.4,46.067,1.742,58.85a32.035,32.035,0,0,0,18.025,10.411l-.016.024c.343.123,1.594.278,1.856.344,31.216,4.825,53.6-22.36,53.6-22.36l-3.353,16.758,1.366,1.177,35.076-1.177,1.447-1.268,20.609-103.634a75.106,75.106,0,0,0,1.088-7.7c.2-2.977.36-5.389.36-7.164-.033-13.265-6.011-22.473-14.933-28.722M698.407,237.341s-8.358,13.167-20.446,17.886c-12.1,4.686-20.829.989-24.289-3.7-2.74-3.664-8.472-15.228,2.454-28.239,11.016-13.143,47.588-13.985,47.588-13.985Zm-84.489-79.778-1.685,1.652-24.15-.622L576.9,211.31c-1.57,6.608-5,23.1-5,28.419-.008,4.964,1.849,8.35,4.457,10.362a14.177,14.177,0,0,0,8.727,2.715c6.73,0,9.086-1.873,13.551-3.582l.8.736-5.937,30.365-2.045,1.988c-8.243,1.75-14.434,3.189-23.16,3.189-22.441-.131-38.708-7.679-38.8-33.89,0-12.267,4.972-34.6,8.644-51.2l8.914-41.848-18.99.647-1.145-1.652,5.57-29.491,1.717-.949h19.276l7.72-38.838,1.513-1.7c19.276-4.939,24.862-7.319,42.486-13.109l.9,1.046L600.261,99.53l-6,28.191,24.714-.761.679,1.292ZM523.124,85.938l-7.344,37.816-1.619.515a34.912,34.912,0,0,0-8.751-8.857,50.475,50.475,0,0,0-30.676-10.885c-8.571,0-15.694,2.675-20.634,7.132a23.532,23.532,0,0,0-7.81,17.82c.024,13.347,9.159,19.857,25.393,29.58L478,162.641c13.6,8.915,34.724,22.589,34.724,53.625-.049,35.272-22.645,70.659-76.858,70.741a110.549,110.549,0,0,1-38.822-7.05,64.326,64.326,0,0,1-17.632-9.83l-.425-2.429,7.2-36.891,1.611-.54c3.264,4.22,7.353,7.671,13.47,11.719a56.3,56.3,0,0,0,30.93,9.642c19.137-.016,34.185-10.942,34.185-27.912-.017-15.2-12.031-22.809-24.576-30.2l-8.677-5.348c-13.657-8.931-32.59-21.076-32.647-51.523,0-11.711,3.369-28.517,13.739-42.281,13.674-18.1,35.174-24.6,56.83-24.6,27.88,0,43.827,9.871,51.3,14.655ZM131.1,152.55c10.983,6.779,26.415,11.089,43.786,11.089,17.346,0,32.925-4.31,44.072-11.089,11.188-6.772,17.779-15.915,17.8-25.565-.025-9.675-6.575-18.728-17.714-25.443C207.937,94.836,192.4,90.616,175,90.583c-17.362.033-32.819,4.253-43.851,10.959-11.04,6.723-17.526,15.743-17.55,25.418.024,9.7,6.493,18.818,17.493,25.59m2.772,52.307c-11.106-6.714-26.652-10.942-44.015-10.942-17.378,0-32.835,4.228-43.859,10.909-11.049,6.723-17.534,15.711-17.559,25.386.025,9.707,6.477,18.826,17.5,25.63,10.976,6.731,26.408,11.049,43.786,11.081,17.379-.041,32.958-4.35,44.1-11.114,11.163-6.771,17.755-15.89,17.788-25.565-.041-9.642-6.6-18.662-17.739-25.385m169.951,0c-11.122-6.714-26.677-10.942-44.048-10.942s-32.843,4.228-43.843,10.909c-11.049,6.715-17.518,15.711-17.534,25.41.016,9.675,6.453,18.794,17.485,25.6,10.983,6.73,26.407,11.048,43.77,11.081,17.362-.041,32.958-4.351,44.113-11.114s17.755-15.89,17.771-25.565c-.016-9.634-6.575-18.654-17.714-25.377m-44.236-36.286a123.037,123.037,0,0,0-22.637,2.093c15.743-11.237,25.434-26.7,25.434-43.769,0-34.341-38.993-61.664-87.408-61.664s-87,27.332-87,61.672c0,17.092,9.512,32.557,25.1,43.794a124.412,124.412,0,0,0-23-2.126c-48.407,0-86.991,27.331-86.991,61.639,0,34.282,38.38,62.129,86.8,62.129,41.21,0,75.754-20.151,85.159-47.3,9.168,27.151,43.116,47.3,84.334,47.3,48.415,0,87.629-27.838,87.629-62.129,0-34.308-39.035-61.639-87.425-61.639m-155.827-41.7c.057-15.465,11.8-25.908,18.687-30.774,13.772-9.79,32.435-15.065,52.537-15.065,20.167,0,38.895,5.3,52.774,15.065,6.943,4.9,18.826,15.358,18.883,30.774-.229,25.778-33.326,46.3-71.87,46.354-20.02,0-38.6-5.357-52.316-15.22-11.948-8.562-18.7-19.595-18.7-31.134M89.885,276.531c-20.045,0-38.609-5.365-52.365-15.244-11.891-8.53-18.654-19.563-18.654-31.077.065-15.465,11.8-25.933,18.662-30.808,13.789-9.724,32.443-15.031,52.553-15.064,20.176.033,38.9,5.332,52.782,15.105,6.952,4.891,18.851,15.334,18.916,30.767-.237,25.744-33.358,46.263-71.894,46.321m85.184-61.108c-3.795-10.934-11.679-20.7-22.433-28.427a120.5,120.5,0,0,0,22.089,2.02,122.725,122.725,0,0,0,22.662-2.094c-10.721,7.737-18.6,17.51-22.318,28.5m84.3,61.108c-20.021,0-38.6-5.365-52.341-15.244-11.915-8.53-18.695-19.563-18.695-31.077.049-15.465,11.826-25.909,18.712-30.808,13.755-9.724,32.426-15.031,52.528-15.064,20.176.033,38.895,5.332,52.815,15.105,6.943,4.891,18.793,15.359,18.826,30.767-.188,25.744-33.3,46.263-71.845,46.321"/><path class="cls-1" d="M1638.717,154.61c-.114,13.691-10.059,24.028-23.07,23.913-12.938-.106-22.768-10.6-22.662-24.289.114-13.968,9.92-24.093,23.193-23.986,12.873.106,22.654,10.672,22.539,24.362m-42.731-.433c-.1,11.719,8.718,21.321,19.677,21.41s19.955-9.364,20.053-21.14a22.472,22.472,0,0,0-5.553-15.113,19.924,19.924,0,0,0-13.854-6.142c-11.588-.1-20.216,8.873-20.323,20.985m18.875-13.461a17,17,0,0,1,5.9.736,7.023,7.023,0,0,1,4.661,6.812,7.117,7.117,0,0,1-5.4,6.878l5.422,13.052-3.836-.024-5.021-12.374-.262-.065-2.42-.025-2.585-.016-.409.065-.114,12.325-3.484-.033.229-27.389Zm-.31,12.185c3.377.033,4.669-.172,5.708-.973a4.425,4.425,0,0,0,1.742-3.615,3.906,3.906,0,0,0-2.584-4.048c-.949-.442-2.454-.572-5.463-.6l-2.936-.016-.09,9.233Z"/></svg>