<svg xmlns="http://www.w3.org/2000/svg" xmlns:xlink="http://www.w3.org/1999/xlink" viewBox="0 0 250 250"><defs><style>.cls-1{fill:url(#linear-gradient);}.cls-2{fill:#fff;}</style><linearGradient id="linear-gradient" x1="21.68" y1="124.55" x2="221.68" y2="124.55" gradientUnits="userSpaceOnUse"><stop offset="0" stop-color="#00aeef"/><stop offset="0.35" stop-color="#11b4e4"/><stop offset="1" stop-color="#2ebdd1"/></linearGradient></defs><title>Data Science</title><g id="Layer_4" data-name="Layer 4"><circle class="cls-1" cx="121.68" cy="124.55" r="100"/><path class="cls-2" d="M54.66,104a33,33,0,0,1,2.72-10.8A56.88,56.88,0,0,1,66.91,77.9C79.13,63.79,96.68,56.36,115,54.21c6.32-.74,6.39-10.75,0-10C94.12,46.66,73.85,54.65,59.84,70.83c-7.68,8.86-15,21-15.18,33.13-.08,6.44,9.92,6.44,10,0Z"/><path class="cls-2" d="M168.12,120a4.15,4.15,0,0,0-4.14-4.14,4.35,4.35,0,0,0-1.35.24l-6.18-7.72a4.08,4.08,0,0,0,.63-2.18A4.12,4.12,0,0,0,150,103.3l-10.88-5a2.46,2.46,0,0,0,0-.37,4.13,4.13,0,0,0-8-1.38H115.45a4.13,4.13,0,0,0-8,1.38,4.23,4.23,0,0,0,0,.5l-6.84,3.42a4.1,4.1,0,0,0-2.86-1.17A4.13,4.13,0,0,0,94.26,107l-6.18,7.72a4.25,4.25,0,0,0-1.35-.24,4.13,4.13,0,0,0-1.38,8v8.79a4.13,4.13,0,1,0,5,5.93l7.53,1.37a4.14,4.14,0,0,0,4.08,3.48l.16,0,2.63,6.58a4.13,4.13,0,1,0,6.09,5.49l11.83,3.38a4.14,4.14,0,0,0,2.74,3.63h2.76a4.11,4.11,0,0,0,1.15-7.13l1.65-4.95,12.38,4.13a4.13,4.13,0,0,0,2.75,3.81h2.76a4.07,4.07,0,0,0,2.49-5.31l10.58-8.82a4.12,4.12,0,0,0,6.24-3.55,4.12,4.12,0,0,0-2.76-3.88V123.86A4.13,4.13,0,0,0,168.12,120ZM153,104.8a1.38,1.38,0,1,1-1.38,1.38A1.38,1.38,0,0,1,153,104.8Zm-2,5a4.1,4.1,0,0,0,2,.52,4.24,4.24,0,0,0,1.34-.24l6.19,7.72a4.09,4.09,0,0,0-.64,2.18,4.78,4.78,0,0,0,.07.65L150.14,126,143,120a4,4,0,0,0,.27-1.43A4,4,0,0,0,143,117Zm-17.35,22.59a4.08,4.08,0,0,0-1.77.42L126,127l10.31-5.35a4.15,4.15,0,0,0,2.82,1.13,4.08,4.08,0,0,0,2.1-.6l6.28,5.24-11.15,6.08A4.09,4.09,0,0,0,133.63,132.39Zm1.38,4.14a1.38,1.38,0,1,1-1.38-1.38A1.38,1.38,0,0,1,135,136.53Zm-20.85-15.19,2.31,7.46-11.75,6.09a4.22,4.22,0,0,0-1.76-1L101,119.26l9.46-.47A4.14,4.14,0,0,0,114.16,121.34Zm-1.22-4.12a1.38,1.38,0,1,1,1.38,1.38A1.38,1.38,0,0,1,112.94,117.22Zm4.36,14.26,3.5,11.27L106,137.83c0-.16,0-.32-.05-.48Zm0-9.34,4.11,4.11L119,127.51Zm.76-3.15a4.18,4.18,0,0,0,.41-1.77,4.1,4.1,0,0,0-.35-1.65l6.55-6.12,10.56,7.92a4.17,4.17,0,0,0-.21,1.23,3.55,3.55,0,0,0,.06.56L124,124.92Zm19.72-.39a1.38,1.38,0,1,1,1.38,1.38A1.38,1.38,0,0,1,137.77,118.6Zm12,10.68,9.89,8.23-21.42-1.94ZM135,96.53a1.38,1.38,0,1,1-1.38,1.38A1.38,1.38,0,0,1,135,96.53Zm-1.89,5A4,4,0,0,0,135,102a4.12,4.12,0,0,0,3-1.25l10.88,5a2.21,2.21,0,0,0,0,.37,4,4,0,0,0,.32,1.59l-8,7.21a4,4,0,0,0-4.25.18l-10.15-7.62Zm-2-2.28.09.28-6.75,6.3-8.77-6.58Zm-19.57-2.75a1.38,1.38,0,1,1-1.38,1.38A1.38,1.38,0,0,1,111.56,96.53Zm-9.65,8.27a2.84,2.84,0,0,0-.06-.5l6.85-3.42a4.12,4.12,0,0,0,5.15.47l8.57,6.42-6.2,5.79a4.06,4.06,0,0,0-1.9-.48,4.12,4.12,0,0,0-3.94,3l-9.69.49-1-8A4.12,4.12,0,0,0,101.91,104.8Zm-4.14-1.38a1.38,1.38,0,1,1-1.38,1.38A1.38,1.38,0,0,1,97.77,103.42Zm-1.35,5.28c.16,0,.32.11.48.15l1,7.81-7.36.37a4.42,4.42,0,0,0-.32-.61Zm-9.69,8.52a1.38,1.38,0,1,1-1.38,1.38A1.38,1.38,0,0,1,86.73,117.22Zm0,19.31a1.38,1.38,0,1,1,1.38-1.38A1.38,1.38,0,0,1,86.73,136.53Zm11.6-.67-7.53-1.37a4.12,4.12,0,0,0-2.69-3.22v-8.79a4.14,4.14,0,0,0,2.57-2.7l7.6-.38,1.92,14.75A4.13,4.13,0,0,0,98.33,135.86Zm3.58,3.43a1.38,1.38,0,1,1,1.38-1.38A1.38,1.38,0,0,1,101.91,139.29Zm5.51,13.79a1.38,1.38,0,1,1,1.38-1.38A1.38,1.38,0,0,1,107.42,153.08Zm16,1.75-11.84-3.39a4.14,4.14,0,0,0-4.12-3.87h-.16L104.63,141a4.51,4.51,0,0,0,.52-.55L121.81,146l2.46,7.92A4,4,0,0,0,123.38,154.83Zm3.36,3.77a1.38,1.38,0,1,1,1.38-1.38A1.38,1.38,0,0,1,126.74,158.6Zm0-5.88L125,147.07l3.27,1.09Zm2.4-7.17L124,143.83l-4.23-13.64,3.66-1.89,6.46,6.46a4,4,0,0,0-.41,1.77,4.12,4.12,0,0,0,1.6,3.25Zm18.25,8.91a1.38,1.38,0,1,1,1.38-1.38A1.38,1.38,0,0,1,147.43,154.46Zm2.1-4.92a4.07,4.07,0,0,0-2.1-.59,4.12,4.12,0,0,0-3.25,1.6l-12.39-4.13,1.92-5.76a4.13,4.13,0,0,0,3.67-2.4L160,140.31a3.17,3.17,0,0,0,.12.41Zm2.89-21.68,8.81-4.81a4.21,4.21,0,0,0,1.37.81v11.55a4.69,4.69,0,0,0-.72.33ZM164,140.67a1.38,1.38,0,1,1,1.38-1.38A1.38,1.38,0,0,1,164,140.67Zm0-19.31a1.38,1.38,0,1,1,1.38-1.38A1.38,1.38,0,0,1,164,121.36Z"/></g></svg>