<svg xmlns="http://www.w3.org/2000/svg" xmlns:xlink="http://www.w3.org/1999/xlink" viewBox="0 0 250 250"><defs><style>.cls-1{fill:url(#linear-gradient);}.cls-2{fill:#fff;}</style><linearGradient id="linear-gradient" x1="25.93" y1="123.98" x2="225.93" y2="123.98" gradientUnits="userSpaceOnUse"><stop offset="0" stop-color="#00aeef"/><stop offset="0.35" stop-color="#11b4e4"/><stop offset="1" stop-color="#2ebdd1"/></linearGradient></defs><title>Back-end Development</title><g id="Layer_4" data-name="Layer 4"><circle class="cls-1" cx="125.93" cy="123.98" r="100"/><path class="cls-2" d="M77.93,99.07v59.24a2.53,2.53,0,0,0,2.5,2.5H176a2.53,2.53,0,0,0,2.5-2.5V99.07a2.53,2.53,0,0,0-2.5-2.5H80.43c-3.22,0-3.22,5,0,5H176l-2.5-2.5v59.24l2.5-2.5H80.43l2.5,2.5V99.07C82.93,95.85,77.93,95.85,77.93,99.07Z"/><g id="Settings"><path class="cls-2" d="M145.35,126.77a1.13,1.13,0,0,0-1.11-.85,3.81,3.81,0,0,1-2.6-6.63,1,1,0,0,0,.1-1.3,17.82,17.82,0,0,0-2.73-2.76,1,1,0,0,0-1.31.11,4,4,0,0,1-4.3,1,3.82,3.82,0,0,1-2.33-3.75,1,1,0,0,0-.85-1,17.36,17.36,0,0,0-3.88,0,1,1,0,0,0-.86,1,3.83,3.83,0,0,1-2.36,3.68,4,4,0,0,1-4.27-1,1,1,0,0,0-1.3-.11,17.34,17.34,0,0,0-2.79,2.76,1,1,0,0,0,.1,1.31,3.83,3.83,0,0,1,1,4.3,4,4,0,0,1-3.76,2.33.94.94,0,0,0-1,.85,17.13,17.13,0,0,0,0,3.92,1.14,1.14,0,0,0,1.13.85,3.77,3.77,0,0,1,3.55,2.37,3.83,3.83,0,0,1-1,4.26,1,1,0,0,0-.11,1.3,17,17,0,0,0,2.73,2.76,1,1,0,0,0,1.31-.1,4,4,0,0,1,4.3-1,3.83,3.83,0,0,1,2.34,3.74,1,1,0,0,0,.84,1,16.61,16.61,0,0,0,2,.12,17.11,17.11,0,0,0,1.89-.11,1,1,0,0,0,.86-1,3.82,3.82,0,0,1,2.36-3.67,4,4,0,0,1,4.27,1,1,1,0,0,0,1.3.11,17.34,17.34,0,0,0,2.79-2.76,1,1,0,0,0-.1-1.31,3.8,3.8,0,0,1,2.56-6.64h.22a1,1,0,0,0,1-.84A17.22,17.22,0,0,0,145.35,126.77Zm-17.11,7.71a5.76,5.76,0,1,1,5.75-5.76A5.77,5.77,0,0,1,128.24,134.48Z"/></g><path class="cls-2" d="M57.75,102.61a33.22,33.22,0,0,1,2.71-10.79A57.18,57.18,0,0,1,70,76.55C82.21,62.44,99.76,55,118.07,52.87c6.31-.75,6.38-10.75,0-10C97.21,45.32,76.93,53.3,62.92,69.48c-7.68,8.87-15,21-15.17,33.13-.09,6.44,9.91,6.44,10,0Z"/></g></svg>