<svg xmlns="http://www.w3.org/2000/svg" xmlns:xlink="http://www.w3.org/1999/xlink" viewBox="0 0 250 250"><defs><style>.cls-1{fill:url(#linear-gradient);}.cls-3{fill:#fff;}</style><linearGradient id="linear-gradient" x1="21.68" y1="124.55" x2="221.68" y2="124.55" gradientUnits="userSpaceOnUse"><stop offset="0" stop-color="#00aeef"/><stop offset="0.35" stop-color="#11b4e4"/><stop offset="1" stop-color="#2ebdd1"/></linearGradient></defs><title>Front-end Development</title><circle class="cls-1" cx="121.68" cy="124.55" r="100"/><path class="cls-3" d="M54.66,108.6a33,33,0,0,1,2.72-10.79,56.93,56.93,0,0,1,9.53-15.27C79.13,68.43,96.68,61,115,58.86c6.32-.75,6.39-10.75,0-10C94.12,51.31,73.85,59.29,59.84,75.47c-7.68,8.87-15,21-15.18,33.13-.08,6.44,9.92,6.45,10,0Z"/><path class="cls-3" d="M76,101.46V160.7a2.53,2.53,0,0,0,2.5,2.5h95.56a2.53,2.53,0,0,0,2.5-2.5V101.46a2.53,2.53,0,0,0-2.5-2.5H78.52c-3.22,0-3.22,5,0,5h95.56l-2.5-2.5V160.7l2.5-2.5H78.52l2.5,2.5V101.46C81,98.25,76,98.24,76,101.46Z"/><path class="cls-3" d="M113.81,116.49l-12,11.31a2.51,2.51,0,0,0,0,3.53l12,10c2.46,2,6-1.47,3.54-3.54l-12-10v3.53l12-11.3c2.35-2.21-1.19-5.75-3.54-3.54Z"/><path class="cls-3" d="M138.59,141.36l12.2-11.09a2.52,2.52,0,0,0,0-3.54L139,116.49c-2.42-2.1-6,1.43-3.53,3.54l11.81,10.24v-3.54l-12.2,11.09c-2.38,2.17,1.16,5.7,3.54,3.54Z"/><path class="cls-3" d="M125.55,144.57l6-25.65c.73-3.13-4.09-4.46-4.82-1.33l-6,25.65c-.73,3.13,4.09,4.47,4.82,1.33Z"/></svg>