<svg id="Layer_1" data-name="Layer 1" xmlns="http://www.w3.org/2000/svg" xmlns:xlink="http://www.w3.org/1999/xlink" viewBox="0 0 200 200"><defs><style>.cls-1{fill:url(#linear-gradient);}.cls-2{fill:#fff;}.cls-3{fill:url(#linear-gradient-2);}.cls-4{fill:url(#linear-gradient-3);}.cls-5{fill:none;stroke:#fff;stroke-miterlimit:10;stroke-width:5px;}</style><linearGradient id="linear-gradient" x1="37.76" y1="48.02" x2="59.46" y2="48.02" gradientUnits="userSpaceOnUse"><stop offset="0" stop-color="#fff"/><stop offset="1" stop-color="#fff"/></linearGradient><linearGradient id="linear-gradient-2" y1="100" x2="200" y2="100" gradientUnits="userSpaceOnUse"><stop offset="0" stop-color="#3f74b9"/><stop offset="0.56" stop-color="#359ec7"/><stop offset="1" stop-color="#2ebbd1"/></linearGradient><linearGradient id="linear-gradient-3" x1="36.44" y1="48.04" x2="60.05" y2="48.04" xlink:href="#linear-gradient"/></defs><title>gaming</title><path class="cls-1" d="M40.36,58.33C44.91,50.22,52.11,44.77,60.52,41c2.94-1.31.4-5.62-2.52-4.32C48.85,40.78,41,47,36,55.81c-1.57,2.81,2.74,5.33,4.32,2.52Z"/><rect class="cls-2" x="125.53" y="110.99" width="6.11" height="6.11" rx="3.05"/><circle class="cls-3" cx="100" cy="100" r="100"/><path class="cls-4" d="M46.84,62.12C50.55,55.5,56.39,51,64.31,47.51c4.94-2.19,6.1-9.39,3.59-13.68-3-5.09-8.73-5.79-13.69-3.59C44,34.79,35.09,42.19,29.57,52c-6.31,11.24,11,21.34,17.27,10.1Z"/><path class="cls-5" d="M128,83H72.34a23.08,23.08,0,1,0,20.17,34.31h15.31A23.08,23.08,0,1,0,128,83Z"/><rect class="cls-2" x="69.56" y="97.86" width="5.59" height="16.96"/><rect class="cls-2" x="69.56" y="97.86" width="5.59" height="16.96" transform="translate(178.7 33.98) rotate(90)"/><rect class="cls-2" x="119.42" y="104.88" width="6.11" height="6.11" rx="3.05"/><rect class="cls-2" x="125.53" y="98.17" width="6.11" height="6.11" rx="3.05"/><rect class="cls-2" x="131.64" y="104.88" width="6.11" height="6.11" rx="3.05"/><rect class="cls-2" x="125.53" y="111.59" width="6.11" height="6.11" rx="3.05"/></svg>