<svg xmlns="http://www.w3.org/2000/svg" xmlns:xlink="http://www.w3.org/1999/xlink" width="200.481" height="200.139" viewBox="0 0 200.481 200.139"><defs><linearGradient id="linear-gradient" x1=".769" x2=".177" y1=".835" y2=".205" gradientUnits="objectBoundingBox"><stop offset="0" stop-color="#004683" stop-opacity=".82"/><stop offset="1" stop-color="#fff" stop-opacity="0"/></linearGradient><linearGradient id="linear-gradient-2" x2="1" y1=".5" y2=".5" gradientUnits="objectBoundingBox"><stop offset="0" stop-color="#3f74b9"/><stop offset=".56" stop-color="#349ec7"/><stop offset="1" stop-color="#2ebbd1"/></linearGradient></defs><g id="Layer_7" data-name="Layer 7" opacity=".9" transform="translate(-57.955 -531.5)"><g id="Group_10" data-name="Group 10" transform="translate(3 -6)"><path id="Path_24" fill="url(#linear-gradient)" d="M100,0A100,100,0,1,1,0,100,100,100,0,0,1,100,0Z" data-name="Path 24" transform="translate(55.436 537.639)"/><path id="Path_10" fill="none" stroke="#fff" stroke-linecap="round" stroke-miterlimit="10" stroke-width="9" d="M82.944,616.912c0-11.488,14.773-49.19,65.317-54.748" data-name="Path 10"/><path id="Path_26" fill="none" d="M100,0A100,100,0,1,1,0,100,100,100,0,0,1,100,0Z" data-name="Path 26" transform="translate(54.955 537.5)"/><g id="Group_1" data-name="Group 1" transform="translate(66.6 541.781)"><rect id="Rectangle_1" width="5.467" height="5.467" fill="#fff" data-name="Rectangle 1" rx="2.734" transform="translate(112.343 116.515)"/><path id="Path_5" fill="url(#linear-gradient-2)" d="M0,130.215Z" data-name="Path 5" transform="translate(0 -23.535)"/><path id="Path_3" fill="none" stroke="#fff" stroke-miterlimit="10" stroke-width="5" d="M134.6,108.079H84.8a20.658,20.658,0,1,0,18.048,30.706h13.7A20.657,20.657,0,1,0,134.6,108.079Z" data-name="Path 3" transform="translate(-20.056 -16.613)"/><rect id="Rectangle_2" width="4.998" height="15.179" fill="#fff" data-name="Rectangle 2" transform="translate(62.259 104.767)"/><rect id="Rectangle_3" width="4.998" height="15.179" fill="#fff" data-name="Rectangle 3" transform="translate(72.347 109.856) rotate(90)"/><rect id="Rectangle_4" width="5.467" height="5.467" fill="#fff" data-name="Rectangle 4" rx="2.734" transform="translate(106.875 111.048)"/><rect id="Rectangle_5" width="5.467" height="5.467" fill="#fff" data-name="Rectangle 5" rx="2.734" transform="translate(112.343 105.038)"/><rect id="Rectangle_6" width="5.467" height="5.467" fill="#fff" data-name="Rectangle 6" rx="2.734" transform="translate(117.81 111.048)"/><rect id="Rectangle_7" width="5.467" height="5.467" fill="#fff" data-name="Rectangle 7" rx="2.734" transform="translate(112.343 117.057)"/><path id="Path_4" fill="none" stroke="#fff" stroke-linecap="round" stroke-width="5" d="M128.107,91.466s-8.473-10.979-2.506-19.092,0-17.422,0-17.422" data-name="Path 4" opacity=".99" transform="translate(-38.61)"/></g></g></g></svg>