<svg xmlns="http://www.w3.org/2000/svg" xmlns:xlink="http://www.w3.org/1999/xlink" viewBox="0 0 250 250"><defs><style>.cls-1{fill:url(#linear-gradient);}.cls-2{fill:#fff;}</style><linearGradient id="linear-gradient" x1="25" y1="124.55" x2="225" y2="124.55" gradientUnits="userSpaceOnUse"><stop offset="0" stop-color="#00aeef"/><stop offset="0.35" stop-color="#11b4e4"/><stop offset="1" stop-color="#2ebdd1"/></linearGradient></defs><title>Hardwares</title><g id="Layer_6" data-name="Layer 6"><circle class="cls-1" cx="125" cy="124.55" r="100"/><path class="cls-2" d="M96.18,102.24v50A3.79,3.79,0,0,0,99.93,156h50a3.79,3.79,0,0,0,3.75-3.75v-50a3.78,3.78,0,0,0-3.75-3.75h-50c-4.84,0-4.84,7.5,0,7.5h50l-3.75-3.75v50l3.75-3.75h-50l3.75,3.75v-50C103.68,97.4,96.18,97.4,96.18,102.24Z"/><path class="cls-2" d="M111.76,116.57v21.34a2.54,2.54,0,0,0,2.5,2.5H135.6a2.54,2.54,0,0,0,2.5-2.5V116.57a2.54,2.54,0,0,0-2.5-2.5H114.26c-3.21,0-3.22,5,0,5H135.6l-2.5-2.5v21.34l2.5-2.5H114.26l2.5,2.5V116.57C116.76,113.36,111.76,113.35,111.76,116.57Z"/><path class="cls-2" d="M116.76,101V91.39c0-3.23-5-3.23-5,0V101c0,3.22,5,3.22,5,0Z"/><path class="cls-2" d="M138.1,101V91.39c0-3.23-5-3.23-5,0V101c0,3.22,5,3.22,5,0Z"/><path class="cls-2" d="M149.93,119.07h10.65c3.22,0,3.22-5,0-5H149.93c-3.23,0-3.23,5,0,5Z"/><path class="cls-2" d="M149.93,140.41h10.65c3.22,0,3.22-5,0-5H149.93c-3.23,0-3.23,5,0,5Z"/><path class="cls-2" d="M99.93,135.41H89.42c-3.22,0-3.22,5,0,5H99.93c3.22,0,3.22-5,0-5Z"/><path class="cls-2" d="M97.92,114.07h-8.5c-3.22,0-3.22,5,0,5h8.5c3.23,0,3.23-5,0-5Z"/><path class="cls-2" d="M111.76,152.24v10.67c0,3.22,5,3.22,5,0V152.24c0-3.23-5-3.23-5,0Z"/><path class="cls-2" d="M133.1,152.24v10.67c0,3.22,5,3.22,5,0V152.24c0-3.23-5-3.23-5,0Z"/><path class="cls-2" d="M58,104a33,33,0,0,1,2.72-10.8A56.84,56.84,0,0,1,70.23,77.9C82.45,63.79,100,56.36,118.31,54.21c6.31-.74,6.39-10.75,0-10C97.45,46.66,77.18,54.65,63.16,70.83c-7.68,8.86-15,21-15.17,33.13-.09,6.44,9.91,6.44,10,0Z"/></g></svg>