<svg xmlns="http://www.w3.org/2000/svg" xmlns:xlink="http://www.w3.org/1999/xlink" viewBox="0 0 250 250"><defs><style>.cls-1{fill:url(#linear-gradient);}.cls-2{fill:#fff;}</style><linearGradient id="linear-gradient" x1="25.31" y1="127.05" x2="225.31" y2="127.05" gradientUnits="userSpaceOnUse"><stop offset="0" stop-color="#00aeef"/><stop offset="0.35" stop-color="#11b4e4"/><stop offset="1" stop-color="#2ebdd1"/></linearGradient></defs><title>Imformation Technology</title><g id="Layer_5" data-name="Layer 5"><circle class="cls-1" cx="125.31" cy="127.05" r="100"/><path class="cls-2" d="M58.29,106.46A33,33,0,0,1,61,95.67,56.77,56.77,0,0,1,70.54,80.4c12.22-14.11,29.77-21.53,48.07-23.68,6.32-.75,6.39-10.76,0-10C97.75,49.17,77.48,57.15,63.47,73.33c-7.68,8.87-15,21-15.18,33.13-.08,6.44,9.92,6.44,10,0Z"/><path class="cls-2" d="M115.76,147.85h23.87V133.48H115.76Zm11.93-9.58a2.4,2.4,0,1,1-2.38,2.39A2.39,2.39,0,0,1,127.69,138.27Z"/><path class="cls-2" d="M160.75,100c-12.58,0-20.19-2.35-24.36-4.32s-5.85-4-6-4.22a2.31,2.31,0,0,0-3.8-.18,20.69,20.69,0,0,1-6.75,4.32c-4.5,2-12.54,4.4-25.21,4.4a2.39,2.39,0,0,0-2.39,2.39v38.32c0,9.75,6.15,18.24,17.78,24.56,7.9,4.3,16.72,6.58,17.66,6.58s9.57-2.18,17.67-6.58c11.63-6.32,17.78-14.81,17.78-24.56V102.34A2.39,2.39,0,0,0,160.75,100ZM144.4,150.24a2.38,2.38,0,0,1-2.38,2.4H113.37a2.39,2.39,0,0,1-2.39-2.4V131.08a2.39,2.39,0,0,1,2.39-2.39h2.4v-7.27a11.93,11.93,0,0,1,23.85,0,2.39,2.39,0,1,1-4.77,0,7.16,7.16,0,0,0-14.31,0v7.27H142a2.38,2.38,0,0,1,2.38,2.39Z"/></g></svg>